<?xml version="1.0" encoding="UTF-8" standalone="no"?>
<!-- Created with Inkscape (http://www.inkscape.org/) -->

<svg
   width="87.686996mm"
   height="74.720001mm"
   viewBox="0 0 87.686997 74.720001"
   version="1.1"
   id="svg5"
   inkscape:version="1.2.2 (b0a8486541, 2022-12-01)"
   sodipodi:docname="slotEndXp.svg"
   xmlns:inkscape="http://www.inkscape.org/namespaces/inkscape"
   xmlns:sodipodi="http://sodipodi.sourceforge.net/DTD/sodipodi-0.dtd"
   xmlns="http://www.w3.org/2000/svg"
   xmlns:svg="http://www.w3.org/2000/svg">
  <sodipodi:namedview
     id="namedview7"
     pagecolor="#ffffff"
     bordercolor="#666666"
     borderopacity="1.0"
     inkscape:pageshadow="2"
     inkscape:pageopacity="0"
     inkscape:pagecheckerboard="0"
     inkscape:document-units="mm"
     showgrid="false"
     fit-margin-top="0"
     fit-margin-left="0"
     fit-margin-right="0"
     fit-margin-bottom="0"
     inkscape:zoom="1.3932941"
     inkscape:cx="119.14211"
     inkscape:cy="227.87723"
     inkscape:window-width="1854"
     inkscape:window-height="1043"
     inkscape:window-x="0"
     inkscape:window-y="0"
     inkscape:window-maximized="1"
     inkscape:current-layer="layer1"
     width="81.15947mm"
     height="68.3327mm"
     inkscape:showpageshadow="2"
     inkscape:deskcolor="#d1d1d1" />
  <defs
     id="defs2">
    <clipPath
       clipPathUnits="userSpaceOnUse"
       id="clipPath854">
      <path
         d="M 0,300 H 300 V 0 H 0 Z"
         id="path852" />
    </clipPath>
    <clipPath
       clipPathUnits="userSpaceOnUse"
       id="clipPath983">
      <path
         d="M 0,300 H 300 V 0 H 0 Z"
         id="path981" />
    </clipPath>
    <clipPath
       clipPathUnits="userSpaceOnUse"
       id="clipPath1482">
      <path
         d="M 0,300 H 300 V 0 H 0 Z"
         id="path1480" />
    </clipPath>
    <clipPath
       clipPathUnits="userSpaceOnUse"
       id="clipPath1743">
      <path
         d="M 0,300 H 300 V 0 H 0 Z"
         id="path1741" />
    </clipPath>
    <clipPath
       clipPathUnits="userSpaceOnUse"
       id="clipPath1926">
      <path
         d="M 0,300 H 300 V 0 H 0 Z"
         id="path1924" />
    </clipPath>
  </defs>
  <g
     inkscape:label="Layer 1"
     inkscape:groupmode="layer"
     id="layer1"
     transform="translate(45.765696,-2.0784398)">
    <g
       id="Layer_2"
       data-name="Layer 2"
       transform="matrix(2.4206954,0,0,2.4206954,25.327974,31.576892)"
       style="fill:#e26969;fill-opacity:1">
      <g
         id="Layer_1-2"
         data-name="Layer 1"
         style="fill:#e26969;fill-opacity:1">
        <path
           class="cls-1"
           d="M 0.53,2.82 A 13.55,13.55 0 0 1 0.64,4.25 L 2.56,6.58 3.11,5.93 Z"
           id="path6"
           style="fill:#e26969;fill-opacity:1" />
        <path
           class="cls-1"
           d="M 2.07,7.16 0.62,5.41 c 0,0.37 -0.06,0.74 -0.11,1.1 l 1.05,1.26 z"
           id="path8"
           style="fill:#e26969;fill-opacity:1" />
        <path
           class="cls-1"
           d="m 0.35,7.48 c -0.1,0.45 -0.2,0.9 -0.34,1.33 a 0.28,0.28 0 0 0 0.43,0.3 L 1.07,8.36 Z"
           id="path10"
           style="fill:#e26969;fill-opacity:1" />
        <path
           class="cls-1"
           d="M 3.6,5.34 4.05,4.81 a 0.28,0.28 0 0 0 0,-0.45 L 0.44,0.05 A 0.28,0.28 0 0 0 0,0.36 c 0.1,0.32 0.19,0.64 0.27,1 z"
           id="path12"
           style="fill:#e26969;fill-opacity:1" />
      </g>
    </g>
    <g
       id="g1928"
       transform="matrix(0.35277777,0,0,-0.35277777,-11.599521,71.814142)"
       style="fill:#000000">
      <path
         d="m 0,0 c -45.743,0 -82.826,37.082 -82.826,82.826 0,45.744 37.083,82.826 82.826,82.826 45.744,0 82.827,-37.082 82.827,-82.826 C 82.827,37.082 45.744,0 0,0 m 0,179.676 c -53.488,0 -96.849,-43.362 -96.849,-96.85 0,-53.488 43.361,-96.849 96.849,-96.849 53.489,0 96.85,43.361 96.85,96.849 0,53.488 -43.361,96.85 -96.85,96.85"
         style="fill:#000000;fill-opacity:1;fill-rule:nonzero;stroke:none"
         id="path1930" />
    </g>
    <path
       d="m 28.226903,2.4315943 3.58645,4.8045431 5.932999,-0.8613484 -0.861348,5.932999 4.804542,3.586451 -4.804542,3.58645 0.861348,5.933 -5.932999,-0.861149 -3.58645,4.804343 -3.586451,-4.804343 -5.933,0.861149 0.861349,-5.933 -4.804543,-3.58645 4.804543,-3.586451 -0.861349,-5.932999 5.933,0.8613484 z"
       style="fill:#000000;fill-opacity:1;fill-rule:nonzero;stroke:none;stroke-width:0.200081"
       id="path880" />
  </g>
</svg>
