<?xml version="1.0" encoding="UTF-8" standalone="no"?>
<!-- Created with Inkscape (http://www.inkscape.org/) -->

<svg
   width="89.293152mm"
   height="68.344368mm"
   viewBox="0 0 89.293152 68.344368"
   version="1.1"
   id="svg5"
   inkscape:version="1.1.2 (0a00cf5339, 2022-02-04)"
   sodipodi:docname="fly.svg"
   xmlns:inkscape="http://www.inkscape.org/namespaces/inkscape"
   xmlns:sodipodi="http://sodipodi.sourceforge.net/DTD/sodipodi-0.dtd"
   xmlns="http://www.w3.org/2000/svg"
   xmlns:svg="http://www.w3.org/2000/svg">
  <sodipodi:namedview
     id="namedview7"
     pagecolor="#ffffff"
     bordercolor="#666666"
     borderopacity="1.0"
     inkscape:pageshadow="2"
     inkscape:pageopacity="0.0"
     inkscape:pagecheckerboard="0"
     inkscape:document-units="mm"
     showgrid="false"
     fit-margin-top="0"
     fit-margin-left="0"
     fit-margin-right="0"
     fit-margin-bottom="0"
     inkscape:zoom="0.69664703"
     inkscape:cx="518.91415"
     inkscape:cy="549.05854"
     inkscape:window-width="1846"
     inkscape:window-height="1016"
     inkscape:window-x="0"
     inkscape:window-y="0"
     inkscape:window-maximized="1"
     inkscape:current-layer="layer1" />
  <defs
     id="defs2">
    <clipPath
       clipPathUnits="userSpaceOnUse"
       id="clipPath934">
      <path
         d="M 0,300 H 300 V 0 H 0 Z"
         id="path932" />
    </clipPath>
  </defs>
  <g
     inkscape:label="Layer 1"
     inkscape:groupmode="layer"
     id="layer1"
     transform="translate(32.113329,-3.0477659)">
    <path
       d="M 33.3133,35.282857 C 38.839917,31.742732 54.560752,20.33778 57.172367,3.7071298 c 0.08325,-0.530225 -0.54963,-0.871714 -0.945092,-0.508706 -3.750381,3.4417 -16.383,13.8257142 -34.21874,15.8453662 -0.271285,0.03069 -0.483304,0.247298 -0.503412,0.519642 -0.521054,7.115881 -1.559631,16.962967 -6.2865,29.668965 l -2.626077,-1.51624 -2.723798,1.572331 C 5.12424,36.555326 4.083192,26.690249 3.561081,19.563432 3.540973,19.291088 3.329306,19.074482 3.057667,19.04379 -14.777718,17.024138 -27.41069,6.6401238 -31.161071,3.1984238 c -0.395464,-0.363008 -1.028347,-0.021518 -0.944739,0.508706 2.611262,16.6306502 18.332098,28.0356022 23.858714,31.5757272 0.503767,0.322792 0.233186,1.105958 -0.36195,1.043517 -2.782006,-0.290336 -7.842603,-1.242132 -13.692364,-4.32435 -0.443794,-0.23354 -0.949677,0.173566 -0.815622,0.657225 2.888544,10.419291 14.265628,16.051389 18.502136,17.821627 0.505177,0.211314 0.447321,0.945446 -0.08502,1.074208 -2.189691,0.530579 -6.143625,1.286933 -9.620601,0.883004 -0.510822,-0.05962 -0.828322,0.522463 -0.508,0.924277 2.958747,3.706987 9.854493,5.642679 14.91897199,6.218412 0.024,0.0028 0.132996,0.03105 0.310796,0.07973 l 1.93886701,5.812719 10.252429,5.918906 10.251721,-5.918906 2.131483,-5.892449 c 5.064831,-0.575733 11.960577,-2.511425 14.918973,-6.218412 0.320321,-0.401814 0.0028,-0.983898 -0.507648,-0.924277 -3.477683,0.403929 -7.431265,-0.352425 -9.620956,-0.883004 -0.531988,-0.128762 -0.590196,-0.862894 -0.08502,-1.074208 4.23686,-1.770238 15.613944,-7.402336 18.502135,-17.821627 0.134057,-0.483659 -0.371475,-0.890765 -0.815268,-0.657225 -5.849761,3.082218 -10.910711,4.034014 -13.692717,4.32435 -0.594783,0.06244 -0.865717,-0.720725 -0.36195,-1.043517"
       style="fill:#000000;fill-opacity:1;fill-rule:nonzero;stroke:none;stroke-width:0.352777"
       id="path938" />
  </g>
</svg>
