<?xml version="1.0" encoding="UTF-8" standalone="no"?>
<svg
   version="1.2"
   width="10.92mm"
   height="10.92mm"
   viewBox="1869 11820 1092 1092"
   preserveAspectRatio="xMidYMid"
   fill-rule="evenodd"
   stroke-width="28.222"
   stroke-linejoin="round"
   xml:space="preserve"
   id="svg120"
   sodipodi:docname="teleport.svg"
   inkscape:version="1.2.2 (b0a8486541, 2022-12-01)"
   xmlns:inkscape="http://www.inkscape.org/namespaces/inkscape"
   xmlns:sodipodi="http://sodipodi.sourceforge.net/DTD/sodipodi-0.dtd"
   xmlns="http://www.w3.org/2000/svg"
   xmlns:svg="http://www.w3.org/2000/svg"><sodipodi:namedview
   id="namedview122"
   pagecolor="#ffffff"
   bordercolor="#666666"
   borderopacity="1.0"
   inkscape:pageshadow="2"
   inkscape:pageopacity="0.0"
   inkscape:pagecheckerboard="0"
   inkscape:document-units="mm"
   showgrid="false"
   inkscape:zoom="18.947268"
   inkscape:cx="35.097408"
   inkscape:cy="25.518191"
   inkscape:window-width="1854"
   inkscape:window-height="1011"
   inkscape:window-x="0"
   inkscape:window-y="0"
   inkscape:window-maximized="1"
   inkscape:current-layer="svg120"
   inkscape:showpageshadow="2"
   inkscape:deskcolor="#d1d1d1" />
 <defs
   class="EmbeddedBulletChars"
   id="defs32">
  <g
   id="bullet-char-template-57356"
   transform="matrix(4.8828125e-4,0,0,-4.8828125e-4,0,0)">
   <path
   d="M 580,1141 1163,571 580,0 -4,571 Z"
   id="path2" />
  </g>
  <g
   id="bullet-char-template-57354"
   transform="matrix(4.8828125e-4,0,0,-4.8828125e-4,0,0)">
   <path
   d="M 8,1128 H 1137 V 0 H 8 Z"
   id="path5" />
  </g>
  <g
   id="bullet-char-template-10146"
   transform="matrix(4.8828125e-4,0,0,-4.8828125e-4,0,0)">
   <path
   d="M 174,0 602,739 174,1481 1456,739 Z M 1358,739 309,1346 659,739 Z"
   id="path8" />
  </g>
  <g
   id="bullet-char-template-10132"
   transform="matrix(4.8828125e-4,0,0,-4.8828125e-4,0,0)">
   <path
   d="M 2015,739 1276,0 H 717 l 543,543 H 174 v 393 h 1086 l -543,545 h 557 z"
   id="path11" />
  </g>
  <g
   id="bullet-char-template-10007"
   transform="matrix(4.8828125e-4,0,0,-4.8828125e-4,0,0)">
   <path
   d="m 0,-2 c -7,16 -16,29 -25,39 l 381,530 c -94,256 -141,385 -141,387 0,25 13,38 40,38 9,0 21,-2 34,-5 21,4 42,12 65,25 l 27,-13 111,-251 280,301 64,-25 24,25 c 21,-10 41,-24 62,-43 C 886,937 835,863 770,784 769,783 710,716 594,584 L 774,223 c 0,-27 -21,-55 -63,-84 l 16,-20 C 717,90 699,76 672,76 641,76 570,178 457,381 L 164,-76 c -22,-34 -53,-51 -92,-51 -42,0 -63,17 -64,51 -7,9 -10,24 -10,44 0,9 1,19 2,30 z"
   id="path14" />
  </g>
  <g
   id="bullet-char-template-10004"
   transform="matrix(4.8828125e-4,0,0,-4.8828125e-4,0,0)">
   <path
   d="M 285,-33 C 182,-33 111,30 74,156 52,228 41,333 41,471 c 0,78 14,145 41,201 34,71 87,106 158,106 53,0 88,-31 106,-94 l 23,-176 c 8,-64 28,-97 59,-98 l 735,706 c 11,11 33,17 66,17 42,0 63,-15 63,-46 V 965 c 0,-36 -10,-64 -30,-84 L 442,47 C 390,-6 338,-33 285,-33 Z"
   id="path17" />
  </g>
  <g
   id="bullet-char-template-9679"
   transform="matrix(4.8828125e-4,0,0,-4.8828125e-4,0,0)">
   <path
   d="M 813,0 C 632,0 489,54 383,161 276,268 223,411 223,592 c 0,181 53,324 160,431 106,107 249,161 430,161 179,0 323,-54 432,-161 108,-107 162,-251 162,-431 0,-180 -54,-324 -162,-431 C 1136,54 992,0 813,0 Z"
   id="path20" />
  </g>
  <g
   id="bullet-char-template-8226"
   transform="matrix(4.8828125e-4,0,0,-4.8828125e-4,0,0)">
   <path
   d="m 346,457 c -73,0 -137,26 -191,78 -54,51 -81,114 -81,188 0,73 27,136 81,188 54,52 118,78 191,78 73,0 134,-26 185,-79 51,-51 77,-114 77,-187 0,-75 -25,-137 -76,-188 -50,-52 -112,-78 -186,-78 z"
   id="path23" />
  </g>
  <g
   id="bullet-char-template-8211"
   transform="matrix(4.8828125e-4,0,0,-4.8828125e-4,0,0)">
   <path
   d="M -4,459 H 1135 V 606 H -4 Z"
   id="path26" />
  </g>
  <g
   id="bullet-char-template-61548"
   transform="matrix(4.8828125e-4,0,0,-4.8828125e-4,0,0)">
   <path
   d="m 173,740 c 0,163 58,303 173,419 116,115 255,173 419,173 163,0 302,-58 418,-173 116,-116 174,-256 174,-419 0,-163 -58,-303 -174,-418 C 1067,206 928,148 765,148 601,148 462,206 346,322 231,437 173,577 173,740 Z"
   id="path29" />
  </g>
 
  
  
  
  
  
  
  
  
  
  
  
  
 
   
  
    
    
   
   
  
    
    
   
   
  
    
    
   
   
  
    
    
   
   
  
    
    
   
   
  
    
    
   </defs>
 <g
   class="com.sun.star.drawing.ClosedBezierShape"
   id="g39"
   transform="translate(14.706042,0.88912647)">
   <g
   id="id3">
    <rect
   class="BoundingBox"
   stroke="none"
   fill="none"
   x="2104"
   y="11892"
   width="590"
   height="126"
   id="rect34" />
    <path
   fill="#ffffff"
   stroke="none"
   d="m 2104,11954 c 0,29 80,54 191,63 v -29 c -67,-7 -112,-19 -112,-34 0,-14 45,-26 112,-33 v -29 c -111,9 -191,34 -191,62 z m 398,-62 v 29 c 67,7 112,19 112,33 0,15 -45,27 -112,34 v 29 c 111,-9 191,-34 191,-63 0,-28 -80,-53 -191,-62 z"
   id="path36" />
   </g>
  </g><g
   class="com.sun.star.drawing.ClosedBezierShape"
   id="g46"
   transform="translate(14.706042,0.88912647)">
   <g
   id="id4">
    <rect
   class="BoundingBox"
   stroke="none"
   fill="none"
   x="1997"
   y="12075"
   width="805"
   height="177"
   id="rect41" />
    <path
   fill="#ffffff"
   stroke="none"
   d="m 1997,12162 c 0,43 127,79 299,89 v -40 c -112,-7 -191,-26 -191,-49 0,-21 79,-40 191,-47 v -40 c -172,10 -299,45 -299,87 z m 506,-87 v 40 c 111,7 191,26 191,47 0,23 -80,42 -191,49 v 40 c 172,-10 298,-46 298,-89 0,-42 -126,-77 -298,-87 z"
   id="path43" />
   </g>
  </g><g
   class="com.sun.star.drawing.PolyPolygonShape"
   id="g53"
   transform="translate(14.706042,0.88912647)">
   <g
   id="id5">
    <rect
   class="BoundingBox"
   stroke="none"
   fill="none"
   x="1869"
   y="12478"
   width="1061"
   height="434"
   id="rect48" />
    <path
   fill="#ffffff"
   stroke="none"
   d="m 2929,12546 v 252 l -531,113 -529,-113 v -252 l 335,-68 194,337 194,-337 z"
   id="path50" />
   </g>
  </g><g
   class="com.sun.star.drawing.ClosedBezierShape"
   id="g60"
   transform="translate(14.706042,0.88912647)">
   <g
   id="id6">
    <rect
   class="BoundingBox"
   stroke="none"
   fill="none"
   x="2295"
   y="12056"
   width="209"
   height="199"
   id="rect55" />
    <path
   fill="#ffffff"
   stroke="none"
   d="m 2503,12057 v 193 c -33,3 -68,4 -104,4 -36,0 -71,-1 -104,-4 v -193 c 2,0 4,1 6,1 35,2 69,3 98,3 29,0 63,-1 97,-3 3,0 5,-1 7,-1 z"
   id="path57" />
   </g>
  </g><g
   class="com.sun.star.drawing.ClosedBezierShape"
   id="g67"
   transform="translate(14.706042,0.88912647)">
   <g
   id="id7">
    <rect
   class="BoundingBox"
   stroke="none"
   fill="none"
   x="2295"
   y="11820"
   width="209"
   height="202"
   id="rect62" />
    <path
   fill="#ffffff"
   stroke="none"
   d="m 2503,11820 v 197 c -32,3 -67,4 -104,4 -37,0 -72,-1 -104,-4 v -197 z"
   id="path64" />
   </g>
  </g><g
   class="com.sun.star.drawing.ClosedBezierShape"
   id="g74"
   transform="translate(14.706042,0.88912647)">
   <g
   id="id8">
    <rect
   class="BoundingBox"
   stroke="none"
   fill="none"
   x="2160"
   y="12294"
   width="478"
   height="440"
   id="rect69" />
    <path
   fill="#ffffff"
   stroke="none"
   d="m 2637,12320 -239,413 -238,-413 h 135 v -26 c 33,2 68,3 103,3 36,0 71,-1 104,-3 v 26 z"
   id="path71" />
   </g>
  </g><rect
   class="BoundingBox"
   stroke="none"
   fill="none"
   x="2118.7061"
   y="11892.889"
   width="590"
   height="126"
   id="rect76" /><path
   id="path78"
   style="fill:#000000;fill-opacity:1;stroke-width:28.222"
   d="m 2309.7265,11820.889 v 71.985 c -111,9 -190.9961,34.012 -190.9961,62.012 0,29 79.9961,53.994 190.9961,62.994 32,3 66.973,4.03 103.973,4.03 37,0 72.0247,-1.03 104.0247,-4.03 v -0.155 c 110.351,-9.086 189.9625,-33.948 189.9625,-62.839 0,-27.895 -79.6115,-52.771 -189.9625,-61.857 v -72.14 z m 0,100.976 v 67.024 c -67,-7 -112.0345,-19.003 -112.0345,-34.003 0,-14 45.0345,-26.021 112.0345,-33.021 z m 207.9977,0.155 c 66.2963,7.018 111.0009,18.955 111.0009,32.866 0,14.905 -44.7044,26.83 -111.0009,33.848 z" /><rect
   class="BoundingBox"
   stroke="none"
   fill="none"
   x="2011.7062"
   y="12075.889"
   width="805"
   height="177"
   id="rect83" /><path
   id="path85"
   style="fill:#000000;fill-opacity:1;stroke-width:28.222"
   d="m 2309.7265,12058.911 v 17.105 c -171.4605,10.082 -298.018,44.954 -298.018,86.868 0,42.911 126.5574,78.797 298.018,88.883 v 0.103 c 33,3 67.973,4.031 103.973,4.031 36,0 71.0247,-1.031 104.0247,-4.031 172,-10 297.9663,-45.987 297.9663,-88.987 0,-42 -125.9663,-76.971 -297.9663,-86.971 v -17.001 c -2,0 -4.028,0.981 -7.028,0.981 -34,2.001 -67.9967,2.998 -96.9967,2.998 -29,0 -62.9785,-0.998 -97.9785,-2.998 -2,0 -3.9945,-0.981 -5.9945,-0.981 z m 207.9977,56.999 c 111,7 190.9961,25.974 190.9961,46.974 0,23 -79.9961,41.989 -190.9961,48.989 z m -207.9977,0.156 v 95.653 c -111.3628,-7.062 -190.0142,-25.918 -190.0142,-48.835 0,-20.925 78.6515,-39.759 190.0142,-46.819 z" /><rect
   class="BoundingBox"
   stroke="none"
   fill="none"
   x="1883.7061"
   y="12478.889"
   width="1061"
   height="434"
   id="rect90" /><path
   fill="#231f20"
   stroke="none"
   d="m 2943.706,12546.889 v 252 l -531,113 -529,-113 v -252 l 335,-68 194,337 194,-337 z"
   id="path92"
   style="fill:#000000;fill-opacity:1" /><rect
   class="BoundingBox"
   stroke="none"
   fill="none"
   x="2309.7061"
   y="12056.889"
   width="209"
   height="199"
   id="rect97" /><rect
   class="BoundingBox"
   stroke="none"
   fill="none"
   x="2309.7061"
   y="11820.889"
   width="209"
   height="202"
   id="rect104" /><rect
   class="BoundingBox"
   stroke="none"
   fill="none"
   x="2174.7061"
   y="12294.889"
   width="478"
   height="440"
   id="rect111" /><path
   fill="#231f20"
   stroke="none"
   d="m 2651.706,12320.889 -239,413 -238,-413 h 135 v -26 c 33,2 68,3 103,3 36,0 71,-1 104,-3 v 26 z"
   id="path113"
   style="fill:#000000;fill-opacity:1" />
</svg>
