<?xml version="1.0" encoding="UTF-8" standalone="no"?>
<!-- Created with Inkscape (http://www.inkscape.org/) -->

<svg
   width="80.432961mm"
   height="67.720634mm"
   viewBox="0 0 80.432961 67.720635"
   version="1.1"
   id="svg5"
   inkscape:version="1.1.2 (0a00cf5339, 2022-02-04)"
   sodipodi:docname="slotXp.svg"
   xmlns:inkscape="http://www.inkscape.org/namespaces/inkscape"
   xmlns:sodipodi="http://sodipodi.sourceforge.net/DTD/sodipodi-0.dtd"
   xmlns="http://www.w3.org/2000/svg"
   xmlns:svg="http://www.w3.org/2000/svg">
  <sodipodi:namedview
     id="namedview7"
     pagecolor="#ffffff"
     bordercolor="#666666"
     borderopacity="1.0"
     inkscape:pageshadow="2"
     inkscape:pageopacity="0.0"
     inkscape:pagecheckerboard="0"
     inkscape:document-units="mm"
     showgrid="false"
     fit-margin-top="0"
     fit-margin-left="0"
     fit-margin-right="0"
     fit-margin-bottom="0"
     inkscape:zoom="1.9704154"
     inkscape:cx="124.08551"
     inkscape:cy="155.2972"
     inkscape:window-width="1846"
     inkscape:window-height="1043"
     inkscape:window-x="0"
     inkscape:window-y="0"
     inkscape:window-maximized="1"
     inkscape:current-layer="layer1" />
  <defs
     id="defs2">
    <clipPath
       clipPathUnits="userSpaceOnUse"
       id="clipPath854">
      <path
         d="M 0,300 H 300 V 0 H 0 Z"
         id="path852" />
    </clipPath>
    <clipPath
       clipPathUnits="userSpaceOnUse"
       id="clipPath983">
      <path
         d="M 0,300 H 300 V 0 H 0 Z"
         id="path981" />
    </clipPath>
    <clipPath
       clipPathUnits="userSpaceOnUse"
       id="clipPath1482">
      <path
         d="M 0,300 H 300 V 0 H 0 Z"
         id="path1480" />
    </clipPath>
    <clipPath
       clipPathUnits="userSpaceOnUse"
       id="clipPath1743">
      <path
         d="M 0,300 H 300 V 0 H 0 Z"
         id="path1741" />
    </clipPath>
    <clipPath
       clipPathUnits="userSpaceOnUse"
       id="clipPath1926">
      <path
         d="M 0,300 H 300 V 0 H 0 Z"
         id="path1924" />
    </clipPath>
    <clipPath
       clipPathUnits="userSpaceOnUse"
       id="clipPath868">
      <path
         d="M 0,300 H 300 V 0 H 0 Z"
         id="path866" />
    </clipPath>
  </defs>
  <g
     inkscape:label="Layer 1"
     inkscape:groupmode="layer"
     id="layer1"
     transform="translate(45.819849,-2.4368503)">
    <g
       id="g874"
       transform="matrix(0.35277777,0,0,-0.35277777,25.740134,47.090332)"
       style="fill:#000000">
      <path
         d="m 0,0 c -1.458,-1.027 -3.39,0.373 -2.86,2.076 2.801,9.008 4.312,18.589 4.312,28.519 0,9.929 -1.511,19.51 -4.312,28.518 -0.53,1.703 1.402,3.104 2.86,2.076 L 24.359,32.124 c 1.057,-0.745 1.057,-2.313 0,-3.059 z"
         style="fill:#000000;fill-opacity:1;fill-rule:nonzero;stroke:none"
         id="path876" />
    </g>
    <g
       id="g878"
       transform="matrix(0.35277777,0,0,-0.35277777,-11.959533,12.560126)"
       style="fill:#000000">
      <path
         d="m 0,0 17.925,-24.013 29.653,4.305 -4.305,-29.653 24.013,-17.925 -24.013,-17.925 4.305,-29.653 -29.653,4.304 L 0,-134.572 l -17.925,24.012 -29.653,-4.304 4.305,29.653 -24.013,17.925 24.013,17.925 -4.305,29.653 29.653,-4.305 z"
         style="fill:#000000;fill-opacity:1;fill-rule:nonzero;stroke:none"
         id="path880" />
    </g>
  </g>
</svg>
