<?xml version="1.0" encoding="UTF-8" standalone="no"?>
<!-- Created with Inkscape (http://www.inkscape.org/) -->

<svg
   width="81.15947mm"
   height="68.332703mm"
   viewBox="0 0 81.15947 68.332703"
   version="1.1"
   id="svg5"
   inkscape:version="1.1.2 (0a00cf5339, 2022-02-04)"
   sodipodi:docname="slot.svg"
   xmlns:inkscape="http://www.inkscape.org/namespaces/inkscape"
   xmlns:sodipodi="http://sodipodi.sourceforge.net/DTD/sodipodi-0.dtd"
   xmlns="http://www.w3.org/2000/svg"
   xmlns:svg="http://www.w3.org/2000/svg">
  <sodipodi:namedview
     id="namedview7"
     pagecolor="#ffffff"
     bordercolor="#666666"
     borderopacity="1.0"
     inkscape:pageshadow="2"
     inkscape:pageopacity="0.0"
     inkscape:pagecheckerboard="0"
     inkscape:document-units="mm"
     showgrid="false"
     fit-margin-top="0"
     fit-margin-left="0"
     fit-margin-right="0"
     fit-margin-bottom="0"
     inkscape:zoom="0.69664703"
     inkscape:cx="570.59025"
     inkscape:cy="551.92943"
     inkscape:window-width="1846"
     inkscape:window-height="1136"
     inkscape:window-x="0"
     inkscape:window-y="0"
     inkscape:window-maximized="1"
     inkscape:current-layer="layer1" />
  <defs
     id="defs2">
    <clipPath
       clipPathUnits="userSpaceOnUse"
       id="clipPath854">
      <path
         d="M 0,300 H 300 V 0 H 0 Z"
         id="path852" />
    </clipPath>
    <clipPath
       clipPathUnits="userSpaceOnUse"
       id="clipPath983">
      <path
         d="M 0,300 H 300 V 0 H 0 Z"
         id="path981" />
    </clipPath>
    <clipPath
       clipPathUnits="userSpaceOnUse"
       id="clipPath1482">
      <path
         d="M 0,300 H 300 V 0 H 0 Z"
         id="path1480" />
    </clipPath>
    <clipPath
       clipPathUnits="userSpaceOnUse"
       id="clipPath1743">
      <path
         d="M 0,300 H 300 V 0 H 0 Z"
         id="path1741" />
    </clipPath>
    <clipPath
       clipPathUnits="userSpaceOnUse"
       id="clipPath1926">
      <path
         d="M 0,300 H 300 V 0 H 0 Z"
         id="path1924" />
    </clipPath>
  </defs>
  <g
     inkscape:label="Layer 1"
     inkscape:groupmode="layer"
     id="layer1"
     transform="translate(45.765696,-2.0784398)">
    <g
       id="g1932"
       transform="matrix(0.35277777,0,0,-0.35277777,26.440541,47.135569)"
       style="fill:#000000">
      <path
         d="m 0,0 c -1.471,-1.036 -3.42,0.376 -2.886,2.095 2.827,9.089 4.352,18.757 4.352,28.776 0,10.02 -1.525,19.688 -4.352,28.776 -0.534,1.719 1.415,3.131 2.886,2.095 L 24.579,32.414 c 1.067,-0.752 1.067,-2.334 0,-3.086 z"
         style="fill:#000000;fill-opacity:1;fill-rule:nonzero;stroke:none"
         id="path1934" />
    </g>
  </g>
</svg>
