<?xml version="1.0" encoding="UTF-8" standalone="no"?>
<svg
   viewBox="0 0 10 10"
   version="1.1"
   id="svg27"
   sodipodi:docname="arrowvine.svg"
   width="10"
   height="10"
   inkscape:version="1.1.2 (0a00cf5339, 2022-02-04)"
   xmlns:inkscape="http://www.inkscape.org/namespaces/inkscape"
   xmlns:sodipodi="http://sodipodi.sourceforge.net/DTD/sodipodi-0.dtd"
   xmlns="http://www.w3.org/2000/svg"
   xmlns:svg="http://www.w3.org/2000/svg">
  <sodipodi:namedview
     id="namedview29"
     pagecolor="#ffffff"
     bordercolor="#666666"
     borderopacity="1.0"
     inkscape:pageshadow="2"
     inkscape:pageopacity="0.0"
     inkscape:pagecheckerboard="0"
     showgrid="false"
     inkscape:zoom="42.640428"
     inkscape:cx="2.3334662"
     inkscape:cy="3.5060623"
     inkscape:window-width="1846"
     inkscape:window-height="1136"
     inkscape:window-x="0"
     inkscape:window-y="0"
     inkscape:window-maximized="1"
     inkscape:current-layer="svg27" />
  <defs
     id="defs7">
    <style
       id="style2">.cls-1{fill:none;}.cls-2{clip-path:url(#clip-path);}</style>
    <clipPath
       id="clip-path"
       transform="translate(-0.01 -0.01)">
      <rect
         class="cls-1"
         width="5.29"
         height="9.96"
         id="rect4"
         x="0"
         y="0" />
    </clipPath>
  </defs>
  <g
     id="Layer_2"
     data-name="Layer 2"
     transform="translate(2.4028143,0.05387536)">
    <g
       id="Layer_1-2"
       data-name="Layer 1">
      <g
         class="cls-2"
         clip-path="url(#clip-path)"
         id="g23">
        <path
           d="M 1.86,4.8 A 27.88,27.88 0 0 0 0.92,2 c 0,0 -0.05,0 -0.06,0 A 7.08,7.08 0 0 0 0,5 2.34,2.34 0 0 1 1.78,4.8 c 0,0 0,0 0,0"
           transform="translate(-0.01,-0.01)"
           id="path9" />
        <path
           d="M 1.26,3.48 A 3.52,3.52 0 0 0 2,6.54 c 0.65,1 2.22,2.28 2.5,3.33 A 2.43,2.43 0 0 1 2.9,9.63 10.69,10.69 0 0 1 1.07,6.63 4.2,4.2 0 0 1 1,3.38 Z"
           transform="translate(-0.01,-0.01)"
           id="path11" />
        <path
           d="M 4.74,5 A 5.66,5.66 0 0 1 3.56,7.73 L 3.24,7.37 2.9,7 A 5.94,5.94 0 0 0 4.35,4.8 Z"
           transform="translate(-0.01,-0.01)"
           id="path13" />
        <path
           d="M 3.51,5.25 A 6.91,6.91 0 0 0 4.77,2.72 c 0,0 0,0 0.05,0 a 6.84,6.84 0 0 1 0.41,3 c 0,0 0,0 0,0 A 3.11,3.11 0 0 0 3.57,5.28 c 0,0 0,0 0,0"
           transform="translate(-0.01,-0.01)"
           id="path15" />
        <path
           d="m 2.28,9.59 v 0 a 0.59,0.59 0 0 1 -0.43,0.1 1.75,1.75 0 0 1 -0.78,-0.32 5.13,5.13 0 0 1 0.48,-0.8 10,10 0 0 0 0.73,1"
           transform="translate(-0.01,-0.01)"
           id="path17" />
        <path
           d="M 3.19,6 A 7.87,7.87 0 0 1 2.6,6.68 L 2.33,6.33 v 0 a 8.64,8.64 0 0 1 0.4,-4 L 3.17,2.42 A 12.49,12.49 0 0 0 3.19,6"
           transform="translate(-0.01,-0.01)"
           id="path19" />
        <path
           d="m 1.91,3 a 2.36,2.36 0 0 1 1.87,0.38 c 0,0 0,0 0,0 A 17.36,17.36 0 0 1 3.46,0 5.51,5.51 0 0 0 1.88,3"
           transform="translate(-0.01,-0.01)"
           id="path21" />
      </g>
    </g>
  </g>
</svg>
