<svg xmlns="http://www.w3.org/2000/svg" xmlns:xlink="http://www.w3.org/1999/xlink" viewBox="0 0 6.58 8.75"><defs><style>.cls-1{fill:none;}.cls-2{clip-path:url(#clip-path);}</style><clipPath id="clip-path" transform="translate(-0.32 -0.04)"><rect class="cls-1" width="6.89" height="8.97"/></clipPath></defs><g id="Layer_2" data-name="Layer 2"><g id="Layer_1-2" data-name="Layer 1"><g class="cls-2"><path d="M2.09,4a2.59,2.59,0,0,1,3,.91A1.38,1.38,0,0,0,5,6a.71.71,0,0,0,.86.34,0,0,0,0,1,0,0A2.48,2.48,0,0,1,3.14,8.77s0,0,0,0a1,1,0,0,0-.59-1.13A1.12,1.12,0,0,0,1.12,8h0A2.62,2.62,0,0,1,.67,4.87h0a1.08,1.08,0,0,0,1.06,0A1,1,0,0,0,2.09,4" transform="translate(-0.32 -0.04)"/><path d="M6.81,4.41a1.32,1.32,0,0,1-1.44.87,1.48,1.48,0,0,1,.2-.46l-.1-.17A2.57,2.57,0,0,0,3.91,3.51a3.42,3.42,0,0,0-2,0l-.25.09a1.2,1.2,0,0,1,0,.48c-.4-.11-.7-1-.24-1.79a0,0,0,0,1,.07,0,.5.5,0,0,0,.39.17,1.58,1.58,0,0,1,.45-1.21,0,0,0,0,1,.07,0,.46.46,0,0,0,.31.24A3.34,3.34,0,0,1,5.56,0a.25.25,0,0,1,.2.12A4.55,4.55,0,0,1,6.39,3a.84.84,0,0,0,.44,0,.05.05,0,0,1,.06,0,1.52,1.52,0,0,1-.4,1.14.46.46,0,0,0,.29.2s0,0,0,.06" transform="translate(-0.32 -0.04)"/></g></g></g></svg>