<?xml version="1.0" encoding="UTF-8" standalone="no"?>
<svg
   viewBox="0 0 10 10"
   version="1.1"
   id="svg17"
   sodipodi:docname="axenut.svg"
   width="10"
   height="10"
   inkscape:version="1.1.2 (0a00cf5339, 2022-02-04)"
   xmlns:inkscape="http://www.inkscape.org/namespaces/inkscape"
   xmlns:sodipodi="http://sodipodi.sourceforge.net/DTD/sodipodi-0.dtd"
   xmlns="http://www.w3.org/2000/svg"
   xmlns:svg="http://www.w3.org/2000/svg">
  <sodipodi:namedview
     id="namedview19"
     pagecolor="#ffffff"
     bordercolor="#666666"
     borderopacity="1.0"
     inkscape:pageshadow="2"
     inkscape:pageopacity="0.0"
     inkscape:pagecheckerboard="0"
     showgrid="false"
     width="10px"
     inkscape:zoom="34.431302"
     inkscape:cx="-0.18878171"
     inkscape:cy="3.8772858"
     inkscape:window-width="1846"
     inkscape:window-height="1136"
     inkscape:window-x="0"
     inkscape:window-y="0"
     inkscape:window-maximized="1"
     inkscape:current-layer="svg17" />
  <defs
     id="defs7">
    <style
       id="style2">.cls-1{fill:none;}.cls-2{clip-path:url(#clip-path);}</style>
    <clipPath
       id="clip-path"
       transform="translate(-0.32 -0.04)">
      <rect
         class="cls-1"
         width="6.8899999"
         height="8.9700003"
         id="rect4"
         x="0"
         y="0" />
    </clipPath>
  </defs>
  <g
     id="Layer_2"
     data-name="Layer 2"
     transform="translate(1.8103303,0.71258287)">
    <g
       id="Layer_1-2"
       data-name="Layer 1">
      <g
         class="cls-2"
         clip-path="url(#clip-path)"
         id="g13">
        <path
           d="m 2.09,4 a 2.59,2.59 0 0 1 3,0.91 A 1.38,1.38 0 0 0 5,6 0.71,0.71 0 0 0 5.86,6.34 2.48,2.48 0 0 1 3.14,8.77 c 0,0 0,0 0,0 A 1,1 0 0 0 2.55,7.64 1.12,1.12 0 0 0 1.12,8 V 8 A 2.62,2.62 0 0 1 0.67,4.87 v 0 a 1.08,1.08 0 0 0 1.06,0 A 1,1 0 0 0 2.09,4"
           transform="translate(-0.32,-0.04)"
           id="path9" />
        <path
           d="M 6.81,4.41 A 1.32,1.32 0 0 1 5.37,5.28 1.48,1.48 0 0 1 5.57,4.82 L 5.47,4.65 a 2.57,2.57 0 0 0 -1.56,-1.14 3.42,3.42 0 0 0 -2,0 L 1.66,3.6 a 1.2,1.2 0 0 1 0,0.48 C 1.26,3.97 0.96,3.08 1.42,2.29 a 0.035,0 -180 0 0 0.07,0 0.5,0.5 0 0 0 0.39,0.17 1.58,1.58 0 0 1 0.45,-1.21 0.035,0 -180 0 0 0.07,0 A 0.46,0.46 0 0 0 2.71,1.49 3.34,3.34 0 0 1 5.56,0 0.25,0.25 0 0 1 5.76,0.12 4.55,4.55 0 0 1 6.39,3 0.84,0.84 0 0 0 6.83,3 0.05,0.05 0 0 1 6.89,3 1.52,1.52 0 0 1 6.49,4.14 0.46,0.46 0 0 0 6.78,4.34 c 0,0 0,0 0,0.06"
           transform="translate(-0.32,-0.04)"
           id="path11" />
      </g>
    </g>
  </g>
</svg>
