<svg xmlns="http://www.w3.org/2000/svg" xmlns:xlink="http://www.w3.org/1999/xlink" viewBox="0 0 6.03 8.93"><defs><style>.cls-1{fill:none;}.cls-2{clip-path:url(#clip-path);}</style><clipPath id="clip-path" transform="translate(-0.01 -0.04)"><rect class="cls-1" width="6.13" height="9.11"/></clipPath></defs><g id="Layer_2" data-name="Layer 2"><g id="Layer_1-2" data-name="Layer 1"><g class="cls-2"><path d="M6,3.1C5.84,4.36,4.67,4.81,3,4.75s-3-.92-3-2c0-.86.66-1,1.32-1.58.51-.43,1-1,1.76-1.08A2,2,0,0,1,5,1.4c.32.65,1.11,1,1,1.7" transform="translate(-0.01 -0.04)"/><path d="M4.31,8.56c-.25.42-1.48.55-2.07.24a.16.16,0,0,1-.08-.17A3.66,3.66,0,0,0,2.38,7.5a3.92,3.92,0,0,0-.21-1,2.89,2.89,0,0,1,0-1.34A4.6,4.6,0,0,0,3,5.31h.58a3.58,3.58,0,0,0-.08.63,3.07,3.07,0,0,0,.6,1.33,1.62,1.62,0,0,1,.22,1.29" transform="translate(-0.01 -0.04)"/></g></g></g></svg>