<?xml version="1.0" encoding="UTF-8" standalone="no"?>
<svg
   viewBox="0 0 9.9999997 9.9999997"
   version="1.1"
   id="svg17"
   sodipodi:docname="corpsecap.svg"
   width="10"
   height="10"
   inkscape:version="1.1.2 (0a00cf5339, 2022-02-04)"
   xmlns:inkscape="http://www.inkscape.org/namespaces/inkscape"
   xmlns:sodipodi="http://sodipodi.sourceforge.net/DTD/sodipodi-0.dtd"
   xmlns="http://www.w3.org/2000/svg"
   xmlns:svg="http://www.w3.org/2000/svg">
  <sodipodi:namedview
     id="namedview19"
     pagecolor="#ffffff"
     bordercolor="#666666"
     borderopacity="1.0"
     inkscape:pageshadow="2"
     inkscape:pageopacity="0.0"
     inkscape:pagecheckerboard="0"
     showgrid="false"
     width="10px"
     inkscape:zoom="17.123051"
     inkscape:cx="-12.29337"
     inkscape:cy="-1.1972166"
     inkscape:window-width="1846"
     inkscape:window-height="1136"
     inkscape:window-x="0"
     inkscape:window-y="0"
     inkscape:window-maximized="1"
     inkscape:current-layer="svg17" />
  <defs
     id="defs7">
    <style
       id="style2">.cls-1{fill:none;}.cls-2{clip-path:url(#clip-path);}</style>
    <clipPath
       id="clip-path"
       transform="translate(-0.01 -0.04)">
      <rect
         class="cls-1"
         width="6.1300001"
         height="9.1099997"
         id="rect4"
         x="0"
         y="0" />
    </clipPath>
  </defs>
  <g
     id="Layer_2"
     data-name="Layer 2"
     transform="translate(2.0967259,0.52651978)">
    <g
       id="Layer_1-2"
       data-name="Layer 1">
      <g
         class="cls-2"
         clip-path="url(#clip-path)"
         id="g13">
        <path
           d="M 6,3.1 C 5.84,4.36 4.67,4.81 3,4.75 1.33,4.69 0,3.83 0,2.75 c 0,-0.86 0.66,-1 1.32,-1.58 0.51,-0.43 1,-1 1.76,-1.08 A 2,2 0 0 1 5,1.4 c 0.32,0.65 1.11,1 1,1.7"
           transform="translate(-0.01,-0.04)"
           id="path9" />
        <path
           d="M 4.31,8.56 C 4.06,8.98 2.83,9.11 2.24,8.8 A 0.16,0.16 0 0 1 2.16,8.63 3.66,3.66 0 0 0 2.38,7.5 3.92,3.92 0 0 0 2.17,6.5 2.89,2.89 0 0 1 2.17,5.16 4.6,4.6 0 0 0 3,5.31 H 3.58 A 3.58,3.58 0 0 0 3.5,5.94 3.07,3.07 0 0 0 4.1,7.27 1.62,1.62 0 0 1 4.32,8.56"
           transform="translate(-0.01,-0.04)"
           id="path11" />
      </g>
    </g>
  </g>
</svg>
