<svg xmlns="http://www.w3.org/2000/svg" xmlns:xlink="http://www.w3.org/1999/xlink" viewBox="0 0 9.82 4.76"><defs><style>.cls-1{fill:none;}.cls-2{clip-path:url(#clip-path);}</style><clipPath id="clip-path" transform="translate(-0.09 0)"><rect class="cls-1" width="9.92" height="4.76"/></clipPath></defs><g id="Layer_2" data-name="Layer 2"><g id="Layer_1-2" data-name="Layer 1"><g class="cls-2"><path d="M9.85,0H3.94a.52.52,0,0,1-.47.36A22.38,22.38,0,0,1,.15.27s0,0,0,0A1.91,1.91,0,0,0,2,2.21c1.46.18,2.49.12,2.52.69s-1,.76-1.25.77a.07.07,0,0,0-.05,0l-.25,1A.05.05,0,0,0,3,4.76H8.23a.05.05,0,0,0,0-.07L8,3.71s0,0,0,0c-.22,0-1.4-.07-1.31-.91S7.28,1.45,9.18,1.2A.7.7,0,0,0,9.73.74c.08-.27.15-.54.18-.67A.06.06,0,0,0,9.85,0" transform="translate(-0.09 0)"/></g></g></g></svg>