<svg xmlns="http://www.w3.org/2000/svg" xmlns:xlink="http://www.w3.org/1999/xlink" viewBox="0 0 7.02 6.95"><defs><style>.cls-1{fill:none;}.cls-2{clip-path:url(#clip-path);}</style><clipPath id="clip-path" transform="translate(-0.05 -0.04)"><rect class="cls-1" width="7.22" height="7.04"/></clipPath></defs><g id="Layer_2" data-name="Layer 2"><g id="Layer_1-2" data-name="Layer 1"><g class="cls-2"><path d="M6.92,2.19a1.66,1.66,0,0,0-.55-.93A3.38,3.38,0,0,0,4.89.47,7,7,0,0,0,2.5.05c-.23,0-.47.52-1,.93a6,6,0,0,0-.64.62,3.18,3.18,0,0,0-.83,2A3.68,3.68,0,0,0,.62,5.27,1.93,1.93,0,0,0,1.71,6.33a16.27,16.27,0,0,1,1.52.61,2.47,2.47,0,0,0,1.2-.05,3.34,3.34,0,0,0,1.26-.68A4.48,4.48,0,0,0,6.77,4.7a3.62,3.62,0,0,0,.15-2.51m-1.61,2c0,.2,0,.83,0,.83A6.24,6.24,0,0,1,3.58,6.25,6.05,6.05,0,0,1,1.86,5s0-.63,0-.83a.93.93,0,0,1-.43-.64.82.82,0,0,0,.48-.4,4.28,4.28,0,0,0-.22-.77c-.06-.24.22-.5.22-.5a.38.38,0,0,0,.57.08.48.48,0,0,0,.1-.63l1-.49,1,.49a.48.48,0,0,0,.1.63.37.37,0,0,0,.56-.08s.28.26.23.5-.26.64-.22.77a.83.83,0,0,0,.47.4.87.87,0,0,1-.43.64" transform="translate(-0.05 -0.04)"/></g><polygon points="3.28 1.81 3.28 2.59 2.62 2.77 2.23 3.14 2.23 3.28 3.28 3 3.28 3.41 2.62 3.59 2.23 3.96 2.23 4.1 3.28 3.82 3.28 4.23 2.88 4.6 2.88 4.74 3.28 4.64 3.28 4.95 3.54 5.48 3.65 5.48 3.65 4.54 4.04 4.18 4.04 4.03 3.65 4.13 3.65 3.72 4.2 3.57 4.59 3.21 4.59 3.05 3.65 3.31 3.65 2.9 4.2 2.75 4.59 2.39 4.59 2.23 3.65 2.49 3.65 2.34 3.39 1.81 3.28 1.81"/></g></g></svg>