<svg xmlns="http://www.w3.org/2000/svg" viewBox="0 0 6.85 7.03"><g id="Layer_2" data-name="Layer 2"><g id="Layer_1-2" data-name="Layer 1"><path d="M5.81,0H1c-.71,0-1,1-1,1l.8,1.87H1l0-.25a.05.05,0,0,1,0-.05l.23-.17.23-.16a.07.07,0,0,1,.06,0l.21,0,.31-.36a.16.16,0,0,1,.1,0h1a.12.12,0,0,1,.11,0l.22.24.22-.06h.06l.24.17,0,0,.27-.15a.08.08,0,0,1,.08,0l.33.12.33.11a.12.12,0,0,1,.06.06l.06.15.27,0a.09.09,0,0,1,0,0l.17.25H6L6.77,1s-.26-1-1-1"/><path d="M.25,5.05H.12A.09.09,0,0,1,0,5l0-.71a.07.07,0,0,1,.07-.07H.25Z"/><path d="M6.59,5.05h.14A.08.08,0,0,0,6.8,5l0-.71a.08.08,0,0,0-.08-.07H6.59Z"/><path d="M.25,3.35V6.89A.14.14,0,0,0,.39,7H6.45a.14.14,0,0,0,.14-.14V3.35Zm3.61,2.7H3c-.05,0-.08,0-.06-.08l.31-.85a.47.47,0,1,1,.65-.5.48.48,0,0,1-.29.5L3.92,6a.06.06,0,0,1-.06.08"/></g></g></svg>