<?xml version="1.0" encoding="UTF-8" standalone="no"?>
<svg
   viewBox="0 0 10 9.9999997"
   version="1.1"
   id="svg12"
   sodipodi:docname="random_item.svg"
   width="10"
   height="10"
   inkscape:version="1.1.2 (0a00cf5339, 2022-02-04)"
   xmlns:inkscape="http://www.inkscape.org/namespaces/inkscape"
   xmlns:sodipodi="http://sodipodi.sourceforge.net/DTD/sodipodi-0.dtd"
   xmlns="http://www.w3.org/2000/svg"
   xmlns:svg="http://www.w3.org/2000/svg">
  <defs
     id="defs16" />
  <sodipodi:namedview
     id="namedview14"
     pagecolor="#ffffff"
     bordercolor="#666666"
     borderopacity="1.0"
     inkscape:pageshadow="2"
     inkscape:pageopacity="0.0"
     inkscape:pagecheckerboard="0"
     showgrid="false"
     width="10px"
     inkscape:zoom="24.898857"
     inkscape:cx="-2.7912928"
     inkscape:cy="1.0241434"
     inkscape:window-width="1846"
     inkscape:window-height="1136"
     inkscape:window-x="0"
     inkscape:window-y="0"
     inkscape:window-maximized="1"
     inkscape:current-layer="svg12" />
  <g
     id="Layer_2"
     data-name="Layer 2"
     transform="translate(1.6353662,1.4314161)">
    <g
       id="Layer_1-2"
       data-name="Layer 1">
      <path
         d="M 5.81,0 H 1 C 0.29,0 0,1 0,1 L 0.8,2.87 H 1 V 2.62 A 0.05,0.05 0 0 1 1,2.57 L 1.23,2.4 1.46,2.24 a 0.07,0.07 0 0 1 0.06,0 H 1.73 L 2.04,1.88 a 0.16,0.16 0 0 1 0.1,0 h 1 a 0.12,0.12 0 0 1 0.11,0 L 3.47,2.12 3.69,2.06 h 0.06 l 0.24,0.17 v 0 L 4.26,2.08 a 0.08,0.08 0 0 1 0.08,0 L 4.67,2.2 5,2.31 A 0.12,0.12 0 0 1 5.06,2.37 L 5.12,2.52 H 5.39 L 5.56,2.77 H 6 L 6.77,1 c 0,0 -0.26,-1 -1,-1"
         id="path2" />
      <path
         d="M 0.25,5.05 H 0.12 A 0.09,0.09 0 0 1 0,5 V 4.29 A 0.07,0.07 0 0 1 0.07,4.22 h 0.18 z"
         id="path4" />
      <path
         d="M 6.59,5.05 H 6.73 A 0.08,0.08 0 0 0 6.8,5 V 4.29 A 0.08,0.08 0 0 0 6.72,4.22 H 6.59 Z"
         id="path6" />
      <path
         d="M 0.25,3.35 V 6.89 A 0.14,0.14 0 0 0 0.39,7 H 6.45 A 0.14,0.14 0 0 0 6.59,6.86 V 3.35 Z m 3.61,2.7 H 3 c -0.05,0 -0.08,0 -0.06,-0.08 L 3.25,5.12 A 0.47,0.47 0 1 1 3.9,4.62 0.48,0.48 0 0 1 3.61,5.12 L 3.92,6 A 0.06,0.06 0 0 1 3.86,6.08"
         id="path8" />
    </g>
  </g>
</svg>
