<?xml version="1.0" encoding="UTF-8" standalone="no"?>
<svg
   viewBox="0 0 10 9.9999999"
   version="1.1"
   id="svg15"
   sodipodi:docname="rockroot.svg"
   width="10"
   height="10"
   inkscape:version="1.1.2 (0a00cf5339, 2022-02-04)"
   xmlns:inkscape="http://www.inkscape.org/namespaces/inkscape"
   xmlns:sodipodi="http://sodipodi.sourceforge.net/DTD/sodipodi-0.dtd"
   xmlns="http://www.w3.org/2000/svg"
   xmlns:svg="http://www.w3.org/2000/svg">
  <sodipodi:namedview
     id="namedview17"
     pagecolor="#ffffff"
     bordercolor="#666666"
     borderopacity="1.0"
     inkscape:pageshadow="2"
     inkscape:pageopacity="0.0"
     inkscape:pagecheckerboard="0"
     showgrid="false"
     width="10px"
     inkscape:zoom="56.763641"
     inkscape:cx="2.069987"
     inkscape:cy="4.2016332"
     inkscape:window-width="1846"
     inkscape:window-height="1136"
     inkscape:window-x="0"
     inkscape:window-y="0"
     inkscape:window-maximized="1"
     inkscape:current-layer="svg15" />
  <defs
     id="defs7">
    <style
       id="style2">.cls-1{fill:none;}.cls-2{clip-path:url(#clip-path);}</style>
    <clipPath
       id="clip-path"
       transform="translate(-0.04 -0.02)">
      <rect
         class="cls-1"
         width="6.5900002"
         height="8.9700003"
         id="rect4"
         x="0"
         y="0" />
    </clipPath>
  </defs>
  <g
     id="Layer_2"
     data-name="Layer 2"
     transform="translate(1.8104817,0.69270244)">
    <g
       id="Layer_1-2"
       data-name="Layer 1">
      <g
         class="cls-2"
         clip-path="url(#clip-path)"
         id="g11">
        <path
           d="M 5.17,5.92 A 4.65,4.65 0 0 0 4.26,3.16 c 0.41,0.15 0.73,0.33 0.93,0.41 a 1.21,1.21 0 0 0 1.4,-0.1 C 5.92,3.18 5.25,2 4.45,1.63 3.07,1.05 2.79,0.13 1.87,0 V 0 A 1.3,1.3 0 0 0 1.25,0.1 v 0 L 1,0.22 V 0.27 A 1.87,1.87 0 0 0 0,1.73 C 0,2.39 0.86,3.59 2.13,5 A 7.13,7.13 0 0 0 2.18,6.54 3.5,3.5 0 0 1 2,8.3 1.46,1.46 0 0 0 3.28,7 3.43,3.43 0 0 0 5.89,8.89 4.85,4.85 0 0 1 5.17,5.89"
           transform="translate(-0.04,-0.02)"
           id="path9" />
      </g>
    </g>
  </g>
</svg>
