<svg xmlns="http://www.w3.org/2000/svg" viewBox="0 0 44.21 22.48"><defs><style>.cls-1{fill:#fff;}.cls-2{fill:#1f2c35;}.cls-3{fill:#e15426;}</style></defs><g id="Layer_2" data-name="Layer 2"><g id="Frame"><path id="Frame-2" data-name="Frame" class="cls-1" d="M40.9,3.28A11.17,11.17,0,0,0,33,0H11.34A11.63,11.63,0,0,0,6.69,1,11.31,11.31,0,0,0,3,3.57a11.26,11.26,0,0,0,8.25,18.91H32.88a11.2,11.2,0,0,0,4.42-.9,11.59,11.59,0,0,0,3.62-2.45,11.2,11.2,0,0,0,0-15.83l0,0"/></g><g id="Dark_Right" data-name="Dark Right"><path id="Background" class="cls-2" d="M24.91,21.8h8A10.56,10.56,0,0,0,33,.68H25.84a.8.8,0,0,0-.78.62L21.4,17.4a3.6,3.6,0,0,0,3.51,4.4"/><path id="Icon" class="cls-1" d="M34.2,5a6.29,6.29,0,0,0-1.83.27A6.07,6.07,0,0,0,30.53,5a6.31,6.31,0,0,0,0,12.62,6.4,6.4,0,0,0,1.84-.27A6.31,6.31,0,1,0,34.2,5M32.37,16.81a5.54,5.54,0,0,1-.8.21,6,6,0,0,1-1,.09,5.83,5.83,0,0,1,0-11.66,6,6,0,0,1,1,.09,5.73,5.73,0,0,1,1.5.49,5.83,5.83,0,0,1-.7,10.78m1.83.3a6,6,0,0,1-1-.09c.24-.12.47-.24.7-.38l.21-.14a5.3,5.3,0,0,0,5.28-5.22,5.3,5.3,0,0,0-5.28-5.23l-.21-.14a6.7,6.7,0,0,0-.7-.37,6,6,0,0,1,1-.1,5.84,5.84,0,0,1,0,11.67"/></g><g id="Fire_Left" data-name="Fire Left"><path id="Background-2" data-name="Background" class="cls-3" d="M19.19.68H11.34a10.56,10.56,0,0,0-.1,21.12h7a.79.79,0,0,0,.78-.62L22.7,5.08A3.6,3.6,0,0,0,19.19.68"/><path id="Icon-2" data-name="Icon" class="cls-1" d="M15.08,8.44A6,6,0,0,1,13.2,2.7,4.69,4.69,0,0,0,9.86,6.28c-1.14,4.08,1.69,5.4,0,6.82-1.9,1.61-3.54-1-3.28-3.3-1.2.94-1.93,4.79-.38,7.12a6,6,0,0,0,4.38,2.86,1.52,1.52,0,0,1-.42-1.8c.3-.86,1.29-1.24,2.22-2a3.92,3.92,0,0,0,1.54-2,4,4,0,0,1,.62,3.64,3.52,3.52,0,0,1-1.37,2A6.11,6.11,0,0,0,18,13.82c0-3-1.51-4.27-2.88-5.38"/></g></g></svg>