<svg xmlns="http://www.w3.org/2000/svg" xmlns:xlink="http://www.w3.org/1999/xlink" viewBox="0 0 8.96 9.21"><defs><style>.cls-1{fill:none;}.cls-2{clip-path:url(#clip-path);}.cls-3{fill:#fff;}</style><clipPath id="clip-path" transform="translate(-0.74 -0.61)"><rect class="cls-1" width="10.44" height="10.44"/></clipPath></defs><g id="Layer_2" data-name="Layer 2"><g id="Layer_1-2" data-name="Layer 1"><g class="cls-2"><path d="M6.5,1.89A1.29,1.29,0,0,1,5.22,3.17a1.28,1.28,0,0,1,0-2.56A1.29,1.29,0,0,1,6.5,1.89" transform="translate(-0.74 -0.61)"/><path d="M6.82,4,6.54,8.57A1.33,1.33,0,0,1,5.22,9.83,1.32,1.32,0,0,1,3.9,8.57L3.62,4A.37.37,0,0,1,4,3.56h.18a1.61,1.61,0,0,0,2.1,0h.18A.37.37,0,0,1,6.82,4" transform="translate(-0.74 -0.61)"/><path d="M3.62,2.24A1.28,1.28,0,1,1,2.34,1,1.28,1.28,0,0,1,3.62,2.24" transform="translate(-0.74 -0.61)"/><path d="M3.94,4.3V8.17A1.32,1.32,0,0,1,2.62,9.43c-.7,0-1.17-.31-1.32-1.26S.74,4.3.74,4.3a.37.37,0,0,1,.37-.39l.36,0a1.62,1.62,0,0,0,.87.26,1.65,1.65,0,0,0,1.18-.51A3.46,3.46,0,0,1,4,3.56c0,.22,0,.53-.05.74" transform="translate(-0.74 -0.61)"/><path d="M8.1,1.24a1,1,0,1,1-1,1,1,1,0,0,1,1-1M8.1,1A1.28,1.28,0,1,0,9.37,2.24,1.28,1.28,0,0,0,8.1,1" transform="translate(-0.74 -0.61)"/><path d="M9.7,4.3s-.41,2.92-.56,3.87S8.53,9.43,7.82,9.43A1.33,1.33,0,0,1,6.5,8.17V4.3c0-.21,0-.54,0-.74a3.73,3.73,0,0,1,.47.06A1.62,1.62,0,0,0,9,3.87l.35,0a.37.37,0,0,1,.37.39" transform="translate(-0.74 -0.61)"/><path class="cls-3" d="M1.89,7.79l0-.32L2.4,7a7.2,7.2,0,0,0,.54-.61A1.78,1.78,0,0,0,3.21,6a.83.83,0,0,0,.07-.34.5.5,0,0,0-.09-.33.38.38,0,0,0-.29-.11.84.84,0,0,0-.5.17l-.4.5a2.75,2.75,0,0,1,0-.4,1.46,1.46,0,0,1,0-.35,1.75,1.75,0,0,1,.48-.21,1.91,1.91,0,0,1,.54-.08A1.11,1.11,0,0,1,3.8,5,.69.69,0,0,1,4,5.57a1.09,1.09,0,0,1-.1.46,2.29,2.29,0,0,1-.36.54c-.17.21-.41.45-.71.75l-.48.47Zm0,0,.47-.35H4.08v.35ZM2,5.84l.07-.66.66-.09-.39.75Zm2.07,2-.53-.24L3.85,7h.3a3.4,3.4,0,0,1-.08.82" transform="translate(-0.74 -0.61)"/><rect class="cls-3" x="3.89" y="5.56" width="1.39" height="0.48"/><path class="cls-3" d="M7.48,7.84a1.46,1.46,0,0,1-1-.31,2.63,2.63,0,0,1-.06-.34c0-.13,0-.27,0-.41l.39.49a.93.93,0,0,0,.61.2c.27,0,.41-.16.41-.47a.64.64,0,0,0-.11-.4.37.37,0,0,0-.32-.14H7.19l0-.38.24,0a1.42,1.42,0,0,1,.86.22.69.69,0,0,1,.3.61.78.78,0,0,1-.31.66,1.25,1.25,0,0,1-.83.25m-.31-.31L6.56,7.4l-.11-.62h.33Zm.21-1.16-.16-.29h.19c.25,0,.37-.15.37-.44a.52.52,0,0,0-.1-.35.32.32,0,0,0-.27-.12.88.88,0,0,0-.5.17l-.36.47c0-.14,0-.27,0-.4a2.49,2.49,0,0,1,.05-.34,1.73,1.73,0,0,1,.48-.2,2.4,2.4,0,0,1,.52-.07,1,1,0,0,1,.66.2.67.67,0,0,1,.25.55.7.7,0,0,1-.31.6,1.36,1.36,0,0,1-.83.22m-.83-.56.07-.56.65-.18-.39.74Z" transform="translate(-0.74 -0.61)"/></g></g></g></svg>