<?xml version="1.0" encoding="UTF-8" standalone="no"?>
<svg
   viewBox="0 0 6.0810818 9.2465584"
   version="1.1"
   id="svg33"
   sodipodi:docname="2-player.svg"
   width="6.0810819"
   height="9.2465582"
   inkscape:version="1.1.2 (0a00cf5339, 2022-02-04)"
   xmlns:inkscape="http://www.inkscape.org/namespaces/inkscape"
   xmlns:sodipodi="http://sodipodi.sourceforge.net/DTD/sodipodi-0.dtd"
   xmlns="http://www.w3.org/2000/svg"
   xmlns:svg="http://www.w3.org/2000/svg">
  <sodipodi:namedview
     id="namedview35"
     pagecolor="#ffffff"
     bordercolor="#666666"
     borderopacity="1.0"
     inkscape:pageshadow="2"
     inkscape:pageopacity="0.0"
     inkscape:pagecheckerboard="0"
     showgrid="false"
     fit-margin-top="0"
     fit-margin-left="0"
     fit-margin-right="0"
     fit-margin-bottom="0"
     inkscape:zoom="39.438845"
     inkscape:cx="3.5117661"
     inkscape:cy="11.372037"
     inkscape:window-width="1846"
     inkscape:window-height="1136"
     inkscape:window-x="0"
     inkscape:window-y="0"
     inkscape:window-maximized="1"
     inkscape:current-layer="svg33" />
  <defs
     id="defs7">
    <style
       id="style2">.cls-1{fill:none;}.cls-2{clip-path:url(#clip-path);}.cls-3{fill:#fff;}</style>
    <clipPath
       id="clip-path"
       transform="translate(-0.89 -0.62)">
      <rect
         class="cls-1"
         width="13.62"
         height="10.44"
         id="rect4"
         x="0"
         y="0" />
    </clipPath>
  </defs>
  <path
     d="M 2.890541,1.2800391 A 1.29,1.29 0 1 1 1.600541,3.9063101e-5 1.28,1.28 0 0 1 2.890541,1.2800391"
     id="path9" />
  <path
     d="m 3.210541,3.3800391 -0.13,4.6 a 1.41,1.41 0 0 1 -1.47,1.26 1.32,1.32 0 0 1 -1.33000004,-1.26 l -0.28000000263,-4.6 a 0.37,0.37 0 0 1 0.37000000263,-0.39 h 0.18 a 1.62,1.62 0 0 0 2.11000004,0 h 0.18 a 0.37,0.37 0 0 1 0.37,0.39"
     id="path11" />
  <path
     d="M 5.760541,1.2800391 A 1.28,1.28 0 1 1 4.480541,3.9063101e-5 1.28,1.28 0 0 1 5.760541,1.2800391"
     id="path17" />
  <path
     d="m 6.080541,3.3800391 -0.28,4.6 a 1.32,1.32 0 0 1 -1.32,1.26 1.34,1.34 0 0 1 -1.47,-1.26 l -0.14,-4.6 a 0.37,0.37 0 0 1 0.34,-0.42 h 0.18 a 1.66,1.66 0 0 0 1.09,0.42 1.62,1.62 0 0 0 1.05,-0.39 h 0.18 a 0.37,0.37 0 0 1 0.37,0.39"
     id="path19" />
  <polygon
     points="5.56,2.96 6.32,2.96 6.27,3.83 5.58,3.83 "
     id="polygon25"
     transform="translate(-2.899459,3.9063101e-5)" />
  <path
     class="cls-3"
     d="m 1.8736755,7.295972 v -0.32 l 0.51,-0.47 a 7.2,7.2 0 0 0 0.54,-0.61 1.78,1.78 0 0 0 0.27,-0.39 0.83,0.83 0 0 0 0.07,-0.34 0.5,0.5 0 0 0 -0.09,-0.33 0.38,0.38 0 0 0 -0.29,-0.11 0.84,0.84 0 0 0 -0.5,0.17 l -0.4,0.5 a 2.75,2.75 0 0 1 0,-0.4 1.46,1.46 0 0 1 0,-0.35 1.75,1.75 0 0 1 0.48,-0.21 1.91,1.91 0 0 1 0.54,-0.08 1.11,1.11 0 0 1 0.78,0.15 0.69,0.69 0 0 1 0.2,0.57 1.09,1.09 0 0 1 -0.1,0.46 2.29,2.29 0 0 1 -0.36,0.54 c -0.17,0.21 -0.41,0.45 -0.71,0.75 l -0.48,0.47 z m 0,0 0.47,-0.35 h 1.72 v 0.35 z m 0.11,-1.95 0.07,-0.66 0.66,-0.09 -0.39,0.75 z m 2.07,2 -0.53,-0.24 0.31,-0.6 h 0.3 a 3.4,3.4 0 0 1 -0.08,0.82"
     id="path21-3"
     style="fill:#ffffff" />
</svg>
