<?xml version="1.0" encoding="UTF-8" standalone="no"?>
<svg
   viewBox="0 0 11.88 9.24"
   version="1.1"
   id="svg33"
   sodipodi:docname="3-4-player.svg"
   inkscape:version="1.1.2 (0a00cf5339, 2022-02-04)"
   xmlns:inkscape="http://www.inkscape.org/namespaces/inkscape"
   xmlns:sodipodi="http://sodipodi.sourceforge.net/DTD/sodipodi-0.dtd"
   xmlns="http://www.w3.org/2000/svg"
   xmlns:svg="http://www.w3.org/2000/svg">
  <sodipodi:namedview
     id="namedview35"
     pagecolor="#ffffff"
     bordercolor="#666666"
     borderopacity="1.0"
     inkscape:pageshadow="2"
     inkscape:pageopacity="0.0"
     inkscape:pagecheckerboard="0"
     showgrid="false"
     inkscape:zoom="52.189079"
     inkscape:cx="4.8956602"
     inkscape:cy="3.3052892"
     inkscape:window-width="1846"
     inkscape:window-height="1136"
     inkscape:window-x="0"
     inkscape:window-y="0"
     inkscape:window-maximized="1"
     inkscape:current-layer="svg33" />
  <defs
     id="defs7">
    <style
       id="style2">.cls-1{fill:none;}.cls-2{clip-path:url(#clip-path);}.cls-3{fill:#fff;}</style>
    <clipPath
       id="clip-path"
       transform="translate(-0.89 -0.62)">
      <rect
         class="cls-1"
         width="13.62"
         height="10.44"
         id="rect4" />
    </clipPath>
  </defs>
  <path
     d="M 5.79,1.28 A 1.29,1.29 0 1 1 4.5,0 1.28,1.28 0 0 1 5.79,1.28"
     id="path9" />
  <path
     d="M 6.11,3.38 5.98,7.98 A 1.41,1.41 0 0 1 4.51,9.24 1.32,1.32 0 0 1 3.18,7.98 L 2.9,3.38 A 0.37,0.37 0 0 1 3.27,2.99 h 0.18 a 1.62,1.62 0 0 0 2.11,0 h 0.18 a 0.37,0.37 0 0 1 0.37,0.39"
     id="path11" />
  <path
     d="M 2.89,1.63 A 1.28,1.28 0 1 1 1.61,0.38 1.28,1.28 0 0 1 2.89,1.63"
     id="path13" />
  <path
     d="M 3.21,3.7 V 7.57 A 1.34,1.34 0 0 1 1.89,8.84 C 1.18,8.84 0.72,8.53 0.57,7.57 0.42,6.61 0,3.7 0,3.7 A 0.37,0.37 0 0 1 0.37,3.31 L 0.73,3.26 a 1.59,1.59 0 0 0 0.88,0.26 1.61,1.61 0 0 0 1.18,-0.51 4.43,4.43 0 0 1 0.47,0 c 0,0.22 0,0.52 -0.05,0.74"
     id="path15" />
  <path
     d="M 8.66,1.28 A 1.28,1.28 0 1 1 7.38,0 1.28,1.28 0 0 1 8.66,1.28"
     id="path17" />
  <path
     d="M 8.98,3.38 8.7,7.98 A 1.32,1.32 0 0 1 7.38,9.24 1.34,1.34 0 0 1 5.91,7.98 L 5.77,3.38 A 0.37,0.37 0 0 1 6.11,2.96 H 6.29 A 1.66,1.66 0 0 0 7.38,3.38 1.62,1.62 0 0 0 8.43,2.99 h 0.18 a 0.37,0.37 0 0 1 0.37,0.39"
     id="path19" />
  <path
     d="m 11.88,3.7 c 0,0 -0.41,2.92 -0.56,3.87 C 11.17,8.52 10.7,8.84 9.99,8.84 A 1.33,1.33 0 0 1 8.67,7.57 V 3.7 c 0,-0.22 0,-0.54 -0.05,-0.74 a 4.43,4.43 0 0 1 0.47,0 1.65,1.65 0 0 0 1.19,0.51 1.59,1.59 0 0 0 0.88,-0.26 l 0.35,0.05 a 0.37,0.37 0 0 1 0.37,0.39"
     id="path23" />
  <polygon
     points="6.27,3.83 5.58,3.83 5.56,2.96 6.32,2.96 "
     id="polygon25" />
  <path
     class="cls-3"
     d="m 7.4209491,6.4075969 v -0.31 h 0.32 2.19 v 0.34 z m 0.39,-0.2 -0.36,-0.06 1.33,-2 h 0.39 z m 0.61,0.94 v -0.25 a 1.43,1.43 0 0 1 0.46,-0.16 l -0.12,0.29 v -0.47 h 0.69 v 0.47 l -0.1,-0.27 0.43,0.08 v 0.26 z m 0.31,0 v -2.67 l 0.05,-0.33 h 0.64 v 3 z"
     id="path27" />
  <rect
     class="cls-3"
     x="5.3626857"
     y="5.3754663"
     width="1.39"
     height="0.47999999"
     id="rect23"
     style="fill:#ffffff" />
  <path
     class="cls-3"
     d="m 3.5453867,7.1861057 a 1.46,1.46 0 0 1 -1,-0.31 2.63,2.63 0 0 1 -0.06,-0.34 c 0,-0.13 0,-0.27 0,-0.41 l 0.39,0.49 a 0.93,0.93 0 0 0 0.61,0.2 c 0.27,0 0.41,-0.16 0.41,-0.47 a 0.64,0.64 0 0 0 -0.11,-0.4 0.37,0.37 0 0 0 -0.32,-0.14 h -0.21 v -0.38 h 0.24 a 1.42,1.42 0 0 1 0.86,0.22 0.69,0.69 0 0 1 0.3,0.61 0.78,0.78 0 0 1 -0.31,0.66 1.25,1.25 0 0 1 -0.83,0.25 m -0.31,-0.31 -0.58,-0.11 -0.11,-0.62 h 0.33 z m 0.21,-1.16 -0.16,-0.29 h 0.19 c 0.25,0 0.37,-0.15 0.37,-0.44 a 0.52,0.52 0 0 0 -0.1,-0.35 0.32,0.32 0 0 0 -0.27,-0.12 0.88,0.88 0 0 0 -0.5,0.17 l -0.36,0.47 c 0,-0.14 0,-0.27 0,-0.4 a 2.49,2.49 0 0 1 0.05,-0.34 1.73,1.73 0 0 1 0.48,-0.2 2.4,2.4 0 0 1 0.52,-0.07 1,1 0 0 1 0.66,0.2 0.67,0.67 0 0 1 0.25,0.55 0.7,0.7 0 0 1 -0.31,0.6 1.36,1.36 0 0 1 -0.83,0.22 m -0.83,-0.56 0.07,-0.56 0.65,-0.18 -0.39,0.74 z"
     id="path25"
     style="fill:#ffffff" />
  <path
     d="M 10.283167,0.59037426 A 1,1 0 1 1 9.2831671,1.5903743 1,1 0 0 1 10.283167,0.59037426 m 0,-0.24 a 1.28,1.28 0 1 0 1.27,1.24000004 1.28,1.28 0 0 0 -1.27,-1.24000004"
     id="path17-3" />
</svg>
