<svg xmlns="http://www.w3.org/2000/svg" xmlns:xlink="http://www.w3.org/1999/xlink" viewBox="0 0 11.88 9.24"><defs><style>.cls-1{fill:none;}.cls-2{clip-path:url(#clip-path);}.cls-3{fill:#fff;}</style><clipPath id="clip-path" transform="translate(-0.89 -0.62)"><rect class="cls-1" width="13.62" height="10.44"/></clipPath></defs><g id="Layer_2" data-name="Layer 2"><g id="Layer_1-2" data-name="Layer 1"><g class="cls-2"><path d="M6.68,1.9A1.29,1.29,0,1,1,5.39.62,1.28,1.28,0,0,1,6.68,1.9" transform="translate(-0.89 -0.62)"/><path d="M7,4,6.87,8.6A1.41,1.41,0,0,1,5.4,9.86,1.32,1.32,0,0,1,4.07,8.6L3.79,4a.37.37,0,0,1,.37-.39h.18a1.62,1.62,0,0,0,2.11,0h.18A.37.37,0,0,1,7,4" transform="translate(-0.89 -0.62)"/><path d="M3.78,2.25A1.28,1.28,0,1,1,2.5,1,1.28,1.28,0,0,1,3.78,2.25" transform="translate(-0.89 -0.62)"/><path d="M4.1,4.32V8.19A1.34,1.34,0,0,1,2.78,9.46c-.71,0-1.17-.31-1.32-1.27S.89,4.32.89,4.32a.37.37,0,0,1,.37-.39l.36-.05a1.59,1.59,0,0,0,.88.26,1.61,1.61,0,0,0,1.18-.51,4.43,4.43,0,0,1,.47,0c0,.22,0,.52-.05.74" transform="translate(-0.89 -0.62)"/><path d="M9.55,1.9A1.28,1.28,0,1,1,8.27.62,1.28,1.28,0,0,1,9.55,1.9" transform="translate(-0.89 -0.62)"/><path d="M9.87,4,9.59,8.6A1.32,1.32,0,0,1,8.27,9.86,1.34,1.34,0,0,1,6.8,8.6L6.66,4A.37.37,0,0,1,7,3.58h.18A1.66,1.66,0,0,0,8.27,4a1.62,1.62,0,0,0,1.05-.39H9.5A.37.37,0,0,1,9.87,4" transform="translate(-0.89 -0.62)"/><path d="M9.88,2.25A1.28,1.28,0,1,0,11.16,1,1.28,1.28,0,0,0,9.88,2.25" transform="translate(-0.89 -0.62)"/><path d="M12.77,4.32s-.41,2.92-.56,3.87-.62,1.27-1.33,1.27A1.33,1.33,0,0,1,9.56,8.19V4.32c0-.22,0-.54-.05-.74a4.43,4.43,0,0,1,.47,0,1.65,1.65,0,0,0,1.19.51,1.59,1.59,0,0,0,.88-.26l.35.05a.37.37,0,0,1,.37.39" transform="translate(-0.89 -0.62)"/><polygon points="5.56 2.96 6.32 2.96 6.27 3.83 5.58 3.83 5.56 2.96"/><path class="cls-3" d="M5.54,7.26l0-.31.32,0H8.05l0,.34Zm.39-.2L5.57,7,6.9,5h.39ZM6.54,8l0-.25A1.43,1.43,0,0,1,7,7.59l-.12.29V7.41h.69v.47l-.1-.27.43.08,0,.26Zm.31,0V5.33L6.9,5h.64V8Z" transform="translate(-0.89 -0.62)"/></g></g></g></svg>