<?xml version="1.0" encoding="UTF-8" standalone="no"?>
<svg
   height="48"
   width="48"
   version="1.1"
   id="svg4"
   sodipodi:docname="door.svg"
   inkscape:version="1.1.2 (0a00cf5339, 2022-02-04)"
   xmlns:inkscape="http://www.inkscape.org/namespaces/inkscape"
   xmlns:sodipodi="http://sodipodi.sourceforge.net/DTD/sodipodi-0.dtd"
   xmlns="http://www.w3.org/2000/svg"
   xmlns:svg="http://www.w3.org/2000/svg">
  <defs
     id="defs8" />
  <sodipodi:namedview
     id="namedview6"
     pagecolor="#ffffff"
     bordercolor="#666666"
     borderopacity="1.0"
     inkscape:pageshadow="2"
     inkscape:pageopacity="0.0"
     inkscape:pagecheckerboard="0"
     showgrid="false"
     inkscape:zoom="16.291667"
     inkscape:cx="23.969309"
     inkscape:cy="23.969309"
     inkscape:window-width="1846"
     inkscape:window-height="1016"
     inkscape:window-x="0"
     inkscape:window-y="0"
     inkscape:window-maximized="1"
     inkscape:current-layer="svg4" />
  <path
     d="M 13,9 V 39 Z"
     id="path831" />
  <path
     id="path829"
     d="m 28.35,25.55 q 0.7,0 1.2,-0.5 0.5,-0.5 0.5,-1.2 0,-0.7 -0.5,-1.2 -0.5,-0.5 -1.2,-0.5 -0.7,0 -1.2,0.5 -0.5,0.5 -0.5,1.2 0,0.7 0.5,1.2 0.5,0.5 1.2,0.5 z M 6,42 v -3 h 4 V 9 Q 10,7.8 10.9,6.9 11.8,6 13,6 H 35 Q 36.2,6 37.1,6.9 38,7.8 38,9 v 30 h 4 v 3 z" />
</svg>
