<?xml version="1.0" encoding="UTF-8" standalone="no"?>
<!-- Created with Inkscape (http://www.inkscape.org/) -->

<svg
   width="64.560051mm"
   height="66.199867mm"
   viewBox="0 0 64.56005 66.199867"
   version="1.1"
   id="svg868"
   inkscape:version="1.1.2 (0a00cf5339, 2022-02-04)"
   sodipodi:docname="level.svg"
   xmlns:inkscape="http://www.inkscape.org/namespaces/inkscape"
   xmlns:sodipodi="http://sodipodi.sourceforge.net/DTD/sodipodi-0.dtd"
   xmlns="http://www.w3.org/2000/svg"
   xmlns:svg="http://www.w3.org/2000/svg">
  <defs
     id="defs8" />
  <sodipodi:namedview
     id="namedview6"
     pagecolor="#ffffff"
     bordercolor="#666666"
     borderopacity="1.0"
     inkscape:pageshadow="2"
     inkscape:pageopacity="0.0"
     inkscape:pagecheckerboard="0"
     inkscape:document-units="mm"
     showgrid="false"
     inkscape:zoom="0.39068086"
     inkscape:cx="75.509203"
     inkscape:cy="240.60559"
     inkscape:window-width="1850"
     inkscape:window-height="1043"
     inkscape:window-x="0"
     inkscape:window-y="0"
     inkscape:window-maximized="1"
     inkscape:current-layer="layer1" />
  <g
     inkscape:label="Layer 1"
     inkscape:groupmode="layer"
     id="layer1"
     transform="translate(7.84782,28.500768)">
    <path
       d="m 24.320801,-6.4339066 -8.314159,5.3226357 8.314159,-9.0370491 8.232938,9.0370491 z M 42.074234,3.8955967 C 43.61086,2.7659234 47.401766,0.02313056 47.401766,0.02313056 L 46.755539,4.2976523 c 0,0 -1.450338,-0.8041112 -4.681305,-0.4020556 z M 1.9674531,4.6230456 1.3213948,0.34396454 c 0,0 3.7909067,2.82401446 5.3273638,3.87229726 C 3.499182,3.8142062 1.9674531,4.6230456 1.9674531,4.6230456 Z M 40.461283,1.8756935 c 0,0 -6.050253,-1.93378459 -16.140482,-15.4942545 C 14.154079,-0.05809109 8.099097,1.8756935 8.099097,1.8756935 c 0,0 -2.9867955,0.4067837 -9.2812205,-6.1316439 2.5849088,12.2680159 2.6614023,21.7885114 2.6614023,21.7885114 0,0 10.0088382,4.843917 22.8415222,4.843917 12.751462,0 22.7603,-4.843917 22.7603,-4.843917 0,0 0.08139,-9.5204955 2.742624,-21.7885114 -6.375647,6.5384276 -9.362442,6.1316439 -9.362442,6.1316439 z"
       id="path3143"
       style="stroke-width:0.16886" />
  </g>
</svg>
