<?xml version="1.0" encoding="UTF-8" standalone="no"?>
<svg
   height="48"
   width="48"
   version="1.1"
   id="svg4"
   sodipodi:docname="lock.svg"
   inkscape:version="1.1.2 (0a00cf5339, 2022-02-04)"
   xmlns:inkscape="http://www.inkscape.org/namespaces/inkscape"
   xmlns:sodipodi="http://sodipodi.sourceforge.net/DTD/sodipodi-0.dtd"
   xmlns="http://www.w3.org/2000/svg"
   xmlns:svg="http://www.w3.org/2000/svg">
  <defs
     id="defs8" />
  <sodipodi:namedview
     id="namedview6"
     pagecolor="#ffffff"
     bordercolor="#666666"
     borderopacity="1.0"
     inkscape:pageshadow="2"
     inkscape:pageopacity="0.0"
     inkscape:pagecheckerboard="0"
     showgrid="false"
     inkscape:zoom="16.291667"
     inkscape:cx="23.969309"
     inkscape:cy="23.969309"
     inkscape:window-width="1846"
     inkscape:window-height="1016"
     inkscape:window-x="0"
     inkscape:window-y="0"
     inkscape:window-maximized="1"
     inkscape:current-layer="svg4" />
  <path
     id="path984"
     style="fill:#000000"
     d="M 24 2 C 21.366667 2 19.125391 2.9253906 17.275391 4.7753906 C 15.425391 6.6253906 14.5 8.8666667 14.5 11.5 L 14.5 16.300781 L 11 16.300781 C 10.166667 16.300781 9.4583333 16.592448 8.875 17.175781 C 8.2916667 17.759114 8 18.467448 8 19.300781 L 8 41 C 8 41.833333 8.2916667 42.541667 8.875 43.125 C 9.4583333 43.708333 10.166667 44 11 44 L 37 44 C 37.833333 44 38.541667 43.708333 39.125 43.125 C 39.708333 42.541667 40 41.833333 40 41 L 40 19.300781 C 40 18.467448 39.708333 17.759114 39.125 17.175781 C 38.541667 16.592448 37.833333 16.300781 37 16.300781 L 33.5 16.300781 L 33.5 11.5 C 33.5 8.8666667 32.574609 6.6253906 30.724609 4.7753906 C 28.874609 2.9253906 26.633333 2 24 2 z M 24 5 C 25.8 5 27.332942 5.6337239 28.599609 6.9003906 C 29.866276 8.1670573 30.5 9.7 30.5 11.5 L 30.5 16.300781 L 17.5 16.300781 L 17.5 11.5 C 17.5 9.7 18.133724 8.1670573 19.400391 6.9003906 C 20.667058 5.6337239 22.2 5 24 5 z M 11 19.300781 L 11 41 L 11 19.300781 z M 24 26.300781 C 25.066667 26.300781 25.974609 26.708724 26.724609 27.525391 C 27.474609 28.342057 27.849609 29.25 27.849609 30.25 C 27.849609 31.283333 27.474609 32.167057 26.724609 32.900391 C 25.974609 33.633724 25.066667 34 24 34 C 22.933333 34 22.025391 33.633724 21.275391 32.900391 C 20.525391 32.167057 20.150391 31.283333 20.150391 30.25 C 20.150391 29.25 20.525391 28.342057 21.275391 27.525391 C 22.025391 26.708724 22.933333 26.300781 24 26.300781 z " />
</svg>
