<?xml version="1.0" encoding="UTF-8" standalone="no"?>
<svg
   width="120.56005mm"
   height="100.19987mm"
   viewBox="0 0 120.56005 100.19987"
   version="1.1"
   sodipodi:docname="loot.svg"
   inkscape:version="1.1.2 (0a00cf5339, 2022-02-04)"
   id="svg18"
   xmlns:inkscape="http://www.inkscape.org/namespaces/inkscape"
   xmlns:sodipodi="http://sodipodi.sourceforge.net/DTD/sodipodi-0.dtd"
   xmlns="http://www.w3.org/2000/svg"
   xmlns:svg="http://www.w3.org/2000/svg">
  <defs
     id="defs22" />
  <sodipodi:namedview
     id="namedview20"
     pagecolor="#ffffff"
     bordercolor="#666666"
     borderopacity="1.0"
     inkscape:pageshadow="2"
     inkscape:pageopacity="0.0"
     inkscape:pagecheckerboard="0"
     inkscape:document-units="mm"
     showgrid="false"
     inkscape:zoom="1.0413466"
     inkscape:cx="248.23629"
     inkscape:cy="326.02019"
     inkscape:window-width="1846"
     inkscape:window-height="1016"
     inkscape:window-x="0"
     inkscape:window-y="0"
     inkscape:window-maximized="1"
     inkscape:current-layer="svg18"
     height="88.19987mm" />
  <path
     id="path14452"
     d="m 113.69184,63.035069 -0.26488,10.330463 C 98.527246,81.643144 69.390051,82.305354 50.715752,72.901985 L 50.517089,62.637742"
     style="fill:#000000;fill-opacity:1;stroke:#ffffff;stroke-width:1.40727;stroke-opacity:1" />
  <path
     id="path14453"
     stroke-linejoin="round"
     d="m 50.517089,62.902627 a 31.587376,8.939798 0 1 0 63.174751,0 31.587375,8.9398011 0 1 0 -63.174751,0 z"
     style="fill:#000000;fill-opacity:1;stroke:#ffffff;stroke-width:1.40727;stroke-opacity:1" />
  <path
     id="path14455"
     d="m 109.60191,53.183431 -0.26487,10.330463 C 94.437329,71.791508 65.300128,72.453718 46.62583,63.050347 l -0.198663,-10.26424"
     style="fill:#000000;fill-opacity:1;stroke:#ffffff;stroke-width:1.40727;stroke-opacity:1" />
  <path
     id="path14456"
     stroke-linejoin="round"
     d="m 46.427167,53.050989 a 31.587375,8.9397979 0 1 0 63.174743,0 31.587375,8.9397979 0 1 0 -63.174743,0 z"
     style="fill:#000000;fill-opacity:1;stroke:#ffffff;stroke-width:1.40727;stroke-opacity:1" />
  <path
     id="path14458"
     d="m 112.13946,43.928863 -0.26489,10.330463 C 96.97487,62.53694 67.83767,63.19915 49.163373,53.795779 L 48.96471,43.531539"
     style="fill:#000000;fill-opacity:1;stroke:#ffffff;stroke-width:1.40727;stroke-opacity:1" />
  <path
     id="path14459"
     stroke-linejoin="round"
     d="m 48.96471,43.796421 a 31.587377,8.9397981 0 1 0 63.17475,0 31.587377,8.9397981 0 1 0 -63.17475,0 z"
     style="fill:#000000;fill-opacity:1;stroke:#ffffff;stroke-width:1.40727;stroke-opacity:1" />
  <path
     id="path14461"
     d="m 111.30356,34.674295 -0.26487,10.330463 C 96.138971,53.282372 67.001773,53.944582 48.327478,44.541211 l -0.198664,-10.26424"
     style="fill:#000000;fill-opacity:1;stroke:#ffffff;stroke-width:1.40727;stroke-opacity:1" />
  <path
     id="path14462"
     d="m 48.128814,34.541853 a 31.587375,8.9397979 0 1 0 63.174746,0 31.587375,8.9397979 0 1 0 -63.174746,0 z"
     style="fill:#000000;fill-opacity:1;stroke:#ffffff;stroke-width:1.40727;stroke-opacity:1" />
  <path
     id="path14464"
     d="m 111.30356,24.524125 -0.26487,10.330463 C 96.138971,43.1322 67.001773,43.79441 48.327478,34.39104 L 48.128814,24.126799"
     style="fill:#000000;fill-opacity:1;stroke:#ffffff;stroke-width:1.40727;stroke-opacity:1" />
  <path
     id="path14465"
     stroke-linejoin="round"
     d="m 48.128814,24.391683 a 31.587375,8.9397979 0 1 0 63.174746,0 31.587375,8.9397979 0 1 0 -63.174746,0 z"
     style="fill:#000000;fill-opacity:1;stroke:#ffffff;stroke-width:1.40727;stroke-opacity:1" />
  <path
     id="path14461-2"
     d="M 69.60045,74.384154 69.335567,84.714617 C 54.435861,92.992228 25.298661,93.654448 6.6243635,84.251071 L 6.4257009,73.986829"
     style="fill:#000000;fill-opacity:1;stroke:#ffffff;stroke-width:1.40727;stroke-opacity:1" />
  <path
     id="path14462-7"
     d="m 6.4257009,74.251713 a 31.587375,8.9397979 0 1 0 63.1747491,0 31.587375,8.9397979 0 1 0 -63.1747491,0 z"
     style="fill:#000000;fill-opacity:1;stroke:#ffffff;stroke-width:1.40727;stroke-opacity:1" />
  <path
     id="path14464-9"
     d="M 68.406312,64.233982 68.141429,74.564445 C 53.241723,82.84206 24.104523,83.504267 5.4302259,74.100899 L 5.2315633,63.836658"
     style="fill:#000000;fill-opacity:1;stroke:#ffffff;stroke-width:1.40727;stroke-opacity:1" />
  <path
     id="path14465-3"
     d="m 5.2315633,64.101541 a 31.587375,8.9397979 0 1 0 63.1747487,0 31.587375,8.9397979 0 1 0 -63.1747487,0 z"
     style="fill:#000000;fill-opacity:1;stroke:#ffffff;stroke-width:1.40727;stroke-opacity:1" />
  <path
     id="path14467-0"
     d="M 68.804707,53.372703 68.539822,63.703164 C 53.640118,71.980778 24.502918,72.642988 5.8286202,63.239619 L 5.6299576,52.975378"
     style="fill:#000000;fill-opacity:1;stroke:#ffffff;stroke-width:1.40727;stroke-opacity:1" />
  <path
     id="path14468-6"
     d="m 5.6299576,53.240261 a 31.587375,8.9397979 0 1 0 63.1747494,0 31.587375,8.9397979 0 1 0 -63.1747494,0 z"
     style="fill:#000000;fill-opacity:1;stroke:#ffffff;stroke-width:1.40727;stroke-opacity:1" />
</svg>
