<?xml version="1.0" encoding="UTF-8" standalone="no"?>
<svg
   width="120.560051mm"
   height="120.199867mm"
   viewBox="0 0 120.56005 120.199867"
   version="1.1"
   sodipodi:docname="loot.svg"
   inkscape:version="1.1.2 (0a00cf5339, 2022-02-04)"
   id="svg18"
   xmlns:inkscape="http://www.inkscape.org/namespaces/inkscape"
   xmlns:sodipodi="http://sodipodi.sourceforge.net/DTD/sodipodi-0.dtd"
   xmlns="http://www.w3.org/2000/svg"
   xmlns:svg="http://www.w3.org/2000/svg">
  <defs
     id="defs22" />
  <sodipodi:namedview
     id="namedview20"
     pagecolor="#ffffff"
     bordercolor="#666666"
     borderopacity="1.0"
     inkscape:pageshadow="2"
     inkscape:pageopacity="0.0"
     inkscape:pagecheckerboard="0"
     inkscape:document-units="mm"
     showgrid="false"
     inkscape:zoom="2.0826931"
     inkscape:cx="227.83002"
     inkscape:cy="233.11164"
     inkscape:window-width="1850"
     inkscape:window-height="1016"
     inkscape:window-x="0"
     inkscape:window-y="0"
     inkscape:window-maximized="1"
     inkscape:current-layer="svg18" />
  <path
     id="path14452"
     d="m 113.69184,67.797572 -0.26488,10.330463 C 98.527246,86.405647 69.390051,87.067857 50.715752,77.664488 L 50.517089,67.400245"
     style="stroke-width:1.40727;fill:#000000;fill-opacity:1;stroke:#ffffff;stroke-opacity:1" />
  <path
     id="path14453"
     stroke-linejoin="round"
     d="m 50.517089,67.66513 a 31.587376,8.939798 0 1 0 63.174751,0 31.587375,8.939798 0 1 0 -63.174751,0 z"
     style="stroke-width:1.40727;fill:#000000;fill-opacity:1;stroke:#ffffff;stroke-opacity:1" />
  <path
     id="path14455"
     d="m 109.60191,57.945934 -0.26487,10.330463 C 94.437329,76.554011 65.300128,77.216221 46.62583,67.81285 L 46.427167,57.54861"
     style="stroke-width:1.40727;fill:#000000;fill-opacity:1;stroke:#ffffff;stroke-opacity:1" />
  <path
     id="path14456"
     stroke-linejoin="round"
     d="m 46.427167,57.813492 a 31.587375,8.9397979 0 1 0 63.174743,0 31.587375,8.9397979 0 1 0 -63.174743,0 z"
     style="stroke-width:1.40727;fill:#000000;fill-opacity:1;stroke:#ffffff;stroke-opacity:1" />
  <path
     id="path14458"
     d="m 112.13946,48.691366 -0.26489,10.330463 c -14.8997,8.277614 -44.0369,8.939824 -62.711197,-0.463547 L 48.96471,48.294042"
     style="stroke-width:1.40727;fill:#000000;fill-opacity:1;stroke:#ffffff;stroke-opacity:1" />
  <path
     id="path14459"
     stroke-linejoin="round"
     d="m 48.96471,48.558924 a 31.587377,8.9397981 0 1 0 63.17475,0 31.587377,8.9397981 0 1 0 -63.17475,0 z"
     style="stroke-width:1.40727;fill:#000000;fill-opacity:1;stroke:#ffffff;stroke-opacity:1" />
  <path
     id="path14461"
     d="m 111.30356,39.436798 -0.26487,10.330463 C 96.138971,58.044875 67.001773,58.707085 48.327478,49.303714 l -0.198664,-10.26424"
     style="stroke-width:1.40727;fill:#000000;fill-opacity:1;stroke:#ffffff;stroke-opacity:1" />
  <path
     id="path14462"
     d="m 48.128814,39.304356 a 31.587375,8.9397979 0 1 0 63.174746,0 31.587375,8.9397979 0 1 0 -63.174746,0 z"
     style="stroke-width:1.40727;fill:#000000;fill-opacity:1;stroke:#ffffff;stroke-opacity:1" />
  <path
     id="path14464"
     d="m 111.30356,29.286628 -0.26487,10.330463 C 96.138971,47.894703 67.001773,48.556913 48.327478,39.153543 L 48.128814,28.889302"
     style="stroke-width:1.40727;fill:#000000;fill-opacity:1;stroke:#ffffff;stroke-opacity:1" />
  <path
     id="path14465"
     stroke-linejoin="round"
     d="m 48.128814,29.154186 a 31.587375,8.9397979 0 1 0 63.174746,0 31.587375,8.9397979 0 1 0 -63.174746,0 z"
     style="stroke-width:1.40727;fill:#000000;fill-opacity:1;stroke:#ffffff;stroke-opacity:1" />
  <path
     id="path14461-2"
     d="M 69.60045,79.146657 69.335567,89.47712 C 54.435861,97.754731 25.298661,98.416951 6.6243635,89.013574 L 6.4257009,78.749332"
     style="stroke-width:1.40727;fill:#000000;fill-opacity:1;stroke:#ffffff;stroke-opacity:1" />
  <path
     id="path14462-7"
     d="m 6.4257009,79.014216 a 31.587375,8.9397979 0 1 0 63.1747491,0 31.587375,8.9397979 0 1 0 -63.1747491,0 z"
     style="stroke-width:1.40727;fill:#000000;fill-opacity:1;stroke:#ffffff;stroke-opacity:1" />
  <path
     id="path14464-9"
     d="M 68.406312,68.996485 68.141429,79.326948 C 53.241723,87.604563 24.104523,88.26677 5.4302259,78.863402 L 5.2315633,68.599161"
     style="stroke-width:1.40727;fill:#000000;fill-opacity:1;stroke:#ffffff;stroke-opacity:1" />
  <path
     id="path14465-3"
     d="m 5.2315633,68.864044 a 31.587375,8.9397979 0 1 0 63.1747487,0 31.587375,8.9397979 0 1 0 -63.1747487,0 z"
     style="stroke-width:1.40727;fill:#000000;fill-opacity:1;stroke:#ffffff;stroke-opacity:1" />
  <path
     id="path14467-0"
     d="M 68.804707,58.135206 68.539822,68.465667 C 53.640118,76.743281 24.502918,77.405491 5.8286202,68.002122 L 5.6299576,57.737881"
     style="stroke-width:1.40727;fill:#000000;fill-opacity:1;stroke:#ffffff;stroke-opacity:1" />
  <path
     id="path14468-6"
     d="m 5.6299576,58.002764 a 31.587375,8.9397979 0 1 0 63.1747494,0 31.587375,8.9397979 0 1 0 -63.1747494,0 z"
     style="stroke-width:1.40727;fill:#000000;fill-opacity:1;stroke:#ffffff;stroke-opacity:1" />
</svg>
