<?xml version="1.0" encoding="UTF-8" standalone="no"?>
<!-- Created with Inkscape (http://www.inkscape.org/) -->

<svg
   version="1.1"
   id="svg2"
   width="691.20001"
   height="664.96002"
   viewBox="0 0 691.20001 664.96002"
   sodipodi:docname="puzzle.svg"
   inkscape:version="1.1.2 (0a00cf5339, 2022-02-04)"
   xmlns:inkscape="http://www.inkscape.org/namespaces/inkscape"
   xmlns:sodipodi="http://sodipodi.sourceforge.net/DTD/sodipodi-0.dtd"
   xmlns="http://www.w3.org/2000/svg"
   xmlns:svg="http://www.w3.org/2000/svg">
  <defs
     id="defs6" />
  <sodipodi:namedview
     id="namedview4"
     pagecolor="#ffffff"
     bordercolor="#666666"
     borderopacity="1.0"
     inkscape:pageshadow="2"
     inkscape:pageopacity="0.0"
     inkscape:pagecheckerboard="0"
     showgrid="false"
     inkscape:zoom="1.1760105"
     inkscape:cx="345.66016"
     inkscape:cy="332.90518"
     inkscape:window-width="1846"
     inkscape:window-height="1016"
     inkscape:window-x="0"
     inkscape:window-y="0"
     inkscape:window-maximized="1"
     inkscape:current-layer="g8" />
  <g
     inkscape:groupmode="layer"
     inkscape:label="Image"
     id="g8">
    <path
       style="fill:#000000;stroke-width:0.32"
       d="m 441.72589,663.26591 c -50.54441,-43.0889 -97.06822,-74.10784 -128.97754,-85.99357 -8.23281,-3.06659 -16.2961,-4.75495 -20.73741,-4.34218 -3.95127,0.36723 -6.13965,1.98461 -7.61743,5.62986 -0.70095,1.72902 -0.71376,2.01629 -0.72783,16.32 -0.0148,15.03401 -0.14624,17.09465 -1.4493,22.72 -2.25879,9.75129 -6.409,17.42992 -12.89144,23.85142 -7.38614,7.31668 -15.379,10.97943 -26.93302,12.34205 -4.26355,0.50282 -12.99729,0.18861 -17.95035,-0.64582 -21.38778,-3.60317 -48.7228,-17.04595 -69.56157,-34.20893 -7.79545,-6.42039 -17.8082,-17.18765 -23.11678,-24.85872 -7.25958,-10.49034 -12.22037,-21.92826 -14.22586,-32.8 -0.71637,-3.88349 -0.79654,-14.40944 -0.13527,-17.76 2.58585,-13.10199 10.10539,-22.43197 22.6305,-28.07911 1.42592,-0.64288 5.81792,-2.26793 9.76,-3.6112 9.20553,-3.1368 12.53404,-4.69654 14.95966,-7.01021 3.17735,-3.03065 4.52775,-6.71094 4.52775,-12.33949 0,-8.80374 -4.44604,-16.95344 -15.02416,-27.53964 -7.48488,-7.49063 -15.76246,-14.01831 -28.44698,-22.43328 C 90.602997,419.15137 39.971495,394.77272 5.2800001,384.47348 2.464,383.63745 0.11848525,382.9194 0.06774501,382.8778 -0.11086327,382.73137 4.2680554,371.61822 6.5605063,366.40001 c 10.2780877,-23.39565 25.2680747,-50.67685 39.1216927,-71.2 15.585987,-23.08953 29.961789,-38.23778 42.119495,-44.38267 5.058618,-2.55679 10.691021,-3.7273 15.030896,-3.12367 5.19661,0.72278 8.43757,2.40696 12.5504,6.52188 3.56102,3.56284 5.26732,6.14717 10.68569,16.18446 2.32773,4.312 5.32607,9.496 6.66299,11.52 5.56627,8.42695 12.85534,13.55112 23.0813,16.226 4.25103,1.11198 11.64438,1.3759 16.37669,0.5846 14.72046,-2.46143 28.65067,-12.87822 40.66762,-30.4106 7.49798,-10.93933 12.49963,-22.40057 14.5316,-33.29903 0.33094,-1.77501 0.59142,-5.29027 0.68623,-9.26097 0.13163,-5.51228 0.0594,-6.94912 -0.52092,-10.35882 -2.44504,-14.3666 -11.07766,-26.6425 -21.7735,-30.96275 -4.55121,-1.83831 -8.81667,-2.49759 -19.38069,-2.99552 -9.09658,-0.42877 -13.05448,-0.85242 -16.79727,-1.79795 -10.65031,-2.69057 -18.41829,-10.67036 -20.63216,-21.19474 -2.49214,-11.8472 1.71689,-27.78686 12.49381,-47.31424 10.98729,-19.908576 28.2462,-43.213313 49.71924,-67.135989 10.78955,-12.020426 34.3102,-36.5724897 39.79959,-41.5448643 l 2.76531,-2.50486333 8.88574,7.96099313 c 35.43197,31.7445205 71.31102,62.9539935 84.88575,73.8380385 21.01622,16.850554 38.48076,27.157635 51.56886,30.434505 4.05366,1.01491 10.18134,1.38726 12.79059,0.77722 4.17459,-0.97601 6.81459,-3.06307 7.8768,-6.22705 0.47453,-1.41346 0.54471,-3.34333 0.56467,-15.533977 0.023,-13.979613 0.10989,-15.370929 1.31044,-20.960001 2.20944,-10.286128 7.17392,-19.297677 14.27305,-25.908522 8.2057,-7.641312 18.96381,-12.316372 32.89559,-14.295151 4.04796,-0.574946 15.03936,-0.479629 19.84,0.172052 13.60265,1.846542 26.2312,5.914743 39.84,12.834199 25.56528,12.998788 44.76896,31.016555 54.87917,51.490143 4.7799,9.679477 6.91139,17.595497 7.26774,26.991317 0.63792,16.81946 -5.65245,31.08699 -17.66141,40.05877 -4.18771,3.1286 -7.16125,4.84195 -14.8855,8.57707 -9.5441,4.6151 -11.06954,5.40768 -13.22419,6.87087 -4.23066,2.873 -6.09482,5.83701 -6.06384,9.64151 0.0243,2.97522 0.93027,5.77723 2.96028,9.15489 2.34605,3.90344 3.84426,5.76313 8.48429,10.53125 10.16915,10.44989 25.29373,21.61175 46.87274,34.59186 8.95011,5.38362 14.03561,8.16453 23.6744,12.94588 21.25251,10.54241 44.67955,19.64771 65.08877,25.29786 2.78985,0.77234 5.13536,1.46716 5.21222,1.54403 0.15379,0.15376 -3.37405,10.04241 -5.38768,15.10198 -7.65977,19.2463 -18.89645,42.74333 -31.17536,65.19085 -23.94867,43.78138 -39.86595,63.83629 -55.94902,70.4928 -10.03792,4.15453 -20.70032,1.89607 -29.37978,-6.22314 -4.01578,-3.75657 -7.0057,-8.81436 -10.79475,-18.26051 -4.64656,-11.58387 -8.07344,-16.11376 -14.92317,-19.7264 -5.13955,-2.71069 -9.86717,-3.79187 -16.43491,-3.75862 -5.25491,0.0266 -9.07069,0.66742 -14.24,2.39139 -9.90423,3.30307 -19.26733,9.44154 -27.85002,18.25853 -4.50125,4.62409 -7.28794,8.04419 -10.52314,12.9151 -8.8454,13.31763 -14.41318,25.6808 -16.89267,37.51005 -0.61878,2.95213 -0.72128,4.39655 -0.71027,10.00995 0.0118,6.03348 0.0794,6.80589 0.84173,9.62362 1.17056,4.3264 2.55235,7.46624 4.76153,10.81962 3.5866,5.44422 9.17328,10.2687 14.4056,12.44012 3.99252,1.65693 6.33789,1.99082 16.28724,2.3185 9.31017,0.30666 13.27181,0.65011 16.96,1.47027 5.4968,1.22237 11.33174,3.77962 14.48512,6.34836 3.20825,2.61344 5.85011,6.9926 7.15453,11.85952 0.49056,1.8303 0.59993,3.38131 0.59801,8.48 -0.003,5.52918 -0.10246,6.73622 -0.88131,10.59619 -2.62413,13.00509 -9.16195,29.26973 -18.25075,45.40381 -2.3249,4.12707 -9.4225,15.56675 -12.80583,20.64 -10.13686,15.20003 -22.3311,29.25174 -38.45977,44.31805 -7.05152,6.58704 -17.66119,16.00838 -18.00439,15.98784 -0.1296,-0.008 -1.11497,-0.76378 -2.18973,-1.68 z"
       id="path845" />
  </g>
</svg>
