<?xml version="1.0" encoding="UTF-8" standalone="no"?>
<svg
   height="24px"
   viewBox="0 0 24 24"
   width="24px"
   fill="#000000"
   version="1.1"
   id="svg6"
   sodipodi:docname="terrain.svg"
   inkscape:version="1.1.2 (0a00cf5339, 2022-02-04)"
   xmlns:inkscape="http://www.inkscape.org/namespaces/inkscape"
   xmlns:sodipodi="http://sodipodi.sourceforge.net/DTD/sodipodi-0.dtd"
   xmlns="http://www.w3.org/2000/svg"
   xmlns:svg="http://www.w3.org/2000/svg">
  <defs
     id="defs10" />
  <sodipodi:namedview
     id="namedview8"
     pagecolor="#ffffff"
     bordercolor="#666666"
     borderopacity="1.0"
     inkscape:pageshadow="2"
     inkscape:pageopacity="0.0"
     inkscape:pagecheckerboard="0"
     showgrid="false"
     showguides="false"
     inkscape:snap-global="false"
     inkscape:zoom="11.519948"
     inkscape:cx="14.974026"
     inkscape:cy="14.974026"
     inkscape:window-width="1850"
     inkscape:window-height="1016"
     inkscape:window-x="0"
     inkscape:window-y="0"
     inkscape:window-maximized="1"
     inkscape:current-layer="svg6" />
  <path
     d="M0 0h24v24H0z"
     fill="none"
     id="path2" />
  <path
     d="M14 6l-3.75 5 2.85 3.8-1.6 1.2C9.81 13.75 7 10 7 10l-6 8h22L14 6z"
     id="path4" />
  <path
     d="M 10.162863,10.226237 9.678156,10.605796 7.5059406,6.8332915 5.8094678,8.1617511 C 5.5283382,8.3818964 5.4117258,8.2229945 5.3747693,7.9860774 5.3378132,7.7491611 5.3686419,7.9283264 5.3631505,7.9013414 5.1230256,6.3065797 4.7728518,3.9222291 4.300191,0.74239524 L 4.7848972,0.36283558 6.9571132,4.135342 8.6535866,2.8068803 c 0.237506,-0.1859846 0.3966903,-0.052599 0.4213864,0.068808 l 0.023008,0.099276 c 0.7054299,4.8350917 1.064889,7.2512679 1.064889,7.2512679 z"
     id="path2-3"
     style="stroke-width:0.615634" />
  <path
     d="m 15.655122,7.2251406 0.602444,0.7981613 c 1.008253,-0.573086 1.447547,-0.8044306 1.826383,-2.4935972 0.146054,-0.6364494 0.204922,-1.0066311 1.351125,-1.5961394 l -0.59642,-0.7901805 c -1.012472,0.5010993 -1.618157,1.2589552 -1.826382,2.493598 -0.05902,0.320183 -0.05884,1.034184 -1.35715,1.5881578 z"
     id="path8"
     inkscape:transform-center-x="0.86442953"
     inkscape:transform-center-y="2.4404301" />
  <path
     d="m 17.149183,9.2045808 0.602444,0.7981612 c 1.008252,-0.5730864 1.447546,-0.8044312 1.826383,-2.493597 0.146053,-0.63645 0.212903,-1.0126559 1.351124,-1.5961403 l -0.59642,-0.7901799 c -1.012472,0.5010991 -1.618156,1.2589557 -1.826382,2.4935978 -0.053,0.3281636 -0.05281,1.0421661 -1.357149,1.5881582 z"
     id="path10"
     inkscape:transform-center-x="-0.62963105"
     inkscape:transform-center-y="4.4198702" />
  <path
     d="m 18.667341,11.215947 0.602445,0.798162 c 1.008252,-0.573087 1.447546,-0.804432 1.826382,-2.4935979 0.146054,-0.6364494 0.204923,-1.0066311 1.351125,-1.5961395 l -0.59642,-0.7901799 c -1.012472,0.501099 -1.618157,1.2589552 -1.826383,2.4935972 -0.05902,0.3201838 -0.05884,1.0341851 -1.357149,1.5881581 z"
     id="path12"
     inkscape:transform-center-x="-2.1477895"
     inkscape:transform-center-y="6.4312372" />
</svg>
