<?xml version="1.0" encoding="UTF-8" standalone="no"?>
<!-- Created with Inkscape (http://www.inkscape.org/) -->

<svg
   version="1.1"
   id="svg2"
   xml:space="preserve"
   width="615.30695"
   height="537.66779"
   viewBox="0 0 615.30694 537.66779"
   sodipodi:docname="trap.svg"
   inkscape:version="1.1.2 (0a00cf5339, 2022-02-04)"
   xmlns:inkscape="http://www.inkscape.org/namespaces/inkscape"
   xmlns:sodipodi="http://sodipodi.sourceforge.net/DTD/sodipodi-0.dtd"
   xmlns="http://www.w3.org/2000/svg"
   xmlns:svg="http://www.w3.org/2000/svg"><g
     id="g8"
     inkscape:groupmode="layer"
     inkscape:label="ink_ext_XXXXXX"
     transform="matrix(1.3333333,0,0,-1.3333333,-75.14738,637.42679)"><g
       id="Layer_1-2"
       data-name="Layer 1"
       style="fill:#000000"
       transform="matrix(24.146936,0,0,-24.146936,111.97924,453.37951)"><path
         class="cls-1"
         d="m 15,10.54 c 0,0 -1.65,4.5 -7.5,4.5 -5.85,0 -7.5,-4.5 -7.5,-4.5 0,0 3.87,0.68 7.61,0.68 3.74,0 7.39,-0.68 7.39,-0.68 z"
         id="path6"
         style="fill:#000000" /><path
         class="cls-1"
         d="M 2.18,12.02 1.12,5.69 C 1.11,5.61 1.2,5.56 1.26,5.62 L 4.54,9.27 4.14,0.08 C 4.14,0 4.25,-0.04 4.29,0.04 L 7.5,6.15 10.81,0.99 c 0.04,-0.07 0.15,-0.04 0.15,0.04 L 10.7,7.86 13.97,6.22 c 0.06,-0.04 0.14,0.01 0.12,0.08 l -1.49,6.34 -5.18,0.97 z"
         id="path8"
         style="fill:#000000" /></g></g></svg>
