<?xml version="1.0" encoding="UTF-8" standalone="no"?>
<!-- Created with Inkscape (http://www.inkscape.org/) -->

<svg
   version="1.1"
   id="svg2"
   xml:space="preserve"
   width="615.30695"
   height="537.66779"
   viewBox="0 0 615.30694 537.66779"
   sodipodi:docname="trap.svg"
   inkscape:version="1.1.2 (0a00cf5339, 2022-02-04)"
   xmlns:inkscape="http://www.inkscape.org/namespaces/inkscape"
   xmlns:sodipodi="http://sodipodi.sourceforge.net/DTD/sodipodi-0.dtd"
   xmlns="http://www.w3.org/2000/svg"
   xmlns:svg="http://www.w3.org/2000/svg"><g
     id="g8"
     inkscape:groupmode="layer"
     inkscape:label="ink_ext_XXXXXX"
     transform="matrix(1.3333333,0,0,-1.3333333,-75.14738,637.42679)"><path
       d="m 310.95686,175.25398 -27.64386,-56.86395 -222.244996,117.371 32.8297,62.164 -6.043,-50.257 37.673796,32.955 -5.9761,-49.697 37.6738,32.956 -5.9758,-49.695 37.6746,32.955 -5.977,-49.697 37.675,32.956 -5.976,-49.695 37.674,32.955 -5.976,-49.696 37.674,32.956 -5.976,-49.695 32.91386,28.02795"
       id="path64"
       sodipodi:nodetypes="cccccccccccccccccc" /><path
       d="M 134.827,78.303028 H 431.799 V 114.77703 H 134.827 V 78.303028"
       id="path66" /><path
       d="m 259.81294,177.49742 23.50006,-59.10739 229.93399,101.48637 -28.3842,64.31282 2.49941,-50.55812 -35.26727,35.51834 2.47308,-49.99146 -35.26804,35.51624 2.47308,-49.99146 -35.26815,35.51723 2.4733,-49.99344 -35.26627,35.51845 2.47197,-49.99057 -35.26815,35.51723 2.4733,-49.99345 -35.26826,35.51823 2.47307,-49.99146 -30.78092,30.71244"
       id="path68"
       sodipodi:nodetypes="cccccccccccccccccc" /><path
       d="m 283.314,88.165028 c 16.648,0 30.226,13.577002 30.226,30.225002 0,16.648 -13.578,30.227 -30.226,30.227 -16.648,0 -30.227,-13.579 -30.227,-30.227 0,-16.648 13.579,-30.225002 30.227,-30.225002"
       id="path92" /><path
       d="m 283.314,103.17903 c 8.378,0 15.211,6.834 15.211,15.211 0,8.377 -6.833,15.211 -15.211,15.211 -8.378,0 -15.211,-6.834 -15.211,-15.211 0,-8.377 6.833,-15.211 15.211,-15.211"
       id="path94" /><path
       d="m 327.9097,407.0422 c -19.36525,26.7939 -30.41525,54.6008 -34.54683,66.2122 -0.63184,1.7759 -3.14281,1.7759 -3.77561,0 -4.13062,-11.6114 -15.18062,-39.4183 -34.54586,-66.2122 -25.33061,-35.0465 -38.16907,-52.0494 -38.16907,-81.5434 0,-41.2029 33.40083,-74.6046 74.60274,-74.6046 41.20287,0 74.60369,33.4017 74.60369,74.6046 0,29.494 -12.83749,46.4969 -38.16906,81.5434"
       id="path4110" /></g></svg>
