<?xml version="1.0" encoding="UTF-8" standalone="no"?>
<!-- Created with Inkscape (http://www.inkscape.org/) -->

<svg
   width="35mm"
   height="35mm"
   viewBox="0 0 35 35"
   version="1.1"
   id="svg2162"
   inkscape:version="1.1.2 (0a00cf5339, 2022-02-04)"
   sodipodi:docname="monster.svg"
   xmlns:inkscape="http://www.inkscape.org/namespaces/inkscape"
   xmlns:sodipodi="http://sodipodi.sourceforge.net/DTD/sodipodi-0.dtd"
   xmlns="http://www.w3.org/2000/svg"
   xmlns:svg="http://www.w3.org/2000/svg">
  <sodipodi:namedview
     id="namedview2164"
     pagecolor="#ffffff"
     bordercolor="#666666"
     borderopacity="1.0"
     inkscape:pageshadow="2"
     inkscape:pageopacity="0.0"
     inkscape:pagecheckerboard="0"
     inkscape:document-units="mm"
     showgrid="false"
     fit-margin-top="0"
     fit-margin-left="0"
     fit-margin-right="0"
     fit-margin-bottom="0"
     inkscape:zoom="0.69664703"
     inkscape:cx="115.5535"
     inkscape:cy="227.51838"
     inkscape:window-width="1850"
     inkscape:window-height="1016"
     inkscape:window-x="0"
     inkscape:window-y="0"
     inkscape:window-maximized="1"
     inkscape:current-layer="layer1" />
  <defs
     id="defs2159" />
  <g
     inkscape:label="Layer 1"
     inkscape:groupmode="layer"
     id="layer1"
     transform="translate(-74.429217,-88.130511)">
    <path
       style="fill:#000000;stroke-width:0.264583"
       d="m 89.16757,121.90633 c -0.93228,-0.10715 -1.7902,-0.28996 -1.90648,-0.40624 -0.11628,-0.11628 -0.24647,-1.22278 -0.28931,-2.4589 -0.0709,-2.04512 -0.12554,-2.24747 -0.60706,-2.24747 -0.47191,0 -0.53696,0.2004 -0.60121,1.85208 -0.0396,1.01865 -0.12353,1.9966 -0.18646,2.17323 -0.18053,0.50675 -1.51329,-0.0766 -2.49942,-1.09405 l -0.85455,-0.88168 -0.1461,-3.53833 -0.1461,-3.53833 -1.2133,-1.24606 c -3.22811,-3.31524 -4.57968,-8.38563 -3.22398,-12.094667 2.03251,-5.5607 7.8956,-9.01656 15.29717,-9.01656 13.33358,0 19.95831,12.083807 11.48966,20.957627 l -0.93678,0.98159 0.0618,3.29534 c 0.0725,3.86642 -0.16261,4.55035 -1.91806,5.5791 -0.63044,0.36947 -1.25526,0.67175 -1.3885,0.67175 -0.13323,0 -0.27763,-0.92273 -0.32089,-2.05052 -0.0819,-2.13556 -0.27524,-2.62134 -0.94147,-2.36569 -0.31454,0.12071 -0.38626,0.61983 -0.34851,2.42566 0.0549,2.62541 0.0134,2.68054 -2.19916,2.9198 -3.08437,0.33354 -2.77031,0.52753 -2.85724,-1.76494 -0.0541,-1.42787 -0.18518,-2.06789 -0.44368,-2.16709 -0.62038,-0.23806 -0.90457,0.43287 -0.98749,2.3313 -0.0908,2.07832 0.0222,2.01119 -2.83289,1.68305 z m 4.66576,-9.64346 0.58944,-0.15801 -0.85403,-1.55503 c -0.46971,-0.85527 -0.91355,-1.55617 -0.98631,-1.55755 -0.11139,-0.002 -1.53119,2.52275 -1.80799,3.21519 -0.10077,0.25208 2.17161,0.29324 3.05889,0.0554 z m -6.30412,-4.98063 c 1.19737,-0.61919 2.40739,-2.17309 2.40739,-3.09157 0,-1.55229 -2.27671,-2.93617 -5.44261,-3.30826 -1.74877,-0.20553 -3.71227,0.58203 -3.96539,1.59052 -0.34788,1.38605 0.92869,3.65017 2.64984,4.69977 0.98326,0.59961 3.29073,0.6577 4.35077,0.10954 z m 14.34012,-0.45707 c 1.33524,-0.75044 2.38531,-2.29341 2.54898,-3.74544 0.1073,-0.95201 0.0277,-1.25412 -0.44703,-1.69639 -0.59404,-0.55343 -1.64085,-0.86149 -2.92739,-0.86149 -1.44362,0 -4.1794,1.0479 -5.16669,1.97904 -0.85035,0.80198 -0.93986,1.00688 -0.77711,1.77878 0.21833,1.03544 1.2724,2.25323 2.37713,2.74633 1.23876,0.55293 3.21147,0.46273 4.39211,-0.20083 z"
       id="path994" />
  </g>
</svg>
