<?xml version="1.0" encoding="UTF-8" standalone="no"?>
<!-- Created with Inkscape (http://www.inkscape.org/) -->

<svg
   width="151.29312mm"
   height="171.29469mm"
   viewBox="0 0 151.29312 171.29469"
   version="1.1"
   id="svg5"
   inkscape:version="1.1.2 (0a00cf5339, 2022-02-04)"
   sodipodi:docname="legs.svg"
   xmlns:inkscape="http://www.inkscape.org/namespaces/inkscape"
   xmlns:sodipodi="http://sodipodi.sourceforge.net/DTD/sodipodi-0.dtd"
   xmlns="http://www.w3.org/2000/svg"
   xmlns:svg="http://www.w3.org/2000/svg">
  <sodipodi:namedview
     id="namedview7"
     pagecolor="#ffffff"
     bordercolor="#666666"
     borderopacity="1.0"
     inkscape:pageshadow="2"
     inkscape:pageopacity="0.0"
     inkscape:pagecheckerboard="0"
     inkscape:document-units="mm"
     showgrid="false"
     fit-margin-top="0"
     fit-margin-left="0"
     fit-margin-right="0"
     fit-margin-bottom="0"
     inkscape:zoom="0.50077215"
     inkscape:cx="634.02088"
     inkscape:cy="827.72175"
     inkscape:window-width="1846"
     inkscape:window-height="1136"
     inkscape:window-x="0"
     inkscape:window-y="0"
     inkscape:window-maximized="1"
     inkscape:current-layer="layer1" />
  <defs
     id="defs2">
    <clipPath
       clipPathUnits="userSpaceOnUse"
       id="clipPath854">
      <path
         d="M 0,600 H 600 V 0 H 0 Z"
         id="path852" />
    </clipPath>
    <clipPath
       clipPathUnits="userSpaceOnUse"
       id="clipPath1156">
      <path
         d="M 0,600 H 600 V 0 H 0 Z"
         id="path1154" />
    </clipPath>
    <clipPath
       clipPathUnits="userSpaceOnUse"
       id="clipPath1328">
      <path
         d="M 0,600 H 600 V 0 H 0 Z"
         id="path1326" />
    </clipPath>
  </defs>
  <g
     inkscape:label="Layer 1"
     inkscape:groupmode="layer"
     id="layer1"
     transform="translate(-65.111677,-28.912857)">
    <g
       id="g1330"
       transform="matrix(0.35277777,0,0,-0.35277777,216.40479,171.86045)"
       style="fill:#000000">
      <path
         id="path1332"
         style="fill:#000000;fill-opacity:1;fill-rule:nonzero;stroke:none;stroke-width:1.33333"
         d="M 104.2832 0 C 77.601851 -0.03162988 47.077166 4.7665098 9.71875 16.996094 C 9.71875 16.996094 -30.658545 82.205506 53.189453 307.35352 C 36.10412 386.55218 6.6104953 560.45551 15.923828 589.96484 C 34.550494 613.25418 152.56929 647.41211 172.75195 647.41211 C 177.41462 639.65344 192.93503 614.80859 200.70703 614.80859 C 208.4657 614.80859 279.89239 610.14461 309.40039 616.36328 C 314.05106 630.34061 314.05078 638.09961 314.05078 638.09961 C 314.05078 638.09961 455.34974 653.63077 571.81641 540.27344 C 570.26174 473.50944 540.75391 453.31641 540.75391 453.31641 L 495.72656 462.64258 C 495.72656 462.64258 446.03625 437.79823 346.65625 439.35156 C 341.13092 427.19823 304.14782 377.30324 283.28516 338.89258 C 283.28472 338.89179 283.28363 338.89141 283.2832 338.89062 L 191.37891 338.89062 C 181.70557 338.89062 173.81836 331.01736 173.81836 321.33203 C 173.81836 311.65736 181.70557 303.76953 191.37891 303.76953 L 269.19141 303.76953 C 269.07541 302.8442 269.02539 301.96977 269.02539 301.14844 C 269.02539 297.21777 269.77041 289.627 271.06641 279.375 L 183.62109 279.375 C 173.93576 279.375 166.06055 271.49917 166.06055 261.8125 C 166.06055 252.12583 173.93576 244.25195 183.62109 244.25195 L 275.91016 244.25195 C 277.05416 236.54395 278.29865 228.36142 279.58398 219.85742 L 175.86133 219.85742 C 166.17466 219.85742 158.30078 211.96825 158.30078 202.29492 C 158.30078 192.60826 166.17466 184.73438 175.86133 184.73438 L 285.01758 184.73438 C 286.28958 176.65301 287.57401 168.47017 288.85938 160.32617 L 175.86133 160.32617 C 166.176 160.32617 158.30078 152.45232 158.30078 142.76562 C 158.30078 133.07896 166.176 125.20312 175.86133 125.20312 L 294.31836 125.20312 C 302.11703 74.792474 308.21902 32.887604 306.29102 30.960938 C 301.62835 26.310268 244.17957 37.177448 194.49023 18.550781 C 166.53848 8.0657821 138.58781 0.04066699 104.2832 0 z "
         transform="matrix(0.75000002,0,0,-0.75000002,-428.86238,405.20578)" />
    </g>
    <g
       id="g1334"
       transform="matrix(0.35277777,0,0,-0.35277777,142.98359,62.039602)" />
    <g
       id="g1338"
       transform="matrix(0.35277777,0,0,-0.35277777,140.52275,77.790388)" />
    <g
       id="g1342"
       transform="matrix(0.35277777,0,0,-0.35277777,138.11293,93.537753)" />
    <g
       id="g1346"
       transform="matrix(0.35277777,0,0,-0.35277777,140.06386,118.57792)" />
  </g>
</svg>
