<svg xmlns="http://www.w3.org/2000/svg" xmlns:xlink="http://www.w3.org/1999/xlink" viewBox="0 0 25.61 19.39"><defs><style>.cls-1{clip-path:url(#clip-path);}.cls-2{fill:none;}.cls-3{isolation:isolate;}.cls-4{mask:url(#mask);}.cls-5{clip-path:url(#clip-path-2);}.cls-6{mask:url(#mask-2);}.cls-7{clip-path:url(#clip-path-4);}.cls-8{clip-path:url(#clip-path-5);}.cls-9{fill:#e26969;}.cls-10{fill:#fff;}.cls-11{filter:url(#luminosity-noclip-2);}.cls-12{filter:url(#luminosity-noclip);}</style><clipPath id="clip-path"><rect class="cls-2" x="-0.85" y="-0.85" width="20.81" height="18.15"/></clipPath><filter id="luminosity-noclip" x="-0.85" y="-0.85" width="26.46" height="20.24" filterUnits="userSpaceOnUse" color-interpolation-filters="sRGB"><feFlood flood-color="#fff" result="bg"/><feBlend in="SourceGraphic" in2="bg"/></filter><mask id="mask" x="-0.85" y="-0.85" width="26.46" height="20.24" maskUnits="userSpaceOnUse"><g class="cls-12"><g transform="translate(0 0)"><g class="cls-1"><g class="cls-3"><path d="M19.72,7.46A.94.94,0,0,0,19,7.13a1,1,0,0,0-.34.06l-.72.28a13.84,13.84,0,0,0-3.08-4l-.15-.13-.05,0-.1-.09-.06,0-.1-.08-.06,0L14.24,3l-.05,0-.12-.08,0,0-.16-.11h0l-.34-.22h0l-.15-.09h0l-.15-.09h0L13,2.23h0a8.67,8.67,0,0,0-.88-.41L12,.75a1.74,1.74,0,0,0-1.73-1.6h-.15L.75,0A1.76,1.76,0,0,0-.85,1.84L.33,15.7a1.77,1.77,0,0,0,1.74,1.6h.15l9.39-.8a1.74,1.74,0,0,0,1.59-1.88L12.45,5.7a8.32,8.32,0,0,1,1,.92h0l.16.17h0l.15.17h0a2.09,2.09,0,0,0,.14.17v0a1.09,1.09,0,0,1,.13.17l0,0,.13.16,0,0,.12.16,0,0,.11.16,0,0a1.4,1.4,0,0,1,.1.16l0,.06.11.17,0,.06.13.23-.62.24a1,1,0,0,0-.59.74.94.94,0,0,0,.34.89l3.68,2.93a1,1,0,0,0,.59.21.94.94,0,0,0,.94-.81l.7-4.65a1,1,0,0,0-.22-.76"/></g></g></g></g></mask><clipPath id="clip-path-2" transform="translate(0 0)"><rect class="cls-2" x="10.04" y="1.23" width="15.57" height="18.15"/></clipPath><filter id="luminosity-noclip-2" x="0" y="0" width="19.24" height="16.45" filterUnits="userSpaceOnUse" color-interpolation-filters="sRGB"><feFlood flood-color="#fff" result="bg"/><feBlend in="SourceGraphic" in2="bg"/></filter><mask id="mask-2" x="0" y="0" width="19.24" height="16.45" maskUnits="userSpaceOnUse"><g class="cls-11"><g transform="translate(0 0)"><g class="cls-3"><path d="M18.3,13.68a1,1,0,0,1-.59-.21L14.9,8.67c-1.41-2.48-3.29-4-5.24-4.16l-.36,0a2.28,2.28,0,0,0-2,.87A1.29,1.29,0,0,0,7.12,6,2.42,2.42,0,1,1,4,7.12a4.64,4.64,0,0,1,.57-3.48A5.46,5.46,0,0,1,9.3,1.26q.33,0,.66,0a8.81,8.81,0,0,1,4.9,2.22,13.84,13.84,0,0,1,3.08,4l1.3,5.4a.94.94,0,0,1-.94.81"/></g></g></g></mask><clipPath id="clip-path-4" transform="translate(0 0)"><rect class="cls-2" width="12.35" height="16.45"/></clipPath><clipPath id="clip-path-5" transform="translate(0 0)"><rect class="cls-2" width="12.36" height="16.45"/></clipPath></defs><g id="Layer_2" data-name="Layer 2"><g id="Layer_1-2" data-name="Layer 1"><g class="cls-4"><g class="cls-5"><g class="cls-5"><path d="M19.41,19.33,10.61,16a.91.91,0,0,1-.52-1.16l5-13a.9.9,0,0,1,1.16-.51L25,4.67a.89.89,0,0,1,.52,1.16l-5,13a.9.9,0,0,1-1.15.52" transform="translate(0 0)"/></g></g></g><g class="cls-6"><g class="cls-7"><g class="cls-8"><path d="M9.59,1.72l1.05,12.34-7.88.67-1-12.34,7.87-.67M10.29,0h-.08L.82.8a.9.9,0,0,0-.82,1L1.18,15.63a.9.9,0,0,0,.89.82h.08l9.39-.8a.89.89,0,0,0,.81-1L11.18.82A.89.89,0,0,0,10.29,0" transform="translate(0 0)"/></g></g></g><path class="cls-9" d="M19,8l-1.44.56a13.31,13.31,0,0,0-3.22-4.39,8,8,0,0,0-4.43-2A4.78,4.78,0,0,0,5.3,4.09a3.87,3.87,0,0,0-.38,3.17,1.6,1.6,0,0,0-.32,1A1.58,1.58,0,1,0,6.34,6.65,2.29,2.29,0,0,1,6.59,4.9,3.28,3.28,0,0,1,9.74,3.66c2.47.23,4.79,2.24,6.36,5.45l-1.51.6a.09.09,0,0,0,0,.16l3.68,2.93a.1.1,0,0,0,.16-.06l.7-4.65A.09.09,0,0,0,19,8" transform="translate(0 0)"/><path class="cls-10" d="M21.85,13.42a.15.15,0,0,0-.16,0L21,13.13l.49-1.41a.33.33,0,0,0,.24-.19c-.1,0-.17-.15-.26-.18s-.22,0-.31,0a.31.31,0,0,0,.05.31L20.63,13l-.69-.21a.15.15,0,0,0-.1-.13.16.16,0,1,0,.05.27l.49.24-1.91,4.8.23.5.51-.2,1.91-4.81.52.16a.14.14,0,0,0,.1.13.16.16,0,1,0,.11-.29" transform="translate(0 0)"/></g></g></svg>