<?xml version="1.0" encoding="UTF-8" standalone="no"?>
<!-- Created with Inkscape (http://www.inkscape.org/) -->

<svg
   width="94.033691mm"
   height="72.290161mm"
   viewBox="0 0 94.033692 72.290161"
   version="1.1"
   id="svg5"
   inkscape:version="1.1.2 (0a00cf5339, 2022-02-04)"
   sodipodi:docname="infinity.svg"
   xmlns:inkscape="http://www.inkscape.org/namespaces/inkscape"
   xmlns:sodipodi="http://sodipodi.sourceforge.net/DTD/sodipodi-0.dtd"
   xmlns="http://www.w3.org/2000/svg"
   xmlns:svg="http://www.w3.org/2000/svg">
  <sodipodi:namedview
     id="namedview7"
     pagecolor="#ffffff"
     bordercolor="#666666"
     borderopacity="1.0"
     inkscape:pageshadow="2"
     inkscape:pageopacity="0.0"
     inkscape:pagecheckerboard="0"
     inkscape:document-units="mm"
     showgrid="false"
     fit-margin-top="0"
     fit-margin-left="0"
     fit-margin-right="0"
     fit-margin-bottom="0"
     inkscape:zoom="0.69664703"
     inkscape:cx="563.41301"
     inkscape:cy="559.10667"
     inkscape:window-width="1850"
     inkscape:window-height="1016"
     inkscape:window-x="0"
     inkscape:window-y="0"
     inkscape:window-maximized="1"
     inkscape:current-layer="layer1" />
  <defs
     id="defs2">
    <clipPath
       clipPathUnits="userSpaceOnUse"
       id="clipPath854">
      <path
         d="M 0,300 H 300 V 0 H 0 Z"
         id="path852" />
    </clipPath>
    <clipPath
       clipPathUnits="userSpaceOnUse"
       id="clipPath983">
      <path
         d="M 0,300 H 300 V 0 H 0 Z"
         id="path981" />
    </clipPath>
    <clipPath
       clipPathUnits="userSpaceOnUse"
       id="clipPath1482">
      <path
         d="M 0,300 H 300 V 0 H 0 Z"
         id="path1480" />
    </clipPath>
    <clipPath
       clipPathUnits="userSpaceOnUse"
       id="clipPath1743">
      <path
         d="M 0,300 H 300 V 0 H 0 Z"
         id="path1741" />
    </clipPath>
  </defs>
  <g
     inkscape:label="Layer 1"
     inkscape:groupmode="layer"
     id="layer1"
     transform="translate(43.92509,-0.16422774)">
    <g
       id="g1745"
       transform="matrix(0.35277777,0,0,-0.35277777,-9.3511048,28.971355)"
       style="fill:#ffffff">
      <path
         d="m 0,0 c -6.286,-6.971 -15.215,-11 -24.823,-11 -18.472,0 -33.5,15.028 -33.5,33.5 0,18.473 15.028,33.5 33.5,33.5 9.604,0 18.536,-4.028 24.828,-11 h 48.359 v 26.658 c 0,5.524 -4.477,10 -10,10 H -88.005 c -5.522,0 -10,-4.476 -10,-10 v -184.917 c 0,-5.522 4.478,-10 10,-10 H 38.364 c 5.523,0 10,4.478 10,10 V 0 Z"
         style="fill:#ffffff;fill-opacity:1;fill-rule:nonzero;stroke:none"
         id="path1747" />
    </g>
    <g
       id="g1749"
       transform="matrix(0.35277777,0,0,-0.35277777,31.069184,32.026446)">
      <path
         d="m 0,0 v 18.66 h -119.51 c -4.395,-7 -12.389,-11.51 -21.384,-10.953 -11.711,0.725 -21.243,10.261 -21.96,21.973 -0.837,13.651 9.995,24.98 23.454,24.98 8.39,0 15.74,-4.389 19.9,-11 H 0 V 62.33 L 53.97,31.16 Z"
         style="fill:#e34e61;fill-opacity:1;fill-rule:nonzero;stroke:none"
         id="path1751" />
    </g>
    <g
       id="g1753"
       transform="matrix(0.35277777,0,0,-0.35277777,-7.9644412,61.484095)"
       style="fill:#000000">
      <path
         d="m 0,0 c -13.894,-1.684 -22.83,7.298 -22.83,7.298 0,0 4.305,6.597 7.72,11.884 8.749,-8.983 23.672,-5.428 26.994,6.127 3.32,11.556 -4.726,20.35 -15.157,20.865 C -12.387,46.625 -20.135,32.065 -23.078,27.111 -34.681,6.526 -43.607,1.303 -54.835,0.976 c -11.228,-0.329 -29.146,9.589 -29.66,28.63 -0.515,19.04 13.099,29.987 26.993,31.67 13.895,1.685 22.83,-7.297 22.83,-7.297 0,0 -4.305,-6.596 -7.719,-11.882 -8.75,8.982 -23.672,5.425 -26.994,-6.129 -3.321,-11.555 4.726,-20.35 15.157,-20.865 9.107,-0.448 16.852,14.09 19.799,19.054 11.602,20.583 20.535,25.818 31.763,26.146 C 8.562,60.63 26.479,50.711 26.993,31.672 27.508,12.632 13.895,1.685 0,0"
         style="fill:#000000;fill-opacity:1;fill-rule:nonzero;stroke:none"
         id="path1755" />
    </g>
  </g>
</svg>
