<svg xmlns="http://www.w3.org/2000/svg" xmlns:xlink="http://www.w3.org/1999/xlink" viewBox="0 0 8.11 5.8"><defs><style>.cls-1{fill:none;}.cls-2{clip-path:url(#clip-path);}.cls-3{fill:#fff;}</style><clipPath id="clip-path" transform="translate(0 0)"><rect class="cls-1" width="8.11" height="5.79"/></clipPath></defs><g id="Layer_2" data-name="Layer 2"><g id="Layer_1-2" data-name="Layer 1"><g class="cls-2"><rect width="8.11" height="5.8" rx="0.4"/><path class="cls-3" d="M6.48,2.9A2.42,2.42,0,1,1,4.06.48,2.43,2.43,0,0,1,6.48,2.9" transform="translate(0 0)"/><polygon points="3.87 2.89 3.87 3.01 3.59 3.27 2.35 3.27 2.35 3.16 2.64 2.89 3.87 2.89"/><path d="M4.86,1.43V4a.3.3,0,0,0,0,.18.16.16,0,0,0,.14.06v.13l-1,.42L4,4.6a.16.16,0,0,0,.1,0l.09-.07a.56.56,0,0,0,.1-.35V1.81a.26.26,0,0,0-.07-.17.42.42,0,0,0-.12-.08L4,1.53V1.42l.62-.31a.49.49,0,0,1,.19.14.26.26,0,0,1,.09.18" transform="translate(0 0)"/></g></g></g></svg>