<?xml version="1.0" encoding="UTF-8" standalone="no"?>
<!-- Created with Inkscape (http://www.inkscape.org/) -->

<svg
   width="197.26411mm"
   height="197.26411mm"
   viewBox="0 0 197.26412 197.26412"
   version="1.1"
   id="svg5"
   sodipodi:docname="air.svg"
   inkscape:version="1.1.2 (0a00cf5339, 2022-02-04)"
   xmlns:inkscape="http://www.inkscape.org/namespaces/inkscape"
   xmlns:sodipodi="http://sodipodi.sourceforge.net/DTD/sodipodi-0.dtd"
   xmlns="http://www.w3.org/2000/svg"
   xmlns:svg="http://www.w3.org/2000/svg">
  <sodipodi:namedview
     id="namedview10"
     pagecolor="#ffffff"
     bordercolor="#666666"
     borderopacity="1.0"
     inkscape:pageshadow="2"
     inkscape:pageopacity="0.0"
     inkscape:pagecheckerboard="0"
     inkscape:document-units="mm"
     showgrid="false"
     inkscape:zoom="0.7268277"
     inkscape:cx="257.97036"
     inkscape:cy="431.32643"
     inkscape:window-width="1850"
     inkscape:window-height="1016"
     inkscape:window-x="0"
     inkscape:window-y="0"
     inkscape:window-maximized="1"
     inkscape:current-layer="svg5"
     fit-margin-top="0"
     fit-margin-left="0"
     fit-margin-right="0"
     fit-margin-bottom="0" />
  <defs
     id="defs2" />
  <path
     style="fill:none;fill-opacity:1;fill-rule:nonzero;stroke:#000000;stroke-width:5.353;stroke-miterlimit:4;stroke-dasharray:none;stroke-opacity:1"
     d="m 98.632058,194.58762 c -25.630133,0 -49.727889,-9.98114 -67.850468,-28.10509 C 12.657631,148.35995 2.6765001,124.26219 2.6765001,98.632056 2.6765001,73.001926 12.657631,48.904168 30.78159,30.78159 48.904169,12.657632 73.001925,2.6765001 98.632058,2.6765001 c 25.630132,0 49.727892,9.9811309 67.850472,28.1050899 18.12395,18.122579 28.10508,42.220336 28.10508,67.850466 0,25.630134 -9.98113,49.727894 -28.10508,67.850474 -18.12258,18.12395 -42.22034,28.10509 -67.850472,28.10509"
     id="bg" />
  <g
     id="symbol"
     style="fill:#000000"
     transform="translate(-0.14572212,-0.14572242)">
    <path
       style="fill:#000000;fill-opacity:1;fill-rule:nonzero;stroke:none;stroke-width:0.352778"
       d="m 20.688488,108.37995 c -0.487826,-0.10197 -0.465777,-0.80891 0.02756,-0.87368 4.4111,-0.5898 15.013728,-0.97289 28.807886,5.52594 18.344445,8.64305 47.966756,27.9535 65.510566,26.90481 14.83458,-0.88745 22.05963,-6.46575 21.27277,-13.32287 -0.61736,-5.37986 -6.61458,-8.90764 -11.20069,-7.14375 -4.58611,1.76389 -6.61458,5.90903 -6.26181,9.78958 -3.88055,-2.99861 -2.46944,-8.81944 -1.23472,-10.40694 1.23472,-1.5875 8.00503,-10.8176 19.57917,-2.82222 9.70139,6.70278 5.60035,19.76106 0,24.69444 -3.70417,3.2632 -14.81667,11.46528 -35.80695,6.17361 -20.990276,-5.29166 -43.620421,-24.4588 -55.562499,-30.1625 -10.991233,-5.24895 -15.72617,-6.37893 -25.131284,-8.35642"
       id="path844" />
    <path
       style="fill:#000000;fill-opacity:1;fill-rule:nonzero;stroke:none;stroke-width:0.352778"
       d="m 52.230405,106.05382 c -0.343133,-0.18741 -0.126781,-0.70969 0.246669,-0.59531 7.845171,2.39503 27.789516,6.9081 42.202418,3.16397 21.048158,-5.46805 24.870838,-17.991663 45.861108,-28.162962 13.38765,-6.487806 30.86806,-1.823145 35.63056,11.229631 4.7625,13.052781 -7.64398,22.048611 -17.4625,21.519451 -8.10424,-0.43547 -13.57919,-5.06429 -14.64028,-8.82634 -1.17684,-4.16719 0.46991,-9.575991 5.29167,-11.105611 -1.41111,6.35 2.04087,13.292561 9.17222,12.876391 7.05556,-0.41065 13.28704,-9.250771 6.70278,-15.875001 -6.59529,-6.633877 -14.81667,-5.349543 -19.75556,-2.293055 -5.26686,3.260439 -17.63889,15.522226 -28.22222,20.637496 -10.15752,4.90858 -25.033443,10.26501 -40.41648,6.17362 -13.106524,-3.48368 -17.129016,-4.64675 -24.610385,-8.74228"
       id="path846" />
    <path
       style="fill:#000000;fill-opacity:1;fill-rule:nonzero;stroke:none;stroke-width:0.352778"
       d="m 32.342558,94.131028 c -0.445107,-0.170869 -0.305926,-0.83646 0.170875,-0.81717 6.042699,0.24529 22.947094,-0.0317 31.82717,-9.914986 10.936111,-12.170834 8.445997,-20.473515 18.168056,-29.280556 6.790972,-6.150183 22.320081,-8.109755 33.249301,1.234722 12.17084,10.406945 5.70233,30.721985 -6.38031,36.98379 -10.23056,5.30131 -23.07663,3.58565 -25.987047,-4.704623 -3.241146,-9.231477 3.439583,-17.374306 10.230556,-17.286111 7.161661,0.0937 6.173611,7.231944 6.173611,7.231944 0,0 -2.11667,-3.701411 -5.027083,-3.263194 -3.689008,0.556725 -6.943934,5.177289 -5.027084,9.789583 2.38125,5.732639 12.621457,8.270981 19.989817,-0.46991 7.58473,-8.995834 5.93935,-21.225923 -6.58426,-25.635646 -11.575522,-4.074858 -18.36236,4.462089 -24.518057,15.877756 -4.850694,8.993078 -10.31875,20.458351 -26.9875,21.418851 -12.219065,0.7028 -16.949868,-0.26321 -19.298045,-1.16445"
       id="path848" />
  </g>
</svg>
