<?xml version="1.0" encoding="UTF-8" standalone="no"?>
<!-- Created with Inkscape (http://www.inkscape.org/) -->

<svg
   width="206.65794mm"
   height="206.67595mm"
   viewBox="0 0 206.65795 206.67594"
   version="1.1"
   id="svg5"
   sodipodi:docname="bless.svg"
   inkscape:version="1.1.2 (0a00cf5339, 2022-02-04)"
   xmlns:inkscape="http://www.inkscape.org/namespaces/inkscape"
   xmlns:sodipodi="http://sodipodi.sourceforge.net/DTD/sodipodi-0.dtd"
   xmlns="http://www.w3.org/2000/svg"
   xmlns:svg="http://www.w3.org/2000/svg">
  <sodipodi:namedview
     id="namedview58"
     pagecolor="#ffffff"
     bordercolor="#666666"
     borderopacity="1.0"
     inkscape:pageshadow="2"
     inkscape:pageopacity="0.0"
     inkscape:pagecheckerboard="0"
     inkscape:document-units="mm"
     showgrid="false"
     fit-margin-top="0"
     fit-margin-left="0"
     fit-margin-right="0"
     fit-margin-bottom="0"
     inkscape:zoom="1.0134873"
     inkscape:cx="391.22345"
     inkscape:cy="390.23676"
     inkscape:window-width="1850"
     inkscape:window-height="1016"
     inkscape:window-x="0"
     inkscape:window-y="0"
     inkscape:window-maximized="1"
     inkscape:current-layer="svg5" />
  <defs
     id="defs2">
    <clipPath
       clipPathUnits="userSpaceOnUse"
       id="clipPath1104">
      <path
         d="M 0,600 H 600 V 0 H 0 Z"
         id="path1102" />
    </clipPath>
    <clipPath
       clipPathUnits="userSpaceOnUse"
       id="clipPath1286">
      <path
         d="M 0,600 H 600 V 0 H 0 Z"
         id="path1284" />
    </clipPath>
    <clipPath
       clipPathUnits="userSpaceOnUse"
       id="clipPath1470">
      <path
         d="M 0,600 H 600 V 0 H 0 Z"
         id="path1468" />
    </clipPath>
    <clipPath
       clipPathUnits="userSpaceOnUse"
       id="clipPath1656">
      <path
         d="M 0,600 H 600 V 0 H 0 Z"
         id="path1654" />
    </clipPath>
    <clipPath
       clipPathUnits="userSpaceOnUse"
       id="clipPath1844">
      <path
         d="M 0,600 H 600 V 0 H 0 Z"
         id="path1842" />
    </clipPath>
    <clipPath
       clipPathUnits="userSpaceOnUse"
       id="clipPath2265">
      <path
         d="M 0,600 H 600 V 0 H 0 Z"
         id="path2263" />
    </clipPath>
    <clipPath
       clipPathUnits="userSpaceOnUse"
       id="clipPath2512">
      <path
         d="M 0,600 H 600 V 0 H 0 Z"
         id="path2510" />
    </clipPath>
    <clipPath
       clipPathUnits="userSpaceOnUse"
       id="clipPath2740">
      <path
         d="M 0,300 H 300 V 0 H 0 Z"
         id="path2738" />
    </clipPath>
    <clipPath
       clipPathUnits="userSpaceOnUse"
       id="clipPath2946">
      <path
         d="M 0,300 H 300 V 0 H 0 Z"
         id="path2944" />
    </clipPath>
    <clipPath
       clipPathUnits="userSpaceOnUse"
       id="clipPath3139">
      <path
         d="M 0,300 H 300 V 0 H 0 Z"
         id="path3137" />
    </clipPath>
    <clipPath
       clipPathUnits="userSpaceOnUse"
       id="clipPath3322">
      <path
         d="M 0,300 H 300 V 0 H 0 Z"
         id="path3320" />
    </clipPath>
    <clipPath
       clipPathUnits="userSpaceOnUse"
       id="clipPath3754">
      <path
         d="M 0,300 H 300 V 0 H 0 Z"
         id="path3752" />
    </clipPath>
    <clipPath
       clipPathUnits="userSpaceOnUse"
       id="clipPath3928">
      <path
         d="M 0,300 H 300 V 0 H 0 Z"
         id="path3926" />
    </clipPath>
    <clipPath
       clipPathUnits="userSpaceOnUse"
       id="clipPath4106">
      <path
         d="M 0,300 H 300 V 0 H 0 Z"
         id="path4104" />
    </clipPath>
    <clipPath
       clipPathUnits="userSpaceOnUse"
       id="clipPath4300">
      <path
         d="M 0,300 H 300 V 0 H 0 Z"
         id="path4298" />
    </clipPath>
    <clipPath
       clipPathUnits="userSpaceOnUse"
       id="clipPath4493">
      <path
         d="M 0,300 H 300 V 0 H 0 Z"
         id="path4491" />
    </clipPath>
    <clipPath
       clipPathUnits="userSpaceOnUse"
       id="clipPath4688">
      <path
         d="M 0,300 H 300 V 0 H 0 Z"
         id="path4686" />
    </clipPath>
    <clipPath
       clipPathUnits="userSpaceOnUse"
       id="clipPath4913">
      <path
         d="M 0,600 H 600 V 0 H 0 Z"
         id="path4911" />
    </clipPath>
  </defs>
  <g
     id="g4915"
     transform="matrix(0.35277777,0,0,-0.35277777,103.31979,203.64945)"
     style="fill:none;stroke:#000000;stroke-width:15.1738586;stroke-miterlimit:4;stroke-dasharray:none;stroke-opacity:1">
    <path
       d="m 0,0 c -3.921,0 -7.608,1.527 -10.381,4.3 l -269.667,269.666 c -5.724,5.724 -5.724,15.038 0,20.763 l 269.667,269.667 c 2.773,2.772 6.46,4.299 10.381,4.299 3.922,0 7.608,-1.527 10.382,-4.299 L 280.048,294.729 c 2.772,-2.773 4.3,-6.46 4.3,-10.381 0,-3.922 -1.528,-7.609 -4.3,-10.382 L 10.382,4.3 C 7.608,1.527 3.922,0 0,0"
       style="fill:none;fill-opacity:1;fill-rule:nonzero;stroke:#000000;stroke-width:15.1738586;stroke-miterlimit:4;stroke-dasharray:none;stroke-opacity:1"
       id="path4917" />
  </g>
  <g
     id="g4923"
     transform="matrix(0.35277777,0,0,-0.35277777,102.97252,74.185336)"
     style="fill:#000000">
    <path
       d="m 0,0 35.813,-62.031 35.814,-62.031 H 0 -71.627 l 35.814,62.031 z"
       style="fill:#000000;fill-opacity:1;fill-rule:nonzero;stroke:none"
       id="path4925" />
  </g>
  <g
     id="g4927"
     transform="matrix(0.35277777,0,0,-0.35277777,112.49857,53.382313)"
     style="fill:#000000">
    <path
       d="m 0,0 c 0,-14.914 -12.09,-27.003 -27.003,-27.003 -14.913,0 -27.002,12.089 -27.002,27.003 0,14.913 12.089,27.002 27.002,27.002 C -12.09,27.002 0,14.913 0,0"
       style="fill:#000000;fill-opacity:1;fill-rule:nonzero;stroke:none"
       id="path4929" />
  </g>
  <g
     id="g4931"
     transform="matrix(0.35277777,0,0,-0.35277777,139.62973,137.14463)"
     style="fill:#000000">
    <path
       d="m 0,0 c -12.611,7.96 -16.382,24.636 -8.422,37.247 7.96,12.611 24.636,16.382 37.247,8.422 C 41.437,37.71 45.207,21.033 37.247,8.422 29.287,-4.189 12.611,-7.96 0,0"
       style="fill:#000000;fill-opacity:1;fill-rule:nonzero;stroke:none"
       id="path4933" />
  </g>
  <g
     id="g4935"
     transform="matrix(0.35277777,0,0,-0.35277777,56.634448,122.23666)"
     style="fill:#000000">
    <path
       d="m 0,0 c 12.401,8.283 29.169,4.944 37.452,-7.457 8.283,-12.401 4.944,-29.17 -7.457,-37.452 -12.402,-8.283 -29.17,-4.945 -37.453,7.457 C -15.74,-25.051 -12.401,-8.282 0,0"
       style="fill:#000000;fill-opacity:1;fill-rule:nonzero;stroke:none"
       id="path4937" />
  </g>
  <g
     id="g4939"
     transform="matrix(0.35277777,0,0,-0.35277777,152.46544,102.74312)"
     style="stroke:#000000;stroke-opacity:1;fill:none">
    <path
       d="m 0,0 c 0,-77.483 -62.812,-140.295 -140.295,-140.295 -77.483,0 -140.295,62.812 -140.295,140.295 0,77.483 62.812,140.295 140.295,140.295 C -62.812,140.295 0,77.483 0,0 Z"
       style="fill:none;stroke:#000000;stroke-width:16;stroke-linecap:butt;stroke-linejoin:miter;stroke-miterlimit:10;stroke-dasharray:none;stroke-opacity:1"
       id="path4941" />
  </g>
  <g
     id="g4943"
     transform="matrix(0.35277777,0,0,-0.35277777,129.9893,102.74312)"
     style="stroke:#000000;stroke-opacity:1;stroke-width:1.00062994;stroke-miterlimit:4;stroke-dasharray:none;fill:none">
    <path
       d="m 0,0 c 0,-42.295 -34.287,-76.583 -76.583,-76.583 -42.296,0 -76.583,34.288 -76.583,76.583 0,42.296 34.287,76.583 76.583,76.583 C -34.287,76.583 0,42.296 0,0 Z"
       style="fill:none;stroke:#000000;stroke-width:1.00062994;stroke-linecap:butt;stroke-linejoin:miter;stroke-miterlimit:4;stroke-dasharray:none;stroke-opacity:1"
       id="path4945" />
  </g>
</svg>
