<?xml version="1.0" encoding="UTF-8" standalone="no"?>
<!-- Created with Inkscape (http://www.inkscape.org/) -->

<svg
   width="197.2641mm"
   height="197.26411mm"
   viewBox="0 0 197.2641 197.26412"
   version="1.1"
   id="svg5"
   sodipodi:docname="fire.svg"
   inkscape:version="1.1.2 (0a00cf5339, 2022-02-04)"
   xmlns:inkscape="http://www.inkscape.org/namespaces/inkscape"
   xmlns:sodipodi="http://sodipodi.sourceforge.net/DTD/sodipodi-0.dtd"
   xmlns="http://www.w3.org/2000/svg"
   xmlns:svg="http://www.w3.org/2000/svg">
  <sodipodi:namedview
     id="namedview15"
     pagecolor="#ffffff"
     bordercolor="#666666"
     borderopacity="1.0"
     inkscape:pageshadow="2"
     inkscape:pageopacity="0.0"
     inkscape:pagecheckerboard="0"
     inkscape:document-units="mm"
     showgrid="false"
     inkscape:zoom="0.74056806"
     inkscape:cx="-93.846877"
     inkscape:cy="342.3048"
     inkscape:window-width="1850"
     inkscape:window-height="1016"
     inkscape:window-x="0"
     inkscape:window-y="0"
     inkscape:window-maximized="1"
     inkscape:current-layer="svg5"
     fit-margin-top="0"
     fit-margin-left="0"
     fit-margin-right="0"
     fit-margin-bottom="0" />
  <defs
     id="defs2">
    <clipPath
       clipPathUnits="userSpaceOnUse"
       id="clipPath1104">
      <path
         d="M 0,600 H 600 V 0 H 0 Z"
         id="path1102" />
    </clipPath>
    <clipPath
       clipPathUnits="userSpaceOnUse"
       id="clipPath1286">
      <path
         d="M 0,600 H 600 V 0 H 0 Z"
         id="path1284" />
    </clipPath>
  </defs>
  <path
     d="m 98.632053,194.58761 c -25.630363,0 -49.727202,-9.98114 -67.850807,-28.10475 C 12.657641,148.35926 2.6765001,124.26242 2.6765001,98.632054 2.6765001,73.001337 12.657641,48.904852 30.781246,30.781247 48.904851,12.657642 73.00169,2.6765001 98.632053,2.6765001 c 25.630357,0 49.727197,9.9811419 67.850807,28.1047469 18.1236,18.123605 28.10474,42.22009 28.10474,67.850807 0,25.630366 -9.98114,49.727206 -28.10474,67.850806 -18.12361,18.12361 -42.22045,28.10475 -67.850807,28.10475"
     style="fill:none;fill-opacity:1;fill-rule:nonzero;stroke:#000000;stroke-width:5.353;stroke-miterlimit:4;stroke-dasharray:none;stroke-opacity:1"
     id="bg" />
  <g
     id="symbol"
     transform="matrix(0.35277777,0,0,-0.35277777,128.99267,73.956732)"
     style="fill:#000000">
    <path
       d="m 0,0 c -42.5,34.5 -58.5,99.5 -47,143.5 -25.5,-2.5 -66.272,-25.288 -83.5,-89.5 -22,-82 43.996,-140.5 0,-170.5 -51.444,-35.079 -86.5,26 -82,82.5 -30,-23.5 -48.447,-119.579 -9.5,-178 28,-42 63.811,-66.136 109.516,-71.391 -14.745,10.442 -15.741,29.913 -10.516,44.891 7.5,21.5 32.239,31.107 55.5,49 26,20 37,40 38.5,49.5 13,-19.5 28.581,-48.317 15.5,-91 -6.013,-19.62 -16.979,-38.34 -34.339,-49.45 C 7.137,-266.249 71.825,-218.559 72,-134.5 72.156,-59.5 34.135,-27.709 0,0"
       style="fill:#000000;fill-opacity:1;fill-rule:nonzero;stroke:none"
       id="path1298" />
  </g>
</svg>
