<?xml version="1.0" encoding="UTF-8" standalone="no"?>
<!-- Created with Inkscape (http://www.inkscape.org/) -->

<svg
   width="205.94328mm"
   height="205.97595mm"
   viewBox="0 0 205.94329 205.97595"
   version="1.1"
   id="svg5"
   sodipodi:docname="muddle.svg"
   inkscape:version="1.1.2 (0a00cf5339, 2022-02-04)"
   xmlns:inkscape="http://www.inkscape.org/namespaces/inkscape"
   xmlns:sodipodi="http://sodipodi.sourceforge.net/DTD/sodipodi-0.dtd"
   xmlns="http://www.w3.org/2000/svg"
   xmlns:svg="http://www.w3.org/2000/svg">
  <sodipodi:namedview
     id="namedview64"
     pagecolor="#ffffff"
     bordercolor="#666666"
     borderopacity="1.0"
     inkscape:pageshadow="2"
     inkscape:pageopacity="0.0"
     inkscape:pagecheckerboard="0"
     inkscape:document-units="mm"
     showgrid="false"
     fit-margin-top="0"
     fit-margin-left="0"
     fit-margin-right="0"
     fit-margin-bottom="0"
     inkscape:zoom="1.0134873"
     inkscape:cx="49.827955"
     inkscape:cy="388.26338"
     inkscape:window-width="1850"
     inkscape:window-height="1016"
     inkscape:window-x="0"
     inkscape:window-y="0"
     inkscape:window-maximized="1"
     inkscape:current-layer="svg5" />
  <defs
     id="defs2">
    <clipPath
       clipPathUnits="userSpaceOnUse"
       id="clipPath1104">
      <path
         d="M 0,600 H 600 V 0 H 0 Z"
         id="path1102" />
    </clipPath>
    <clipPath
       clipPathUnits="userSpaceOnUse"
       id="clipPath1286">
      <path
         d="M 0,600 H 600 V 0 H 0 Z"
         id="path1284" />
    </clipPath>
    <clipPath
       clipPathUnits="userSpaceOnUse"
       id="clipPath1470">
      <path
         d="M 0,600 H 600 V 0 H 0 Z"
         id="path1468" />
    </clipPath>
    <clipPath
       clipPathUnits="userSpaceOnUse"
       id="clipPath1656">
      <path
         d="M 0,600 H 600 V 0 H 0 Z"
         id="path1654" />
    </clipPath>
    <clipPath
       clipPathUnits="userSpaceOnUse"
       id="clipPath1844">
      <path
         d="M 0,600 H 600 V 0 H 0 Z"
         id="path1842" />
    </clipPath>
    <clipPath
       clipPathUnits="userSpaceOnUse"
       id="clipPath2265">
      <path
         d="M 0,600 H 600 V 0 H 0 Z"
         id="path2263" />
    </clipPath>
    <clipPath
       clipPathUnits="userSpaceOnUse"
       id="clipPath2512">
      <path
         d="M 0,600 H 600 V 0 H 0 Z"
         id="path2510" />
    </clipPath>
    <clipPath
       clipPathUnits="userSpaceOnUse"
       id="clipPath2740">
      <path
         d="M 0,300 H 300 V 0 H 0 Z"
         id="path2738" />
    </clipPath>
    <clipPath
       clipPathUnits="userSpaceOnUse"
       id="clipPath2946">
      <path
         d="M 0,300 H 300 V 0 H 0 Z"
         id="path2944" />
    </clipPath>
    <clipPath
       clipPathUnits="userSpaceOnUse"
       id="clipPath3139">
      <path
         d="M 0,300 H 300 V 0 H 0 Z"
         id="path3137" />
    </clipPath>
    <clipPath
       clipPathUnits="userSpaceOnUse"
       id="clipPath3322">
      <path
         d="M 0,300 H 300 V 0 H 0 Z"
         id="path3320" />
    </clipPath>
    <clipPath
       clipPathUnits="userSpaceOnUse"
       id="clipPath3754">
      <path
         d="M 0,300 H 300 V 0 H 0 Z"
         id="path3752" />
    </clipPath>
    <clipPath
       clipPathUnits="userSpaceOnUse"
       id="clipPath3928">
      <path
         d="M 0,300 H 300 V 0 H 0 Z"
         id="path3926" />
    </clipPath>
    <clipPath
       clipPathUnits="userSpaceOnUse"
       id="clipPath4106">
      <path
         d="M 0,300 H 300 V 0 H 0 Z"
         id="path4104" />
    </clipPath>
    <clipPath
       clipPathUnits="userSpaceOnUse"
       id="clipPath4300">
      <path
         d="M 0,300 H 300 V 0 H 0 Z"
         id="path4298" />
    </clipPath>
    <clipPath
       clipPathUnits="userSpaceOnUse"
       id="clipPath4493">
      <path
         d="M 0,300 H 300 V 0 H 0 Z"
         id="path4491" />
    </clipPath>
    <clipPath
       clipPathUnits="userSpaceOnUse"
       id="clipPath4688">
      <path
         d="M 0,300 H 300 V 0 H 0 Z"
         id="path4686" />
    </clipPath>
    <clipPath
       clipPathUnits="userSpaceOnUse"
       id="clipPath4913">
      <path
         d="M 0,600 H 600 V 0 H 0 Z"
         id="path4911" />
    </clipPath>
    <clipPath
       clipPathUnits="userSpaceOnUse"
       id="clipPath5244">
      <path
         d="M 0,600 H 600 V 0 H 0 Z"
         id="path5242" />
    </clipPath>
    <clipPath
       clipPathUnits="userSpaceOnUse"
       id="clipPath5260">
      <path
         d="M 286.083,583.583 16.416,313.916 c -7.685,-7.686 -7.685,-20.146 0,-27.833 v 0 L 286.083,16.417 c 7.687,-7.686 20.147,-7.686 27.833,0 v 0 l 269.667,269.666 c 7.686,7.687 7.686,20.147 0,27.833 v 0 L 313.916,583.583 c -3.843,3.843 -8.879,5.765 -13.916,5.765 v 0 c -5.037,0 -10.074,-1.922 -13.917,-5.765"
         id="path5258" />
    </clipPath>
    <clipPath
       clipPathUnits="userSpaceOnUse"
       id="clipPath5462">
      <path
         d="M 0,600 H 600 V 0 H 0 Z"
         id="path5460" />
    </clipPath>
    <clipPath
       clipPathUnits="userSpaceOnUse"
       id="clipPath5478">
      <path
         d="M 286.083,583.583 16.417,313.916 c -7.687,-7.686 -7.687,-20.146 0,-27.833 v 0 L 286.083,16.417 c 7.687,-7.686 20.147,-7.686 27.834,0 v 0 l 269.666,269.666 c 7.686,7.687 7.686,20.147 0,27.833 v 0 L 313.917,583.583 c -3.843,3.843 -8.88,5.765 -13.917,5.765 v 0 c -5.037,0 -10.074,-1.922 -13.917,-5.765"
         id="path5476" />
    </clipPath>
    <clipPath
       clipPathUnits="userSpaceOnUse"
       id="clipPath5490">
      <path
         d="M 0,600 H 600 V 0 H 0 Z"
         id="path5488" />
    </clipPath>
    <clipPath
       clipPathUnits="userSpaceOnUse"
       id="clipPath5808">
      <path
         d="M 0,600 H 600 V 0 H 0 Z"
         id="path5806" />
    </clipPath>
    <clipPath
       clipPathUnits="userSpaceOnUse"
       id="clipPath6067">
      <path
         d="M 0,600 H 600 V 0 H 0 Z"
         id="path6065" />
    </clipPath>
    <clipPath
       clipPathUnits="userSpaceOnUse"
       id="clipPath6304">
      <path
         d="M 0,600 H 600 V 0 H 0 Z"
         id="path6302" />
    </clipPath>
  </defs>
  <path
     d="m 102.97173,203.29945 c -1.38324,0 -2.68394,-0.53869 -3.662189,-1.51694 L 4.1770183,106.65034 c -2.0193,-2.0193 -2.0193,-5.30543 0,-7.324725 L 99.309541,4.1930917 c 0.978249,-0.9779 2.278949,-1.5165916 3.662189,-1.5165916 1.38359,0 2.68393,0.5386916 3.66254,1.5165916 l 95.13217,95.1325233 c 2.01895,2.019295 2.01895,5.305425 0,7.324725 l -95.13217,95.13217 c -0.97861,0.97825 -2.27895,1.51694 -3.66254,1.51694"
     style="fill:none;fill-opacity:1;fill-rule:nonzero;stroke:#000000;stroke-width:5.353;stroke-miterlimit:4;stroke-dasharray:none;stroke-opacity:1"
     id="path6308" />
  <g
     id="g6314"
     transform="matrix(0.35277777,0,0,-0.35277777,90.605562,154.65023)"
     style="fill:#000000">
    <path
       d="m 0,0 -2.483,23.845 c -0.081,0.782 5.073,3.751 15.468,8.921 10.391,5.164 16.435,7.836 18.132,8.012 1.693,0.176 4.398,-1.782 8.119,-5.871 3.718,-4.095 5.824,-8.482 6.313,-13.173 l 2.972,-28.536 c 0.082,-0.781 -4.885,-3.73 -14.883,-8.859 -10.006,-5.122 -16.178,-7.81 -18.524,-8.054 -2.345,-0.244 -5.259,1.762 -8.725,6.006 C 2.914,-13.458 0.787,-7.556 0,0 m 19.184,271.088 3.338,-32.054 c 0.624,-5.997 0.014,-10.272 -1.824,-12.834 -1.845,-2.563 -4.378,-4.804 -7.598,-6.719 l -38.619,-23.779 -6.042,4.902 c 6.222,8.552 8.872,17.255 7.949,26.117 l -4.641,44.563 c -0.163,1.564 12.915,9.378 39.245,23.449 26.324,14.066 41.897,21.355 46.722,21.857 4.819,0.502 12.001,-4.615 21.553,-15.339 9.545,-10.73 14.645,-19.219 15.296,-25.474 l 7.043,-67.625 c 0.707,-6.78 -4.665,-16.557 -16.109,-29.338 -11.448,-12.788 -23,-23.869 -34.669,-33.246 l -17.501,-14.072 1.14,-10.945 c 0.842,-8.08 2.868,-14.26 6.078,-18.531 3.212,-4.278 6.274,-6.527 9.199,-6.748 l 3.991,-0.374 0.896,-8.599 C 30.896,68.812 18.117,59.972 16.297,59.782 14.471,59.592 10.067,62.03 3.088,67.1 -3.898,72.165 -7.67,77.438 -8.239,82.911 l -5.496,52.773 c -0.299,2.864 7.548,10.331 23.548,22.406 15.993,12.069 27.558,21.837 34.684,29.296 7.127,7.46 10.445,13.535 9.957,18.225 l -4.723,45.345 c -1.194,11.464 -3.14,19.361 -5.827,23.694 -2.691,4.326 -6.576,6.23 -11.657,5.701 -5.082,-0.529 -9.44,-3.62 -13.063,-9.263"
       style="fill:#000000;fill-opacity:1;fill-rule:nonzero;stroke:none"
       id="path6316" />
  </g>
</svg>
