<?xml version="1.0" encoding="UTF-8" standalone="no"?>
<!-- Created with Inkscape (http://www.inkscape.org/) -->

<svg
   width="3.8771861mm"
   height="4.2838879mm"
   viewBox="0 0 3.8771861 4.2838879"
   version="1.1"
   id="svg30234"
   inkscape:version="1.1.2 (0a00cf5339, 2022-02-04)"
   sodipodi:docname="winter.svg"
   xmlns:inkscape="http://www.inkscape.org/namespaces/inkscape"
   xmlns:sodipodi="http://sodipodi.sourceforge.net/DTD/sodipodi-0.dtd"
   xmlns="http://www.w3.org/2000/svg"
   xmlns:svg="http://www.w3.org/2000/svg">
  <sodipodi:namedview
     id="namedview30236"
     pagecolor="#ffffff"
     bordercolor="#666666"
     borderopacity="1.0"
     inkscape:pageshadow="2"
     inkscape:pageopacity="0.0"
     inkscape:pagecheckerboard="0"
     inkscape:document-units="mm"
     showgrid="false"
     fit-margin-top="0.5"
     fit-margin-left="0.5"
     fit-margin-right="0.5"
     fit-margin-bottom="0.5"
     lock-margins="false"
     inkscape:zoom="44.58541"
     inkscape:cx="14.253542"
     inkscape:cy="10.104202"
     inkscape:window-width="1846"
     inkscape:window-height="1016"
     inkscape:window-x="0"
     inkscape:window-y="0"
     inkscape:window-maximized="1"
     inkscape:current-layer="layer1" />
  <defs
     id="defs30231" />
  <g
     inkscape:label="Layer 1"
     inkscape:groupmode="layer"
     id="layer1"
     transform="translate(-180.3632,-85.210993)">
    <path
       style="fill:#000000;fill-opacity:1;fill-rule:nonzero;stroke:none;stroke-width:0.352778"
       d="m 182.3018,88.994881 c -0.0661,0 -0.12127,-0.05374 -0.12127,-0.121267 l -0.004,-0.245291 -0.17364,0.07579 c -0.0152,0.0069 -0.0317,0.0096 -0.0482,0.0096 -0.0496,0 -0.0923,-0.02756 -0.11162,-0.07166 -0.0275,-0.06201 0,-0.135048 0.062,-0.16123 l 0.26596,-0.117134 -0.0138,-0.551215 -0.17777,-0.101975 -0.48782,0.264584 0.0317,0.290766 c 0.008,0.06615 -0.04,0.126779 -0.10749,0.13367 -0.004,0.0014 -0.01,0.0014 -0.0138,0.0014 -0.0427,0 -0.0841,-0.02343 -0.10473,-0.06063 -0.01,-0.01516 -0.0138,-0.03169 -0.0165,-0.04823 l -0.0207,-0.188791 -0.21497,0.11989 c -0.0179,0.01102 -0.0386,0.01653 -0.0593,0.01653 -0.0441,0 -0.0841,-0.02343 -0.10611,-0.06201 -0.0165,-0.02756 -0.0207,-0.06063 -0.0124,-0.09233 0.008,-0.03169 0.0289,-0.0565 0.0565,-0.07304 l 0.21087,-0.126774 -0.15296,-0.111622 c -0.0138,-0.01102 -0.0248,-0.02343 -0.0331,-0.03721 -0.0248,-0.04272 -0.022,-0.09508 0.007,-0.133669 0.0234,-0.03169 0.0606,-0.04961 0.0978,-0.04961 0.0262,0 0.0524,0.0083 0.073,0.02343 l 0.23427,0.172255 0.47404,-0.290766 V 87.25577 l -0.47404,-0.290766 -0.23427,0.172255 c -0.0207,0.01516 -0.0469,0.02343 -0.073,0.02343 -0.0372,0 -0.0744,-0.01791 -0.0978,-0.04961 -0.04,-0.05375 -0.0276,-0.130917 0.0262,-0.17088 l 0.15296,-0.111621 -0.21084,-0.126779 c -0.0275,-0.01653 -0.0482,-0.04272 -0.0565,-0.07304 -0.008,-0.03169 -0.004,-0.06477 0.0124,-0.09233 0.022,-0.03858 0.062,-0.06201 0.10611,-0.06201 0.0207,0 0.0413,0.0055 0.0592,0.01653 l 0.21498,0.11989 0.0207,-0.188791 c 0.007,-0.06201 0.0592,-0.108865 0.12127,-0.108865 0.004,0 0.01,0 0.0138,0.0014 0.0675,0.0069 0.11575,0.06752 0.10749,0.13367 l -0.0317,0.290766 0.48507,0.263205 0.18053,-0.10473 0.0138,-0.55535 -0.26596,-0.117133 c -0.062,-0.02756 -0.0896,-0.09922 -0.0634,-0.16123 0.0207,-0.0441 0.0634,-0.07304 0.113,-0.07304 0.0165,0 0.0331,0.0041 0.0482,0.01102 l 0.17363,0.07579 0.004,-0.245291 c 0,-0.06752 0.0551,-0.121267 0.12127,-0.121267 0.0675,0 0.12264,0.05374 0.12264,0.121267 l 0.004,0.245291 0.17363,-0.07579 c 0.0152,-0.0069 0.0317,-0.01102 0.0482,-0.01102 0.0482,0 0.0923,0.02894 0.11162,0.07304 0.0276,0.06201 0,0.133669 -0.062,0.16123 l -0.26596,0.117133 0.0138,0.55535 0.17914,0.103353 0.48369,-0.261828 -0.0317,-0.290766 c -0.007,-0.06615 0.0413,-0.126779 0.10887,-0.13367 0.004,-0.0014 0.008,-0.0014 0.0124,-0.0014 0.0634,0 0.11438,0.04685 0.12265,0.108865 l 0.0193,0.188791 0.21635,-0.11989 c 0.0179,-0.01102 0.0386,-0.01653 0.0593,-0.01653 0.0441,0 0.0841,0.02343 0.10611,0.06201 0.0331,0.05788 0.0138,0.132292 -0.0441,0.165365 l -0.21084,0.126779 0.15296,0.111621 c 0.0262,0.01929 0.0427,0.04823 0.0482,0.07993 0.004,0.03307 -0.003,0.06477 -0.022,0.09095 -0.0234,0.03169 -0.0606,0.04961 -0.0992,0.04961 -0.0262,0 -0.051,-0.0083 -0.0717,-0.02343 l -0.23565,-0.172256 -0.47266,0.289389 v 0.203949 l 0.47404,0.290766 0.23427,-0.172254 c 0.0207,-0.01516 0.0455,-0.02343 0.0717,-0.02343 0.0386,0 0.0758,0.01791 0.0992,0.04961 0.0276,0.03858 0.0303,0.09095 0.007,0.13367 -0.008,0.01378 -0.0193,0.02618 -0.0331,0.03583 l -0.15296,0.112999 0.21084,0.126779 c 0.0276,0.01654 0.0482,0.04134 0.0565,0.07304 0.008,0.03169 0.004,0.06477 -0.0124,0.09233 -0.022,0.03859 -0.062,0.06201 -0.1061,0.06201 -0.0207,0 -0.0413,-0.0055 -0.0606,-0.01653 l -0.21497,-0.119889 -0.0193,0.188791 c -0.003,0.01654 -0.008,0.03307 -0.0165,0.04823 -0.0221,0.03721 -0.062,0.06063 -0.10611,0.06063 -0.004,0 -0.008,0 -0.0124,-0.0014 -0.0675,-0.0069 -0.11575,-0.06752 -0.10886,-0.13367 l 0.0317,-0.290765 -0.48645,-0.264584 -0.17777,0.101975 -0.0138,0.551215 0.26734,0.117134 c 0.062,0.02618 0.0896,0.09922 0.0634,0.159852 -0.0207,0.04547 -0.0648,0.07304 -0.113,0.07304 -0.0165,0 -0.033,-0.0028 -0.0482,-0.0096 l -0.17363,-0.07717 -0.004,0.246669 c 0,0.06752 -0.0551,0.121267 -0.12264,0.121267"
       id="path25432" />
  </g>
</svg>
