<?xml version="1.0" encoding="UTF-8" standalone="no"?>
<!-- Created with Inkscape (http://www.inkscape.org/) -->

<svg
   width="80.962502mm"
   height="80.962502mm"
   viewBox="0 0 80.962502 80.962502"
   version="1.1"
   id="svg5"
   xml:space="preserve"
   inkscape:version="1.2.2 (b0a8486541, 2022-12-01)"
   sodipodi:docname="ccug-reeftender.svg"
   xmlns:inkscape="http://www.inkscape.org/namespaces/inkscape"
   xmlns:sodipodi="http://sodipodi.sourceforge.net/DTD/sodipodi-0.dtd"
   xmlns="http://www.w3.org/2000/svg"
   xmlns:svg="http://www.w3.org/2000/svg"><sodipodi:namedview
     id="namedview7"
     pagecolor="#ffffff"
     bordercolor="#000000"
     borderopacity="0.25"
     inkscape:showpageshadow="2"
     inkscape:pageopacity="0.0"
     inkscape:pagecheckerboard="0"
     inkscape:deskcolor="#d1d1d1"
     inkscape:document-units="mm"
     showgrid="false"
     inkscape:zoom="0.69931958"
     inkscape:cx="105.10216"
     inkscape:cy="393.95436"
     inkscape:window-width="1854"
     inkscape:window-height="1011"
     inkscape:window-x="0"
     inkscape:window-y="0"
     inkscape:window-maximized="1"
     inkscape:current-layer="layer1" /><defs
     id="defs2" /><g
     inkscape:label="Layer 1"
     inkscape:groupmode="layer"
     id="layer1"
     transform="translate(-73.118004,-44.725945)"><path
       style="fill:#33accd;stroke-width:0.264583;fill-opacity:1"
       d="m 111.88869,118.55658 c -0.44787,-0.19502 -1.22178,-0.71233 -1.71979,-1.14958 -1.56167,-1.37112 -2.90093,-1.53018 -5.63447,-0.66915 -1.7204,0.5419 -2.99522,0.15723 -4.669753,-1.4091 -1.500422,-1.40347 -2.526952,-1.75168 -4.511829,-1.53047 -1.826007,0.20351 -3.342758,-0.46915 -4.20549,-1.86508 -0.730645,-1.18221 -2.598818,-2.79091 -3.241065,-2.79091 -0.765578,0 -2.464974,-0.96192 -2.894515,-1.6384 -0.568851,-0.89589 -2.074403,-5.19242 -2.074403,-5.91992 0,-1.694551 3.143594,-3.572045 8.398061,-5.015699 l 2.974102,-0.817129 -2.312644,-1.605762 c -6.897998,-4.789551 -9.949955,-9.116335 -10.942466,-15.513222 -0.158241,-1.019889 -0.214694,-2.310969 -0.12545,-2.869068 0.235453,-1.472443 1.247499,-3.430362 1.725563,-3.338295 0.220253,0.04242 0.704202,0.900874 1.086155,1.926685 0.839244,2.253959 1.340578,3.231531 2.712778,5.289765 1.142763,1.714089 5.709061,6.383544 6.972178,7.129687 0.472825,0.279305 1.128113,1.145035 1.6806,2.220312 0.685985,1.335101 1.7874,2.658518 4.541975,5.457457 2.000023,2.032225 3.612403,3.711335 3.583083,3.731356 -0.0293,0.02003 -1.63957,0.242154 -3.578343,0.49363 -3.441312,0.446366 -8.417976,1.509523 -9.252645,1.976623 -0.952039,0.5328 3.947418,2.97245 8.808925,4.38637 4.837913,1.40705 7.973293,1.81064 14.155213,1.82207 6.2439,0.0116 8.60836,-0.276 13.96719,-1.69864 4.59278,-1.21928 10.2913,-3.87975 9.66072,-4.51033 -0.53377,-0.53377 -10.21024,-2.35541 -12.51184,-2.35541 -0.82777,0 -0.75354,-0.09679 2.36667,-3.086121 3.1223,-2.991337 5.14166,-5.464466 5.79757,-7.100338 0.17505,-0.436562 0.81516,-1.146873 1.42248,-1.578469 1.65151,-1.173652 4.61508,-4.043527 5.90024,-5.713694 1.42214,-1.848175 2.95535,-4.619982 3.71312,-6.712735 0.31974,-0.883037 0.73865,-1.605519 0.93091,-1.605519 0.56449,0 1.51973,1.658956 1.71851,2.984524 0.32318,2.155116 -0.51551,5.894816 -2.00085,8.921727 -1.34665,2.744271 -2.64202,4.470693 -4.90326,6.534891 -1.1965,1.092239 -4.88551,3.853111 -5.92787,4.436446 -0.6189,0.346353 -0.33411,0.493554 2.33897,1.208915 5.19089,1.389174 8.48369,3.296719 8.48369,4.914673 0,0.42999 -0.49111,2.03387 -1.09135,3.56415 -0.91387,2.32985 -1.24658,2.88783 -2.0458,3.43091 -0.52494,0.35671 -1.20659,0.64856 -1.51478,0.64856 -0.80165,0 -2.55081,1.34701 -3.54272,2.72821 -1.19517,1.66425 -2.21014,2.15406 -4.06657,1.96246 -2.05546,-0.21215 -3.10424,0.14901 -4.83763,1.66586 -1.7826,1.55991 -2.72893,1.80456 -4.58958,1.18656 -0.74084,-0.24607 -1.86584,-0.45525 -2.49999,-0.46483 -1.1575,-0.0175 -1.33069,0.0626 -4.00051,1.85143 -1.42089,0.95199 -2.80631,1.11022 -4.24309,0.4846 z m -1.96761,-19.203877 c -1.96663,-1.964531 -5.13267,-5.060156 -7.03566,-6.879167 -2.16974,-2.073986 -3.764173,-3.840678 -4.275713,-4.737647 -2.862898,-5.020025 -0.624253,-11.705564 4.488203,-13.403647 1.74978,-0.581186 4.68294,-0.416118 6.17202,0.34734 1.28151,0.657032 3.31777,2.780908 3.80572,3.969475 0.19415,0.472943 0.43954,0.859896 0.54531,0.859896 0.10577,0 0.41352,-0.490575 0.6839,-1.090166 0.62265,-1.380804 2.31944,-3.133132 3.68981,-3.810592 0.82065,-0.405697 1.59313,-0.52206 3.43958,-0.518123 2.08171,0.0044 2.55713,0.0971 3.7794,0.736666 3.11401,1.629421 4.61567,4.227126 4.61853,7.989507 0.003,3.640034 -1.01768,5.422992 -5.60284,9.789583 -1.68085,1.600729 -4.78331,4.577292 -6.89434,6.614584 l -3.83825,3.704168 z m -17.130409,-15.1814 c -2.281759,-2.59878 -4.739729,-6.82715 -5.725627,-9.84962 -0.983887,-3.016308 -0.997197,-7.414412 -0.02861,-9.45555 0.554168,-1.167821 2.926894,-3.377444 3.422521,-3.187254 0.217599,0.0835 0.419147,0.829588 0.531144,1.966182 0.348678,3.538531 1.87649,7.632085 3.908812,10.473102 l 0.780805,1.091498 -0.685886,1.353532 c -1.019189,2.011273 -1.553514,4.605428 -1.383327,6.716072 0.0792,0.982266 0.103734,1.785938 0.05452,1.785938 -0.04922,0 -0.442674,-0.402254 -0.874344,-0.8939 z m 40.867569,-0.6936 c 0.15505,-2.029312 -0.39468,-4.671605 -1.39842,-6.721488 l -0.68359,-1.396088 1.32065,-2.023044 c 0.72637,-1.112676 1.63887,-2.855773 2.02778,-3.873549 0.71264,-1.864953 1.43224,-5.244295 1.44932,-6.806154 0.0128,-1.172574 0.31224,-1.248031 1.49753,-0.377391 2.44359,1.794902 3.0395,3.062912 3.04339,6.475812 0.003,2.547838 -0.21712,3.864905 -1.04596,6.261183 -0.97778,2.826909 -3.24572,6.647881 -5.41446,9.122177 l -0.92764,1.058334 z M 96.580448,71.673222 c -2.343031,-5.852787 -2.557553,-10.729505 -0.650451,-14.786691 0.680281,-1.447235 2.172146,-2.559026 4.220853,-3.14552 1.57537,-0.450993 3.30956,-0.628475 3.57242,-0.365613 0.0919,0.0919 -0.0229,1.002658 -0.25524,2.023907 -0.91783,4.035404 -0.25301,9.296616 1.81331,14.350202 0.14261,0.348782 -0.0745,0.460058 -1.18516,0.607391 -1.81422,0.240664 -3.94403,1.060947 -5.535603,2.131995 l -1.302658,0.876623 z m 32.262142,0.910188 c -1.41406,-1.07225 -2.98167,-1.732575 -4.99287,-2.103153 l -1.66237,-0.306304 0.63039,-1.560704 c 0.7575,-1.875355 1.39538,-5.045395 1.39264,-6.920801 -0.002,-1.64773 -0.38138,-4.177167 -0.9858,-6.579775 -0.24551,-0.975922 -0.37667,-1.844117 -0.29146,-1.929322 0.0852,-0.0852 0.86542,-0.04049 1.73381,0.09936 3.98396,0.641599 5.75485,1.631094 6.75978,3.777076 1.73917,3.713888 1.63612,7.728359 -0.34193,13.321046 -1.15267,3.259021 -1.02037,3.12906 -2.24219,2.202582 z m -16.22843,-0.08995 c -1.08031,-0.909022 -3.35834,-1.904959 -4.8494,-2.12012 l -1.23408,-0.178078 -0.19521,-2.553049 c -0.23853,-3.119476 0.20392,-8.691764 0.90671,-11.419467 0.74301,-2.883793 1.8522,-5.071979 2.81499,-5.553374 1.20252,-0.601261 6.06179,-0.540486 7.23243,0.09046 2.39106,1.288716 4.12616,9.308454 3.62014,16.732515 -0.16408,2.407198 -0.24812,2.756196 -0.6637,2.756196 -1.04164,0 -3.99401,1.114897 -5.26187,1.987026 -0.7383,0.507865 -1.39564,0.923391 -1.46074,0.923391 -0.0651,0 -0.47427,-0.299474 -0.90927,-0.665496 z"
       id="path302" /></g></svg>
