<?xml version="1.0" encoding="UTF-8" standalone="no"?>
<svg
   version="1.1"
   id="svg2"
   width="347"
   height="347"
   viewBox="0 0 346.99999 347"
   sodipodi:docname="ccug-echowight.svg"
   inkscape:version="1.2.2 (b0a8486541, 2022-12-01)"
   xmlns:inkscape="http://www.inkscape.org/namespaces/inkscape"
   xmlns:sodipodi="http://sodipodi.sourceforge.net/DTD/sodipodi-0.dtd"
   xmlns="http://www.w3.org/2000/svg"
   xmlns:svg="http://www.w3.org/2000/svg">
  <sodipodi:namedview
     id="namedview910"
     pagecolor="#ffffff"
     bordercolor="#000000"
     borderopacity="0.25"
     inkscape:showpageshadow="2"
     inkscape:pageopacity="0.0"
     inkscape:pagecheckerboard="0"
     inkscape:deskcolor="#d1d1d1"
     showgrid="false"
     inkscape:zoom="2.2644231"
     inkscape:cx="161.63057"
     inkscape:cy="174.21656"
     inkscape:window-width="1854"
     inkscape:window-height="1011"
     inkscape:window-x="0"
     inkscape:window-y="0"
     inkscape:window-maximized="1"
     inkscape:current-layer="g8" />
  <defs
     id="defs6">
    <filter
       id="colorize"
       x="0"
       y="0"
       width="1"
       height="1">
      <feColorMatrix
         type="saturate"
         values="0"
         result="gray"
         id="feColorMatrix901" />
      <feColorMatrix
         in="gray"
         type="matrix"
         values="0 0 0 0 0.7019607843137254 0 0 0 0 0.8274509803921568 0 0 0 0 0.8862745098039215 0 0 0 1 0"
         id="feColorMatrix903" />
    </filter>
  </defs>
  <g
     id="g8"
     filter="url(#colorize)">
    <path
       style="fill:#000000;stroke-width:1.33333"
       d="m 129.08626,332.23507 c -10.37058,-7.18025 -100.781161,-83.8403 -102.361668,-86.7935 -0.83834,-1.56645 0.217724,-8.74903 3.324447,-22.61043 2.504196,-11.17308 4.903016,-20.88089 5.330712,-21.57292 1.188284,-1.92268 3.169708,-1.52326 7.405323,1.49275 2.124867,1.51304 4.450034,2.38843 5.167035,1.94529 1.545527,-0.95518 87.185261,-104.45963 87.811021,-106.128662 0.23638,-0.630495 -1.56362,-2.881103 -4,-5.001352 -2.43639,-2.120248 -6.04838,-5.290029 -8.02665,-7.043956 l -3.59686,-3.188958 2.66173,-5.490068 c 1.94157,-4.004689 4.53807,-6.528619 9.59685,-9.328633 6.29394,-3.483663 7.85971,-3.787516 16.93514,-3.286418 16.82538,0.929011 38.86137,0.712247 48.27217,-0.474845 6.53832,-0.824756 10.06884,-0.659493 13.14668,0.615389 4.08593,1.692446 4.33489,1.591628 8.59227,-3.479382 2.81904,-3.357797 4.65897,-7.225547 5.15345,-10.833099 1.97869,-14.436161 15.34523,-30.978336 29.22861,-36.172772 10.31985,-3.861149 24.75806,-3.911933 34.88569,-0.122707 9.81369,3.671777 20.88353,13.893753 25.61417,23.652329 3.20783,6.617274 3.68397,9.205662 3.72575,20.253538 0.0428,11.315456 -0.35247,13.448947 -3.70504,20 -5.13926,10.042281 -14.36455,19.090179 -23.76656,23.309556 -4.29762,1.92866 -7.81386,3.99118 -7.81386,4.5834 0,0.59221 -1.60881,2.68556 -3.57514,4.65189 l -3.57516,3.57515 2.24841,6.27334 c 1.23663,3.45033 2.24545,9.67991 2.24183,13.84352 -0.0107,11.69841 2.40589,27.29066 6.1783,39.87166 3.12651,10.42694 3.2914,12.11347 1.859,19.01334 -1.6542,7.9682 -5.50245,13.73405 -11.20238,16.78456 -3.23222,1.72984 -3.81646,1.48749 -10.80268,-4.48103 -4.06212,-3.47039 -7.90427,-6.11079 -8.53811,-5.86759 -1.0402,0.39914 -77.60123,89.59429 -86.96372,101.31451 l -3.89215,4.87229 4.10929,3.45775 c 2.26475,1.90565 3.91551,4.45664 3.67758,5.68305 -0.2815,1.45093 -6.6955,4.85168 -18.43174,9.77265 -22.27479,9.33978 -23.09918,9.55144 -26.91374,6.91036 z m 24.35246,-49.90174 c 3.22088,-3.85 23.44207,-27.6182 44.93596,-52.81823 21.49391,-25.20004 38.90256,-46.32137 38.68591,-46.93632 -0.78491,-2.22785 -80.02431,-67.8859 -81.11475,-67.21198 -1.55749,0.96259 -88.619496,106.37578 -88.582541,107.25425 0.01648,0.39175 6.61648,6.22193 14.666667,12.95595 l 14.636703,12.24366 1.016376,-8.78106 c 1.277865,-11.04023 4.380385,-23.11866 7.815495,-30.42655 7.08984,-15.08297 23.66221,-26.54008 48.04918,-33.21819 4.9263,-1.34901 10.09543,-4.14221 14.88322,-8.04233 l 7.3355,-5.97545 1.63044,9.64478 c 0.89674,5.30464 1.65976,15.9448 1.69562,23.6448 0.10426,22.39227 -5.50566,37.29304 -18.51748,49.18511 -8.97479,8.20244 -13.0518,10.40265 -29.90835,16.14033 -6.96667,2.37133 -12.85964,4.48617 -13.09549,4.69964 -0.52383,0.47411 28.10808,24.60457 29.2201,24.6262 0.43522,0.008 3.42656,-3.13461 6.64744,-6.98461 z m -18.29191,-36.80868 c 13.64945,-6.71961 21.04003,-18.13419 22.88283,-35.34197 l 0.94768,-8.84935 h -4.05162 c -2.22839,0 -8.92395,2.49815 -14.87902,5.55143 -15.50976,7.9522 -26.01999,20.52952 -30.1125,36.03489 -0.90773,3.43915 -1.34386,6.55955 -0.96917,6.93424 0.37468,0.37469 4.46073,0.51788 9.0801,0.3182 6.25181,-0.27024 10.62361,-1.45829 17.1017,-4.64744 z M 297.33451,87.203213 c 9.3829,-8.776599 12.61138,-16.11998 12.54596,-28.536547 -0.066,-12.529191 -3.52468,-20.301493 -12.70858,-28.558615 -15.05807,-13.538497 -36.56062,-13.591021 -51.53709,-0.125893 -5.95194,5.35132 -13.71693,18.380152 -11.98593,20.111154 0.42227,0.422256 3.074,0.127347 5.89277,-0.655353 13.34019,-3.704235 27.32526,0.0956 37.38829,10.158628 7.66144,7.661432 10.3755,14.121904 10.3906,24.733451 0.0156,10.957954 1.05261,11.255487 10.01398,2.873172 z"
       id="path2063" />
  </g>
</svg>
