<?xml version="1.0" encoding="UTF-8" standalone="no"?>
<svg
   version="1.1"
   id="svg2"
   width="73.599998"
   height="73.599998"
   viewBox="0 0 73.599998 73.599998"
   sodipodi:docname="ccug-glacial-torrent.svg"
   inkscape:version="1.2.2 (b0a8486541, 2022-12-01)"
   xmlns:inkscape="http://www.inkscape.org/namespaces/inkscape"
   xmlns:sodipodi="http://sodipodi.sourceforge.net/DTD/sodipodi-0.dtd"
   xmlns="http://www.w3.org/2000/svg"
   xmlns:svg="http://www.w3.org/2000/svg">
  <sodipodi:namedview
     id="namedview1038"
     pagecolor="#ffffff"
     bordercolor="#000000"
     borderopacity="0.25"
     inkscape:showpageshadow="2"
     inkscape:pageopacity="0.0"
     inkscape:pagecheckerboard="0"
     inkscape:deskcolor="#d1d1d1"
     showgrid="false"
     inkscape:zoom="10.665761"
     inkscape:cx="36.893757"
     inkscape:cy="36.893757"
     inkscape:window-width="1854"
     inkscape:window-height="1011"
     inkscape:window-x="0"
     inkscape:window-y="0"
     inkscape:window-maximized="1"
     inkscape:current-layer="g8" />
  <defs
     id="defs6">
    <filter
       id="colorize"
       x="-0.1"
       y="-0.1"
       width="1.2"
       height="1.2">
      <feColorMatrix
         type="saturate"
         values="0"
         result="gray"
         id="feColorMatrix1029" />
      <feColorMatrix
         in="gray"
         type="matrix"
         values="0 0 0 0 0.5372549019607843 0 0 0 0 0.8509803921568627 0 0 0 0 0.9098039215686274 0 0 0 1 0"
         id="feColorMatrix1031" />
    </filter>
  </defs>
  <g
     id="g8"
     filter="url(#colorize)"
     transform="translate(0.18275477,-0.32998407)">
    <path
       style="fill:#000000;stroke-width:0.32"
       d="m 34.508546,66.935329 c -2.48016,-3.808262 -3.148547,-5.248524 -3.148547,-6.784591 0,-0.723117 -0.362156,-2.743456 -0.804791,-4.489642 -0.919149,-3.626019 -1.79962,-8.043353 -1.635857,-8.207116 0.06083,-0.06083 0.946256,1.009142 1.967615,2.377711 1.021359,1.36857 2.850188,3.74306 4.06407,5.276647 l 2.207053,2.788342 -0.718912,3.871789 c -0.638653,3.439548 -0.674324,4.087657 -0.319517,5.805465 0.219667,1.06352 0.353709,1.979363 0.297869,2.035203 -0.05584,0.05584 -0.914884,-1.147376 -1.908983,-2.673808 z m 3.571453,0.37088 c 0,-1.387936 0.970003,-4.920175 1.916314,-6.978195 l 1.188425,-2.584569 -0.58744,-2.871725 c -0.323091,-1.579446 -0.724761,-3.951721 -0.892595,-5.271721 l -0.305155,-2.4 1.6515,-3.62617 c 0.908327,-1.994393 1.679636,-3.506393 1.714023,-3.36 0.03438,0.146394 0.153529,0.809875 0.264768,1.474403 l 0.202249,1.208231 1.582746,-1.731776 c 1.27112,-1.39081 2.071267,-1.926672 4.063955,-2.721654 4.109379,-1.63944 13.521209,-4.766292 13.521209,-4.492093 0,0.636765 -1.750995,5.720217 -2.439971,7.083683 -0.42095,0.833043 -0.979648,2.337331 -1.241558,3.342861 -0.261907,1.005532 -0.584707,1.916275 -0.717331,2.023875 -0.132628,0.1076 -2.000292,0.882777 -4.150368,1.722611 -2.150074,0.839837 -4.27696,1.81623 -4.726407,2.169766 -0.480656,0.378083 -1.94519,2.941143 -3.5563,6.223821 -1.951507,3.976249 -3.016355,5.785385 -3.70328,6.291734 -0.530288,0.39089 -1.546851,1.610707 -2.25903,2.710707 -1.243853,1.9212 -1.525754,2.251226 -1.525754,1.786211 z M 25.805775,60.309698 22.97155,57.65157 22.717888,55.340766 22.464226,53.029963 20.1977,50.914981 l -2.266526,-2.114982 -0.30901,-3.04 -0.309009,-3.04 -2.870546,-2.72 -2.870547,-2.72 -0.508233,-4.96 c -0.279528,-2.728 -0.507242,-6.436 -0.506031,-8.24 0.002,-2.958956 0.05926,-3.28 0.585197,-3.28 1.468049,0 3.730707,-1.136075 5.470285,-2.746617 l 1.84818,-1.711089 0.208099,4.548853 c 0.114455,2.501869 0.210204,6.204853 0.212776,8.228853 l 0.0047,3.68 3.356494,3.600262 c 1.846073,1.980148 3.356495,3.830247 3.356495,4.111335 0,0.281088 -0.452654,1.996592 -1.005899,3.81223 l -1.005899,3.301162 1.667134,1.916745 1.667133,1.916742 -0.387036,2.528282 -0.387036,2.528281 1.36628,3.115335 c 0.751454,1.713433 1.312065,3.165312 1.245802,3.226396 -0.06626,0.06108 -1.39588,-1.0851 -2.954703,-2.547071 z m 22.369747,-3.734362 c 0.383542,-1.23488 2.303872,-4.910601 2.757488,-5.278131 0.234845,-0.190278 1.47008,-0.787187 2.744966,-1.326464 l 2.317978,-0.980502 -0.507431,1.18488 c -0.279085,0.651683 -0.792646,1.916016 -1.141244,2.809628 -0.653444,1.675066 -1.358868,2.18737 -5.333712,3.873536 -1.047341,0.444295 -1.062346,0.439229 -0.838045,-0.282947 z M 35.103977,51.031259 C 33.739343,49.483455 33.525826,49.026837 33.05607,46.65165 32.559026,44.138501 32.37439,43.779013 29.521145,39.769145 27.865375,37.442175 25.457588,34.517193 24.170508,33.26918 L 21.830363,31.000068 21.622909,23.420034 C 21.508808,19.251015 21.384976,14.976 21.347726,13.92 L 21.279999,12 23.705808,11.802701 c 1.334195,-0.108514 2.990194,-0.380404 3.68,-0.6042 1.895899,-0.615092 5.347417,-2.4090004 6.498466,-3.3775451 0.562515,-0.4733257 1.073463,-0.8066742 1.13544,-0.7407743 0.06198,0.0659 -0.470105,3.9997704 -1.182406,8.7419344 l -1.295091,8.622116 0.896595,6.257883 c 0.493126,3.441836 0.964688,6.833884 1.047917,7.537884 0.103161,0.872618 0.505737,1.673699 1.264896,2.517005 0.922368,1.024608 1.080243,1.403651 0.919462,2.207548 -0.471661,2.358317 -0.589245,7.189018 -0.20344,8.358019 0.217875,0.66017 0.34296,1.253485 0.277968,1.318477 -0.06499,0.065 -0.803731,-0.659411 -1.641638,-1.609789 z m 4.369456,-13.667964 c 0.314144,-1.08503 0.870758,-1.757002 2.779683,-3.35576 1.718656,-1.439405 2.76622,-2.645142 3.741859,-4.306845 0.745238,-1.269283 1.553926,-2.506737 1.797088,-2.749897 0.243158,-0.24316 2.268841,-1.071219 4.501516,-1.840132 2.894151,-0.99672 4.651738,-1.820702 6.122912,-2.870511 1.134928,-0.809868 2.063507,-1.609211 2.063507,-1.776319 0,-0.500469 1.160138,-0.343737 1.896173,0.256168 0.650125,0.529883 0.68215,0.791531 0.595453,4.865014 l -0.09163,4.305014 -4.377408,1.039586 c -2.760409,0.655567 -5.234947,1.471436 -6.69886,2.208652 -2.289191,1.152816 -2.313863,1.157478 -1.775216,0.335398 0.300432,-0.458515 0.418198,-0.833664 0.261709,-0.833664 -0.731181,0 -6.842135,3.161661 -8.771383,4.538099 -1.188636,0.848045 -2.223494,1.541901 -2.299683,1.541901 -0.07619,0 0.03823,-0.610515 0.254276,-1.356704 z m -1.073434,-4.456291 c 0,-1.155548 -0.367517,-3.729077 -0.816707,-5.718954 l -0.816704,-3.617959 0.804169,-2.169534 c 0.902391,-2.434517 1.642176,-6.420968 1.9672,-10.600557 0.119757,-1.5400003 0.275796,-2.8000002 0.346752,-2.8000002 0.07096,0 0.665923,0.3523398 1.322151,0.7829776 1.828496,1.1999193 6.038905,2.7714746 7.954969,2.9692296 0.944995,0.09753 1.71817,0.234291 1.71817,0.303909 0,0.06962 -0.631844,1.453473 -1.404096,3.075231 -0.772253,1.621759 -1.807818,4.202155 -2.301255,5.734213 l -0.897161,2.785561 -2.258743,0.894564 -2.258745,0.894565 -0.16,2.91122 c -0.166413,3.027873 -0.316583,3.352938 -2.934666,6.352529 -0.145932,0.1672 -0.265334,-0.641446 -0.265334,-1.796995 z M 48.44244,22.314332 c 1.241162,-3.045494 1.562624,-3.53581 3.516403,-5.363477 l 2.150365,-2.011558 0.539091,0.770351 c 0.2965,0.423693 1.004173,1.285434 1.572605,1.914979 l 1.033514,1.144627 -1.52833,1.505349 c -1.273069,1.253925 -1.808896,1.5497 -3.208169,1.770895 -1.249072,0.197452 -1.982186,0.54633 -2.85888,1.3605 -2.718375,2.524503 -2.697843,2.542929 -1.216599,-1.091666 z"
       id="path2627" />
  </g>
</svg>
