<?xml version="1.0" encoding="UTF-8" standalone="no"?>
<svg
   version="1.1"
   id="svg2"
   width="318.66666"
   height="318.66666"
   viewBox="0 0 318.66666 318.66666"
   sodipodi:docname="ccug-lifespeaker.svg"
   inkscape:version="1.2.2 (b0a8486541, 2022-12-01)"
   xmlns:inkscape="http://www.inkscape.org/namespaces/inkscape"
   xmlns:sodipodi="http://sodipodi.sourceforge.net/DTD/sodipodi-0.dtd"
   xmlns="http://www.w3.org/2000/svg"
   xmlns:svg="http://www.w3.org/2000/svg">
  <sodipodi:namedview
     id="namedview360"
     pagecolor="#ffffff"
     bordercolor="#000000"
     borderopacity="0.25"
     inkscape:showpageshadow="2"
     inkscape:pageopacity="0.0"
     inkscape:pagecheckerboard="0"
     inkscape:deskcolor="#d1d1d1"
     showgrid="false"
     inkscape:zoom="2.4633892"
     inkscape:cx="159.33333"
     inkscape:cy="159.73927"
     inkscape:window-width="1854"
     inkscape:window-height="1011"
     inkscape:window-x="0"
     inkscape:window-y="0"
     inkscape:window-maximized="1"
     inkscape:current-layer="g8" />
  <defs
     id="defs6">
    <filter
       id="colorize"
       x="-0.1"
       y="-0.1"
       width="1.2"
       height="1.2">
      <feColorMatrix
         type="saturate"
         values="0"
         result="gray"
         id="feColorMatrix351" />
      <feColorMatrix
         in="gray"
         type="matrix"
         values="0 0 0 0 0.984313725490196 0 0 0 0 0.7176470588235294 0 0 0 0 0.4117647058823529 0 0 0 1 0"
         id="feColorMatrix353" />
    </filter>
  </defs>
  <g
     id="g8"
     filter="url(#colorize)">
    <path
       style="fill:#000000;stroke-width:1.33333"
       d="m 115.80207,283.11356 c -13.86889,-4.5552 -34.926356,-16.97108 -48.666661,-28.69483 -4.033334,-3.44138 -10.326928,-7.38077 -13.985765,-8.7542 -9.386094,-3.52325 -19.445556,-13.92855 -23.274011,-24.07415 -5.835265,-15.46376 -2.197993,-32.5801 9.416057,-44.31026 8.770546,-8.85821 15.779261,-11.65184 29.177052,-11.62972 9.665006,0.016 12.327157,0.54046 18.084606,3.5631 14.424172,7.57261 22.293192,20.63605 22.734012,37.74097 l 0.27462,10.65611 9.86327,9.45653 c 16.85273,16.15777 37.87752,24.22026 59.84381,22.94866 5.79316,-0.33537 10.53301,-0.37005 10.53301,-0.0771 0,0.79108 -22.15108,11.02635 -23.86313,11.02635 -0.80861,0 -1.4702,0.47786 -1.4702,1.06193 0,2.00189 18.71821,4.2714 35.22917,4.2714 21.44935,0 42.18044,-4.207 62.5926,-12.70205 2.18255,-0.90832 2.30743,-0.69739 1.01584,1.71596 -5.1656,9.65202 -31.73194,25.42305 -48.83761,28.9923 -13.14901,2.74366 -34.85777,2.48543 -48.66667,-0.5789 -22.71705,-5.04115 -39.56497,-13.12214 -55.79311,-26.76082 -10.34624,-8.69533 -11.035035,-8.28124 -5.25952,3.16192 2.70788,5.36519 14.77597,18.27323 21.7193,23.23099 3.36771,2.40464 3.57847,2.85337 1.33333,2.83871 -1.46666,-0.009 -6.86666,-1.3969 -12,-3.08291 z M 114.0221,188.6317 c -0.96942,-3.11667 -3.25024,-7.62218 -5.06848,-10.01223 -2.38313,-3.13259 -2.81915,-4.49545 -1.56206,-4.88257 0.95912,-0.29536 3.78338,-1.18986 6.27614,-1.98778 2.49277,-0.79792 5.29111,-1.45076 6.21853,-1.45076 2.12879,0 15.88106,17.1459 14.69976,18.3272 -0.96922,0.96922 -15.33935,5.62215 -17.45928,5.65316 -0.73811,0.0107 -2.13519,-2.53036 -3.10461,-5.64702 z m 20.44664,-11.30308 c -3.66667,-4.86642 -6.54887,-9.1431 -6.40489,-9.50374 0.25049,-0.62742 14.82593,-5.46616 16.58804,-5.50688 1.49512,-0.0345 15.84865,18.47052 14.81277,19.09715 -1.60116,0.9686 -15.34405,4.88901 -16.90459,4.82236 -0.78357,-0.0335 -4.42466,-4.04248 -8.09133,-8.90889 z m 107.75873,3.91049 c -6.6648,-2.38175 -19.09206,-11.2386 -19.09206,-13.60683 0,-0.63482 1.17365,-1.52672 2.6081,-1.982 7.77047,-2.46625 11.63198,-13.81916 7.45063,-21.905 -2.31973,-4.48586 -10.35323,-8.62304 -15.014,-7.73208 -3.13033,0.5984 -3.29705,0.35658 -2.62203,-3.80311 1.79872,-11.08421 10.7148,-22.6556 21.5363,-27.95007 20.76366,-10.158702 45.06869,-2.16386 55.22793,18.16659 3.61989,7.24405 4.14474,9.66741 4.13337,19.08471 -0.0107,8.53334 -0.66893,12.1799 -3.15244,17.45371 -9.06007,19.23939 -31.80791,29.15968 -51.0758,22.27408 z m -82.93145,-10.97668 c -3.94289,-5.17012 -6.85657,-9.71255 -6.47484,-10.09428 0.38173,-0.38175 4.33261,-1.79573 8.77972,-3.14221 l 8.08565,-2.44814 7.4817,9.32523 c 4.11493,5.12888 7.29093,9.48512 7.05776,9.68052 -0.23316,0.19541 -3.72394,1.42357 -7.75727,2.72927 -4.03333,1.30568 -7.9342,2.59353 -8.66859,2.86189 -0.73437,0.26836 -4.56124,-3.74216 -8.50413,-8.91228 z m 23.9882,-8.01548 c -3.93641,-5.1616 -6.93024,-9.54265 -6.65296,-9.73565 0.95872,-0.66734 15.41,-4.8796 16.74072,-4.8796 1.41071,0 13.53024,14.99185 14.0978,17.43898 0.2582,1.11326 -13.07131,6.4468 -16.34809,6.54138 -0.3742,0.0107 -3.90107,-4.2035 -7.83747,-9.36511 z m 24.24711,-7.61525 -6.93367,-9 3.6022,-1.60654 c 6.65028,-2.96592 13.39516,-2.13898 17.70477,2.17064 4.39408,4.39407 4.74963,6.58704 1.94676,12.0072 -1.86949,3.61519 -4.48414,5.4287 -7.8269,5.4287 -0.85772,0 -4.67964,-4.05 -8.49316,-9 z m 2.89049,-51.06771 C 201.44165,90.605613 182.01327,76.571042 166.29785,71.689956 154.90187,68.15046 138.64819,66.097267 129.15304,66.997763 c -7.74705,0.73471 -7.89611,0.690466 -4.41664,-1.311018 4.58868,-2.639529 24.65678,-8.025581 38.05875,-10.214542 9.83374,-1.606155 10.11166,-1.745333 5.67359,-2.841216 -8.42815,-2.081145 -41.08371,-1.589911 -54.52294,0.820183 -6.88761,1.235176 -12.82105,1.947653 -13.18542,1.583284 -0.36437,-0.36437 3.63857,-2.723719 8.89542,-5.242998 l 9.55792,-4.580508 -11.03916,-0.906517 c -6.07153,-0.498584 -17.625628,-0.290389 -25.675765,0.462655 -8.050137,0.753045 -14.885057,1.120728 -15.188713,0.817073 -1.832236,-1.832236 24.566283,-10.392424 40.813038,-13.23435 14.88211,-2.60322 46.82655,-2.676934 61.01229,-0.140787 27.92286,4.992091 53.48318,16.847961 70.50002,32.700665 7.28021,6.782162 18.93363,22.399472 17.6626,23.670502 -0.45415,0.454144 -4.49003,1.326841 -8.96861,1.939328 -10.01904,1.370188 -20.13105,6.269518 -27.24448,13.200093 -2.96109,2.88498 -5.72949,5.24542 -6.152,5.24542 -0.42251,0 -2.45251,-2.43047 -4.51112,-5.40104 z"
       id="path481" />
  </g>
</svg>
