<?xml version="1.0" encoding="UTF-8" standalone="no"?>
<!-- Created with Inkscape (http://www.inkscape.org/) -->

<svg
   width="100.29052mm"
   height="99.6632mm"
   viewBox="0 0 100.29052 99.6632"
   version="1.1"
   id="svg5"
   xml:space="preserve"
   inkscape:version="1.2.2 (b0a8486541, 2022-12-01)"
   sodipodi:docname="ccug-rootswhisperer.svg"
   xmlns:inkscape="http://www.inkscape.org/namespaces/inkscape"
   xmlns:sodipodi="http://sodipodi.sourceforge.net/DTD/sodipodi-0.dtd"
   xmlns="http://www.w3.org/2000/svg"
   xmlns:svg="http://www.w3.org/2000/svg"><sodipodi:namedview
     id="namedview7"
     pagecolor="#ffffff"
     bordercolor="#000000"
     borderopacity="0.25"
     inkscape:showpageshadow="2"
     inkscape:pageopacity="0.0"
     inkscape:pagecheckerboard="0"
     inkscape:deskcolor="#d1d1d1"
     inkscape:document-units="mm"
     showgrid="false"
     inkscape:zoom="0.69931958"
     inkscape:cx="127.98154"
     inkscape:cy="169.45042"
     inkscape:window-width="1854"
     inkscape:window-height="1011"
     inkscape:window-x="0"
     inkscape:window-y="0"
     inkscape:window-maximized="1"
     inkscape:current-layer="layer1" /><defs
     id="defs2" /><g
     inkscape:label="Layer 1"
     inkscape:groupmode="layer"
     id="layer1"
     transform="translate(-66.893732,-104.10333)"><path
       style="fill:#8fcc95;fill-opacity:1;stroke-width:0.241159"
       d="m 90.883455,198.28676 c -0.792012,-0.4581 -1.21366,-1.30475 -1.2238,-2.45735 -0.01207,-1.37235 0.476684,-1.91863 2.722703,-3.04316 6.588101,-3.29852 10.580562,-7.37454 12.366782,-12.62561 0.86259,-2.53586 1.06505,-6.68615 0.47861,-9.81094 -1.12969,-6.01927 -4.13865,-11.92615 -8.762604,-17.20179 -3.267097,-3.72755 -10.986312,-10.66637 -11.625512,-10.45021 -0.135159,0.0458 0.268129,0.74804 0.896194,1.56074 0.628065,0.81271 2.267378,2.9289 3.642918,4.70263 4.831271,6.22987 7.662289,10.9782 9.040004,15.1624 0.897124,2.72462 1.77764,6.89866 1.511423,7.16488 -0.284564,0.28455 -4.298916,0.36118 -6.202382,0.11839 -3.405664,-0.43439 -8.032828,-2.80438 -11.368186,-5.82267 -2.969925,-2.6876 -6.597395,-8.40642 -8.231037,-12.97647 -1.643167,-4.59671 -2.327093,-8.81616 -2.335507,-14.40885 -0.01468,-9.76092 2.3031,-17.66183 7.481108,-25.50169 2.132983,-3.22948 3.849814,-5.07438 4.620664,-4.96532 0.511339,0.0723 0.639685,0.3532 1.222311,2.67475 1.339074,5.33574 3.476787,9.35559 6.90791,12.98993 2.421931,2.56538 3.735633,3.51928 9.081166,6.59395 8.89515,5.11635 12.19265,8.06751 14.91084,13.34472 1.82739,3.54778 2.21155,5.14806 2.21155,9.2127 0,3.18333 -0.0574,3.65382 -0.64003,5.24811 -0.96384,2.63734 -2.70104,5.22501 -5.06271,7.5412 l -2.09807,2.05767 0.37558,1.68031 c 0.40848,1.8276 0.56834,8.39335 0.24786,10.18119 l -0.18373,1.02494 2.47475,-0.008 c 4.30618,-0.0146 8.22837,-1.0228 13.20637,-3.39455 4.92328,-2.34568 10.66688,-6.78504 13.45639,-10.40076 1.67132,-2.16635 1.33992,-2.17332 -2.24242,-0.0471 -6.70274,3.9781 -14.86935,7.5394 -17.55895,7.65709 l -1.0104,0.0442 -0.0713,-1.49005 c -0.22469,-4.6919 3.23741,-9.86977 9.35601,-13.99287 4.20037,-2.83045 9.15372,-4.18605 15.31368,-4.19094 6.30086,-0.006 11.48038,1.43541 15.87395,4.41455 2.16443,1.46764 3.53945,2.88492 3.53945,3.64825 0,0.74193 -0.41266,0.96193 -2.29103,1.22144 -3.96318,0.54754 -7.22082,2.03443 -9.84455,4.49337 -2.14864,2.01368 -2.92066,3.29464 -4.60284,7.63699 -0.73056,1.88588 -1.50827,3.78502 -1.72825,4.22031 -0.87174,1.72496 -2.3551,3.38622 -3.9234,4.39394 -4.83934,3.10955 -9.958,3.20325 -14.82685,0.27139 l -1.37558,-0.82834 -1.7192,0.58474 c -3.21767,1.09441 -5.11686,1.36686 -9.76926,1.40147 -2.40958,0.018 -4.42603,0.0868 -4.48094,0.15317 -0.055,0.0664 -0.65676,0.9345 -1.3374,1.92929 -4.11718,6.01739 -13.568867,11.93882 -16.422241,10.28842 z"
       id="path302" /></g></svg>
