<?xml version="1.0" encoding="UTF-8" standalone="no"?>
<svg
   version="1.1"
   id="svg2"
   width="189"
   height="188"
   viewBox="0 0 189 188"
   sodipodi:docname="ccug-core.svg"
   inkscape:version="1.2.2 (b0a8486541, 2022-12-01)"
   xmlns:inkscape="http://www.inkscape.org/namespaces/inkscape"
   xmlns:sodipodi="http://sodipodi.sourceforge.net/DTD/sodipodi-0.dtd"
   xmlns="http://www.w3.org/2000/svg"
   xmlns:svg="http://www.w3.org/2000/svg">
  <sodipodi:namedview
     id="namedview2716"
     pagecolor="#ffffff"
     bordercolor="#000000"
     borderopacity="0.25"
     inkscape:showpageshadow="2"
     inkscape:pageopacity="0.0"
     inkscape:pagecheckerboard="0"
     inkscape:deskcolor="#d1d1d1"
     showgrid="false"
     inkscape:zoom="4.1755319"
     inkscape:cx="94.718471"
     inkscape:cy="94.23949"
     inkscape:window-width="1854"
     inkscape:window-height="1043"
     inkscape:window-x="0"
     inkscape:window-y="0"
     inkscape:window-maximized="1"
     inkscape:current-layer="g8" />
  <defs
     id="defs6">
    <filter
       id="colorize"
       x="-0.1"
       y="-0.10000001"
       width="1.2"
       height="1.2">
      <feColorMatrix
         type="saturate"
         values="0"
         result="gray"
         id="feColorMatrix2707" />
      <feColorMatrix
         in="gray"
         type="matrix"
         values="0 0 0 0 0.8431372549019608 0 0 0 0 0.41568627450980394 0 0 0 0 0.047058823529411764 0 0 0 1 0"
         id="feColorMatrix2709" />
    </filter>
  </defs>
  <g
     id="g8"
     filter="url(#colorize)">
    <path
       style="fill:#000000"
       d="m 70.5,177.58094 c -3.3,-0.76235 -8.7,-2.44243 -12,-3.73352 L 52.5,171.5 68.311441,171.2243 84.122883,170.94859 83.811441,167.7243 83.5,164.5 61.836731,164.23074 40.173462,163.96148 34.907815,159.23074 29.642168,154.5 45.071084,154 60.5,153.5 60.813358,150.25 61.126717,147 42.313358,146.99821 23.5,146.99642 20.862855,142.74821 C 17.973213,138.09325 15,132.41416 15,131.54966 15,131.24735 34.35,131 58,131 h 43 V 127.5 124 H 56.547004 12.094008 l -1.091048,-3.75 c -0.600076,-2.0625 -1.3611803,-7.0125 -1.6913423,-11 L 8.7113231,102 H 28.855662 49 V 98.5 95 H 28.886456 8.7729124 L 9.4838279,90.25 C 9.8748313,87.6375 10.402484,85.1625 10.656389,84.75 10.910294,84.3375 26.166476,84 44.559017,84 H 78 V 80.5 77 H 45.432612 12.865225 l 0.674365,-2.25 c 1.908822,-6.368723 6.368506,-14.461891 12.398468,-22.5 L 28.376117,49 H 47.688058 67 V 46 43 H 51.5 C 42.975,43 36,42.640152 36,42.200338 36,40.742955 51.390568,31.307733 58,28.713189 65.920044,25.604163 78.174875,23 84.885482,23 c 4.859124,0 20.283908,1.84526 20.951138,2.506375 0.18515,0.183446 -7.142035,8.994877 -16.282621,19.580957 C 80.413413,55.673413 73.286932,64.655199 73.717376,65.046858 74.147819,65.438517 79.3375,67.703519 85.25,70.080196 91.1625,72.456873 96,74.91273 96,75.537656 c 0,0.624926 -3.32623,8.747105 -7.391623,18.049287 -4.065393,9.302177 -7.257909,17.058037 -7.09448,17.235247 0.163429,0.1772 2.027159,-0.75941 4.141623,-2.08136 2.114464,-1.32196 9.412106,-5.64534 16.21698,-9.607535 l 12.3725,-7.203981 -0.73319,13.689366 -0.7332,13.68937 5.8607,-0.61423 c 3.22338,-0.33783 8.51397,-0.92683 11.75687,-1.30889 l 5.89618,-0.69465 -0.65294,2.90486 c -2.1387,9.51484 -2.66194,8.32729 7.24999,16.45464 4.99737,4.09762 9.09163,7.68173 9.09836,7.96469 0.0367,1.5419 -10.90926,13.64089 -16.26286,17.97602 -7.19317,5.82473 -19.57854,12.21675 -28.22491,14.56672 -8.243353,2.24043 -29.22081,2.82085 -37,1.02373 z m 97.12043,-23.72711 c -1.54464,-7.14954 -2.64481,-13.16279 -2.44482,-13.36277 0.19998,-0.19998 3.27978,2.25333 6.844,5.45181 l 6.48039,5.81543 -3.48486,7.20698 c -1.91667,3.96385 -3.73268,7.36015 -4.03557,7.54735 -0.3029,0.1872 -1.81451,-5.50926 -3.35914,-12.6588 z M 165.5,129.37482 c -4.95,-2.9899 -9.55528,-5.77372 -10.23396,-6.18627 -1.09189,-0.66374 -3.51758,-13.15758 -2.7243,-14.03184 0.80918,-0.89176 21.467,11.34763 21.54264,12.76363 0.0464,0.86881 0.40763,4.16716 0.8027,7.32966 0.39507,3.1625 0.4696,5.70747 0.16561,5.65549 -0.30398,-0.052 -4.60269,-2.54078 -9.55269,-5.53067 z m -38.25,-27.10703 c -2.42225,-0.21816 -4.24347,-0.89563 -4.23482,-1.57529 0.0361,-2.838707 2.74391,-9.975898 4.0535,-10.684261 2.78151,-1.504536 35.98122,-13.291281 36.34267,-12.902578 0.32627,0.350871 -1.4433,13.978067 -2.9405,22.644339 l -0.56148,3.25 -14.20468,-0.17471 c -7.81258,-0.0961 -16.11719,-0.34696 -18.45469,-0.5575 z M 106.39078,77.882974 c 1.46451,-2.410636 3.84721,-6.520474 5.29491,-9.132974 1.44769,-2.6125 2.94231,-4.75 3.32136,-4.75 1.14149,0 4.28879,7.793408 3.71382,9.196224 -0.2939,0.717077 -3.78752,3.051114 -7.7636,5.18675 l -7.22922,3.882973 z m 41.72436,-8.698977 C 149.42681,68.185196 153.2,65.516303 156.5,63.253124 l 6,-4.11487 7.77377,1.573768 c 4.27558,0.865573 7.58876,1.75878 7.36264,1.984906 -0.47171,0.471709 -29.68025,8.281529 -31.02127,8.294508 -0.48667,0.0047 0.18833,-0.808637 1.5,-1.807439 z m -6.96668,-14.261315 c -3.49334,-0.453039 -6.68775,-0.958477 -7.09868,-1.123195 -0.41093,-0.164718 6.49726,-9.693284 15.35153,-21.174592 L 165.5,11.749789 l 0.5,12.794919 0.5,12.794918 6.87399,1.580187 6.87398,1.580187 -14.42794,7.75 c -7.93536,4.2625 -15.30366,7.692938 -16.37398,7.623195 -1.07033,-0.06974 -4.80424,-0.497473 -8.29759,-0.950513 z M 99,51.470918 c 0,-0.290995 5.45406,-8.554823 12.12012,-18.364063 l 12.12012,-17.834982 11.62988,3.472259 c 6.39644,1.909742 11.73439,3.56558 11.86212,3.679639 0.12774,0.11406 -7.96268,6.815372 -17.97871,14.891805 L 110.54258,52 h -5.77129 C 101.59708,52 99,51.761913 99,51.470918 Z m 8.69644,-35.848432 c -1.76888,-5.191364 -2.0078,-4.973263 6.80356,-6.2108114 l 5,-0.7022464 -4.40444,4.8952858 c -2.42245,2.692407 -4.73053,5.268363 -5.12906,5.724346 -0.39854,0.455982 -1.42007,-1.211976 -2.27006,-3.706574 z"
       id="path2835" />
  </g>
</svg>
