<?xml version="1.0" encoding="UTF-8" standalone="no"?>
<svg
   version="1.1"
   id="svg2"
   width="250"
   height="250"
   viewBox="0 0 250 250"
   sodipodi:docname="ccug-wildborn.svg"
   inkscape:version="1.2.2 (b0a8486541, 2022-12-01)"
   xmlns:inkscape="http://www.inkscape.org/namespaces/inkscape"
   xmlns:sodipodi="http://sodipodi.sourceforge.net/DTD/sodipodi-0.dtd"
   xmlns="http://www.w3.org/2000/svg"
   xmlns:svg="http://www.w3.org/2000/svg">
  <sodipodi:namedview
     id="namedview1806"
     pagecolor="#ffffff"
     bordercolor="#000000"
     borderopacity="0.25"
     inkscape:showpageshadow="2"
     inkscape:pageopacity="0.0"
     inkscape:pagecheckerboard="0"
     inkscape:deskcolor="#d1d1d1"
     showgrid="false"
     inkscape:zoom="3.1910569"
     inkscape:cx="116.88917"
     inkscape:cy="123.94013"
     inkscape:window-width="1854"
     inkscape:window-height="1011"
     inkscape:window-x="0"
     inkscape:window-y="0"
     inkscape:window-maximized="1"
     inkscape:current-layer="g8" />
  <defs
     id="defs6">
    <filter
       id="colorize"
       x="0"
       y="0"
       width="1"
       height="1">
      <feColorMatrix
         type="saturate"
         values="0"
         result="gray"
         id="feColorMatrix1797" />
      <feColorMatrix
         in="gray"
         type="matrix"
         values="0 0 0 0 0.6941176470588235 0 0 0 0 0.5529411764705883 0 0 0 0 0.7411764705882353 0 0 0 1 0"
         id="feColorMatrix1799" />
    </filter>
  </defs>
  <g
     id="g8"
     filter="url(#colorize)">
    <path
       style="fill:#000000;stroke-width:0.912391"
       d="m 144.65765,237.11521 c -19.75442,-2.15658 -40.02195,-12.78455 -52.280263,-27.41497 -6.533324,-7.79758 -9.422863,-14.66552 -9.997956,-23.76341 -1.087228,-17.1998 7.023403,-31.32268 22.333859,-38.88952 6.07334,-3.0016 7.79823,-3.42695 15.18644,-3.74491 13.82423,-0.59496 22.17541,3.06959 33.90878,14.87938 7.72052,7.7708 15.03075,11.70216 24.60335,13.23138 20.98167,3.35183 40.95061,-10.1796 46.50771,-31.51471 0.76836,-2.95 1.40265,-7.2276 1.4095,-9.50579 0.0258,-8.59546 1.02047,-8.99258 3.22347,-1.28705 3.66353,12.81412 4.4455,17.95158 4.35653,28.62237 -0.25338,30.39269 -17.22364,57.65929 -44.38602,71.31626 -12.94102,6.50663 -30.40961,9.6491 -44.8654,8.07097 z M 79.915311,210.16362 C 48.469353,201.92141 27.727897,182.42216 18.589666,152.51078 16.432802,145.4509 16.135162,142.92546 16.086144,131.26865 16.020614,115.68503 17.273013,109.79134 23.453643,96.597803 34.66149,72.672886 55.41814,56.450564 81.521465,51.215009 c 6.148416,-1.233191 8.36242,-1.294649 13.789128,-0.382775 13.728627,2.306884 24.600627,10.459943 30.544457,22.9057 3.16375,6.624573 3.29195,7.283917 3.29195,16.929332 0,9.399434 -0.18534,10.427594 -2.92096,16.202714 -5.75903,12.15777 -15.53057,19.71154 -30.381297,23.4859 -9.745403,2.47683 -15.331545,5.49397 -21.391212,11.55364 -9.139181,9.13918 -13.814842,23.35974 -11.611793,35.31612 2.320575,12.5942 7.474143,20.42684 19.04013,28.93811 4.166878,3.06634 7.576141,5.73999 7.576141,5.94142 0,0.52921 -0.519205,0.42357 -9.542698,-1.94155 z m 92.814739,-63.71789 c -20.03796,-7.61906 -30.67332,-29.95489 -23.78741,-49.957164 2.90322,-8.433307 2.88297,-22.874857 -0.0424,-30.219047 -7.18409,-18.035871 -26.6535,-29.382783 -45.11606,-26.29396 -2.90962,0.486785 -8.965615,2.506956 -13.457766,4.48927 -4.492115,1.982314 -8.167512,3.303545 -8.167512,2.93607 0,-0.894787 13.202059,-13.562159 17.791619,-17.071051 6.049239,-4.624876 15.016399,-9.18388 24.178359,-12.29255 7.82862,-2.656265 9.94844,-2.977307 21.89737,-3.316321 11.83729,-0.335846 14.14191,-0.138999 21.89738,1.870337 15.93852,4.129456 27.65786,10.998447 38.87794,22.787307 16.10565,16.922095 22.92135,35.292579 22.04783,59.425886 -0.37372,10.324853 -0.82445,13.094543 -3.34042,20.526123 -4.47661,13.22288 -11.13299,20.98225 -22.52206,26.25403 -4.62756,2.14201 -6.79706,2.542 -14.9907,2.76377 -8.26417,0.22369 -10.36114,-0.0377 -15.26615,-1.9027 z"
       id="path2677" />
  </g>
</svg>
