<?xml version="1.0" encoding="UTF-8" standalone="no"?>
<svg
   version="1.1"
   id="svg2"
   width="240"
   height="240"
   viewBox="0 0 240 240"
   sodipodi:docname="ccug-skitterclaw.svg"
   inkscape:version="1.2.2 (b0a8486541, 2022-12-01)"
   xmlns:inkscape="http://www.inkscape.org/namespaces/inkscape"
   xmlns:sodipodi="http://sodipodi.sourceforge.net/DTD/sodipodi-0.dtd"
   xmlns="http://www.w3.org/2000/svg"
   xmlns:svg="http://www.w3.org/2000/svg">
  <sodipodi:namedview
     id="namedview1422"
     pagecolor="#ffffff"
     bordercolor="#000000"
     borderopacity="0.25"
     inkscape:showpageshadow="2"
     inkscape:pageopacity="0.0"
     inkscape:pagecheckerboard="0"
     inkscape:deskcolor="#d1d1d1"
     showgrid="false"
     inkscape:zoom="3.2708333"
     inkscape:cx="120"
     inkscape:cy="120.30573"
     inkscape:window-width="1854"
     inkscape:window-height="1011"
     inkscape:window-x="0"
     inkscape:window-y="0"
     inkscape:window-maximized="1"
     inkscape:current-layer="g8" />
  <defs
     id="defs6">
    <filter
       id="colorize"
       x="-0.1"
       y="-0.1"
       width="1.2"
       height="1.2">
      <feColorMatrix
         type="saturate"
         values="0"
         result="gray"
         id="feColorMatrix1413" />
      <feColorMatrix
         in="gray"
         type="matrix"
         values="0 0 0 0 0.6862745098039216 0 0 0 0 0.4823529411764706 0 0 0 0 0.3176470588235294 0 0 0 1 0"
         id="feColorMatrix1415" />
    </filter>
  </defs>
  <g
     id="g8"
     filter="url(#colorize)">
    <path
       style="fill:#000000"
       d="m 155.74519,222.22762 c -4.33395,-11.80483 -5.24806,-17.1342 -5.18472,-30.22762 0.0643,-13.29864 1.40389,-20.18245 6.12932,-31.49764 5.56218,-13.31884 17.98817,-28.75129 31.55718,-39.1924 4.72705,-3.63738 6.14918,-4.30044 6.86157,-3.19916 2.02922,3.13697 5.92995,17.45165 7.05196,25.87887 3.63996,27.33916 -9.13542,56.67038 -33.67541,77.3159 -10.43592,8.77976 -9.8701,8.73881 -12.7399,0.92205 z m 18.82647,-18.94282 c 12.3737,-14.58542 18.43452,-29.24019 19.20152,-46.42835 C 194.2427,146.3347 192.04622,131 190.06961,131 c -1.86245,0 -17.10727,17.21372 -20.90262,23.60225 -6.77985,11.41218 -9.32671,20.03961 -9.90681,33.55914 -0.37684,8.78249 -0.0836,13.53459 1.18772,19.24903 l 1.68809,7.58764 3.53987,-2.69999 c 1.94692,-1.48499 5.95004,-5.54096 8.8958,-9.01327 z M 67.772986,222.41548 C 46.022532,204.72647 34.641004,177.10981 38.936247,152.4447 c 1.290668,-7.41157 4.653655,-18.35834 6.098309,-19.85045 1.191263,-1.23039 10.804666,6.31337 17.642352,13.84419 14.773836,16.27145 21.7968,37.36098 19.237752,57.76978 -0.998448,7.96278 -5.548152,23.84988 -6.797152,23.73496 -0.339629,-0.0312 -3.644664,-2.51871 -7.344522,-5.5277 z M 72.704687,209.25 C 73.142109,207.1875 73.5,200.775 73.5,195 c 0,-12.29491 -2.257774,-20.83687 -8.108241,-30.67637 -4.149774,-6.97922 -14.810042,-19.17306 -15.869839,-18.15285 -2.742074,2.63964 -3.361563,23.17043 -0.976694,32.36912 2.515096,9.70099 8.12832,19.86403 15.174933,27.47502 3.55691,3.8418 6.854583,6.98508 7.328162,6.98508 0.473579,0 1.218944,-1.6875 1.656366,-3.75 z m 35.626463,8.5 C 101.69108,207.08978 99.892743,203.39668 96.09477,192.62118 84.742115,160.41174 89.390468,125.85044 109.19079,95.25 111.41506,91.8125 113.53601,89 113.904,89 c 0.368,0 2.25123,2.1375 4.18495,4.75 27.9012,37.69511 28.59183,83.10937 1.88583,124.00735 -2.9603,4.53346 -5.63493,8.24265 -5.94361,8.24265 -0.30869,0 -2.8737,-3.7125 -5.70002,-8.25 z m 11.86542,-17.82297 c 2.58312,-5.18487 5.92578,-13.47703 7.42815,-18.42703 2.48661,-8.19291 2.73156,-10.43483 2.73156,-25 0,-14.58902 -0.24183,-16.79368 -2.74228,-25 -2.84058,-9.32258 -11.44766,-27 -13.14622,-27 -1.62692,0 -10.17795,18.23557 -12.35757,26.35324 -4.706251,17.52773 -4.735946,35.15786 -0.0878,52.14676 2.4649,9.00925 10.91331,27.18392 12.41101,26.69923 0.58664,-0.18985 3.18008,-4.58734 5.76319,-9.7722 z M 23.050209,159.28508 c -7.578856,-30.08678 -6.833392,-51.39956 2.79739,-79.977307 2.18859,-6.494275 4.703362,-13.505113 5.588384,-15.57964 l 1.60913,-3.771866 8.170865,6.271866 C 45.709954,69.67766 54.18892,77.1125 60.058125,82.75 65.92733,88.3875 70.970407,93 71.264962,93 c 0.294556,0 1.084462,-2.3625 1.755346,-5.25 1.976266,-8.505885 7.815054,-23.413755 14.047348,-35.866352 6.987084,-13.960726 25.046984,-41.25379 26.319434,-39.775311 14.09749,16.380051 30.17401,44.696314 37.3258,65.743537 2.08291,6.129872 4.01211,11.127827 4.28711,11.106568 0.275,-0.02126 2.3,-2.349172 4.5,-5.173139 C 169.15408,71.393115 203.26828,40.5 207.29846,40.5 c 1.59909,0 9.06787,22.576366 11.63308,35.16405 5.02738,24.66981 5.24127,50.62341 0.60023,72.83595 -4.05365,19.40129 -3.98304,19.3697 -5.31176,2.37627 -0.66916,-8.55812 -2.35676,-20.44842 -3.80587,-26.81497 -2.5949,-11.40052 -7.84201,-27.765769 -9.441,-29.445603 -1.88069,-1.975773 -32.29293,24.128953 -42.97978,36.892233 l -6.38331,7.62357 -3.11792,-9.31575 C 144.96948,119.29077 140.17086,108.12307 135.68067,100 131.18506,91.867108 120.67899,76.056136 116.8473,71.656965 L 113.5,67.81393 108.16065,74.971827 C 93.293632,94.902431 83.311169,115.26905 75.51154,141.58384 75.334854,142.17995 71.659977,139.29764 67.345146,135.1787 58.369766,126.6108 41.757119,113 40.274959,113 c -1.745171,0 -7.067299,19.08461 -11.675701,41.86787 -1.375916,6.80233 -2.689411,12.55562 -2.918877,12.78508 -0.229466,0.22947 -1.413044,-3.53607 -2.630172,-8.36787 z"
       id="path2687" />
  </g>
</svg>
