<?xml version="1.0" encoding="UTF-8" standalone="no"?>
<svg
   version="1.1"
   id="svg2"
   width="266.66666"
   height="266.66666"
   viewBox="0 0 266.66666 266.66666"
   sodipodi:docname="ccug-jester-twins.svg"
   inkscape:version="1.2.2 (b0a8486541, 2022-12-01)"
   xmlns:inkscape="http://www.inkscape.org/namespaces/inkscape"
   xmlns:sodipodi="http://sodipodi.sourceforge.net/DTD/sodipodi-0.dtd"
   xmlns="http://www.w3.org/2000/svg"
   xmlns:svg="http://www.w3.org/2000/svg">
  <sodipodi:namedview
     id="namedview1166"
     pagecolor="#ffffff"
     bordercolor="#000000"
     borderopacity="0.25"
     inkscape:showpageshadow="2"
     inkscape:pageopacity="0.0"
     inkscape:pagecheckerboard="0"
     inkscape:deskcolor="#d1d1d1"
     showgrid="false"
     inkscape:zoom="2.9437501"
     inkscape:cx="133.33333"
     inkscape:cy="133.67303"
     inkscape:window-width="1854"
     inkscape:window-height="1011"
     inkscape:window-x="0"
     inkscape:window-y="0"
     inkscape:window-maximized="1"
     inkscape:current-layer="g8" />
  <defs
     id="defs6">
    <filter
       id="colorize"
       x="-0.1"
       y="-0.1"
       width="1.2"
       height="1.2">
      <feColorMatrix
         type="saturate"
         values="0"
         result="gray"
         id="feColorMatrix1157" />
      <feColorMatrix
         in="gray"
         type="matrix"
         values="0 0 0 0 0.7529411764705882 0 0 0 0 0.11764705882352941 0 0 0 0 0.22745098039215686 0 0 0 1 0"
         id="feColorMatrix1159" />
    </filter>
  </defs>
  <g
     id="g8"
     filter="url(#colorize)">
    <path
       style="fill:#000000;stroke-width:1.33333"
       d="m 219.18415,210.69323 c -1.54872,-0.62574 -4.08294,-2.74858 -5.63162,-4.71741 -8.83032,-11.22593 -0.89928,-27.28993 13.48046,-27.30417 4.24399,-0.004 5.24846,-0.57165 6.40728,-3.61961 2.79308,-7.34636 -1.0902,-12.02922 -11.9084,-14.36034 -2.57861,-0.55564 -6.92482,-0.27496 -10.27752,0.66374 -9.77,2.73544 -15.14205,8.67185 -25.68226,28.38033 -5.28552,9.88307 -10.42295,18.64385 -11.41651,19.46842 -1.34548,1.11666 -4.14764,1.01102 -10.98102,-0.41401 -24.48831,-5.10675 -53.2667,-5.64757 -72.2573,-1.35791 C 76.467082,210.69633 76.770134,210.8569 75.002202,199 70.703896,170.17276 60.923573,156.19332 44.61206,155.56204 c -9.616514,-0.37218 -15.702097,7.74306 -12.677391,16.90554 1.275066,3.86244 1.873797,4.20948 7.468306,4.32874 7.129695,0.15197 12.113118,3.3199 15.796106,10.04148 7.027967,12.82628 -6.83024,27.15781 -21.896103,22.64397 -7.693529,-2.30504 -11.969645,-8.17192 -11.969645,-16.42247 0,-5.86564 -0.622459,-7.42509 -4.816896,-12.06782 C 8.7448899,172.3893 6.0188356,165.01604 6.0441488,152.66666 c 0.034607,-16.88349 7.0920082,-28.57552 22.1892062,-36.76094 8.214356,-4.45368 8.831411,-4.57239 23.766644,-4.57239 h 15.333333 l 11.999999,5.94694 c 6.6,3.27082 12.340415,6.13429 12.756477,6.36327 0.416063,0.22898 1.493248,-5.92196 2.393747,-13.66875 3.724219,-32.03868 15.168455,-53.343827 33.697705,-62.73331 10.3707,-5.255233 26.64944,-6.068757 39.02546,-1.950282 11.9881,3.989383 19.33268,9.726589 23.45994,18.325711 1.83334,3.819729 4.42474,7.322112 5.75867,7.783075 6.40237,2.212443 9.62117,15.441606 5.6334,23.1531 -3.7468,7.245526 -16.52279,10.355316 -24.85057,6.048846 -4.9938,-2.582392 -9.19664,-9.312871 -9.20318,-14.738088 -0.005,-4.812259 4.753,-12.499209 9.07051,-14.651721 2.53212,-1.262401 2.7006,-1.7381 1.0892,-3.075439 -6.73487,-5.589446 -18.24179,-4.104752 -24.63683,3.1788 -9.2021,10.480611 -8.95265,28.916708 0.71314,52.704988 l 3.5298,8.68714 13.6573,-6.84611 c 29.69335,-14.88462 52.27703,-12.92796 70.42851,6.10197 9.64753,10.11443 13.12264,17.77026 13.05918,28.77002 -0.0487,8.43859 -1.80852,13.40652 -7.4542,21.04284 -2.24765,3.04017 -2.70474,5.28959 -2.34477,11.53885 0.51837,8.99904 -0.972,12.48911 -6.86859,16.08451 -4.45973,2.71929 -13.94288,3.36274 -19.06408,1.29354 z"
       id="path2647" />
  </g>
</svg>
