<?xml version="1.0" encoding="UTF-8"?>
<svg version="1.1" xmlns="http://www.w3.org/2000/svg" width="222" height="268">
<path d="M0 0 C4.23766984 1.73502611 7.40206367 4.71627281 10.8125 7.6875 C11.44124023 8.23422363 12.06998047 8.78094727 12.71777344 9.34423828 C14.48460326 10.88941127 16.24342337 12.44319301 18 14 C18.69996094 14.61230469 19.39992187 15.22460938 20.12109375 15.85546875 C30.85686894 25.87037654 41.05365272 41.08399416 42.3359375 55.875 C42.53746994 65.09204696 41.37920657 73.09195307 38.62939453 81.95019531 C33.80896856 97.64930177 29.92565634 111.23260694 37 127 C42.396649 135.31879766 50.51857679 141.11669286 60.125 143.5625 C65.01339122 144.31574267 68.7943986 143.63214314 73 141 C78.29390722 135.57035157 78.27930778 130.69726979 78.22265625 123.4296875 C77.76347337 116.35665996 75.41486055 110.17927148 72 104 C85.25799137 108.95430204 93.92404592 118.43127177 100 131 C105.08081661 145.37871101 102.49805025 161.38164888 96.10693359 174.88720703 C92.0392026 182.97401701 86.94817938 190.17892218 81 197 C80.49855469 197.65355469 79.99710938 198.30710938 79.48046875 198.98046875 C78.0625 200.6875 78.0625 200.6875 75 203 C68.79432879 203.29770926 62.41445661 201.24185316 56.5 199.5625 C55.69046875 199.34529297 54.8809375 199.12808594 54.046875 198.90429688 C52.0115898 198.33571468 50.00244464 197.67519404 48 197 C47.67 196.34 47.34 195.68 47 195 C47.598125 193.88625 48.19625 192.7725 48.8125 191.625 C51.61833949 186.36283737 52.25832877 180.8552992 53 175 C52.27167969 175.47566406 51.54335937 175.95132813 50.79296875 176.44140625 C45.87041192 179.1883995 40.87106816 179.64513585 35.375 178.41015625 C25.33501454 174.84412483 19.52172729 167.39528927 15 158 C7.32436956 140.29614651 10.19454965 120.06334462 15 102 C15 101.34 15 100.68 15 100 C14.52691406 100.71285156 14.05382812 101.42570312 13.56640625 102.16015625 C8.37304713 109.68192199 2.8546093 117.42945367 -6.625 119.3125 C-10.3319618 119.48158949 -12.16463914 118.536799 -15 116.1875 C-16.7540994 114.47806516 -17.90337379 113.19325242 -19 111 C-19.07476562 111.87140625 -19.14953125 112.7428125 -19.2265625 113.640625 C-20.5242334 125.3959967 -23.93146276 135.14346562 -32.78125 143.3125 C-41.93746762 150.27638382 -50.72261777 151.7582592 -62 151 C-67.28925609 149.80474106 -71.06201421 146.55379205 -75 143 C-75.48324254 150.08755721 -74.9115403 156.51707998 -73.1875 163.375 C-73.02217773 164.04015625 -72.85685547 164.7053125 -72.68652344 165.390625 C-71.83870056 168.57115829 -70.83782327 171.30794937 -69.30078125 174.2265625 C-68 177 -68 177 -68.10253906 178.97119141 C-69.40973048 181.92624055 -71.25656591 182.68260019 -74.05859375 184.234375 C-75.59676758 185.09482422 -75.59676758 185.09482422 -77.16601562 185.97265625 C-78.24560547 186.55917969 -79.32519531 187.14570313 -80.4375 187.75 C-81.51322266 188.35199219 -82.58894531 188.95398438 -83.69726562 189.57421875 C-91.69076849 194 -91.69076849 194 -94 194 C-99.46089232 183.57718015 -104.28293725 173.17434752 -108 162 C-108.34160156 160.99324219 -108.68320313 159.98648438 -109.03515625 158.94921875 C-114.98398617 138.0591416 -111.34808039 115.42651015 -101.13671875 96.62890625 C-96.19200194 87.98406122 -89.35673051 80.66452173 -82 74 C-81.67 74 -81.34 74 -81 74 C-80.84144531 74.89460938 -80.68289062 75.78921875 -80.51953125 76.7109375 C-78.8166224 85.53595684 -77.06012223 94.03890515 -70.4375 100.5 C-69.633125 100.995 -68.82875 101.49 -68 102 C-67.401875 102.4125 -66.80375 102.825 -66.1875 103.25 C-61.55988687 104.83661022 -57.39768586 104.47521319 -52.875 102.9375 C-43.85112653 96.85619397 -39.97889007 87.26271405 -37.87109375 76.8515625 C-36.85850193 70.91880011 -36.73510194 65.13108907 -36.8125 59.125 C-36.81894531 58.08085938 -36.82539062 57.03671875 -36.83203125 55.9609375 C-36.90521209 48.60626336 -37.19987173 41.31545844 -38 34 C-35.24182532 36.63851417 -33.0018118 39.31840639 -30.8125 42.4375 C-26.66805179 47.78119279 -22.22831138 51.34212074 -15.4140625 52.40234375 C-10.26491317 52.59563014 -6.25714563 52.09610592 -2 49 C4.14722561 42.30602596 6.39352258 35.98502449 6.375 26.875 C6.37483887 26.13016357 6.37467773 25.38532715 6.37451172 24.61791992 C6.2368685 17.88137102 4.54729849 12.21949888 2 6 C1.3214114 4.00401354 0.65167703 2.00493429 0 0 Z " fill="#324E6C" transform="translate(120,1)"/>
<path d="M0 0 C2.64035501 1.17191849 4.64490735 2.93406681 6.82177734 4.80859375 C5.62379906 8.40252861 4.66950943 8.86729522 1.57958984 10.92578125 C0.23985107 11.82768188 0.23985107 11.82768188 -1.12695312 12.74780273 C-2.57545654 13.70601929 -2.57545654 13.70601929 -4.05322266 14.68359375 C-6.05340725 16.02576662 -8.0534035 17.36822019 -10.05322266 18.7109375 C-11.07029297 19.3901123 -12.08736328 20.06928711 -13.13525391 20.76904297 C-17.79785665 23.89415395 -22.42547571 27.06969953 -27.05322266 30.24609375 C-28.63382476 31.3283106 -30.21454124 32.41036044 -31.79541016 33.4921875 C-32.92303341 34.26429504 -34.05064568 35.03641862 -35.17822266 35.80859375 C-25.97070195 32.20196122 -16.79705909 28.53377113 -7.72119141 24.60546875 C-6.77570938 24.19672516 -6.77570938 24.19672516 -5.81112671 23.77972412 C-2.66587573 22.41823642 0.47581222 21.04911003 3.61376953 19.67089844 C4.76651367 19.16977539 5.91925781 18.66865234 7.10693359 18.15234375 C8.1369751 17.70052734 9.1670166 17.24871094 10.22827148 16.78320312 C12.82177734 15.80859375 12.82177734 15.80859375 15.82177734 15.80859375 C19.2654818 22.72229048 21.70845716 29.14828619 22.82177734 36.80859375 C22.14373047 36.66421875 21.46568359 36.51984375 20.76708984 36.37109375 C8.69268514 33.96290223 -2.61882878 33.66817484 -13.55322266 40.18359375 C-16.80766755 42.40192966 -19.53699007 44.87389088 -22.17822266 47.80859375 C-22.85884766 48.55109375 -23.53947266 49.29359375 -24.24072266 50.05859375 C-28.21896154 55.70512636 -30.16147217 60.81453833 -30.67431641 67.70703125 C-31.24109334 71.24316768 -31.60650889 73.20749215 -34.09228516 75.82104492 C-36.69242456 77.55368612 -39.31764985 78.98076748 -42.11572266 80.37109375 C-44.11210388 81.44738361 -46.10819202 82.52421725 -48.10400391 83.6015625 C-49.6211499 84.39312744 -49.6211499 84.39312744 -51.16894531 85.20068359 C-54.07776987 86.75492005 -56.90109185 88.40023915 -59.72119141 90.109375 C-60.57914307 90.62749756 -61.43709473 91.14562012 -62.32104492 91.67944336 C-63.94549195 92.66382598 -65.56719747 93.65275053 -67.18579102 94.64672852 C-68.28419312 95.29532837 -68.28419312 95.29532837 -69.40478516 95.95703125 C-70.03980957 96.34036621 -70.67483398 96.72370117 -71.32910156 97.11865234 C-73.6864662 97.99822885 -74.85410819 97.69353804 -77.17822266 96.80859375 C-78.92822266 95.24609375 -78.92822266 95.24609375 -80.17822266 93.80859375 C-78.64139249 89.3340134 -75.04793999 87.19870783 -71.36572266 84.55859375 C-69.93130804 83.50762986 -68.49776213 82.45547962 -67.06494141 81.40234375 C-66.28812012 80.83386719 -65.51129883 80.26539063 -64.7109375 79.6796875 C-59.99226394 76.19367303 -55.33924068 72.62110476 -50.67822266 69.05859375 C-48.85534589 67.66791645 -47.03243253 66.27728712 -45.20947266 64.88671875 C-43.86565605 63.86076432 -42.52187885 62.83475825 -41.17822266 61.80859375 C-50.19571731 65.88387419 -59.17115096 70.04765827 -68.140625 74.22729492 C-75.12735399 77.48211545 -82.12261435 80.70564343 -89.17822266 83.80859375 C-92.72749195 78.83961674 -95.05032048 73.90285835 -96.99072266 68.12109375 C-97.31882935 67.15901001 -97.31882935 67.15901001 -97.65356445 66.17749023 C-99.96308933 59.01842781 -99.96308933 59.01842781 -99.17822266 55.80859375 C-96.88572662 54.05250347 -94.83058546 52.77531553 -92.30322266 51.43359375 C-90.73137938 50.55509657 -89.15978045 49.67616209 -87.58837891 48.796875 C-86.72229004 48.32072754 -85.85620117 47.84458008 -84.96386719 47.35400391 C-80.94716818 45.12563364 -76.97796987 42.81757505 -73.00439453 40.51342773 C-69.66883437 38.57941167 -66.32847004 36.65393495 -62.98681641 34.73046875 C-57.48985492 31.56514751 -51.99637868 28.39385272 -46.50463867 25.21948242 C-43.30425576 23.37169023 -40.10067666 21.52952665 -36.89697266 19.6875 C-32.72687801 17.28745893 -28.56934807 14.86773945 -24.42288208 12.42723083 C-21.84635265 10.91313885 -19.26417433 9.40885324 -16.68109131 7.90597534 C-15.43747712 7.17923691 -14.19641846 6.44810617 -12.95806885 5.71243286 C-11.23860626 4.6915659 -9.50938887 3.68718326 -7.77978516 2.68359375 C-6.79316895 2.10351562 -5.80655273 1.5234375 -4.79003906 0.92578125 C-2.17822266 -0.19140625 -2.17822266 -0.19140625 0 0 Z " fill="#324E6C" transform="translate(99.17822265625,167.19140625)"/>
<path d="M0 0 C7.72177418 0.65753498 15.00396977 2.73905399 22.45703125 4.78125 C23.85076458 5.15901767 25.24462157 5.53632941 26.63859558 5.91320801 C30.28667981 6.90093557 33.93292752 7.89528468 37.57885742 8.89093018 C40.56021877 9.70388801 43.5428523 10.5121167 46.52556324 11.32010651 C50.08646731 12.28479453 53.64684162 13.251429 57.20703125 14.21875 C57.88450724 14.40280899 58.56198322 14.58686798 59.25998878 14.77650452 C61.17466496 15.29723593 63.08892923 15.81948117 65.00317383 16.34179688 C66.09157059 16.63856323 67.17996735 16.93532959 68.30134583 17.24108887 C70.21508831 17.77926841 72.11404062 18.37134687 74 19 C74.495 23.95 74.495 23.95 75 29 C65.41454186 28.34490585 56.03115456 26.9934127 46.5625 25.4375 C44.4124238 25.08499285 42.26216661 24.73393178 40.11106873 24.38771057 C38.17833515 24.07661026 36.24648585 23.76003064 34.31469727 23.44311523 C31.47500954 23.06350021 28.8543029 22.96552338 26 23 C26.57407089 23.18934616 27.14814178 23.37869232 27.73960876 23.57377625 C33.70111265 25.54459842 39.65234044 27.54431842 45.59838867 29.5612793 C47.82015714 30.31064085 50.04445672 31.05254036 52.27124023 31.78686523 C55.46769465 32.84238559 58.65415017 33.92421833 61.83984375 35.01171875 C62.84087631 35.33589279 63.84190887 35.66006683 64.87327576 35.99406433 C65.79415482 36.31401871 66.71503387 36.63397308 67.66381836 36.96362305 C68.88626503 37.37332588 68.88626503 37.37332588 70.13340759 37.79130554 C72 39 72 39 72.83351135 41.56477356 C72.91592323 42.77021065 72.91592323 42.77021065 73 44 C72.67 44.33 72.34 44.66 72 45 C69.48622801 44.93288473 67.00665691 44.80269333 64.5 44.625 C62.9596457 44.52458167 61.41928078 44.42432628 59.87890625 44.32421875 C59.07984863 44.27056152 58.28079102 44.2169043 57.45751953 44.16162109 C53.4521354 43.89820322 49.44480393 43.66947071 45.4375 43.4375 C42.983125 43.293125 40.52875 43.14875 38 43 C52.85 48.94 52.85 48.94 68 55 C66.31482096 59.2129476 64.56523798 62.32315889 62 66 C55.64217515 65.37394888 49.73973048 63.99421763 43.59375 62.27734375 C42.6284436 62.01240616 41.66313721 61.74746857 40.6685791 61.47450256 C37.61092784 60.63402638 34.55546326 59.78589195 31.5 58.9375 C29.41680681 58.36342352 27.33347477 57.78985059 25.25 57.21679688 C20.16504605 55.81701924 15.08186123 54.4109619 10 53 C10.01178284 52.3705397 10.02356567 51.74107941 10.03570557 51.09254456 C10.08280791 48.20888429 10.11185109 45.32530532 10.140625 42.44140625 C10.15947754 41.4512854 10.17833008 40.46116455 10.19775391 39.44104004 C10.26333678 30.66933038 8.95857326 23.38062703 2.875 16.6484375 C0.45856652 13.2352252 0.4049511 10.83244196 0.25 6.6875 C0.19328125 5.43324219 0.1365625 4.17898437 0.078125 2.88671875 C0.05234375 1.93410156 0.0265625 0.98148438 0 0 Z " fill="#324E6C" transform="translate(133,200)"/>
<path d="M0 0 C5.71285468 4.34325021 8.96888092 10.36588248 10.59375 17.30078125 C11.7833188 26.09265181 10.08008887 33.44955545 4.890625 40.671875 C-0.53263443 46.62068741 -8.02327503 50.07319735 -16.00390625 50.75 C-23.95255309 50.97469673 -31.11574061 48.1639991 -37.0859375 42.921875 C-43.86609583 35.67067409 -45.66207055 28.86726803 -45.421875 19.0078125 C-44.46707562 11.56573138 -40.75233694 5.51699131 -35.00390625 0.75 C-23.84999916 -7.55610102 -11.64429475 -7.2634977 0 0 Z M-19.00390625 1.75 C-18.60558594 2.26949219 -18.20726563 2.78898438 -17.796875 3.32421875 C-16.18006183 5.45243268 -14.59126938 7.59977086 -13.00390625 9.75 C-12.40578125 10.53375 -11.80765625 11.3175 -11.19140625 12.125 C-8.81460004 17.37899268 -8.22124397 23.26358942 -9.94140625 28.8125 C-12.1555414 33.91963249 -16.16581289 37.81162391 -20.00390625 41.75 C-16.44977301 43.52706662 -12.65565628 41.88924748 -9.00390625 40.75 C-3.30246685 37.73791881 -0.04764495 33.88121611 1.99609375 27.75 C2.67373332 19.88938103 0.36160215 14.55170992 -3.75390625 7.9375 C-7.4170331 4.37612667 -11.57788728 1.84291136 -16.7578125 1.64453125 C-17.49902344 1.67933594 -18.24023438 1.71414062 -19.00390625 1.75 Z M-31.00390625 10.75 C-34.42784065 14.54200734 -36.30656912 18.2388861 -36.56640625 23.375 C-36.27768579 27.78178603 -35.0545366 30.46470578 -32.00390625 33.75 C-27.97120623 35.91037501 -25.5954398 36.75 -21.00390625 36.75 C-22.16501106 34.2342729 -23.41615165 32.18784718 -25.06640625 29.9375 C-27.28643419 26.28519596 -27.92906984 24.01567556 -28.00390625 19.75 C-26.3132036 14.39610828 -23.69714811 10.84251125 -20.00390625 6.75 C-24.65836339 6.75 -27.42957964 7.9176653 -31.00390625 10.75 Z " fill="#324E6C" transform="translate(123.00390625,217.25)"/>
<path d="" fill="#324E6C" transform="translate(0,0)"/>
<path d="" fill="#324E6C" transform="translate(0,0)"/>
</svg>
