<?xml version="1.0" encoding="UTF-8" standalone="no"?>
<svg
   version="1.1"
   id="svg2"
   width="240"
   height="240"
   viewBox="0 0 240 240"
   sodipodi:docname="ccug-alchemancer.svg"
   inkscape:version="1.2.2 (b0a8486541, 2022-12-01)"
   xmlns:inkscape="http://www.inkscape.org/namespaces/inkscape"
   xmlns:sodipodi="http://sodipodi.sourceforge.net/DTD/sodipodi-0.dtd"
   xmlns="http://www.w3.org/2000/svg"
   xmlns:svg="http://www.w3.org/2000/svg">
  <sodipodi:namedview
     id="namedview644"
     pagecolor="#ffffff"
     bordercolor="#000000"
     borderopacity="0.25"
     inkscape:showpageshadow="2"
     inkscape:pageopacity="0.0"
     inkscape:pagecheckerboard="0"
     inkscape:deskcolor="#d1d1d1"
     showgrid="false"
     inkscape:zoom="3.2708333"
     inkscape:cx="120"
     inkscape:cy="120.30573"
     inkscape:window-width="1854"
     inkscape:window-height="1043"
     inkscape:window-x="0"
     inkscape:window-y="0"
     inkscape:window-maximized="1"
     inkscape:current-layer="g8" />
  <defs
     id="defs6">
    <filter
       id="colorize"
       x="-0.1"
       y="-0.1"
       width="1.2"
       height="1.2">
      <feColorMatrix
         type="saturate"
         values="0"
         result="gray"
         id="feColorMatrix635" />
      <feColorMatrix
         in="gray"
         type="matrix"
         values="0 0 0 0 0.24705882352941178 0 0 0 0 0.8313725490196079 0 0 0 0 0.6078431372549019 0 0 0 1 0"
         id="feColorMatrix637" />
    </filter>
  </defs>
  <g
     id="g8"
     filter="url(#colorize)"
     transform="translate(1.2229299,-0.30573248)">
    <path
       style="fill:#000000"
       d="M 88.364579,227.67421 C 83.897978,225.40589 61.648155,206.31587 34.133593,181.14482 15.46706,164.06819 11.600107,159.9017 9.0343367,154.10135 c -1.873919,-4.23631 -1.884556,-4.62272 -0.26175,-9.50853 1.8293563,-5.50767 7.1195563,-12.08614 11.5700483,-14.38758 1.528977,-0.79066 19.314487,-6.41843 39.523356,-12.50615 20.208869,-6.08772 37.441707,-11.45448 38.295197,-11.92612 2.205662,-1.21888 12.593232,-12.107683 20.510942,-21.500677 3.70893,-4.4 8.50293,-11.4875 10.65334,-15.75 2.86664,-5.682197 4.43035,-7.75 5.86071,-7.75 3.98583,0 39.72299,32.383286 38.81214,35.169694 -0.23917,0.731668 -3.31486,2.905306 -6.83487,4.830303 -9.59533,5.24744 -27.75029,24.75123 -33.37895,35.85887 -1.52305,3.00559 -4.72207,15.97237 -9.04096,36.64628 -7.66798,36.70552 -8.58017,40.19742 -12.04548,46.11053 -5.00601,8.5421 -16.274002,12.37917 -24.333481,8.28624 z M 102.27738,120.2514 c 8.74001,-2.47456 15.85315,-3.77329 23.9356,-4.37019 l 11.5,-0.84928 10.5,-10.67464 c 5.775,-5.871043 10.59619,-11.216961 10.71376,-11.879813 0.22805,-1.285756 -17.73638,-17.010645 -19.98105,-17.490107 -0.73365,-0.156708 -4.91114,4.31176 -9.28331,9.92993 -4.37217,5.618169 -12.2244,14.539216 -17.4494,19.82455 l -9.5,9.60969 -12.000002,3.82453 c -6.6,2.1035 -12.4275,4.22317 -12.95,4.71038 -0.558757,0.52102 1.73286,0.88584 5.564405,0.88584 4.431103,0 10.491299,-1.12598 18.949997,-3.52089 z m 81.17646,-39.414299 c -12.12536,-7.613938 -8.20631,-25.496927 5.88436,-26.850862 9.59485,-0.921944 15.87478,4.890404 15.87478,14.692811 0,4.61497 -0.4126,5.613018 -3.83904,9.286345 -3.41896,3.665303 -4.43114,4.159568 -9.25,4.516946 -4.20928,0.31217 -6.13476,-0.05321 -8.6701,-1.64524 z M 149.71298,68.210365 c -4.91101,-2.482331 -7,-6.194195 -7,-12.438072 0,-6.403884 2.12699,-10.02419 7.39157,-12.58102 12.06987,-5.861937 25.0378,7.983938 18.11383,19.34016 -3.98674,6.538774 -11.96219,8.986279 -18.5054,5.678932 z m 48,-18.85543 c -3.94428,-1.760564 -8.01884,-6.184767 -9.94695,-10.800523 -6.52126,-15.611399 11.15195,-31.5850455 26.361,-23.825969 6.31062,3.219442 11.0748,10.551388 11.0748,17.04385 0,6.482621 -5.75344,15.168039 -11.69111,17.648956 -4.09042,1.709086 -11.8936,1.676331 -15.79774,-0.06631 z"
       id="path763" />
  </g>
</svg>
