<?xml version="1.0" encoding="UTF-8" standalone="no"?>
<svg
   version="1.1"
   id="svg2"
   width="192"
   height="192"
   viewBox="0 0 192 192"
   sodipodi:docname="ccug-woebound.svg"
   inkscape:version="1.2.2 (b0a8486541, 2022-12-01)"
   xmlns:inkscape="http://www.inkscape.org/namespaces/inkscape"
   xmlns:sodipodi="http://sodipodi.sourceforge.net/DTD/sodipodi-0.dtd"
   xmlns="http://www.w3.org/2000/svg"
   xmlns:svg="http://www.w3.org/2000/svg">
  <sodipodi:namedview
     id="namedview1934"
     pagecolor="#ffffff"
     bordercolor="#000000"
     borderopacity="0.25"
     inkscape:showpageshadow="2"
     inkscape:pageopacity="0.0"
     inkscape:pagecheckerboard="0"
     inkscape:deskcolor="#d1d1d1"
     showgrid="false"
     inkscape:zoom="1.4638154"
     inkscape:cx="157.80678"
     inkscape:cy="85.051708"
     inkscape:window-width="1854"
     inkscape:window-height="1011"
     inkscape:window-x="0"
     inkscape:window-y="0"
     inkscape:window-maximized="1"
     inkscape:current-layer="g8" />
  <defs
     id="defs6">
    <filter
       id="colorize"
       x="0"
       y="0"
       width="1"
       height="1">
      <feColorMatrix
         type="saturate"
         values="0"
         result="gray"
         id="feColorMatrix1925" />
      <feColorMatrix
         in="gray"
         type="matrix"
         values="0 0 0 0 0.6941176470588235 0 0 0 0 0.5529411764705883 0 0 0 0 0.7411764705882353 0 0 0 1 0"
         id="feColorMatrix1927" />
    </filter>
  </defs>
  <g
     id="g8"
     filter="url(#colorize)">
    <path
       style="fill:#000000;stroke-width:0.758411"
       d="m 89.372441,184.73667 c -0.475653,-0.88875 -0.785093,-8.31551 -0.785093,-18.84272 0,-19.52268 0.10059,-19.8861 5.504025,-19.8861 5.045625,0 5.113731,0.27144 5.113731,20.3796 0,12.98568 -0.253385,18.24939 -0.910093,18.90611 -0.500552,0.50054 -2.536256,0.91009 -4.523786,0.91009 -2.796542,0 -3.791214,-0.33171 -4.398784,-1.46698 z M 34.698181,154.8899 c 3.487777,-5.741 8.746763,-16.06559 11.067705,-21.72844 l 1.690514,-4.12468 1.620611,3.17666 c 0.891335,1.74716 1.92857,3.17666 2.304966,3.17666 0.708022,0 7.627339,-7.77979 7.627339,-8.57587 0,-0.24696 -1.001878,-1.93353 -2.226396,-3.74792 -2.799367,-4.14787 -5.20654,-10.20955 -6.394995,-16.10371 l -0.920126,-4.56338 -6.637144,-0.66348 c -3.650429,-0.36491 -6.826252,-0.47436 -7.057383,-0.24324 -0.231132,0.23113 0.07576,2.11228 0.681992,4.18031 l 1.10223,3.76007 -3.494297,-1.7459 C 30.150675,105.73209 21.825347,102.96551 11.608623,100.2251 7.8544885,99.218131 5.294851,98.212463 5.9205401,97.990272 6.5462293,97.76808 10.982934,96.500101 15.779884,95.17254 c 4.79695,-1.327561 11.571025,-3.559027 15.0535,-4.958811 l 6.331772,-2.545068 -0.454086,1.866799 c -0.249748,1.026736 -0.675097,2.773274 -0.945221,3.881191 l -0.491133,2.014408 6.15905,-0.513649 c 3.387478,-0.282501 6.622498,-0.691481 7.188933,-0.90885 0.566434,-0.217361 1.419944,-2.513799 1.896685,-5.103204 2.909022,-15.800218 16.835573,-30.521322 32.680698,-34.545238 2.988533,-0.758947 5.756696,-1.702901 6.151472,-2.097675 0.394776,-0.394774 0.946603,-3.694792 1.226282,-7.333372 0.48888,-6.360075 0.447516,-6.6156 -1.070815,-6.6156 -0.868638,0 -2.502105,0.350834 -3.629923,0.779629 -2.770695,1.053418 -2.958174,0.625819 -1.224045,-2.791766 1.832033,-3.610529 5.580541,-15.365722 7.396465,-23.195105 0.748529,-3.2272666 1.47015,-5.7585633 1.603614,-5.6251032 0.133459,0.13346 1.746629,5.4038612 3.584813,11.7120022 1.838191,6.30814 4.232205,13.413432 5.320015,15.789538 1.08781,2.376105 1.84963,4.448413 1.69291,4.605128 -0.15672,0.156717 -1.20769,-0.0659 -2.33552,-0.494694 -1.12781,-0.428795 -2.761014,-0.779629 -3.629319,-0.779629 -1.499045,0 -1.554114,0.277552 -1.091073,5.49848 0.758987,8.557837 0.721992,8.498434 5.967652,9.581908 6.50125,1.342813 12.11944,3.573245 16.60653,6.592832 2.12164,1.427765 4.00851,2.595936 4.19302,2.595936 0.92319,0 7.77229,-7.103757 7.41168,-7.687243 -0.23011,-0.372326 -1.8422,-1.403331 -3.58243,-2.291122 l -3.16401,-1.614168 3.07038,-0.906574 c 3.70387,-1.093623 17.33801,-7.941404 22.97251,-11.537987 2.23546,-1.426938 4.22049,-2.438424 4.41118,-2.247749 0.19067,0.190676 -1.36373,3.38081 -3.45422,7.08919 -3.36301,5.96575 -8.2891,16.010578 -10.52956,21.470886 -0.73777,1.798072 -0.80808,1.817663 -1.36079,0.379206 -0.32056,-0.834252 -1.26254,-2.496691 -2.0933,-3.694311 -1.70101,-2.452193 -1.01915,-2.850025 -6.06573,3.539093 l -2.13492,2.702891 2.7875,4.035041 c 3.72814,5.396644 6.26856,11.281918 7.36511,17.062384 0.49698,2.619901 1.36748,4.941465 1.93444,5.159023 0.56695,0.217558 3.90334,0.616361 7.41417,0.886226 6.11904,0.470352 6.38336,0.425272 6.38336,-1.088668 0,-0.868638 -0.35084,-2.502105 -0.77964,-3.629923 -1.05239,-2.767981 -0.62776,-2.956507 2.79176,-1.239471 3.8278,1.922042 13.27948,5.015426 22.25703,7.284379 l 7.2049,1.820945 -4.55047,1.269026 c -10.5351,2.938019 -19.79849,5.932069 -23.72243,7.667429 -2.30599,1.01982 -4.32046,1.72649 -4.47657,1.57038 -0.15612,-0.15612 0.067,-1.20661 0.49578,-2.33443 0.4288,-1.12782 0.77964,-2.75103 0.77964,-3.60714 0,-1.48261 -0.27783,-1.53052 -5.84843,-1.00851 -7.24573,0.67898 -9.3198,1.42768 -9.3198,3.3643 0,3.48213 -3.97246,13.69602 -7.19629,18.50294 l -3.44807,5.14126 3.14981,3.73548 c 1.73238,2.05451 3.44968,3.55014 3.81619,3.32363 0.36652,-0.22652 1.35102,-1.75384 2.18779,-3.39404 0.83677,-1.64021 1.65864,-2.98218 1.82637,-2.98218 0.16774,0 0.71396,1.27981 1.21382,2.84404 1.18115,3.6962 6.4382,14.18979 10.83143,21.62063 1.90932,3.22947 3.29174,5.87177 3.07205,5.87177 -0.21969,0 -2.70652,-1.34741 -5.52628,-2.99425 -6.75397,-3.94452 -22.01026,-11.41556 -23.31124,-11.41556 -1.98398,0 -0.99255,-1.30128 2.02981,-2.66416 1.68038,-0.75774 2.93836,-1.72828 2.79555,-2.15672 -0.14282,-0.42845 -1.83509,-2.11432 -3.7606,-3.74636 l -3.50094,-2.96731 -4.54973,2.80824 c -5.42873,3.35082 -12.9457,6.19045 -18.24959,6.89403 l -3.851098,0.51087 v -3.09699 c 0,-2.99883 0.09014,-3.11023 2.844038,-3.51492 4.8317,-0.71004 12.53425,-3.46533 16.20263,-5.7959 4.78297,-3.03864 11.47063,-10.20904 13.78921,-14.78451 3.51035,-6.92735 4.52415,-11.88692 4.15211,-20.312455 C 134.12015,83.82881 129.1496,74.128537 119.47004,66.747587 105.6353,56.198198 87.831797,56.27741 73.175238,66.953566 c -3.141845,2.288586 -9.615456,9.686574 -9.615456,10.988458 0,0.237902 2.230903,-1.063433 4.957561,-2.891858 2.726659,-1.828424 6.736758,-3.863194 8.911331,-4.521711 17.532664,-5.309346 37.116736,2.1041 44.166716,16.719074 1.88199,3.901488 2.18752,5.433152 2.19036,10.980421 0.004,7.9629 -1.59734,11.89417 -7.30247,17.92649 -6.15526,6.50829 -12.85135,9.87648 -21.449437,10.78927 l -4.550467,0.48308 -0.21526,8.15292 c -0.118395,4.4841 -0.459681,8.14787 -0.75841,8.1417 -0.298731,-0.005 -2.682721,-0.51565 -5.297752,-1.1322 -5.261379,-1.24049 -11.006955,-3.92145 -15.90122,-7.41973 -3.70721,-2.64981 -4.374789,-2.50485 -9.337861,2.0277 l -3.224396,2.94469 1.820022,1.40364 c 1.001012,0.772 2.417271,1.60292 3.147242,1.84648 2.153264,0.71846 1.539652,1.55384 -1.896027,2.58124 -4.019291,1.20192 -8.668817,3.52614 -18.46178,9.22875 -4.209931,2.45149 -7.857555,4.45728 -8.105828,4.45728 -0.248275,0 0.852459,-2.14622 2.446075,-4.76936 z"
       id="path2637" />
  </g>
</svg>
