<svg xmlns="http://www.w3.org/2000/svg" width="366" height="324"><path fill="#36A2D0" d="M167 0c2.6 3.1 4 6.2 5.5 10l1.4 3.6.7 1.9 3.7 9.5 1.4 3.7c2 5 4 10 6.3 15 1 2.3 1 2.3 2 5.3l11.6 1 3.3.3 3.3.3 3 .2c2.9.2 5.8.2 8.8.2l2-3.5c14-25.8 14-25.8 19-30.5 2.6 7 5 14 7.2 21.3a45.4 45.4 0 0 0 11 22.5 40 40 0 0 0 14.8 4c2 .2 2 .2 4.8 1 3 .3 4.3-.7 6.8-2.4 3.7-2.3 7.4-4.6 11.2-6.6l2.7-1.5c2.4-1.3 5-2.3 7.5-3.3l-2 26 3.1 2c24.4 14.8 45.5 34.3 54.9 62l.8 2.4a101.6 101.6 0 0 1 4.5 35.7c-.1 9.3-1.1 18-3.3 26.9l-.5 2.2A213.8 213.8 0 0 1 350 246c-2.9-1.4-2.8-3-3.9-6a148 148 0 0 0-26-47.5A66.6 66.6 0 0 0 278 166c-3.7-.3-7.3-.3-11-.3h-3c-15 .2-28.2 4-42 9.3l-3.8 1.4c-7.3 2.8-14.1 6-21 9.5-5 2.5-10 4.9-15.2 7.1-5.7 2.5-11.3 5.1-16.9 8a508.4 508.4 0 0 1-30.6 14.2 226.5 226.5 0 0 1-28 10.6A243.3 243.3 0 0 1 65 236l-3.2.5c-17.9 3-17.9 3-24 0A38.5 38.5 0 0 1 32 228a251.4 251.4 0 0 1-10-15l-1.3-2A121.6 121.6 0 0 1 0 154l-.2-2A65.8 65.8 0 0 1 8 118l1.4-2.5a96 96 0 0 1 39.7-37 189 189 0 0 1 4-2.2c6.2-3.6 7.6-8 9.4-14.6l1.7-6.3c2.9-11 6-22 9.1-33A456 456 0 0 0 78 5c5.4 5.2 9.8 11 14.3 17a3236 3236 0 0 0 15.3 20.4l2.1 2.8a712601374.7 712601374.7 0 0 1 3.8 4.9c1.5 2 1.5 2 3.5 3.9 2.6-.2 2.6-.2 5.6-.9 5-.9 9.4-1.3 14.4-1.1l.8-2.2a64 64 0 0 1 4.3-8.2l1.9-3.2 9.7-16.2 7.9-13.1 3-5.3 1.4-2.2 1-1.6Z"/><path fill="#36A2D0" d="M170 214a130.7 130.7 0 0 1 28 28.5c16.6 21.4 16.6 21.4 41 31.8 15 1.4 27.5-3.4 40.3-10.8a21 21 0 0 1 6.7-2.5 82.1 82.1 0 0 1-11 35l-1.3 2.2a52.7 52.7 0 0 1-33.8 23 81.3 81.3 0 0 1-34 1.6l-2.5-.5A187.7 187.7 0 0 1 165 311l-3.7-1.4a138.6 138.6 0 0 1-26.8-14.8A205.8 205.8 0 0 1 82 249v-2l2.4-.7a6611.2 6611.2 0 0 0 14.6-4.1c11-3.1 21.7-6.5 32.2-10.8l2.5-1a872 872 0 0 0 21.9-9.3l3.3-1.4 3-1.4 2.8-1.2c2.5-1.1 2.5-1.1 5.3-3.1Z"/></svg>