<?xml version="1.0" encoding="UTF-8" standalone="no"?>
<svg
   version="1.1"
   id="svg2"
   width="192"
   height="189.60001"
   viewBox="0 0 192 189.60001"
   sodipodi:docname="ccug-woebound.svg"
   inkscape:version="1.2.2 (b0a8486541, 2022-12-01)"
   xmlns:inkscape="http://www.inkscape.org/namespaces/inkscape"
   xmlns:sodipodi="http://sodipodi.sourceforge.net/DTD/sodipodi-0.dtd"
   xmlns="http://www.w3.org/2000/svg"
   xmlns:svg="http://www.w3.org/2000/svg">
  <sodipodi:namedview
     id="namedview1934"
     pagecolor="#ffffff"
     bordercolor="#000000"
     borderopacity="0.25"
     inkscape:showpageshadow="2"
     inkscape:pageopacity="0.0"
     inkscape:pagecheckerboard="0"
     inkscape:deskcolor="#d1d1d1"
     showgrid="false"
     inkscape:zoom="1.4638154"
     inkscape:cx="165.66296"
     inkscape:cy="84.368561"
     inkscape:window-width="1854"
     inkscape:window-height="1011"
     inkscape:window-x="0"
     inkscape:window-y="0"
     inkscape:window-maximized="1"
     inkscape:current-layer="g8" />
  <defs
     id="defs6">
    <filter
       id="colorize"
       x="-0.1"
       y="-0.1"
       width="1.2"
       height="1.2">
      <feColorMatrix
         type="saturate"
         values="0"
         result="gray"
         id="feColorMatrix1925" />
      <feColorMatrix
         in="gray"
         type="matrix"
         values="0 0 0 0 0.6941176470588235 0 0 0 0 0.5529411764705883 0 0 0 0 0.7411764705882353 0 0 0 1 0"
         id="feColorMatrix1927" />
    </filter>
  </defs>
  <g
     id="g8"
     filter="url(#colorize)">
    <path
       style="fill:#000000;stroke-width:0.8"
       d="M 89.628144,188.0526 C 89.126408,187.1151 88.8,179.28109 88.8,168.17659 c 0,-20.59324 0.106104,-20.97658 5.805848,-20.97658 5.322312,0 5.394152,0.28631 5.394152,21.49714 0,13.69778 -0.26728,19.25014 -0.96,19.94286 -0.528,0.528 -2.675336,0.96 -4.771856,0.96 -2.949896,0 -3.999112,-0.3499 -4.64,-1.54741 z M 31.955718,156.56912 c 3.679036,-6.05582 9.226408,-16.94658 11.674624,-22.91997 l 1.783216,-4.35086 1.70948,3.35086 c 0.940214,1.84297 2.034328,3.35086 2.431363,3.35086 0.746848,0 8.045599,-8.20642 8.045599,-9.04615 0,-0.2605 -1.056818,-2.03955 -2.348485,-3.95344 -2.952875,-4.37533 -5.49205,-10.76941 -6.745676,-16.98679 l -0.970584,-4.81362 -7.001104,-0.69986 c -3.850607,-0.38492 -7.200582,-0.500377 -7.444388,-0.25658 -0.243806,0.24381 0.07992,2.22811 0.71939,4.40955 l 1.162674,3.96625 -3.685913,-1.84164 C 27.158841,104.71565 18.376977,101.79736 7.6,98.906669 c -3.96,-1.062184 -6.66,-2.123 -6,-2.357376 0.66,-0.234376 5.34,-1.571888 10.4,-2.972248 5.06,-1.40036 12.205544,-3.754192 15.878987,-5.230736 l 6.678987,-2.684632 -0.478987,1.969168 c -0.263443,1.08304 -0.712117,2.925352 -0.997053,4.094024 l -0.518066,2.124872 6.496794,-0.541816 c 3.573236,-0.297992 6.985654,-0.7294 7.583151,-0.958688 0.597496,-0.22928 1.497809,-2.651648 2.000694,-5.383048 3.068543,-16.666653 17.758783,-32.195017 34.472805,-36.439592 3.152416,-0.800565 6.072376,-1.796282 6.4888,-2.212705 0.416424,-0.416422 0.998512,-3.897402 1.293528,-7.735511 0.515688,-6.708842 0.472056,-6.978379 -1.129536,-6.978379 -0.916272,0 -2.639312,0.370072 -3.828976,0.822382 -2.922632,1.111183 -3.120392,0.660137 -1.291168,-2.944858 1.932496,-3.80852 5.88656,-16.208331 7.802064,-24.467053 0.789576,-3.4042402 1.550768,-6.07434527 1.691552,-5.9335667 0.140776,0.1407786 1.842408,5.7001918 3.781392,12.3542517 1.938992,6.65406 4.464282,14.148984 5.611752,16.655388 1.14746,2.506404 1.95106,4.69235 1.78574,4.857659 -0.16531,0.16531 -1.27392,-0.06951 -2.46359,-0.521821 -1.18966,-0.45231 -2.912422,-0.822382 -3.828342,-0.822382 -1.581248,0 -1.639336,0.292771 -1.150904,5.8 0.800608,9.027121 0.761584,8.964461 6.294896,10.107349 6.85777,1.416449 12.78404,3.769191 17.51718,6.954363 2.238,1.506059 4.22833,2.738289 4.42296,2.738289 0.97381,0 8.19849,-7.493305 7.81811,-8.108788 -0.24273,-0.392742 -1.94322,-1.480284 -3.77887,-2.41676 l -3.33753,-1.702684 3.23875,-0.956288 c 3.90698,-1.153593 18.28879,-8.376885 24.23226,-12.170694 2.35805,-1.505186 4.45193,-2.572139 4.65307,-2.371008 0.20113,0.201131 -1.43851,3.566203 -3.64363,7.477939 -3.54743,6.292893 -8.74365,16.888549 -11.10697,22.648283 -0.77823,1.896672 -0.85239,1.917337 -1.43542,0.4 -0.33813,-0.88 -1.33177,-2.633602 -2.20808,-3.896895 -1.79429,-2.586664 -1.07505,-3.006312 -6.39835,3.733165 l -2.252,2.85111 2.94036,4.25631 c 3.93258,5.692579 6.6123,11.900583 7.76898,17.998032 0.52424,2.763568 1.44248,5.21244 2.04052,5.441928 0.59805,0.229488 4.11739,0.65016 7.82075,0.934824 6.45459,0.496144 6.73339,0.448592 6.73339,-1.148368 0,-0.916272 -0.37007,-2.639312 -0.82238,-3.828976 -1.1101,-2.919768 -0.66219,-3.118633 2.94485,-1.30744 4.03771,2.02744 14.00768,5.290456 23.47753,7.683832 l 7.6,1.9208 -4.8,1.338616 c -11.11282,3.099129 -20.88418,6.257359 -25.0233,8.087879 -2.43245,1.07575 -4.55738,1.82117 -4.72205,1.6565 -0.16468,-0.16468 0.0706,-1.27278 0.52297,-2.46244 0.45231,-1.18967 0.82238,-2.90189 0.82238,-3.80495 0,-1.563909 -0.29306,-1.614445 -6.16914,-1.06381 -7.64306,0.71621 -9.83086,1.50597 -9.83086,3.54879 0,3.67307 -4.19029,14.44706 -7.59091,19.51758 l -3.63715,5.42319 3.32253,3.94032 c 1.82739,2.16718 3.63885,3.74482 4.02546,3.50589 0.38661,-0.23895 1.42511,-1.85002 2.30776,-3.58016 0.88265,-1.73015 1.74959,-3.14572 1.92653,-3.14572 0.17693,0 0.7531,1.35 1.28037,3 1.24593,3.89889 6.79126,14.96792 11.4254,22.80625 2.01402,3.40656 3.47224,6.19375 3.24051,6.19375 -0.23174,0 -2.85494,-1.4213 -5.82933,-3.15844 -7.12433,-4.16083 -23.21723,-12.04156 -24.58955,-12.04156 -2.09277,0 -1.04698,-1.37263 2.14112,-2.81026 1.77252,-0.79929 3.09949,-1.82304 2.94884,-2.27498 -0.15064,-0.45195 -1.93572,-2.23026 -3.96682,-3.95179 l -3.69291,-3.13004 -4.79923,2.96224 c -5.72642,3.53456 -13.6556,6.52991 -19.25034,7.27208 L 98.4,145.00614 v -3.26682 c 0,-3.16327 0.09508,-3.28078 3,-3.70767 5.09666,-0.74897 13.22158,-3.65535 17.09114,-6.11372 5.04524,-3.20528 12.09964,-10.76888 14.54535,-15.59525 3.70285,-7.30723 4.77225,-12.53876 4.37981,-21.426323 -0.58662,-13.285097 -5.82974,-23.517303 -16.0401,-31.303 C 106.78281,52.465471 88.003016,52.549027 72.542737,63.81063 69.228603,66.224716 62.4,74.028386 62.4,75.401662 c 0,0.250948 2.353238,-1.121749 5.229418,-3.050438 2.87618,-1.92869 7.10618,-4.07504 9.4,-4.769668 18.494102,-5.600495 39.152102,2.219481 46.588682,17.635896 1.9852,4.115433 2.30748,5.731089 2.31048,11.582553 0.004,8.399555 -1.68494,12.546405 -7.70292,18.909525 -6.4928,6.86518 -13.55608,10.41807 -22.62566,11.38091 l -4.8,0.50957 -0.227064,8.6 c -0.124888,4.73 -0.484888,8.59468 -0.8,8.58817 -0.315112,-0.006 -2.829832,-0.54393 -5.588264,-1.19428 -5.549896,-1.30851 -11.610542,-4.13649 -16.773194,-7.82661 -3.910501,-2.79512 -4.614688,-2.64221 -9.84992,2.13889 l -3.401211,3.10617 1.919827,1.48061 c 1.055904,0.81434 2.549826,1.69082 3.319826,1.94774 2.271342,0.75786 1.624081,1.63904 -2,2.72278 -4.239695,1.26783 -9.144188,3.7195 -19.474166,9.73482 -4.440791,2.58594 -8.288438,4.70171 -8.550327,4.70171 -0.261889,0 0.899206,-2.26391 2.580211,-5.03089 z"
       id="path2637" />
  </g>
</svg>
