<?xml version="1.0" encoding="UTF-8" standalone="no"?>
<!-- Created with Inkscape (http://www.inkscape.org/) -->

<svg
   width="142mm"
   height="142mm"
   viewBox="0 0 142 141.99999"
   version="1.1"
   id="svg5"
   xml:space="preserve"
   inkscape:version="1.2.2 (b0a8486541, 2022-12-01)"
   sodipodi:docname="ccug-frostborn.svg"
   xmlns:inkscape="http://www.inkscape.org/namespaces/inkscape"
   xmlns:sodipodi="http://sodipodi.sourceforge.net/DTD/sodipodi-0.dtd"
   xmlns="http://www.w3.org/2000/svg"
   xmlns:svg="http://www.w3.org/2000/svg"><sodipodi:namedview
     id="namedview7"
     pagecolor="#ffffff"
     bordercolor="#000000"
     borderopacity="0.25"
     inkscape:showpageshadow="2"
     inkscape:pageopacity="0.0"
     inkscape:pagecheckerboard="0"
     inkscape:deskcolor="#d1d1d1"
     inkscape:document-units="mm"
     showgrid="false"
     inkscape:zoom="0.69931958"
     inkscape:cx="215.92417"
     inkscape:cy="313.87653"
     inkscape:window-width="1854"
     inkscape:window-height="1011"
     inkscape:window-x="0"
     inkscape:window-y="0"
     inkscape:window-maximized="1"
     inkscape:current-layer="layer1" /><defs
     id="defs2" /><g
     inkscape:label="Layer 1"
     inkscape:groupmode="layer"
     id="layer1"
     transform="translate(-39.274321,-66.246304)"><path
       style="fill:#79c7d1;fill-opacity:1;stroke-width:0.238243"
       d="m 112.04088,199.22478 c -1.10644,-2.08461 -1.7041,-3.72312 -3.31723,-9.09443 -2.18446,-7.27363 -1.99817,-5.99479 -2.45474,-16.85185 l -0.15263,-3.62932 1.41628,-1.09983 c 0.77895,-0.60492 1.48896,-1.11591 1.57781,-1.13555 0.37254,-0.0824 0.99291,2.29476 1.26526,4.84828 0.16073,1.50689 0.39739,3.70468 0.52593,4.88399 0.48916,4.48792 0.70711,6.50119 0.9285,8.57678 0.12578,1.1793 0.39644,3.69873 0.60145,5.59872 0.74807,6.93273 1.08141,10.32348 1.02087,10.38401 -0.034,0.034 -0.66922,-1.08231 -1.4115,-2.4808 z m 10.40729,-1.08502 c -2.79141,-2.15495 -3.15067,-2.28455 -6.34637,-2.28949 l -1.34173,-0.002 -0.16087,-2.08463 c -0.21589,-2.79747 -0.57114,-5.87224 -0.84642,-7.32599 -0.42423,-2.24035 -1.17342,-7.62156 -1.42628,-10.24448 -0.13895,-1.44137 -0.30545,-3.02272 -0.36999,-3.5141 -0.0699,-0.53166 -0.0177,-0.89341 0.12883,-0.89341 0.51114,0 2.16173,1.2862 2.63658,2.05451 0.27183,0.43983 1.29758,1.48789 2.27945,2.32903 1.90323,1.63043 2.54441,1.85669 6.27913,2.2158 0.72068,0.0693 1.94425,0.32807 2.71903,0.57504 1.53533,0.48942 5.38345,1.16415 6.63938,1.16415 0.59122,0 1.32395,0.38923 2.9478,1.56588 l 2.16102,1.56588 0.15466,2.66294 c 0.0851,1.46462 0.21957,3.47888 0.29893,4.47615 l 0.14426,1.81319 -1.9847,0.17313 -1.9847,0.17313 -4.52328,3.79108 c -2.48781,2.08517 -4.58962,3.79116 -4.67071,3.79116 -0.0811,0 -1.3114,-0.89857 -2.73402,-1.99682 z m -20.72873,-1.66607 c -2.096538,-0.81773 -4.465186,-1.78256 -5.26365,-2.14404 -1.40397,-0.63563 -1.460824,-0.69654 -1.727267,-1.85085 -0.151537,-0.65647 -0.275511,-1.37457 -0.275511,-1.59578 0,-0.2212 -0.530526,-1.05786 -1.178939,-1.85923 l -1.178948,-1.45703 0.774431,-0.92195 c 0.425939,-0.50708 2.096136,-2.60722 3.711541,-4.66697 3.399337,-4.3344 2.692836,-4.30989 5.363213,-0.18601 0.89092,1.37585 2.02948,2.87679 2.53012,3.33541 1.11974,1.02576 2.15551,3.50185 3.08941,7.38556 0.36236,1.50689 0.7333,2.97126 0.82431,3.25417 0.13673,0.42502 0.0205,0.58314 -0.66884,0.91028 -0.45887,0.21775 -1.02149,0.60274 -1.25026,0.85553 -0.22878,0.25279 -0.53335,0.45244 -0.67683,0.44366 -0.14348,-0.009 -1.97624,-0.68502 -4.07278,-1.50275 z m -12.142969,-10.4742 c -2.654298,-1.1545 -13.106804,-6.67278 -13.330503,-7.03769 -0.04988,-0.0814 -0.01432,-1.80977 0.07906,-3.8408 0.0934,-2.03102 0.09217,-3.85359 -0.0027,-4.05014 -0.09492,-0.19656 -1.016958,-1.3986 -2.048962,-2.67121 -1.136861,-1.40193 -2.049835,-2.79625 -2.316503,-3.53782 -0.367068,-1.02078 -0.648917,-1.35753 -1.697796,-2.02849 -0.691715,-0.44248 -1.497446,-1.14127 -1.790524,-1.55286 l -0.532867,-0.74834 1.882541,0.14241 c 1.035407,0.0783 3.329886,0.21105 5.098844,0.29494 3.625062,0.17191 3.786179,0.21419 5.668261,1.48738 0.747958,0.50598 4.045518,2.29607 7.327914,3.97795 l 5.967994,3.05799 0.392505,1.33185 c 0.345277,1.17156 0.580411,1.48243 1.953623,2.58284 l 1.561098,1.25099 v 1.67577 1.67576 l -3.360339,4.27334 c -1.848189,2.35034 -3.42953,4.26382 -3.5141,4.25218 -0.08455,-0.0116 -0.686448,-0.25286 -1.337517,-0.53605 z m 12.619459,-7.59973 c -2.414819,-3.41828 -2.673689,-3.8262 -4.217499,-6.64603 l -0.865277,-1.58045 2.229889,-2.73475 c 1.961707,-2.40587 2.366057,-2.77958 3.362227,-3.10753 0.90327,-0.29737 1.38095,-0.32287 2.36107,-0.12603 l 1.2287,0.24676 -0.75248,2.41615 c -0.73179,2.34971 -0.74442,2.4653 -0.45955,4.20298 0.38315,2.3372 0.37996,4.77992 -0.0103,7.86205 -0.17421,1.37584 -0.26997,2.58196 -0.21282,2.68023 0.0572,0.0983 0.0172,0.17427 -0.0888,0.16887 -0.10601,-0.005 -1.26485,-1.52742 -2.57518,-3.38225 z m 36.80865,1.61831 c -1.24482,-0.30332 -3.71065,-0.89286 -5.47961,-1.31006 -6.60496,-1.55777 -7.3281,-1.74321 -10.00623,-2.56592 -1.50689,-0.46291 -3.35769,-1.15233 -4.1129,-1.53203 -2.09868,-1.05517 -7.28898,-6.03487 -6.79988,-6.52397 0.0583,-0.0583 2.83225,0.27404 6.1645,0.73839 5.92493,0.82562 6.1217,0.87089 8.91754,2.05177 5.72643,2.41865 17.63493,7.63551 17.81841,7.80585 0.15493,0.14383 -3.77068,1.95336 -4.12836,1.90299 -0.0606,-0.008 -1.12864,-0.26368 -2.37347,-0.56702 z m 3.51193,-5.2524 c -0.66455,-0.58486 -3.44373,-1.53263 -10.18276,-3.47258 -1.89999,-0.54694 -3.49053,-1.02644 -3.53453,-1.06556 -0.044,-0.0391 1.2281,-0.84519 2.8269,-1.79127 l 2.9069,-1.72016 1.93798,0.19713 c 1.06588,0.10842 2.604,0.20376 3.41804,0.21187 1.46621,0.0146 1.49259,0.027 2.81693,1.32508 1.91893,1.88087 1.90284,1.82387 1.28479,4.54975 -0.29421,1.29763 -0.59837,2.35593 -0.67592,2.35178 -0.0775,-0.005 -0.4368,-0.26785 -0.79833,-0.58604 z m -72.721725,-5.13748 c -2.818305,-0.23613 -7.056006,-0.62622 -11.263604,-1.03681 -3.270448,-0.31915 -3.421966,-0.35781 -3.931017,-1.00314 -0.291205,-0.36915 -1.387141,-1.76172 -2.435407,-3.09458 -1.048275,-1.33286 -2.995802,-3.59195 -4.327844,-5.0202 l -2.421892,-2.59682 7.349876,0.9798 c 4.686772,0.62478 7.505491,1.10295 7.779363,1.31969 1.083105,0.85718 11.748333,10.74195 11.509868,10.66761 -0.0633,-0.0197 -1.080035,-0.11673 -2.259343,-0.21555 z m 55.481545,-1.56626 c -0.11496,-0.0281 -1.62886,-0.17997 -3.36425,-0.33749 l -3.15524,-0.28637 -2.63951,-1.97781 c -1.45173,-1.08781 -3.16775,-2.16777 -3.81338,-2.39994 -0.64564,-0.23216 -1.17369,-0.48134 -1.17346,-0.55373 9e-4,-0.3917 2.3785,-1.53011 4.52959,-2.16915 3.35987,-0.99814 4.40302,-1.78177 8.00631,-6.01445 1.65062,-1.93894 3.11121,-3.48866 3.24576,-3.44381 0.13454,0.0448 0.50921,0.79735 0.8326,1.67222 0.48491,1.31186 0.80706,1.76934 1.83794,2.60995 1.04538,0.85244 3.78596,4.20814 3.99891,4.89645 0.0344,0.1111 -0.52164,1.14262 -1.23557,2.29225 -1.00939,1.6254 -1.78542,2.50951 -3.48948,3.97544 -2.09687,1.80386 -2.5016,2.00015 -3.58022,1.73644 z m -35.347838,-3.60082 -4.158082,-2.80088 0.05898,-1.42946 c 0.03242,-0.7862 0.165538,-2.87679 0.295797,-4.64575 0.355362,-4.82575 0.799932,-14.81477 0.777412,-17.46774 l -0.01981,-2.33927 0.509293,0.44598 c 0.280103,0.24529 1.672962,1.50914 3.09523,2.80856 l 2.585935,2.36259 1.854852,3.69997 c 1.747024,3.48486 1.972136,3.81291 3.872208,5.64279 1.677743,1.61576 2.064303,2.1293 2.296283,3.05057 0.2652,1.05318 0.35334,1.14113 1.78894,1.78525 1.33178,0.59753 1.78048,0.99635 3.80138,3.37877 l 2.29136,2.70128 -2.19992,0.29577 c -5.3135,0.71437 -4.91266,0.57915 -8.806329,2.97098 -1.987056,1.22062 -3.674155,2.2468 -3.749108,2.28039 -0.07492,0.0336 -2.007415,-1.19932 -4.294366,-2.7398 z m 47.527508,0.30894 -1.19122,-0.81701 -1.59915,0.31192 c -0.87953,0.17154 -1.65135,0.2597 -1.71514,0.19591 -0.0639,-0.0638 0.58423,-1.51342 1.44009,-3.22138 l 1.5561,-3.10536 -2.38185,-2.40622 c -1.58968,-1.60593 -2.75197,-3.0401 -3.49469,-4.31216 -0.61205,-1.04827 -1.3207,-2.24457 -1.57476,-2.65845 l -0.46194,-0.75249 1.73323,-1.35223 c 0.95328,-0.74373 2.44735,-1.77858 3.32016,-2.29966 l 1.58694,-0.94742 1.31396,0.66971 c 0.7512,0.38288 2.22722,1.55557 3.44626,2.73803 1.6091,1.56081 2.3295,2.09775 2.93606,2.18837 1.65761,0.2476 5.45247,0.62732 6.26948,0.62732 0.46627,0 0.84777,0.0564 0.84777,0.12533 0,0.0689 -2.23773,3.41923 -4.97275,7.44511 -2.73501,4.02589 -5.11941,7.56101 -5.29867,7.85584 -0.17925,0.29482 -0.38054,0.5351 -0.4473,0.53395 -0.0667,-9e-4 -0.65742,-0.36975 -1.31258,-0.81911 z m 6.78994,-4.13164 c 0.19655,-0.28691 1.79666,-2.47938 3.55581,-4.87216 4.43639,-6.03434 7.15258,-8.35876 11.13763,-9.53118 1.7809,-0.52396 1.79326,-0.52427 2.14346,-0.0556 0.40162,0.53749 0.3124,1.63527 -0.34499,4.24507 -0.36144,1.43483 -0.65235,1.9235 -2.43553,4.09105 l -2.02507,2.46157 -5.83697,1.95888 c -3.21034,1.07739 -5.99779,2.01854 -6.19434,2.09145 -0.31766,0.11783 -0.31766,0.0746 0,-0.38909 z m -33.76176,-1.06281 c -0.28706,-0.3136 -0.6914,-1.40027 -0.97438,-2.61862 l -0.4837,-2.08258 1.37932,-4.94561 c 0.75863,-2.72009 1.51254,-5.74969 1.67537,-6.73244 0.16283,-0.98276 0.39016,-2.16207 0.50519,-2.62068 0.11502,-0.45862 0.20974,-1.12236 0.21046,-1.47497 7.2e-4,-0.35261 0.0818,-0.68926 0.18002,-0.74812 0.0983,-0.0589 1.4652,-0.17575 3.03761,-0.25978 2.60885,-0.13943 2.98637,-0.10525 4.31607,0.39075 0.80144,0.29894 1.47404,0.65074 1.49469,0.78177 0.0206,0.13104 -0.0334,0.71147 -0.12016,1.28985 -0.097,0.64676 -0.0533,1.21876 0.11345,1.4858 0.16362,0.26198 0.27115,1.57071 0.27115,3.29994 0,2.74853 0.0294,2.91796 0.71994,4.14142 l 0.71993,1.27565 -2.99538,3.84544 c -1.64746,2.11499 -3.25706,4.01689 -3.57688,4.22645 -0.38129,0.24983 -1.28485,0.4122 -2.62439,0.47162 -1.30666,0.058 -2.22802,0.22027 -2.55655,0.45038 -0.66417,0.46521 -0.71032,0.45891 -1.29176,-0.17627 z m -8.00081,-7.68113 -3.524477,-3.64877 -0.588362,-3.41809 c -0.323594,-1.87995 -0.748732,-4.26587 -0.944732,-5.30206 -0.19601,-1.03617 -0.326593,-1.91374 -0.290188,-1.95014 0.03638,-0.0364 1.109191,0.58028 2.383974,1.37041 l 2.317785,1.43658 2.26391,-1.96277 c 1.24515,-1.07952 2.26391,-2.00927 2.26391,-2.06611 0,-0.15337 3.58174,-13.7056 3.73249,-14.12262 0.156,-0.43154 1.75289,4.82376 1.77364,5.83697 0.0482,2.35188 -5.20055,27.57334 -5.72211,27.49626 -0.0778,-0.0115 -1.7274,-1.66284 -3.66584,-3.66966 z m 59.7155,-2.65118 c 0.0843,-0.77065 0.26504,-2.74131 0.40163,-4.37924 0.17478,-2.09602 0.35117,-3.05634 0.59553,-3.24239 0.46706,-0.35559 9.40075,-3.74625 9.53002,-3.61698 0.0929,0.0929 -1.69711,6.85007 -1.85004,6.9837 -0.0362,0.0317 -0.81066,0.51085 -1.72093,1.06485 -0.91028,0.554 -2.78644,1.77279 -4.16927,2.70841 -1.38283,0.93563 -2.61008,1.74202 -2.72722,1.79199 -0.1211,0.0517 -0.14686,-0.51373 -0.0597,-1.31034 z m -36.78405,-3.48582 c 0.23814,-0.81897 0.93691,-3.23746 1.55282,-5.37444 1.2112,-4.20244 3.11758,-8.55941 5.84755,-13.36437 1.22304,-2.15266 1.78131,-2.88903 2.68799,-3.54557 0.97898,-0.70889 2.74798,-2.8082 5.74572,-6.8186 0.64102,-0.85756 0.70986,-0.89225 0.8765,-0.44179 0.56716,1.53316 0.50878,4.33789 -0.1585,7.61517 -0.0588,0.28868 -0.79633,1.33615 -1.639,2.32772 -1.87926,2.21131 -2.75567,3.71595 -3.79899,6.5222 -0.54,1.45248 -1.6541,3.50401 -3.39299,6.24795 l -2.58899,4.08538 -2.68035,2.11768 c -1.47419,1.16473 -2.72633,2.11769 -2.78255,2.11769 -0.0562,0 0.0926,-0.67006 0.33079,-1.48902 z m -33.525232,-8.70866 c -2.788968,-2.47128 -3.480711,-3.25062 -6.113028,-6.88719 -2.772878,-3.83075 -3.104297,-4.4108 -5.036525,-8.81502 -1.137582,-2.59294 -2.260144,-5.11646 -2.494585,-5.60784 -0.234441,-0.49138 -0.377198,-0.89341 -0.317228,-0.89341 0.243743,0 9.31371,5.4735 9.549204,5.76271 0.139957,0.17187 0.740682,1.49181 1.33496,2.93318 0.594278,1.44138 2.014232,4.71127 3.155451,7.26643 1.710168,3.829 3.407586,8.68676 3.131752,8.96259 -0.03584,0.0358 -1.480338,-1.18882 -3.210001,-2.72145 z m 22.341782,-1.0494 c 0.003,-0.30029 0.11307,-1.56448 0.24623,-2.8093 0.13316,-1.24482 0.33818,-3.2282 0.45558,-4.40751 0.11741,-1.1793 0.48639,-4.77083 0.81994,-7.98116 0.33355,-3.21034 0.71749,-7.43734 0.85319,-9.39334 0.1357,-1.956 0.2816,-3.59124 0.32422,-3.63386 0.0426,-0.0426 0.44505,1.0217 0.89428,2.36515 l 0.81679,2.44264 -0.21162,3.35127 c -0.19286,3.05394 -0.16508,3.55559 0.31304,5.65436 0.31224,1.37064 0.95841,3.19429 1.59599,4.50426 1.48416,3.04936 1.6253,4.0088 1.04068,7.07377 -0.25988,1.36244 -0.51396,2.5186 -0.56464,2.56928 -0.13922,0.13922 -2.66269,0.49042 -4.74143,0.6599 -1.81049,0.1476 -1.84631,0.13991 -1.84225,-0.39546 z m -1.76543,-14.24663 c -0.3679,-1.1802 -1.31262,-3.94085 -2.09939,-6.13478 l -1.43047,-3.98895 0.11242,-3.57365 c 0.10485,-3.33293 0.16395,-3.70203 0.87751,-5.4796 1.31473,-3.275225 1.73575,-3.778477 3.68512,-4.404847 0.92851,-0.298345 1.83902,-0.599734 2.02335,-0.669744 0.28168,-0.106983 0.30905,0.306684 0.17156,2.592781 -0.36311,6.0376 -0.63181,9.15336 -1.22077,14.15575 -0.64645,5.49068 -1.06138,9.1681 -1.06854,9.47019 -0.003,0.0983 -0.0892,0.17868 -0.19305,0.17868 -0.10386,0 -0.48984,-0.96562 -0.85774,-2.14583 z m 31.30351,-7.86432 c 0,-1.61644 1.38834,-6.15461 2.5266,-8.25897 1.00898,-1.86533 1.19555,-2.05835 4.32425,-4.47417 1.79837,-1.38861 3.30202,-2.428006 3.34143,-2.309759 0.0394,0.118237 -0.20573,1.863599 -0.54477,3.878569 l -0.61643,3.66357 -1.88904,2.85892 -1.88904,2.85892 -2.49558,1.3699 c -1.37259,0.75345 -2.55451,1.36991 -2.6265,1.36991 -0.072,0 -0.13092,-0.43061 -0.13092,-0.95689 z m -61.996537,-2.08072 c -2.756706,-2.77039 -2.801701,-2.83356 -4.347474,-6.10283 -1.557785,-3.29465 -1.56254,-3.31116 -1.786751,-6.194323 -0.704232,-9.055848 -0.752974,-10.334368 -0.449937,-11.801559 0.296752,-1.43672 0.512698,-1.759306 0.755018,-1.127848 0.06861,0.178793 0.660623,1.063268 1.315591,1.965508 1.475655,2.032754 4.642326,7.59116 5.956567,10.455461 0.541106,1.179301 1.361487,3.591521 1.823057,5.360481 0.461579,1.76895 0.935683,3.56382 1.053579,3.98859 0.16742,0.60324 0.06294,1.29484 -0.477481,3.15922 -0.380502,1.3128 -0.691824,2.54659 -0.691824,2.74178 0,0.19518 -0.08212,0.35489 -0.182403,0.35489 -0.100319,0 -1.435892,-1.25972 -2.967942,-2.79937 z M 110.80067,94.654197 c -0.0678,-0.229308 -0.39464,-1.559595 -0.72632,-2.956182 l -0.60306,-2.539265 0.43981,-2.106491 c 0.2419,-1.158572 0.58463,-2.947304 0.76161,-3.974968 0.35744,-2.075507 0.31268,-2.000644 3.67191,-6.141654 l 2.3807,-2.93476 0.30214,1.660544 c 0.59369,3.26292 1.01167,6.409907 1.01167,7.61694 0,1.018174 -0.62688,5.218028 -1.07194,7.181664 -0.0714,0.315103 -1.21595,1.297375 -2.98418,2.561119 -1.57757,1.127487 -2.91124,2.049979 -2.9637,2.049979 -0.0525,0 -0.15085,-0.187618 -0.21864,-0.416926 z"
       id="path302" /></g></svg>
