<?xml version="1.0" encoding="UTF-8" standalone="no"?>
<svg
   version="1.1"
   id="svg2"
   width="190"
   height="190"
   viewBox="0 0 190 190"
   sodipodi:docname="ccug-core.svg"
   inkscape:version="1.2.2 (b0a8486541, 2022-12-01)"
   xmlns:inkscape="http://www.inkscape.org/namespaces/inkscape"
   xmlns:sodipodi="http://sodipodi.sourceforge.net/DTD/sodipodi-0.dtd"
   xmlns="http://www.w3.org/2000/svg"
   xmlns:svg="http://www.w3.org/2000/svg">
  <sodipodi:namedview
     id="namedview2716"
     pagecolor="#ffffff"
     bordercolor="#000000"
     borderopacity="0.25"
     inkscape:showpageshadow="2"
     inkscape:pageopacity="0.0"
     inkscape:pagecheckerboard="0"
     inkscape:deskcolor="#d1d1d1"
     showgrid="false"
     inkscape:zoom="4.1755319"
     inkscape:cx="92.203822"
     inkscape:cy="94.478981"
     inkscape:window-width="1854"
     inkscape:window-height="1011"
     inkscape:window-x="0"
     inkscape:window-y="0"
     inkscape:window-maximized="1"
     inkscape:current-layer="g8" />
  <defs
     id="defs6">
    <filter
       id="colorize"
       x="0"
       y="0"
       width="1"
       height="1">
      <feColorMatrix
         type="saturate"
         values="0"
         result="gray"
         id="feColorMatrix2707" />
      <feColorMatrix
         in="gray"
         type="matrix"
         values="0 0 0 0 0.8431372549019608 0 0 0 0 0.41568627450980394 0 0 0 0 0.047058823529411764 0 0 0 1 0"
         id="feColorMatrix2709" />
    </filter>
  </defs>
  <g
     id="g8"
     filter="url(#colorize)">
    <path
       style="fill:#000000"
       d="m 71.306409,179.04221 c -3.3,-0.76235 -8.7,-2.44243 -12,-3.73352 l -6,-2.34742 15.811441,-0.2757 15.811442,-0.27571 -0.311442,-3.22429 -0.311441,-3.2243 -21.663269,-0.26926 -21.663269,-0.26926 -5.265647,-4.73074 -5.265647,-4.73074 15.428916,-0.5 15.428916,-0.5 0.313358,-3.25 0.313359,-3.25 -18.813359,-0.002 -18.813358,-0.002 -2.637145,-4.24821 c -2.889642,-4.65496 -5.862855,-10.33405 -5.862855,-11.19855 0,-0.30231 19.35,-0.54966 43,-0.54966 h 43.000001 v -3.5 -3.5 H 57.353413 12.900417 l -1.091048,-3.75 c -0.600076,-2.0625 -1.36118,-7.0125 -1.691342,-11 l -0.6002947,-7.25 H 29.662071 49.806409 v -3.500004 -3.5 H 29.692865 9.5793216 l 0.7109154,-4.75 c 0.391004,-2.6125 0.918656,-5.0875 1.172561,-5.5 0.253905,-0.4125 15.510087,-0.75 33.902628,-0.75 h 33.440983 v -3.5 -3.5 H 46.239021 13.671634 l 0.674365,-2.25 c 1.908822,-6.368723 6.368506,-14.461891 12.398468,-22.5 l 2.438059,-3.25 h 19.311941 19.311942 v -3 -3 h -15.5 c -8.525,0 -15.5,-0.359848 -15.5,-0.799662 0,-1.457383 15.390568,-10.892605 22,-13.487149 7.920044,-3.109026 20.174875,-5.713189 26.885482,-5.713189 4.859124,0 20.283909,1.84526 20.951139,2.506375 0.18515,0.183446 -7.142036,8.994877 -16.282622,19.580957 -9.140586,10.586081 -16.267067,19.567867 -15.836623,19.959526 0.430443,0.391659 5.620124,2.656661 11.532624,5.033338 5.9125,2.376677 10.75,4.832534 10.75,5.45746 0,0.624926 -3.32623,8.747105 -7.391623,18.049287 -4.065393,9.302181 -7.257909,17.058041 -7.09448,17.235251 0.163429,0.1772 2.027159,-0.75941 4.141623,-2.08136 2.114464,-1.32196 9.412106,-5.64534 16.216981,-9.60754 l 12.3725,-7.20398 -0.73319,13.68937 -0.7332,13.68937 5.8607,-0.61423 c 3.22338,-0.33783 8.51397,-0.92683 11.75687,-1.30889 l 5.89618,-0.69465 -0.65294,2.90486 c -2.1387,9.51484 -2.66194,8.32729 7.24999,16.45464 4.99737,4.09762 9.09163,7.68173 9.09836,7.96469 0.0367,1.5419 -10.90926,13.64089 -16.26286,17.97602 -7.19317,5.82473 -19.57854,12.21675 -28.22491,14.56672 -8.24335,2.24043 -29.220811,2.82085 -37.000001,1.02373 z M 168.42684,155.3151 c -1.54464,-7.14954 -2.64481,-13.16279 -2.44482,-13.36277 0.19998,-0.19998 3.27978,2.25333 6.844,5.45181 l 6.48039,5.81543 -3.48486,7.20698 c -1.91667,3.96385 -3.73268,7.36015 -4.03557,7.54735 -0.3029,0.1872 -1.81451,-5.50926 -3.35914,-12.6588 z m -2.12043,-24.47901 c -4.95,-2.9899 -9.55528,-5.77372 -10.23396,-6.18627 -1.09189,-0.66374 -3.51758,-13.15758 -2.7243,-14.03184 0.80918,-0.89176 21.467,11.34763 21.54264,12.76363 0.0464,0.86881 0.40763,4.16716 0.8027,7.32966 0.39507,3.1625 0.4696,5.70747 0.16561,5.65549 -0.30398,-0.052 -4.60269,-2.54078 -9.55269,-5.53067 z m -38.25,-27.10703 c -2.42225,-0.21816 -4.24347,-0.89563 -4.23482,-1.57529 0.0361,-2.838711 2.74391,-9.975902 4.0535,-10.684265 2.78151,-1.504536 35.98122,-13.291281 36.34267,-12.902578 0.32627,0.350871 -1.4433,13.978067 -2.9405,22.644343 l -0.56148,3.25 -14.20468,-0.17471 c -7.81258,-0.0961 -16.11719,-0.34696 -18.45469,-0.5575 z M 107.19719,79.34424 c 1.46451,-2.410636 3.84721,-6.520474 5.29491,-9.132974 1.44769,-2.6125 2.94231,-4.75 3.32136,-4.75 1.14149,0 4.28879,7.793408 3.71382,9.196224 -0.2939,0.717077 -3.78752,3.051114 -7.7636,5.18675 l -7.22922,3.882973 z m 41.72436,-8.698977 c 1.31167,-0.998801 5.08486,-3.667694 8.38486,-5.930873 l 6,-4.11487 7.77377,1.573768 c 4.27558,0.865573 7.58876,1.75878 7.36264,1.984906 -0.47171,0.471709 -29.68025,8.281529 -31.02127,8.294508 -0.48667,0.0047 0.18833,-0.808637 1.5,-1.807439 z m -6.96668,-14.261315 c -3.49334,-0.453039 -6.68775,-0.958477 -7.09868,-1.123195 -0.41093,-0.164718 6.49726,-9.693284 15.35153,-21.174592 l 16.09869,-20.875106 0.5,12.794919 0.5,12.794918 6.87399,1.580187 6.87398,1.580187 -14.42794,7.75 c -7.93536,4.2625 -15.30366,7.692938 -16.37398,7.623195 -1.07033,-0.06974 -4.80424,-0.497473 -8.29759,-0.950513 z M 99.806409,52.932184 c 0,-0.290995 5.454061,-8.554823 12.120121,-18.364063 l 12.12012,-17.834982 11.62988,3.472259 c 6.39644,1.909742 11.73439,3.56558 11.86212,3.679639 0.12774,0.11406 -7.96268,6.815372 -17.97871,14.891805 l -18.21095,14.684424 h -5.77129 c -3.17421,0 -5.771291,-0.238087 -5.771291,-0.529082 z m 8.696441,-35.848432 c -1.76888,-5.191364 -2.0078,-4.973263 6.80356,-6.210811 l 5,-0.702247 -4.40444,4.895286 c -2.42245,2.692407 -4.73053,5.268363 -5.12906,5.724346 -0.39854,0.455982 -1.42007,-1.211976 -2.27006,-3.706574 z"
       id="path2835" />
  </g>
</svg>
