<?xml version="1.0" encoding="UTF-8" standalone="no"?>
<svg
   version="1.1"
   id="svg2"
   width="77"
   height="77"
   viewBox="0 0 77 77"
   sodipodi:docname="ccug-dome.svg"
   inkscape:version="1.2.2 (b0a8486541, 2022-12-01)"
   xmlns:inkscape="http://www.inkscape.org/namespaces/inkscape"
   xmlns:sodipodi="http://sodipodi.sourceforge.net/DTD/sodipodi-0.dtd"
   xmlns="http://www.w3.org/2000/svg"
   xmlns:svg="http://www.w3.org/2000/svg">
  <sodipodi:namedview
     id="namedview782"
     pagecolor="#ffffff"
     bordercolor="#000000"
     borderopacity="0.25"
     inkscape:showpageshadow="2"
     inkscape:pageopacity="0.0"
     inkscape:pagecheckerboard="0"
     inkscape:deskcolor="#d1d1d1"
     showgrid="false"
     inkscape:zoom="10.43883"
     inkscape:cx="37.456305"
     inkscape:cy="37.791592"
     inkscape:window-width="1854"
     inkscape:window-height="1011"
     inkscape:window-x="0"
     inkscape:window-y="0"
     inkscape:window-maximized="1"
     inkscape:current-layer="g8" />
  <defs
     id="defs6">
    <filter
       id="colorize"
       x="0"
       y="0"
       width="1"
       height="1">
      <feColorMatrix
         type="saturate"
         values="0"
         result="gray"
         id="feColorMatrix773" />
      <feColorMatrix
         in="gray"
         type="matrix"
         values="0 0 0 0 0.5843137254901961 0 0 0 0 0.7176470588235294 0 0 0 0 0.8823529411764706 0 0 0 1 0"
         id="feColorMatrix775" />
    </filter>
  </defs>
  <g
     id="g8"
     filter="url(#colorize)">
    <path
       style="fill:#000000;stroke-width:0.32"
       d="m 34.769744,72.573291 c -1.608919,-0.523523 -3.004667,-1.158675 -3.101665,-1.411447 -0.097,-0.252774 -0.272923,-1.313084 -0.390943,-2.356243 l -0.214582,-1.896656 2.516249,-1.043536 c 1.383936,-0.573945 3.06529,-1.321715 3.736342,-1.661708 l 1.2201,-0.618173 3.739901,1.61592 3.739904,1.615923 -0.04349,1.593571 c -0.08174,2.995363 -0.155043,3.091341 -3.062749,4.009885 -3.890675,1.229062 -4.779264,1.245709 -8.139069,0.152464 z M 22.175049,70.32436 c -3.427177,-1.887674 -4.384594,-2.69832 -5.284665,-4.474525 -0.437435,-0.863235 -0.795335,-1.687536 -0.795335,-1.831779 0,-0.144243 0.972,-0.596467 2.16,-1.004944 l 2.16,-0.742678 2.928294,1.714304 c 1.610561,0.942867 3.356842,1.949436 3.880623,2.236822 0.831396,0.456163 0.999983,0.796163 1.327594,2.677443 0.206395,1.185213 0.290588,2.239606 0.187094,2.343101 -0.103494,0.103494 -1.082644,0.236768 -2.175888,0.296166 -1.827451,0.09929 -2.181225,0.0013 -4.387717,-1.21391 z m 26.621937,1.019731 c -0.33632,-0.213306 -0.34649,-0.676173 -0.05201,-2.3672 l 0.366058,-2.102051 3.947808,-2.272768 3.947808,-2.272768 1.544199,0.59425 c 0.849312,0.326835 1.805213,0.687964 2.124224,0.802508 0.534771,0.192013 0.502944,0.352877 -0.407965,2.061914 -0.823238,1.544557 -1.346845,2.072781 -3.140023,3.167725 -3.560765,2.174262 -4.735229,2.663695 -6.379286,2.658441 -0.843011,-0.0026 -1.720877,-0.124218 -1.950813,-0.270051 z M 25.691849,62.497214 C 23.6852,61.352213 21.913577,60.28557 21.754908,60.126901 c -0.258197,-0.258199 -1.143263,-6.22768 -1.169451,-7.887574 -0.0081,-0.512135 0.835207,-1.138496 3.769704,-2.8 2.079062,-1.177155 3.857741,-2.140285 3.95262,-2.140285 0.09488,0 2.101829,1.128503 4.459889,2.507779 l 4.287379,2.507783 0.08896,4.361145 0.08896,4.361145 -1.357539,0.692564 c -1.186442,0.60528 -6.27909,2.849583 -6.466109,2.849583 -0.03796,0 -1.71082,-0.936822 -3.717469,-2.081827 z m 17.994657,0.41729 -3.608544,-1.614778 0.08854,-4.492534 0.08854,-4.492531 4.32,-2.53079 c 3.117641,-1.82641 4.453597,-2.450784 4.8,-2.243338 0.264,0.1581 1.956,1.119632 3.76,2.136739 l 3.28,1.849287 v 1.304569 c 0,2.710192 -0.733283,7.101171 -1.25111,7.491792 -0.940432,0.709411 -7.299383,4.256393 -7.585677,4.231241 -0.155767,-0.0137 -1.90706,-0.751532 -3.891757,-1.639657 z M 60.47314,60.778546 c -2.009607,-0.77321 -2.169296,-0.903392 -2.022192,-1.648535 0.08784,-0.444966 0.333235,-2.316966 0.545312,-4.16 l 0.3856,-3.350969 3.357907,-2.48224 3.357908,-2.482237 1.703548,1.362237 c 0.936951,0.749232 1.710359,1.632416 1.718689,1.962627 0.0083,0.330215 -0.291514,1.906557 -0.666308,3.502983 -0.625753,2.665359 -0.815369,3.044236 -2.32,4.635663 -0.901206,0.953191 -2.142553,2.130627 -2.758554,2.616525 l -1.12,0.883453 z M 11.430492,58.893739 8.8950481,56.408437 8.1698964,53.37374 c -0.3988336,-1.669085 -0.7228336,-3.284592 -0.72,-3.59002 0.00285,-0.305427 0.8158448,-1.191606 1.8066922,-1.969286 l 1.8015414,-1.413968 3.238459,2.423975 c 1.781153,1.333187 3.286616,2.459523 3.345473,2.502969 0.266386,0.196634 1.020893,8.247526 0.791305,8.443548 -0.380425,0.324807 -3.640758,1.608084 -4.085547,1.608084 -0.210036,0 -1.522833,-1.118388 -2.917328,-2.485303 z m 22.350682,-11.850326 -4.233875,-2.464371 -0.0036,-5.12 -0.0036,-5.119999 4.298703,-2.48 c 2.364286,-1.364 4.45962,-2.48 4.656299,-2.48 0.196678,0 2.292012,1.116 4.656297,2.48 l 4.298704,2.48 0.0026,5.018211 0.0026,5.018208 -0.88,0.604921 c -1.865027,1.282042 -7.731085,4.557897 -8.135181,4.54303 -0.233651,-0.0086 -2.330064,-1.124595 -4.658694,-2.48 z m -18.246125,-0.598233 -3.280001,-2.44009 0.0071,-4.673023 0.0071,-4.673024 3.366552,-2.447905 3.366552,-2.447905 3.746322,2.176988 3.746322,2.176988 v 5.217939 5.217942 l -3.68,2.167808 c -2.024,1.192295 -3.752,2.167037 -3.84,2.16609 -0.088,-9.6e-4 -1.636,-1.09976 -3.44,-2.441808 z m 38.400001,0.342313 -3.6,-2.102195 0.0089,-5.173129 0.0089,-5.173126 3.832749,-2.186887 3.832749,-2.186887 3.366794,2.453593 3.366793,2.453592 -0.0884,4.693292 -0.08841,4.693296 -3.040001,2.307168 c -1.672,1.268944 -3.256,2.310842 -3.52,2.315325 -0.264,0.0045 -2.1,-0.937834 -4.08,-2.094042 z m 15.056653,-1.177008 -1.663347,-1.351443 -0.0016,-4.64 -0.0016,-4.639999 1.732922,-1.386263 c 0.95311,-0.762444 1.873469,-1.299401 2.045245,-1.193237 0.171776,0.106163 0.753145,0.963509 1.291936,1.905215 0.928813,1.623395 0.979417,1.892717 0.975801,5.193238 -0.0036,3.338864 -0.047,3.558666 -1.061072,5.381405 -0.581491,1.045193 -1.191772,1.941344 -1.356185,1.991443 -0.16441,0.0501 -1.047434,-0.517063 -1.962276,-1.260359 z m -64.2488013,-0.791443 -1.1614752,-1.84 0.097844,-3.839999 c 0.095134,-3.733629 0.1276329,-3.886941 1.1732029,-5.534536 0.5914467,-0.931995 1.2001345,-1.651995 1.3526394,-1.6 0.1525047,0.052 1.0001284,0.667696 1.8836081,1.368224 l 1.6063268,1.273688 -0.017859,4.646313 -0.017859,4.64631 -1.7234715,1.36 c -0.9479091,0.748 -1.7927731,1.36 -1.8774752,1.36 -0.084702,0 -0.6766679,-0.828 -1.3154794,-1.84 z M 9.3642962,30.940389 C 8.4698436,30.233365 7.6574807,29.445011 7.5590449,29.188491 7.4606087,28.931971 7.6986283,27.321905 8.0879768,25.610567 l 0.7079062,-3.111524 2.66651,-2.645934 2.66651,-2.645935 2.165602,0.81513 c 1.19108,0.448321 2.20499,0.854519 2.253131,0.90266 0.263561,0.263561 -0.974961,8.406506 -1.307672,8.597593 -0.214045,0.122933 -1.707721,1.231473 -3.319281,2.463422 l -2.93011,2.239908 z M 62.994068,30.290612 c -1.397542,-1.056389 -2.81297,-2.111214 -3.145398,-2.344056 -0.48608,-0.340462 -0.694442,-1.196277 -1.064215,-4.371104 -0.25289,-2.171265 -0.402509,-4.097054 -0.332486,-4.27953 0.07002,-0.182476 1.075097,-0.666371 2.233504,-1.075322 l 2.106189,-0.743548 2.039321,1.801556 c 1.121629,0.990856 2.331306,2.196482 2.688173,2.679168 0.581037,0.785894 2.015895,5.918138 2.015895,7.210512 0,0.50641 -3.151901,3.112594 -3.709079,3.066893 -0.160006,-0.01312 -1.434365,-0.88818 -2.831904,-1.944569 z m -38.671874,-0.828698 -3.747145,-2.127266 0.02449,-1.457802 c 0.01347,-0.801792 0.19347,-2.731509 0.4,-4.288261 l 0.375511,-2.830459 3.925191,-2.24221 3.925192,-2.242209 1.328928,0.531731 c 0.73091,0.292453 2.460395,1.048939 3.843301,1.681082 l 2.514371,1.149349 -0.08849,4.495037 -0.08849,4.495037 -2.56,1.47104 c -1.408,0.809072 -3.357784,1.9258 -4.332855,2.481619 l -1.772855,1.010578 z m 19.772856,-0.382805 -4.16,-2.474015 v -4.447508 -4.447509 l 3.779968,-1.683408 c 4.349526,-1.937061 3.451245,-2.051186 8.784499,1.116059 1.94298,1.153872 3.015844,1.994092 3.113559,2.438408 0.158646,0.721357 0.801974,6.597337 0.801974,7.325008 0,0.421152 -7.262998,4.745566 -7.860112,4.679939 C 48.39,31.567953 46.38305,30.439817 44.09505,29.079109 Z M 18.175049,15.895996 c -0.88,-0.339668 -1.789011,-0.683875 -2.020023,-0.764905 -0.310942,-0.109067 -0.164266,-0.625793 0.564785,-1.989688 0.764048,-1.429366 1.396199,-2.104152 2.820023,-3.010217 3.252725,-2.0699055 5.061163,-2.8325026 6.704577,-2.8272415 2.348859,0.00752 2.487245,0.1891821 2.022082,2.6544483 l -0.39411,2.0887012 -3.936008,2.265975 c -2.164805,1.246286 -3.986705,2.251244 -4.048667,2.23324 -0.06196,-0.018 -0.832659,-0.310645 -1.712659,-0.650313 z m 35.310523,-1.02708 c -1.523213,-0.90743 -3.197492,-1.885005 -3.720621,-2.17239 -0.829891,-0.455905 -0.998986,-0.797235 -1.326413,-2.677445 -0.206394,-1.1852104 -0.293085,-2.237108 -0.19264,-2.3375502 0.100441,-0.1004423 1.035747,-0.2443319 2.078454,-0.3197546 1.744196,-0.1261635 2.095588,-0.029632 4.393265,1.2068835 3.488336,1.8772793 4.468528,2.6967483 5.382099,4.4995893 0.437434,0.863235 0.795334,1.683593 0.795334,1.823018 0,0.265401 -3.764864,1.710094 -4.32,1.657715 -0.176,-0.01661 -1.566265,-0.772635 -3.089478,-1.680066 z m -16.110523,0.04315 c -0.352,-0.21168 -1.936,-0.924234 -3.52,-1.583452 l -2.88,-1.198579 0.02549,-1.215493 c 0.01402,-0.668522 0.127705,-1.7510252 0.252638,-2.4055637 0.221034,-1.1580272 0.29379,-1.2111219 2.702166,-1.9719276 4.084797,-1.2903866 4.469031,-1.3069328 7.87882,-0.339282 2.005654,0.5691773 3.197891,1.0793453 3.398541,1.4542633 0.169993,0.3176336 0.39974,1.4449299 0.51055,2.505103 0.17807,1.703667 0.131213,1.952937 -0.403363,2.145806 -0.332663,0.120021 -1.900839,0.782936 -3.484839,1.473144 -3.625795,1.579896 -3.707408,1.600591 -4.48,1.135981 z"
       id="path2053" />
  </g>
</svg>
