<?xml version="1.0" encoding="UTF-8" standalone="no"?>
<!-- Generator: Adobe Illustrator 26.0.3, SVG Export Plug-In . SVG Version: 6.00 Build 0)  -->

<svg
   version="1.1"
   id="Artificer_xA0_Image_1_"
   x="0px"
   y="0px"
   viewBox="0 0 120 120"
   style="enable-background:new 0 0 120 120;"
   xml:space="preserve"
   sodipodi:docname="cs-amber-aegis.svg"
   inkscape:version="1.1.2 (0a00cf5339, 2022-02-04)"
   xmlns:inkscape="http://www.inkscape.org/namespaces/inkscape"
   xmlns:sodipodi="http://sodipodi.sourceforge.net/DTD/sodipodi-0.dtd"
   xmlns="http://www.w3.org/2000/svg"
   xmlns:svg="http://www.w3.org/2000/svg"><defs
   id="defs23" /><sodipodi:namedview
   id="namedview21"
   pagecolor="#ffffff"
   bordercolor="#666666"
   borderopacity="1.0"
   inkscape:pageshadow="2"
   inkscape:pageopacity="0.0"
   inkscape:pagecheckerboard="0"
   showgrid="false"
   inkscape:zoom="6.5166667"
   inkscape:cx="7.1355498"
   inkscape:cy="60"
   inkscape:window-width="1850"
   inkscape:window-height="1043"
   inkscape:window-x="0"
   inkscape:window-y="0"
   inkscape:window-maximized="1"
   inkscape:current-layer="Artificer_xA0_Image_1_" />
<style
   type="text/css"
   id="style2">
	.st0{fill:#231F20;}
</style>
<g
   id="Layer_2_1_"
   style="fill:#f89521;fill-opacity:1">
	<g
   id="Logo_Hiveguardian_Image"
   style="fill:#f89521;fill-opacity:1">
		<path
   class="st0"
   d="M69.3,15.1c10.2,1.8,17,7.9,22.4,15.7c5.6,8.1,9.5,17.2,11.6,26.8c1.5,6.8,2.6,13.7,3.9,20.6    c0.2,0.8,0.1,1.7,0.2,3c-1.3-0.6-2.5-1.3-3.7-2c-4.7-3.3-9.5-6.4-13.8-10c-4.7-3.8-9.1-8-13.3-12.3c-4.7-5.1-8.3-11.1-10.7-17.6    c-0.4-1.4-0.5-3-0.2-4.4c0.9-5.8,1.9-11.6,2.9-17.4C68.8,16.6,69,15.8,69.3,15.1z"
   id="path4"
   style="fill:#f89521;fill-opacity:1" />
		<path
   class="st0"
   d="M51.2,15.1c0.7,4.6,1.5,9.1,2.3,13.4c0.1,1.4,0.4,2.9,0.7,4.3c0.9,3.4,0.4,7-1.5,10c-4,8.4-9.8,15.9-17,21.8    c-5.6,4.6-10.7,9.8-17.2,13.3c-1.8,1.1-3.7,2.1-6,3.3c0.2-1.9,0.4-3.3,0.5-4.8c1.4-13.7,5.2-27,11.4-39.3c2.6-5.1,6-9.7,10.2-13.7    C39.1,19,44.9,16.1,51.2,15.1z"
   id="path6"
   style="fill:#f89521;fill-opacity:1" />
		<path
   class="st0"
   d="M64.3,45c6.6,12.1,16.3,22.3,28.1,29.4c0.9,4.8-0.2,21.3-1.7,25.5c-4.8-3.1-9.1-7-12.5-11.5    c-6.6-8.4-11.7-17.9-15-28c-0.3-0.9-0.4-1.8-0.3-2.7C63.4,53.5,63.8,49.5,64.3,45z"
   id="path8"
   style="fill:#f89521;fill-opacity:1" />
		<path
   class="st0"
   d="M79.1,92.5c-4.2,7-8.6,13.3-16.9,16.1v-40C66.4,77.5,72.1,85.6,79.1,92.5z"
   id="path10"
   style="fill:#f89521;fill-opacity:1" />
		<path
   class="st0"
   d="M58,108.7c-8.5-2.9-12.9-9.2-16.9-16.1c7-6.9,12.7-15.1,16.9-24V108.7z"
   id="path12"
   style="fill:#f89521;fill-opacity:1" />
		<path
   class="st0"
   d="M60,81.6c-1.5-20.9-3-46.6-4.5-67.8c3.2-3.4,6.2-3.2,9.1,0.4C63.1,35.4,61.6,60.8,60,81.6z"
   id="path14"
   style="fill:#f89521;fill-opacity:1" />
		<path
   class="st0"
   d="M55.8,45.1c-6.7,12.1-16.4,22.3-28.2,29.4c-0.9,4.9,0.2,21.3,1.7,25.5c4.8-3.1,9.1-7,12.6-11.5    c6.6-8.4,11.7-17.9,15-28c0.3-0.9,0.4-1.8,0.3-2.7C56.8,53.6,56.3,49.6,55.8,45.1z"
   id="path16"
   style="fill:#f89521;fill-opacity:1" />
	</g>
</g>
</svg>
