<?xml version="1.0" encoding="UTF-8" standalone="no"?>
<!-- Generator: Adobe Illustrator 25.2.0, SVG Export Plug-In . SVG Version: 6.00 Build 0)  -->

<svg
   version="1.1"
   id="Layer_1"
   x="0px"
   y="0px"
   viewBox="0 0 600 600"
   style="enable-background:new 0 0 600 600;"
   xml:space="preserve"
   sodipodi:docname="cs-luminary.svg"
   inkscape:version="1.1.2 (0a00cf5339, 2022-02-04)"
   xmlns:inkscape="http://www.inkscape.org/namespaces/inkscape"
   xmlns:sodipodi="http://sodipodi.sourceforge.net/DTD/sodipodi-0.dtd"
   xmlns="http://www.w3.org/2000/svg"
   xmlns:svg="http://www.w3.org/2000/svg"><defs
   id="defs1417" /><sodipodi:namedview
   id="namedview1415"
   pagecolor="#ffffff"
   bordercolor="#666666"
   borderopacity="1.0"
   inkscape:pageshadow="2"
   inkscape:pageopacity="0.0"
   inkscape:pagecheckerboard="0"
   showgrid="false"
   inkscape:zoom="1.3033333"
   inkscape:cx="35.67775"
   inkscape:cy="299.23274"
   inkscape:window-width="1850"
   inkscape:window-height="1043"
   inkscape:window-x="0"
   inkscape:window-y="0"
   inkscape:window-maximized="1"
   inkscape:current-layer="Layer_1" />
<style
   type="text/css"
   id="style1402">
	.st0{fill:#231F20;}
	.st1{fill:#FFFFFF;}
	.st2{display:none;fill:#231F20;}
</style>
<g
   id="g1410"
   style="fill:#bf9eca;fill-opacity:1">
	<g
   id="g1406"
   style="fill:#bf9eca;fill-opacity:1">
		<path
   class="st0"
   d="M525.8,316.1c0,124.7-101,225.9-225.7,225.9S74.2,441,74.2,316.3c0-14.9,1.4-29.6,4.2-43.7    c44.3,76.4,127,127.7,221.6,127.7c94.6,0,177.3-51.5,221.5-127.8C524.4,286.6,525.8,301.2,525.8,316.1z"
   id="path1404"
   style="fill:#bf9eca;fill-opacity:1" />
	</g>
	<path
   class="st0"
   d="M507.6,231.9L507.6,231.9c-0.3,0.4-0.8,1.2-1.7,1.8c-0.4,0.3-0.8,0.5-1.2,0.7c-0.9,0.4-1.9,0.8-2.9,1.3   c-4.3,2.1-9.7,4.6-16.3,3c-2.9-0.7-5.8-1.4-8.5-1.9c-0.6-0.1-1.3,0-3.2,1c-1.6,0.9-3.2,0.9-4.2,1c-0.2,0-0.3,0-0.5,0   c-0.7,0.1-1.2,0-1.7,0H467c-3.4,1.3-7,2.8-11.3,4.6c-1.5,0.7-3,1.4-4.6,2.1c-1.6,0.8-3.3,1.6-5,2.3c-1.3,0.6-2.6,0.8-3.6,1   c-0.3,0.1-0.6,0.1-0.9,0.2c-0.9,0.2-1.7,0.3-2.5,0.4c-0.5,0.1-1.3,0.2-1.6,0.3c-0.1,0.1-0.2,0.2-0.3,0.2c-3.1,2.3-6.6,3.6-9.6,4.7   c-1.5,0.6-2.9,1.1-4.2,1.7l-1.8,0.9c-1.9,0.9-4,1.9-6,2.8c-1.8,0.8-3.6,0.6-4.4,0.5c-2.4-0.3-4,0-5.4,0.9c-1.8,1.2-3.8,2.3-6.3,2.6   c-2.3,0.2-4.7,1-7.1,2.6c0.8,4.2,1.2,8.5,1.4,12.8c0.1,2,0.1,4.1,0.1,6.2c1.1,0.1,2.2,0.2,3.5,0.3c0.6,0,1.2,0.1,1.7,0.1   c2.5,0.2,5.1,0,7.9-0.2c1.5-0.1,3-0.2,4.5-0.3c1.3,0,2.5,0,3.5,0.1l0.9,0.1c2.2,0.1,4.3,0.3,6.5,0.4l0.3,0c0.7,0,1.7,0.1,2.8,0.4   c6.4,2.1,13.3,2.3,19.2,2.2c1.4,0,2.8,0,4.1,0.1c0.6,0,1.2,0,1.8,0.1l2.7,0.1c2.2,0.1,4.5,0.1,6.7,0.2c4.6,0.1,8.5,2.2,11.3,6.1   l0.7,1c0.3,0.4,0.6,0.8,0.9,1.2c-7.9,8.9-16.5,17.1-25.6,24.7c-1.3-0.4-2.6-0.8-3.9-1.4c-1.8-0.8-3.4-1.7-5-2.5   c-1.3-0.7-2.6-1.4-3.8-2c-2-0.9-4.6-1.4-7.2-1.9c-1.4-0.3-2.9-0.5-4.4-0.9l-0.4-0.1c-1.5-0.4-3.4-0.8-5.1-1.9h0c0,0-0.1,0-0.2,0.1   c-2.6,1-6.7,2.1-11.3-0.2c-0.4-0.2-1.7-0.2-2.5-0.3l-0.2,0c-4-0.2-8.2-0.3-13-0.5c-1.2,4.2-2.6,8.4-4.3,12.3c-0.4,1-0.9,2-1.3,3   c7,2.9,14.2,5.9,21.2,8.7c1.1,0.4,2.4,0.8,3.8,1.1c1,0.2,2,0.5,3.1,0.8c2.8,0.8,6,2,9,4c-10,6.2-20.5,11.7-31.4,16.3   c-0.3-0.2-0.7-0.3-1-0.5c-1.5-0.9-3.1-1.7-4.6-2.6c-3.5-2-7.2-4.1-10.8-5.9c-1-0.5-2-1-3-1.5c-2.1,2.3-4.4,4.4-6.8,6.4   c-0.2,0.2-0.4,0.3-0.6,0.5c-0.3-0.2-0.6-0.4-0.9-0.7c-4.2-2.9-5.1-7-4.4-11.7c0-0.2,0-0.3,0.1-0.5c0.4-3.1,0.7-6.2,2.6-8.9   c0.5-0.8,0.9-1.8,0.9-2.8c0.2-4.1,2.2-7.5,3.8-11.2c0-0.1,0.1-0.3,0.2-0.4c0.9-2.4,1-5.1,1.6-7.6c0.3-1,0.6-2,1-2.9   c0.4-1,0.8-2,1-3c0.4-1.5,0.8-3,0.8-4.5c0.1-5.1-0.3-10.3,0.2-15.4c0.3-3.7-0.2-7.1-1.4-10.6c-0.3-0.9-0.7-1.9-0.7-2.8   c-0.1-8.6-4-15.4-9.8-21.5c-2.2-2.3-3.5-5.3-5.3-7.9c-0.5-0.7-1.2-1.4-1.8-2c-4.9-4.4-9.6-9-14.8-13.1c-2.4-1.9-5.7-2.7-8.6-4   c-0.8-0.3-1.6-0.5-2.2-1c-3.6-3-7.7-4.1-12.3-3.7c-0.4,0-0.9,0.1-1.3-0.1c-6.2-2.7-12.7-1.8-18.9-0.9c-8.7,1.2-17.4,3.1-25.8,5.8   c-10.3,3.4-19.7,8.8-27.2,17c-3.4,3.7-7.2,7.2-9.7,11.5c-2.5,4.2-3.6,9.2-5.2,14c-0.3,0.9,0.3,2,0.3,3.1c0,1.4,0.2,3.1-0.4,4.2   c-2.1,3.3-2.3,6.8-2.2,10.4c0.1,1.3,0.2,2.6,0.3,3.9c-0.1,0.7-0.2,1.3-0.3,2c-0.5,3.5-1,6.8-0.8,9.8c0.2,3,1.3,6.1,2.4,9.4   c0.3,0.9,0.6,1.8,0.9,2.7c0.4,0.4,1,0.9,1.5,1.7c0.1,0.2,0.3,0.4,0.5,0.6c0.9,1.2,2.3,3.1,2.4,5.6c0.1,2,1,4,3,6.6   c2,2.6,4.4,5.3,7.4,8.2c0.3,0.3,0.8,0.5,1,0.6c1.3,0.2,2.6,0.5,3.8,1c0.7,0.9,1.3,1.8,1.9,2.7c1.7,2.5,4.1,3.9,6.4,5.6   c3.7,2.7,7.8,4.1,11.9,5c4.5,1.5,9.7,3.2,15,5.2c1.4,0.5,2.9,0.5,4.9,0.5c0.5,0,1.1,0,1.6,0c3.5,0.1,6.8-0.9,10-2.2   c2.9-0.3,5.9-0.3,8.6-1.5c4.3-1.8,9-3.5,11.4-8c0.4-0.2,0.7-0.3,1.1-0.5l1-0.4c1.5-1.9,3.3-3.4,4.8-4.7c1.5-1.3,3-2.5,3.7-3.7   l0.6-0.9c2.1-3.4,3.5-5.8,3.3-8.3c0.6-1.4,0.9-3,1-4.8c0-3.1,0.9-6.2,1.6-9.3c1.2-6,1.3-12.1,0.3-18.1c-0.5-2.7-2.4-5.1-3.5-7.7   c-0.5-1.2-0.4-2.7-0.8-3.9c-0.4-1.2-0.7-2.7-1.5-3.6c-2.8-2.9-5.6-6.1-9-8.2c-5-3-9.8-6.5-16.3-6c-4.5,0.3-9.1-0.4-13.6,0.1   c-3.9,0.4-7.7,1.7-11.5,2.8c-0.9,0.2-1.9,0.8-2.5,1.5c-4.5,5.4-7.9,11.1-7.5,18.1c-0.5,0.7-1.1,1.3-1.6,2c-0.6,8.2,0.8,12.9,5,16.8   c2.2,2.1,4.9,3.9,8.4,5.8c0.5,0.3,1.2,0.4,1.6,0.4c3.8-0.4,6.9-1.3,9.4-2.7c2.7-0.2,5.4-0.9,8.2-2.2c0.9-0.5,1.9-1.4,2.2-2.3   c1.2-3.2,0-6.7-3-8.3c-2.2-1.2-4.7-2.3-7.2-2.8c-3.9-0.8-6-4.9-3.7-8.2c2.2-3.2,5.5-5.1,9.1-6.2c2.5-0.7,4.9-0.4,7,1.3   c3,2.4,6.1,4.7,8.9,7.2c5.7,5.1,6.2,11.6,4.9,18.6c-0.3,1.7-0.6,3.4-0.7,5.1c-0.2,5.3-3.1,8.7-8.2,10c-3.5,0.8-6.9,2-10.2,3.3   c-5.3,2.2-10.6,1.3-15.9,0c-2.5-0.6-5.1-1.4-7.7-1.7c-6.7-0.5-11.2-4.6-15.2-9.4c-1.2-1.5-3-2.6-4-4.2c-1.5-2.4-2.7-5.1-3.9-7.7   c-1.7-3.8-2.4-7.8-1.7-12c0.3-1.8-0.4-3.8-0.8-5.7c-1-4.8-0.4-9.1,2.8-13.1c1.1-1.3,1.2-3.6,1.3-5.5c0.1-1.5,0.3-2.7,1.6-3.7   c4.6-3.7,9.1-7.6,13.8-11.1c1-0.7,2-1.4,3.1-2c1.3-0.5,2.7-1,4-1.6c0.9-0.4,1.8-0.7,2.7-1.1c1.6-0.3,3.3-0.4,4.9-0.7   c2.8-0.4,5.7-0.5,8.5-1.1c5-0.9,9.5,0.9,14.1,2c2.4,0.6,4.8,1.2,7.2,1.7c0.2,0.1,0.4,0.2,0.7,0.3c1.6,0.8,3.1,1.5,4.6,2   c7.5,2.6,12.5,8,17,12.7c0.4,0.4,0.8,0.8,1.1,1.2c2.1,3,3.5,6.4,5.6,9.4c5,7.1,5.2,15.5,6.6,23.5c0.6,3.5,1.2,7.1,1.4,10.7   c0.1,2.8-0.1,5.7-0.5,8.5c-1,6.4-2.1,12.8-3.3,19.2c-1,5.2-3.8,9.7-6.8,14.1c-0.6,0.9-1.1,1.8-1.8,2.6c-1.2,1.7-0.8,3.1,0.3,4.9   c2.2,3.4,4.1,7,6.1,10.5c-4.6,1.9-9.3,3.3-14.2,4.4c-4,0.9-8.2,1.6-12.4,2.1c-1.1,0.1-4.3,0.5-8.7,0.9c-4.8,0.4-11.2,0.9-18.2,1.2   c-1.3,0.1-2.7,0.1-4,0.1c-8.1,0.2-16.6,0-24.1-1c0,0-0.1,0-0.1,0c-2.6-0.4-5.3-0.9-7.9-1.5c-17.8-3.6-34.9-9.2-51.2-16.8   c2.1-1.9,4.2-3.8,6.3-5.6l1.5-1.3c-0.2-0.2-0.3-0.3-0.5-0.4c-2.8-2.4-4.7-5.1-5.7-8.3c-3.5,0.9-6.9,2.6-10.4,4.4   c-1.6,0.8-3.3,1.6-5,2.4c-0.7,0.3-1.4,0.6-2.1,0.9c-9.2-5.1-18-10.9-26.4-17.2c2.2-1,4.5-2,6.7-2.9c1.8-0.7,3.4-1.4,5.1-2.2   c0.3-0.1,0.6-0.3,1-0.5c1.1-0.6,2.5-1.4,4.4-1.7c4.4-0.7,7.4-1.5,9.8-3.3c0.3-0.2,0.5-0.4,0.8-0.6c0.2-0.2,0.4-0.3,0.6-0.5   c1-0.7,2-1.1,2.7-1.4l0.3-0.1c0.5-0.2,1-0.4,1.4-0.6c0-0.4,0-0.9,0-1.3c0-0.1-0.1-0.6-0.2-0.9c-0.1-0.3-0.2-0.7-0.3-1   c-0.3-1.1-0.5-2.2-0.8-3.2c-0.6-2.6-1.2-5.1-2-7.4c-0.1-0.4-0.7-1.1-1.2-1.8c-2.6,0-5,0.1-7.4,0.1c-0.5,0-1,0.1-1.6,0.1   c-0.7,0.1-1.5,0.1-2.4,0.1c-4.9,0.1-9.7,0.1-14.6,0.2l-1.5,0c-0.6,0-1.1,0-1.7,0c-1.6,0.1-3.4,0.1-5.2-0.1   c-7.2-0.9-15.8-1.9-24.5-3.3c-1.2-0.2-1.7,0-2.4,0.5c-0.3,0.2-0.6,0.4-0.9,0.6c-7.3-8.2-14.1-17.1-20.3-26.4   c0.7-0.8,1.6-1.6,2.5-2.3c2-1.5,4.5-2.6,7.2-3.2c5.3-1.3,10.8,0.8,14.1,5.2c0.6,0.8,1.3,1.3,3.2,1.6c0.5,0.1,1,0.1,1.5,0.2   c3.2,0.3,6.8,0.7,10.3,2.4c1.7,0.8,3.8,1.3,5.7,1.3c2.4,0,4.9-0.2,7.5-0.5c1.3-0.1,2.6-0.3,3.9-0.4c1.6-0.1,3.1,0.2,4.3,0.9   c1.7,1,3.3,0.8,7-0.2c1.2-0.3,2.5-0.6,3.9-0.9c0.6-0.1,1.2-0.2,1.7-0.3c2.2-0.4,4.6-0.9,7.3-0.7c1.4,0.1,2.7,0.2,4,0.3   c0.5,0,1,0.1,1.6,0.1c0.4-0.9,1-1.6,1.8-2.1l0.2-0.1c0,0,0.3-0.2,0.4-0.3c0.4-0.3,0.8-0.8,0.7-3.1c-1.8-0.8-3.7-1.6-5.6-2.3   c-1.2-0.5-2.4-1-3.6-1.5l-0.5-0.2c-1.3-0.5-2.9-1.2-4.4-2.4c-2.1-1.8-4.2-2.8-6.5-3.2c-2.1-0.3-4.5-0.8-6.7-2.2   c-5.3-3.5-10.5-7.1-15.9-10.9c-1.4-1-2.6-2-3.9-3c-2-1.6-3.9-3.2-5.8-4.1c-8.9-4.1-18.2-8-27.1-11.8c-3.4-1.5-6.8-2.9-10.2-4.4   c-3.4-1.4-5.6-1.9-7.7-1.6c-3,0.4-4.8-0.7-5.8-1.7c-1.4-1.5-3-3.3-4.5-5.2c-4-5.3-2.7-10.8-1.7-14.9l0.1-0.6c0.5-2,1.5-5,4.3-7   c1.5-1.1,3.3-1.8,5.7-2.2c0.9-0.2,2-0.4,2.9-0.7c6.8-2.5,12.7-0.8,17.1,4.9c0.3,0.4,0.5,0.6,0.7,0.8c2.6,2.1,3.8,4.9,3.6,7.9   c2.1,0.9,4.1,1.8,6,2.7c1,0.5,2.1,1,3.1,1.4c2.8,1.3,5.6,2.6,8.4,3.8c6.5,3,13.2,6,19.8,9.1c1.9,0.9,3.9,2.1,6.1,3.7   c0.9,0.6,1.7,1.3,2.4,1.9c1.9,1.6,3.1,2.5,4.5,2.6c2.1,0.1,4.2,1.2,5.6,2.9c0.3,0.4,1,0.6,2.6,0.9l0.7,0.2c0.5,0.1,0.9,0.2,1.4,0.3   c2.5,0.5,5.3,1.2,7.7,3c4.2,3.1,8.7,6.2,13.8,7.7c1.4-3.7,3.1-7.2,4.9-10.6c0.4-0.8,0.9-1.6,1.4-2.3c0.1-0.2,0.2-0.3,0.3-0.5   c-3-3.6-6.4-6.9-10-9.9c-1.4-1.1-2.8-2.2-4.4-3.3c-2.3-1.7-4.7-3.4-7-5.5c-4.2-4-8.4-8.2-12.4-12.3c-2.5-2.6-5.2-5.3-7.8-7.9   c-0.4-0.4-0.8-0.8-1.2-1.2c-0.4-0.5-1.1-1.2-1.4-1.4c-3.2,0-6.5-1.6-9.1-4.4c-2.6-2.8-3.9-6.2-3.7-9.3l0-0.6   c0.4-5.6,1-12.5,7.2-17.6l0.4-0.3c0.5-0.4,1-0.9,1.5-1.2c0.8-0.6,3.1-2.3,6.5-2c2.8,0.2,5.7,0.5,8.6,1.5c3.2,1.1,5.4,4.4,5.9,7   c0.4,2,0.4,3.9,0.5,5.6c0,1,0,2,0.1,2.8c0.1,0.6,0.1,0.9,0.2,1.1l1.1,1.3c2.6,3.1,5,6,7.8,8.3c8.7,7.5,14.9,13.8,20.2,20.3   c1.1,1.4,2.7,2.6,4.4,4l0.2,0.2c1,0.8,2.1,1.5,3.3,2.3c0.7,0.5,1.4,0.9,2.1,1.4c1.1,0.8,2.2,1.5,3.3,2.3c0.1,0.1,0.2,0.1,0.3,0.2   c1.9-1.6,3.8-3.2,5.7-4.6c1.4-1,2.8-2.1,4.2-3c-1.2-2.5-2.7-4.9-4.1-7c-5.5-8.6-10-17.7-13.9-26.4c-2.5-5.4-4.7-11-6.8-16.3   c-0.9-2.2-1.7-4.3-2.6-6.4c-0.4-1-0.7-2-0.7-3.2c-0.5-6.4-2.7-12.5-5.1-18.9c-0.8-2.1-1.5-4.2-2.2-6.3c-0.5-1.4-1.1-2.8-1.8-4.3   c-1.3-2.9-2.7-6.1-3.2-9.9c-0.2-0.2-0.3-0.3-0.5-0.5c-0.5-0.6-1.2-1.2-1.8-1.9c-1.6-1.5-3.3-3.2-4.7-5.5   c-5.5-9.2-3.1-16.1-0.1-20.2c0.1-0.1,0.3-0.5,0.4-0.8c0.2-0.3,0.3-0.6,0.5-0.9l0.5-1l4.4-3.3l0.8-0.2c0.3-0.1,0.6-0.2,0.9-0.2   c0.5-0.1,0.9-0.3,1.2-0.4c5-1.9,13.1-1.1,16.6,3c6.7,7.9,5.3,14.8,2.9,19.2c-0.2,0.5-0.4,0.7,0.5,1.9l0.3,0.4   c2.4,3.6,5,7.3,7.1,11.3c0.2,0.4,0.4,0.7,0.6,1.1c1.6,2.9,3.7,6.9,2.8,11.9c-0.5,3,0.1,6.2,2,9.5c4.3,7.6,7.1,15.4,8.6,23.6   c0.4,1.9,1,3.7,1.8,5.3c1.6,3,3.3,6,5,9c0.8,1.4,1.7,2.9,2.5,4.3c0.6,1.1,1,2.2,1.2,3.3c0.5,4.4,2.8,8.4,5.1,12.7   c0.5,1,1,1.9,1.6,2.8c0.6,1,1.1,2.1,1.6,3.1c4.2-1.6,8.4-2.9,12.7-3.9c1.3-0.3,2.6-0.6,3.9-0.8c0-3,0.1-6,0.5-8.9   c1.2-12,0.9-24,0.5-33.2c-0.1-2.5-0.6-4-1.8-5.4c-4.6-5.3-5-14.7-0.7-20.5c1.5-2,3.1-4.1,5.1-6.7c0.6-0.8,1.3-1.5,2.1-2   c0.6-0.4,1.2-0.8,1.8-1c0.4-0.1,0.7-0.3,1-0.4c2.7-1.1,6.7-2.8,11.3-0.8c0.4,0,0.9,0,1.5,0.1l0.3,0c0.8,0.1,2.1,0.3,3.5,1.1   l0.7,0.4c3.4,1.9,9,5.1,8.8,12.9c0,0.3,0,0.5,0,0.8c0.1,1.4,0.1,3.7-1.3,6c-0.7,1.1-1.5,2.2-2.2,3.2c-0.6,0.8-1.1,1.7-1.7,2.5   c0,0.1-0.1,0.2-0.1,0.3c-0.3,0.9-0.9,2.7-2.6,3.9l-0.2,0.1l-0.2,0.1c-0.1,0-0.1,0.1-0.2,0.1c-0.2,0.1-0.2,0.2-0.2,0.2   c-0.1,0.4,0.1,2,0.3,2.9l0.1,0.3c0.4,2.3,0.8,4.8,1.1,7.3c0.3,2.4,0.6,5.5,0.7,8.5c0,2.1-0.2,4.4-0.6,7c-0.2,1.4-0.5,2.8-0.8,4.1   c-0.4,1.7-0.7,3.4-0.9,5c-0.1,1.4-0.1,3-0.1,4.6c0,1.8,0,3.6-0.1,5.5c0,0,0,0,0,0.1c2.6,0.1,5.3,0.4,7.9,0.7   c2.8,0.3,5.7,0.8,8.5,1.3c0.5-1.6,1.1-3.1,1.7-4.5l0.2-0.6c0.4-1,0.8-1.8,1.3-2.5c0.3-0.5,0.7-1.3,0.8-1.6c1.6-9.5,4.6-17.6,9.2-25   c1-1.6,1.7-3.7,1.9-5.6c0.8-7.1,4.8-12.2,8.3-16.7l0.4-0.6c2.3-3,3.8-6.2,4.5-9.7c1.1-5.8,3.1-11.8,6.1-18.1c-0.8-2-0.9-4.8,2-7.8   c2.7-2.8,4.3-6.7,6-10.8l0.5-1.3c0-0.1,0-0.3,0-0.4c0-0.5,0-1.1,0-1.8c0-0.4,0.1-0.8,0.1-1.3c0.1-1.5,0.2-3.1,0.6-4.8   c0.5-2,1.1-3.9,1.7-5.7c0.4-1.2,0.8-2.4,1.1-3.6c0.8-2.8,2-5.9,5-8.1c0.6-0.5,1.3-0.8,2-1.2c5-2.2,9.8-2.9,14.6-2   c5.3,1,7.4,5.1,8,6.5c0.5,1,1,2.1,1.5,3.1c0.4,0.8,0.7,1.6,1.1,2.4c2.7,5.7,2.6,10.8-0.3,15.1c-1.8,2.8-3.9,5.3-5.9,7.8l-1.2,1.5   c-0.4,0.5-0.8,0.9-1.3,1.2c-1.3,0.9-2.7,1.4-4.1,1.4c-0.2,0.3-0.4,0.6-0.6,0.9c-0.3,0.5-0.6,0.9-0.7,1.2c-0.3,0.8-0.7,1.5-1,2.3   c-0.9,2-1.7,3.8-2.1,5.6c-0.3,1.3-0.5,2.6-0.7,4c-0.8,4.3-1.6,9.2-4.4,13.7c-1.4,2.3-2.2,4-2.2,5c0,4.7-2.2,7.7-4,10.2l-0.3,0.4   c-0.1,0.2-0.3,0.7-0.2,0.9c0.2,2.2,0,5.5-3,8.3c-3.6,3.3-6,6.8-7.4,10.7c-0.9,2.5-2.1,5.4-4.2,7.8c1.2,2.1,1.2,4.7-0.1,7.1   c-0.5,0.9-1,1.7-1.4,2.4c-0.4,0.6-0.8,1.2-1,1.7c-0.1,0.2-0.2,0.5-0.3,0.7c-0.2,0.4-0.5,1-0.6,1.4c0.9,7-1.7,12.5-3.8,16.1   c-0.3,0.5-0.5,1.1-0.8,1.8c1.3,0.6,2.6,1.2,3.8,1.8c4.2,2.2,8.1,4.9,11.6,7.9c0.6-0.6,1.2-1.1,1.7-1.7c4.8-4.9,9.7-10,14.8-15.6   c0.5-0.6,1.1-1.4,1.7-2.2c1-1.5,2.2-3.2,3.9-4.6c5.6-4.8,11.4-9.3,17.1-13.7l1.9-1.5c0.9-0.7,1-0.9,1-1.1l0.2-0.7   c0.6-2.2,1.5-5.4,4.5-7.7c0,0,0-0.1,0-0.1c0.7-2.4,2.1-4.3,4-5.7c1-0.7,2.1-1.3,3.4-1.7c0.5-0.2,1-0.3,1.5-0.5   c1.7-0.6,3.4-1.2,5.2-1.5c6.5-1.4,10.2,1.1,11.8,2.8c1.6,1.6,4,5.3,2.5,11.7c-0.6,2.9-1.5,5.6-2.3,8.3l-0.6,1.9   c-1,3.3-2.7,5.8-5,7.5c-2.1,1.5-4.6,2.3-7.4,2.4c-0.8,0-1.3,0.2-1.9,0.7c-0.4,0.3-0.7,0.6-1.1,1c-1.3,1.7-2.7,3.2-4.2,4.9   c-1.2,1.4-2.5,2.8-3.7,4.2c-2.1,2.4-4.3,4.8-6.4,7.2c0,0.1-0.1,0.2-0.1,0.2c-0.1,0.3-0.3,0.8-0.6,1.3l-0.2,0.4   c-0.4,0.7-0.9,1.7-1.8,2.6c-4.7,4.9-8.9,9.2-12.7,13.1l-0.4,0.4c-2.2,2.3-4.5,4.6-7,6.8c-0.8,0.7-1.7,1.5-2.5,2.2   c3,5,5.8,10.1,8.4,15.3c0.1,0.2,0.2,0.5,0.3,0.7c2.8-1.1,5.6-2.2,8.3-3.3c2.6-1.1,5.3-2.2,8-3.4c4.4-1.9,9-3.9,13.7-5.6   c4.5-1.6,9.2-2.9,13.7-4.2c2.2-0.6,4.5-1.3,6.7-1.9c1.3-0.4,2.6-0.8,3.8-1.4c4.2-2.2,10-4.8,16.8-5c3-0.1,5.4-0.7,7.6-1.8   c4.6-2.5,8.3-4.2,11.8-5.5c2.1-0.8,4.1-1.2,6.1-1.7c1.8-0.4,3.4-0.8,4.9-1.3c6.5-2.4,12.9-1.6,19.5,2.5l0.8,0.5l4.8,6.6l0.2,1.1   C511.1,219.6,512.4,226.3,507.6,231.9z"
   id="path1408"
   style="fill:#bf9eca;fill-opacity:1" />
</g>
<path
   class="st2"
   d="M458.2,429.6c-3.1,2-6.4,3.2-10.2,2c-0.5-0.2-1.1-0.2-1.4-0.5c-3.9-3.9-8.8-7.1-9.7-13.3  c-0.4-2.9-0.9-5.8-1.4-8.7c-0.4-2.4-2-4-3.8-5.5c-0.7-0.5-0.9-1.5-1.4-2.3c-0.5-1-0.7-2.2-1.4-3c-2.9-3.1-5.8-6.1-8.8-9.1  c-2.5-2.5-5.2-4.8-7.7-7.3c-0.9-0.9-1.5-2-2.2-3.1c-1.2-1.6-1.9-3.9-3.5-4.8c-4.4-2.6-7.1-6.7-10.7-10c-2-1.9-4.1-3.8-6.1-5.8  c-0.4-0.4-0.6-1.1-0.8-1.7c-0.8-3-2.2-5.6-4.8-7.4c-1.2-0.8-2.5-1.8-3.1-3c-1.9-3.8-5.1-6.6-8.4-8.7c-3.8-2.4-7.2-5.8-12.3-5.8  c-3.1,0-7.4,3.2-8.6,5.8c-1,2.2-1.7,4.6-2.3,7c-1.2,4.7,0.6,9,2,13.3c1.3,4.1,3.5,7.9,5.3,11.8c0.5,1.2,0.9,2.4,1.3,3.6  c0.7,2,1.3,4.1,2,6.1c0.2,0.6,0.5,1.2,0.5,1.9c0.5,7.1,2.8,13.6,5.5,20.1c0.7,1.7,1.3,3.5,1.9,5.3c1.1,3,2.1,5.9,3.3,8.9  c1.1,2.9,0.6,5.7-1,8.2c-1.1,1.8-2.2,3.5-3.4,5.2c-0.4,0.5-1.1,1.2-1.7,1.2c-3,0.2-6.1,0.5-9,0.2c-1.5-0.2-3.4-1.3-4.3-2.5  c-3.9-5.2-6.5-10.8-6.2-17.6c0.1-3.3,0.7-6.5,0.9-9.7c0.2-4.2-1.1-8.5-1.7-12.7c-0.2-1.4-0.5-2.8-0.2-4.1c0.4-1.9-0.2-3.3-1.4-4.6  c-1.8-1.9-2.9-3.9-2.7-6.7c0.1-1.5-0.5-3.1-1-4.6c-1.9-5.4-3.8-10.7-5.8-16.1c-0.9-2.4-1.9-4.8-2.9-7.2c-1.9-4.5-0.4-8.4,2.6-11.8  c2.1-2.4,4-4.9,7.1-6.2c0.8-0.3,1.7-1,2.2-1.7c2.3-3.2,5.7-4.9,8.9-7c2.1-1.4,3.7-3.7,5.6-5.5c1.5-1.3,3.2-2.4,4.7-3.7  c1.1-1,2.2-2,3-3.2c2.8-4.1,5.2-8.5,8.2-12.4c2.2-2.8,3.6-5.8,4.4-9.2c0.2-0.9,0.4-1.9,0.9-2.6c4.4-7,4.8-14.5,3.4-22.5  c-0.5-3-0.1-6.1-0.2-9.2c0-0.9-0.2-1.7-0.4-2.5c-1.6-6.1-3-12.3-5.1-18.3c-1-2.8-3.2-5.2-4.8-7.8c-0.4-0.7-1.1-1.2-1.3-2  c-1.3-4.3-4-7.3-7.9-9.4c-0.4-0.2-0.8-0.4-1-0.8c-3.6-5.4-9.3-8.1-14.8-10.6c-7.7-3.6-15.7-6.6-23.8-8.8  c-10.1-2.7-20.5-3.3-30.8-0.6c-4.7,1.2-9.6,2.1-13.8,4.2c-4.2,2.1-7.8,5.5-11.5,8.5c-0.7,0.6-0.8,1.8-1.4,2.6  c-0.8,1.1-1.5,2.7-2.6,3.2c-3.4,1.6-5.5,4.3-7.2,7.3c-2,3.4-3.6,6.9-5.2,10.4c-0.6,1.3-0.7,3-0.4,4.4c0.8,2.9,0.1,5.3-1.4,7.8  c-3.4,5.3-3.6,11.2-3.2,17.3c0.4,5.7,0.7,11.4,0.8,17c0.1,2.9,1.3,5.3,2.3,7.9c3.1,8.1,9.8,12.7,15.7,18.3c3.1,3,6.3,5.9,9.4,8.9  c0.3,0.2,0.6,0.5,0.9,0.6c4.4,1,7.9,4.4,12.3,5.2c5,0.9,10.4,2.2,15.1-1.6c0.6-0.5,1.6-0.6,2.5-0.6c1.7-0.1,3.6,0.4,4.9-0.3  c5.3-2.7,11.8-3.1,15.6-8.7c1.7-2.5,4-4.5,6.1-6.7c4.2-4.2,7.4-9.1,9.7-14.5c1-2.4,0.7-5.4,1.3-8c0.2-1.2,1.1-2.3,1.4-3.6  c0.4-1.2,0.9-2.5,0.6-3.7c-0.8-3.8-1.3-7.8-3-11.3c-2.4-5-4.5-10.4-10-13.4c-3.8-2.1-7.1-5.1-11-7.1c-3.3-1.7-7.1-2.6-10.7-3.8  c-0.9-0.3-1.9-0.3-2.8-0.1c-7.6,2.3-14,5.8-17.1,13.9c-1.4,3.7-2.1,7.3-2.5,11.1c-0.2,1.5,0.1,3.2,0.8,4.5  c3.8,7.2,9.3,12.5,17.8,13.5c1,0.1,2.2-0.1,3-0.7c2.6-2,3.5-5.4,2-8.3c-1.2-2.2-2.6-4.3-4.4-6c-2.7-2.7-2.2-7.1,1.3-8.6  c3.5-1.4,7.1-1.3,10.6-0.2c2.4,0.7,4.2,2.3,5,4.8c1.1,3.5,2.4,6.9,3.4,10.5c1.9,7.1-1.1,12.6-5.8,17.6c-1.1,1.2-2.3,2.4-3.2,3.8  c-2.9,4.2-7.1,5.4-11.9,3.8c-3.2-1.1-6.6-2-10-2.7c-5.5-1-9.2-4.5-12.8-8.3c-1.7-1.8-3.3-3.8-5.3-5.3c-5.2-4-6.6-9.6-7.4-15.6  c-0.2-1.8-1-3.7-1-5.5c0-2.8,0.5-5.5,0.9-8.3c0.7-4,2.2-7.5,5-10.6c1.2-1.3,1.6-3.3,2.3-5.1c1.7-4.4,4.5-7.5,9.1-9.1  c1.6-0.5,2.9-2.3,3.9-3.7c0.9-1.2,1.7-2,3.2-2.2c5.7-0.6,11.3-1.3,17-1.7c2.7-0.2,5.5,0,8.1,0.6c2.3,0.5,4.4,1.8,6.5,2.8  c2.5,1.2,4.9,2.5,7.4,3.6c4.5,1.9,7.2,5.7,10.3,9c2.8,3.1,5.8,6,8.6,9.1c1.1,1.2,2.1,2.7,2.5,4.2c1.3,4,2.2,8.1,3.4,12.1  c1.6,5.2,0.2,10.5,0.4,15.7c0.3,8.4-3.9,15.2-7,22.4c-1.4,3.2-2.8,6.4-4.5,9.4c-1.3,2.3-3,4.5-4.8,6.5c-4.2,4.7-8.4,9.3-12.8,13.8  c-3.6,3.7-8.2,5.8-12.9,7.8c-0.9,0.4-1.8,0.8-2.8,1.2c-1.9,0.7-2.3,2.1-2.3,4.1c0,4.3-0.4,8.6-0.7,12.9c0,0.5-0.3,1-0.3,1.5  c-0.1,11.1-0.3,22.2-0.3,33.3c0,2.5,0.6,5,0.8,7.5c0.3,3.7,0.3,7.3-1.1,10.9c-0.8,2.2-0.8,4.7-1.2,7c-1.5,8.1-2.2,16.2-1,24.5  c0.3,1.7,1.1,3.4,1.2,5.1c0.2,2.6-0.1,5.3-0.1,7.9c0,2.9,1.9,5.9,4.7,6.5c3.5,0.7,4.3,3.5,5.5,6c1.2,2.5,2.4,5.3,2.3,8  c0,2.5-1.3,5.2-2.7,7.5c-1.2,2-3.2,3.4-4.8,5.2c-2.4,2.7-5.3,2.8-8.5,1.8c-1.4-0.4-3-0.7-4.5-0.6c-7.1,0.3-12-3.8-13.1-10.7  c-0.9-5.6-0.2-10.8,2.2-16.2c2.3-5.3,3.7-11.1,2.4-17.2c-1.6-7.4-2-14.8-0.5-22.3c0.5-2.7,0.3-5.6,0.1-8.4c-0.5-7-1.2-14,0.9-21  c0.8-2.6,0.8-5.4,1.1-8.1c0.7-5.8,1.6-11.7,2.1-17.6c0.6-7,0.9-14,1.3-21.1c0.1-2.5-0.4-3-2.8-3.5c-3.4-0.7-6.7-1.5-10-2.3  c-3.2-0.8-4.8-0.1-6.2,2.9c-1.3,2.7-2.4,5.4-3.6,8.1c-1.8,4-3.7,8-5.3,12c-1,2.6-1.4,5.4-2.2,8.1c-1,3.4-2.2,6.7-3.2,10  c-0.6,2-0.8,4.2-1.5,6.2c-1.1,2.9-2.5,5.7-3.8,8.5c-3.8,8.9-7.6,17.9-11.3,26.8c-0.5,1.1-0.5,2.4-0.7,3.6c-0.6,3.5-1.1,7.1-1.6,10.7  c-0.3,1.8-0.8,3.5-1.1,5.3c-0.9,6.3-6.9,9.5-11.3,8.3c-5.6-1.4-9-4.9-10.8-10.2c-1.1-3.3-1.6-6.6-1.1-10c0.5-4.1,4.1-8.1,8.2-8.9  c4.1-0.8,4.6-1.2,5.3-5.3c0.8-4.2,0.8-8.7,3-12.5c5.4-9.3,7.4-19.8,10.5-29.9c1.2-3.8,2.9-7.2,4.6-10.6c0.9-1.9,1.5-3.9,2.3-5.8  c0.1-0.4,0.3-1,0.1-1.2c-1.6-2.2-0.1-4.1,0.7-6c1.8-4.4,3.8-8.7,6.6-12.6c1.9-2.6,1.3-4.1-1.8-5.1c-1.7-0.6-3.5-0.9-5.2-1.5  c-2.1-0.7-3.7-0.1-5,1.5c-2.4,3-4.8,6-7.2,8.9c-0.6,0.8-1.3,1.6-2.1,2.2c-7.3,5.9-14.7,11.8-21.9,17.8c-4.8,4-9.5,8.1-14.1,12.4  c-2.4,2.2-4.4,4.9-6.7,7.3c-0.7,0.8-1.6,1.3-2.5,2c-0.5,0.3-1.1,0.6-1.4,1c-3.7,5-9.1,8.5-12.3,14.2c-1.8,3.2-3.2,6.1-3.4,10.1  c-0.1,3.4-2.5,6.8-4,10.1c-0.2,0.4-0.9,0.6-1.4,0.9c-0.9,0.5-2.1,0.8-2.6,1.5c-1.6,2.4-4,2.7-6.5,3c-1.6,0.2-3.1,1-4.7,1.4  c-1,0.2-2.4,0.5-3,0c-2.8-2.3-5.7-4.6-7.9-7.5c-2.4-3.2-2.5-7-0.4-10.6c1.6-2.7,3.2-5.3,5.1-7.8c2.5-3.3,6.5-4.5,10.1-6  c3.7-1.5,6.6-3.3,8.1-7.2c0.5-1.2,1.9-2.2,3.1-2.8c3.8-2,6.9-4.8,9.8-8c2.6-2.9,5.6-5.5,8.5-8.3c3.5-3.5,7.3-6.7,9.8-11.2  c1.7-3,3.9-5.7,6.8-7.8c1.7-1.2,3.2-3,4.4-4.7c2-2.6,4.5-4.4,7.4-5.8c1.9-0.9,3.7-2.2,5.5-3.4c2.8-1.8,5.6-3.5,8.3-5.4  c1.7-1.2,2.8-2.7,1.5-5c-0.3-0.5,0.1-1.5,0.5-2.1c1.4-1.8,1.4-3.5,0.3-5.4c-2-3.7-4-7.4-5.9-11.1c-1-1.9-2.3-2.7-4.6-2.3  c-3.1,0.5-6.2,0.5-9.2,1.1c-2.1,0.4-4,1.4-6,2.3c-4.4,1.9-8.8,3.9-13.2,5.8c-0.6,0.3-1.4,0-2.1,0c-0.7,0-1.5-0.1-2.1,0.1  c-3.1,1-6.3,2-9.3,3.2c-1.5,0.6-2.9,1.5-4.1,2.6c-3.7,3.4-8.4,4.8-12.8,6.5c-3.1,1.2-6.1,2.3-8.7,4.5c-1.4,1.1-3.9,1.2-5.9,1.1  c-2.6,0-5.3-0.3-7.9-1c-2.9-0.8-6.1-1.5-8.3-3.3c-5.5-4.6-5.8-9.9,0.1-15.2c3.4-3,7.3-5,12.4-4.1c2.5,0.4,5,0.9,7.5,1.5  c2.9,0.7,5.7,0.6,8.7-0.6c2.6-1.1,5.8-0.8,8.6-1.7c6.2-2.1,12.9-3,18.6-6.6c2.2-1.3,4.9-1.7,7.2-2.8c2.8-1.3,5.4-3,8.2-4.1  c3.3-1.3,6.7-2.1,10.1-3.2c1.5-0.5,2.9-1.2,4.4-1.8c1.6-0.7,1.9-1.9,1.5-3.4c-1.2-3.6-2.1-7.3-2.2-11.2c-0.1-3.2-2.3-4.2-5.5-4.2  c-3.6,0-7.1-1.1-10.7-1.1c-2.7,0-5.4,0.5-7.9,1.3c-1.7,0.6-3.2,1.2-4.9,0.5c-1.1-0.4-2.2-0.6-3.3-1.1c-2-0.9-4-0.7-6.1-0.4  c-3.7,0.4-7.5,1.1-11.4,0.1c-2.3-0.6-4.8-0.5-7.3-0.7c-4.3-0.3-8.6-0.7-12.8-0.8c-2.3-0.1-4.6-0.1-6.8,0.4c-3.6,0.8-7.1,0.8-10.7,1  c-4.6,0.2-9.3,0-13.7,2.1c-2.6,1.2-5.6,2.4-8.4,2.5c-2.9,0.1-5.9-1.1-8.7-2.1c-5.3-1.9-7.2-5.5-6.1-11.6c0.4-2.1,1-4.2,1.6-6.3  c1.6-5.5,7-9,13.4-6.4c4.5,1.8,8.6,4.3,12.9,6.5c1.1,0.5,2.3,0.9,3.4,1c3.5,0.5,7,0.9,10.5,1.3c1.1,0.1,2.2,0.1,3.2,0.1  c4.2,0,8.3,0.1,12.5,0.1c9.3,0,18.6,0,27.9-0.1c9.2-0.1,18.3-0.5,27.5-0.7c2,0,4,0.2,6,0.4c4.1,0.3,6.2-1.4,6.8-5.5  c0.1-1.1,0.3-2.2,0.3-3.2c-0.1-2.2,0.4-4.1,1.8-5.9c0.7-0.9,0.9-1.8-0.1-2.7c-0.3-0.3-0.7-0.7-0.6-1.1c0.4-3.3-2-4.2-4.3-5  c-1.7-0.6-3.5-1-5.2-1.3c-4.8-0.8-9.3-2.5-13.4-5.2c-3.3-2.2-6.8-3.8-10.7-4.9c-4-1.1-7.6-3.6-11.4-5.5c-0.7-0.3-1.4-0.7-2.1-1  c-4.2-1.7-8.4-3.3-12.5-5.2c-3.5-1.6-6.6-2.5-10.3-0.1c-2,1.3-5,1.4-7.5,1.1c-1.5-0.2-2.9-2.2-4.1-3.5c-2.2-2.3-2.1-2.6-0.4-5.4  c1.1-1.9,2.1-3.9,3.2-5.8c0.4-0.7,1.1-1.4,1.8-1.7c4.4-1.7,8.9-2.5,13.5-0.8c4.4,1.6,8.8,3.3,13.1,4.9c6.3,2.4,12.8,4.5,19,7.1  c8.1,3.5,16,7.3,24,11c4.2,2,8.3,4.1,12.4,6.2c3.2,1.6,4.5,1.2,6.1-1.9c0.3-0.6,0.5-1.2,0.8-1.8c0.9-2.6,2.2-4.8,4.5-6.4  c2.5-1.8,2.5-3.4,0.8-5.9c-3.6-5-8.5-8.7-12.9-13c-3.9-3.7-7.6-7.6-11.4-11.5c-4.9-5.1-9.8-10.3-14.7-15.5  c-6.9-7.3-13.8-14.5-20.6-21.8c-2.2-2.4-3.9-5.2-5.7-7.9c-1.1-1.7-2.5-2.9-4.6-3.4c-0.8-0.2-1.7-0.5-2.4-0.9  c-5-2.4-6.1-4.7-6.1-10.3c0-3.3-0.6-6.6-0.9-9.9c1-1.6,2-3.2,3-4.8c3.7-2.4,8-3.4,11.7-1.2c4.1,2.4,7.1,6.4,7.2,11.7  c0,0.7,0.4,1.3,0.7,2c0.3,1,1,2,1,2.9c-0.1,2.7,1.2,4.7,2.8,6.8c2,2.6,3.7,5.4,5.3,8.3c2,3.7,5.3,6.2,8.4,8.7  c1.6,1.3,3.5,2.3,5.1,3.5c5.5,4.2,9.1,10.3,14.7,14.5c4.8,3.6,8.7,8.3,13.1,12.5c1.1,1,2.5,1.9,3.2,3.1c2.5,4.1,5.1,8,9.6,10.3  c0.7,0.4,1.4,1.1,2,1.7c3.5,3.4,3.5,3.5,7.8,1.6c0.9-0.4,1.7-1.1,2.5-1.7c3.1-2.2,6.3-4.3,9.2-6.7c1.5-1.3,2.3-3.2,3.3-4.9  c0.1-0.2,0-0.6-0.1-0.8c-1.2-2.9-2.4-5.7-3.6-8.6c-0.5-1.2-1.2-2.3-1.7-3.5c-2.1-4.9-4.1-9.8-6.1-14.8c-0.8-1.9-1.8-3.8-2.3-5.8  c-2.1-7.9-4.2-15.8-6-23.7c-0.5-2.3-1.6-3.8-3.5-5.1c-1.7-1.1-3.6-2.4-4.5-4.2c-3.4-6.3-3.3-9.8,3.8-13.6c1.7-0.9,3.5-1.4,5.2-2.2  c5.5-2.4,10.5,0.7,13.5,4.9c1.9,2.6,2.2,6.3,0.3,9.5c-1.5,2.4-1.5,4.9-0.8,7.5c0.9,3.4,2.1,6.7,1.9,10.3c-0.1,2.6,0.3,5.4,1.2,7.8  c1.4,3.7,3.5,7.1,5.2,10.6c0.2,0.4,0.3,0.9,0.3,1.2c-1,5.6,3.2,9.1,5.6,13.1c1.4,2.3,3,4.3,3.7,6.9c0.6,2.1,1.3,4.1,2,6.2  c0.5,1.7,1.5,2.8,3.4,2.6c0.3,0,0.8,0,1,0.2c3.1,2.3,6.1,1.2,9-0.2c1-0.5,2.1-1.8,2.2-2.9c0.3-3.7,0.1-7.5,0.2-11.2  c0-1.3,0-2.8,0.4-4c1.1-3.2,1.4-6.4,0.7-9.8c-0.4-1.6-0.7-3.4-0.4-4.9c1.2-6.2,2.7-12.4,4.2-18.5c1-4.2,2.9-8.3,3.1-12.5  c0.7-13.5,0.8-27.1,1.1-40.6c0.1-3.6-0.2-7.1-2-10.3c-0.2-0.4-0.5-1.1-0.4-1.4c0.9-1.9,1.8-3.8,2.9-5.7c2.3-3.8,6.3-4.2,10.1-4.8  c3.5-0.5,5.3,0.4,7.2,3.5c0.7,1.1,1.4,2.2,2.2,3.1c3.3,3.7,3.7,7.4,1.2,11.8c-0.4,0.6-0.7,1.3-0.9,1.9c-0.5,1.7-1.6,2.8-3.4,3.2  c-2,0.4-2.8,1.6-2.8,3.7c0,3.5-0.3,7.1-0.5,10.6c-0.5,10.3-1,20.6-1.5,30.8c-0.1,2.1-0.5,4.1-1,6.1c-0.9,3.6-2.8,7-1.4,10.9  c0.2,0.6,0.1,1.5-0.2,2.1c-1.2,2.1-0.7,4.3-0.4,6.5c0.4,2.5,1.1,5.3,0.5,7.7c-1.8,7.1-3.2,14.2-1.5,21.5c0.4,1.8,1.3,2.9,2.9,3.3  c4.3,1.2,8.6,2.3,12.9,3.5c1.8,0.5,2.9,0.2,3.9-1.5c4.1-6.3,7.3-13.1,9.6-20.2c1.4-4.4,2.1-9.1,3.8-13.4c3.5-8.7,7.5-17.3,11.2-26  c0.9-2.2,2.6-4.4,1.5-7.1c-1.4-3.4,1.3-9.1,4.8-10.2c5.2-1.6,10.2-3.4,15.7-0.4c1.7,0.9,3.4,1.7,4,3.6c0.7,2.3,1.5,4.7,1.6,7.1  c0,1.2-1,3-2,3.7c-2.2,1.4-4.8,2.2-7.2,3.5c-1.1,0.6-2.4,1.3-2.9,2.4c-2.2,4.2-4.6,8.4-6.1,12.9c-3,8.7-6.4,17.3-10.9,25.4  c-1.2,2.1-1.9,4.5-2.5,6.9c-0.7,2.2-1,4.5-1.5,6.7c-1,4.4-2.1,8.8-3,13.2c-0.2,0.8,0.5,2,1.2,2.6c1.9,1.8,4.1,3.2,6,4.9  c2.3,2,4.1,2.2,6.6,0.6c5.3-3.4,9.3-8.2,12.8-13.2c5.6-7.9,12.1-15,18.8-22c5.6-5.9,11.6-11.4,17.4-17c0.4-0.4,0.9-0.7,1.4-1  c8.3-4.1,14.6-10.8,21.6-16.7c3.8-3.2,6.7-7.6,11.4-9.8c0.7-0.3,1-1.5,1.4-2.3c1.3-2.6,2.1-5.6,3.8-7.9c3.3-4.3,7.5-7.2,13.4-5.7  c0.8,0.2,1.7,0.2,2.5,0.3c1,0.6,2,1.2,2.9,1.8c0.5,0.7,1,1.3,1.6,1.9c2.4,2.6,3.9,8.2,2.6,10.7c-2.5,4.7-6,7.8-11.7,7.1  c-2.9-0.3-4.7,1-6.3,3.3c-2.5,3.6-4.9,7.3-7.8,10.6c-2.2,2.6-4.2,5.5-8,6.3c-4.5,0.9-8.1,3.6-10.9,7.1c-5,6.2-10.7,11.4-17.4,15.6  c-2,1.3-3.9,2.9-5.4,4.6c-3.3,3.9-6.4,8-9.6,12c-0.3,0.4-0.7,0.8-1.1,1c-5.7,3.1-9.3,8.3-13.3,13.1c-2.4,2.9-5,5.7-7.5,8.6  c-1.4,1.7-3.3,3.3-2.8,5.8c0.7,3.5,1.7,6.8,3.7,10c3.6,5.5,8.9,5.3,12.8,3.3c5-2.6,10.2-4.7,15.6-6.2c10.9-3.1,21.2-7.4,31.5-12.1  c3-1.4,5.2-3,6.7-6c2.1-4.2,8.4-6.8,13-5.6c2.6,0.7,5.2,1.4,7.8,2.2c0.7,0.2,1.5,0.6,2,1.1c2.1,2.2,4.7,4.2,4.3,7.8  c-0.1,0.7,0.4,1.5,0.6,2.3c0.2,0.7,0.4,1.4,0.3,2.1c-0.6,3.9-0.8,7.9-5.6,9.7c-1.4,0.5-2.6,1.4-4.1,1.1c-2.3-0.4-4.6-1-6.9-1.5  c-1-0.2-2.3,0.2-2.9-0.3c-3.4-2.5-6.1-0.7-8.9,1c-2,1.2-4.1,2.4-6.1,3.6c-2.3,1.3-4.7,2.5-7.2,3.5c-1.9,0.8-3.9,1.4-5.9,1.8  c-3.1,0.7-6.3,1-9.3,1.8c-3.2,0.9-6.2,2.6-9.5,3.5c-3.8,1.1-7.3,2.6-10.4,5.2c-1.1,0.9-2,1.9-3.2,2.6c-1.6,1-2,2.2-1.5,4  c1,3.5,1.9,7,1.1,10.7c-0.1,0.7,0.1,1.4,0.3,2.1c0.4,1.3,1.5,1.9,2.5,1.1c1.8-1.4,3.6-0.8,5.3-0.3c3.4,0.9,6.8,1,10.3,0.5  c2.1-0.3,4.3-0.3,6.4-0.2c1.9,0,3.9,0.7,5.7,0.3c8.1-1.8,16.2-2.2,24.5-0.7c2.6,0.5,5.5,0.3,8.1-0.4c5.8-1.6,11.1,0.1,16.5,1.7  c4.3,1.3,8.7,1.5,13,0.7c6.1-1.2,12.2-1.4,18.4-0.9c0.8,0.1,2-0.3,2.5-0.8c1-1.4,1.9-1.2,3.2-0.6c5.1,2,10.5,1.8,15.8,1.9  c1.1,0,2.1-0.7,3.2-1c1.7-0.5,3.4-1.2,5.1-1.4c3.1-0.4,6.3-0.5,9.4-0.9c2.6-0.3,5.1-0.3,7.1,1.6c2.9,2.8,5,6.1,5.8,10.2  c0.5,2.3-0.4,3.9-1.8,5.5c-1.3,1.5-2.8,2.9-4.1,4.4c-2.5,2.7-5.5,4.6-9.3,3.8c-3.6-0.8-7.2-1.9-10.8-3c-0.5-0.2-1.3-0.8-1.3-1.2  c0.1-2.7-1.8-2.7-3.6-3c-1.1-0.1-2.3-0.5-3.4-0.5c-3.1-0.1-6.3-0.4-9.4,0.1c-5.5,0.9-10.8,2.8-16.6,1.8c-2.6-0.5-5.7-0.8-8.1,0.1  c-3.1,1.2-5.5,0.5-8.3-0.2c-1.3-0.3-3.1-0.1-4.3,0.5c-1.6,0.8-2.9,1.1-4.5,0.3c-4.7-2.2-9.6-3.5-14.8-3.4c-3,0.1-6,0-8.8-1.6  c-1.2-0.7-2.7-0.2-3.2,1.3c-0.5,1.5-1.5,2-2.8,1.8c-1.6-0.2-3.2-0.7-4.8-0.8c-1.6-0.1-3.5-0.4-4.7,0.3c-4.3,2.5-8.7,2.7-13.4,2  c-1.7-0.2-3.5-0.1-5.3,0c-1.1,0-2.1,0.4-3.2,0.4c-3-0.1-6.1-0.3-9.1-0.4c-0.7,0-2,0.3-2.1,0.6c-0.2,2.3-2,3.7-3,5.5  c-0.3,0.5-0.5,1.3-0.3,1.9c1.1,3,0.1,5.6-1.3,8.3c-0.9,1.9,0,3.2,2.2,3.7c0.8,0.2,1.5,0.8,2.3,1.3c0.7,0.5,1.3,1.2,2,1.6  c4,1.9,8,3.9,12.1,5.6c6.6,2.8,13.3,5.4,20.1,8c2.5,1,5.5,1.1,7.8,2.4c7.1,3.7,14,7.8,20.9,11.8c1.4,0.8,2.7,1.4,4.4,1.2  c2.3-0.2,4.7-0.8,6.8,0.9c0.7,0.5,1.8,0.5,2.7,0.4c2.2-0.2,3.9,0.7,5.3,2.3c1.4,1.7,2.9,3.2,4.1,5c3.6,5.4,1.7,9.8-4.7,10.9  c-3.3,0.5-6.7,0.8-10.1,1.1c-4,0.4-7-1-8.7-4.9c-1.1-2.5-3.1-4.1-5.8-4.9c-2-0.6-4-1.3-5.9-2c-4.9-1.7-9.7-3.5-14.6-5.2  c-0.7-0.3-1.6-0.1-2.4-0.3c-0.8-0.1-1.6-0.1-2.3-0.4c-5.6-2.3-11.2-4.5-16.8-6.9c-3.1-1.3-6.1-2.6-9.1-4c-4.8-2.4-9.6-5.1-14.4-7.5  c-3.4-1.7-4.4-1.3-6.4,1.8c-2.2,3.3-4.4,6.8-7.2,9.7c-3.8,4-4,3.8-0.4,7.8c0.1,0.1,0.2,0.2,0.3,0.3c4.6,4.9,9.1,9.9,13.8,14.8  c5.3,5.6,11,10.8,16.1,16.5c4.6,5.2,8.7,10.9,13,16.4c1,1.3,2.1,2.6,3.4,3.6c3.9,3.4,7.4,7,9.5,11.9c1.3,3.1,3.2,5.9,5.9,8.2  c3.1,2.6,6.2,5.4,8.9,8.4c2.5,2.8,4.3,6.3,6.9,9.1c3.9,4.3,4.7,9.2,3.7,14.6C460.3,426.2,459.2,427.9,458.2,429.6z"
   id="path1412" />
</svg>
