<?xml version="1.0" encoding="UTF-8" standalone="no"?>
<!-- Generator: Adobe Illustrator 25.2.0, SVG Export Plug-In . SVG Version: 6.00 Build 0)  -->

<svg
   version="1.1"
   id="Layer_1"
   x="0px"
   y="0px"
   viewBox="0 0 512 512"
   style="enable-background:new 0 0 512 512;"
   xml:space="preserve"
   sodipodi:docname="cs-starslinger.svg"
   inkscape:version="1.1.2 (0a00cf5339, 2022-02-04)"
   xmlns:inkscape="http://www.inkscape.org/namespaces/inkscape"
   xmlns:sodipodi="http://sodipodi.sourceforge.net/DTD/sodipodi-0.dtd"
   xmlns="http://www.w3.org/2000/svg"
   xmlns:svg="http://www.w3.org/2000/svg"><defs
   id="defs1700" /><sodipodi:namedview
   id="namedview1698"
   pagecolor="#ffffff"
   bordercolor="#666666"
   borderopacity="1.0"
   inkscape:pageshadow="2"
   inkscape:pageopacity="0.0"
   inkscape:pagecheckerboard="0"
   showgrid="false"
   inkscape:zoom="1.5273438"
   inkscape:cx="-194.7826"
   inkscape:cy="255.99999"
   inkscape:window-width="1850"
   inkscape:window-height="1043"
   inkscape:window-x="0"
   inkscape:window-y="0"
   inkscape:window-maximized="1"
   inkscape:current-layer="Layer_1" />
<style
   type="text/css"
   id="style1687">
	.st0{fill:#231F20;}
</style>
<g
   id="g1695"
   style="fill:#6d6fb3;fill-opacity:1">
	<path
   class="st0"
   d="M109.2,182.6l1.8,31.8l14.6-28.3l11.7,5.9c2.4-2,4.9-4,7.5-6l-7.9-12.3l26.6-17.5l-31.8,1.5l-1.8-31.8   l-14.6,28.3l-28.5-14.3l17.2,26.8l-26.7,17.5L109.2,182.6z"
   id="path1689"
   style="fill:#6d6fb3;fill-opacity:1" />
	<path
   class="st0"
   d="M328.6,300.7c-10-7-4.2-22.7,7.9-21.7l27.8,2.3c0.9,0.1,1.8,0,2.8-0.1c0.9-0.1,1.7-0.5,2.3-1.1   c2.2-2,4.3-4,6.4-6.1c0.7-0.7,1.1-1.5,1.3-2.4c0.1-0.4,0.1-0.8,0.2-1.1l2.6-27.8c1.1-12.1,17.5-15,22.7-4l0,0   c0.1,0.1,0.2,0.2,0.4,0.1c0,0,0.1-0.1,0.1-0.1c3.6-6.6,6.5-13.6,8.6-20.8c5.7-22.2-3.9-44.8-38.1-56.1   c-29.4-10.2-63.1-4.1-95.3-3.4c42.9-20.7,111-24.4,148.9-3.3c40,23.1,32.5,57.7,20.9,87.8c31.9-37.2,37-88.6-27.5-109   C314,100.1,187,158.3,130.6,214c-2.2,2.2-4.4,4.4-6.4,6.6c-30.7,32.8-50.3,81.1,10.5,102.9c29.4,10.2,63.1,4.1,95.3,3.4   c-42.9,20.7-111,24.5-148.9,3.3c-40-23.1-32.5-57.6-20.9-87.8C35.3,272.7,29,308.8,57.9,336c20.6,18.9,59.4,27.8,99.1,25.4   c67.4-4.7,130.8-25.7,178-55.4c0.2-0.2,0.3-0.5,0.1-0.7c0-0.1-0.1-0.1-0.1-0.1L328.6,300.7z M328.6,217.6c-1-0.5-3.9,0.9-3.8,1.4   c-1.3,30.4-40,61.2-91.8,71.8c-6.3,1.3-12.7,2.2-19.2,2.6c-34,3.5-58-13.1-55.7-31.4c2.3-18.9,16.5-37.2,40.9-51.4   c-15.2,17.3-39,39.1-17.8,56c1,0.5,2.9-0.3,3.8-1.4c2-10.6,4.2-20.1,12.2-29.6c21.5-24.9,67.8-47.6,116.3-44.7   c26.8,2.1,38.9,17,38.2,31.3c-2.4,18.4-16.5,37.2-40.9,51.4C326.1,256.3,349.8,234.5,328.6,217.6L328.6,217.6z"
   id="path1691"
   style="fill:#6d6fb3;fill-opacity:1" />
	<polygon
   class="st0"
   points="391.8,243.9 413.8,290.6 460.5,269 431.2,311.3 473.3,341.1 421.9,336.8 417.2,388.1 395.2,341.5    348.4,363.1 377.8,320.7 335.7,291 387,295.3  "
   id="polygon1693"
   style="fill:#6d6fb3;fill-opacity:1" />
</g>
</svg>
