<?xml version="1.0" encoding="UTF-8" standalone="no"?>
<!-- Generator: Adobe Illustrator 25.2.0, SVG Export Plug-In . SVG Version: 6.00 Build 0)  -->

<svg
   version="1.1"
   id="Layer_1"
   x="0px"
   y="0px"
   viewBox="0 0 600 600"
   style="enable-background:new 0 0 600 600;"
   xml:space="preserve"
   sodipodi:docname="cs-fire-knight.svg"
   inkscape:version="1.1.2 (0a00cf5339, 2022-02-04)"
   xmlns:inkscape="http://www.inkscape.org/namespaces/inkscape"
   xmlns:sodipodi="http://sodipodi.sourceforge.net/DTD/sodipodi-0.dtd"
   xmlns="http://www.w3.org/2000/svg"
   xmlns:svg="http://www.w3.org/2000/svg"><defs
   id="defs1201" /><sodipodi:namedview
   id="namedview1199"
   pagecolor="#ffffff"
   bordercolor="#666666"
   borderopacity="1.0"
   inkscape:pageshadow="2"
   inkscape:pageopacity="0.0"
   inkscape:pagecheckerboard="0"
   showgrid="false"
   inkscape:zoom="1.3033333"
   inkscape:cx="-228.26088"
   inkscape:cy="299.23274"
   inkscape:window-width="1850"
   inkscape:window-height="1043"
   inkscape:window-x="0"
   inkscape:window-y="0"
   inkscape:window-maximized="1"
   inkscape:current-layer="Layer_1" />
<g
   id="g1196"
   style="fill:#cd2127;fill-opacity:1">
	<path
   d="M344.6,339.2c-7.8,8-15.7,16.1-23.6,24.3c-17.8-17.7-35.7-35.4-53.5-53.1c-27.7-3.9-54.1-11.3-78-22   c-42.6,43.2-85.2,86.3-127.6,129.4c6.4,6.5,12.3,12.5,19.8,20.2c3.3-4.7,14.9-17.9,18.3-22.7c29.8,29.5,58.1,57.5,87.1,86.3   c-3.9,3.4-16.5,15.5-20,18.6c6.7,6.7,12.7,12.8,19,19.2c58.1-58.9,116.3-117.9,174.4-176.9C355.2,354.7,349.9,347,344.6,339.2z    M205.9,481c-28.4-28.4-56.6-56.5-84.5-84.2c13-13.7,23-24.3,37.1-39.2c28.5,28.5,56.6,56.7,84.4,84.5   C230,455.7,220,466.3,205.9,481z M263.3,422.2c-28.1-28.1-56.2-56.2-84.4-84.4c13.5-14,23-24.1,37.1-38.7   c28.5,28.5,56.7,56.6,84.3,84.2C287.3,396.9,277.6,407.2,263.3,422.2z"
   id="path1186"
   style="fill:#cd2127;fill-opacity:1" />
	<path
   d="M518.8,163c-3.5,4.2-14.1,15.6-17.8,20.1c-29.2-29.1-57.5-57.2-86.8-86.5c3.7-3,15.1-13.5,19.2-16.9   c-7-6.8-13-12.6-19.5-18.9C401,73.9,388.1,87,375.1,100.2c-2.6,2.7-5.3,5.4-7.9,8.1c-21.2,21.5-42.5,43.1-63.7,64.6   c5,7.9,10.3,15.7,15.6,23.4c7.2-7.3,10.8-11,18.2-18.5l83.9,83.9c-12,12.2-20.9,21.3-33.8,34.5c5.2,7.6,10.5,15.3,15.8,23.2   c45.1-45.7,90.1-91.4,135.1-137C531.8,175.9,525.7,169.8,518.8,163z M441.4,241.5c-28-28-56.1-56.2-84.2-84.4   c13.1-13.5,23.9-24.6,38.2-39.3c28.1,28.2,56.2,56.5,84.2,84.6C466.6,215.7,455.7,226.9,441.4,241.5z"
   id="path1188"
   style="fill:#cd2127;fill-opacity:1" />
	<g
   id="g1194"
   style="fill:#cd2127;fill-opacity:1">
		<path
   d="M280.6,138.8c-2.2,1.6-4,2.9-5.9,4.2c-14.3,9.7-28.4,19.6-42.8,29c-11.4,22.4-14.3,57.3,70.5,126.4    c-159.7-5.4-256.8-125.2-201.9-233c0.7-1.4,12.7,35.9,32.3,49.6c7.7,5.4,18.1,4.9,25.6-0.7c20.1-15,34.1-52.2,34.7-52.6    c0.6-0.4,32.6,1.3,54.9-0.7c25.1-2.2,61.1-1.5,92.7,27.8c-19.9-3.2-42.2,2.6-49.2,7.3C283.2,101.6,272.1,117.2,280.6,138.8z"
   id="path1190"
   style="fill:#cd2127;fill-opacity:1" />
		<path
   d="M251.7,180.2c8.6-5.8,17.8-12.1,26.5-18c0.6-0.4,1.5-0.2,1.8,0.4c14.4,26.2,32.3,49.5,48.6,73.7    c50.6,75,133.4,195.4,184.3,270.3c5.9,8.7-2.4,19.9-2.4,19.9l-10,12.7c-0.5,0.7-1.6,0.7-2.1-0.1c-4.5-6.6-60.3-89.1-62.1-91.7    c-53.5-78.7-106.8-157.5-160.6-236c-7.1-10.4-16-19.6-24.4-29.5C251,181.5,251.1,180.7,251.7,180.2z"
   id="path1192"
   style="fill:#cd2127;fill-opacity:1" />
	</g>
</g>
</svg>
