<?xml version="1.0" encoding="UTF-8" standalone="no"?>
<!-- Generator: Adobe Illustrator 25.2.0, SVG Export Plug-In . SVG Version: 6.00 Build 0)  -->

<svg
   version="1.1"
   sodipodi:docname="cs-mirefoot.svg"
   x="0px"
   y="0px"
   viewBox="0 0 600 600"
   style="enable-background:new 0 0 600 600;"
   xml:space="preserve"
   id="svg1478"
   inkscape:version="1.1.2 (0a00cf5339, 2022-02-04)"
   xmlns:inkscape="http://www.inkscape.org/namespaces/inkscape"
   xmlns:sodipodi="http://sodipodi.sourceforge.net/DTD/sodipodi-0.dtd"
   xmlns="http://www.w3.org/2000/svg"
   xmlns:svg="http://www.w3.org/2000/svg"><defs
   id="defs1482" /><sodipodi:namedview
   id="namedview1480"
   pagecolor="#ffffff"
   bordercolor="#666666"
   borderopacity="1.0"
   inkscape:pageshadow="2"
   inkscape:pageopacity="0.0"
   inkscape:pagecheckerboard="0"
   showgrid="false"
   inkscape:zoom="1.3033333"
   inkscape:cx="35.67775"
   inkscape:cy="299.23274"
   inkscape:window-width="1850"
   inkscape:window-height="1043"
   inkscape:window-x="0"
   inkscape:window-y="0"
   inkscape:window-maximized="1"
   inkscape:current-layer="svg1478" />
<path
   d="M276.3,520c-0.8-17.8-1.6-40.2-1.9-49.8c-0.3-9.6-0.7-17.7-1-18.1c-0.3-0.3-2,0-3.8,0.7c-6.9,2.6-14,0.2-15.3-5.2  c-0.6-2.5-1.2-2.7-6.9-2.2c-7.8,0.6-11.9-2.1-11.9-7.9c0-4.6,3.1-8,9.1-10c5.5-1.9,5.7-3.5,0.6-4.3c-6.5-1.1-9.3-3.2-9.3-6.8  c0-3.5,2.7-8.1,6.2-10.6c2.1-1.5,2.1-1.7-0.2-4.6c-3.1-3.9-3-6.6,0.3-10.4c1.8-2.1,4.3-3.3,7.7-3.8c5-0.7,5-0.7,4.3-4.7  c-0.9-4.8,1.4-7.9,7.3-9.9c3.5-1.1,4-1.8,4-5.3c0-3.4-2.2-15.8-3.1-16.9c-0.1-0.2-1.9,0.5-3.9,1.5c-8.6,4.5-17.9,0.6-17.9-7.5  c0-5.1,1.9-7.3,8.8-10.2c4.1-1.7,4.4-2.1,2.7-3.8c-1.7-1.7-2.6-1.5-10.6,2.5c-4.8,2.4-11.6,5.2-15.1,6.2c-3.5,1-9,3.4-12.3,5.2  c-8.8,4.9-14.5,6.5-16.7,4.7c-3.1-2.6-2-9.8,3-19.6c5.4-10.7,8.4-14.4,15-18.5c10.6-6.7,32.7-10.1,42.8-6.6c2.1,0.7,4.1,1,4.5,0.6  c1.3-1.3-7.2-11.8-18-22.2c-10.6-10.1-14.8-15.4-24.9-31.1c-2.9-4.5-5.5-8.4-5.7-8.6c-0.2-0.2-4.1,1.4-8.5,3.7  c-9.3,4.7-18.6,7.3-30.6,8.4c-4.5,0.4-11.6,1.5-15.7,2.5c-7.5,1.7-24.4,2.3-27.9,1c-1-0.4-1.9-1.2-1.9-1.8c0-2.7,8.9-12.9,16.4-18.8  c17.1-13.3,26.8-17.8,48.5-22.4l9.9-2.1l1.5-5.8c0.8-3.2,2.1-9,2.9-12.9c1.4-6.7,3.9-12.1,6.4-13.8c5.7-4,29.2,25.2,38.5,47.8  c2.2,5.4,5.9,7.8,5.9,3.8c0-1.4,1-1.6,4.7-1l4.7,0.8l-0.1-5.2c0-2.8-0.5-8-1-11.5c-0.8-5.4-1.6-7-6.1-11.1  c-7.8-7.2-28.2-19.1-57-33.2c-14.2-6.9-26.1-12.6-26.5-12.6s-5.2-2.2-10.7-4.9c-7.2-3.5-12.4-7.3-19-13.6c-5-4.8-10.9-9.6-13.2-10.8  c-11.2-5.7-23.5-16.6-21.8-19.4c1.5-2.4,13.4-4.6,25.4-4.6c14.2,0,20.9,1.6,29.2,6.9c3.1,2,9,4.5,13.3,5.5c10.5,2.7,14,4.3,20.8,9.4  c6.7,5.1,20.6,18.2,20.6,19.6c0,1,12.8,17.9,14.2,18.9c0.5,0.3,4.3,4.9,8.4,10.2c13.6,17.3,22.3,27.8,22.3,26.8  c0-0.5-0.6-8.4-1.3-17.5l-1.2-16.5l-5.4-8.3c-3-4.6-7.9-11.2-11-14.8c-9.2-10.8-13.8-18-16-24.8c-1.2-3.6-2.9-8.4-3.9-10.6  c-4.1-9.6-0.8-32.3,5.3-36.3c2.6-1.7,3.1-1.5,11.6,4.8c4.9,3.7,9.3,6.6,9.9,6.6c0.6,0,1.6-3.1,2.3-7c1.7-9.8,5.6-16.9,15.5-28.8  c3.1-3.7,6.2-2.4,11.7,4.7c14.6,18.8,18.6,36.9,15.5,69c-1.1,11.2-2,14.3-13,46.3c-2.7,7.7-4.6,14.3-4.3,14.6  c0.3,0.3,1.6,0.2,2.9-0.2c1.5-0.5,4.3-4.7,7.7-11.6c9.5-19.5,19.7-41,19.7-41.7c0-0.7,4.8-7.8,6-8.8c0.4-0.3,3.2-4.6,6.4-9.5  c10.8-16.7,11.9-18.3,15.4-22.3c6.1-6.9,9.2-9.7,16.2-14.3c6.9-4.6,30.2-13.5,40.1-15.4c5.9-1.1,16.9,0.1,18.9,2.1  c1.6,1.6-5,18.8-11.1,28.7c-3.1,5.2-6.9,9.4-11.4,12.7c-3.7,2.7-10.7,8.7-15.5,13.3c-9.3,8.8-20.7,16.9-30,21.4  c-5.8,2.8-7.6,5.3-2.3,3.3c4.1-1.5,4.9-0.6,6.4,7.6c1.3,7.2,0.2,16-3.1,24.7c-0.9,2.5-1.7,4.7-1.7,5c0,0.3,2.5-0.6,5.6-1.9  c11.3-5,28.3-10.1,37.5-11.4c32.1-4.5,45.5-4.6,62.2-0.3c9.6,2.4,28.1,10.4,28.1,12c0,2.6-10.2,6-37.5,12.4  c-17.6,4.1-22.8,6.4-14.7,6.4c13.1,0,35.2,14.7,46.1,30.7c4.1,6,10.7,18,10.7,19.5c0,1.1-7.8,0.7-14.4-0.7  c-3.4-0.7-12.6-4.4-20.4-8.2c-11-5.4-15.9-7.1-21.9-7.7c-4.2-0.4-13.9-2.6-21.5-4.8c-7.6-2.2-14.9-4-16.3-4c-2.3,0-2.3,0.3,1.3,5.3  c2.1,2.9,4.2,5.3,4.6,5.3c1.8,0,5.9,9.6,7.6,17.8c1,4.9,2.7,12.4,3.8,16.8c2,8.5,1.5,16.7-1.2,20.5c-1.4,2-2.1,2-6.7,0.7  c-12.3-3.6-36.9-23.6-44.3-36.1c-2.3-3.9-6.5-9.1-9.3-11.5c-2.8-2.5-7.6-8.2-10.6-12.8c-3-4.5-6-8.3-6.7-8.3c-2.8,0-6,2.8-10.7,9.2  c-2.7,3.7-9,10.8-13.9,15.7c-12.3,12.2-26.5,30.1-25.7,32.4c0.9,2.9,6.3,1.9,11.5-2.1c8.2-6.3,14-8.7,22.9-9.6  c10.3-1,24.3,0.3,25.1,2.3c1.4,3.7-15.9,21.8-20.8,21.8c-0.7,0-1.3,0.5-1.3,1c0,1.5,4.4,2.5,11.6,2.5c7.6,0,43.3,4.2,51.6,6.1  c3.2,0.7,8.5,3.2,11.6,5.5c3.1,2.3,8.5,5.3,11.8,6.7c6.1,2.5,14.3,6.8,22.1,11.5c4.8,2.9,18.9,16.8,18.9,18.6  c0,1.7-12.2,1.5-20.7-0.4c-11.1-2.5-35-9-37.1-10c-3.8-2-27.6-9.6-28.2-9.1c-0.3,0.3,2.1,4.2,5.3,8.6c11.6,15.7,19.2,33.4,19.2,44.8  c0,4.6-0.3,5.3-3.1,5.9c-6.6,1.7-30.3-8.2-47.7-19.9c-19.2-12.9-35.3-29.6-45.6-47.3c-2.5-4.4-4.9-8-5.3-8c-0.4,0-2.7,2.1-5.3,4.7  c-3.6,3.7-4.2,4.7-2.4,4.7c2.1,0,2.1,0.1-0.1,2.5c-1.2,1.4-2.3,4.2-2.3,6.4c0,3.8,0.1,3.9,6.4,4.5c8.9,0.9,14.8,5.7,15.3,12.4  c0.5,6.5-2.9,8.8-12.1,8.4c-3.6-0.2-6.9,0-7.3,0.4c-1.1,1.1,0.7,5.6,2.3,5.6c1,0,1.3,2.3,1,8.3c-0.3,4.5-0.1,8.3,0.3,8.3  c0.4,0,2.3-1.1,4.1-2.4c4.4-3.3,11.2-4.7,16-3.3c3.1,0.8,4.3,2.1,5.8,6c1.8,4.5,1.8,5.1-0.1,8.2c-1.9,3.2-7.8,6.9-11.1,6.9  c-0.8,0,0.2,1.8,2.2,3.9c7.9,8.1,3,16.2-9.8,16.2c-6.4,0-6.5,0.1-6.5,3.2c0,5,1.3,8.6,3,8.6c1.1,0,1.7,3.5,2.1,13.3  c0.7,17.5,3,36.7,4.6,37.6c0.8,0.5,0.8,1,0.1,1.5c-0.7,0.4-1.1,15.5-1.1,39.8c0,21.5-0.2,39.2-0.4,39.5c-0.3,0.3-2.4,0.8-4.7,1.3  l-4.2,0.8L276.3,520L276.3,520z M269,413.3c0-1.6-0.5-3-1.2-3c-1.3,0-1.6,3.9-0.4,5.1C268.8,416.8,269,416.4,269,413.3z   M274.9,296.2c2.6-5.9,3-9.5,1.3-12.2c-1-1.5-1.2-1.5-1.7,0c-2.1,5.9-3.8,17.7-2.5,17.7C272.2,301.7,273.5,299.2,274.9,296.2z   M264.2,277.7c-0.1-5.4,0.4-12.6,1.1-16.1c2.7-13.1,1.2-18.4-6-22.1l-3.6-1.9l0.7,3.4c1.2,5.6,5.3,32.4,6.1,39.7  c0.4,3.7,1,6.8,1.3,6.8C264.2,287.5,264.3,283.1,264.2,277.7z M274.8,263.4c0.2-5.2-0.7-3.2-1.4,3.4c-0.5,4-0.4,4.9,0.3,3  C274.2,268.1,274.8,265.3,274.8,263.4z M278.9,230.9c1.6-10.2,0.8-11.5-1.5-2.3c-1.4,5.7-1.8,13.7-0.7,12.5  C277.1,240.8,278.1,236.2,278.9,230.9z M285,205.2c4.2-9,4.5-11.5,1.2-8.8c-2.9,2.4-8.1,17.8-6,17.8  C280.6,214.2,282.7,210.2,285,205.2z M277.3,193.6c0.1-3.3-2.2,1.9-2.8,6.4l-0.7,5.3l1.8-5.3C276.5,197.1,277.3,194.2,277.3,193.6  L277.3,193.6z M293.2,188c1-1.4,1.8-3.1,1.8-3.7c0-1.4-3.4,1.5-4.8,4.2C288.5,191.6,290.9,191.2,293.2,188z"
   id="path1476"
   style="fill:#e65925;fill-opacity:1" />
</svg>
