<?xml version="1.0" encoding="UTF-8" standalone="no"?>
<!-- Generator: Adobe Illustrator 25.2.0, SVG Export Plug-In . SVG Version: 6.00 Build 0)  -->

<svg
   version="1.1"
   id="Layer_1"
   x="0px"
   y="0px"
   viewBox="0 0 600 600"
   style="enable-background:new 0 0 600 600;"
   xml:space="preserve"
   sodipodi:docname="cs-spirit-caller.svg"
   inkscape:version="1.1.2 (0a00cf5339, 2022-02-04)"
   xmlns:inkscape="http://www.inkscape.org/namespaces/inkscape"
   xmlns:sodipodi="http://sodipodi.sourceforge.net/DTD/sodipodi-0.dtd"
   xmlns="http://www.w3.org/2000/svg"
   xmlns:svg="http://www.w3.org/2000/svg"><defs
   id="defs1628" /><sodipodi:namedview
   id="namedview1626"
   pagecolor="#ffffff"
   bordercolor="#666666"
   borderopacity="1.0"
   inkscape:pageshadow="2"
   inkscape:pageopacity="0.0"
   inkscape:pagecheckerboard="0"
   showgrid="false"
   inkscape:zoom="1.3033333"
   inkscape:cx="-228.26088"
   inkscape:cy="299.23274"
   inkscape:window-width="1850"
   inkscape:window-height="1043"
   inkscape:window-x="0"
   inkscape:window-y="0"
   inkscape:window-maximized="1"
   inkscape:current-layer="Layer_1" />
<style
   type="text/css"
   id="style1607">
	.st0{fill:#231F20;}
</style>
<g
   id="g1623"
   style="fill:#63bd57;fill-opacity:1">
	<g
   id="g1611"
   style="fill:#63bd57;fill-opacity:1">
		<path
   class="st0"
   d="M232.9,278.7c-0.2-0.2-0.3-0.3-0.5-0.5c-12.1-11.1-25.3-18.7-40-23.7c-0.1,0-0.6-0.2-1.3-0.4    c-12.9-4.3-26.5-5.9-40.1-4.7c-4.8,0.4-8.4,0.9-9.9,1.2c-37.3,6.1-64.7,25.9-80.5,60.3c-3.5,7.5-5,16-6.9,24.2    c-0.3,1.2-0.5,2.3-0.8,3.4c-0.5,2-0.1,4.3-0.1,6.9c0,0,0,0,0.1,0c10.7,0.3,20.8,4.6,28,10.3c4.8,3.8,9.1,10.8,9.5,15.2    c0.9,8.9-1.7,16.5-7.3,23.2c-3.2,3.8-7.1,6.2-11.5,7.8c-3.5,1.3-7.3,2-11.3,2.5c1.5,6.4,3.1,12.8,4.9,19.1    c6.8,24.9,15.1,49.1,25.2,73.2c5.3-9.3,10.6-18.6,16.4-28.6c9.2,12.3,17.9,23.9,26.7,35.6c0.4-0.1,0.8-0.2,1.2-0.3    c1.4-12.2,2.7-24.4,4.2-37.4c11,10,21.4,19.4,31.8,28.9c0.6-0.3,0.6-0.3,1.2-0.5v-42.5c5.3,3.2,10.4,6.3,15.5,9.5    c8.2,5,16.3,9.9,24.9,15.2c-0.9-3.3-1.4-5.2-2-7c-1.7-5-3.3-10.1-4.8-15.1c-1.8-6.3-3.4-12.6-4.7-18.9c-2-10.4-3.2-20.9-2.9-31.6    c0.3-8.6,2-17.2,3.1-25.8c0.4-2.8,1.6-3.9,4.8-3.1c12.2,2.9,11.7,2.7,10.2,15.8c-1.1,9.7-0.6,19.5-0.7,29.2c0,1.3,0.7,2.7,1.3,5.1    c3.8-3.5,7.5-6.2,10.4-9.6c8.5-10,17.2-19.8,24.7-30.5c1.6-2.3,3-4.5,4.3-6.8c0,0,0,0,0-0.1c3.5-6.3,5.8-12.8,7-19.4    c0.6-3.1,0.9-6.3,1.1-9.4l0,0C264.1,321.9,251.8,296.9,232.9,278.7z M136.9,439.8c-3.6,0.2-9.3,0.4-11.1,0.6    c-9.4,1-18.5,2-27.6,2.9c-3.6,0.4-2.9-2.2-2.6-4.5c0.5-4.2,1.3-8.1,2.3-12.3c0.4-1.6,2.6-9.8,6.6-20c1-2.6,4.5-3.1,6.3-0.9    c10.3,12.8,16.9,18,27.2,31.9C138.7,438.4,138,439.7,136.9,439.8z M186.8,356.6c-2.2,20.3-14.8,36.4-34.2,36.4    c-18.9,0-39.6-16.3-33.9-34.6c5.7-18.3,16.2-26.1,33.5-34.6C168.5,315.8,190.2,325.5,186.8,356.6z"
   id="path1609"
   style="fill:#63bd57;fill-opacity:1" />
	</g>
	<g
   id="g1621"
   style="fill:#63bd57;fill-opacity:1">
		<path
   class="st0"
   d="M356.4,140.4c3-4.2,8-7.7,12-11.4c-25.6,0.6-78.9,21.8-88.3,42.2C309.7,165.9,340.4,163.1,356.4,140.4z"
   id="path1613"
   style="fill:#63bd57;fill-opacity:1" />
		<path
   class="st0"
   d="M419.3,264.9c-3.2,5.6-6.6,11.1-10,16.7c20.9-9.5,51.6-17,64.6-15.1c-6.6,4.3-14.2,8.2-19.9,13.2    c-12.5,11.1-24.2,22.6-35.8,34.2c-15.3,15.3-30.4,30.7-50.1,43.1c-15.6,9.9-32.9,17.1-54.3,17.5c-2.1,10.7-9.9,18.5-19.2,23.7    c-6.9,3.9-14.8,5.6-22.6,4.3c-4.5-0.7-8.1-2.2-11-3.9c1.9-2.5,3.8-5,5.6-7.7c1.8-2.5,3.4-5.2,4.8-7.8l0.8-1.4l0.1-0.4    c3.6-7,6.1-14.3,7.5-21.9c0.7-3.8,1.1-7.6,1.3-11.4v-0.4v-0.3c0-29.3-12.1-57.3-34.1-78.7c-0.3-0.3-0.6-0.6-0.9-0.9    c-12.6-11.7-26.7-20.1-43-25.7c-0.2-0.1-0.7-0.2-1.4-0.5c-11.1-3.8-22.8-5.7-34.6-5.7c-3.1,0-6.3,0.1-9.4,0.4    c-5.4,0.5-9.1,1-10.5,1.3c-11.1,1.8-21.5,4.9-31,9.1c5.3-12.5,14.7-23.9,29-34.2c24.5-17.6,55-28.6,88.1-35.4    c5.4-1.1,11.2-1.2,16.8-1.8c-5.3,4.1-11.1,6.8-16.6,9.8c-5.8,3.1-11.4,6.3-16.9,9.6c-5,3.1-9.8,6.4-14.7,9.6    c25.6-10.2,52.6-17,81.1-20.2c29.1-3.3,57.7-7.1,84-17.5c30.9-12.3,58.3-27.5,79.9-48.1c0.8-0.8,1.9-1.5,4.1-3.1    c-2.6,14.2-8.2,26.3-16.4,37.6c-8.1,11.1-16.5,22-26.1,32.4c-9.5,10.3-20.7,19.6-31.5,29.7c44.7-20.3,87-30.8,105.3-26.1    c-0.9,0.7-1.6,1.3-2.5,1.7c-15.3,7.4-27.5,17.1-35.1,29.4C435.8,234.9,427.9,250,419.3,264.9z"
   id="path1615"
   style="fill:#63bd57;fill-opacity:1" />
		<path
   class="st0"
   d="M401.6,364.2c-7.1,2.2-13.9,5.3-20.2,9.1c-7.8,4.7-19.6,11.7-26.7,15.7c-11.4,6.5-23,12.5-34.6,18.8    c29.7,2.9,58.1-3.4,84.4-19.7c5.5-3.4,11-6.8,16.4-10.3c12.2-7.8,24.9-14.1,39.9-15.5C446,352.5,417.8,359.1,401.6,364.2z"
   id="path1617"
   style="fill:#63bd57;fill-opacity:1" />
		<path
   class="st0"
   d="M440.1,176.9c28.6-9.2,51.5-23.6,67.9-43.7c3.4-4.2,6.8-8.3,10.1-12.5c7.4-9.4,16-18.1,29.2-24.6    C521,95,476.8,116,461.5,131.8c7.9-1.8,15.5-3.5,23.4-5.4c-7.7,9.1-14.7,17.5-22,25.8C455.5,160.5,447.8,168.6,440.1,176.9z"
   id="path1619"
   style="fill:#63bd57;fill-opacity:1" />
	</g>
</g>
</svg>
