<?xml version="1.0" encoding="UTF-8" standalone="no"?>
<!-- Generator: Adobe Illustrator 26.0.3, SVG Export Plug-In . SVG Version: 6.00 Build 0)  -->

<svg
   version="1.1"
   id="Artificer_xA0_Image_1_"
   x="0px"
   y="0px"
   viewBox="0 0 120 120"
   style="enable-background:new 0 0 120 120;"
   xml:space="preserve"
   sodipodi:docname="cs-artificer.svg"
   inkscape:version="1.1.2 (0a00cf5339, 2022-02-04)"
   xmlns:inkscape="http://www.inkscape.org/namespaces/inkscape"
   xmlns:sodipodi="http://sodipodi.sourceforge.net/DTD/sodipodi-0.dtd"
   xmlns="http://www.w3.org/2000/svg"
   xmlns:svg="http://www.w3.org/2000/svg"><defs
   id="defs853" /><sodipodi:namedview
   id="namedview851"
   pagecolor="#ffffff"
   bordercolor="#666666"
   borderopacity="1.0"
   inkscape:pageshadow="2"
   inkscape:pageopacity="0.0"
   inkscape:pagecheckerboard="0"
   showgrid="false"
   inkscape:zoom="6.5166667"
   inkscape:cx="7.1355498"
   inkscape:cy="60"
   inkscape:window-width="1850"
   inkscape:window-height="1043"
   inkscape:window-x="0"
   inkscape:window-y="0"
   inkscape:window-maximized="1"
   inkscape:current-layer="Artificer_xA0_Image_1_" />
<style
   type="text/css"
   id="style840">
	.st0{fill:#231F20;}
</style>
<g
   id="g848"
   style="fill:#79bcda;fill-opacity:1">
	<path
   class="st0"
   d="M17,108.8c6-6.9,11.9-13.8,17.9-20.6c-0.9-0.9-1.7-1.7-2.6-2.6c-6,6.9-11.9,13.8-18,20.8   c-0.1-0.4-0.3-0.6-0.3-0.9c-0.3-1.4-0.7-2.8-1-4.3c-0.1-0.3,0-0.7,0.1-1c2.7-6,5.3-12,8-18c0.3-0.6,0.6-0.9,1.3-1   c2-0.3,3.4-2.2,3.1-4.2c-0.1-0.5-0.3-1-0.6-1.5c-0.4-0.5-0.4-0.9,0-1.4c1-1.3,2-2.7,3-4c0.3-0.4,0.8-0.6,1.2-0.8   c2.7-0.6,5.5-0.5,8.2,0.1c0.5,0.1,1,0.2,1.5,0.4c0.6,0.3,0.9,0.1,1.3-0.3c3.2-3.2,6.4-6.4,9.6-9.6c0.4-0.4,0.7-0.4,1.1,0   c3.3,3.4,6.7,6.7,10,10.1c0.4,0.4,0.4,0.6,0,1c-0.9,0.9-1.6,1.9-2.5,2.8c-0.5,0.5-1,1.1-1.6,1.6c-2,1.9-3.9,3.7-5.9,5.6   c-0.1,0.1-0.2,0.5-0.1,0.7c0.8,2.2,1,4.4,1,6.7c0,0.6-0.1,1.1-0.6,1.6c-1.4,1.3-2.7,2.6-4,3.9c-0.3,0.3-0.6,0.3-0.9,0.1   c-1.2-0.8-2.4-0.7-3.6,0c-1.2,0.8-1.9,1.9-1.9,3.4c0,0.5-0.1,0.7-0.5,1c-3.8,2.4-7.7,4.8-11.5,7.2c-1.8,1.1-3.5,2.2-5.3,3.3   c-0.3,0.2-0.8,0.3-1.2,0.3c-1.5-0.1-3-0.2-4.5-0.4C17.5,108.9,17.4,108.9,17,108.8z"
   id="path842"
   style="fill:#79bcda;fill-opacity:1" />
	<path
   class="st0"
   d="M64.1,74.3c0.5-0.4,0.9-0.8,1.4-1.2c0.3-0.3,0.5-0.6,0.7-0.9c0.1-0.1,0-0.4-0.2-0.5c-1.7-1.8-3.5-3.7-5.2-5.4   c-6.9-7-13.9-13.9-20.8-20.9c-1.9-2-4.1-3.5-6.4-5c-2.2-1.5-4.4-3-6.6-4.5c-0.3-0.2-0.5-0.5-0.7-0.8c-2-2.9-3.9-5.8-5.9-8.6   c-0.3-0.5-0.3-0.8,0.1-1.2c1.7-1.7,3.4-3.4,5.1-5.1c0.3-0.3,0.6-0.4,1-0.1c3.1,2.2,6.3,4.3,9.4,6.4c0.2,0.2,0.4,0.5,0.5,0.7   c2.4,3.4,4.7,6.9,7.1,10.3c0.4,0.5,0.9,1,1.4,1.5c2.9,2.9,5.8,5.9,8.8,8.8c5.7,5.7,11.5,11.4,17.2,17.1c0.5,0.5,1,0.8,1.6,1.3   c0.4-0.4,1.1-1.1,1.7-1.8c0.3-0.3,0.5-0.3,0.9,0c2.6,2.6,5.2,5.2,7.8,7.8c5.6,5.6,11.2,11.2,16.8,16.8c0.9,0.9,1.7,1.9,2.2,3.2   c0.2,0.5,0.3,1.1,0.3,1.6c0,1.1,0.1,2.2-0.2,3.3c-0.4,1.2-1.1,2.3-2.1,3.2c-0.9,0.8-1.9,1.4-3,1.7c-0.6,0.2-1.4,0.4-2,0.4   c-2.1-0.2-4-0.8-5.5-2.4c-3.8-3.9-7.7-7.7-11.5-11.5c-4.5-4.5-9-9-13.4-13.4C64.4,74.7,64.3,74.6,64.1,74.3z M73.2,70.2   c0.2,0.2,0.3,0.4,0.4,0.5c2,2,4,4.1,6,6.1c5.2,5.2,10.5,10.5,15.7,15.7c0.6,0.6,1.1,1.1,1.7,1.7c0.4,0.3,1,0.3,1.4,0   c0.5-0.4,0.7-1,0.4-1.5c-0.2-0.2-0.4-0.4-0.6-0.7c-6.3-6.3-12.7-12.7-19-19c-1.5-1.5-3-3-4.4-4.5C74.3,69.1,73.8,69.6,73.2,70.2z    M68.7,74.5c0.3,0.2,0.6,0.4,0.8,0.6c5.4,5.4,10.9,10.9,16.3,16.3c2.3,2.3,4.5,4.5,6.8,6.8c0.3,0.3,0.7,0.7,1.2,0.4   c1-0.6,1.2-1.3,0.2-2.3C87.9,90.2,81.7,84,75.5,77.8c-1.5-1.5-3.1-3-4.7-4.6c-0.3-0.3-0.5-0.3-0.7,0C69.7,73.6,69.3,74,68.7,74.5z"
   id="path844"
   style="fill:#79bcda;fill-opacity:1" />
	<path
   class="st0"
   d="M105.7,26.5c0.3,1.1,0.7,2.3,0.8,3.4c0.8,4.7,0,9.1-2.5,13.1c-3,4.7-7.1,7.8-12.7,8.8c-2.5,0.5-5,0.4-7.4-0.1   c-0.7-0.1-1.4-0.4-2.1-0.6c-0.5-0.2-0.8-0.1-1.1,0.3c-3,3-6,6-9,9c-0.4,0.4-0.6,0.4-1,0c-3.3-3.4-6.7-6.7-10.1-10   c-0.4-0.4-0.4-0.7,0-1.1c3-3,6-6,9-9c0.3-0.3,0.4-0.5,0.3-1c-3.2-9.4,1.1-19.4,10.2-23.5c3.3-1.5,6.9-2,10.5-1.5   c1.2,0.2,2.3,0.5,3.4,0.8c0.6,0.2,0.6,0.3,0.2,0.7c-2.2,2.2-4.3,4.3-6.5,6.5c-2,2-3.9,4-5.9,5.9c-0.4,0.4-0.4,0.7,0,1   c2.1,2.1,4.2,4.1,6.3,6.2c1.3,1.3,2.5,2.5,3.8,3.8c0.4,0.4,0.6,0.4,1,0c4.1-4.1,8.2-8.2,12.3-12.4c0.2-0.2,0.3-0.3,0.5-0.4   C105.5,26.4,105.6,26.4,105.7,26.5z"
   id="path846"
   style="fill:#79bcda;fill-opacity:1" />
</g>
</svg>
