<?xml version="1.0" encoding="UTF-8" standalone="no"?>
<svg
   version="1.0"
   width="100mm"
   height="100mm"
   viewBox="0 0 283.46456 283.46456"
   preserveAspectRatio="xMidYMid meet"
   id="svg8"
   sodipodi:docname="fc-diviner.svg"
   inkscape:version="1.1.2 (0a00cf5339, 2022-02-04)"
   xmlns:inkscape="http://www.inkscape.org/namespaces/inkscape"
   xmlns:sodipodi="http://sodipodi.sourceforge.net/DTD/sodipodi-0.dtd"
   xmlns="http://www.w3.org/2000/svg"
   xmlns:svg="http://www.w3.org/2000/svg">
  <defs
     id="defs12" />
  <sodipodi:namedview
     id="namedview10"
     pagecolor="#ffffff"
     bordercolor="#666666"
     borderopacity="1.0"
     inkscape:pageshadow="2"
     inkscape:pageopacity="0.0"
     inkscape:pagecheckerboard="0"
     inkscape:document-units="pt"
     showgrid="false"
     units="mm"
     width="100mm"
     inkscape:zoom="1.7760586"
     inkscape:cx="274.48419"
     inkscape:cy="204.38515"
     inkscape:window-width="1850"
     inkscape:window-height="1043"
     inkscape:window-x="0"
     inkscape:window-y="0"
     inkscape:window-maximized="1"
     inkscape:current-layer="svg8" />
  <metadata
     id="metadata2">
Created by potrace 1.16, written by Peter Selinger 2001-2019
</metadata>
  <g
     transform="matrix(0.0950001,0,0,-0.0950001,-4.366338,286.80485)"
     fill="#000000"
     stroke="none"
     id="g6"
     style="fill:#c8e3ea;fill-opacity:1">
    <path
       d="m 1270,2194 c -287,-44 -593,-157 -826,-304 -54,-35 -107,-63 -117,-62 -10,0 -36,15 -59,31 -73,54 -90,35 -36,-39 l 32,-43 -59,-55 -60,-54 40,6 c 22,3 66,8 98,12 l 58,7 103,-110 c 177,-187 432,-405 616,-527 129,-86 228,-138 335,-177 l 90,-33 h 210 c 287,0 345,17 636,190 l 125,74 h 100 c 56,0 162,3 237,7 158,7 162,11 102,85 -19,24 -73,97 -119,163 -139,196 -211,282 -370,440 -214,213 -383,326 -551,369 -140,36 -417,45 -585,20 z m 35,-214 c -39,-17 -93,-48 -120,-71 -53,-44 -119,-125 -131,-161 -6,-21 -6,-21 -20,3 l -13,24 -1,-31 c -1,-89 85,-242 188,-334 79,-71 184,-135 283,-172 108,-40 258,-50 359,-24 118,30 211,101 270,205 23,42 39,60 48,56 23,-9 9,88 -22,158 -15,35 -21,57 -13,54 16,-5 157,-165 214,-241 24,-33 40,-63 36,-67 -29,-29 -432,-229 -521,-258 -281,-94 -527,-50 -861,153 -137,83 -356,253 -526,408 l -50,45 35,22 c 48,29 310,131 450,175 169,53 316,85 395,85 h 70 z m 390,-79 c 91,-32 156,-80 183,-133 27,-54 29,-135 6,-184 -21,-44 -162,-140 -179,-122 -3,2 9,38 25,79 56,141 36,196 -90,257 -47,23 -68,26 -150,26 -76,1 -104,-4 -142,-21 -65,-30 -136,-97 -148,-142 -26,-93 -52,-74 -48,35 4,81 25,121 88,166 81,58 123,69 265,64 100,-3 144,-9 190,-25 z m -195,-176 c -5,-13 -19,-44 -31,-67 -28,-54 -31,-134 -6,-172 61,-92 267,-136 384,-81 67,31 136,102 159,163 22,58 23,60 34,42 6,-8 10,-47 10,-85 0,-59 -4,-77 -26,-110 -51,-80 -142,-122 -284,-132 -48,-3 -117,0 -159,6 -210,33 -337,199 -256,336 33,56 123,124 167,125 14,0 16,-4 8,-25 z m 172,-22 c 54,-48 -23,-213 -100,-213 -24,0 -62,44 -62,72 0,57 78,158 122,158 12,0 30,-7 40,-17 z"
       id="path4"
       style="fill:#c8e3ea;fill-opacity:1" />
  </g>
</svg>
