<?xml version="1.0" encoding="UTF-8" standalone="no"?>
<svg
   viewBox="0 0 34.774574 39.147515"
   version="1.1"
   id="svg15"
   sodipodi:docname="fh-astral.svg"
   inkscape:version="1.1.2 (0a00cf5339, 2022-02-04)"
   width="34.774574"
   height="39.147514"
   xmlns:inkscape="http://www.inkscape.org/namespaces/inkscape"
   xmlns:sodipodi="http://sodipodi.sourceforge.net/DTD/sodipodi-0.dtd"
   xmlns="http://www.w3.org/2000/svg"
   xmlns:svg="http://www.w3.org/2000/svg">
  <sodipodi:namedview
     id="namedview17"
     pagecolor="#ffffff"
     bordercolor="#666666"
     borderopacity="1.0"
     inkscape:pageshadow="2"
     inkscape:pageopacity="0.0"
     inkscape:pagecheckerboard="0"
     showgrid="false"
     inkscape:zoom="7.5265874"
     inkscape:cx="-23.184478"
     inkscape:cy="9.1010702"
     inkscape:window-width="1846"
     inkscape:window-height="1016"
     inkscape:window-x="0"
     inkscape:window-y="0"
     inkscape:window-maximized="1"
     inkscape:current-layer="svg15"
     fit-margin-left="3"
     fit-margin-top="3"
     fit-margin-right="3"
     fit-margin-bottom="3"
     lock-margins="true" />
  <defs
     id="defs7">
    <style
       id="style2">.cls-1{fill:none;}.cls-2{clip-path:url(#clip-path);}</style>
    <clipPath
       id="clip-path"
       transform="translate(0 0)">
      <rect
         class="cls-1"
         width="28.76"
         height="33.119999"
         id="rect4"
         x="0"
         y="0" />
    </clipPath>
  </defs>
  <path
     d="m 26.886496,20.938757 2.73,-1.2 a 0.19,0.19 0 0 0 0,-0.35 l -2.73,-1.21 4.84,-6.62 a 0.26,0.26 0 0 0 -0.23,-0.41 l -8.16,0.85 0.32,-3 a 0.19,0.19 0 0 0 -0.3,-0.17 l -2.41,1.83 -3.31,-7.51 a 0.26,0.26 0 0 0 -0.47,0 l -3.31,7.51 -2.41,-1.76 a 0.19,0.19 0 0 0 -0.3,0.17 l 0.32,3 -8.1599996,-0.92 a 0.26,0.26 0 0 0 -0.23,0.41 l 4.85,6.62 -2.73,1.21 a 0.19,0.19 0 0 0 0,0.35 l 2.73,1.2 -4.85,6.62 a 0.26,0.26 0 0 0 0.23,0.44 l 8.1599996,-0.89 -0.32,3 a 0.19,0.19 0 0 0 0.3,0.17 l 2.41,-1.76 3.31,7.48 a 0.26,0.26 0 0 0 0.47,0 l 3.31,-7.51 2.41,1.76 a 0.19,0.19 0 0 0 0.3,-0.17 l -0.32,-3 8.16,0.89 a 0.26,0.26 0 0 0 0.23,-0.41 z m -15.8,0.19 a 1.57,1.57 0 1 1 1.57,-1.57 1.56,1.56 0 0 1 -1.57,1.57 m 12.82,4 a 6.57,6.57 0 1 1 0,-11.12 5.85,5.85 0 0 0 0,11.12"
     id="path9"
     style="fill:#6fb54e;fill-opacity:1" />
</svg>
