<svg xmlns="http://www.w3.org/2000/svg" xmlns:xlink="http://www.w3.org/1999/xlink" viewBox="0 0 28.76 33.12"><defs><style>.cls-1{fill:none;}.cls-2{clip-path:url(#clip-path);}</style><clipPath id="clip-path" transform="translate(0 0)"><rect class="cls-1" width="28.76" height="33.12"/></clipPath></defs><g id="Layer_2" data-name="Layer 2"><g id="Layer_1-2" data-name="Layer 1"><g class="cls-2"><path d="M23.86,17.94l2.73-1.2a.19.19,0,0,0,0-.35l-2.73-1.21L28.7,8.56a.26.26,0,0,0-.23-.41L20.31,9l.32-3a.19.19,0,0,0-.3-.17L17.92,7.66,14.61.15a.26.26,0,0,0-.47,0L10.83,7.66,8.42,5.9a.19.19,0,0,0-.3.17l.32,3L.28,8.15a.26.26,0,0,0-.23.41L4.9,15.18,2.17,16.39a.19.19,0,0,0,0,.35l2.73,1.2L.05,24.56A.26.26,0,0,0,.28,25l8.16-.89-.32,3a.19.19,0,0,0,.3.17l2.41-1.76L14.14,33a.26.26,0,0,0,.47,0l3.31-7.51,2.41,1.76a.19.19,0,0,0,.3-.17l-.32-3,8.16.89a.26.26,0,0,0,.23-.41Zm-15.8.19a1.57,1.57,0,1,1,1.57-1.57,1.56,1.56,0,0,1-1.57,1.57m12.82,4a6.57,6.57,0,1,1,0-11.12,5.85,5.85,0,0,0,0,11.12" transform="translate(0 0)"/></g></g></g></svg>