<?xml version="1.0" encoding="UTF-8" standalone="no"?>
<svg
   viewBox="0 0 28.76 33.12"
   version="1.1"
   id="svg15"
   sodipodi:docname="fh-astral.svg"
   inkscape:version="1.1.2 (0a00cf5339, 2022-02-04)"
   xmlns:inkscape="http://www.inkscape.org/namespaces/inkscape"
   xmlns:sodipodi="http://sodipodi.sourceforge.net/DTD/sodipodi-0.dtd"
   xmlns="http://www.w3.org/2000/svg"
   xmlns:svg="http://www.w3.org/2000/svg">
  <sodipodi:namedview
     id="namedview17"
     pagecolor="#ffffff"
     bordercolor="#666666"
     borderopacity="1.0"
     inkscape:pageshadow="2"
     inkscape:pageopacity="0.0"
     inkscape:pagecheckerboard="0"
     showgrid="false"
     inkscape:zoom="26.358697"
     inkscape:cx="14.397525"
     inkscape:cy="16.559999"
     inkscape:window-width="1846"
     inkscape:window-height="1016"
     inkscape:window-x="0"
     inkscape:window-y="0"
     inkscape:window-maximized="1"
     inkscape:current-layer="svg15" />
  <defs
     id="defs7">
    <style
       id="style2">.cls-1{fill:none;}.cls-2{clip-path:url(#clip-path);}</style>
    <clipPath
       id="clip-path"
       transform="translate(0 0)">
      <rect
         class="cls-1"
         width="28.76"
         height="33.12"
         id="rect4" />
    </clipPath>
  </defs>
  <path
     d="m 23.86,17.94 2.73,-1.2 a 0.19,0.19 0 0 0 0,-0.35 L 23.86,15.18 28.7,8.56 A 0.26,0.26 0 0 0 28.47,8.15 L 20.31,9 20.63,6 A 0.19,0.19 0 0 0 20.33,5.83 L 17.92,7.66 14.61,0.15 a 0.26,0.26 0 0 0 -0.47,0 L 10.83,7.66 8.42,5.9 a 0.19,0.19 0 0 0 -0.3,0.17 l 0.32,3 L 0.28,8.15 A 0.26,0.26 0 0 0 0.05,8.56 l 4.85,6.62 -2.73,1.21 a 0.19,0.19 0 0 0 0,0.35 l 2.73,1.2 -4.85,6.62 A 0.26,0.26 0 0 0 0.28,25 l 8.16,-0.89 -0.32,3 a 0.19,0.19 0 0 0 0.3,0.17 l 2.41,-1.76 3.31,7.48 a 0.26,0.26 0 0 0 0.47,0 l 3.31,-7.51 2.41,1.76 a 0.19,0.19 0 0 0 0.3,-0.17 l -0.32,-3 8.16,0.89 a 0.26,0.26 0 0 0 0.23,-0.41 z m -15.8,0.19 a 1.57,1.57 0 1 1 1.57,-1.57 1.56,1.56 0 0 1 -1.57,1.57 m 12.82,4 a 6.57,6.57 0 1 1 0,-11.12 5.85,5.85 0 0 0 0,11.12"
     id="path9"
     style="fill:#9bd648;fill-opacity:1" />
</svg>
