<?xml version="1.0" encoding="UTF-8" standalone="no"?>
<svg
   viewBox="0 0 29.6 29.86"
   version="1.1"
   id="svg29"
   sodipodi:docname="fh-coral.svg"
   inkscape:version="1.1.2 (0a00cf5339, 2022-02-04)"
   xmlns:inkscape="http://www.inkscape.org/namespaces/inkscape"
   xmlns:sodipodi="http://sodipodi.sourceforge.net/DTD/sodipodi-0.dtd"
   xmlns="http://www.w3.org/2000/svg"
   xmlns:svg="http://www.w3.org/2000/svg">
  <sodipodi:namedview
     id="namedview31"
     pagecolor="#ffffff"
     bordercolor="#666666"
     borderopacity="1.0"
     inkscape:pageshadow="2"
     inkscape:pageopacity="0.0"
     inkscape:pagecheckerboard="0"
     showgrid="false"
     inkscape:zoom="29.236436"
     inkscape:cx="14.793185"
     inkscape:cy="14.93"
     inkscape:window-width="1846"
     inkscape:window-height="1016"
     inkscape:window-x="0"
     inkscape:window-y="0"
     inkscape:window-maximized="1"
     inkscape:current-layer="svg29" />
  <defs
     id="defs7">
    <style
       id="style2">.cls-1{fill:none;}.cls-2{clip-path:url(#clip-path);}</style>
    <clipPath
       id="clip-path"
       transform="translate(0 0)">
      <rect
         class="cls-1"
         width="29.6"
         height="29.86"
         id="rect4" />
    </clipPath>
  </defs>
  <g
     id="Layer_2"
     data-name="Layer 2"
     style="fill:#8bbac0;fill-opacity:1">
    <g
       id="Layer_1-2"
       data-name="Layer 1"
       style="fill:#8bbac0;fill-opacity:1">
      <g
         class="cls-2"
         clip-path="url(#clip-path)"
         id="g25"
         style="fill:#8bbac0;fill-opacity:1">
        <path
           d="M7.67,22.31a.15.15,0,0,0,.11.22,24.81,24.81,0,0,0,5.16.38,21.18,21.18,0,0,0,2.89-.55.25.25,0,0,0,.17-.23,10.4,10.4,0,0,0-1.27-4.62c-1.3-2.27,0-6.56,3-9.79,2-2.11,1.13-7.21-.5-7.23S16.48,3.54,15.81,5c-.82,1.79-2.73,2.43-4,5.79-.74,1.88-1,2.3-1.34,2.61a.12.12,0,0,1-.2-.05A19.84,19.84,0,0,0,6.88,6.65c-1.82-2-3.82-3.82-5-3.2s-.58,2.38.86,3.36a4.85,4.85,0,0,1,2.33,4,10.53,10.53,0,0,0,1.3,4.9.11.11,0,0,1-.09.17c-.86,0-2.76-1.48-3.17-1.93-.71-.77-1.87-1.77-2.6-.84C-.7,14.6,1.35,17,3.79,18.41c2,1.13,3.4.8,4,2.09a2,2,0,0,1-.1,1.81"
           transform="translate(0 0)"
           id="path9"
           style="fill:#8bbac0;fill-opacity:1" />
        <path
           d="M10.55,11.49A27.46,27.46,0,0,1,12,8.41a.17.17,0,0,0,0-.1c-.28-2.54-1.36-3.16-1.5-4.63S10.93-.12,9.51,0C8.4.1,7.83,1.77,8,3.79a11.8,11.8,0,0,0,1.07,3.1c.52,1.33.82,3.24,1.24,4.58a.11.11,0,0,0,.2,0"
           transform="translate(0 0)"
           id="path11"
           style="fill:#8bbac0;fill-opacity:1" />
        <path
           d="M12.62,3.92c.34,1.1,0,2,.41,2.77a.07.07,0,0,0,.1,0A11.43,11.43,0,0,0,14.64,5c.11-.28.27-3-.53-4.25-.47-.72-1.62-.23-1.77.79a4.59,4.59,0,0,0,.28,2.4"
           transform="translate(0 0)"
           id="path13"
           style="fill:#8bbac0;fill-opacity:1" />
        <path
           d="M4.73,13.4a22.8,22.8,0,0,1-.37-2.51c0-.06-.08-.1-.14-.13-1.78-1-1.77-1.71-2.77-2.87A.8.8,0,0,0,0,8.46c.09,1.61,2.78,4.49,4.63,5a.08.08,0,0,0,.1-.09"
           transform="translate(0 0)"
           id="path15"
           style="fill:#8bbac0;fill-opacity:1" />
        <path
           d="M25.2,23.69c-.31-1.56.39-4-.51-4.89a1.76,1.76,0,0,0-1.12-.4c-1.36-.06-4.45-.18-8.2-.18s-6.74.12-8.08.18a1.68,1.68,0,0,0-1.11.4c-.9.89-.5,3.05-.81,4.52a18.36,18.36,0,0,1-1.79,4.22.37.37,0,0,0,.1.48c.74.54,3.41,1.84,12,1.84,8.22,0,10.48-1,11.09-1.5a.39.39,0,0,0,.1-.47,19.61,19.61,0,0,1-1.64-4.2"
           transform="translate(0 0)"
           id="path17"
           style="fill:#8bbac0;fill-opacity:1" />
        <path
           d="M27.48,7.78c-.88.25-1.38,1.12-1.65,3A2.41,2.41,0,0,1,24,12.68a.12.12,0,0,1-.17-.11c0-1.39.07-3.31,1.45-4.75,1-1.05,2.59-3.65.67-4.22-1-.29-4.11,3.79-4.93,6.56-1.09,3.65-5.8,4.33-6,5.66-.17,1.07.67,2.13,1,3.28a14.71,14.71,0,0,0,3.11.08c0-.14.09-.27.14-.4.42.21,1.06,1,1.76-.12,1-1.53,2.36-2.17,4.61-3.11s3-4.08,3.1-5.31.12-2.87-1.3-2.46"
           transform="translate(0 0)"
           id="path19"
           style="fill:#8bbac0;fill-opacity:1" />
        <path
           d="M15.45,14.08a.13.13,0,0,1-.19-.12,6.21,6.21,0,0,1,1.77-4c2-1.49,2.81-2.53,3.24-3.85A30,30,0,0,0,21,2.45a.94.94,0,0,1,1.4-.4c.88.57.67,2.64.67,2.64a11.62,11.62,0,0,0-2.13,3.36,9.75,9.75,0,0,1-1.59,3.36c-.67,1-2.68,2.1-3.88,2.67"
           transform="translate(0 0)"
           id="path21"
           style="fill:#8bbac0;fill-opacity:1" />
        <path
           d="M22.18,18.52A3.74,3.74,0,0,1,24.37,17a11.2,11.2,0,0,0,3.38-1.35c1.63-1.22,1.87,0,1.85.47-.06,1.82-2.57,3.38-4.67,3.42a5.11,5.11,0,0,0-2,.34Z"
           transform="translate(0 0)"
           id="path23"
           style="fill:#8bbac0;fill-opacity:1" />
      </g>
    </g>
  </g>
</svg>
