<?xml version="1.0" encoding="UTF-8" standalone="no"?>
<svg
   viewBox="0 0 35.599998 35.86"
   version="1.1"
   id="svg29"
   sodipodi:docname="fh-coral.svg"
   inkscape:version="1.1.2 (0a00cf5339, 2022-02-04)"
   width="35.599998"
   height="35.860001"
   xmlns:inkscape="http://www.inkscape.org/namespaces/inkscape"
   xmlns:sodipodi="http://sodipodi.sourceforge.net/DTD/sodipodi-0.dtd"
   xmlns="http://www.w3.org/2000/svg"
   xmlns:svg="http://www.w3.org/2000/svg">
  <sodipodi:namedview
     id="namedview31"
     pagecolor="#ffffff"
     bordercolor="#666666"
     borderopacity="1.0"
     inkscape:pageshadow="2"
     inkscape:pageopacity="0.0"
     inkscape:pagecheckerboard="0"
     showgrid="false"
     inkscape:zoom="4.8721591"
     inkscape:cx="-38.894461"
     inkscape:cy="-7.4915452"
     inkscape:window-width="1846"
     inkscape:window-height="1016"
     inkscape:window-x="0"
     inkscape:window-y="0"
     inkscape:window-maximized="1"
     inkscape:current-layer="svg29"
     lock-margins="true"
     fit-margin-top="3"
     fit-margin-left="3"
     fit-margin-right="3"
     fit-margin-bottom="3" />
  <defs
     id="defs7">
    <style
       id="style2">.cls-1{fill:none;}.cls-2{clip-path:url(#clip-path);}</style>
    <clipPath
       id="clip-path"
       transform="translate(0 0)">
      <rect
         class="cls-1"
         width="29.6"
         height="29.860001"
         id="rect4"
         x="0"
         y="0" />
    </clipPath>
  </defs>
  <g
     id="Layer_2"
     data-name="Layer 2"
     style="fill:#4c988b;fill-opacity:1"
     transform="translate(3,3)">
    <g
       id="Layer_1-2"
       data-name="Layer 1"
       style="fill:#4c988b;fill-opacity:1">
      <g
         class="cls-2"
         clip-path="url(#clip-path)"
         id="g25"
         style="fill:#4c988b;fill-opacity:1">
        <path
           d="m 7.67,22.31 a 0.15,0.15 0 0 0 0.11,0.22 24.81,24.81 0 0 0 5.16,0.38 21.18,21.18 0 0 0 2.89,-0.55 0.25,0.25 0 0 0 0.17,-0.23 10.4,10.4 0 0 0 -1.27,-4.62 c -1.3,-2.27 0,-6.56 3,-9.79 2,-2.11 1.13,-7.21 -0.5,-7.23 C 15.6,0.47 16.48,3.54 15.81,5 c -0.82,1.79 -2.73,2.43 -4,5.79 -0.74,1.88 -1,2.3 -1.34,2.61 A 0.12,0.12 0 0 1 10.27,13.35 19.84,19.84 0 0 0 6.88,6.65 C 5.06,4.65 3.06,2.83 1.88,3.45 0.7,4.07 1.3,5.83 2.74,6.81 a 4.85,4.85 0 0 1 2.33,4 10.53,10.53 0 0 0 1.3,4.9 0.11,0.11 0 0 1 -0.09,0.17 C 5.42,15.88 3.52,14.4 3.11,13.95 2.4,13.18 1.24,12.18 0.51,13.11 -0.7,14.6 1.35,17 3.79,18.41 c 2,1.13 3.4,0.8 4,2.09 a 2,2 0 0 1 -0.1,1.81"
           id="path9"
           style="fill:#4c988b;fill-opacity:1" />
        <path
           d="M 10.55,11.49 A 27.46,27.46 0 0 1 12,8.41 0.17,0.17 0 0 0 12,8.31 C 11.72,5.77 10.64,5.15 10.5,3.68 10.36,2.21 10.93,-0.12 9.51,0 8.4,0.1 7.83,1.77 8,3.79 a 11.8,11.8 0 0 0 1.07,3.1 c 0.52,1.33 0.82,3.24 1.24,4.58 a 0.11,0.11 0 0 0 0.2,0"
           id="path11"
           style="fill:#4c988b;fill-opacity:1" />
        <path
           d="m 12.62,3.92 c 0.34,1.1 0,2 0.41,2.77 a 0.07,0.07 0 0 0 0.1,0 A 11.43,11.43 0 0 0 14.64,5 C 14.75,4.72 14.91,2 14.11,0.75 13.64,0.03 12.49,0.52 12.34,1.54 a 4.59,4.59 0 0 0 0.28,2.4"
           id="path13"
           style="fill:#4c988b;fill-opacity:1" />
        <path
           d="M 4.73,13.4 A 22.8,22.8 0 0 1 4.36,10.89 C 4.36,10.83 4.28,10.79 4.22,10.76 2.44,9.76 2.45,9.05 1.45,7.89 A 0.8,0.8 0 0 0 0,8.46 c 0.09,1.61 2.78,4.49 4.63,5 a 0.08,0.08 0 0 0 0.1,-0.09"
           id="path15"
           style="fill:#4c988b;fill-opacity:1" />
        <path
           d="m 25.2,23.69 c -0.31,-1.56 0.39,-4 -0.51,-4.89 a 1.76,1.76 0 0 0 -1.12,-0.4 c -1.36,-0.06 -4.45,-0.18 -8.2,-0.18 -3.75,0 -6.74,0.12 -8.08,0.18 a 1.68,1.68 0 0 0 -1.11,0.4 c -0.9,0.89 -0.5,3.05 -0.81,4.52 a 18.36,18.36 0 0 1 -1.79,4.22 0.37,0.37 0 0 0 0.1,0.48 c 0.74,0.54 3.41,1.84 12,1.84 8.22,0 10.48,-1 11.09,-1.5 a 0.39,0.39 0 0 0 0.1,-0.47 19.61,19.61 0 0 1 -1.64,-4.2"
           id="path17"
           style="fill:#4c988b;fill-opacity:1" />
        <path
           d="m 27.48,7.78 c -0.88,0.25 -1.38,1.12 -1.65,3 A 2.41,2.41 0 0 1 24,12.68 0.12,0.12 0 0 1 23.83,12.57 c 0,-1.39 0.07,-3.31 1.45,-4.75 1,-1.05 2.59,-3.65 0.67,-4.22 -1,-0.29 -4.11,3.79 -4.93,6.56 -1.09,3.65 -5.8,4.33 -6,5.66 -0.17,1.07 0.67,2.13 1,3.28 a 14.71,14.71 0 0 0 3.11,0.08 c 0,-0.14 0.09,-0.27 0.14,-0.4 0.42,0.21 1.06,1 1.76,-0.12 1,-1.53 2.36,-2.17 4.61,-3.11 2.25,-0.94 3,-4.08 3.1,-5.31 0.1,-1.23 0.12,-2.87 -1.3,-2.46"
           id="path19"
           style="fill:#4c988b;fill-opacity:1" />
        <path
           d="m 15.45,14.08 a 0.13,0.13 0 0 1 -0.19,-0.12 6.21,6.21 0 0 1 1.77,-4 c 2,-1.49 2.81,-2.53 3.24,-3.85 A 30,30 0 0 0 21,2.45 0.94,0.94 0 0 1 22.4,2.05 c 0.88,0.57 0.67,2.64 0.67,2.64 a 11.62,11.62 0 0 0 -2.13,3.36 9.75,9.75 0 0 1 -1.59,3.36 c -0.67,1 -2.68,2.1 -3.88,2.67"
           id="path21"
           style="fill:#4c988b;fill-opacity:1" />
        <path
           d="M 22.18,18.52 A 3.74,3.74 0 0 1 24.37,17 11.2,11.2 0 0 0 27.75,15.65 c 1.63,-1.22 1.87,0 1.85,0.47 -0.06,1.82 -2.57,3.38 -4.67,3.42 a 5.11,5.11 0 0 0 -2,0.34 z"
           id="path23"
           style="fill:#4c988b;fill-opacity:1" />
      </g>
    </g>
  </g>
</svg>
