<?xml version="1.0" encoding="UTF-8" standalone="no"?>
<svg
   width="600"
   height="600"
   viewBox="0 0 600 600"
   version="1.1"
   id="svg871"
   sodipodi:docname="fh-drill-regular.svg"
   inkscape:version="1.1.2 (0a00cf5339, 2022-02-04)"
   xmlns:inkscape="http://www.inkscape.org/namespaces/inkscape"
   xmlns:sodipodi="http://sodipodi.sourceforge.net/DTD/sodipodi-0.dtd"
   xmlns="http://www.w3.org/2000/svg"
   xmlns:svg="http://www.w3.org/2000/svg">
  <sodipodi:namedview
     id="namedview873"
     pagecolor="#ffffff"
     bordercolor="#666666"
     borderopacity="1.0"
     inkscape:pageshadow="2"
     inkscape:pageopacity="0.0"
     inkscape:pagecheckerboard="0"
     showgrid="false"
     inkscape:zoom="0.92159584"
     inkscape:cx="345.59618"
     inkscape:cy="321.72454"
     inkscape:window-width="1850"
     inkscape:window-height="1016"
     inkscape:window-x="0"
     inkscape:window-y="0"
     inkscape:window-maximized="1"
     inkscape:current-layer="svg871" />
  <defs
     id="defs847">
    <style
       id="style845">.cls-1{fill:#fefefe;}.cls-2{fill:#7ac144;}.cls-3{fill:#ecb633;}.cls-4{fill:#01a5cf;}.cls-5{fill:#ee2846;}.cls-6{fill:#231f20;}</style>
  </defs>
  <path
     id="path1796"
     style="fill:#ffffff;stroke-width:3.77953;stroke-linecap:round;stroke-linejoin:round"
     d="M 299.68377,598.62059 C 133.12724,598.62822 -0.11063566,466.38183 -0.12599866,300.89976 -0.14136266,135.41769 132.44736,1.5849024 299.00388,1.562003 465.5604,1.5391083 599.99535,132.96421 600.02591,299.76468 600.02573,466.56515 466.24029,598.61296 299.68377,598.62059 Z"
     sodipodi:nodetypes="ssscs" />
  <path
     class="cls-2"
     d="m 0,279 c 1,-7.47 2,-14.95 3.05,-22.42 a 297.62,297.62 0 0 1 13.76,-56.25 l 40.28,17 c -28.71,93 -12.39,177 50.23,251.76 A 228.85,228.85 0 0 0 148.21,507 c 33.7,24.77 71.21,41 112.59,46.58 88.13,11.9 163.77,-13.85 226.07,-77.7 2.08,-2.13 3.9,-4.51 5.83,-6.78 A 251.33,251.33 0 0 0 542.08,385 c 12.74,-36.14 16.83,-73.28 13,-111.38 A 236.48,236.48 0 0 0 542.8,217.37 Q 536.42,202 530,186.69 c -2.27,-4.43 -4.38,-8.94 -6.82,-13.27 A 255.88,255.88 0 0 0 452,93.05 250.29,250.29 0 0 0 369.61,52.77 226.42,226.42 0 0 0 316.73,44 Q 316.52,26.18 316.31,8.36 c 0,-2.79 -0.2,-5.59 -0.31,-8.38 h 8 a 5.38,5.38 0 0 0 1.66,0.86 c 9,1.15 18.22,1.7 27.16,3.44 87.42,17 155.2,63.1 202.73,138.36 A 283.73,283.73 0 0 1 597.05,258 c 1,7.33 2,14.65 3,22 v 41 a 15.12,15.12 0 0 0 -0.92,2.62 c -2.58,16.06 -4,32.41 -7.87,48.13 C 574.27,439.89 537.69,495.52 482,538.34 A 291.77,291.77 0 0 1 342,597 c -7.32,1 -14.65,2 -22,3 h -41 a 15.06,15.06 0 0 0 -3.14,-0.94 281.64,281.64 0 0 1 -79.1,-17.29 C 129.49,556.46 77.33,512.89 40.77,451 A 288,288 0 0 1 3,342 C 2.06,335 1,328 0,321 Z"
     id="path851" />
  <path
     class="cls-2"
     d="m 284,0 c -0.11,4.65 -0.3,9.3 -0.31,14 q 0,82.22 0,164.42 v 5 c -3.66,0.79 -6.92,1.31 -10.07,2.23 -3,0.85 -4.85,0 -6.93,-2.24 -23.83,-26 -47.85,-51.87 -71.67,-77.89 -5.71,-6.23 -12,-10.74 -20.86,-9.27 -14,2.32 -21.22,16.24 -15.22,29.23 14.7,31.82 29.38,63.66 44.45,95.3 2.6,5.45 3.36,9.69 -1,14.21 a 39.05,39.05 0 0 0 -3.51,5 L 29.59,169.88 A 268.21,268.21 0 0 1 57.11,123.65 C 100.23,65.28 156.83,26.59 227.23,8.77 242.3,5 258,3.51 273.35,0.94 A 15.51,15.51 0 0 0 276,0 Z"
     id="path853" />
  <path
     class="cls-3"
     d="m 316.73,44 a 226.42,226.42 0 0 1 52.83,8.75 250.29,250.29 0 0 1 82.44,40.3 255.88,255.88 0 0 1 71.26,80.37 c 2.44,4.33 4.55,8.84 6.82,13.27 l -128.7,53.24 c -29.52,-37.66 -45.23,-48.16 -84.55,-56.45 a 29.29,29.29 0 0 1 -0.45,-3.66 q 0,-66.18 0,-132.36 A 28.54,28.54 0 0 1 316.73,44 Z"
     id="path861" />
  <path
     class="cls-4"
     d="M 107.32,469.14 C 44.7,394.38 28.38,310.37 57.09,217.38 q 36.57,15 73.15,30.06 c 17.48,7.2 34.93,14.47 52.42,21.64 2.4,1 3.74,1.88 3.07,5 -7.35,34.52 -0.9,66.25 19.58,95.06 a 15.1,15.1 0 0 1 0.71,1.37 z"
     id="path863" />
  <path
     class="cls-5"
     d="m 542.83,217.33 a 236.48,236.48 0 0 1 12.28,56.25 c 3.8,38.1 -0.29,75.24 -13,111.38 a 251.33,251.33 0 0 1 -49.38,84.17 L 395,371.39 c 5.55,-11.76 11.7,-22.78 16,-34.47 7.53,-20.27 7.82,-41.28 3.48,-62.36 -0.47,-2.27 -1,-3.85 1.89,-5.06 q 63.3,-25.98 126.46,-52.17 z"
     id="path865" />
  <path
     class="cls-6"
     d="m 337.86,297.78 c 0.07,19.41 -12.67,35.43 -29.57,39.08 -17.63,3.81 -35,-4.94 -42.74,-21.55 q -34.83,-75 -69.63,-150 c -7,-15.17 -14.15,-30.3 -21,-45.55 -0.77,-1.71 -0.89,-4.93 0.17,-6 2.28,-2.31 4.36,-0.18 6.15,1.77 q 72.39,78.53 144.87,157 c 7.24,7.77 11.31,16.55 11.75,25.25 z"
     id="path867" />
</svg>
