<?xml version="1.0" encoding="UTF-8" standalone="no"?>
<svg
   width="600"
   height="600"
   viewBox="0 0 600 600"
   version="1.1"
   id="svg1043"
   sodipodi:docname="fh-drill-over.svg"
   inkscape:version="1.1.2 (0a00cf5339, 2022-02-04)"
   xmlns:inkscape="http://www.inkscape.org/namespaces/inkscape"
   xmlns:sodipodi="http://sodipodi.sourceforge.net/DTD/sodipodi-0.dtd"
   xmlns="http://www.w3.org/2000/svg"
   xmlns:svg="http://www.w3.org/2000/svg">
  <sodipodi:namedview
     id="namedview1045"
     pagecolor="#ffffff"
     bordercolor="#666666"
     borderopacity="1.0"
     inkscape:pageshadow="2"
     inkscape:pageopacity="0.0"
     inkscape:pagecheckerboard="0"
     showgrid="false"
     inkscape:zoom="1.3033333"
     inkscape:cx="300.38363"
     inkscape:cy="281.20205"
     inkscape:window-width="1850"
     inkscape:window-height="1016"
     inkscape:window-x="0"
     inkscape:window-y="0"
     inkscape:window-maximized="1"
     inkscape:current-layer="svg1043" />
  <defs
     id="defs1021">
    <style
       id="style1019">.cls-1{fill:#fefefe;}.cls-2{fill:#ed2846;}.cls-3{fill:#ee2846;}.cls-4{fill:#ebb633;}.cls-5{fill:#7ac044;}.cls-6{fill:#01a5ce;}.cls-7{fill:#242021;}</style>
  </defs>
  <path
     id="path1796"
     style="fill:#ffffff;stroke-width:3.77953;stroke-linecap:round;stroke-linejoin:round"
     d="M 299.68376,598.62058 C 133.12723,598.62821 -0.11063866,466.38182 -0.12599866,300.89975 -0.14136866,135.41768 132.44735,1.584903 299.00387,1.562003 465.56039,1.539109 599.99534,132.9642 600.0259,299.76467 600.02572,466.56514 466.24028,598.61295 299.68376,598.62058 Z"
     sodipodi:nodetypes="ssscs" />
  <path
     class="cls-2"
     d="m 107.36,469.28 a 244.09,244.09 0 0 0 55.77,47.91 c 32.3,20.44 67.45,33.37 105.37,37.55 73.7,8.12 139.63,-11 196.94,-58.55 1.27,-1.06 2.62,-2 3.77,-2.93 l 30.56,30.57 a 289.18,289.18 0 0 1 -45.85,33.76 c -34.72,20.68 -72,34.15 -112.12,39.48 -6.28,0.84 -12.53,1.95 -18.8,2.93 h -47 a 12.19,12.19 0 0 0 -2.49,-1 c -13.43,-2.12 -27.09,-3.25 -40.25,-6.43 -83,-20 -147,-66.52 -191.31,-139.55 A 284.37,284.37 0 0 1 2.95,341.79 C 2.13,335.85 1,329.93 0,324 v -48 a 12.19,12.19 0 0 0 1,-2.49 C 3.57,258.33 5,242.86 8.82,228 29.32,147.58 75.34,85.7 146.12,42.47 A 285.19,285.19 0 0 1 258.19,2.92 C 264.15,2.12 270.07,1 276,0 h 47 c 6.27,1 12.53,2 18.82,2.89 50.49,7 96.12,25.87 137,56.2 39.48,29.27 69.77,66.19 91.77,111 L 530.14,186.7 A 238.65,238.65 0 0 0 492.22,130.09 C 457.33,91.13 414.8,64.24 363.9,51.68 348.38,47.85 332.21,46.62 316.35,44.2 h -32.63 c -8.4,0.9 -16.86,1.4 -25.18,2.75 -53.07,8.64 -98.84,31.91 -137.43,69.3 -21.19,20.54 -38.55,43.9 -51.22,70.65 q -6.28,15.18 -12.58,30.38 c -0.47,1.23 -1,2.45 -1.41,3.71 a 254.47,254.47 0 0 0 -8,126.41 c 8.58,46.07 28.5,86.68 59.46,121.88 z"
     id="path1025" />
  <path
     class="cls-3"
     d="m 600,324 c -1,5.94 -2.13,11.85 -2.92,17.82 -5.31,40 -18.74,77.13 -39.26,111.76 a 289.76,289.76 0 0 1 -33.61,45.8 L 394.46,369.62 c -0.16,0.36 0,0.06 0.1,-0.24 4,-9.6 10.88,-11.44 21.14,-10.78 30.87,2 61.83,2.48 92.75,3.57 1.82,0.07 3.64,0.3 5.46,0.46 11.17,1 20.3,-5.66 22.76,-16.56 2.17,-9.6 -3.62,-19.42 -13.74,-23.14 q -21.67,-7.95 -43.39,-15.79 C 459.76,300 440,292.77 420.12,285.93 c -3.65,-1.26 -4.16,-3.62 -4.75,-6.53 -1.76,-8.61 -1.78,-8.59 6.28,-11.93 q 78.51,-32.54 157,-65.07 c 1.35,-0.56 2.75,-1 5.08,-1.82 3.13,11.58 6.8,22.72 9.08,34.13 2.69,13.47 4.17,27.19 6.22,40.8 0.08,0.53 0.62,1 1,1.49 z"
     id="path1027" />
  <path
     class="cls-4"
     d="m 316.35,44.2 c 15.86,2.42 32,3.65 47.55,7.48 50.9,12.56 93.43,39.45 128.33,78.38 a 238.65,238.65 0 0 1 37.92,56.61 q -39.93,16.64 -79.88,33.26 c -16.22,6.74 -32.46,13.43 -49.15,20.33 -19.73,-31.41 -47.83,-50.46 -84.77,-56.49 z"
     id="path1033" />
  <path
     class="cls-5"
     d="m 69.89,186.87 c 12.67,-26.75 30,-50.11 51.22,-70.65 38.59,-37.39 84.36,-60.66 137.43,-69.3 8.32,-1.35 16.78,-1.85 25.18,-2.75 v 138.94 c -8.22,2.34 -16.45,4.17 -24.31,7 -24.41,8.89 -43.59,24.44 -57.68,46.17 -2.21,3.41 -3.83,3.65 -7.43,2.14 Q 132.17,212.46 69.89,186.87 Z"
     id="path1035" />
  <path
     class="cls-6"
     d="M 107.36,469.28 C 76.36,434.08 56.48,393.47 47.91,347.37 A 254.47,254.47 0 0 1 55.9,221 c 0.41,-1.26 0.94,-2.48 1.41,-3.71 41.14,17.09 82.25,34.25 123.47,51.15 4.34,1.78 5.36,3.29 4.43,8.19 -6.46,34 0.29,65.27 21.12,94.14 q -49.44,49.18 -98.97,98.51 z"
     id="path1037" />
  <path
     class="cls-7"
     d="m 510.05,345.64 c -27.09,-0.92 -54.18,-1.75 -81.26,-2.78 q -60.06,-2.3 -120.11,-4.89 c -6.93,-0.3 -14.14,-0.33 -20.66,-2.31 -18.39,-5.58 -28.74,-24.37 -25,-43.71 3.38,-17.49 20.68,-31.41 38.89,-29.53 9,0.93 17.86,4.64 26.53,7.77 q 93.48,33.74 186.86,67.75 c 0.46,0.17 1.13,0.15 1.39,0.47 1.19,1.5 2.26,3.1 3.38,4.66 -1.51,1 -2.92,2.32 -4.57,2.8 -1.65,0.48 -3.63,0.11 -5.46,0.11 z"
     id="path1039" />
</svg>
