<?xml version="1.0" encoding="UTF-8" standalone="no"?>
<!-- Created with Inkscape (http://www.inkscape.org/) -->

<svg
   width="100mm"
   height="100mm"
   viewBox="0 0 100 100"
   version="1.1"
   id="svg5"
   inkscape:version="1.1.2 (0a00cf5339, 2022-02-04)"
   sodipodi:docname="fh-deathwalker.svg"
   xmlns:inkscape="http://www.inkscape.org/namespaces/inkscape"
   xmlns:sodipodi="http://sodipodi.sourceforge.net/DTD/sodipodi-0.dtd"
   xmlns="http://www.w3.org/2000/svg"
   xmlns:svg="http://www.w3.org/2000/svg">
  <sodipodi:namedview
     id="namedview7"
     pagecolor="#ffffff"
     bordercolor="#666666"
     borderopacity="1.0"
     inkscape:pageshadow="2"
     inkscape:pageopacity="0.0"
     inkscape:pagecheckerboard="0"
     inkscape:document-units="mm"
     showgrid="false"
     inkscape:zoom="0.73762626"
     inkscape:cx="-69.818556"
     inkscape:cy="75.241356"
     inkscape:window-width="1846"
     inkscape:window-height="1016"
     inkscape:window-x="0"
     inkscape:window-y="0"
     inkscape:window-maximized="1"
     inkscape:current-layer="layer1" />
  <defs
     id="defs2">
    <clipPath
       clipPathUnits="userSpaceOnUse"
       id="clipPath568">
      <path
         d="m 162.751,231.333 h 5.964 v 10.084 h -5.964 z"
         id="path566" />
    </clipPath>
  </defs>
  <g
     inkscape:label="Layer 1"
     inkscape:groupmode="layer"
     id="layer1">
    <g
       id="g562"
       transform="matrix(8.7680738,0,0,-8.7680738,-1403.1592,2122.5549)"
       style="fill:#8c97a9;fill-opacity:1">
      <g
         id="g564"
         clip-path="url(#clipPath568)"
         style="fill:#8c97a9;fill-opacity:1">
        <g
           id="g570"
           transform="translate(167.5737,234.1659)"
           style="fill:#8c97a9;fill-opacity:1">
          <path
             d="m 0,0 c -0.063,0.173 -0.178,0.322 -0.338,0.418 -0.095,0.059 -0.165,0.04 -0.07,-0.04 0.254,-0.203 0.305,-0.715 0.103,-1.074 -0.232,-0.412 -0.698,-0.6 -1.066,-0.405 -0.136,0.072 -0.246,0.213 -0.301,0.322 -0.108,0.216 -0.122,0.6 0.038,0.902 0.254,0.48 0.806,0.685 1.233,0.459 C -0.177,0.464 -0.032,0.25 0.019,0.005 0.022,-0.007 0.004,-0.012 0,0 m -2.257,-0.783 c -0.054,-0.108 -0.164,-0.25 -0.3,-0.322 -0.368,-0.194 -0.834,-0.007 -1.066,0.406 -0.202,0.358 -0.151,0.87 0.103,1.073 0.095,0.08 0.025,0.099 -0.07,0.041 -0.161,-0.097 -0.275,-0.245 -0.338,-0.419 -0.004,-0.011 -0.022,-0.007 -0.019,0.005 0.051,0.246 0.196,0.459 0.42,0.578 0.427,0.226 0.979,0.02 1.233,-0.459 0.16,-0.302 0.146,-0.687 0.037,-0.903 M -0.76,4.078 C -0.928,4.701 -1.866,4.907 -2.088,5.677 -2.244,6.22 -1.841,6.919 -2.432,7.251 -2.42,6.415 -3.316,6.02 -3.477,5.283 -3.655,4.469 -3.293,4.004 -3.404,3.451 c -0.14,-0.7 -0.701,-1.169 -1.094,-2.042 -0.738,-1.635 -0.344,-4.17 2.472,-4.24 3.074,-0.076 3.503,2.825 2.976,4.105 -0.603,1.463 -1.168,0.799 -1.71,2.804"
             style="fill:#8c97a9;fill-opacity:1;fill-rule:nonzero;stroke:none"
             id="path572" />
        </g>
      </g>
    </g>
  </g>
</svg>
