<?xml version="1.0" encoding="UTF-8" standalone="no"?>
<svg
   viewBox="0 0 29.44 40.915301"
   version="1.1"
   id="svg21"
   sodipodi:docname="fh-drill.svg"
   inkscape:version="1.1.2 (0a00cf5339, 2022-02-04)"
   width="29.440001"
   height="40.915298"
   xmlns:inkscape="http://www.inkscape.org/namespaces/inkscape"
   xmlns:sodipodi="http://sodipodi.sourceforge.net/DTD/sodipodi-0.dtd"
   xmlns="http://www.w3.org/2000/svg"
   xmlns:svg="http://www.w3.org/2000/svg">
  <sodipodi:namedview
     id="namedview23"
     pagecolor="#ffffff"
     bordercolor="#666666"
     borderopacity="1.0"
     inkscape:pageshadow="2"
     inkscape:pageopacity="0.0"
     inkscape:pagecheckerboard="0"
     showgrid="false"
     inkscape:zoom="25.000001"
     inkscape:cx="14.739999"
     inkscape:cy="20.419999"
     inkscape:window-width="1846"
     inkscape:window-height="1016"
     inkscape:window-x="0"
     inkscape:window-y="0"
     inkscape:window-maximized="1"
     inkscape:current-layer="svg21"
     lock-margins="true"
     fit-margin-top="3"
     fit-margin-left="3"
     fit-margin-right="3"
     fit-margin-bottom="3" />
  <defs
     id="defs7">
    <style
       id="style2">.cls-1{fill:none;}.cls-2{clip-path:url(#clip-path);}</style>
    <clipPath
       id="clip-path"
       transform="translate(0 0)">
      <rect
         class="cls-1"
         width="23.440001"
         height="34.919998"
         id="rect4"
         x="0"
         y="0" />
    </clipPath>
  </defs>
  <g
     id="Layer_2"
     data-name="Layer 2"
     style="fill:#ad8f68;fill-opacity:1"
     transform="translate(3,3)">
    <g
       id="Layer_1-2"
       data-name="Layer 1"
       style="fill:#ad8f68;fill-opacity:1">
      <g
         class="cls-2"
         clip-path="url(#clip-path)"
         id="g17"
         style="fill:#ad8f68;fill-opacity:1">
        <path
           d="m 23.23,0 -4.66,3.59 a 0.86,0.86 0 0 0 -0.33,0.52 4.84,4.84 0 0 0 1.34,4.89 2.51,2.51 0 0 0 1.18,0.56 0.78,0.78 0 0 0 0.87,-0.6 l 1.81,-8.8 A 0.13200379,0.13200379 0 0 0 23.23,0"
           id="path9"
           style="fill:#ad8f68;fill-opacity:1" />
        <path
           d="m 16.82,5.35 -0.89,0.73 a 5.79,5.79 0 0 0 0.86,6 c 1.78,2.34 3.21,1.61 3.21,1.61 l 0.4,-1.56 a 3.76,3.76 0 0 1 0.23,3 C 19.92,16.92 18.2,16.85 16.28,15.25 14.36,13.65 12.2,8.9 14.6,6.17 a 2.07,2.07 0 0 1 2.25,-0.78"
           id="path11"
           style="fill:#ad8f68;fill-opacity:1" />
        <path
           d="m 11.37,9.88 -1.14,0.95 a 10,10 0 0 0 2.48,9.68 c 3.39,3.64 5.05,1.79 5.05,1.79 l 0.47,-1.84 a 5.69,5.69 0 0 1 0.21,4 c -0.83,2 -3.4,2.2 -6,0.57 C 9.84,23.4 5.15,17.28 8.12,11.43 a 2.78,2.78 0 0 1 3.29,-1.58"
           id="path13"
           style="fill:#ad8f68;fill-opacity:1" />
        <path
           d="m 4.74,15.34 -1.92,1.58 a 13.85,13.85 0 0 0 4.47,11.76 c 5.45,4.92 8.4,1.77 8.4,1.77 l 0.48,-1.85 a 4.51,4.51 0 0 1 -0.24,4.31 C 14.78,35.09 12.12,35.47 8.44,34.16 2.54,32.06 -2.73,21.88 1.57,16.51 a 2.78,2.78 0 0 1 3.17,-1.17"
           id="path15"
           style="fill:#ad8f68;fill-opacity:1" />
      </g>
    </g>
  </g>
</svg>
