<?xml version="1.0" encoding="UTF-8" standalone="no"?>
<svg
   viewBox="0 0 39.37 35.629998"
   version="1.1"
   id="svg17"
   sodipodi:docname="fh-fist.svg"
   inkscape:version="1.1.2 (0a00cf5339, 2022-02-04)"
   width="39.369999"
   height="35.629997"
   xmlns:inkscape="http://www.inkscape.org/namespaces/inkscape"
   xmlns:sodipodi="http://sodipodi.sourceforge.net/DTD/sodipodi-0.dtd"
   xmlns="http://www.w3.org/2000/svg"
   xmlns:svg="http://www.w3.org/2000/svg">
  <sodipodi:namedview
     id="namedview19"
     pagecolor="#ffffff"
     bordercolor="#666666"
     borderopacity="1.0"
     inkscape:pageshadow="2"
     inkscape:pageopacity="0.0"
     inkscape:pagecheckerboard="0"
     showgrid="false"
     inkscape:zoom="29.463383"
     inkscape:cx="19.668481"
     inkscape:cy="17.835698"
     inkscape:window-width="1846"
     inkscape:window-height="1016"
     inkscape:window-x="0"
     inkscape:window-y="0"
     inkscape:window-maximized="1"
     inkscape:current-layer="svg17"
     lock-margins="true"
     fit-margin-top="3"
     fit-margin-left="3"
     fit-margin-right="3"
     fit-margin-bottom="3" />
  <defs
     id="defs7">
    <style
       id="style2">.cls-1{fill:none;}.cls-2{clip-path:url(#clip-path);}</style>
    <clipPath
       id="clip-path"
       transform="translate(0 0)">
      <rect
         class="cls-1"
         width="33.369999"
         height="29.629999"
         id="rect4"
         x="0"
         y="0" />
    </clipPath>
  </defs>
  <g
     id="Layer_2"
     data-name="Layer 2"
     style="fill:#88abc6;fill-opacity:1"
     transform="translate(3,3)">
    <g
       id="Layer_1-2"
       data-name="Layer 1"
       style="fill:#88abc6;fill-opacity:1">
      <g
         class="cls-2"
         clip-path="url(#clip-path)"
         id="g13"
         style="fill:#88abc6;fill-opacity:1">
        <path
           d="M 31.78,14.91 33.19,12.73 33.37,9.23 30.49,7.68 27.54,4.47 27.45,2.25 23.2,0.38 20.43,1.38 19.94,0.86 15.64,0 12.12,2 9.72,2.14 5.92,0.93 5.12,4.12 4.06,4.4 2.77,10.13 0,15.25 1.57,19.76 4.15,15.36 3.7,11.79 7.17,4.51 l 1.3,0.2 7.85,-2.61 3.5,0.94 c 0.44,0.29 3.5,2.41 3.5,2.41 l 4.18,0.61 1.21,1.31 a 8.18,8.18 0 0 1 2,7.14 l -1.31,6.55 -4.81,4.15 v 0 l -4.1,1.06 -0.79,-1.87 -2.82,0.05 -3.3,-0.6 -0.41,3.94 4.63,1.84 2.93,-2.11 1.91,-0.52 2.41,0.43 1.63,-1.4 4.82,-0.91 0.83,-5.24 -0.7,-0.8 0.12,-4 z M 1.69,17.16 1.33,15.73 2.86,15.26 Z M 7.41,3.54 6.41,2.54 6.59,2 9.42,2.9 Z M 25.86,4.63 24.74,4.47 24,4 26.48,2.88 Z M 17.68,28.28 17.26,25.5 19,25.45 19.29,27 Z m 13,-4.61 -1.68,-0.52 2.19,-2 z"
           id="path9"
           style="fill:#88abc6;fill-opacity:1" />
        <path
           d="M 10.45,26.76 C 9.53,27.09 8.9,26.22 8.1,26 A 6.09,6.09 0 0 1 4.47,23.43 C 4,23.14 3.8,23.43 3.8,23.43 A 4.49,4.49 0 0 0 3.74,21.86 c -0.18,-0.35 -0.64,0 -0.64,0 a 2.25,2.25 0 0 1 0.76,-1.21 c 0.31,-0.21 0.34,-2 0.43,-2.42 a 4.26,4.26 0 0 1 1.32,-1.89 c 0.07,1.38 -0.17,4.18 1.45,5.32 1.11,0.79 1.6,0.06 3,1.24 1.4,1.18 1.3,3.49 0.38,3.81 M 28,15.24 c -0.05,0.45 0,1.07 0,1.32 -0.19,5.45 -2.07,5.58 -3,5.71 -0.7,0.09 -1.62,0 -1.35,-0.63 a 15.33,15.33 0 0 0 0.69,-4.85 c 0,-2 -0.46,-4.33 -0.76,-4.14 -0.3,0.19 0,3.13 -0.11,4.28 -0.19,3.06 -0.55,4.1 -1.26,4.79 a 2.85,2.85 0 0 1 -3.42,0.16 c -0.5,-0.33 0,-2.76 0.05,-4.81 0.13,-3.49 -0.41,-5.76 -0.69,-5.71 -0.28,0.05 0,3.34 -0.23,6.76 C 17.75,21 18,22 15.47,22.18 c -2.53,0.18 -2.79,-1.49 -3,-4.36 -0.46,-5.5 0.58,-6.85 0.27,-7.08 -0.49,-0.36 -1,1.44 -1.21,3.2 a 33,33 0 0 0 0.31,6.32 c 0,0 0.24,1.2 -2.07,1.07 -3.09,-0.17 -3.56,-0.8 -3.36,-6.89 0.05,-0.48 -0.27,-1 -0.7,-0.6 a 1.38,1.38 0 0 1 0.1,-1.44 c 0.73,-1 1,-2 0.07,-2.09 C 6.09,9.38 6.95,9.42 7.2,8.94 7.53,8.3 7.47,7.88 8.27,7.16 c 0.8,-0.72 2,-0.71 2.21,-1.47 a 3.19,3.19 0 0 0 2.8,0.49 13.73,13.73 0 0 1 4.11,-1.59 2,2 0 0 0 1.57,1.3 3.84,3.84 0 0 0 1.25,-0.13 1.74,1.74 0 0 0 1.63,1 c 1.53,0.14 2.05,1.3 2.53,1.56 a 4,4 0 0 0 2,0.2 1.91,1.91 0 0 1 1.43,0.56 c -0.22,0.06 -0.91,0.24 -0.93,0.59 0.15,0.33 1.22,0.49 1.65,1.9 0,0 -0.45,-0.3 -0.66,0.55 a 1.05,1.05 0 0 0 0,0.31 2.68,2.68 0 0 1 0.05,0.3 c 0.17,0.71 0.77,1.46 0.81,1.91 a 1.31,1.31 0 0 0 -0.68,0.56"
           id="path11"
           style="fill:#88abc6;fill-opacity:1" />
      </g>
    </g>
  </g>
</svg>
