<?xml version="1.0" encoding="UTF-8" standalone="no"?>
<svg
   viewBox="0 0 33.37 29.63"
   version="1.1"
   id="svg17"
   sodipodi:docname="fh-fist.svg"
   inkscape:version="1.1.2 (0a00cf5339, 2022-02-04)"
   xmlns:inkscape="http://www.inkscape.org/namespaces/inkscape"
   xmlns:sodipodi="http://sodipodi.sourceforge.net/DTD/sodipodi-0.dtd"
   xmlns="http://www.w3.org/2000/svg"
   xmlns:svg="http://www.w3.org/2000/svg">
  <sodipodi:namedview
     id="namedview19"
     pagecolor="#ffffff"
     bordercolor="#666666"
     borderopacity="1.0"
     inkscape:pageshadow="2"
     inkscape:pageopacity="0.0"
     inkscape:pagecheckerboard="0"
     showgrid="false"
     inkscape:zoom="29.463383"
     inkscape:cx="16.681723"
     inkscape:cy="14.815"
     inkscape:window-width="1846"
     inkscape:window-height="1016"
     inkscape:window-x="0"
     inkscape:window-y="0"
     inkscape:window-maximized="1"
     inkscape:current-layer="svg17" />
  <defs
     id="defs7">
    <style
       id="style2">.cls-1{fill:none;}.cls-2{clip-path:url(#clip-path);}</style>
    <clipPath
       id="clip-path"
       transform="translate(0 0)">
      <rect
         class="cls-1"
         width="33.37"
         height="29.63"
         id="rect4" />
    </clipPath>
  </defs>
  <g
     id="Layer_2"
     data-name="Layer 2"
     style="fill:#b6c1d3;fill-opacity:1">
    <g
       id="Layer_1-2"
       data-name="Layer 1"
       style="fill:#b6c1d3;fill-opacity:1">
      <g
         class="cls-2"
         clip-path="url(#clip-path)"
         id="g13"
         style="fill:#b6c1d3;fill-opacity:1">
        <path
           d="M31.78,14.91l1.41-2.18.18-3.5L30.49,7.68,27.54,4.47l-.09-2.22L23.2.38l-2.77,1L19.94.86,15.64,0,12.12,2l-2.4.14L5.92.93l-.8,3.19L4.06,4.4,2.77,10.13,0,15.25l1.57,4.51,2.58-4.4L3.7,11.79,7.17,4.51l1.3.2L16.32,2.1l3.5.94c.44.29,3.5,2.41,3.5,2.41l4.18.61,1.21,1.31a8.18,8.18,0,0,1,2,7.14l-1.31,6.55-4.81,4.15h0l-4.1,1.06L19.7,24.4l-2.82.05-3.3-.6-.41,3.94,4.63,1.84,2.93-2.11L22.64,27l2.41.43,1.63-1.4,4.82-.91.83-5.24-.7-.8.12-4ZM1.69,17.16l-.36-1.43,1.53-.47ZM7.41,3.54l-1-1L6.59,2l2.83.9ZM25.86,4.63l-1.12-.16L24,4l2.48-1.12ZM17.68,28.28l-.42-2.78L19,25.45,19.29,27Zm13-4.61L29,23.15l2.19-2Z"
           transform="translate(0 0)"
           id="path9"
           style="fill:#b6c1d3;fill-opacity:1" />
        <path
           d="M10.45,26.76c-.92.33-1.55-.54-2.35-.76a6.09,6.09,0,0,1-3.63-2.57c-.47-.29-.67,0-.67,0a4.49,4.49,0,0,0-.06-1.57c-.18-.35-.64,0-.64,0a2.25,2.25,0,0,1,.76-1.21c.31-.21.34-2,.43-2.42a4.26,4.26,0,0,1,1.32-1.89c.07,1.38-.17,4.18,1.45,5.32,1.11.79,1.6.06,3,1.24s1.3,3.49.38,3.81M28,15.24c-.05.45,0,1.07,0,1.32-.19,5.45-2.07,5.58-3,5.71-.7.09-1.62,0-1.35-.63a15.33,15.33,0,0,0,.69-4.85c0-2-.46-4.33-.76-4.14s0,3.13-.11,4.28c-.19,3.06-.55,4.1-1.26,4.79a2.85,2.85,0,0,1-3.42.16c-.5-.33,0-2.76.05-4.81.13-3.49-.41-5.76-.69-5.71s0,3.34-.23,6.76C17.75,21,18,22,15.47,22.18s-2.79-1.49-3-4.36c-.46-5.5.58-6.85.27-7.08-.49-.36-1,1.44-1.21,3.2a33,33,0,0,0,.31,6.32s.24,1.2-2.07,1.07c-3.09-.17-3.56-.8-3.36-6.89.05-.48-.27-1-.7-.6a1.38,1.38,0,0,1,.1-1.44c.73-1,1-2,.07-2.09.21-.93,1.07-.89,1.32-1.37.33-.64.27-1.06,1.07-1.78s2-.71,2.21-1.47a3.19,3.19,0,0,0,2.8.49,13.73,13.73,0,0,1,4.11-1.59,2,2,0,0,0,1.57,1.3,3.84,3.84,0,0,0,1.25-.13,1.74,1.74,0,0,0,1.63,1c1.53.14,2.05,1.3,2.53,1.56a4,4,0,0,0,2,.2,1.91,1.91,0,0,1,1.43.56c-.22.06-.91.24-.93.59.15.33,1.22.49,1.65,1.9,0,0-.45-.3-.66.55a1.05,1.05,0,0,0,0,.31,2.68,2.68,0,0,1,.05.3c.17.71.77,1.46.81,1.91a1.31,1.31,0,0,0-.68.56"
           transform="translate(0 0)"
           id="path11"
           style="fill:#b6c1d3;fill-opacity:1" />
      </g>
    </g>
  </g>
</svg>
