<?xml version="1.0" encoding="UTF-8" standalone="no"?>
<!-- Created with Inkscape (http://www.inkscape.org/) -->

<svg
   width="100mm"
   height="100mm"
   viewBox="0 0 100 100"
   version="1.1"
   id="svg2131"
   inkscape:version="1.1.2 (0a00cf5339, 2022-02-04)"
   sodipodi:docname="fh-geminate.svg"
   xmlns:inkscape="http://www.inkscape.org/namespaces/inkscape"
   xmlns:sodipodi="http://sodipodi.sourceforge.net/DTD/sodipodi-0.dtd"
   xmlns="http://www.w3.org/2000/svg"
   xmlns:svg="http://www.w3.org/2000/svg">
  <sodipodi:namedview
     id="namedview2133"
     pagecolor="#ffffff"
     bordercolor="#666666"
     borderopacity="1.0"
     inkscape:pageshadow="2"
     inkscape:pageopacity="0.0"
     inkscape:pagecheckerboard="0"
     inkscape:document-units="mm"
     showgrid="false"
     inkscape:zoom="0.64765011"
     inkscape:cx="-132.01573"
     inkscape:cy="559.7158"
     inkscape:window-width="1846"
     inkscape:window-height="1016"
     inkscape:window-x="0"
     inkscape:window-y="0"
     inkscape:window-maximized="1"
     inkscape:current-layer="layer1" />
  <defs
     id="defs2128">
    <clipPath
       clipPathUnits="userSpaceOnUse"
       id="clipPath764">
      <path
         d="m 162.124,231.889 h 7.717 v 7.973 h -7.717 z"
         id="path762" />
    </clipPath>
  </defs>
  <g
     inkscape:label="Layer 1"
     inkscape:groupmode="layer"
     id="layer1">
    <g
       id="g758"
       transform="matrix(11.012765,0,0,-11.012765,-1777.9263,2647.6407)"
       style="fill:#c33e69;fill-opacity:1">
      <g
         id="g760"
         clip-path="url(#clipPath764)"
         style="fill:#c33e69;fill-opacity:1">
        <g
           id="g766"
           transform="translate(168.4453,234.5975)"
           style="fill:#c33e69;fill-opacity:1">
          <path
             d="m 0,0 c -0.282,-0.905 -0.728,-1.33 -1.278,-1.668 -0.072,-0.045 -0.158,0.031 -0.122,0.109 0.286,0.628 0.497,1.381 0.433,2.18 C -0.99,0.909 -1.03,1.15 -1.081,1.36 -0.886,1.546 -0.8,1.978 -0.92,2.322 -1.048,2.686 -1.425,2.908 -1.736,2.842 -1.789,2.964 -1.836,3.09 -1.875,3.22 -1.589,3.319 -1.1,3.183 -0.76,2.628 c 0.379,-0.617 0.317,-1.44 0.222,-1.989 -0.094,-0.55 0.325,-0.441 0.388,-0.391 0.063,0.05 -0.201,0.019 -0.23,0.181 -0.028,0.161 0.478,1.633 -0.198,2.702 -0.412,0.651 -1.162,0.7 -1.426,0.7 -0.007,0.139 -0.012,0.309 0,0.429 C -0.727,4.202 0.355,2.912 0.222,1.197 0.222,0.735 0.36,0.556 0.36,0.556 0.36,0.556 0.285,0.165 0,0 M -0.864,5.108 C -1.135,5.072 -1.625,5.014 -2.091,4.992 -2.176,4.988 -2.248,4.928 -2.269,4.843 -2.336,4.566 -2.397,4.17 -2.37,3.708 c 0.064,-1.093 0.76,-1.44 0.972,-3.124 0.16,-1.275 -0.461,-2.476 -0.914,-3.159 -0.044,-0.068 0.02,-0.155 0.097,-0.13 1.536,0.506 3.194,1.988 3.591,3.194 0.013,0.038 0.019,0.078 0.02,0.118 C 1.428,2.95 0.019,4.506 -0.48,4.983 -0.582,5.081 -0.724,5.127 -0.864,5.108"
             style="fill:#c33e69;fill-opacity:1;fill-rule:nonzero;stroke:none"
             id="path768" />
        </g>
        <g
           id="g770"
           transform="translate(166.0889,233.7057)"
           style="fill:#c33e69;fill-opacity:1">
          <path
             d="m 0,0 c -0.026,-0.36 -0.134,-0.697 -0.268,-0.988 -0.044,-0.095 -0.146,-0.15 -0.25,-0.134 -1.189,0.189 -1.441,1.102 -1.882,1.929 -0.289,0.157 -0.374,0.543 -0.374,0.543 0,0 0.133,0.18 0.121,0.639 -0.162,1.561 0.691,2.875 1.671,3.105 C -1.018,4.978 -1.056,4.803 -1.079,4.686 -1.278,4.591 -1.69,4.385 -1.858,3.826 -1.732,3.535 -1.336,2.765 -0.567,2.418 -0.257,1.686 0.065,0.896 0,0 m -0.685,4.179 c -0.032,0.527 0.141,1.152 0.349,1.59 0.032,0.069 -0.008,0.15 -0.082,0.166 C -0.739,6.004 -1.053,6.086 -1.255,6.142 -1.397,6.181 -1.549,6.138 -1.649,6.03 -2.912,4.667 -3.595,3.225 -3.955,1.669 -3.974,1.586 -3.966,1.498 -3.931,1.42 -3.2,-0.217 -1.85,-1.299 -0.57,-1.762 c 0.11,-0.04 0.233,0.002 0.297,0.1 0.284,0.432 0.633,1.096 0.666,1.794 0.097,2.025 -0.999,2.714 -1.078,4.047"
             style="fill:#c33e69;fill-opacity:1;fill-rule:nonzero;stroke:none"
             id="path772" />
        </g>
        <g
           id="g774"
           transform="translate(165.1754,235.3378)"
           style="fill:#c33e69;fill-opacity:1">
          <path
             d="m 0,0 c 0.615,-0.795 0.112,-1.418 -0.084,-1.494 -0.128,-0.05 -0.278,-0.073 -0.458,0.108 -0.181,0.181 -0.145,0.434 -0.048,0.446 0.096,0.012 0.076,-0.329 0.325,-0.325 0.133,0.002 0.333,0.229 0.108,0.723 -0.184,0.405 -0.936,0.498 -1.145,0.976 -0.047,0.448 -10e-4,0.829 0.094,1.15 C -1.019,1.169 -0.522,0.676 0,0"
             style="fill:#c33e69;fill-opacity:1;fill-rule:nonzero;stroke:none"
             id="path776" />
        </g>
      </g>
    </g>
  </g>
</svg>
