<?xml version="1.0" encoding="UTF-8" standalone="no"?>
<svg
   viewBox="0 0 26.38 33.87"
   version="1.1"
   id="svg21"
   sodipodi:docname="fh-shards.svg"
   inkscape:version="1.1.2 (0a00cf5339, 2022-02-04)"
   xmlns:inkscape="http://www.inkscape.org/namespaces/inkscape"
   xmlns:sodipodi="http://sodipodi.sourceforge.net/DTD/sodipodi-0.dtd"
   xmlns="http://www.w3.org/2000/svg"
   xmlns:svg="http://www.w3.org/2000/svg">
  <sodipodi:namedview
     id="namedview23"
     pagecolor="#ffffff"
     bordercolor="#666666"
     borderopacity="1.0"
     inkscape:pageshadow="2"
     inkscape:pageopacity="0.0"
     inkscape:pagecheckerboard="0"
     showgrid="false"
     inkscape:zoom="25.775023"
     inkscape:cx="13.171666"
     inkscape:cy="16.934999"
     inkscape:window-width="1846"
     inkscape:window-height="1016"
     inkscape:window-x="0"
     inkscape:window-y="0"
     inkscape:window-maximized="1"
     inkscape:current-layer="svg21" />
  <defs
     id="defs7">
    <style
       id="style2">.cls-1{fill:none;}.cls-2{clip-path:url(#clip-path);}</style>
    <clipPath
       id="clip-path"
       transform="translate(0 0)">
      <rect
         class="cls-1"
         width="26.38"
         height="33.87"
         id="rect4" />
    </clipPath>
  </defs>
  <g
     id="Layer_2"
     data-name="Layer 2"
     style="fill:#c0d7e9;fill-opacity:1">
    <g
       id="Layer_1-2"
       data-name="Layer 1"
       style="fill:#c0d7e9;fill-opacity:1">
      <g
         class="cls-2"
         clip-path="url(#clip-path)"
         id="g17"
         style="fill:#c0d7e9;fill-opacity:1">
        <path
           d="M18.56,2.41,12.82,0l-4,3.67L8.62,10.1l1.25,2.19.29,3.8,4.51,3a.17.17,0,0,0,.24,0l4.62-7.56ZM14.81,17.72l-.24-1.39a1.59,1.59,0,0,0-.56-1l-2.89-2.8-.42-1.36,3.68,2.58-.3-5.26,3.61-3.69,1,6.49Z"
           transform="translate(0 0)"
           id="path9"
           style="fill:#c0d7e9;fill-opacity:1" />
        <path
           d="M23.24,13.21l-7.45,7.54c-.09.09,0,.24.14.21l4.78-1.3,4.46,1.09,1.21-4Zm.26,4.27a1.69,1.69,0,0,1-1.06.79l-4.25,1.05s0,0,0,0L22.91,15l1.21,1.5Z"
           transform="translate(0 0)"
           id="path11"
           style="fill:#c0d7e9;fill-opacity:1" />
        <path
           d="M18.57,22.34,15.2,23.49,13,22.3a.15.15,0,0,0-.25,0L9.63,28.47l1.52,5,1.4.38,6.82-3,4.33-6.7Zm0,7.74-5.49,2.43c-.26.1-.53-.15-.4-.38l1.61-4.66a2.49,2.49,0,0,1,1.08-1.33L18,24.55l3.86.57Z"
           transform="translate(0 0)"
           id="path13"
           style="fill:#c0d7e9;fill-opacity:1" />
        <path
           d="M9.6,19.85l0-1.7L7.42,15.7l0-2.46L4.28,10,0,19.41l4.39,5.67,2.12-.5,2.33,1,1.8-3.86Zm-5-7.37L6,14l.22,2.26L8.66,19l-.57,1.26,1.12,1.69-1.6.15L6.37,23.33,4.58,21.07V17.83L3.2,19.32,3,16.42a2.39,2.39,0,0,1,.22-1.15Z"
           transform="translate(0 0)"
           id="path15"
           style="fill:#c0d7e9;fill-opacity:1" />
      </g>
    </g>
  </g>
</svg>
