<?xml version="1.0" encoding="UTF-8" standalone="no"?>
<svg
   viewBox="0 0 32.379998 39.85"
   version="1.1"
   id="svg21"
   sodipodi:docname="fh-shards.svg"
   inkscape:version="1.1.2 (0a00cf5339, 2022-02-04)"
   width="32.379997"
   height="39.849998"
   xmlns:inkscape="http://www.inkscape.org/namespaces/inkscape"
   xmlns:sodipodi="http://sodipodi.sourceforge.net/DTD/sodipodi-0.dtd"
   xmlns="http://www.w3.org/2000/svg"
   xmlns:svg="http://www.w3.org/2000/svg">
  <sodipodi:namedview
     id="namedview23"
     pagecolor="#ffffff"
     bordercolor="#666666"
     borderopacity="1.0"
     inkscape:pageshadow="2"
     inkscape:pageopacity="0.0"
     inkscape:pagecheckerboard="0"
     showgrid="false"
     inkscape:zoom="25.775023"
     inkscape:cx="16.159054"
     inkscape:cy="19.922388"
     inkscape:window-width="1846"
     inkscape:window-height="1136"
     inkscape:window-x="0"
     inkscape:window-y="0"
     inkscape:window-maximized="1"
     inkscape:current-layer="svg21"
     lock-margins="true"
     fit-margin-top="3"
     fit-margin-left="3"
     fit-margin-right="3"
     fit-margin-bottom="3" />
  <defs
     id="defs7">
    <style
       id="style2">.cls-1{fill:none;}.cls-2{clip-path:url(#clip-path);}</style>
    <clipPath
       id="clip-path"
       transform="translate(0 0)">
      <rect
         class="cls-1"
         width="26.379999"
         height="33.869999"
         id="rect4"
         x="0"
         y="0" />
    </clipPath>
  </defs>
  <g
     id="Layer_2"
     data-name="Layer 2"
     style="fill:#c0d7e9;fill-opacity:1"
     transform="translate(3,3)">
    <g
       id="Layer_1-2"
       data-name="Layer 1"
       style="fill:#c0d7e9;fill-opacity:1">
      <g
         class="cls-2"
         clip-path="url(#clip-path)"
         id="g17"
         style="fill:#c0d7e9;fill-opacity:1">
        <path
           d="M 18.56,2.41 12.82,0 l -4,3.67 -0.2,6.43 1.25,2.19 0.29,3.8 4.51,3 a 0.17,0.17 0 0 0 0.24,0 l 4.62,-7.56 z m -3.75,15.31 -0.24,-1.39 a 1.59,1.59 0 0 0 -0.56,-1 l -2.89,-2.8 -0.42,-1.36 3.68,2.58 -0.3,-5.26 3.61,-3.69 1,6.49 z"
           id="path9"
           style="fill:#c0d7e9;fill-opacity:1" />
        <path
           d="m 23.24,13.21 -7.45,7.54 c -0.09,0.09 0,0.24 0.14,0.21 l 4.78,-1.3 4.46,1.09 1.21,-4 z m 0.26,4.27 a 1.69,1.69 0 0 1 -1.06,0.79 l -4.25,1.05 c 0,0 0,0 0,0 l 4.72,-4.32 1.21,1.5 z"
           id="path11"
           style="fill:#c0d7e9;fill-opacity:1" />
        <path
           d="M 18.57,22.34 15.2,23.49 13,22.3 a 0.15,0.15 0 0 0 -0.25,0 l -3.12,6.17 1.52,5 1.4,0.38 6.82,-3 4.33,-6.7 z m 0,7.74 -5.49,2.43 c -0.26,0.1 -0.53,-0.15 -0.4,-0.38 l 1.61,-4.66 a 2.49,2.49 0 0 1 1.08,-1.33 l 2.63,-1.59 3.86,0.57 z"
           id="path13"
           style="fill:#c0d7e9;fill-opacity:1" />
        <path
           d="m 9.6,19.85 v -1.7 L 7.42,15.7 V 13.24 L 4.28,10 0,19.41 l 4.39,5.67 2.12,-0.5 2.33,1 1.8,-3.86 z M 4.6,12.48 6,14 6.22,16.26 8.66,19 8.09,20.26 9.21,21.95 7.61,22.1 6.37,23.33 4.58,21.07 V 17.83 L 3.2,19.32 3,16.42 a 2.39,2.39 0 0 1 0.22,-1.15 z"
           id="path15"
           style="fill:#c0d7e9;fill-opacity:1" />
      </g>
    </g>
  </g>
</svg>
