<?xml version="1.0" encoding="UTF-8" standalone="no"?>
<svg
   viewBox="0 0 34.24 32.17"
   version="1.1"
   id="svg31"
   sodipodi:docname="fh-shackles.svg"
   inkscape:version="1.1.2 (0a00cf5339, 2022-02-04)"
   xmlns:inkscape="http://www.inkscape.org/namespaces/inkscape"
   xmlns:sodipodi="http://sodipodi.sourceforge.net/DTD/sodipodi-0.dtd"
   xmlns="http://www.w3.org/2000/svg"
   xmlns:svg="http://www.w3.org/2000/svg">
  <sodipodi:namedview
     id="namedview33"
     pagecolor="#ffffff"
     bordercolor="#666666"
     borderopacity="1.0"
     inkscape:pageshadow="2"
     inkscape:pageopacity="0.0"
     inkscape:pagecheckerboard="0"
     showgrid="false"
     inkscape:zoom="27.137086"
     inkscape:cx="17.116797"
     inkscape:cy="16.084999"
     inkscape:window-width="1846"
     inkscape:window-height="1016"
     inkscape:window-x="0"
     inkscape:window-y="0"
     inkscape:window-maximized="1"
     inkscape:current-layer="svg31" />
  <defs
     id="defs7">
    <style
       id="style2">.cls-1{fill:none;}.cls-2{clip-path:url(#clip-path);}</style>
    <clipPath
       id="clip-path"
       transform="translate(0 0)">
      <rect
         class="cls-1"
         width="34.24"
         height="32.17"
         id="rect4" />
    </clipPath>
  </defs>
  <g
     id="Layer_2"
     data-name="Layer 2"
     style="fill:#b1b2e0;fill-opacity:1">
    <g
       id="Layer_1-2"
       data-name="Layer 1"
       style="fill:#b1b2e0;fill-opacity:1">
      <g
         class="cls-2"
         clip-path="url(#clip-path)"
         id="g27"
         style="fill:#b1b2e0;fill-opacity:1">
        <path
           d="M15.08,2.8,12.81.53,12.69.41h0A1.84,1.84,0,0,0,11.3,0C9.4.12,6.53,2.05,4,4.91c-2.68,3-4.18,6.17-4,8H0a1.81,1.81,0,0,0,.54,1.16h0L3,16.47a1.7,1.7,0,0,0,1.2.41C6,16.88,9,15,11.65,12h0C15,8.13,16.54,4.1,15.08,2.8M8.75,9.44c-1.6,1.93-5.33,5.15-7.58,4.45-.48-.15-.52-.4-.53-.55a4.5,4.5,0,0,0,2.94-.42A19.49,19.49,0,0,1,7,7.71a18,18,0,0,1,4.83-4.09,4,4,0,0,0,.37-3c.17,0,.34.31.39.46C13.47,3.56,10.81,7,8.75,9.44"
           transform="translate(0 0)"
           id="path9"
           style="fill:#b1b2e0;fill-opacity:1" />
        <path
           d="M9.53,21.18a2.76,2.76,0,0,1-2.47-1.53L5.77,17.06A2.76,2.76,0,0,1,5.64,15,2.71,2.71,0,0,1,7,13.36a2.76,2.76,0,0,1,2.11-.13,2.66,2.66,0,0,1,1.58,1.38L12,17.21a2.75,2.75,0,0,1-2.47,4m-1.29-6.6a1.17,1.17,0,0,0-.55.13,1.23,1.23,0,0,0-.64.72,1.28,1.28,0,0,0,.07,1L8.4,19a1.27,1.27,0,0,0,1.69.57,1.26,1.26,0,0,0,.63-.73,1.28,1.28,0,0,0-.06-1L9.37,15.28a1.23,1.23,0,0,0-.72-.64,1.45,1.45,0,0,0-.41-.06"
           transform="translate(0 0)"
           id="path11"
           style="fill:#b1b2e0;fill-opacity:1" />
        <path
           d="M19.07,23.6,18,21.37a3.31,3.31,0,0,0-2.15-1.77c-2.61-.62-3.79,2.4-3,3.85a5.05,5.05,0,0,1,.56,2.5.32.32,0,0,0,.3.33.91.91,0,0,0,1-.72,7,7,0,0,0-.54-2.78,1.37,1.37,0,0,1,.57-1.68,1.26,1.26,0,0,1,1.69.57l1.28,2.59a1.23,1.23,0,0,1,.06,1,1.26,1.26,0,0,1-.48.65A1,1,0,0,0,18.12,27a.4.4,0,0,0,.29-.1,2.74,2.74,0,0,0,.8-1.2,2.69,2.69,0,0,0-.14-2.1"
           transform="translate(0 0)"
           id="path13"
           style="fill:#b1b2e0;fill-opacity:1" />
        <path
           d="M15.39,22.8a.75.75,0,0,1-.38-.1L9.19,19.29A.75.75,0,1,1,10,18l5.82,3.4a.75.75,0,0,1-.38,1.4"
           transform="translate(0 0)"
           id="path15"
           style="fill:#b1b2e0;fill-opacity:1" />
        <path
           d="M21.3,21.85a2.77,2.77,0,0,1-1-2.74l.6-2.83a2.71,2.71,0,0,1,1.19-1.74,2.76,2.76,0,0,1,2.07-.39,2.76,2.76,0,0,1,2.13,3.26l-.59,2.83a2.76,2.76,0,0,1-3.27,2.13,2.79,2.79,0,0,1-1.13-.52m3.07-6a1.2,1.2,0,0,0-.51-.24,1.27,1.27,0,0,0-.95.18,1.3,1.3,0,0,0-.55.79l-.59,2.84a1.21,1.21,0,0,0,.18.94,1.23,1.23,0,0,0,.79.55,1.27,1.27,0,0,0,1-.18,1.24,1.24,0,0,0,.54-.79l.6-2.84a1.25,1.25,0,0,0-.18-.94,1.38,1.38,0,0,0-.28-.31"
           transform="translate(0 0)"
           id="path17"
           style="fill:#b1b2e0;fill-opacity:1" />
        <path
           d="M24.05,24.16a2.76,2.76,0,0,0-2.84,2.67l-.1,2.89a2.42,2.42,0,0,0,1.45,2.42,1,1,0,0,0,.73-.1,1.05,1.05,0,0,0,.43-.82.08.08,0,0,0,0-.07,1.51,1.51,0,0,1-.72-.48,1.24,1.24,0,0,1-.34-.9l.09-2.89A1.27,1.27,0,0,1,24,25.66a1.25,1.25,0,0,1,.55.15A1.08,1.08,0,0,1,25.22,27a6,6,0,0,0,.41,3,.43.43,0,0,0,.17.24.88.88,0,0,0,.61.13,2,2,0,0,0,.42-.1.35.35,0,0,0,.24-.39A7.57,7.57,0,0,1,26.71,27a2.72,2.72,0,0,0-2.66-2.85"
           transform="translate(0 0)"
           id="path19"
           style="fill:#b1b2e0;fill-opacity:1" />
        <path
           d="M23.59,27a.78.78,0,0,1-.18-.35L22.12,20a.74.74,0,0,1,1.46-.28l1.3,6.62a.75.75,0,0,1-1.29.64"
           transform="translate(0 0)"
           id="path21"
           style="fill:#b1b2e0;fill-opacity:1" />
        <polyline
           points="0.02 12.93 0.02 12.93 0.02 12.92 0.02 12.93"
           id="polyline23"
           style="fill:#b1b2e0;fill-opacity:1" />
        <path
           d="M32.39,16.92,34,14.14a1.09,1.09,0,0,0,.08-.15h0a1.85,1.85,0,0,0,0-1.45c-.61-1.8-3.21-4.08-6.64-5.79C23.86,5,20.43,4.32,18.7,5h0a1.8,1.8,0,0,0-1,.82h0L16,8.75A1.72,1.72,0,0,0,16,10c.48,1.78,3.05,4.15,6.68,6h0c4.58,2.28,8.86,2.69,9.74.94m-8-4.39c-2.29-1-6.36-3.81-6.27-6.16,0-.51.25-.61.39-.66a4.55,4.55,0,0,0,1.17,2.73,19.51,19.51,0,0,1,5.92,1.94,18.11,18.11,0,0,1,5.2,3.6,4,4,0,0,0,3-.42c0,.16-.2.41-.34.5-2.16,1.5-6.14-.18-9.06-1.53"
           transform="translate(0 0)"
           id="path25"
           style="fill:#b1b2e0;fill-opacity:1" />
      </g>
    </g>
  </g>
</svg>
