<?xml version="1.0" encoding="UTF-8" standalone="no"?>
<svg
   viewBox="0 0 38.380001 38.380001"
   version="1.1"
   id="svg37"
   sodipodi:docname="fh-snowflake.svg"
   inkscape:version="1.1.2 (0a00cf5339, 2022-02-04)"
   width="38.380001"
   height="38.380001"
   xmlns:inkscape="http://www.inkscape.org/namespaces/inkscape"
   xmlns:sodipodi="http://sodipodi.sourceforge.net/DTD/sodipodi-0.dtd"
   xmlns="http://www.w3.org/2000/svg"
   xmlns:svg="http://www.w3.org/2000/svg">
  <sodipodi:namedview
     id="namedview39"
     pagecolor="#ffffff"
     bordercolor="#666666"
     borderopacity="1.0"
     inkscape:pageshadow="2"
     inkscape:pageopacity="0.0"
     inkscape:pagecheckerboard="0"
     showgrid="false"
     inkscape:zoom="26.936131"
     inkscape:cx="19.249238"
     inkscape:cy="19.212113"
     inkscape:window-width="1846"
     inkscape:window-height="1016"
     inkscape:window-x="0"
     inkscape:window-y="0"
     inkscape:window-maximized="1"
     inkscape:current-layer="svg37"
     fit-margin-left="3"
     lock-margins="true"
     fit-margin-top="3"
     fit-margin-right="3"
     fit-margin-bottom="3" />
  <defs
     id="defs7">
    <style
       id="style2">.cls-1{fill:none;}.cls-2{clip-path:url(#clip-path);}</style>
    <clipPath
       id="clip-path"
       transform="translate(0 0)">
      <rect
         class="cls-1"
         width="32.41"
         height="32.41"
         id="rect4"
         x="0"
         y="0" />
    </clipPath>
  </defs>
  <g
     id="Layer_2"
     data-name="Layer 2"
     style="fill:#83b5be;fill-opacity:1"
     transform="translate(3,3)">
    <g
       id="Layer_1-2"
       data-name="Layer 1"
       style="fill:#83b5be;fill-opacity:1">
      <g
         class="cls-2"
         clip-path="url(#clip-path)"
         id="g33"
         style="fill:#83b5be;fill-opacity:1">
        <path
           d="M 17,6.19 C 16.69,1 16.52,0 16.21,0 15.9,0 15.72,1 15.43,6.19 c -0.06,1.11 -0.33,5.57 -0.34,10 -0.01,4.43 0.26,8.92 0.31,10 0.28,5.24 0.49,6.19 0.81,6.19 0.32,0 0.53,-0.95 0.8,-6.19 0,-1.08 0.32,-5.53 0.31,-10 C 17.31,11.72 17,7.3 17,6.19"
           id="path9"
           style="fill:#83b5be;fill-opacity:1" />
        <path
           d="M 6.19,15.43 C 1,15.72 0,15.89 0,16.21 c 0,0.32 1,0.48 6.19,0.77 1.12,0.06 5.57,0.34 10,0.34 4.43,0 8.93,-0.26 10,-0.31 5.24,-0.27 6.19,-0.49 6.19,-0.8 0,-0.31 -0.95,-0.53 -6.19,-0.81 -1.08,-0.05 -5.53,-0.31 -10,-0.31 -4.47,0 -8.93,0.28 -10,0.34"
           id="path11"
           style="fill:#83b5be;fill-opacity:1" />
        <path
           d="m 8.58,22.74 c -3.5,3.91 -4,4.7 -3.83,4.93 0.17,0.23 1,-0.33 4.92,-3.83 0.84,-0.75 4.18,-3.7 7.33,-6.85 3.15,-3.15 6.13,-6.49 6.86,-7.3 3.51,-3.9 4,-4.72 3.81,-4.94 -0.19,-0.22 -1.05,0.29 -5,3.81 -0.8,0.72 -4.14,3.68 -7.29,6.84 -3.15,3.16 -6.11,6.51 -6.85,7.34"
           id="path13"
           style="fill:#83b5be;fill-opacity:1" />
        <path
           d="M 9.67,8.57 C 5.76,5.07 5,4.52 4.75,4.75 c -0.25,0.23 0.32,1 3.82,4.92 0.75,0.83 3.7,4.17 6.85,7.32 3.15,3.15 6.49,6.14 7.3,6.86 3.9,3.52 4.72,4 5,3.81 0.28,-0.19 -0.3,-1 -3.81,-4.94 C 23.18,21.91 20.22,18.58 17.06,15.43 13.9,12.28 10.5,9.32 9.67,8.57"
           id="path15"
           style="fill:#83b5be;fill-opacity:1" />
        <path
           d="m 12.36,29.21 c 0.28,0.28 2.51,-1.56 3.85,-2.8 1.2,1.13 3.51,3.14 3.85,2.8 0.5,-0.51 -3.43,-4.51 -3.85,-4.91 -0.27,0.25 -4.32,4.44 -3.85,4.91"
           id="path17"
           style="fill:#83b5be;fill-opacity:1" />
        <path
           d="M 20.06,3.2 C 19.77,2.92 17.54,4.76 16.21,6 15,4.87 12.7,2.86 12.36,3.2 11.85,3.71 15.78,7.71 16.21,8.11 16.47,7.86 20.52,3.67 20.06,3.2"
           id="path19"
           style="fill:#83b5be;fill-opacity:1" />
        <path
           d="m 22.68,28.12 c 0.4,0 0.68,-2.88 0.74,-4.7 1.65,-0.05 4.7,-0.26 4.7,-0.74 0,-0.72 -5.61,-0.77 -6.19,-0.75 0,0.36 0.09,6.19 0.75,6.19"
           id="path21"
           style="fill:#83b5be;fill-opacity:1" />
        <path
           d="M 9.74,4.29 C 9.33,4.29 9.06,7.17 9,9 7.35,9 4.3,9.26 4.3,9.74 c 0,0.72 5.61,0.77 6.19,0.75 0,-0.36 -0.09,-6.19 -0.74,-6.19"
           id="path23"
           style="fill:#83b5be;fill-opacity:1" />
        <path
           d="m 29.21,20.06 c 0.29,-0.29 -1.56,-2.52 -2.8,-3.85 1.13,-1.21 3.14,-3.51 2.8,-3.85 -0.5,-0.51 -4.51,3.42 -4.91,3.85 0.26,0.26 4.44,4.31 4.91,3.85"
           id="path25"
           style="fill:#83b5be;fill-opacity:1" />
        <path
           d="M 3.2,12.35 C 2.92,12.64 4.76,14.87 6,16.2 4.87,17.41 2.86,19.72 3.2,20.06 3.71,20.56 7.71,16.63 8.11,16.2 7.86,15.94 3.67,11.89 3.2,12.35"
           id="path27"
           style="fill:#83b5be;fill-opacity:1" />
        <path
           d="m 28.12,9.73 c 0,-0.4 -2.88,-0.68 -4.69,-0.74 -0.06,-1.65 -0.27,-4.7 -0.75,-4.7 -0.71,0 -0.77,5.61 -0.75,6.19 0.37,0 6.19,-0.09 6.19,-0.75"
           id="path29"
           style="fill:#83b5be;fill-opacity:1" />
        <path
           d="m 4.29,22.68 c 0,0.4 2.88,0.68 4.7,0.74 0,1.65 0.26,4.7 0.74,4.7 0.72,0 0.77,-5.61 0.75,-6.19 -0.36,0 -6.19,0.09 -6.19,0.75"
           id="path31"
           style="fill:#83b5be;fill-opacity:1" />
      </g>
    </g>
  </g>
</svg>
