<?xml version="1.0" encoding="UTF-8" standalone="no"?>
<svg
   viewBox="0 0 31.75 30.53"
   version="1.1"
   id="svg15"
   sodipodi:docname="fh-trap.svg"
   inkscape:version="1.1.2 (0a00cf5339, 2022-02-04)"
   xmlns:inkscape="http://www.inkscape.org/namespaces/inkscape"
   xmlns:sodipodi="http://sodipodi.sourceforge.net/DTD/sodipodi-0.dtd"
   xmlns="http://www.w3.org/2000/svg"
   xmlns:svg="http://www.w3.org/2000/svg">
  <sodipodi:namedview
     id="namedview17"
     pagecolor="#ffffff"
     bordercolor="#666666"
     borderopacity="1.0"
     inkscape:pageshadow="2"
     inkscape:pageopacity="0.0"
     inkscape:pagecheckerboard="0"
     showgrid="false"
     inkscape:zoom="28.594824"
     inkscape:cx="15.859514"
     inkscape:cy="15.265"
     inkscape:window-width="1846"
     inkscape:window-height="1016"
     inkscape:window-x="0"
     inkscape:window-y="0"
     inkscape:window-maximized="1"
     inkscape:current-layer="svg15" />
  <defs
     id="defs7">
    <style
       id="style2">.cls-1{fill:none;}.cls-2{clip-path:url(#clip-path);}</style>
    <clipPath
       id="clip-path"
       transform="translate(0 0)">
      <rect
         class="cls-1"
         width="31.75"
         height="30.53"
         id="rect4" />
    </clipPath>
  </defs>
  <g
     id="Layer_2"
     data-name="Layer 2"
     style="fill:#d2d4bf;fill-opacity:1">
    <g
       id="Layer_1-2"
       data-name="Layer 1"
       style="fill:#d2d4bf;fill-opacity:1">
      <g
         class="cls-2"
         clip-path="url(#clip-path)"
         id="g11"
         style="fill:#d2d4bf;fill-opacity:1">
        <path
           d="M26.66,3.78l-.3-.26c-.28.69-.47,1.1-.47,1.1L17.37,0l-.56,2.08L9.33,1.23l-1,3.57L2.92,6.73,3.55,11,0,14.2l2.59,5.29L.83,22l4.72,3.68-.47,1.53s4.95,2.59,7.85,3.05c4.18.67,13.94.67,17.46-8.26,3.35-8.51-.08-14.94-3.73-18.23m2.39,11.78-7.5-1a4.8,4.8,0,0,1,.46,2,4.64,4.64,0,0,1-1.28,3.22l5.94.82.92,2.2L23.2,25,22.14,28A18.07,18.07,0,0,1,17,29.1l.33-1.91.39-.17a.64.64,0,0,0,.34-.84.6.6,0,0,0-.5-.37l.3-1.73.43-.18a.64.64,0,0,0,.34-.84.63.63,0,0,0-.53-.38l.25-1.46a5.2,5.2,0,0,1-1.05.12,4.65,4.65,0,0,1-2.88-1l-.19,1.09-.4.17A.64.64,0,0,0,14,22.82l-.28,1.64-.26.11a.64.64,0,0,0-.34.83.67.67,0,0,0,.37.35l-.31,1.82-.29.12a.62.62,0,0,0-.36.75C4.51,25.21,4.67,18,4.67,18l8.58,1a4.59,4.59,0,0,1-.61-2.3,4.65,4.65,0,0,1,1.11-3L5.29,12.52a8.41,8.41,0,0,1,1-2.47A13.91,13.91,0,0,1,17.35,3.49l-.49,2.84-.32.14a.64.64,0,0,0-.34.83.66.66,0,0,0,.43.37l-.29,1.68-.18.08a.64.64,0,0,0-.34.83.61.61,0,0,0,.31.32l-.28,1.62A4.78,4.78,0,0,1,17.33,12a4.63,4.63,0,0,1,2.5.72l.11-.6.49-.21a.64.64,0,0,0,.34-.84.63.63,0,0,0-.59-.38L20.47,9,21,8.75a.64.64,0,0,0,.34-.83.63.63,0,0,0-.62-.38L21,6l.41-.17a.64.64,0,0,0-.17-1.22l.1-.57A19,19,0,0,1,29.13,9.2l-1.77,3.33Z"
           transform="translate(0 0)"
           id="path9"
           style="fill:#d2d4bf;fill-opacity:1" />
      </g>
    </g>
  </g>
</svg>
