<?xml version="1.0" encoding="UTF-8" standalone="no"?>
<svg
   version="1.0"
   width="100mm"
   height="100mm"
   viewBox="0 0 283.46456 283.46458"
   preserveAspectRatio="xMidYMid meet"
   id="svg10"
   sodipodi:docname="gh-angry-face.svg"
   inkscape:version="1.1.2 (0a00cf5339, 2022-02-04)"
   xmlns:inkscape="http://www.inkscape.org/namespaces/inkscape"
   xmlns:sodipodi="http://sodipodi.sourceforge.net/DTD/sodipodi-0.dtd"
   xmlns="http://www.w3.org/2000/svg"
   xmlns:svg="http://www.w3.org/2000/svg">
  <defs
     id="defs14" />
  <sodipodi:namedview
     id="namedview12"
     pagecolor="#ffffff"
     bordercolor="#666666"
     borderopacity="1.0"
     inkscape:pageshadow="2"
     inkscape:pageopacity="0.0"
     inkscape:pagecheckerboard="0"
     inkscape:document-units="pt"
     showgrid="false"
     units="mm"
     width="100mm"
     inkscape:zoom="0.24527665"
     inkscape:cx="46.885833"
     inkscape:cy="1479.9615"
     inkscape:window-width="1850"
     inkscape:window-height="1043"
     inkscape:window-x="0"
     inkscape:window-y="0"
     inkscape:window-maximized="1"
     inkscape:current-layer="svg10" />
  <metadata
     id="metadata2">
Created by potrace 1.16, written by Peter Selinger 2001-2019
</metadata>
  <g
     transform="matrix(0.01,0,0,-0.01,32.907335,252.88935)"
     fill="#000000"
     stroke="none"
     id="g8"
     style="fill:#5bc5dc;fill-opacity:1">
    <path
       d="m 10779,22177 c -190,-105 -340,-229 -609,-503 -243,-247 -295,-309 -850,-999 -501,-625 -670,-820 -702,-812 -10,3 -197,100 -416,215 -1322,699 -2089,1014 -2624,1077 l -123,14 -54,-52 c -90,-88 -306,-334 -409,-466 -366,-471 -699,-1003 -1033,-1648 -81,-157 -96,-182 -113,-177 -10,4 -137,63 -280,131 -931,446 -1450,658 -1876,767 -174,44 -262,56 -421,56 -183,0 -217,-18 -262,-140 -206,-548 -259,-1541 -133,-2460 l 23,-165 -47,-95 c -107,-214 -171,-461 -214,-830 -74,-627 -67,-1661 19,-2835 58,-784 132,-1471 282,-2617 l 27,-207 -26,-38 C 903,10341 719,10133 341,9716 167,9524 19,9359 13,9349 2,9334 67,9212 483,8463 c 742,-1332 784,-1403 874,-1479 305,-256 929,-628 2003,-1193 361,-190 1757,-889 2170,-1086 334,-160 360,-169 467,-162 107,6 156,30 232,114 104,113 112,186 56,508 -142,806 -137,776 -142,995 -6,227 9,392 53,602 56,268 44,238 606,1493 614,1369 647,1447 659,1554 18,146 -10,367 -60,491 -44,107 -88,176 -170,262 -85,90 -131,115 -276,152 -164,41 -782,162 -1455,285 -126,23 -1336,253 -1465,278 l -140,28 -7,85 c -9,124 -8,1001 2,1385 6,231 13,346 22,382 44,159 227,339 398,390 36,11 88,17 150,16 144,-1 -30,41 3340,-809 575,-145 1097,-275 1160,-289 160,-36 218,-66 316,-167 128,-131 181,-260 191,-463 5,-104 2,-127 -57,-440 -80,-430 -363,-1907 -530,-2770 l -132,-680 6,-170 c 6,-192 21,-279 72,-404 53,-132 109,-218 203,-312 93,-92 146,-128 250,-167 l 66,-25 580,-9 c 647,-10 2381,-1 2478,12 39,6 94,25 147,51 70,35 102,59 180,138 113,114 167,203 221,365 48,141 62,251 56,430 -4,131 -16,200 -171,1001 -157,811 -415,2153 -507,2640 -37,199 -41,231 -36,330 9,203 70,358 186,472 100,100 151,127 326,169 170,41 1497,374 2595,651 1698,428 1827,458 1937,449 221,-18 422,-177 513,-406 22,-55 22,-58 28,-956 l 5,-902 -54,-11 c -30,-6 -608,-114 -1284,-240 -1584,-296 -1674,-314 -1839,-368 -69,-22 -88,-34 -152,-96 -183,-173 -256,-367 -256,-678 v -147 l 47,-118 c 55,-138 274,-632 570,-1289 537,-1192 590,-1321 649,-1585 41,-186 56,-333 56,-550 0,-236 -9,-311 -90,-755 -108,-590 -110,-615 -67,-708 58,-128 171,-207 306,-215 72,-4 85,-1 172,33 146,59 429,195 1201,579 1709,851 2645,1367 3147,1738 202,149 174,105 959,1518 319,575 510,929 505,937 -4,6 -223,248 -485,537 l -478,525 19,133 c 54,366 166,1303 216,1803 120,1206 171,2255 147,2996 -28,818 -99,1254 -259,1574 l -50,100 23,165 c 118,850 82,1761 -92,2337 -48,158 -78,219 -117,241 -46,25 -355,24 -477,-2 -446,-94 -970,-305 -2158,-871 -78,-38 -144,-66 -147,-64 -2,3 -61,115 -131,249 -428,825 -906,1529 -1340,1978 l -119,122 -125,-15 c -310,-37 -763,-184 -1304,-422 -225,-99 -919,-445 -1371,-683 -198,-104 -365,-190 -371,-190 -27,0 -251,263 -694,815 -520,647 -623,768 -850,998 -276,281 -448,422 -630,516 -43,23 -80,41 -82,41 -1,0 -46,-24 -99,-53 z"
       id="path4"
       style="fill:#5bc5dc;fill-opacity:1" />
    <path
       d="m 9010,4630 c -329,-6 -338,-7 -484,-39 -222,-48 -368,-100 -581,-205 -324,-161 -399,-218 -1192,-898 L 6440,3220 V 2010 800 l 38,-15 c 301,-127 1204,-382 1762,-499 1784,-373 3399,-379 5176,-20 569,114 1450,356 1799,492 l 100,39 v 1214 1214 l -365,313 c -447,383 -720,606 -836,684 -133,89 -461,248 -610,297 -70,23 -193,55 -273,72 -143,31 -153,31 -546,39 -457,9 -3171,9 -3675,0 z"
       id="path6"
       style="fill:#5bc5dc;fill-opacity:1" />
  </g>
</svg>
