<?xml version="1.0" encoding="UTF-8" standalone="no"?>
<svg
   version="1.0"
   width="100mm"
   height="100mm"
   viewBox="0 0 283.46456 283.46456"
   preserveAspectRatio="xMidYMid meet"
   id="svg10"
   sodipodi:docname="gh-eclipse.svg"
   inkscape:version="1.1.2 (0a00cf5339, 2022-02-04)"
   xmlns:inkscape="http://www.inkscape.org/namespaces/inkscape"
   xmlns:sodipodi="http://sodipodi.sourceforge.net/DTD/sodipodi-0.dtd"
   xmlns="http://www.w3.org/2000/svg"
   xmlns:svg="http://www.w3.org/2000/svg">
  <defs
     id="defs14" />
  <sodipodi:namedview
     id="namedview12"
     pagecolor="#ffffff"
     bordercolor="#666666"
     borderopacity="1.0"
     inkscape:pageshadow="2"
     inkscape:pageopacity="0.0"
     inkscape:pagecheckerboard="0"
     inkscape:document-units="pt"
     showgrid="false"
     units="mm"
     width="100mm"
     inkscape:zoom="0.25057445"
     inkscape:cx="-1255.116"
     inkscape:cy="1456.6529"
     inkscape:window-width="1850"
     inkscape:window-height="1043"
     inkscape:window-x="0"
     inkscape:window-y="0"
     inkscape:window-maximized="1"
     inkscape:current-layer="svg10" />
  <metadata
     id="metadata2">
Created by potrace 1.16, written by Peter Selinger 2001-2019
</metadata>
  <g
     transform="matrix(0.012,0,0,-0.012,7.8121678,272.31106)"
     fill="#000000"
     stroke="none"
     id="g8"
     style="fill:#7440d4;fill-opacity:1">
    <path
       d="m 10905,21749 c -1530,-83 -2915,-438 -4252,-1089 -640,-312 -1206,-661 -1825,-1126 -261,-196 -576,-456 -559,-462 4,-1 116,49 247,112 1103,527 2105,803 3319,911 238,22 923,30 1210,16 2130,-108 4130,-932 5721,-2357 167,-150 479,-460 650,-647 1350,-1474 2186,-3338 2383,-5317 36,-354 45,-541 45,-930 -1,-570 -37,-1011 -130,-1564 C 17291,6778 15814,4518 13665,3104 12320,2219 10753,1697 9145,1599 c -269,-16 -1114,-7 -1345,15 -1184,111 -2206,391 -3240,888 -229,110 -292,139 -297,134 -9,-9 372,-321 612,-502 C 6268,1086 7907,381 9615,96 9731,77 9920,49 10035,33 l 210,-28 1223,2 1223,2 232,36 c 401,62 669,113 1017,195 1374,321 2666,910 3837,1748 704,503 1377,1122 1954,1797 1398,1636 2288,3689 2528,5830 47,414 53,523 58,1036 10,947 -35,1492 -188,2294 -253,1324 -787,2653 -1533,3810 -605,940 -1349,1779 -2215,2499 -676,563 -1501,1089 -2287,1460 -1114,525 -2273,849 -3524,985 -288,31 -450,40 -945,51 -503,11 -503,11 -720,-1 z"
       id="path4"
       style="fill:#7440d4;fill-opacity:1" />
    <path
       d="M 6235,17650 C 4585,17510 3050,16786 1903,15606 896,14570 235,13220 36,11791 7,11587 -2,11271 3,10688 8,10080 10,10055 75,9682 369,7992 1290,6474 2650,5438 3676,4656 4817,4207 6126,4069 c 379,-39 1029,-34 1434,11 1437,162 2794,784 3849,1763 298,277 584,591 807,887 912,1207 1384,2613 1384,4120 0,917 -170,1779 -516,2618 -131,319 -351,740 -547,1047 -761,1197 -1895,2138 -3212,2667 -586,235 -1133,370 -1845,455 -154,18 -1069,28 -1245,13 z"
       id="path6"
       style="fill:#7440d4;fill-opacity:1" />
  </g>
</svg>
