<?xml version="1.0" encoding="UTF-8" standalone="no"?>
<!-- Created with Inkscape (http://www.inkscape.org/) -->

<svg
   width="100mm"
   height="100mm"
   viewBox="0 0 100 100"
   version="1.1"
   id="svg1643"
   inkscape:version="1.1.2 (0a00cf5339, 2022-02-04)"
   sodipodi:docname="gh-envx.svg"
   xmlns:inkscape="http://www.inkscape.org/namespaces/inkscape"
   xmlns:sodipodi="http://sodipodi.sourceforge.net/DTD/sodipodi-0.dtd"
   xmlns="http://www.w3.org/2000/svg"
   xmlns:svg="http://www.w3.org/2000/svg">
  <sodipodi:namedview
     id="namedview1645"
     pagecolor="#ffffff"
     bordercolor="#666666"
     borderopacity="1.0"
     inkscape:pageshadow="2"
     inkscape:pageopacity="0.0"
     inkscape:pagecheckerboard="0"
     inkscape:document-units="mm"
     showgrid="false"
     inkscape:zoom="2.2388832"
     inkscape:cx="206.12955"
     inkscape:cy="176.65057"
     inkscape:window-width="1850"
     inkscape:window-height="1016"
     inkscape:window-x="0"
     inkscape:window-y="0"
     inkscape:window-maximized="1"
     inkscape:current-layer="layer1" />
  <defs
     id="defs1640">
    <clipPath
       clipPathUnits="userSpaceOnUse"
       id="clipPath568">
      <path
         d="m 161.725,232.25 h 6.714 v 9 h -6.714 z"
         id="path566" />
    </clipPath>
    <clipPath
       id="clip-path"
       transform="translate(-0.62 0)">
      <rect
         class="cls-1"
         width="17.67"
         height="20.690001"
         id="rect4"
         x="0"
         y="0" />
    </clipPath>
  </defs>
  <g
     inkscape:label="Layer 1"
     inkscape:groupmode="layer"
     id="layer1">
    <g
       id="Layer_2"
       data-name="Layer 2"
       style="fill:#cb9070;fill-opacity:1"
       transform="matrix(3.9648901,0,0,3.9648901,18.46696,7.1233054)">
      <g
         id="Layer_1-2"
         data-name="Layer 1"
         style="fill:#cb9070;fill-opacity:1">
        <g
           class="cls-2"
           clip-path="url(#clip-path)"
           id="g29"
           style="fill:#cb9070;fill-opacity:1">
          <path
             class="cls-3"
             d="M 5.45,7.82 C 6.62,9 7.73,10 8.73,10.9 v 2.55 C 6.59,11.53 4.25,9.45 2.73,8.07 0,5.48 0.6,3.23 0.85,2.58 a 0.09,0.09 0 0 1 0.16,0 c 0.24,0.5 1.16,2.09 4.44,5.24"
             transform="translate(-0.62)"
             id="path9"
             style="fill:#cb9070;fill-opacity:1" />
          <path
             class="cls-3"
             d="m 14.21,17.46 -0.41,0.38 a 0.09,0.09 0 0 1 -0.12,0 L 8.94,13.63 V 11.1 c 2.14,2 3.69,3.3 4,3.55 a 0.06,0.06 0 0 1 0,0.08 c -0.13,0.2 -0.5,1 0.81,2.21 l 0.46,0.42 a 0.06,0.06 0 0 1 0,0.1"
             transform="translate(-0.62)"
             id="path11"
             style="fill:#cb9070;fill-opacity:1" />
          <path
             class="cls-3"
             d="m 14,18.23 0.67,-0.59 2.06,1.78 a 0.43,0.43 0 0 0 0.29,0.1 v 0 l -0.21,0.43 a 0.4,0.4 0 0 1 -0.22,0.2 l -0.48,0.18 v 0 A 0.31,0.31 0 0 0 16,20 Z"
             transform="translate(-0.62)"
             id="path13"
             style="fill:#cb9070;fill-opacity:1" />
          <path
             class="cls-3"
             d="m 8.73,11.1 v 2.53 L 4,17.84 a 0.09,0.09 0 0 1 -0.12,0 L 3.46,17.46 a 0.07,0.07 0 0 1 0,-0.1 l 0.46,-0.42 c 1.32,-1.2 1,-2 0.82,-2.21 a 0.06,0.06 0 0 1 0,-0.08 c 0.29,-0.25 1.85,-1.59 4,-3.55"
             transform="translate(-0.62)"
             id="path15"
             style="fill:#cb9070;fill-opacity:1" />
          <path
             class="cls-3"
             d="m 14.89,8.06 c -1.47,1.37 -3.81,3.47 -6,5.38 V 10.9 c 1,-0.91 2.11,-2 3.28,-3.08 3.27,-3.15 4.2,-4.74 4.43,-5.24 a 0.09,0.09 0 0 1 0.16,0 c 0.26,0.65 0.86,2.9 -1.92,5.48"
             transform="translate(-0.62)"
             id="path17"
             style="fill:#cb9070;fill-opacity:1" />
          <path
             class="cls-3"
             d="M 3.68,18.23 3,17.64 1,19.42 a 0.45,0.45 0 0 1 -0.29,0.1 v 0 l 0.21,0.43 a 0.4,0.4 0 0 0 0.22,0.2 l 0.47,0.18 v 0 A 0.38,0.38 0 0 1 1.63,20 Z"
             transform="translate(-0.62)"
             id="path19"
             style="fill:#cb9070;fill-opacity:1" />
          <path
             class="cls-3"
             d="M 10.38,17.5 H 7.29 c 0,0 0,0 0,0 v 0.18 h 1 v 2.43 a 0.3,0.3 0 0 1 -0.12,0.25 v 0 l 0.49,0.17 a 0.47,0.47 0 0 0 0.31,0 l 0.49,-0.17 v 0 A 0.31,0.31 0 0 1 9.33,20.11 v -2.42 a 0.025,0 -180 0 0 0.05,0 h 1 c 0,0 0,0 0,0 v -0.18"
             transform="translate(-0.62)"
             id="path21"
             style="fill:#cb9070;fill-opacity:1" />
          <path
             class="cls-3"
             d="M 8.94,13.63 8.73,13.44"
             transform="translate(-0.62)"
             id="path23"
             style="fill:#cb9070;fill-opacity:1" />
          <polygon
             class="cls-3"
             points="7.2,1.3 7.2,17.72 8.11,17.72 8.11,0 "
             id="polygon25"
             style="fill:#cb9070;fill-opacity:1" />
          <polygon
             class="cls-3"
             points="8.32,17.72 9.23,17.72 9.23,1.3 8.32,0 "
             id="polygon27"
             style="fill:#cb9070;fill-opacity:1" />
        </g>
      </g>
    </g>
  </g>
</svg>
