<?xml version="1.0" encoding="UTF-8" standalone="no"?>
<svg
   version="1.0"
   width="100mm"
   height="100mm"
   viewBox="0 0 283.46457 283.46458"
   preserveAspectRatio="xMidYMid meet"
   id="svg80"
   sodipodi:docname="gh-spellweaver.svg"
   inkscape:version="1.1.2 (0a00cf5339, 2022-02-04)"
   xmlns:inkscape="http://www.inkscape.org/namespaces/inkscape"
   xmlns:sodipodi="http://sodipodi.sourceforge.net/DTD/sodipodi-0.dtd"
   xmlns="http://www.w3.org/2000/svg"
   xmlns:svg="http://www.w3.org/2000/svg">
  <defs
     id="defs84" />
  <sodipodi:namedview
     id="namedview82"
     pagecolor="#ffffff"
     bordercolor="#666666"
     borderopacity="1.0"
     inkscape:pageshadow="2"
     inkscape:pageopacity="0.0"
     inkscape:pagecheckerboard="0"
     inkscape:document-units="pt"
     showgrid="false"
     units="mm"
     inkscape:zoom="1.3559818"
     inkscape:cx="-31.342604"
     inkscape:cy="185.8432"
     inkscape:window-width="1850"
     inkscape:window-height="1043"
     inkscape:window-x="0"
     inkscape:window-y="0"
     inkscape:window-maximized="1"
     inkscape:current-layer="svg80" />
  <metadata
     id="metadata74">
Created by potrace 1.16, written by Peter Selinger 2001-2019
</metadata>
  <g
     transform="matrix(0.0115,0,0,-0.0115,13.80185,269.35542)"
     fill="#000000"
     stroke="none"
     id="g78"
     style="fill:#b28ac2;fill-opacity:1">
    <path
       d="m 14054,22145 c 3,-16 26,-139 51,-272 117,-633 162,-1187 152,-1878 -6,-390 -20,-617 -57,-945 -180,-1566 -734,-3087 -1587,-4352 -203,-302 -498,-687 -514,-671 -4,4 -44,108 -87,229 -292,813 -636,1497 -1127,2239 -293,443 -601,845 -969,1265 -149,170 -756,780 -946,950 -867,778 -1818,1424 -2879,1955 -321,160 -697,332 -707,322 -2,-2 55,-43 128,-92 153,-104 442,-318 613,-453 450,-357 940,-837 1336,-1307 543,-648 973,-1310 1350,-2080 373,-763 641,-1540 808,-2347 52,-249 147,-845 137,-855 -2,-2 -107,41 -232,95 -1216,531 -2300,821 -3614,967 -423,47 -490,49 -1245,49 -756,0 -825,-2 -1245,-50 -1147,-128 -2153,-384 -3170,-806 -107,-44 -199,-85 -205,-90 -7,-7 -3,-8 10,-5 44,13 450,87 605,111 628,97 1261,124 2010,85 354,-18 668,-54 1080,-125 1510,-258 3013,-901 4170,-1782 183,-140 290,-226 290,-234 0,-3 -24,-14 -52,-24 -214,-69 -722,-270 -973,-384 C 6216,11220 5318,10630 4450,9862 4252,9687 3704,9142 3523,8940 2711,8033 2056,7061 1519,5965 c -139,-283 -293,-624 -287,-631 3,-2 53,69 114,158 483,717 1091,1384 1794,1972 1356,1134 3024,1902 4758,2191 219,36 419,65 453,65 26,0 24,-5 -53,-185 -348,-807 -534,-1353 -712,-2085 -160,-657 -260,-1309 -318,-2080 -16,-221 -16,-1258 0,-1480 97,-1303 343,-2401 786,-3512 94,-237 144,-353 150,-347 3,2 -11,87 -30,189 -62,333 -120,743 -144,1015 -48,557 -36,1333 31,1915 176,1545 720,3043 1566,4315 205,307 513,713 532,700 5,-2 26,-51 46,-107 152,-417 242,-641 382,-948 406,-891 973,-1766 1668,-2573 252,-293 753,-802 1045,-1062 1036,-922 2141,-1635 3428,-2212 79,-35 148,-63 153,-61 5,2 -69,56 -164,120 -1006,679 -1907,1599 -2618,2675 -740,1119 -1248,2369 -1494,3675 -37,198 -95,583 -95,632 0,26 2,28 28,23 16,-3 91,-34 168,-68 1260,-559 2554,-892 3919,-1009 379,-32 1451,-38 1800,-10 1185,95 2226,323 3260,715 268,101 589,240 510,221 -11,-3 -117,-24 -235,-46 -392,-74 -789,-124 -1200,-151 -237,-16 -900,-16 -1140,-1 -1017,67 -1959,265 -2865,602 -837,312 -1681,766 -2365,1273 -110,81 -304,233 -343,267 -5,4 8,13 30,20 87,28 407,146 537,197 982,388 1928,946 2791,1648 601,488 1230,1118 1716,1715 612,752 1132,1555 1563,2410 154,304 352,737 343,746 -2,2 -50,-65 -107,-149 -697,-1023 -1581,-1899 -2620,-2594 -1313,-878 -2770,-1430 -4294,-1628 -66,-8 -121,-13 -123,-11 -2,2 27,73 66,157 555,1227 891,2511 1015,3879 37,403 41,509 40,1070 -1,552 -9,761 -39,1059 -111,1084 -328,2039 -675,2966 -86,230 -184,467 -219,530 -20,37 -22,38 -17,10 z m -3139,-7475 c 497,-574 838,-1299 935,-1985 24,-166 33,-496 21,-695 -6,-85 -8,-156 -6,-158 2,-2 23,14 47,36 53,48 148,117 348,254 387,264 572,444 783,763 182,275 300,573 382,965 l 35,165 -5,-150 c -13,-340 -92,-768 -211,-1136 -99,-309 -273,-673 -449,-939 -124,-188 -231,-316 -427,-514 -98,-99 -177,-180 -176,-182 2,-1 55,-14 118,-28 268,-59 661,-87 972,-68 230,14 351,31 558,79 360,83 724,228 1020,408 109,66 101,55 -62,-92 -497,-448 -1138,-799 -1727,-948 -146,-37 -362,-72 -520,-84 -152,-12 -463,-13 -591,-2 -47,4 -87,6 -89,5 -2,-2 27,-41 64,-86 37,-46 115,-155 173,-243 162,-247 265,-379 402,-516 218,-219 400,-350 665,-479 221,-108 400,-170 651,-224 66,-15 146,-32 179,-40 l 60,-14 -105,5 c -881,37 -1768,350 -2373,836 -56,45 -179,157 -273,250 -94,92 -176,167 -182,167 -17,0 -69,-290 -93,-519 -13,-131 -6,-654 11,-791 27,-217 103,-529 185,-755 55,-152 178,-411 258,-543 86,-141 86,-144 -12,-40 -585,621 -956,1367 -1072,2158 -25,172 -35,482 -20,669 6,80 9,146 7,148 -2,2 -48,-30 -102,-70 -54,-40 -178,-127 -274,-192 -227,-153 -322,-227 -449,-350 -399,-385 -610,-799 -750,-1470 l -19,-90 -1,60 c -1,92 17,312 39,463 71,483 205,922 399,1312 188,377 389,653 695,952 l 140,136 -42,12 c -87,23 -393,69 -527,79 -262,20 -608,10 -843,-24 -406,-60 -867,-224 -1224,-436 -55,-33 -102,-58 -104,-57 -1,2 52,54 119,115 321,295 718,561 1087,728 566,256 1127,366 1668,326 90,-7 166,-10 170,-7 3,3 -29,50 -70,103 -41,54 -129,179 -195,278 -157,235 -246,349 -363,465 -328,326 -732,553 -1195,670 -82,21 -194,46 -248,55 -54,10 -96,19 -94,21 6,7 344,-16 467,-32 269,-34 588,-107 858,-198 602,-203 1108,-520 1489,-934 l 102,-111 10,32 c 18,55 49,216 68,357 26,192 26,787 0,970 -60,427 -219,897 -414,1230 -103,176 -102,172 -27,95 37,-38 104,-113 149,-165 z"
       id="path76"
       style="fill:#b28ac2;fill-opacity:1" />
  </g>
</svg>
