<?xml version="1.0" encoding="UTF-8" standalone="no"?>
<svg
   version="1.0"
   width="100mm"
   height="100mm"
   viewBox="0 0 283.46457 283.46458"
   preserveAspectRatio="xMidYMid meet"
   id="svg8"
   sodipodi:docname="gh-squidface.svg"
   inkscape:version="1.1.2 (0a00cf5339, 2022-02-04)"
   xmlns:inkscape="http://www.inkscape.org/namespaces/inkscape"
   xmlns:sodipodi="http://sodipodi.sourceforge.net/DTD/sodipodi-0.dtd"
   xmlns="http://www.w3.org/2000/svg"
   xmlns:svg="http://www.w3.org/2000/svg">
  <defs
     id="defs12" />
  <sodipodi:namedview
     id="namedview10"
     pagecolor="#ffffff"
     bordercolor="#666666"
     borderopacity="1.0"
     inkscape:pageshadow="2"
     inkscape:pageopacity="0.0"
     inkscape:pagecheckerboard="0"
     inkscape:document-units="pt"
     showgrid="false"
     units="mm"
     width="100mm"
     inkscape:zoom="0.24527665"
     inkscape:cx="-960.14032"
     inkscape:cy="827.63687"
     inkscape:window-width="1850"
     inkscape:window-height="1043"
     inkscape:window-x="0"
     inkscape:window-y="0"
     inkscape:window-maximized="1"
     inkscape:current-layer="svg8" />
  <metadata
     id="metadata2">
Created by potrace 1.16, written by Peter Selinger 2001-2019
</metadata>
  <g
     transform="matrix(0.012,0,0,-0.012,72.413762,274.62482)"
     fill="#000000"
     stroke="none"
     id="g6"
     style="fill:#72e0be;fill-opacity:1">
    <path
       d="m 5280,22060 c -286,-11 -621,-49 -890,-101 -541,-105 -1044,-287 -1485,-537 -134,-76 -444,-285 -560,-378 -133,-107 -491,-462 -599,-596 -206,-253 -376,-516 -521,-803 -152,-299 -212,-451 -409,-1032 -131,-386 -196,-568 -240,-665 -46,-104 -57,-169 -57,-338 0,-233 17,-337 140,-846 73,-303 101,-441 101,-503 0,-77 -73,-154 -358,-373 -236,-183 -335,-277 -353,-338 -24,-81 19,-161 362,-666 493,-724 550,-842 534,-1094 -4,-52 -15,-187 -26,-300 -31,-329 -44,-720 -31,-906 15,-208 75,-504 102,-504 5,0 71,57 146,128 320,298 510,462 1149,992 149,124 303,256 344,295 63,61 73,75 68,96 -4,14 -36,70 -73,124 -103,155 -141,240 -148,332 -12,139 6,253 63,405 153,409 389,851 499,934 80,62 211,67 497,19 454,-76 1172,-322 1314,-450 35,-32 41,-43 41,-79 -1,-172 -134,-381 -427,-666 -178,-174 -355,-327 -978,-845 -1266,-1053 -2228,-1904 -2725,-2411 -265,-270 -369,-406 -378,-493 -8,-87 -13,-74 571,-1331 985,-2121 1372,-3012 1599,-3680 149,-439 178,-612 143,-855 -49,-349 -297,-1326 -472,-1862 l -46,-142 69,-93 c 440,-595 826,-1015 973,-1059 33,-10 43,-8 89,15 60,31 96,74 113,139 31,112 -35,335 -279,952 -177,449 -203,525 -209,625 -4,60 -1,86 16,131 46,122 284,502 521,834 151,211 180,259 180,296 0,60 -187,1206 -216,1327 -25,99 -68,187 -204,412 -153,253 -192,336 -320,680 -239,642 -1148,3139 -1266,3477 -29,82 -29,82 -9,102 39,39 1305,891 1323,891 4,0 30,-30 58,-67 134,-184 384,-442 534,-552 142,-103 151,-112 171,-155 14,-32 19,-65 19,-151 0,-263 -53,-486 -285,-1210 -116,-361 -155,-499 -155,-546 0,-78 61,-220 580,-1354 385,-841 637,-1403 760,-1697 96,-229 197,-502 206,-556 8,-53 -18,-171 -122,-555 -454,-1667 -629,-2396 -609,-2536 18,-127 105,-248 437,-608 185,-200 239,-267 271,-335 13,-29 48,-143 77,-253 94,-357 168,-540 251,-621 34,-33 46,-39 84,-39 33,0 52,7 82,31 148,120 188,374 108,700 -55,230 -156,452 -335,738 -198,317 -230,398 -230,574 0,178 23,256 262,892 307,815 420,1182 473,1535 21,138 22,345 1,447 -51,261 -195,648 -671,1803 -300,730 -384,940 -444,1115 -44,130 -46,139 -45,245 1,76 13,178 38,330 97,584 244,1302 327,1595 50,180 198,452 399,735 149,209 216,275 280,275 69,0 176,-77 251,-181 24,-32 46,-59 49,-59 3,0 13,13 23,29 24,41 117,133 173,172 64,44 126,50 171,17 95,-72 364,-455 493,-701 83,-159 121,-271 179,-522 109,-472 271,-1338 302,-1616 10,-94 9,-117 -6,-185 -31,-141 -117,-365 -463,-1205 -354,-856 -466,-1144 -578,-1474 -114,-336 -119,-359 -118,-585 2,-407 87,-718 492,-1805 204,-546 235,-642 252,-767 26,-191 -21,-325 -236,-668 -248,-398 -350,-677 -361,-995 -7,-216 24,-331 114,-417 76,-74 138,-74 202,-2 83,95 159,289 247,633 31,122 65,232 78,255 30,50 118,155 279,329 289,311 373,422 404,526 46,159 -40,548 -494,2231 -195,725 -223,836 -223,881 0,144 191,595 1005,2374 351,768 442,970 502,1125 41,104 45,120 40,175 -3,36 -49,196 -117,405 -272,846 -314,1018 -315,1300 0,139 3,170 17,197 11,20 58,59 125,105 134,91 304,254 473,453 174,205 159,193 215,161 79,-47 1116,-740 1203,-805 45,-33 82,-67 82,-75 0,-25 -1049,-2914 -1297,-3571 -143,-378 -178,-451 -347,-720 -113,-181 -148,-262 -182,-423 -34,-161 -216,-1274 -211,-1292 2,-8 66,-100 142,-205 255,-352 483,-710 554,-870 61,-135 41,-220 -169,-745 -139,-347 -249,-652 -286,-793 -18,-70 -20,-187 -3,-218 23,-43 101,-118 135,-129 38,-13 89,5 167,58 151,104 453,446 791,894 l 147,195 -95,314 c -175,580 -294,1034 -370,1404 -98,484 -91,592 74,1084 251,749 629,1620 1665,3846 529,1137 548,1182 526,1247 -67,191 -604,727 -1621,1617 -693,607 -1095,946 -1735,1461 -490,395 -623,508 -775,660 -262,261 -379,466 -380,662 v 57 l 73,45 c 226,141 891,359 1302,426 120,20 347,27 416,13 78,-15 185,-168 349,-495 106,-214 206,-450 252,-598 19,-63 23,-97 23,-210 v -135 l -39,-79 c -21,-43 -74,-131 -117,-196 -43,-64 -79,-121 -79,-127 0,-21 173,-174 580,-513 426,-354 628,-529 890,-769 166,-152 240,-213 254,-208 14,4 48,137 76,299 42,235 38,614 -11,1082 -31,301 -35,439 -15,516 38,148 125,297 524,894 161,241 306,465 323,497 31,63 46,132 35,172 -15,61 -104,144 -386,362 -290,223 -314,252 -312,368 1,93 21,192 107,547 109,447 118,502 119,765 l 1,220 -38,95 c -79,196 -158,416 -277,765 -153,453 -247,690 -365,925 -364,721 -825,1252 -1447,1668 -293,196 -710,397 -1073,517 -390,129 -766,207 -1210,250 -286,28 -931,40 -1345,25 z m 571,-8240 c 111,-34 210,-107 327,-240 274,-313 502,-778 502,-1024 0,-60 -5,-79 -29,-122 -85,-148 -307,-267 -565,-303 -98,-14 -472,-14 -591,-1 -285,32 -513,157 -596,326 -32,64 -32,65 -21,145 23,160 130,427 259,645 191,320 414,542 590,583 55,13 55,13 124,-9 z"
       id="path4"
       style="fill:#72e0be;fill-opacity:1" />
  </g>
</svg>
