<?xml version="1.0" encoding="UTF-8" standalone="no"?>
<svg
   version="1.0"
   width="100mm"
   height="100mm"
   viewBox="0 0 283.46457 283.46458"
   preserveAspectRatio="xMidYMid meet"
   id="svg16"
   sodipodi:docname="gh-scoundrel.svg"
   inkscape:version="1.1.2 (0a00cf5339, 2022-02-04)"
   xmlns:inkscape="http://www.inkscape.org/namespaces/inkscape"
   xmlns:sodipodi="http://sodipodi.sourceforge.net/DTD/sodipodi-0.dtd"
   xmlns="http://www.w3.org/2000/svg"
   xmlns:svg="http://www.w3.org/2000/svg">
  <defs
     id="defs20" />
  <sodipodi:namedview
     id="namedview18"
     pagecolor="#ffffff"
     bordercolor="#666666"
     borderopacity="1.0"
     inkscape:pageshadow="2"
     inkscape:pageopacity="0.0"
     inkscape:pagecheckerboard="0"
     inkscape:document-units="pt"
     showgrid="false"
     units="mm"
     width="100mm"
     inkscape:zoom="1.305128"
     inkscape:cx="224.88216"
     inkscape:cy="206.11005"
     inkscape:window-width="1850"
     inkscape:window-height="1043"
     inkscape:window-x="0"
     inkscape:window-y="0"
     inkscape:window-maximized="1"
     inkscape:current-layer="svg16" />
  <metadata
     id="metadata2">
Created by potrace 1.16, written by Peter Selinger 2001-2019
</metadata>
  <g
     transform="matrix(0.01,0,0,-0.01,36.525563,253.95825)"
     fill="#000000"
     stroke="none"
     id="g14"
     style="fill:#9ecf5f;fill-opacity:1">
    <path
       d="m 9386,22183 c -10,-3 -77,-95 -150,-206 -542,-825 -6474,-10103 -7136,-11161 -128,-206 -129,-184 22,-516 186,-411 514,-1118 838,-1810 l 302,-645 -5,-80 c -6,-102 -34,-186 -396,-1179 -154,-423 -279,-772 -276,-774 2,-2 44,20 92,51 174,109 391,212 585,276 36,12 71,27 76,34 5,7 303,755 662,1662 812,2054 2115,5346 2507,6335 163,410 300,750 305,755 32,32 -41,-200 -542,-1709 -502,-1517 -635,-1927 -628,-1945 2,-4 176,138 388,316 844,712 2346,1979 2367,1998 15,13 27,39 33,74 41,221 281,2051 769,5856 287,2238 321,2507 321,2561 0,42 -5,55 -28,77 -28,27 -72,40 -106,30 z"
       id="path4"
       style="fill:#9ecf5f;fill-opacity:1" />
    <path
       d="m 16130,19718 c -249,-188 -1929,-1598 -7085,-5947 -1900,-1603 -3130,-2642 -3248,-2745 -80,-69 -87,-86 -87,-204 0,-119 17,-259 165,-1352 112,-826 187,-1403 201,-1527 10,-99 -6,-143 -103,-278 -290,-404 -1202,-1599 -1298,-1701 -38,-40 -43,-40 -195,-14 -490,86 -999,15 -1435,-200 -684,-337 -1144,-968 -1262,-1730 -21,-140 -24,-489 -5,-625 37,-257 108,-488 222,-720 88,-180 176,-316 298,-463 108,-131 276,-292 280,-270 2,9 -8,85 -23,169 -59,354 -37,798 57,1124 l 32,110 1,280 c 1,305 5,334 62,505 57,171 142,333 231,439 l 29,34 74,-28 c 41,-16 119,-50 173,-77 55,-26 109,-48 120,-48 12,0 56,28 98,63 175,146 326,244 560,363 71,36 132,73 135,82 3,9 18,45 34,80 27,60 29,62 64,62 20,0 90,-10 155,-22 l 118,-21 124,21 c 182,32 389,45 571,38 284,-12 418,-36 706,-126 187,-59 195,-60 212,-43 9,10 234,304 499,653 546,718 764,1000 826,1069 57,63 130,95 279,121 66,12 123,25 127,28 8,8 51,395 127,1127 60,575 66,635 58,635 -9,0 -303,-407 -1747,-2420 -309,-432 -569,-793 -577,-802 -20,-22 -23,-20 -164,92 -63,50 -162,123 -221,163 -59,40 -107,75 -108,79 0,13 5393,6706 6243,7748 111,135 137,164 142,158 8,-8 -397,-577 -2338,-3285 -202,-281 -370,-519 -373,-528 -6,-14 -3,-14 22,-4 109,46 791,383 2157,1063 1519,758 1578,788 1596,824 36,71 2465,5381 3061,6692 503,1105 580,1280 580,1312 0,39 -48,88 -87,88 -17,0 -49,-16 -83,-42 z"
       id="path6"
       style="fill:#9ecf5f;fill-opacity:1" />
    <path
       d="M 20390,15166 C 19226,14604 9652,9842 8690,9346 8439,9217 8401,9190 8381,9126 8369,9090 8319,8638 8220,7685 8080,6331 8060,6172 8019,6085 c -18,-37 -55,-74 -193,-189 -184,-153 -708,-580 -1274,-1039 l -353,-285 -118,53 c -328,149 -635,216 -993,216 -271,-1 -482,-33 -723,-112 -237,-78 -552,-254 -753,-422 -438,-366 -719,-886 -803,-1487 -16,-110 -16,-440 0,-550 72,-515 286,-964 628,-1321 353,-368 876,-627 1368,-679 156,-17 503,-14 631,5 498,74 964,316 1316,684 267,279 442,584 554,966 63,217 68,263 68,635 0,331 0,337 -27,455 -44,190 -44,185 -15,209 14,12 157,132 319,267 429,358 1193,977 1401,1136 94,72 137,80 326,64 199,-17 806,-76 1577,-155 800,-82 1155,-116 1222,-116 77,0 121,23 177,92 568,703 8089,10218 8364,10582 62,83 67,117 23,165 -22,23 -38,31 -63,31 -21,-1 -122,-44 -288,-124 z M 14710,10347 C 14610,10254 12129,8115 9300,5684 7294,3960 7069,3769 7056,3773 c -6,2 -54,60 -106,129 -52,69 -132,168 -177,219 -45,52 -83,97 -85,100 -3,7 73,66 782,609 190,145 651,499 1025,785 2950,2261 4527,3468 5380,4120 418,319 785,599 815,622 76,58 86,53 20,-10 z M 5375,3945 c 39,-9 77,-22 85,-30 19,-20 27,-302 11,-417 -56,-390 -272,-749 -583,-968 -75,-53 -148,-95 -148,-85 0,3 16,61 36,128 111,382 118,846 19,1238 -14,54 -25,104 -25,113 0,14 39,25 135,40 68,10 402,-3 470,-19 z M 3987,3393 c 4,-16 8,-89 7,-163 0,-224 -54,-443 -159,-655 -53,-108 -118,-205 -142,-212 -20,-7 -26,61 -20,231 10,290 75,491 239,749 28,42 54,77 59,77 5,0 12,-12 16,-27 z m 2373,-194 c 36,-69 89,-208 116,-303 24,-82 27,-112 31,-306 4,-173 2,-232 -11,-303 -95,-505 -487,-944 -982,-1100 -165,-52 -227,-60 -462,-55 -244,6 -286,14 -505,103 -115,46 -292,145 -279,156 4,4 45,12 92,18 248,35 492,109 706,215 648,322 1074,867 1248,1599 8,34 20,28 46,-24 z"
       id="path8"
       style="fill:#9ecf5f;fill-opacity:1" />
    <path
       d="M 5065,9583 C 4417,7630 3980,6305 3980,6289 c 0,-13 21,-17 143,-22 78,-4 198,-14 267,-22 69,-9 135,-13 147,-11 48,13 82,86 263,569 60,160 120,303 135,323 51,66 159,130 441,258 l 81,37 150,202 c 202,271 197,262 189,347 -9,97 -185,1409 -347,2590 -7,47 -15,89 -19,93 -4,4 -168,-477 -365,-1070 z"
       id="path10"
       style="fill:#9ecf5f;fill-opacity:1" />
    <path
       d="M 2155,5493 C 1735,5396 1408,5245 1125,5017 1016,4929 820,4725 734,4610 211,3910 125,2994 509,2215 c 233,-471 569,-809 1031,-1039 249,-123 515,-205 737,-227 157,-15 615,-6 696,14 32,8 59,16 61,18 2,2 -33,61 -78,130 -45,70 -107,173 -138,231 -65,118 -76,129 -213,224 -55,37 -140,102 -190,144 -139,116 -143,119 -224,144 -244,75 -476,213 -638,378 -150,154 -290,394 -353,608 -65,218 -65,563 -1,780 42,139 144,342 232,460 92,124 100,141 148,307 110,382 278,685 563,1021 81,95 82,101 13,85 z"
       id="path12"
       style="fill:#9ecf5f;fill-opacity:1" />
  </g>
</svg>
