<?xml version="1.0" encoding="UTF-8" standalone="no"?>
<svg
   version="1.0"
   width="100mm"
   height="100mm"
   viewBox="0 0 283.46456 283.46458"
   preserveAspectRatio="xMidYMid meet"
   id="svg16"
   sodipodi:docname="gh-two-mini.svg"
   inkscape:version="1.1.2 (0a00cf5339, 2022-02-04)"
   xmlns:inkscape="http://www.inkscape.org/namespaces/inkscape"
   xmlns:sodipodi="http://sodipodi.sourceforge.net/DTD/sodipodi-0.dtd"
   xmlns="http://www.w3.org/2000/svg"
   xmlns:svg="http://www.w3.org/2000/svg">
  <defs
     id="defs20" />
  <sodipodi:namedview
     id="namedview18"
     pagecolor="#ffffff"
     bordercolor="#666666"
     borderopacity="1.0"
     inkscape:pageshadow="2"
     inkscape:pageopacity="0.0"
     inkscape:pagecheckerboard="0"
     inkscape:document-units="pt"
     showgrid="false"
     units="mm"
     width="100mm"
     inkscape:zoom="0.26688693"
     inkscape:cx="196.71252"
     inkscape:cy="1360.1266"
     inkscape:window-width="1850"
     inkscape:window-height="1043"
     inkscape:window-x="0"
     inkscape:window-y="0"
     inkscape:window-maximized="1"
     inkscape:current-layer="svg16" />
  <metadata
     id="metadata2">
Created by potrace 1.16, written by Peter Selinger 2001-2019
</metadata>
  <g
     transform="matrix(0.011,0,0,-0.011,18.914753,252.87933)"
     fill="#000000"
     stroke="none"
     id="g14"
     style="fill:#b4765a;fill-opacity:1">
    <path
       d="m 5504,20185 c -139,-70 -371,-334 -580,-663 -376,-588 -649,-1256 -745,-1822 -42,-250 -37,-608 12,-797 72,-284 431,-796 847,-1209 362,-359 704,-574 914,-574 214,0 530,119 818,307 168,110 269,191 413,333 199,194 322,357 419,559 l 51,105 -7,170 c -10,255 -30,362 -121,644 -255,792 -767,1710 -1334,2392 -121,145 -447,479 -525,537 -68,50 -92,53 -162,18 z"
       id="path4"
       style="fill:#b4765a;fill-opacity:1" />
    <path
       d="m 16681,20160 c -89,-74 -360,-349 -468,-474 -588,-685 -1156,-1703 -1403,-2518 -66,-219 -90,-351 -97,-539 -5,-154 -4,-170 17,-235 146,-443 728,-978 1295,-1189 256,-95 400,-107 563,-47 201,75 419,232 694,500 247,242 466,502 631,752 248,374 292,513 291,925 0,179 -5,244 -23,350 -119,702 -525,1597 -982,2165 -100,124 -293,310 -350,338 -71,34 -99,30 -168,-28 z"
       id="path6"
       style="fill:#b4765a;fill-opacity:1" />
    <path
       d="m 11072,18230 c -125,-45 -327,-171 -592,-371 -413,-310 -1009,-825 -1335,-1153 -414,-416 -906,-998 -986,-1164 l -31,-63 190,-342 c 883,-1593 1394,-2661 1468,-3067 20,-114 18,-143 -13,-181 l -27,-32 -106,6 c -371,20 -1321,390 -2200,857 -963,511 -1875,1125 -2665,1795 -542,459 -1142,1059 -1561,1561 -148,177 -400,513 -539,719 -130,192 -171,245 -191,245 -42,0 -272,-195 -413,-350 -458,-505 -761,-1137 -882,-1840 -21,-123 -23,-165 -24,-485 0,-318 2,-363 23,-495 31,-191 65,-290 171,-495 111,-214 594,-1092 968,-1758 157,-280 283,-510 281,-513 -13,-13 -484,143 -693,229 -690,283 -1207,639 -1576,1084 -62,74 -115,130 -119,126 -9,-10 -55,-376 -69,-554 -42,-518 -36,-1189 19,-1949 43,-594 39,-558 77,-630 72,-135 279,-435 426,-619 184,-229 558,-605 772,-776 590,-473 1247,-756 1973,-851 127,-16 132,-18 115,-34 -10,-10 -211,-148 -448,-307 C 2033,6115 1410,5628 1317,5440 c -26,-51 -26,-54 -9,-73 69,-79 471,-273 872,-420 810,-298 1758,-516 2559,-587 161,-15 720,-15 921,0 85,6 200,17 254,25 55,8 102,12 105,9 10,-10 -88,-189 -175,-319 -107,-161 -262,-364 -466,-614 -88,-106 -171,-211 -185,-232 -25,-38 -25,-40 -8,-59 29,-32 308,-169 577,-284 558,-238 1086,-421 1418,-491 69,-15 130,-28 136,-30 6,-2 113,-171 236,-377 549,-911 885,-1406 1103,-1623 92,-93 148,-135 160,-124 2,3 -18,132 -45,288 -95,540 -116,747 -107,1064 6,230 24,364 77,572 16,66 30,128 30,138 0,27 -119,322 -224,553 -162,360 -360,765 -910,1859 -293,583 -542,1083 -554,1110 l -20,50 -199,39 c -740,144 -1340,343 -1685,557 -240,148 -432,349 -478,497 -35,112 -20,209 50,340 56,103 115,178 260,325 277,284 763,643 888,654 42,5 53,1 112,-38 89,-58 302,-275 630,-639 419,-465 616,-675 754,-806 69,-65 130,-119 134,-119 4,0 55,56 113,125 217,259 603,664 888,934 659,620 1218,1034 1773,1311 292,146 500,220 702,250 130,19 182,19 314,-1 425,-63 984,-347 1610,-818 589,-443 1214,-1037 1744,-1658 65,-75 122,-139 128,-143 20,-13 411,389 865,890 389,429 617,655 703,696 61,30 90,21 234,-69 280,-176 523,-368 719,-568 229,-235 330,-412 331,-576 1,-57 -5,-79 -31,-133 -146,-296 -547,-562 -1146,-760 -281,-93 -507,-150 -1051,-265 l -151,-32 -93,-197 c -52,-108 -285,-572 -518,-1031 -596,-1172 -811,-1619 -987,-2045 -133,-324 -122,-273 -86,-422 126,-522 113,-948 -54,-1799 -14,-71 -25,-133 -25,-137 0,-11 38,10 98,56 191,145 588,719 1165,1682 115,193 217,358 226,367 9,10 66,28 136,43 285,63 673,190 1115,365 432,172 804,341 868,395 55,47 62,35 -218,380 -215,265 -328,415 -429,570 -74,113 -169,290 -161,298 3,2 59,-4 125,-14 229,-35 718,-49 1060,-29 515,30 1258,165 1895,346 649,184 1307,442 1563,611 99,66 100,92 6,208 -184,227 -765,668 -1790,1356 -214,144 -387,264 -384,267 2,3 78,15 168,28 466,65 786,163 1177,359 441,221 821,502 1196,887 221,226 371,410 571,698 204,295 214,319 237,565 80,866 95,1759 41,2381 -18,204 -54,476 -65,487 -4,5 -36,-29 -71,-75 -93,-124 -413,-438 -554,-545 -324,-244 -677,-439 -1114,-613 -211,-83 -635,-220 -647,-207 -2,2 39,80 92,173 412,730 1107,1995 1219,2219 62,123 67,138 90,275 41,244 50,354 49,605 -1,257 -13,382 -60,620 -112,562 -364,1093 -739,1560 -143,179 -393,413 -502,472 l -34,18 -19,-25 c -11,-14 -77,-108 -147,-210 -386,-558 -744,-989 -1237,-1488 -1067,-1081 -2362,-2012 -3821,-2747 -822,-414 -1580,-696 -1910,-712 -102,-5 -112,-4 -137,16 -36,29 -43,74 -28,169 39,244 215,660 636,1502 267,533 415,814 729,1385 227,413 285,526 285,558 0,73 -282,434 -669,857 -543,595 -1401,1356 -1911,1696 -290,194 -403,233 -538,184 z"
       id="path8"
       style="fill:#b4765a;fill-opacity:1" />
    <path
       d="m 10870,7885 c -665,-112 -1499,-613 -2216,-1332 -188,-188 -345,-367 -415,-473 -39,-59 -49,-83 -49,-115 0,-75 88,-298 244,-620 85,-175 319,-620 336,-638 4,-4 83,11 176,33 254,62 601,136 795,170 307,53 568,75 584,49 19,-30 -174,-235 -331,-351 -193,-143 -450,-277 -748,-393 -185,-71 -216,-87 -216,-112 0,-49 118,-376 225,-623 88,-202 219,-475 233,-484 6,-3 71,18 144,48 510,206 1159,324 1653,301 529,-24 946,-109 1400,-285 83,-32 159,-60 170,-62 17,-2 31,18 82,122 136,274 331,754 378,933 21,79 25,73 -75,112 -36,13 -117,44 -180,68 -63,25 -184,79 -269,121 -344,173 -569,340 -720,534 -60,78 -57,82 47,82 207,0 625,-73 1247,-219 159,-37 213,-46 222,-38 18,18 182,324 309,579 170,339 274,592 274,666 0,151 -592,765 -1140,1184 -535,409 -1174,705 -1611,747 -150,14 -454,12 -549,-4 z"
       id="path10"
       style="fill:#b4765a;fill-opacity:1" />
    <path
       d="m 10799,2519 c -265,-22 -654,-130 -911,-253 -196,-94 -212,-113 -247,-286 -43,-220 -53,-463 -26,-661 14,-105 53,-245 69,-242 4,0 58,37 119,81 135,97 276,173 375,202 60,18 91,22 170,18 116,-5 157,-23 245,-107 156,-148 249,-359 248,-565 -1,-159 -53,-290 -162,-410 -33,-35 -59,-66 -59,-69 0,-11 228,-191 260,-206 28,-13 85,-16 303,-19 l 267,-3 68,47 c 37,27 101,77 142,113 41,35 77,66 79,68 3,2 -21,29 -51,61 -117,118 -172,250 -172,412 0,52 6,122 13,155 18,84 72,213 117,282 52,79 159,183 220,213 65,32 199,39 294,16 97,-25 249,-105 390,-206 69,-49 128,-86 131,-82 4,4 16,36 28,72 35,109 44,214 39,474 -5,211 -8,255 -31,356 -14,63 -30,127 -36,142 -38,101 -547,306 -911,367 -221,37 -706,52 -971,30 z"
       id="path12"
       style="fill:#b4765a;fill-opacity:1" />
  </g>
</svg>
