<?xml version="1.0" encoding="UTF-8" standalone="no"?>
<svg
   version="1.0"
   width="100mm"
   height="100mm"
   viewBox="0 0 283.46456 283.46457"
   preserveAspectRatio="xMidYMid meet"
   id="svg8976"
   sodipodi:docname="gh-triangles.svg"
   inkscape:version="1.1.2 (0a00cf5339, 2022-02-04)"
   xmlns:inkscape="http://www.inkscape.org/namespaces/inkscape"
   xmlns:sodipodi="http://sodipodi.sourceforge.net/DTD/sodipodi-0.dtd"
   xmlns="http://www.w3.org/2000/svg"
   xmlns:svg="http://www.w3.org/2000/svg">
  <defs
     id="defs8980" />
  <sodipodi:namedview
     id="namedview8978"
     pagecolor="#ffffff"
     bordercolor="#666666"
     borderopacity="1.0"
     inkscape:pageshadow="2"
     inkscape:pageopacity="0.0"
     inkscape:pagecheckerboard="0"
     inkscape:document-units="mm"
     showgrid="false"
     units="mm"
     inkscape:zoom="0.61631133"
     inkscape:cx="-571.95119"
     inkscape:cy="257.9865"
     inkscape:window-width="1850"
     inkscape:window-height="1043"
     inkscape:window-x="0"
     inkscape:window-y="0"
     inkscape:window-maximized="1"
     inkscape:current-layer="svg8976" />
  <metadata
     id="metadata8964">
Created by potrace 1.16, written by Peter Selinger 2001-2019
</metadata>
  <g
     transform="matrix(0.01,0,0,-0.01,30.187059,266.97685)"
     fill="#000000"
     stroke="none"
     id="g8974"
     style="fill:#dcdcdc;fill-opacity:1">
    <path
       d="m 480,19341 c -310,-7 -316,-8 -371,-68 -59,-63 -80,-147 -56,-224 15,-49 125,-240 1672,-2924 2201,-3816 3466,-6005 3497,-6047 47,-67 164,-103 253,-78 93,26 96,30 648,985 3085,5338 4293,7438 4582,7964 66,121 67,124 62,182 -9,97 -64,174 -146,201 -28,9 -1146,12 -4946,13 -2701,1 -5038,-1 -5195,-4 z"
       id="path8966"
       style="fill:#dcdcdc;fill-opacity:1" />
    <path
       d="m 11670,19323 c -66,-38 -80,-53 -106,-108 -17,-36 -24,-68 -24,-115 v -64 l 987,-1711 c 2909,-5041 3947,-6831 4164,-7181 80,-130 108,-149 219,-149 99,0 142,28 206,135 226,376 4865,8403 5082,8792 65,118 77,164 62,234 -19,85 -57,133 -137,173 l -42,21 h -5183 -5183 z"
       id="path8968"
       style="fill:#dcdcdc;fill-opacity:1" />
    <path
       d="m 11070,16898 c -24,-13 -56,-39 -71,-58 -15,-19 -133,-217 -262,-440 -644,-1113 -2092,-3629 -2799,-4865 -359,-626 -389,-683 -385,-717 7,-53 41,-103 85,-124 36,-18 146,-19 3504,-19 h 3467 l 28,21 c 43,32 73,82 73,123 0,28 -37,101 -166,331 -652,1157 -3013,5250 -3261,5651 -44,72 -59,89 -93,103 -53,21 -67,20 -120,-6 z"
       id="path8970"
       style="fill:#dcdcdc;fill-opacity:1" />
    <path
       d="m 5909,9365 c -93,-48 -145,-140 -137,-242 5,-66 -150,208 1586,-2803 2277,-3948 3341,-5782 3556,-6130 61,-98 77,-118 116,-138 95,-48 232,-15 285,68 180,285 4460,7694 4970,8605 65,116 140,255 166,309 42,86 48,104 42,140 -13,89 -64,156 -150,200 -29,15 -459,16 -5210,16 l -5178,-1 z"
       id="path8972"
       style="fill:#dcdcdc;fill-opacity:1" />
  </g>
</svg>
