<?xml version="1.0" encoding="UTF-8" standalone="no"?>
<svg
   viewBox="0 0 38 37.999999"
   version="1.1"
   id="svg15"
   sodipodi:docname="ir-antlers.svg"
   inkscape:version="1.2.2 (b0a8486541, 2022-12-01)"
   width="38"
   height="38"
   xmlns:inkscape="http://www.inkscape.org/namespaces/inkscape"
   xmlns:sodipodi="http://sodipodi.sourceforge.net/DTD/sodipodi-0.dtd"
   xmlns="http://www.w3.org/2000/svg"
   xmlns:svg="http://www.w3.org/2000/svg">
  <sodipodi:namedview
     id="namedview17"
     pagecolor="#ffffff"
     bordercolor="#666666"
     borderopacity="1.0"
     inkscape:pageshadow="2"
     inkscape:pageopacity="0.0"
     inkscape:pagecheckerboard="0"
     showgrid="false"
     inkscape:zoom="10.109797"
     inkscape:cx="25.816542"
     inkscape:cy="37.933502"
     inkscape:window-width="1854"
     inkscape:window-height="1011"
     inkscape:window-x="0"
     inkscape:window-y="0"
     inkscape:window-maximized="1"
     inkscape:current-layer="svg15"
     fit-margin-left="3"
     lock-margins="true"
     fit-margin-top="3"
     fit-margin-right="3"
     fit-margin-bottom="3"
     inkscape:showpageshadow="2"
     inkscape:deskcolor="#d1d1d1" />
  <defs
     id="defs7">
    <style
       id="style2">.cls-1{fill:none;}.cls-2{clip-path:url(#clip-path);}</style>
    <clipPath
       id="clip-path"
       transform="translate(0 0)">
      <rect
         class="cls-1"
         width="31.75"
         height="30.530001"
         id="rect4"
         x="0"
         y="0" />
    </clipPath>
  </defs>
  <path
     style="fill:#d7c36e;fill-opacity:1;stroke-width:0.141884"
     d="m 21.918542,34.474406 c -0.601743,-0.280155 -0.881209,-0.330501 -1.456489,-0.262363 -0.88827,0.105196 -1.275056,-0.173962 -1.275056,-0.920273 0,-0.405041 0.107895,-0.587836 0.594215,-1.006673 1.527049,-1.315158 2.119596,-1.946734 2.451693,-2.613171 0.313142,-0.628396 0.35932,-0.905094 0.35932,-2.153177 0,-2.213531 0.511867,-3.811507 1.580884,-4.935269 0.301359,-0.316799 0.581022,-0.542889 0.621478,-0.502436 0.04044,0.04044 -0.15121,0.790432 -0.425921,1.666622 -0.640201,2.041882 -0.656578,2.846882 -0.05792,2.846882 0.643839,0 3.100536,-4.210572 3.93515,-6.744522 0.565577,-1.717151 0.653652,-2.611998 0.384565,-3.907346 C 28.287679,14.292576 27.734943,13.339221 26.116489,11.606582 24.489208,9.8644895 23.624844,8.6184381 23.166903,7.3545192 22.855905,6.4961828 22.815682,5.6408263 23.088821,5.6944316 c 0.07803,0.015401 0.462902,0.6006549 0.855256,1.3007592 1.591683,2.8401677 3.409201,4.4782912 4.187363,3.7740642 0.484978,-0.438898 0.374011,-1.3899965 -0.323636,-2.7739787 -0.522181,-1.0358858 -0.60729,-1.3342319 -0.644083,-2.2577469 -0.06598,-1.6564692 0.396525,-1.9581189 0.611022,-0.3985084 0.21091,1.5334679 1.101781,2.0625985 2.115869,1.256701 0.299353,-0.2378985 0.567429,-0.4325383 0.595716,-0.4325383 0.02831,0 0.05143,0.1392003 0.05143,0.3093226 0,0.1852397 -0.26366,0.5548542 -0.657275,0.9214073 -0.644064,0.5997811 -0.654891,0.6242173 -0.538562,1.2159343 0.06529,0.3321199 0.121637,1.5934961 0.125201,2.8030591 0.0066,2.222514 0.07314,2.563873 0.582551,2.986643 0.206502,0.171386 0.271095,0.154238 0.504339,-0.133802 0.334426,-0.412999 0.339686,-0.913449 0.03818,-3.633207 -0.219472,-1.979803 -0.219574,-2.166898 -0.0016,-2.6821171 0.128973,-0.3046208 0.269786,-0.5185538 0.312926,-0.4754128 0.04318,0.043124 0.137851,0.7063841 0.210459,1.4738735 0.217019,2.2938254 0.943288,3.9111674 1.636805,3.6450404 0.355511,-0.136414 1.054067,-1.285256 1.43316,-2.356952 0.280699,-0.7935265 0.378325,-1.3987719 0.434825,-2.6956757 0.04714,-1.082384 0.125754,-1.6547732 0.222783,-1.6224269 0.263662,0.087892 0.390034,0.8430959 0.397017,2.3725803 0.01332,2.9345763 -0.677147,4.5990673 -2.736092,6.5951743 -1.515069,1.468838 -2.014056,2.203049 -2.412346,3.549567 -0.161574,0.546252 -0.579022,1.902991 -0.927641,3.014966 -0.699944,2.232532 -0.709997,2.677806 -0.07024,3.109734 0.277416,0.187294 0.651595,0.257737 1.374386,0.258729 0.867107,0.0011 1.123283,-0.06519 2.017907,-0.522946 0.56359,-0.288379 1.451656,-0.847533 1.973488,-1.242567 0.521825,-0.395032 0.975874,-0.691136 1.008999,-0.658019 0.100407,0.100418 -0.46819,1.252841 -0.921364,1.867402 -0.544032,0.73777 -1.713898,1.513996 -2.880661,1.91136 -0.811292,0.276302 -1.105016,0.302253 -2.600492,0.229761 -1.963248,-0.09517 -2.077765,-0.05647 -3.152757,1.065781 -0.736751,0.769137 -2.823979,3.344745 -3.137317,3.871408 -0.270388,0.454456 -0.21319,0.869743 0.184938,1.342892 0.429416,0.510335 0.851783,0.553277 1.691217,0.171923 0.492347,-0.223672 0.80622,-0.520099 1.670858,-1.578024 0.144479,-0.176763 0.179457,-0.138837 0.21581,0.233908 0.09894,1.014554 -0.769662,2.269057 -1.99505,2.881391 -1.041941,0.520662 -1.639067,0.538986 -2.623843,0.0805 z M 12.857837,34.220838 C 11.997118,33.642146 11.369859,32.65115 11.289958,31.743777 l -0.05986,-0.67987 0.249296,0.354712 c 0.904008,1.286265 1.904541,1.872259 2.809076,1.645235 0.391612,-0.09829 0.783878,-0.733534 0.783878,-1.26942 0,-0.552189 -3.157402,-4.522326 -4.114645,-5.173769 -0.470787,-0.320393 -0.572301,-0.333043 -1.952989,-0.243348 -1.7850253,0.115942 -2.7422484,-0.05912 -4.0479846,-0.740421 -1.2422583,-0.648162 -2.2376145,-1.745252 -2.57463,-2.837761 -0.1513137,-0.490518 0.1506214,-0.393907 0.9140424,0.292485 0.3742105,0.336448 1.1742243,0.862381 1.7778021,1.168744 0.9123553,0.46309 1.2705484,0.565761 2.1241397,0.608867 0.9661248,0.04879 1.0537709,0.02766 1.4851075,-0.357727 C 9.2843224,23.9744 9.2750235,23.540988 8.621368,21.62859 8.3412984,20.809207 7.9894819,19.648276 7.8395436,19.04874 7.4129094,17.342812 6.9622707,16.612335 5.2599627,14.867282 3.6205577,13.186719 3.1129857,12.353248 2.7242702,10.703482 2.4790603,9.6628035 2.4869219,6.7922222 2.7365565,6.234125 2.9134832,5.8384911 2.9332332,5.9247055 3.0165301,7.4563981 3.1192171,9.3446695 3.515609,10.79508 4.2071214,11.812853 5.0146438,13.001368 5.3790667,12.976641 6.0251971,11.689487 6.3066831,11.128746 6.4575052,10.526466 6.5741296,9.4974645 6.7734452,7.7388011 6.8029672,7.627029 7.0127176,7.8367812 7.2041129,8.0281764 7.1826513,10.37058 6.9796826,11.440792 c -0.2303692,1.214745 -0.1740522,2.448331 0.1288519,2.822404 0.2558794,0.316004 0.2786881,0.319136 0.632911,0.08704 0.5724051,-0.375052 0.720097,-1.165978 0.521086,-2.790586 C 8.12032,10.398756 8.1288687,10.071945 8.3207964,9.3312785 8.6439023,8.0843704 8.618452,7.9595886 7.9251319,7.3914615 7.5838095,7.1117719 7.2705445,6.752921 7.2289903,6.5940002 7.129349,6.2129802 7.2220683,6.2305585 7.9640517,6.7333043 8.7340416,7.2550595 8.8911649,7.258401 9.3860006,6.7635535 9.6714233,6.4781359 9.8308788,6.1088208 9.9692431,5.4127019 10.076896,4.8711153 10.2252,4.4762739 10.310411,4.5043909 c 0.0829,0.027342 0.169743,0.4810265 0.192966,1.0081669 0.03894,0.8838143 -0.0079,1.0659219 -0.6030099,2.3387754 -0.9183869,1.9646703 -0.8792234,3.1376568 0.1046449,3.1344058 0.923236,-0.0033 2.512098,-1.6522205 3.749854,-3.8921681 0.838169,-1.5168346 1.115627,-1.712305 0.9954,-0.7012689 -0.176387,1.4832632 -1.044614,2.9165915 -3.074215,5.075113 -1.522904,1.619645 -1.9648592,2.283154 -2.42449,3.639899 -0.2657737,0.784521 -0.300845,1.131827 -0.2429935,2.406615 0.08038,1.771197 0.3829716,2.702621 1.7630405,5.426834 1.270685,2.508297 2.429814,4.004146 2.884871,3.722906 0.280101,-0.173114 0.139183,-1.625756 -0.286705,-2.955271 -0.234107,-0.730836 -0.422789,-1.417969 -0.419293,-1.526951 0.01298,-0.406863 1.275084,1.235877 1.639405,2.133962 0.320874,0.790971 0.392289,1.232296 0.474147,2.930131 0.12733,2.640966 0.189283,2.749918 2.906017,5.110742 0.407377,0.354017 0.507566,0.542413 0.507566,0.954452 0,0.700737 -0.467363,1.014087 -1.321491,0.886003 -0.459287,-0.06887 -0.770027,-0.02044 -1.241745,0.193562 -0.407226,0.184739 -0.936319,0.286527 -1.499909,0.288543 -0.749921,0.0025 -0.965905,-0.06086 -1.55659,-0.458012 z"
     id="path1184"
     sodipodi:nodetypes="cssssssssssssscssssssssssssssccsssssssssscssssssssssssscccscsssssssssssssssssssssssssssssssssccsssssssscssssssscc" />
</svg>
