<?xml version="1.0" encoding="UTF-8" standalone="no"?>
<svg
   viewBox="0 0 37.75 36.517146"
   version="1.1"
   id="svg15"
   sodipodi:docname="ir-dynamite.svg"
   inkscape:version="1.1.2 (0a00cf5339, 2022-02-04)"
   width="37.75"
   height="36.517147"
   xmlns:inkscape="http://www.inkscape.org/namespaces/inkscape"
   xmlns:sodipodi="http://sodipodi.sourceforge.net/DTD/sodipodi-0.dtd"
   xmlns="http://www.w3.org/2000/svg"
   xmlns:svg="http://www.w3.org/2000/svg">
  <sodipodi:namedview
     id="namedview17"
     pagecolor="#ffffff"
     bordercolor="#666666"
     borderopacity="1.0"
     inkscape:pageshadow="2"
     inkscape:pageopacity="0.0"
     inkscape:pagecheckerboard="0"
     showgrid="false"
     inkscape:zoom="7.148706"
     inkscape:cx="-12.100092"
     inkscape:cy="8.3231846"
     inkscape:window-width="1850"
     inkscape:window-height="1016"
     inkscape:window-x="0"
     inkscape:window-y="0"
     inkscape:window-maximized="1"
     inkscape:current-layer="svg15"
     fit-margin-left="3"
     lock-margins="true"
     fit-margin-top="3"
     fit-margin-right="3"
     fit-margin-bottom="3" />
  <defs
     id="defs7">
    <style
       id="style2">.cls-1{fill:none;}.cls-2{clip-path:url(#clip-path);}</style>
    <clipPath
       id="clip-path"
       transform="translate(0 0)">
      <rect
         class="cls-1"
         width="31.75"
         height="30.530001"
         id="rect4"
         x="0"
         y="0" />
    </clipPath>
  </defs>
  <path
     style="fill:#d9d9d9;fill-opacity:1;stroke-width:0.210498"
     d="m 11.371288,30.455414 c -1.230874,-0.47336 -3.0220142,-1.944683 -3.0220142,-2.482415 0,-0.297217 5.0697592,-9.911728 7.1123642,-13.488196 l 0.578088,-1.012195 0.79761,0.80725 c 0.910054,0.921049 2.601298,1.814271 3.863623,2.04055 l 0.86051,0.154253 -3.756201,6.914981 c -2.06591,3.80324 -3.866208,7.047528 -4.000657,7.209531 -0.332828,0.40103 -1.140843,0.353295 -2.433323,-0.143759 z M 20.13712,15.756379 c -1.439746,-0.45268 -2.873548,-1.442553 -3.482869,-2.404517 -0.321218,-0.507124 -0.333084,-0.626875 -0.07894,-0.796706 0.334586,-0.223589 1.719081,-0.07447 2.326424,0.250572 0.355465,0.19024 0.366464,0.270114 0.107761,0.782661 -0.579421,1.147989 0.17971,1.531497 0.870835,0.439938 l 0.41605,-0.657107 0.880548,0.880547 c 0.493769,0.49377 0.850988,1.036667 0.813254,1.235973 -0.07582,0.400485 -1.005217,0.535219 -1.853068,0.268639 z m -1.052486,-1.661225 c 0,-0.589917 2.483925,-3.759384 3.579984,-4.568032 1.353817,-0.9988147 1.263819,-0.5198691 -0.155458,0.82731 -0.78364,0.743833 -1.803697,1.925268 -2.266791,2.625411 -0.775835,1.172969 -1.157735,1.540875 -1.157735,1.115311 z m 7.106346,-4.011527 c -0.602673,-0.7188784 -0.74305,-0.7153323 -1.581944,0.03996 l -0.474769,0.427454 0.135005,-0.9850106 0.135005,-0.9850119 -0.923227,-0.0085 -0.923224,-0.0085 L 23.282143,7.944816 24.006459,7.3256125 23.576578,6.8482599 C 22.789821,5.9744914 22.814743,5.8896317 23.824647,6.0034626 l 0.943413,0.1063365 0.0057,-0.921989 0.0057,-0.9219888 0.609923,0.7357505 0.609925,0.7357505 0.50309,-0.472629 c 0.69625,-0.6540907 0.834706,-0.596021 0.755208,0.3167357 l -0.06875,0.7893647 0.947237,0.1052488 0.947238,0.1052488 -0.684117,0.4879524 c -0.376264,0.2683738 -0.684116,0.5689585 -0.684116,0.6679657 0,0.099008 0.235297,0.4596463 0.522879,0.80142 l 0.5229,0.621406 -0.930505,-0.1048783 -0.930506,-0.1048783 -0.06599,0.9106876 -0.06599,0.9106886 z m 0.471555,-1.0151045 c 0,-0.4888513 0.06045,-0.5280434 0.636632,-0.4128068 0.578186,0.1156307 0.616732,0.090142 0.419863,-0.2777102 -0.119224,-0.2227696 -0.310276,-0.4628267 -0.424561,-0.5334587 -0.11428,-0.070632 0.05199,-0.3570855 0.369502,-0.6365629 L 28.241264,6.699843 27.533257,6.6931854 C 26.867413,6.6869317 26.830769,6.6489276 26.917934,6.0550415 27.024414,5.3295522 26.9504,5.2882824 26.413783,5.7739161 26.050483,6.1026979 25.994347,6.0939534 25.502594,5.6319749 L 24.978557,5.1396732 v 0.6944964 c 0,0.6593976 -0.03192,0.6881136 -0.631491,0.5681982 -0.723596,-0.144719 -0.78287,-0.021497 -0.264952,0.550797 0.350108,0.3868638 0.345389,0.4221528 -0.105241,0.7870561 -0.625613,0.5065906 -0.595302,0.6302954 0.154439,0.6302954 0.593319,0 0.619092,0.035698 0.490392,0.6791935 L 24.485863,9.728902 25.088645,9.3339426 c 0.593488,-0.3888687 0.607836,-0.3883367 0.930465,0.034472 0.402566,0.5275601 0.643429,0.4152972 0.643429,-0.2998892 z"
     id="path1399" />
</svg>
