<?xml version="1.0" encoding="UTF-8" standalone="no"?>
<svg
   version="1.0"
   width="100mm"
   height="100mm"
   viewBox="0 0 283.46456 283.46456"
   preserveAspectRatio="xMidYMid meet"
   id="svg10"
   sodipodi:docname="jotl-voidwarden.svg"
   inkscape:version="1.1.2 (0a00cf5339, 2022-02-04)"
   xmlns:inkscape="http://www.inkscape.org/namespaces/inkscape"
   xmlns:sodipodi="http://sodipodi.sourceforge.net/DTD/sodipodi-0.dtd"
   xmlns="http://www.w3.org/2000/svg"
   xmlns:svg="http://www.w3.org/2000/svg">
  <defs
     id="defs14" />
  <sodipodi:namedview
     id="namedview12"
     pagecolor="#ffffff"
     bordercolor="#666666"
     borderopacity="1.0"
     inkscape:pageshadow="2"
     inkscape:pageopacity="0.0"
     inkscape:pagecheckerboard="0"
     inkscape:document-units="pt"
     showgrid="false"
     units="mm"
     width="100mm"
     inkscape:zoom="1.6623476"
     inkscape:cx="216.86198"
     inkscape:cy="218.36588"
     inkscape:window-width="1850"
     inkscape:window-height="1043"
     inkscape:window-x="0"
     inkscape:window-y="0"
     inkscape:window-maximized="1"
     inkscape:current-layer="svg10" />
  <metadata
     id="metadata2">
Created by potrace 1.16, written by Peter Selinger 2001-2019
</metadata>
  <g
     transform="matrix(0.05949992,0,0,-0.05949992,44.114777,239.29463)"
     fill="#000000"
     stroke="none"
     id="g8"
     style="fill:#e8e9e9;fill-opacity:1">
    <path
       d="m 321,3264 c -79,-21 -145,-60 -202,-121 -202,-213 -133,-559 138,-685 129,-61 292,-48 412,33 174,116 240,346 153,532 -90,194 -300,295 -501,241 z m 264,-118 c 76,-35 154,-122 170,-188 10,-40 -8,-34 -32,10 -45,79 -132,135 -230,149 -49,7 -60,17 -43,38 18,22 78,18 135,-9 z"
       id="path4"
       style="fill:#e8e9e9;fill-opacity:1" />
    <path
       d="m 1092,2921 c -29,-43 -63,-104 -77,-136 -31,-69 -65,-190 -65,-229 v -30 l -30,29 -31,30 -27,-35 c -33,-45 -87,-98 -132,-132 l -34,-27 22,-24 c 12,-13 22,-26 22,-29 0,-3 -22,-8 -48,-11 -100,-12 -250,-76 -360,-154 -87,-62 -72,-71 69,-40 63,14 143,28 179,32 36,4 74,8 85,11 17,4 16,2 -5,-13 -122,-88 -197,-163 -162,-163 4,0 53,15 108,34 104,35 333,91 341,82 3,-2 7,-23 10,-45 7,-50 22,-64 82,-71 45,-5 46,-6 57,-50 12,-50 37,-70 92,-70 29,0 32,-3 32,-28 0,-35 23,-57 69,-67 27,-6 205,-174 933,-884 495,-482 910,-881 922,-888 78,-45 168,45 123,123 -7,12 -406,427 -888,922 -709,727 -878,906 -884,933 -10,46 -32,69 -67,69 -25,0 -28,3 -28,33 0,54 -20,79 -70,91 -44,11 -45,12 -50,57 -7,60 -21,75 -71,82 -22,3 -43,8 -46,11 -9,9 46,241 83,346 18,55 34,102 34,105 0,29 -69,-40 -137,-138 -24,-33 -43,-54 -43,-46 1,37 32,231 50,306 24,100 23,93 7,93 -7,0 -36,-36 -65,-79 z"
       id="path6"
       style="fill:#e8e9e9;fill-opacity:1" />
  </g>
</svg>
