<?xml version="1.0" encoding="UTF-8" standalone="no"?>
<svg
   version="1.1"
   id="svg2"
   width="100"
   height="100"
   viewBox="0 0 100 100"
   sodipodi:docname="mp-cassandra.svg"
   inkscape:version="1.2.2 (b0a8486541, 2022-12-01)"
   xmlns:inkscape="http://www.inkscape.org/namespaces/inkscape"
   xmlns:sodipodi="http://sodipodi.sourceforge.net/DTD/sodipodi-0.dtd"
   xmlns="http://www.w3.org/2000/svg"
   xmlns:svg="http://www.w3.org/2000/svg">
  <sodipodi:namedview
     id="namedview373"
     pagecolor="#ffffff"
     bordercolor="#000000"
     borderopacity="0.25"
     inkscape:showpageshadow="2"
     inkscape:pageopacity="0.0"
     inkscape:pagecheckerboard="0"
     inkscape:deskcolor="#d1d1d1"
     showgrid="false"
     inkscape:zoom="4.3226271"
     inkscape:cx="97.625816"
     inkscape:cy="87.562491"
     inkscape:window-width="1854"
     inkscape:window-height="1011"
     inkscape:window-x="0"
     inkscape:window-y="0"
     inkscape:window-maximized="1"
     inkscape:current-layer="g8" />
  <defs
     id="defs6">
    <filter
       id="colorize"
       x="-0.1"
       y="-0.1"
       width="1.2"
       height="1.2">
      <feColorMatrix
         type="saturate"
         values="0"
         result="gray"
         id="feColorMatrix364" />
      <feColorMatrix
         in="gray"
         type="matrix"
         values="0 0 0 0 0.7843137254901961 0 0 0 0 0.8901960784313725 0 0 0 0 0.9176470588235294 0 0 0 1 0"
         id="feColorMatrix366" />
    </filter>
  </defs>
  <g
     id="g8"
     filter="url(#colorize)">
    <path
       style="fill:#000000;stroke-width:0.425322"
       d="M 48.433283,75.221756 C 38.571058,73.074364 24.98902,63.050912 10.163277,46.978782 L 7.6628102,44.268099 5.4726045,44.958501 C 1.0433797,46.35469 0.3108408,45.630307 3.398328,42.907319 L 5.353449,41.183017 4.0363125,39.529574 c -2.3861019,-2.99535 -1.340129,-3.830452 1.6591212,-1.324643 1.0528777,0.879649 1.9880823,1.357747 2.2879323,1.169637 0.278936,-0.174989 1.940019,-1.299257 3.691299,-2.498374 6.54569,-4.48188 16.127523,-8.547702 23.84203,-10.116793 8.409266,-1.710402 18.439253,-1.88891 24.621005,-0.438191 9.5966,2.252109 20.326364,11.299214 30.488818,25.707529 1.402454,1.988383 3.094166,4.572216 3.759381,5.741853 0.665208,1.169635 1.95185,2.948653 2.859209,3.953377 1.217482,1.348118 1.614962,2.128206 1.517012,2.977253 -0.12699,1.100742 -0.2339,1.148723 -2.47201,1.109553 -1.286607,-0.02251 -4.540319,-0.19087 -7.230482,-0.374114 -5.757596,-0.392163 -6.179646,-0.266211 -12.220345,3.646986 -7.962723,5.158285 -13.014423,6.783542 -20.916511,6.729332 -2.711222,-0.01862 -6.081495,-0.284648 -7.489489,-0.591223 z m 11.940351,-9.814025 c 4.066236,-1.178351 7.736468,-2.942683 12.694445,-6.102392 1.848339,-1.177944 4.166512,-2.47504 5.151497,-2.882432 l 1.790876,-0.740714 -2.029124,-2.789782 c -1.116007,-1.534381 -3.192226,-4.031115 -4.613814,-5.5483 l -2.5847,-2.758515 1.118808,2.511906 c 0.771176,1.731392 1.166078,3.449454 1.270908,5.529193 l 0.152081,3.017286 -0.758432,-2.056227 -0.758451,-2.056226 -0.989486,2.387321 c -1.223062,2.950857 -3.957881,5.752634 -7.13009,7.304647 -2.879208,1.408672 -8.195267,1.861823 -12.002495,1.023116 C 41.044122,59.902365 31.215772,49.860819 31.215772,41.332683 c 0,-1.947695 0.640009,-1.846001 1.096341,0.174204 l 0.311138,1.37742 0.68481,-1.529928 c 1.678407,-3.74972 4.509291,-6.321077 8.654753,-7.861317 3.140061,-1.166685 2.649511,-1.249447 -2.287172,-0.385877 -5.738725,1.003871 -12.162891,2.954853 -20.527167,6.233982 -4.240605,1.662486 -7.788762,3.090778 -7.884799,3.173983 -0.310406,0.268931 1.343428,1.896127 6.7671,6.658124 12.281911,10.783526 20.725215,15.815253 29.022963,17.295993 3.345609,0.597034 9.209039,0.129738 13.319895,-1.061536 z m 1.945667,-6.715477 c 4.386169,-1.925148 6.525844,-5.797968 5.416967,-9.804695 l -0.484323,-1.750028 -0.659648,2.323916 c -1.180764,4.159818 -5.477583,7.258441 -10.040705,7.240791 -2.102746,-0.0082 -5.728421,-1.129711 -7.551047,-2.335867 -3.211351,-2.125171 -3.575208,-5.14999 -1.142551,-9.498103 1.252081,-2.237962 1.256058,-2.265088 0.28848,-1.966401 -1.788299,0.552043 -3.143558,1.393449 -4.532238,2.813821 -1.629071,1.66626 -1.936991,2.676324 -1.668313,5.472555 0.343937,3.579424 2.725836,6.109878 7.253818,7.706243 2.806933,0.989595 10.680686,0.868234 13.11956,-0.202232 z m -3.591693,-7.347305 c 4.531833,-2.599134 5.208057,-7.626058 1.567866,-11.655306 -4.930358,-5.457318 -18.7921,-5.229894 -22.497346,0.369106 -1.206611,1.823313 -1.772926,5.231068 -1.141033,6.866121 0.400189,1.035511 0.423136,1.018832 0.878139,-0.637984 1.665557,-6.064884 8.253653,-9.00231 14.734,-6.569428 3.367462,1.264227 5.741851,3.582143 5.741851,5.605278 0,1.83364 -0.685424,3.87509 -2.014401,5.99965 l -1.021453,1.632919 0.986278,-0.294786 c 0.542453,-0.162134 1.787197,-0.75414 2.766099,-1.31557 z m -5.35906,-0.630718 c 2.16987,-2.322857 2.512288,-6.305078 0.605077,-7.036943 -1.70346,-0.65368 -4.464816,2.812769 -4.467391,5.608121 -0.0028,2.991967 1.784485,3.65314 3.862314,1.428822 z"
       id="path812" />
  </g>
</svg>
