<?xml version="1.0" encoding="UTF-8" standalone="no"?>
<svg
   version="1.1"
   id="svg2"
   width="100"
   height="100"
   viewBox="0 0 100 100"
   sodipodi:docname="mp-satha.svg"
   inkscape:version="1.2.2 (b0a8486541, 2022-12-01)"
   xmlns:inkscape="http://www.inkscape.org/namespaces/inkscape"
   xmlns:sodipodi="http://sodipodi.sourceforge.net/DTD/sodipodi-0.dtd"
   xmlns="http://www.w3.org/2000/svg"
   xmlns:svg="http://www.w3.org/2000/svg">
  <sodipodi:namedview
     id="namedview629"
     pagecolor="#ffffff"
     bordercolor="#000000"
     borderopacity="0.25"
     inkscape:showpageshadow="2"
     inkscape:pageopacity="0.0"
     inkscape:pagecheckerboard="0"
     inkscape:deskcolor="#d1d1d1"
     showgrid="false"
     inkscape:zoom="4.6677517"
     inkscape:cx="58.272165"
     inkscape:cy="77.017806"
     inkscape:window-width="1854"
     inkscape:window-height="1011"
     inkscape:window-x="0"
     inkscape:window-y="0"
     inkscape:window-maximized="1"
     inkscape:current-layer="g8" />
  <defs
     id="defs6">
    <filter
       id="colorize"
       x="-0.1"
       y="-0.1"
       width="1.2"
       height="1.2">
      <feColorMatrix
         type="saturate"
         values="0"
         result="gray"
         id="feColorMatrix620" />
      <feColorMatrix
         in="gray"
         type="matrix"
         values="0 0 0 0 0.0 0 0 0 0 0.6588235294117647 0 0 0 0 0.9529411764705882 0 0 0 1 0"
         id="feColorMatrix622" />
    </filter>
  </defs>
  <g
     id="g8"
     filter="url(#colorize)">
    <path
       style="fill:#000000;stroke-width:0.537738"
       d="m 45.19493,94.756345 c -3.918772,-1.974139 -7.124335,-3.835533 -7.123473,-4.136436 8.6e-4,-0.300908 1.415136,-7.078311 3.14283,-15.0609 l 3.141262,-14.513798 13.123772,-2.521926 c 7.218075,-1.38706 13.73781,-2.538795 14.488299,-2.559411 1.339407,-0.03678 1.430989,0.223544 4.974086,14.139565 1.985257,7.79738 3.609556,14.459417 3.609556,14.804532 0,0.707272 -26.029885,13.51696 -27.369119,13.468756 -0.474195,-0.01715 -4.068441,-1.646246 -7.987213,-3.620382 z M 30.138241,85.232614 c -1.552721,-0.705615 -2.82313,-1.379928 -2.82313,-1.498474 0,-0.25542 4.740363,-18.555271 5.122325,-19.774384 0.172057,-0.549156 1.377029,-1.023565 3.485449,-1.372262 2.762178,-0.45682 3.222482,-0.415828 3.222482,0.286953 0,2.219841 -5.07554,23.699267 -5.593659,23.672079 -0.324686,-0.01704 -1.860746,-0.608296 -3.413467,-1.313912 z m 0.175244,-41.433813 c -0.829114,-8.148954 -1.419461,-14.899033 -1.311883,-15.000175 0.423896,-0.398532 7.044698,-3.037497 7.208845,-2.87335 0.20244,0.202441 2.93492,28.328511 2.93492,30.20983 0,1.09645 -0.387152,1.333775 -3.047249,1.868003 -1.675986,0.336587 -3.323977,0.611973 -3.662201,0.611973 -0.41009,0 -1.117147,-4.935825 -2.122432,-14.816281 z m 13.436028,11.455413 c -0.668836,-3.16113 -2.996383,-31.257219 -2.6168,-31.587693 0.603979,-0.525837 11.065996,-4.846508 11.732089,-4.845192 0.538011,0.0011 13.11348,5.145189 13.484103,5.515812 0.311485,0.311485 -3.057611,28.062944 -3.451407,28.429466 -0.297695,0.277078 -17.46044,3.69752 -18.553033,3.69752 -0.186428,0 -0.454156,-0.544461 -0.594952,-1.209913 z M 20.99668,51.117741 c -2.735747,-2.618626 -4.974085,-5.057937 -4.974085,-5.420689 0,-0.604375 3.773791,-12.918517 4.091281,-13.350128 0.07599,-0.103304 1.084649,-0.02791 2.241468,0.16753 l 2.103307,0.35535 0.912814,8.974032 c 0.502046,4.935718 1.054934,10.123449 1.228638,11.528292 0.173703,1.404843 0.103163,2.54357 -0.156757,2.530508 -0.259919,-0.01307 -2.710919,-2.166268 -5.446666,-4.784895 z m 47.209094,-1.038703 c 0.03111,-2.69481 2.445709,-23.149318 2.771133,-23.474743 0.271967,-0.271965 5.631749,1.752039 6.650475,2.511403 0.396421,0.295491 0.130799,3.565377 -0.867276,10.676614 -0.791288,5.637869 -1.579835,10.391795 -1.752319,10.56428 -0.172486,0.172484 -1.778565,0.619316 -3.569065,0.992959 l -3.255455,0.679351 z M 64.155119,18.290161 c -8.240615,-3.445889 -11.579261,-4.605178 -12.367994,-4.294579 -0.594204,0.233993 -5.173888,2.141723 -10.177073,4.239398 -5.003185,2.097676 -9.233951,3.676704 -9.401703,3.508953 -0.16775,-0.167752 0.542533,-4.446761 1.578407,-9.508913 2.156055,-10.5362941 1.418975,-9.6719773 8.841301,-10.3675062 l 4.013226,-0.37607 0.375114,2.3458295 c 0.352241,2.2027995 0.403629,2.2602829 0.842794,0.9427835 0.416324,-1.2489721 0.82846,-1.4407548 3.753025,-1.7464324 6.204908,-0.6485413 6.29656,-0.6231878 6.692237,1.8512379 0.207492,1.2975777 0.515145,1.9289253 0.752676,1.5445926 0.294417,-0.4763765 1.633197,-0.5474518 5.011367,-0.266052 l 4.609624,0.383979 0.377343,3.3143824 c 0.207539,1.8229097 0.472956,3.0310437 0.589816,2.6847407 0.149849,-0.44406 1.035538,-0.298558 3.004969,0.493654 1.535874,0.617813 2.943648,1.264126 3.128393,1.43625 0.18474,0.172126 0.468559,2.188318 0.630704,4.480431 0.213148,3.013078 0.120104,4.151669 -0.335894,4.110411 -0.34689,-0.03139 -5.710137,-2.181076 -11.918332,-4.77709 z"
       id="path832" />
  </g>
</svg>
