<?xml version="1.0" encoding="UTF-8" standalone="no"?>
<!-- Generator: Adobe Illustrator 27.0.1, SVG Export Plug-In . SVG Version: 6.00 Build 0)  -->

<svg
   version="1.1"
   id="Layer_1"
   x="0px"
   y="0px"
   viewBox="0 0 600 600"
   style="enable-background:new 0 0 600 600;"
   xml:space="preserve"
   sodipodi:docname="toa-three-eyes.svg"
   inkscape:version="1.1.2 (0a00cf5339, 2022-02-04)"
   xmlns:inkscape="http://www.inkscape.org/namespaces/inkscape"
   xmlns:sodipodi="http://sodipodi.sourceforge.net/DTD/sodipodi-0.dtd"
   xmlns:xlink="http://www.w3.org/1999/xlink"
   xmlns="http://www.w3.org/2000/svg"
   xmlns:svg="http://www.w3.org/2000/svg"><defs
   id="defs25" /><sodipodi:namedview
   id="namedview23"
   pagecolor="#ffffff"
   bordercolor="#666666"
   borderopacity="1.0"
   inkscape:pageshadow="2"
   inkscape:pageopacity="0.0"
   inkscape:pagecheckerboard="0"
   showgrid="false"
   inkscape:zoom="1.3033333"
   inkscape:cx="300.38363"
   inkscape:cy="300"
   inkscape:window-width="1846"
   inkscape:window-height="1043"
   inkscape:window-x="0"
   inkscape:window-y="0"
   inkscape:window-maximized="1"
   inkscape:current-layer="Layer_1" />
<style
   type="text/css"
   id="style2">
	.st0{clip-path:url(#SVGID_00000088823091889001671690000004903523891234111398_);}
	.st1{fill:#231F20;}
</style>
<g
   id="g20"
   style="fill:#c63072;fill-opacity:1">
	<defs
   id="defs5">
		<rect
   id="SVGID_1_"
   width="600"
   height="600" />
	</defs>
	<clipPath
   id="SVGID_00000165919377268225024600000016329042957050717326_">
		<use
   xlink:href="#SVGID_1_"
   style="overflow:visible;"
   id="use7" />
	</clipPath>
	<g
   style="clip-path:url(#SVGID_00000165919377268225024600000016329042957050717326_);fill:#c63072;fill-opacity:1"
   clip-path="url(#SVGID_00000165919377268225024600000016329042957050717326_)"
   id="g18">
		<path
   class="st1"
   d="M533.3,294.6c-7.9,25.6-24.4,46.6-45.6,59c-4.9,31.4-23.3,59.4-51.4,73.1c-26.3,12.8-55.2,9.9-78.3-4.9    c-4.8,5.6-9.1,11.5-13.1,18c-19.4,31.5-29,65.1-29,65.1s17.8-140.7,54-164.6c26.5-17.5,65.6-25,102.8-35.9c0,0,0,0,0,0    c36.8-14.5,66.2-44.4,72.1-75.6C545.7,222.6,544.4,258.8,533.3,294.6z M441.4,367c-12.5,5.8-25.9,11.6-39.7,17.1    c-5.5,2.2-11.7,4.8-18.3,7.9c0.8,3.6,2.2,6.9,4.3,9.8c9.2,12.5,27.6,12.5,41.2,0.1C439.2,392.5,443.7,378.6,441.4,367z"
   id="path10"
   style="fill:#c63072;fill-opacity:1" />
		<path
   class="st1"
   d="M66.7,294.6c7.9,25.6,24.4,46.6,45.6,59c4.9,31.4,23.3,59.4,51.4,73.1c26.3,12.8,55.2,9.9,78.3-4.9    c4.8,5.6,9.1,11.5,13.1,18c19.4,31.5,29,65.1,29,65.1s-17.8-140.7-54-164.6c-26.5-17.5-65.6-25-102.8-35.9c0,0,0,0,0,0    c-36.8-14.5-66.2-44.4-72.1-75.6C54.3,222.6,55.6,258.8,66.7,294.6z M158.6,367c12.5,5.8,25.9,11.6,39.7,17.1    c5.5,2.2,11.7,4.8,18.3,7.9c-0.8,3.6-2.2,6.9-4.3,9.8c-9.2,12.5-27.6,12.5-41.2,0.1C160.8,392.5,156.3,378.6,158.6,367z"
   id="path12"
   style="fill:#c63072;fill-opacity:1" />
		<path
   class="st1"
   d="M300,341.7c29.9,0,56.2-18.4,71.3-46.2c-15.1-27.8-41.4-46.2-71.3-46.2s-56.2,18.4-71.3,46.2    C243.8,323.3,270.1,341.7,300,341.7z M300,326.9c-17.1,0-30.9-14.1-30.9-31.4s13.8-31.4,30.9-31.4c17.1,0,30.9,14.1,30.9,31.4    S317.1,326.9,300,326.9z"
   id="path14"
   style="fill:#c63072;fill-opacity:1" />
		<path
   class="st1"
   d="M300,238.5c13.5,0,26.5,3.3,38.4,9.4c-11.7-58.5-31.1-131.1-36.8-151.9c-0.3-1.1-2.9-1.1-3.2,0    c-5.7,20.8-25.1,93.4-36.8,151.9C273.5,241.7,286.5,238.5,300,238.5z"
   id="path16"
   style="fill:#c63072;fill-opacity:1" />
	</g>
</g>
</svg>
