<?xml version="1.0" encoding="UTF-8" standalone="no"?>
<!-- Generator: Adobe Illustrator 27.0.1, SVG Export Plug-In . SVG Version: 6.00 Build 0)  -->

<svg
   version="1.1"
   id="Layer_1"
   x="0px"
   y="0px"
   viewBox="0 0 600 600"
   style="enable-background:new 0 0 600 600;"
   xml:space="preserve"
   sodipodi:docname="toa-lightning-ball.svg"
   inkscape:version="1.1.2 (0a00cf5339, 2022-02-04)"
   xmlns:inkscape="http://www.inkscape.org/namespaces/inkscape"
   xmlns:sodipodi="http://sodipodi.sourceforge.net/DTD/sodipodi-0.dtd"
   xmlns:xlink="http://www.w3.org/1999/xlink"
   xmlns="http://www.w3.org/2000/svg"
   xmlns:svg="http://www.w3.org/2000/svg"><defs
   id="defs19" /><sodipodi:namedview
   id="namedview17"
   pagecolor="#ffffff"
   bordercolor="#666666"
   borderopacity="1.0"
   inkscape:pageshadow="2"
   inkscape:pageopacity="0.0"
   inkscape:pagecheckerboard="0"
   showgrid="false"
   inkscape:zoom="1.3033333"
   inkscape:cx="300.38363"
   inkscape:cy="300"
   inkscape:window-width="1846"
   inkscape:window-height="1043"
   inkscape:window-x="0"
   inkscape:window-y="0"
   inkscape:window-maximized="1"
   inkscape:current-layer="Layer_1" />
<style
   type="text/css"
   id="style2">
	.st0{clip-path:url(#SVGID_00000081636762277705246810000015123562207216967297_);}
	.st1{fill:#231F20;}
</style>
<g
   id="g14"
   style="fill:#109de0;fill-opacity:1">
	<defs
   id="defs5">
		<rect
   id="SVGID_1_"
   width="600"
   height="600" />
	</defs>
	<clipPath
   id="SVGID_00000119092938711474976160000001087031063270955142_">
		<use
   xlink:href="#SVGID_1_"
   style="overflow:visible;"
   id="use7" />
	</clipPath>
	<g
   style="clip-path:url(#SVGID_00000119092938711474976160000001087031063270955142_);fill:#109de0;fill-opacity:1"
   clip-path="url(#SVGID_00000119092938711474976160000001087031063270955142_)"
   id="g12">
		<path
   class="st1"
   d="M394.5,359.4l13.9-14.7L380.4,334c0,0-17.1,19.4-29.3,26.7l-23.2-14.1l39,76.6l18-41.7L436.8,550l-57.7-90.3    l-25.5,44.5l-21.4-94.4l-18,43.3l0-82c-10.1,1.4-18.9,2.5-28.8-1.3l-3.4-24.7l-18.6,56.6l17.3-0.3l-52.1,87.4l20.3-73.2l-17.9,0    l35-59.5c0,0-7.3-3.2-9.6-6l7.8-29.6l-63.4,67.6l10.6-31.2l-64.1,47.1l7.1-39.2l-95.2,23.8l137.9-80.2l-12.5,35l57.4-21.9    c-0.2-0.7-7.6-20.1-5.6-30.9l22.9-8.4l-54.9-12.1l1.2,16.2l-99-45.5l82.6,16.2l-0.7-16l57.8,23.9c0,0,3.4-9.2,8.5-13.9l31.1,5.9    l-77.3-65.3l41.1,11.5l-61-68.5l50.9,5.5L196.9,50l108.5,129.1l-41.5-4.5l25.1,57.5c8.2-3,12.3-5.1,21.1-4.6l10.8,25.6l1.9-26.3    l4.3,3.7l11-65.4l12.9,11.1l32-70.7l-16.7,104.8l-15.4-13.1l-14.5,38.5c2.6,0.9,14.9,6.3,21.4,13.4l-6.1,27.7l58.3-61.4l-11,31.6    l61.9-49.1l-7.8,41.4l87.6-24l-126.1,77.4l9.8-33.7L376,276.5c0.1,0.3,6.3,16.1,5.4,26.3l-23.1,12.4l20.1,0.5c0,0-5,5.1-5,5.1    l66.3,11.4l-10.5,11.3l74.1,32.7L394.5,359.4z"
   id="path10"
   style="fill:#109de0;fill-opacity:1" />
	</g>
</g>
</svg>
