<?xml version="1.0" encoding="UTF-8" standalone="no"?>
<!-- Generator: Adobe Illustrator 27.0.1, SVG Export Plug-In . SVG Version: 6.00 Build 0)  -->

<svg
   version="1.1"
   id="Layer_1"
   x="0px"
   y="0px"
   viewBox="0 0 600 600"
   style="enable-background:new 0 0 600 600;"
   xml:space="preserve"
   sodipodi:docname="toa-ice-meteor.svg"
   inkscape:version="1.1.2 (0a00cf5339, 2022-02-04)"
   xmlns:inkscape="http://www.inkscape.org/namespaces/inkscape"
   xmlns:sodipodi="http://sodipodi.sourceforge.net/DTD/sodipodi-0.dtd"
   xmlns:xlink="http://www.w3.org/1999/xlink"
   xmlns="http://www.w3.org/2000/svg"
   xmlns:svg="http://www.w3.org/2000/svg"><defs
   id="defs29" /><sodipodi:namedview
   id="namedview27"
   pagecolor="#ffffff"
   bordercolor="#666666"
   borderopacity="1.0"
   inkscape:pageshadow="2"
   inkscape:pageopacity="0.0"
   inkscape:pagecheckerboard="0"
   showgrid="false"
   inkscape:zoom="1.3033333"
   inkscape:cx="300.38363"
   inkscape:cy="300"
   inkscape:window-width="1846"
   inkscape:window-height="1043"
   inkscape:window-x="0"
   inkscape:window-y="0"
   inkscape:window-maximized="1"
   inkscape:current-layer="Layer_1" />
<style
   type="text/css"
   id="style2">
	.st0{clip-path:url(#SVGID_00000142145098471150823930000004780126099803716748_);}
	.st1{fill:#231F20;}
</style>
<g
   id="g24"
   style="fill:#a6e9ff;fill-opacity:1">
	<defs
   id="defs5">
		<rect
   id="SVGID_1_"
   width="600"
   height="600" />
	</defs>
	<clipPath
   id="SVGID_00000098207884344436916340000002251567226033659066_">
		<use
   xlink:href="#SVGID_1_"
   style="overflow:visible;"
   id="use7" />
	</clipPath>
	<g
   style="clip-path:url(#SVGID_00000098207884344436916340000002251567226033659066_);fill:#a6e9ff;fill-opacity:1"
   clip-path="url(#SVGID_00000098207884344436916340000002251567226033659066_)"
   id="g22">
		<g
   id="g18"
   style="fill:#a6e9ff;fill-opacity:1">
			<path
   class="st1"
   d="M408.9,487.5l-15.8-22.2l-4.7,10.2l-13.3,2.7l-6.7-11.8l9.9-21.7L365.8,427l-22.3,2l-8.2,17.9l15.2,21.3     l-4.3,12.9l-13.6-0.1l-7.8-11l-7.6,16.7l-13.3,2.7l-6.7-11.8l7.6-16.6l-13.2,1.3l-9-10.2l6.9-11.7l25.9-2.5l8.2-17.9l-12.8-18.2     l-21.8,2.1l-9.9,21.7l-13.3,2.7l-6.7-11.8l4.6-10.1l-27,2.6c-1.3,0.1-2.5,0.9-3.1,2c-0.6,1.1-0.7,2.5-0.1,3.6     c0.1,0.2,0.2,0.4,0.3,0.5l62.2,87.2c0.8,1.1,2.2,1.8,3.6,1.6l106.6-10.3c1.3-0.1,2.5-0.9,3.1-2c0.6-1.1,0.7-2.5,0.1-3.6     C409.2,487.9,409.1,487.7,408.9,487.5z"
   id="path10"
   style="fill:#a6e9ff;fill-opacity:1" />
			<path
   class="st1"
   d="M411.7,284l-11.3,24.8l11.2-1.1l9,10.2l-6.9,11.7l-23.8,2.3l-9,19.8l12.8,18.2l19.7-1.8l10.9-23.8l13.3-2.7     l6.6,11.8l-5.6,12.2l18.3-1.7l9,10.2l-6.9,11.7l-18.2,1.7l7.7,10.8l-4.3,12.9l-13.6-0.2l-15-21.2l-19.5,1.8l-9.4,20.3l12.7,17.8     l23.8-2.3l9,10.2l-6.9,11.7l-11.1,1.1l15.8,22.1c0.4,0.6,1,1,1.6,1.3c2,0.9,4.3,0,5.2-2l44.4-97.5c0.5-1.1,0.5-2.4-0.1-3.4     c-0.1-0.2-0.2-0.3-0.3-0.5l-62.3-87.2c-0.8-1.2-2.2-1.8-3.6-1.6C413.4,281.8,412.2,282.7,411.7,284z"
   id="path12"
   style="fill:#a6e9ff;fill-opacity:1" />
			<path
   class="st1"
   d="M234,383.4l27.1-2.6l-6.5-9.1l4.3-12.9l13.6,0.1l13.8,19.4l21.7-2.1l9.4-20.3l-11.4-16l-26,2.5l-9-10.2     l6.9-11.7l13.4-1.3l-10.6-14.9l4.3-12.9l13.6,0.1l10.6,14.9l5.5-12.1l13.3-2.7l6.7,11.8l-10.8,23.6l11.4,16l22.1-2l9.1-20     l-13.8-19.4l4.3-12.9l13.6,0.1l6.5,9.1l11.3-24.7c0.5-1.1,0.5-2.3-0.1-3.4c-0.7-1.4-2.3-2.3-3.9-2.1l-106.6,10.3     c-1.4,0.1-2.6,1-3.2,2.3L230,377.9c-0.5,1.1-0.5,2.3,0.1,3.4C230.8,382.8,232.4,383.6,234,383.4z"
   id="path14"
   style="fill:#a6e9ff;fill-opacity:1" />
			<path
   class="st1"
   d="M526.6,358.3l-94.1-130.8c-0.8-1.1-1.7-2.1-2.6-2.9c-3.8-4.9-7.9-9.8-12.2-14.5     c-19.5-21.4-42.1-39.8-67-54.4c-2.7-1.6-5.5-2.9-8.2-4.3c7.8,11,15.5,21.9,22,33.7c1,1.7,1.6,3.7,1.8,5.6c0,0.4,0.1,0.6,0.1,0.6     s-2.5-1.3-3-1.7c-13-8.7-47-32-67.9-39.5c-20.9-7.5-42.2-14-63.2-21.1c-12.3-4.1-24.7-8-36.7-12.6c-21.6-8.3-43-17.2-56.6-37.4     c-0.2,13.8,6.1,25.2,12.5,37.4c0.7,1.3,1.2,2.6,1.5,4c0.1,0.2,0.1,0.4,0.1,0.4s-2.1-0.5-2.5-0.7C113.6,108.6,91.5,82.7,74.9,50     c-0.9,1.7-1.6,3.5-2.2,5.4c-0.9,3.3-1.5,6.7-2,10.1c-2.3,22.7,1,44.6,8.1,65.9c5.9,17.4,14.8,33,28.2,45.8     c10.6,10.2,21.7,20,31.6,30.9c8,8.8,16.7,29.3,21.1,41.4c0.8,2.2,1.1,4.5,1,6.8c-0.1,0.7-0.1,1.2-0.1,1.2s-2.4-3.3-2.9-3.9     c-0.9-1-1.8-2.1-2.5-2.9c-10.9-13.6-23-26-39.4-33.2c-5-2.2-19.4-5.5-19.4-5.5s5,4.2,6.1,5.1c19.2,15.7,30.8,35.6,34.1,60.5     c2.5,18.6,5.9,37,9,55.4c4.2,23.7,10,47,19.9,68.8c8.4,18.5,21.1,33.6,36.8,46.1l68,94.6c3.2,4.5,8.4,7.3,14,7.5     c0.9,0,1.7,0,2.6-0.1l160.3-16.1c6.4-0.7,12.1-4.7,14.7-10.6l66.2-146.9C531,370.5,530.3,363.6,526.6,358.3z M438.6,506.9     l-149.1,14.4l-87.1-122L264.5,263l149.1-14.4l87.1,122L438.6,506.9z"
   id="path16"
   style="fill:#a6e9ff;fill-opacity:1" />
		</g>
		<polygon
   class="st1"
   points="380.8,382.2 368.5,409 339.3,411.7 322.2,387.7 334.5,361 363.8,358.3   "
   id="polygon20"
   style="fill:#a6e9ff;fill-opacity:1" />
	</g>
</g>
</svg>
