<?xml version="1.0" encoding="UTF-8"?>
<svg version="1.1" xmlns="http://www.w3.org/2000/svg" width="55" height="60">
<path d="M0 0 C0.66 0 1.32 0 2 0 C2.495 1.485 2.495 1.485 3 3 C3.66 3.33 4.32 3.66 5 4 C4.58887043 19.00622924 4.58887043 19.00622924 0 24 C-0.515625 24.598125 -1.03125 25.19625 -1.5625 25.8125 C-5.74540973 29.26794717 -11.83151337 27.9787369 -16.92773438 27.78515625 C-18.95272464 27.74671813 -20.9792694 27.86321208 -23 28 C-25.22154229 31.33231343 -25.18103989 32.22105985 -25 36.0625 C-24.875 38.72265625 -24.875 38.72265625 -25 41 C-27 43 -27 43 -29.9375 43.375 C-33 43 -33 43 -34.8125 41.1875 C-37.35306723 36.50750773 -37.49004492 32.20338604 -37 27 C-35.30201073 22.2635036 -33.13204513 19.82188448 -29 17 C-28.401875 16.5875 -27.80375 16.175 -27.1875 15.75 C-21.5433272 13.81485504 -14.91808201 15.13296919 -9.1015625 15.78125 C-7.02061065 16.03450996 -7.02061065 16.03450996 -5 16 C-5.53069061 12.17902761 -6.49701566 9.93828597 -9 7 C-8.34 6.67 -7.68 6.34 -7 6 C-6.34444881 3.47266765 -6.34444881 3.47266765 -6 1 C-5.071875 1.309375 -5.071875 1.309375 -4.125 1.625 C-3.073125 1.810625 -3.073125 1.810625 -2 2 C-1.34 1.34 -0.68 0.68 0 0 Z M-1 12 C-1.33 13.32 -1.66 14.64 -2 16 C-1.01 15.67 -0.02 15.34 1 15 C1 14.01 1 13.02 1 12 C0.34 12 -0.32 12 -1 12 Z M-24 18 C-24.33 19.32 -24.66 20.64 -25 22 C-22.39417629 22.93065133 -21.35801776 23.14917407 -18.75 22.0625 C-18.1725 21.711875 -17.595 21.36125 -17 21 C-17 20.01 -17 19.02 -17 18 C-19.31 18 -21.62 18 -24 18 Z M-7 19 C-6.67 20.32 -6.34 21.64 -6 23 C-3.50447516 22.21869929 -3.50447516 22.21869929 -1 21 C-0.67 20.01 -0.34 19.02 0 18 C-3.62885324 17.84850702 -3.62885324 17.84850702 -7 19 Z M-14 19 C-14.33 19.99 -14.66 20.98 -15 22 C-12.03 22.495 -12.03 22.495 -9 23 C-9 22.01 -9 21.02 -9 20 C-10.65 19.67 -12.3 19.34 -14 19 Z M-29 20 C-31.28728734 21.83883881 -31.28728734 21.83883881 -31.125 24.625 C-31.08375 25.40875 -31.0425 26.1925 -31 27 C-29.68 27 -28.36 27 -27 27 C-26.06576355 23.98968256 -25.95550089 23.13349732 -27 20 C-27.66 20 -28.32 20 -29 20 Z M-34 27 C-34 28.98 -34 30.96 -34 33 C-32.02 33.99 -32.02 33.99 -30 35 C-29.67 33.35 -29.34 31.7 -29 30 C-30.65 29.01 -32.3 28.02 -34 27 Z " fill="#000000" transform="translate(37,17)"/>
<path d="M0 0 C4.10110762 1.40398279 6.98089159 3.37087038 10.3125 6.125 C11.19550781 6.84945313 12.07851563 7.57390625 12.98828125 8.3203125 C13.98408203 9.15175781 13.98408203 9.15175781 15 10 C14.67 10.99 14.34 11.98 14 13 C10.7 10.69 7.4 8.38 4 6 C4.99 9.63 5.98 13.26 7 17 C5.02 17.33 3.04 17.66 1 18 C3.31 18.99 5.62 19.98 8 21 C8 21.33 8 21.66 8 22 C-1.80843419 21.38029501 -1.80843419 21.38029501 -6 18 C-6 17.34 -6 16.68 -6 16 C-2.7 15.67 0.6 15.34 4 15 C3.62746094 14.08476562 3.25492188 13.16953125 2.87109375 12.2265625 C2.39800781 11.03804687 1.92492187 9.84953125 1.4375 8.625 C0.96183594 7.44164062 0.48617188 6.25828125 -0.00390625 5.0390625 C-1 2 -1 2 0 0 Z " fill="#000000" transform="translate(18,3)"/>
<path d="M0 0 C0.33 0 0.66 0 1 0 C1 4.95 1 9.9 1 15 C3.97 15.99 6.94 16.98 10 18 C10 18.66 10 19.32 10 20 C6.17679443 21.42258812 3.08718695 22.24042276 -1 22 C-0.01 21.01 0.98 20.02 2 19 C1.360625 18.79375 0.72125 18.5875 0.0625 18.375 C-2 17 -2 17 -2.75 13.875 C-2.8325 12.92625 -2.915 11.9775 -3 11 C-3.99 11.66 -4.98 12.32 -6 13 C-6.33 12.34 -6.66 11.68 -7 11 C-5.8203125 8.65234375 -5.8203125 8.65234375 -4.125 5.9375 C-3.57070313 5.03902344 -3.01640625 4.14054688 -2.4453125 3.21484375 C-1 1 -1 1 0 0 Z " fill="#000000" transform="translate(45,3)"/>
<path d="M0 0 C2 2 2 2 2.1953125 4.1640625 C2.16050781 5.38222656 2.16050781 5.38222656 2.125 6.625 C2.10695312 7.44226563 2.08890625 8.25953125 2.0703125 9.1015625 C2.04710937 9.72804688 2.02390625 10.35453125 2 11 C1.34 10.67 0.68 10.34 0 10 C0 6.7 0 3.4 0 0 Z " fill="#000000" transform="translate(35,4)"/>
<path d="M0 0 C0.66 0.33 1.32 0.66 2 1 C-0.97 3.475 -0.97 3.475 -4 6 C-4 5.01 -4 4.02 -4 3 C-2 1.3125 -2 1.3125 0 0 Z " fill="#000000" transform="translate(52,11)"/>
<path d="M0 0 C1.65 1.65 3.3 3.3 5 5 C4.01 5 3.02 5 2 5 C1.34 3.35 0.68 1.7 0 0 Z " fill="#000000" transform="translate(14,9)"/>
<path d="M0 0 C1.5625 1.75 1.5625 1.75 3 4 C2.6875 6.25 2.6875 6.25 2 8 C0.23537317 4.91190305 0 3.76687864 0 0 Z " fill="#000000" transform="translate(27,0)"/>
<path d="M0 0 C1.485 0.99 1.485 0.99 3 2 C1.68 1.67 0.36 1.34 -1 1 C-0.67 0.67 -0.34 0.34 0 0 Z " fill="#000000" transform="translate(14,15)"/>
<path d="M0 0 C0.33 0.99 0.66 1.98 1 3 C0.34 3 -0.32 3 -1 3 C-0.67 2.01 -0.34 1.02 0 0 Z " fill="#000000" transform="translate(40,3)"/>
<path d="M0 0 C0.99 0.33 1.98 0.66 3 1 C2.01 1 1.02 1 0 1 C0 0.67 0 0.34 0 0 Z " fill="#000000" transform="translate(44,28)"/>
<path d="M0 0 C0.99 0.495 0.99 0.495 2 1 C1.01 1.495 1.01 1.495 0 2 C0 1.34 0 0.68 0 0 Z " fill="#000000" transform="translate(26,29)"/>
<path d="" fill="#000000" transform="translate(0,0)"/>
</svg>
