<svg xmlns="http://www.w3.org/2000/svg" width="151" height="151"><path d="M120 14c3.51 2.83 6.78 5.84 10 9l2.13 2.05c14.08 14.61 19.38 34.64 19.08 54.5-.67 19.56-9.72 36.72-23.21 50.45l-2.05 2.13c-14.61 14.08-34.64 19.38-54.5 19.08C51.9 150.54 34.74 141.5 21 128l-2.13-2.05C4.8 111.34-.5 91.3-.2 71.45.46 51.9 9.5 34.74 23 21l2.05-2.13C50.42-5.59 91.98-5.8 120 14ZM30 34l-1.82 1.16C23.02 38.48 23.02 38.48 18 42v1c15.1 1.01 28.36-4.24 42-10 13.29-5.6 26.41-10.4 41-11-5.15-5.85-14.12-6.72-21.5-7.25C61.23 15.13 44.96 24.39 30 34Zm5 31-2.83 1.76a2098.9 2098.9 0 0 0-9.05 5.68l-2.9 1.83L17.51 76l-2.42 1.53A31.03 31.03 0 0 0 10 82c22.92 1.12 42.29-6.3 62.71-16l1.98-.94 1.97-.93c19.81-9.4 38.45-15 60.34-16.13-4.6-5.9-15.59-7.43-22.64-8.61C85.74 36.68 58.56 50.25 35 65Zm43.96 18.7C48.63 97.08 48.63 97.08 36 100l-2.34.63c-6.77 1.74-13.7 2-20.66 2.37 5.24 5.98 13.1 8.14 20.69 9.81L37 113l2.08.15C70.6 114.45 101.07 94.32 127 79l2.35-1.38 6.46-3.8 1.93-1.14c1.44-.87 2.85-1.77 4.26-2.68v-1c-23.18-.63-42.16 5.45-63.04 14.7Zm2.6 37.24c-10 4.35-19.84 7.04-30.56 9.06 4.99 4.99 13.77 5.77 20.5 6.25 20.6-.47 43.25-12.87 58.07-26.64L131 108c-18.27-.72-32.97 5.7-49.44 12.94Z"/></svg>