<?xml version="1.0" encoding="UTF-8" standalone="no"?>
<!-- Created with Inkscape (http://www.inkscape.org/) -->

<svg
   width="14.14617mm"
   height="11.882316mm"
   viewBox="0 0 14.14617 11.882316"
   version="1.1"
   id="svg5"
   xml:space="preserve"
   inkscape:version="1.2.2 (b0a8486541, 2022-12-01)"
   sodipodi:docname="ccug-dome-plus.svg"
   xmlns:inkscape="http://www.inkscape.org/namespaces/inkscape"
   xmlns:sodipodi="http://sodipodi.sourceforge.net/DTD/sodipodi-0.dtd"
   xmlns="http://www.w3.org/2000/svg"
   xmlns:svg="http://www.w3.org/2000/svg"><sodipodi:namedview
     id="namedview7"
     pagecolor="#ffffff"
     bordercolor="#000000"
     borderopacity="0.25"
     inkscape:showpageshadow="2"
     inkscape:pageopacity="0.0"
     inkscape:pagecheckerboard="0"
     inkscape:deskcolor="#d1d1d1"
     inkscape:document-units="mm"
     showgrid="false"
     inkscape:zoom="5.5945567"
     inkscape:cx="-42.541351"
     inkscape:cy="-15.640203"
     inkscape:window-width="1854"
     inkscape:window-height="1011"
     inkscape:window-x="0"
     inkscape:window-y="0"
     inkscape:window-maximized="1"
     inkscape:current-layer="layer1" /><defs
     id="defs2" /><g
     inkscape:label="Layer 1"
     inkscape:groupmode="layer"
     id="layer1"
     transform="translate(-164.60645,-84.939898)"><path
       style="fill:#000000;stroke-width:0.264583"
       d="m 170.07831,96.663802 c -0.66206,-0.173011 -0.57187,-1.00599 0.14426,-1.33228 0.74952,-0.341505 2.09911,0.255247 1.87835,0.830551 -0.12167,0.317055 -1.03082,0.730969 -1.42729,0.649809 -0.0728,-0.0149 -0.34065,-0.0815 -0.59532,-0.14808 z m 4.43177,-0.323865 c -0.29104,-0.125909 -0.85658,-0.16769 -1.25677,-0.09285 -0.47614,0.08905 -0.7276,0.02254 -0.7276,-0.192436 0,-0.193382 0.2084,-0.274017 0.50663,-0.196028 0.49893,0.130474 0.49895,0.119888 9.8e-4,-0.696746 -0.29252,-0.47974 -0.50605,-1.314311 -0.50662,-1.980169 -0.002,-2.533319 3.04429,-3.915618 5.00101,-2.269147 2.22015,1.868128 1.26515,5.175086 -1.60058,5.542471 -0.48833,0.06261 -1.126,0.01081 -1.41705,-0.115099 z m 1.723,-1.960609 c 0,-0.388056 -0.0678,-0.429191 0.41721,-0.429191 0.48507,0 0.9025,-0.155474 0.9025,-0.543529 0,-0.388056 -0.41743,-0.514804 -0.9025,-0.514804 -0.52916,0 -0.41237,0.128466 -0.41237,-0.4007 0,-0.529167 -0.14034,-0.93658 -0.6695,-0.93658 -0.52917,0 -0.65342,0.407413 -0.65342,0.93658 0,0.485069 -0.13811,0.407566 -0.52617,0.407566 -0.35277,0 -0.76031,0.152743 -0.76031,0.505521 0,0.352777 0.40754,0.552812 0.76031,0.552812 0.35278,0 0.52133,0.06955 0.52133,0.422325 0,0.388055 0.19154,0.853243 0.67661,0.853243 0.48507,0 0.64631,-0.465188 0.64631,-0.853243 z m -8.8006,1.65192 c -0.56016,-0.326262 -0.61403,-1.037141 -0.0786,-1.037141 0.66241,0 1.73224,0.598149 1.73224,0.968512 0,0.415356 -0.98796,0.456358 -1.65365,0.06863 z m 1.04777,-1.207514 c -0.95956,-0.50276 -1.01385,-1.822403 -0.0923,-2.242308 0.88325,-0.402436 2.28564,0.331667 2.28564,1.196454 0,1.081598 -1.11262,1.612121 -2.19338,1.045854 z m 3.24285,0.07642 c -0.50973,-0.259443 -0.63377,-0.501994 -0.56659,-1.10795 0.0791,-0.713336 0.42429,-1.165206 0.89787,-1.175298 0.10458,-0.0022 0.12218,0.173052 0.0391,0.389513 -0.0831,0.21646 -0.0193,0.771548 0.14179,1.233529 0.35734,1.025059 0.31412,1.080773 -0.51218,0.660206 z m -5.80224,-0.879812 c -0.99433,-1.264085 -0.55325,-2.304978 0.64425,-1.520345 0.44981,0.294723 0.66893,0.679073 0.66893,1.173313 0,1.012483 -0.65382,1.185269 -1.31318,0.347032 z m 4.02516,-1.850512 c -0.43613,-0.30423 -0.59531,-0.678271 -0.59531,-1.398861 0,-1.248147 0.94006,-1.820482 2.16009,-1.315128 0.64045,0.265281 0.75033,0.460087 0.75033,1.330235 0,0.861294 -0.1211,1.082061 -0.78061,1.423109 -0.92013,0.475814 -0.79123,0.47912 -1.5345,-0.03936 z m -3.30729,-0.189871 c -0.70417,-0.534541 -0.60205,-1.909646 0.17987,-2.421978 0.59052,-0.386923 0.69829,-0.384941 1.32292,0.02433 0.87751,0.574965 0.92425,1.771144 0.092,2.354082 -0.70873,0.496414 -0.98817,0.504047 -1.59478,0.04357 z m -1.9319,-0.518006 c -0.231,-0.920374 -0.0511,-1.627223 0.41417,-1.627223 0.28101,0 0.39325,0.295775 0.39325,1.036284 0,1.180678 -0.55708,1.588393 -0.80742,0.590939 z m 8.08346,-0.967894 c 0,-0.633775 1.32443,-1.382314 1.86007,-1.05127 0.42862,0.264901 0.44684,0.24397 -0.86788,0.996674 -0.96331,0.551511 -0.99219,0.5531 -0.99219,0.0546 z m -7.32857,-1.494572 c -0.23971,-0.624662 0.49275,-1.795218 1.18585,-1.895138 0.49451,-0.07129 0.58647,0.04045 0.58647,0.712601 0,0.523815 -0.20163,0.938378 -0.58803,1.209027 -0.74724,0.523385 -0.97524,0.518285 -1.18429,-0.02649 z m 2.67829,0.02593 c -0.803,-0.562409 -0.56293,-1.827517 0.4244,-2.236485 1.15121,-0.476845 1.84463,-0.132309 1.84463,0.916529 0,0.640997 -0.17592,0.99305 -0.65215,1.305087 -0.78011,0.511152 -0.90663,0.512315 -1.61688,0.01487 z m 3.5258,-0.05276 c -1.64135,-1.017646 -0.43299,-2.935358 1.37714,-2.185574 0.66181,0.27413 0.80568,0.485764 0.80568,1.185193 0,0.655675 -0.15497,0.92208 -0.67391,1.158526 -0.80789,0.368098 -0.63007,0.386735 -1.50891,-0.158145 z m 3.15873,-0.0089 c -0.6426,-0.710065 -0.59469,-1.907192 0.0763,-1.907192 0.61809,0 1.41158,1.095689 1.28174,1.76989 -0.12657,0.657236 -0.82374,0.72772 -1.35806,0.137301 z m -7.74927,-2.479209 c -0.23538,-0.380844 0.82607,-1.280066 1.511,-1.280066 0.76702,0 0.59348,0.731748 -0.28075,1.18383 -0.93682,0.484448 -0.98786,0.48844 -1.23025,0.09624 z m 6.17804,-0.108485 c -0.83192,-0.451325 -0.97193,-1.171581 -0.22775,-1.171581 0.68493,0 1.74638,0.899222 1.51101,1.280066 -0.24052,0.389173 -0.38908,0.376615 -1.28326,-0.108485 z m -3.30729,-0.121493 c -1.09189,-0.438888 -0.47828,-1.314672 0.92112,-1.314672 1.06252,0 1.46727,0.68609 0.72495,1.228886 -0.55896,0.408719 -0.81009,0.421807 -1.64607,0.08579 z"
       id="path337"
       sodipodi:nodetypes="cscscccssccccccssssssssssssscssccccscccccccccccsccscsccccssccccsscsscsscssccccscccsscccsscccssccsssscsscc" /></g></svg>
