<svg xmlns="http://www.w3.org/2000/svg" width="154" height="172"><path fill="#010101" d="m59 .63 3.63.4c5.1 1.46 7.32 4.25 10.03 8.68 1.62 3.97 1.45 6.42.98 10.66l-.22 2.06c-.23 2.15-.48 4.3-.73 6.45l-.48 4.4c-.38 3.57-.8 7.14-1.21 10.72l23 2 .38-7.63A707 707 0 0 1 95 29l.15-2.07c1.02-12.91 1.02-12.91 6.1-17.72 6.19-4.28 12.61-3.38 19.68-2.1 4.34 1.26 7.47 3.15 10.07 6.89 2.83 5.74 1.84 11.29 1.19 17.44l-.3 3.06c-.5 5.19-1.1 10.35-1.89 15.5l2.56.2c6.93.74 11.94 1.66 16.9 6.75 3.22 4.3 4.68 8.28 4.4 13.67-.82 5.06-2 8.83-5.86 12.38-5.2 3.57-9.48 5.34-15.76 4.68l-2.9-.3-3.15-.34-3.33-.34-10.94-1.16a22457.1 22457.1 0 0 0-23.54-2.48c-6.13-.66-12.27-1.3-18.4-1.94a10385.72 10385.72 0 0 1-35.78-3.78c-1.04-.1-2.07-.2-3.14-.32C16.26 75.41 16.26 75.41 11 70c-3.46-4.88-4.72-9.58-4.45-15.54.9-4.92 3.24-8.64 7.1-11.8C20.54 38.3 27.31 38.91 35 40l-.05-3.9c0-4.92.32-9.77.8-14.66l.19-2.42C36.48 13.46 37.77 8.64 41 4 46.88.12 52.14-.25 59 .62Z"/><path fill="#020202" d="m33.91 81.62 2.85.52 9.3 1.73 13.4 2.47L63 87a2066.5 2066.5 0 0 0 30.66 5.4c7.65 1.32 7.65 1.32 15.31 2.62l10.65 1.83 3.18.53c8.18 1.42 14.66 3 20.21 9.63 2.83 4.5 3.55 7.72 3 13-1.35 5.5-3.33 9.6-8 13-7.4 3.18-13.36 3.3-21 1l-.33 2.79c-3.4 27.16-3.4 27.16-10.1 33.52-6.3 2.98-13.42 2.68-20 .5-4.48-2.27-7.42-4.6-9.75-9.09-1-3.33-.71-5.48-.13-8.9l.6-3.68c.1-.66.22-1.32.34-2 .4-2.35.8-4.7 1.18-7.06L81 127l-3.25-.4-4.31-.54-2.14-.26c-4.44-.55-8.87-1.15-13.3-1.8l-.33 2.97A628.6 628.6 0 0 1 56 140l-.28 2.13C54 154.9 54 154.9 49.44 158.88 44.58 162.2 40.8 162.49 35 162c-5.79-1.16-10.8-2.67-15-7-4.6-7.81-1.27-17.77.5-26.06l.72-3.5L23 117l-2.07-.16-2.72-.23-2.7-.21c-3.59-.57-5.74-2.1-8.51-4.4l-2.19-1.69c-3.27-4.17-4.93-8.6-4.69-13.94C.97 91.33 2.1 87.49 6 84c8.63-6.05 18.11-4.26 27.91-2.38Z"/><path fill="#B1B1B1" d="m52.12 10.54 2.32.09 2.3.03c2.44.37 4.14 1.13 6.26 2.34.1 5.3-.03 10.34-.77 15.6-.32 3.36-.42 6.71-.48 10.09l-.08 3.82c.35 3.74 1.03 5.56 3.33 8.49 7.38 4.05 14.93 4.1 23.19 4.25l2.09.07c4.43.02 7.25-.5 10.72-3.32 1.95-3.16 2.4-5.98 2.78-9.65l.36-3.3a496874031.48 496874031.48 0 0 0 1.08-10.14l.3-3c.51-3.12 1.4-5.94 2.48-8.91 5.22-.18 9.07.03 14 2 .1 5.16.03 10.23-.5 15.38-.39 4-.65 7.97-.75 12l-.08 2.9c.5 4.13 2.2 6.79 5.4 9.4a30.34 30.34 0 0 0 8 2.26c3.12.58 4.84 1 7.56 2.75C143.6 67 143.53 69.2 143 73c-1.5 2.23-1.5 2.23-4 4-2.95.2-5.45.16-8.36-.11l-2.53-.19c-2.7-.2-5.4-.45-8.11-.7l-2.65-.24c-6.53-.6-13.04-1.28-19.56-1.97a26840.87 26840.87 0 0 0-19.05-2.03 6644.6 6644.6 0 0 0-16.46-1.74 6722.25 6722.25 0 0 1-18.82-1.99l-8.45-.9-2.5-.26c-11.1-1.22-11.1-1.22-14.45-5.12-1.33-3.45-1.2-5.24-.06-8.75 3.42-3.54 6.68-3.39 11.44-3.5 5.08-.12 8.51-.27 12.56-3.5 2.08-3.3 2.4-6.31 2.75-10.16l.35-3.6.67-7.49.35-3.6.3-3.28c.75-3.69 1.82-6.49 5.7-7.33ZM24 90l1 1a181.91 181.91 0 0 0 8.55 1.57l6.83 1.16a9424.73 9424.73 0 0 1 17.6 3.02 9347.98 9347.98 0 0 1 62.38 10.85c1.91.33 3.82.68 5.73 1.03l3.26.59c2.79.82 3.91 1.48 5.65 3.78a11.79 11.79 0 0 1 .38 7.69c-1.8 3.03-3.01 3.32-6.38 4.31-3.82.06-7.6-.13-11.4-.32-4.4.4-5.75.95-8.6 4.32-3.2 7.5-4.19 15.87-5.55 23.85l-.49 2.71-.41 2.44c-.55 2-.55 2-2.55 4-2.53.05-2.53.05-5.5-.25l-2.97-.27C89 161 89 161 87 159c-.34-4.97.37-9.3 1.5-14.13 1.47-6.82 2.73-13.92 1.5-20.87-2.51-3.81-4.3-5.58-8.83-6.6L79 117l-2.7-.56c-12.36-2.67-12.36-2.67-24.05.24-2.62 2.7-3.13 4.22-3.81 7.88l-.68 3.42-.36 1.9c-.62 3.29-1.33 6.55-2.03 9.82-.8 3.76-1.59 7.53-2.37 11.3-5.48 1.12-8.71.55-14-1-1.58-5.91-.27-11.02.94-16.88 2.82-11.19 2.82-11.19.5-22-3.07-2.67-5.55-3.29-9.5-4.18-6.48-1.48-6.48-1.48-8.85-3.84-1.66-3.2-1.53-5.57-1.09-9.1 3-5.08 7.67-4.66 13-4Z"/></svg>