<?xml version="1.0" encoding="UTF-8" standalone="no"?>
<!-- Created with Inkscape (http://www.inkscape.org/) -->

<svg
   width="9.7509995mm"
   height="9.7561235mm"
   viewBox="0 0 9.7509995 9.7561235"
   version="1.1"
   id="svg3786"
   xml:space="preserve"
   inkscape:version="1.2.2 (b0a8486541, 2022-12-01)"
   sodipodi:docname="ccug-experiment.svg"
   xmlns:inkscape="http://www.inkscape.org/namespaces/inkscape"
   xmlns:sodipodi="http://sodipodi.sourceforge.net/DTD/sodipodi-0.dtd"
   xmlns="http://www.w3.org/2000/svg"
   xmlns:svg="http://www.w3.org/2000/svg"><sodipodi:namedview
     id="namedview3788"
     pagecolor="#ffffff"
     bordercolor="#000000"
     borderopacity="0.25"
     inkscape:showpageshadow="2"
     inkscape:pageopacity="0.0"
     inkscape:pagecheckerboard="0"
     inkscape:deskcolor="#d1d1d1"
     inkscape:document-units="mm"
     showgrid="false"
     inkscape:zoom="44.756452"
     inkscape:cx="15.651375"
     inkscape:cy="30.375509"
     inkscape:window-width="1854"
     inkscape:window-height="1011"
     inkscape:window-x="0"
     inkscape:window-y="0"
     inkscape:window-maximized="1"
     inkscape:current-layer="layer1" /><defs
     id="defs3783" /><g
     inkscape:label="Layer 1"
     inkscape:groupmode="layer"
     id="layer1"
     transform="translate(-140.25475,-123.93445)"><path
       style="opacity:1;fill:#000000;fill-opacity:1;stroke-width:0.264583"
       d="m 143.27986,133.32855 c -1.03855,-0.45772 -2.08866,-1.53538 -2.65112,-2.72069 -0.99223,-2.09097 0.13853,-5.08094 2.32111,-6.1375 2.55944,-1.23901 5.48087,-0.2626 6.77998,2.26603 0.41591,0.80955 0.37031,3.40833 -0.0748,4.26387 -1.15426,2.21846 -4.14558,3.31093 -6.37514,2.32829 z m 4.68253,-5.83299 c 1.39305,0.37324 1.22801,-0.21439 -0.0111,-1.46344 -0.9779,-1.04306 -2.04396,-1.02241 -1.26084,-0.0166 -0.0372,0.0851 -4.29816,4.05247 -4.74901,4.92716 0,0.34214 0.62934,1.07528 1.04716,1.07528 0.47609,-0.23892 4.97382,-4.52244 4.97382,-4.52244 z m -5.64993,3.33115 c 0.32191,-0.37549 2.00311,-2.12624 2.58206,-2.5676 0.77289,0.14972 1.82146,-0.17667 0.99619,0.82071 -0.98337,0.73417 -2.07412,2.07884 -2.73907,2.45525 -0.32401,0.47656 -1.02924,-0.3514 -0.83918,-0.70836 z"
       id="path4284"
       sodipodi:nodetypes="ccccccccccccccccccc" /></g></svg>
