<?xml version="1.0" encoding="UTF-8"?>
<svg version="1.1" xmlns="http://www.w3.org/2000/svg" width="360" height="360">
<path d="M0 0 C3.35801383 1.56163629 4.7928225 2.74211916 6.70703125 5.9453125 C7.45134399 7.17096924 7.45134399 7.17096924 8.21069336 8.42138672 C8.73928955 9.3135791 9.26788574 10.20577148 9.8125 11.125 C10.97573027 13.04737883 12.13982627 14.96923401 13.3046875 16.890625 C13.91022461 17.89544922 14.51576172 18.90027344 15.13964844 19.93554688 C18.18377008 24.94995827 21.31514819 29.90908221 24.4375 34.875 C29.62544261 43.16177627 34.77443893 51.47163673 39.875 59.8125 C40.47626709 60.79138184 41.07753418 61.77026367 41.69702148 62.77880859 C42.24817627 63.68324707 42.79933105 64.58768555 43.3671875 65.51953125 C44.09591064 66.71219604 44.09591064 66.71219604 44.83935547 67.92895508 C46 70 46 70 47 73 C51.41359526 69.71073524 55.68975 66.30638732 59.796875 62.640625 C60.45872803 62.05240967 61.12058105 61.46419434 61.80249023 60.8581543 C63.1324236 59.67005033 64.45501984 58.47367709 65.76977539 57.26879883 C66.38844482 56.71732178 67.00711426 56.16584473 67.64453125 55.59765625 C68.19471924 55.09758057 68.74490723 54.59750488 69.31176758 54.08227539 C71 53 71 53 75 53 C81.42268853 64.28504522 87.81092769 75.58480771 94 87 C99.11249436 96.42400319 104.36213028 105.7646951 109.65234375 115.08984375 C113.1024199 121.17279281 116.52302216 127.27201308 119.9375 133.375 C120.51870605 134.41374268 121.09991211 135.45248535 121.69873047 136.52270508 C122.87723897 138.62932568 124.05562416 140.73601527 125.23388672 142.84277344 C128.15398137 148.06293711 131.07713566 153.28138679 134 158.5 C135.16668154 160.58332501 136.3333482 162.66665834 137.5 164.75 C138.36625 166.296875 138.36625 166.296875 139.25 167.875 C144.5 177.25 144.5 177.25 146.25073242 180.37646484 C147.41477919 182.45501534 148.5790038 184.53346624 149.7434082 186.61181641 C152.70164262 191.89251525 155.65654813 197.17503115 158.60546875 202.4609375 C159.79927541 204.59907211 160.99328365 206.73709419 162.1875 208.875 C163.05012451 210.42006226 163.05012451 210.42006226 163.93017578 211.99633789 C168.12991303 219.49809014 172.41388258 226.94774095 176.80151367 234.34130859 C180 239.78499736 180 239.78499736 180 242 C61.2 242 -57.6 242 -180 242 C-177.81025469 236.52563671 -175.26123435 231.33163063 -172.625 226.0625 C-172.09406738 224.99999023 -171.56313477 223.93748047 -171.01611328 222.84277344 C-166.97014496 214.80330441 -162.71746257 206.89586914 -158.36621094 199.01855469 C-154.61307742 192.19802718 -151.08813553 185.28677833 -147.63696289 178.30957031 C-142.22404895 167.37817714 -136.49447042 156.61774612 -130.703125 145.8828125 C-122.36263328 130.40830096 -114.24037959 114.836705 -106.25805664 99.17431641 C-105.86399124 98.40245499 -105.46992584 97.63059357 -105.06391907 96.83534241 C-104.32555191 95.38860843 -103.58870143 93.94109895 -102.85368347 92.49266052 C-101.02564824 88.91124048 -99.11816489 85.41832252 -97 82 C-89.46791012 85.23046744 -83.9212317 92.88595237 -78.80078125 99.078125 C-77.23062697 100.75386449 -75.65478678 102.16345129 -73.88745117 103.62011719 C-72.93459229 104.40547852 -71.9817334 105.19083984 -71 106 C-54.83622839 82.14952072 -38.77698555 58.23676437 -22.9855957 34.13769531 C-15.4597389 22.66319129 -7.79404552 11.2941268 0 0 Z M0 11 C-1.36884756 12.59115166 -1.36884756 12.59115166 -2.73046875 14.70922852 C-3.27864258 15.52170547 -3.82681641 16.33418243 -4.39160156 17.17127991 C-4.98424805 18.0647966 -5.57689453 18.95831329 -6.1875 19.87890625 C-6.80463867 20.79776108 -7.42177734 21.71661591 -8.05761719 22.66331482 C-10.04487131 25.62544035 -12.02250461 28.59385296 -14 31.5625 C-15.30276147 33.50757951 -16.60613983 35.45224599 -17.91015625 37.39648438 C-21.61553663 42.92515927 -25.30896869 48.46173922 -29 54 C-29.93797947 55.40598465 -30.87604093 56.81191462 -31.81420898 58.21777344 C-35.43462927 63.64422245 -39.04985954 69.07411121 -42.66204834 74.50604248 C-57.00526049 96.07381745 -71.47461071 117.55454758 -86 139 C-92.88909813 128.6663528 -95.2460928 110.79023152 -93.33203125 98.63671875 C-92.97800387 95.82532483 -93.29909321 93.72906259 -94 91 C-97.09859959 93.65173714 -98.60775135 96.80043702 -100.44140625 100.40625 C-100.76504654 101.0383136 -101.08868683 101.6703772 -101.4221344 102.32159424 C-102.47409102 104.37847037 -103.51818988 106.43923279 -104.5625 108.5 C-105.2914743 109.92775658 -106.02113307 111.35516388 -106.75146484 112.78222656 C-107.84029644 114.90980131 -108.92882075 117.03752264 -110.01525879 119.1663208 C-112.67792995 124.38261334 -115.38220097 129.57535028 -118.125 134.75 C-122.69571096 143.39315141 -127.1942606 152.07312625 -131.69018555 160.75537109 C-135.42620196 167.96880714 -139.1750789 175.1753053 -142.9375 182.375 C-147.25049607 190.63360229 -151.54922692 198.89951862 -155.83377075 207.1729126 C-156.47167855 208.40449174 -157.10990747 209.63590463 -157.74850464 210.86712646 C-162.24606371 219.54005653 -166.63021115 228.26042229 -171 237 C-95.43 237 -19.86 237 58 237 C56.54748552 232.64245656 55.05279141 228.74154284 53.13671875 224.60546875 C52.86285843 224.01381424 52.58899811 223.42215973 52.30683899 222.81257629 C51.72934529 221.56726356 51.15023373 220.32269991 50.56958008 219.07885742 C49.6957569 217.20520445 48.82898511 215.32840766 47.96289062 213.45117188 C45.57288301 208.30163962 43.19271251 203.22324723 40.25390625 198.359375 C37.32709187 193.23403135 36.34068619 187.81239264 35.25 182.0625 C34.84052727 180.01132137 34.42916587 177.96051857 34.015625 175.91015625 C33.84321289 175.01433838 33.67080078 174.11852051 33.49316406 173.19555664 C33.08604909 170.97183135 33.08604909 170.97183135 32 169 C28.04093183 170.43308135 24.71281819 172.33141949 21.1875 174.625 C20.21167969 175.25664062 19.23585937 175.88828125 18.23046875 176.5390625 C17.12638672 177.26222656 17.12638672 177.26222656 16 178 C13.20727731 175.20727731 14.6894021 166.92901839 14.67651367 163.17504883 C14.75458353 155.93005509 15.70423755 150.15032716 17.91015625 143.2578125 C20.70489009 133.56841865 21.01350344 123.00248416 22 113 C14.97481339 113.67353124 8.3255596 115.30304056 1.5 117.0625 C0.39140625 117.34416016 -0.7171875 117.62582031 -1.859375 117.91601562 C-4.5740437 118.60638396 -7.28750638 119.30114375 -10 120 C-9.41475559 114.2245617 -7.82538172 109.27982388 -5.75 103.875 C-5.46253906 103.10929687 -5.17507812 102.34359375 -4.87890625 101.5546875 C-4.58371094 100.7709375 -4.28851563 99.9871875 -3.984375 99.1796875 C-3.52248779 97.94690063 -3.52248779 97.94690063 -3.05126953 96.68920898 C-2.29724309 94.76036521 -1.49550679 92.84991399 -0.66357422 90.95336914 C2.74330464 82.92632686 3.65809918 76.35921163 3.375 67.6875 C3.35501953 66.4401709 3.33503906 65.1928418 3.31445312 63.90771484 C3.25649467 60.39750465 3.16353737 56.88895635 3.06433105 53.37969971 C2.97032855 49.90240987 2.895557 46.42475291 2.81924438 42.94703674 C2.58513673 32.29688273 2.3058645 21.64831464 2 11 C1.34 11 0.68 11 0 11 Z M64.25 67.75 C60.22243335 71.24278601 56.19222867 74.7038202 52 78 C52.57809672 82.20768412 54.01036025 85.0243605 56.2734375 88.59765625 C56.9334375 89.64630859 57.5934375 90.69496094 58.2734375 91.77539062 C58.96695313 92.86013672 59.66046875 93.94488281 60.375 95.0625 C61.06078125 96.15111328 61.7465625 97.23972656 62.453125 98.36132812 C66.53149163 104.81514287 66.53149163 104.81514287 71 111 C71.99 108.03 72.98 105.06 74 102 C78.455 103.98 78.455 103.98 83 106 C82.10033626 102.40134504 80.82342128 99.78980819 79.06689453 96.56713867 C74.22476939 87.4366031 73.26871512 80.18662656 73.9140625 69.94921875 C73.99130698 66.39948371 73.99395685 64.83872483 72 62 C69.45768543 62 66.21589189 66.03879855 64.25 67.75 Z " fill="#000000" transform="translate(180,59)"/>
</svg>
