<?xml version="1.0" encoding="UTF-8"?>
<svg version="1.1" xmlns="http://www.w3.org/2000/svg" width="364" height="364">
<path d="M0 0 C3.35801383 1.56163629 4.7928225 2.74211916 6.70703125 5.9453125 C7.45134399 7.17096924 7.45134399 7.17096924 8.21069336 8.42138672 C8.73928955 9.3135791 9.26788574 10.20577148 9.8125 11.125 C10.97573027 13.04737883 12.13982627 14.96923401 13.3046875 16.890625 C13.91022461 17.89544922 14.51576172 18.90027344 15.13964844 19.93554688 C18.18377008 24.94995827 21.31514819 29.90908221 24.4375 34.875 C29.62544261 43.16177627 34.77443893 51.47163673 39.875 59.8125 C40.47626709 60.79138184 41.07753418 61.77026367 41.69702148 62.77880859 C42.24817627 63.68324707 42.79933105 64.58768555 43.3671875 65.51953125 C44.09591064 66.71219604 44.09591064 66.71219604 44.83935547 67.92895508 C46 70 46 70 47 73 C51.41359526 69.71073524 55.68975 66.30638732 59.796875 62.640625 C60.45872803 62.05240967 61.12058105 61.46419434 61.80249023 60.8581543 C63.1324236 59.67005033 64.45501984 58.47367709 65.76977539 57.26879883 C66.38844482 56.71732178 67.00711426 56.16584473 67.64453125 55.59765625 C68.19471924 55.09758057 68.74490723 54.59750488 69.31176758 54.08227539 C71 53 71 53 75 53 C77.06306376 56.64551459 79.12534659 60.29147039 81.1875 63.9375 C81.76564453 64.95908203 82.34378906 65.98066406 82.93945312 67.03320312 C84.08616907 69.06101155 85.23056227 71.09013535 86.37255859 73.12060547 C87.40593423 74.94893314 88.44939793 76.77162426 89.50634766 78.58642578 C89.95413574 79.36356934 90.40192383 80.14071289 90.86328125 80.94140625 C91.4497644 81.94409546 91.4497644 81.94409546 92.0480957 82.96704102 C94.21624161 87.59749778 94.18573451 92.41120888 94.3515625 97.453125 C94.37471527 98.15395203 94.39786804 98.85477905 94.42172241 99.57684326 C94.4691234 101.04920952 94.51438444 102.52164608 94.55761719 103.99414062 C94.62520285 106.25679107 94.70283412 108.5189519 94.78125 110.78125 C94.82612482 112.21352287 94.87041644 113.64581416 94.9140625 115.078125 C94.9752124 117.03347168 94.9752124 117.03347168 95.03759766 119.02832031 C95 122 95 122 94 123 C92.61839885 123.0927833 91.23211962 123.11747043 89.84741211 123.11352539 C88.95421265 123.11340454 88.06101318 123.11328369 87.14074707 123.11315918 C86.19582397 123.10804321 85.25090088 123.10292725 84.27734375 123.09765625 C83.41338989 123.09664917 82.54943604 123.09564209 81.65930176 123.09460449 C78.41868775 123.0893555 75.1780926 123.07539436 71.9375 123.0625 C64.698125 123.041875 57.45875 123.02125 50 123 C50 139.83 50 156.66 50 174 C52.64 173.67 55.28 173.34 58 173 C59.40293734 172.92755315 60.80809294 172.88145747 62.21289062 172.88647461 C63.29310486 172.88658791 63.29310486 172.88658791 64.3951416 172.88670349 C65.14130737 172.89186478 65.88747314 172.89702606 66.65625 172.90234375 C67.44398804 172.9037587 68.23172607 172.90517365 69.04333496 172.90663147 C71.52893064 172.91217388 74.01443211 172.92471515 76.5 172.9375 C78.19791535 172.94252246 79.89583214 172.94708405 81.59375 172.95117188 C85.72920229 172.96212436 89.86458524 172.97934834 94 173 C94.94205985 175.82617956 95.09846177 177.38050418 95.02172852 180.2878418 C94.99109314 181.59682434 94.99109314 181.59682434 94.95983887 182.93225098 C94.91977722 184.30190002 94.91977722 184.30190002 94.87890625 185.69921875 C94.84790833 186.96264099 94.84790833 186.96264099 94.81628418 188.25158691 C94.73753821 191.39704314 94.64945831 194.5422601 94.5625 197.6875 C94.376875 204.720625 94.19125 211.75375 94 219 C109.84 219 125.68 219 142 219 C142 205.14 142 191.28 142 177 C145.87882923 178.29294308 146.16212891 179.58001954 148.08203125 183.125 C148.97547241 184.75610718 148.97547241 184.75610718 149.88696289 186.42016602 C150.52884849 187.61342255 151.1706932 188.80670108 151.8125 190 C152.47738313 191.21924241 153.14333073 192.43790489 153.81030273 193.65600586 C155.19021877 196.17745556 156.56613776 198.70102391 157.93945312 201.22607422 C161.1018268 207.03015055 164.33187325 212.79618398 167.5625 218.5625 C168.12106689 219.56474609 168.67963379 220.56699219 169.25512695 221.59960938 C172.3583847 227.15010616 175.5543119 232.61944075 178.91381836 238.01928711 C180 240 180 240 180 242 C61.2 242 -57.6 242 -180 242 C-177.81025469 236.52563671 -175.26123435 231.33163063 -172.625 226.0625 C-172.09406738 224.99999023 -171.56313477 223.93748047 -171.01611328 222.84277344 C-166.97014496 214.80330441 -162.71746257 206.89586914 -158.36621094 199.01855469 C-154.61307742 192.19802718 -151.08813553 185.28677833 -147.63696289 178.30957031 C-142.22404895 167.37817714 -136.49447042 156.61774612 -130.703125 145.8828125 C-122.36263328 130.40830096 -114.24037959 114.836705 -106.25805664 99.17431641 C-105.86399124 98.40245499 -105.46992584 97.63059357 -105.06391907 96.83534241 C-104.32555191 95.38860843 -103.58870143 93.94109895 -102.85368347 92.49266052 C-101.02564824 88.91124048 -99.11816489 85.41832252 -97 82 C-89.46791012 85.23046744 -83.9212317 92.88595237 -78.80078125 99.078125 C-77.23062697 100.75386449 -75.65478678 102.16345129 -73.88745117 103.62011719 C-72.93459229 104.40547852 -71.9817334 105.19083984 -71 106 C-54.83622839 82.14952072 -38.77698555 58.23676437 -22.9855957 34.13769531 C-15.4597389 22.66319129 -7.79404552 11.2941268 0 0 Z M0 11 C-1.36884756 12.59115166 -1.36884756 12.59115166 -2.73046875 14.70922852 C-3.27864258 15.52170547 -3.82681641 16.33418243 -4.39160156 17.17127991 C-4.98424805 18.0647966 -5.57689453 18.95831329 -6.1875 19.87890625 C-6.80463867 20.79776108 -7.42177734 21.71661591 -8.05761719 22.66331482 C-10.04487131 25.62544035 -12.02250461 28.59385296 -14 31.5625 C-15.30276147 33.50757951 -16.60613983 35.45224599 -17.91015625 37.39648438 C-21.61553663 42.92515927 -25.30896869 48.46173922 -29 54 C-29.93797947 55.40598465 -30.87604093 56.81191462 -31.81420898 58.21777344 C-35.43462927 63.64422245 -39.04985954 69.07411121 -42.66204834 74.50604248 C-57.00526049 96.07381745 -71.47461071 117.55454758 -86 139 C-92.88909813 128.6663528 -95.2460928 110.79023152 -93.33203125 98.63671875 C-92.97800387 95.82532483 -93.29909321 93.72906259 -94 91 C-97.09859959 93.65173714 -98.60775135 96.80043702 -100.44140625 100.40625 C-100.76504654 101.0383136 -101.08868683 101.6703772 -101.4221344 102.32159424 C-102.47409102 104.37847037 -103.51818988 106.43923279 -104.5625 108.5 C-105.2914743 109.92775658 -106.02113307 111.35516388 -106.75146484 112.78222656 C-107.84029644 114.90980131 -108.92882075 117.03752264 -110.01525879 119.1663208 C-112.67792995 124.38261334 -115.38220097 129.57535028 -118.125 134.75 C-122.69571096 143.39315141 -127.1942606 152.07312625 -131.69018555 160.75537109 C-135.42620196 167.96880714 -139.1750789 175.1753053 -142.9375 182.375 C-147.25049607 190.63360229 -151.54922692 198.89951862 -155.83377075 207.1729126 C-156.47167855 208.40449174 -157.10990747 209.63590463 -157.74850464 210.86712646 C-162.24606371 219.54005653 -166.63021115 228.26042229 -171 237 C-95.43 237 -19.86 237 58 237 C56.54748552 232.64245656 55.05279141 228.74154284 53.13671875 224.60546875 C52.86285843 224.01381424 52.58899811 223.42215973 52.30683899 222.81257629 C51.72934529 221.56726356 51.15023373 220.32269991 50.56958008 219.07885742 C49.6957569 217.20520445 48.82898511 215.32840766 47.96289062 213.45117188 C45.57288301 208.30163962 43.19271251 203.22324723 40.25390625 198.359375 C37.32709187 193.23403135 36.34068619 187.81239264 35.25 182.0625 C34.84052727 180.01132137 34.42916587 177.96051857 34.015625 175.91015625 C33.84321289 175.01433838 33.67080078 174.11852051 33.49316406 173.19555664 C33.08604909 170.97183135 33.08604909 170.97183135 32 169 C28.04093183 170.43308135 24.71281819 172.33141949 21.1875 174.625 C20.21167969 175.25664062 19.23585937 175.88828125 18.23046875 176.5390625 C17.12638672 177.26222656 17.12638672 177.26222656 16 178 C13.20727731 175.20727731 14.6894021 166.92901839 14.67651367 163.17504883 C14.75458353 155.93005509 15.70423755 150.15032716 17.91015625 143.2578125 C20.70489009 133.56841865 21.01350344 123.00248416 22 113 C14.97481339 113.67353124 8.3255596 115.30304056 1.5 117.0625 C0.39140625 117.34416016 -0.7171875 117.62582031 -1.859375 117.91601562 C-4.5740437 118.60638396 -7.28750638 119.30114375 -10 120 C-9.41475559 114.2245617 -7.82538172 109.27982388 -5.75 103.875 C-5.46253906 103.10929687 -5.17507812 102.34359375 -4.87890625 101.5546875 C-4.58371094 100.7709375 -4.28851563 99.9871875 -3.984375 99.1796875 C-3.52248779 97.94690063 -3.52248779 97.94690063 -3.05126953 96.68920898 C-2.29724309 94.76036521 -1.49550679 92.84991399 -0.66357422 90.95336914 C2.74330464 82.92632686 3.65809918 76.35921163 3.375 67.6875 C3.35501953 66.4401709 3.33503906 65.1928418 3.31445312 63.90771484 C3.25649467 60.39750465 3.16353737 56.88895635 3.06433105 53.37969971 C2.97032855 49.90240987 2.895557 46.42475291 2.81924438 42.94703674 C2.58513673 32.29688273 2.3058645 21.64831464 2 11 C1.34 11 0.68 11 0 11 Z M64.25 67.75 C60.22243335 71.24278601 56.19222867 74.7038202 52 78 C52.57809672 82.20768412 54.01036025 85.0243605 56.2734375 88.59765625 C56.9334375 89.64630859 57.5934375 90.69496094 58.2734375 91.77539062 C58.96695313 92.86013672 59.66046875 93.94488281 60.375 95.0625 C61.06078125 96.15111328 61.7465625 97.23972656 62.453125 98.36132812 C66.53149163 104.81514287 66.53149163 104.81514287 71 111 C71.99 108.03 72.98 105.06 74 102 C78.455 103.98 78.455 103.98 83 106 C82.10033626 102.40134504 80.82342128 99.78980819 79.06689453 96.56713867 C74.22476939 87.4366031 73.26871512 80.18662656 73.9140625 69.94921875 C73.99130698 66.39948371 73.99395685 64.83872483 72 62 C69.45768543 62 66.21589189 66.03879855 64.25 67.75 Z " fill="#000000" transform="translate(180,61)"/>
<path d="M0 0 C13.86 0 27.72 0 42 0 C42 15.84 42 31.68 42 48 C56.52 48 71.04 48 86 48 C86 62.85 86 77.7 86 93 C71.48 93 56.96 93 42 93 C42 108.18 42 123.36 42 139 C27.81 139 13.62 139 -1 139 C-1 123.82 -1 108.64 -1 93 C-15.52 93 -30.04 93 -45 93 C-45.68599885 89.57000574 -46.12418906 87.11955332 -46.11352539 83.76049805 C-46.11340454 82.94899292 -46.11328369 82.13748779 -46.11315918 81.3013916 C-46.10804321 80.46329956 -46.10292725 79.62520752 -46.09765625 78.76171875 C-46.09664917 77.98042603 -46.09564209 77.1991333 -46.09460449 76.39416504 C-46.08939553 73.4919283 -46.07543433 70.58971259 -46.0625 67.6875 C-46.041875 61.190625 -46.02125 54.69375 -46 48 C-31.15 48 -16.3 48 -1 48 C-1.03954545 33.69968806 -1.03954545 33.69968806 -1.09008789 19.39941406 C-1.09300888 17.60481831 -1.09555701 15.8102219 -1.09765625 14.015625 C-1.10277222 13.0860498 -1.10788818 12.15647461 -1.11315918 11.19873047 C-1.11334045 9.8594751 -1.11334045 9.8594751 -1.11352539 8.49316406 C-1.115746 7.72039124 -1.11796661 6.94761841 -1.12025452 6.15142822 C-1 4 -1 4 0 0 Z M7 8 C7 23.51 7 39.02 7 55 C-7.85 55 -22.7 55 -38 55 C-38 64.57 -38 74.14 -38 84 C-32.55573194 84.16613964 -27.11159797 84.32869335 -21.66699219 84.48217773 C-19.81634471 84.53541864 -17.96575564 84.59073291 -16.11523438 84.64819336 C-13.44934681 84.73060655 -10.78333551 84.80546525 -8.1171875 84.87890625 C-7.29507782 84.90594131 -6.47296814 84.93297638 -5.62594604 84.96083069 C-4.8455899 84.98092697 -4.06523376 85.00102325 -3.26123047 85.02172852 C-2.58172333 85.04171402 -1.90221619 85.06169952 -1.20211792 85.08229065 C1.55369703 84.97930897 4.27978357 84.45336941 7 84 C7 99.84 7 115.68 7 132 C15.91 132 24.82 132 34 132 C34.33 116.16 34.66 100.32 35 84 C49.19 84 63.38 84 78 84 C78 74.76 78 65.52 78 56 C63.6550246 54.75261083 49.39961871 54.9311023 35 55 C35 39.16 35 23.32 35 7 C20.86057617 6.36744548 20.86057617 6.36744548 7 8 Z " fill="#000000" transform="translate(278,139)"/>
</svg>
