<?xml version="1.0" encoding="UTF-8" standalone="no"?>
<!-- Created with Inkscape (http://www.inkscape.org/) -->

<svg
   version="1.1"
   id="svg7194"
   width="266.66666"
   height="266.66666"
   viewBox="0 0 266.66666 266.66666"
   sodipodi:docname="ccug-life.svg"
   xml:space="preserve"
   inkscape:version="1.2.2 (b0a8486541, 2022-12-01)"
   xmlns:inkscape="http://www.inkscape.org/namespaces/inkscape"
   xmlns:sodipodi="http://sodipodi.sourceforge.net/DTD/sodipodi-0.dtd"
   xmlns="http://www.w3.org/2000/svg"
   xmlns:svg="http://www.w3.org/2000/svg"><defs
     id="defs7198" /><sodipodi:namedview
     id="namedview7196"
     pagecolor="#ffffff"
     bordercolor="#000000"
     borderopacity="0.25"
     inkscape:showpageshadow="2"
     inkscape:pageopacity="0.0"
     inkscape:pagecheckerboard="0"
     inkscape:deskcolor="#d1d1d1"
     showgrid="false"
     inkscape:zoom="2.0815457"
     inkscape:cx="109.05358"
     inkscape:cy="132.35357"
     inkscape:window-width="1854"
     inkscape:window-height="1011"
     inkscape:window-x="0"
     inkscape:window-y="0"
     inkscape:window-maximized="1"
     inkscape:current-layer="g7200" /><g
     inkscape:groupmode="layer"
     inkscape:label="Image"
     id="g7200"><path
       style="fill:#cd5644;stroke:#ffffff;stroke-width:6.733;stroke-dasharray:none;stroke-opacity:1;fill-opacity:1"
       d="m 163.06309,249.73723 c 44.53815,-11.42667 78.41277,-48.40948 86.13155,-94.0346 2.18948,-12.94189 0.7906,-38.7339 -2.788,-51.40388 C 229.65676,44.995952 171.49849,9.4595119 110.21038,21.07877 88.496853,25.195314 72.136981,33.41917 54.269761,49.199258 20.145011,79.337782 7.1395309,130.34597 22.297741,174.59515 c 6.14532,17.93915 13.87773,30.14928 28.09869,44.37025 17.94885,17.94884 36.85935,28.07319 60.978429,32.64675 13.81047,2.6188 37.52588,1.75856 51.68823,-1.87492 z"
       id="path7376" /><path
       id="path7378"
       style="fill:#ffffff;stroke-width:1.33333"
       d="m 118.33453,219.29597 c -16.57706,-11.65103 -47.247941,-42.55819 -57.421751,-57.86412 -13.04539,-19.62604 -17.40676,-37.3442 -13.21751,-53.69643 3.02706,-11.815792 8.13873,-20.579289 16.41657,-28.14477 9.52466,-8.705008 19.2709,-12.398255 33.080164,-12.535421 9.451257,-0.09388 11.699087,0.388513 19.333327,4.148993 4.75125,2.340372 10.60302,6.283783 13.00394,8.763133 l 4.36531,4.507911 5.55908,-5.288217 c 9.07777,-8.635482 18.30641,-12.180316 31.7103,-12.180316 13.76339,0 22.93005,3.673569 33.24699,13.323869 21.08964,19.726888 23.01429,48.057758 5.25543,77.359738 -15.61612,25.7665 -63.32686,69.92531 -75.54975,69.92531 -2.68474,0 -7.72607,-2.65759 -15.7821,-8.31968 z m 29.31773,-25.65668 c 13.4091,-6.43681 18.64036,-24.07943 11.98144,-40.40797 -6.17626,-15.14499 -23.8296,-49.61566 -25.40951,-49.61566 -2.4135,0 -26.4249,48.73461 -28.28521,57.40892 -4.14085,19.3081 10.31035,36.91071 29.22498,35.59815 4.03334,-0.27989 9.65307,-1.62244 12.4883,-2.98344 z M 121.83447,181.4605 c -7.4046,-6.68962 -6.89746,-13.4614 0.58433,-7.80245 3.71494,2.80984 10.54322,2.46071 13.3897,-0.6846 2.59137,-2.86344 2.50972,-6.72711 -0.65495,-30.99064 -2.5809,-19.78787 -1.44609,-19.72486 8.44459,0.46893 7.11462,14.52592 8.89916,19.41872 8.89916,24.39954 0,12.03232 -7.22104,19.41678 -18.99616,19.42605 -5.40328,0.004 -7.1105,-0.7006 -11.66667,-4.81683 z" /></g></svg>
