<?xml version="1.0" encoding="UTF-8"?>
<svg version="1.1" xmlns="http://www.w3.org/2000/svg" width="151" height="151">
<path d="M0 0 C3.51164196 2.83179664 6.78203952 5.8402592 10 9 C10.70125 9.67675781 11.4025 10.35351562 12.125 11.05078125 C26.21381274 25.66242103 31.50926956 45.68934912 31.21484375 65.54296875 C30.53860387 85.11192284 21.48503091 102.26650119 8 116 C7.32324219 116.70125 6.64648438 117.4025 5.94921875 118.125 C-8.66242103 132.21381274 -28.68934912 137.50926956 -48.54296875 137.21484375 C-68.11192284 136.53860387 -85.26650119 127.48503091 -99 114 C-99.70125 113.32324219 -100.4025 112.64648438 -101.125 111.94921875 C-115.21381274 97.33757897 -120.50926956 77.31065088 -120.21484375 57.45703125 C-119.53860387 37.88807716 -110.48503091 20.73349881 -97 7 C-96.32324219 6.29875 -95.64648438 5.5975 -94.94921875 4.875 C-69.575026 -19.59126495 -28.02409687 -19.80549154 0 0 Z M-90 20 C-90.59989746 20.38430176 -91.19979492 20.76860352 -91.81787109 21.16455078 C-96.97600073 24.4840458 -96.97600073 24.4840458 -102 28 C-102 28.33 -102 28.66 -102 29 C-86.89658395 30.01251951 -73.64495532 24.75646553 -60 19 C-46.71028454 13.39340129 -33.5902958 8.60666511 -19 8 C-24.14976331 2.14725313 -33.11553776 1.27746159 -40.5 0.75 C-58.7747365 1.13072368 -75.0405284 10.39168423 -90 20 Z M-85 51 C-86.39992188 51.87108398 -86.39992188 51.87108398 -87.828125 52.75976562 C-90.84910773 54.64396664 -93.86364604 56.53795145 -96.875 58.4375 C-97.83325684 59.04102295 -98.79151367 59.6445459 -99.77880859 60.26635742 C-100.67422363 60.83717041 -101.56963867 61.4079834 -102.4921875 61.99609375 C-103.28995605 62.50325928 -104.08772461 63.0104248 -104.90966797 63.53295898 C-106.83615391 64.88500921 -108.40258894 66.2793418 -110 68 C-87.08048039 69.12411813 -67.71275592 61.70933615 -47.28689575 52.00079346 C-46.63534515 51.69115662 -45.98379456 51.38151978 -45.3125 51.0625 C-44.66183563 50.75318542 -44.01117126 50.44387085 -43.34078979 50.12518311 C-23.52693809 40.73859093 -4.88817381 35.12247045 17 34 C12.39310488 28.09903322 1.40991479 26.57441698 -5.640625 25.38671875 C-34.25919966 22.67514147 -61.43217434 36.25072753 -85 51 Z M-41.04296875 69.69384766 C-71.36956795 83.08943102 -71.36956795 83.08943102 -84 86 C-84.77214844 86.20882812 -85.54429688 86.41765625 -86.33984375 86.6328125 C-93.11138012 88.37161569 -100.04223581 88.62390464 -107 89 C-101.75888075 94.98074191 -93.89967748 97.14074903 -86.3125 98.8125 C-84.6728125 98.9053125 -84.6728125 98.9053125 -83 99 C-82.31421875 99.05027344 -81.6284375 99.10054687 -80.921875 99.15234375 C-49.39854654 100.45711728 -18.93151918 80.32317042 7 65 C8.16450684 64.31768311 8.16450684 64.31768311 9.35253906 63.62158203 C11.50927457 62.35755953 13.66205205 61.08718469 15.8125 59.8125 C16.76515747 59.25030762 16.76515747 59.25030762 17.73706055 58.67675781 C19.17574503 57.81334291 20.59106554 56.91115424 22 56 C22 55.67 22 55.34 22 55 C-1.17730613 54.36597035 -20.15836436 60.44547302 -41.04296875 69.69384766 Z M-38.4375 106.9375 C-48.44294789 111.29286696 -58.27837383 113.9810739 -69 116 C-64.01022033 120.98977967 -55.23345026 121.76903927 -48.5 122.25 C-27.89211991 121.78252446 -5.25448507 109.38049296 9.57421875 95.609375 C10.27998047 94.81273438 10.27998047 94.81273438 11 94 C-7.26622864 93.28001727 -21.97404952 99.70310856 -38.4375 106.9375 Z " fill="#000000" transform="translate(120,14)"/>
</svg>
