<?xml version="1.0" encoding="UTF-8" standalone="no"?>
<!-- Created with Inkscape (http://www.inkscape.org/) -->

<svg
   width="13.068147mm"
   height="12.958462mm"
   viewBox="0 0 13.068147 12.958462"
   version="1.1"
   id="svg5"
   xml:space="preserve"
   inkscape:version="1.2.2 (b0a8486541, 2022-12-01)"
   sodipodi:docname="ccug-dome.svg"
   xmlns:inkscape="http://www.inkscape.org/namespaces/inkscape"
   xmlns:sodipodi="http://sodipodi.sourceforge.net/DTD/sodipodi-0.dtd"
   xmlns="http://www.w3.org/2000/svg"
   xmlns:svg="http://www.w3.org/2000/svg"><sodipodi:namedview
     id="namedview7"
     pagecolor="#ffffff"
     bordercolor="#000000"
     borderopacity="0.25"
     inkscape:showpageshadow="2"
     inkscape:pageopacity="0.0"
     inkscape:pagecheckerboard="0"
     inkscape:deskcolor="#d1d1d1"
     inkscape:document-units="mm"
     showgrid="false"
     inkscape:zoom="2.7972783"
     inkscape:cx="-99.739808"
     inkscape:cy="47.367471"
     inkscape:window-width="1854"
     inkscape:window-height="1011"
     inkscape:window-x="0"
     inkscape:window-y="0"
     inkscape:window-maximized="1"
     inkscape:current-layer="layer1" /><defs
     id="defs2" /><g
     inkscape:label="Layer 1"
     inkscape:groupmode="layer"
     id="layer1"
     transform="translate(-163.89867,-83.298477)"><path
       style="fill:#000000;stroke-width:0.264583"
       d="m 165.91774,95.88328 c -0.14478,-0.205512 -0.65829,-0.857963 -1.14115,-1.449891 l -0.87792,-1.076233 1.20285,-0.584385 c 1.22122,-0.593318 1.96657,-0.502538 1.09664,0.133565 -0.44713,0.326953 -0.4242,0.407144 0.37745,1.320184 l 0.85351,0.972086 h 3.12018 3.12018 l 0.85351,-0.972086 c 0.80166,-0.91304 0.82458,-0.993231 0.37745,-1.320184 -0.86921,-0.635577 -0.12505,-0.727109 1.09447,-0.13462 1.34778,0.6548 1.38533,0.442634 -0.46759,2.641894 l -0.71052,0.843329 h -4.31792 c -3.41826,0 -4.37276,-0.07785 -4.58114,-0.373659 z m 3.74962,-2.18398 c -0.70456,-0.704559 0.65645,-1.427427 1.66813,-0.88599 0.45754,0.24487 0.50854,0.380667 0.25683,0.683956 -0.32045,0.386124 -1.60595,0.521044 -1.92496,0.202034 z m -2.14187,-0.503968 c -0.54645,-0.54645 -0.52738,-0.909171 0.0472,-0.898728 0.57184,0.01039 1.38906,0.606331 1.38906,1.012941 0,0.443137 -0.95489,0.367206 -1.43631,-0.114213 z m 4.61131,0.06137 c 0,-0.33379 1.04854,-0.968511 1.59995,-0.968511 0.45427,0 0.26399,0.768786 -0.25964,1.049024 -0.71014,0.380056 -1.34031,0.342202 -1.34031,-0.08051 z m -3.57187,-1.015577 c -0.29105,-0.162557 -0.54926,-0.308009 -0.57381,-0.323226 -0.0246,-0.01522 -0.12113,-0.332418 -0.21461,-0.70489 -0.22554,-0.898631 0.82015,-1.461094 1.84675,-0.993343 0.83066,0.378473 0.92276,1.645481 0.14968,2.059216 -0.6123,0.327696 -0.55023,0.329636 -1.20801,-0.03776 z m 2.71197,0.02587 c -0.26588,-0.154862 -0.46302,-0.583961 -0.46302,-1.007819 0,-0.96441 0.99976,-1.488134 1.98438,-1.039514 0.81556,0.371594 0.84811,1.080263 0.0824,1.793635 -0.64645,0.602257 -0.92867,0.646901 -1.60376,0.253698 z m -5.04639,-0.720808 c -0.44132,-0.48765 -0.5915,-1.403261 -0.28109,-1.713673 0.0894,-0.08944 0.45282,0.02753 0.80752,0.259936 0.4544,0.29774 0.62129,0.619796 0.56498,1.090304 -0.10165,0.849369 -0.52428,0.990104 -1.09141,0.363433 z m 7.49379,-0.221019 c 0,-0.693941 0.62381,-1.393712 1.25677,-1.409816 0.50336,-0.01281 0.39449,1.174787 -0.15312,1.670369 -0.70042,0.633869 -1.10365,0.538672 -1.10365,-0.260553 z m -6.81557,-1.618363 c -0.80962,-0.537568 -0.79192,-1.725183 0.0338,-2.266201 0.5572,-0.36509 0.68897,-0.366797 1.19062,-0.01543 0.76898,0.53861 0.75077,1.769415 -0.0338,2.28347 -0.52817,0.346069 -0.66696,0.345854 -1.19062,-0.0019 z m 2.91297,0.141793 c -0.89291,-0.43063 -0.84884,-2.122461 0.0661,-2.539352 1.09769,-0.500142 1.98438,0.06947 1.98438,1.274774 0,0.786326 -0.12952,1.032404 -0.67391,1.280447 -0.37065,0.168879 -0.69807,0.298995 -0.7276,0.289146 -0.0295,-0.0098 -0.32159,-0.147106 -0.64901,-0.305015 z m 3.14377,-0.105734 c -0.80307,-0.562489 -0.76588,-1.871997 0.0639,-2.25007 1.49448,-0.68093 2.50815,1.329497 1.12672,2.234643 -0.55719,0.365089 -0.68897,0.366796 -1.19062,0.01543 z m -7.86091,-0.456141 c -0.25393,-0.661713 -0.006,-1.628744 0.41766,-1.628744 0.27534,0 0.39687,0.276832 0.39687,0.903993 0,0.938137 -0.54617,1.424102 -0.81453,0.724751 z m 10.05416,0 c -0.25392,-0.661713 -0.006,-1.628744 0.41766,-1.628744 0.27534,0 0.39688,0.276832 0.39688,0.903993 0,0.938137 -0.54617,1.424102 -0.81454,0.724751 z m -0.83911,-2.219663 c -0.61847,-0.415216 -0.80697,-1.495994 -0.31405,-1.800635 0.4187,-0.258773 1.30624,0.664352 1.30624,1.358613 0,0.803831 -0.27246,0.925214 -0.99219,0.442022 z m -8.53281,-0.426408 c 0,-0.706667 0.88311,-1.635739 1.30624,-1.374227 0.43864,0.271093 0.33065,1.237393 -0.18176,1.626366 -0.70145,0.532479 -1.12448,0.437625 -1.12448,-0.252139 z m 2.43073,0.290091 c -0.48304,-0.232486 -0.5769,-0.43432 -0.44548,-0.957938 0.15931,-0.634763 0.81672,-1.33132 1.27329,-1.34912 1.269,-0.04948 1.71895,1.804806 0.56547,2.330366 -0.37065,0.168879 -0.69807,0.298994 -0.72761,0.289146 -0.0295,-0.0098 -0.32908,-0.150453 -0.66567,-0.312454 z m 3.19167,0.0074 c -0.76833,-0.370551 -0.81926,-1.655277 -0.0813,-2.050236 1.21511,-0.650307 2.75659,1.180171 1.68087,1.995998 -0.56373,0.427528 -0.8084,0.435824 -1.5996,0.05424 z m -4.29948,-2.445894 c 0,-0.424907 0.78465,-0.93535 1.43781,-0.93535 0.65529,0 0.48202,0.677941 -0.25964,1.015864 -0.89265,0.406722 -1.17817,0.38721 -1.17817,-0.08051 z m 5.4901,0.01925 c -0.6048,-0.459112 -0.59175,-0.954604 0.0251,-0.954604 0.46043,0 1.36392,0.758685 1.36392,1.145312 0,0.302843 -0.90203,0.179 -1.38906,-0.190708 z m -2.92509,-0.190258 c -0.37733,-0.219514 -0.41222,-0.356785 -0.16604,-0.653412 0.42839,-0.516181 1.80964,-0.483211 2.01351,0.04806 0.29206,0.761107 -0.90531,1.153447 -1.84747,0.605352 z"
       id="path248" /></g></svg>
