<?xml version="1.0" standalone="no"?>
<!DOCTYPE svg PUBLIC "-//W3C//DTD SVG 1.1//EN" "http://www.w3.org/Graphics/SVG/1.1/DTD/svg11.dtd" >
<svg xmlns="http://www.w3.org/2000/svg" xmlns:xlink="http://www.w3.org/1999/xlink" version="1.1" viewBox="-10 0 840 1000">
  <g transform="matrix(1 0 0 -1 0 800)">
   <path fill="currentColor"
d="M776 528q10 -31 1.5 -62.5t-21 -50.5t-28 -45t-20.5 -47q-13 -54 -20.5 -72t-25.5 -25q-2 -1 -2 -4q2 -25 -8.5 -37.5t-11.5 -20.5q0 -8 2.5 -22.5t3.5 -22.5t-4 -18q-5 -7 -17.5 -18.5t-20.5 -21t-18.5 -34.5t-18.5 -62q-3 -13 -13.5 -17.5t-25.5 -7t-23 -9.5
q-2 -2 -9 -9.5t-12.5 -11.5t-15 -9.5t-23 -8.5t-30.5 -3t-30.5 3t-23 8.5t-14.5 9.5t-12.5 11.5l-9.5 9.5q-8 7 -22.5 9.5t-25.5 7t-14 17.5q-7 37 -18 62t-18.5 34.5t-20 21t-18.5 18.5q-5 10 -4 18t4 22.5t2 22.5t-11 20.5t-9 37.5q0 3 -2 4q-17 7 -25 25t-20 72
q-5 21 -21 47t-28 45t-20.5 50.5t0.5 62.5q8 33 23.5 57.5t32 36.5t36.5 19t33 8.5t24 1.5q3 0 4 -2.5t-1 -4.5q-36 -35 -41 -80q-7 -64 30 -112q11 -14 24 -25t21.5 -16.5t16.5 -9.5t9 -5t12 -3t25 -7.5t23 -14.5q2 -2 3.5 -1.5t2.5 1.5q6 11 10 35t5 43.5t2 46.5t1 32
q1 14 4.5 27.5t10 30.5t7.5 20q6 17 8 35l27 -18l14 -37l-17 -72l42 42q19 -2 31 -2q3 -13 4 -26q0 -5 0.5 -32t1.5 -46.5t5 -43.5t11 -35q0 -1 2 -1.5t3 1.5q9 9 23 14.5t25 7t13 3.5q1 1 8.5 5t16.5 9.5t21.5 16.5t23.5 25q37 48 31 112q-5 45 -41 80q-2 2 -1 4.5t3 2.5
q12 0 24.5 -1.5t32.5 -8.5t36.5 -19t32 -36.5t23.5 -57.5zM319 141q17 -1 28 6q10 6 22 8l18 4q9 4 1 10q-2 2 -5 3q-28 14 -58 21q-15 4 -31 5q-11 1 -13 -10q-1 -9 -2 -19t8 -17q14 -11 32 -11zM475 80q1 4 -4 9q-10 8 -22 13q-20 9 -29 22q-4 5 -8 0q-8 -10 -14 -14
q-9 -5 -20 -10q-10 -4 -19 -12q-4 -4 -2 -8q1 -2 3 -3h34q7 3 11 9q1 1 2.5 3.5t2.5 4.5q6 9 12 0q1 -2 2.5 -4.5t2.5 -3.5q4 -7 11 -10l12 -1q9 1 17 1q7 0 8 4zM523 142q38 8 29 38q0 2 -0.5 5t-0.5 4q-2 9 -12 9h-6q-47 -7 -83 -26q-9 -4 -8 -8q0 -3 1 -4t5 -1.5l4 -0.5
q2 -1 10.5 -2.5t13.5 -3.5t10 -5q11 -8 24 -6h4q5 0 9 1z" />
  </g>

</svg>
