<?xml version="1.0" encoding="UTF-8" standalone="no"?>
<!-- Created with Inkscape (http://www.inkscape.org/) -->

<svg
   version="1.1"
   id="svg2"
   width="654.08002"
   height="656"
   viewBox="0 0 654.08002 656"
   sodipodi:docname="fh-boat.svg"
   inkscape:version="1.1.2 (0a00cf5339, 2022-02-04)"
   xmlns:inkscape="http://www.inkscape.org/namespaces/inkscape"
   xmlns:sodipodi="http://sodipodi.sourceforge.net/DTD/sodipodi-0.dtd"
   xmlns="http://www.w3.org/2000/svg"
   xmlns:svg="http://www.w3.org/2000/svg">
  <defs
     id="defs6" />
  <sodipodi:namedview
     id="namedview4"
     pagecolor="#ffffff"
     bordercolor="#666666"
     borderopacity="1.0"
     inkscape:pageshadow="2"
     inkscape:pageopacity="0.0"
     inkscape:pagecheckerboard="0"
     showgrid="false"
     inkscape:zoom="1.3307927"
     inkscape:cx="327.24857"
     inkscape:cy="332.50859"
     inkscape:window-width="1846"
     inkscape:window-height="1136"
     inkscape:window-x="0"
     inkscape:window-y="0"
     inkscape:window-maximized="1"
     inkscape:current-layer="g8" />
  <g
     inkscape:groupmode="layer"
     inkscape:label="Image"
     id="g8">
    <path
       style="fill:#000000;stroke-width:0.32"
       d="m 183.36001,655.65187 c -7.70201,-0.98857 -15.75503,-4.2263 -21.80444,-8.76646 -4.90915,-3.68435 -8.01701,-7.36576 -18.99557,-22.50103 -5.69733,-7.85446 -10.45293,-14.11523 -10.72,-14.11292 -0.264,0.003 -10.344,5.2272 -22.4,11.61091 l -21.919997,11.60681 -0.695149,-0.8246 C 86.442524,632.21107 85.276172,630.472 84.232959,628.8 81.018991,623.64883 20.487485,515.45923 20.104838,514.18208 c -0.702784,-2.3457 1.466978,-5.71763 3.982854,-6.18963 0.583756,-0.10951 5.518835,0.31299 10.966843,0.93891 64.723215,7.43597 134.643255,13.20797 194.065475,16.02032 20.54318,0.97229 58.37129,2.06077 72.44559,2.08458 l 2.20558,0.004 -0.1938,-1.85418 C 303.47079,524.16605 288.25828,409.39741 269.77179,270.14442 251.28531,130.89144 236.16172,16.129817 236.16381,15.118591 236.1776,8.441448 241.1327,2.2404765 247.8533,0.4899815 c 8.11318,-2.1132151 16.47202,3.1716121 18.53358,11.7177555 0.26964,1.117745 21.22866,115.936263 46.57562,255.152263 25.34695,139.216 46.2378,253.876 46.42413,254.8 0.33786,1.67562 0.34196,1.68 1.56554,1.68 2.91968,0 23.74349,-2.56755 40.42896,-4.98486 63.54528,-9.20615 144.32807,-26.51754 236.0178,-50.57764 12.7217,-3.33824 12.99117,-3.36908 14.88851,-1.7032 1.42877,1.2545 1.9081,2.51079 1.71696,4.50004 -0.12675,1.31923 -0.36134,1.8255 -1.24035,2.67689 -0.70477,0.68263 -16.03014,8.77955 -43.80403,23.14317 -23.496,12.15126 -53.016,27.42035 -65.6,33.9313 -12.584,6.51094 -23.45892,12.336 -24.1665,12.94457 -0.70755,0.60858 -1.66752,1.80922 -2.13322,2.6681 -0.46569,0.85891 -9.00697,19.48189 -18.9806,41.38441 -9.97364,21.90256 -18.56916,40.68512 -19.10119,41.73908 -2.11299,4.18579 -5.97002,9.85315 -9.18314,13.49328 l -1.0846,1.2288 -2.44074,-2.54199 c -1.41686,-1.47561 -6.84352,-8.58259 -12.93635,-16.94195 -5.77261,-7.92 -10.67639,-14.4416 -10.89728,-14.49242 -0.2209,-0.0508 -16.95146,8.6402 -37.17901,19.31338 -42.29709,22.3183 -42.56211,22.45437 -46.31824,23.78013 -5.21431,1.84041 -8.68362,2.39709 -14.93914,2.39709 -4.55744,0 -6.20698,-0.13053 -8.86029,-0.70112 -9.26265,-1.99197 -16.58452,-5.95588 -23.14013,-12.52759 -3.14561,-3.15334 -5.19162,-5.76889 -14.08,-17.99942 -5.71977,-7.8705 -10.57278,-14.3145 -10.78447,-14.32 -0.21169,-0.005 -14.75569,7.57229 -32.32,16.83961 -46.1256,24.3369 -47.34596,24.96852 -50.33511,26.0522 -6.82579,2.47462 -14.39102,3.37369 -21.12,2.51001 z m -58.02513,-208.164 C 13.27918,428.53667 3.6922769,426.8673 2.5411995,426.10554 0.75128639,424.92102 -0.10804994,423.07706 0.08041251,420.82515 0.21380675,419.23123 0.67438514,418.28586 4.3800369,412 23.491847,379.58077 40.36947,344.99053 51.314674,315.80867 c 5.7416,-15.30812 9.629059,-28.38959 13.137718,-44.209 8.552909,-38.56229 15.002391,-83.92636 19.040615,-133.92697 0.872868,-10.80766 0.946285,-11.3397 1.727757,-12.52058 0.948317,-1.433 2.611136,-2.55315 4.164189,-2.80518 0.739949,-0.12007 20.237887,3.66213 60.573127,11.74995 32.71506,6.55986 59.5262,11.95991 59.5803,12.0001 0.15549,0.11552 37.52687,321.22365 37.42921,321.60496 -0.0557,0.21735 -44.38995,-7.15056 -121.63271,-20.21408 z m 292.2644,7.63213 c -0.004,-29.20384 -4.90061,-79.23354 -11.67556,-119.28 -5.364,-31.7065 -13.6616,-66.71776 -23.05516,-97.28 -1.35236,-4.4 -2.5938,-8.468 -2.75876,-9.04 -0.16492,-0.572 -0.47312,-1.03548 -0.68483,-1.02995 -0.21174,0.006 -6.72096,1.3431 -14.46496,2.97238 l -14.08,2.96233 -0.2177,-2.57238 c -0.11974,-1.41481 -0.45004,-6.24438 -0.73401,-10.73238 -1.51552,-23.95134 -4.25901,-50.3745 -7.07696,-68.16 -3.33245,-21.03279 -9.79088,-46.25959 -18.61786,-72.721901 l -2.83107,-8.487257 1.61878,0.47255 c 19.22573,5.61224 47.66948,17.401133 69.13882,28.655508 34.71191,18.19622 62.52519,38.47169 93.0385,67.82366 9.59715,9.23189 23.95655,24.46495 25.09648,26.62343 1.03629,1.96225 0.26442,4.55783 -1.6959,5.70271 -0.5984,0.34948 -20.28938,4.61144 -50.70868,10.9755 -59.46035,12.43978 -54.3704,11.33532 -54.3704,11.79775 0,0.20774 1.116,0.92747 2.48,1.5994 1.364,0.67193 5.288,2.74436 8.72,4.6054 41.82506,22.68014 81.17844,51.80924 115.95889,85.83198 13.7134,13.41461 39.34285,40.89436 72.53101,77.76732 16.55158,18.38921 21.27049,23.72608 21.70573,24.54809 0.61603,1.16356 0.33132,3.90407 -0.53143,5.11572 -0.38038,0.53417 -1.1655,1.19612 -1.74473,1.47097 -0.89572,0.42506 -203.01886,36.37917 -204.51262,36.37917 -0.47037,0 -0.52691,-0.64323 -0.52758,-6 z"
       id="path863" />
  </g>
</svg>
