<?xml version="1.0" encoding="UTF-8" standalone="no"?>
<!-- Created with Inkscape (http://www.inkscape.org/) -->

<svg
   version="1.1"
   id="svg2"
   width="618.88"
   height="634.88"
   viewBox="0 0 618.88 634.88"
   sodipodi:docname="fh-climbing-gear.svg"
   inkscape:version="1.1.2 (0a00cf5339, 2022-02-04)"
   xmlns:inkscape="http://www.inkscape.org/namespaces/inkscape"
   xmlns:sodipodi="http://sodipodi.sourceforge.net/DTD/sodipodi-0.dtd"
   xmlns="http://www.w3.org/2000/svg"
   xmlns:svg="http://www.w3.org/2000/svg">
  <defs
     id="defs6" />
  <sodipodi:namedview
     id="namedview4"
     pagecolor="#ffffff"
     bordercolor="#666666"
     borderopacity="1.0"
     inkscape:pageshadow="2"
     inkscape:pageopacity="0.0"
     inkscape:pagecheckerboard="0"
     showgrid="false"
     inkscape:zoom="1.375063"
     inkscape:cx="309.44037"
     inkscape:cy="317.44"
     inkscape:window-width="1846"
     inkscape:window-height="1136"
     inkscape:window-x="0"
     inkscape:window-y="0"
     inkscape:window-maximized="1"
     inkscape:current-layer="g8" />
  <g
     inkscape:groupmode="layer"
     inkscape:label="Image"
     id="g8">
    <path
       style="fill:#000000;stroke-width:0.32"
       d="M 95.155418,634.56205 C 78.10407,632.76755 62.939139,626.31475 48.48,614.70128 43.627574,610.80384 37.436582,604.76486 34.556861,601.12 28.243758,593.1295 23.234819,583.35443 20.293482,573.28467 17.806287,564.7697 16.66085,556.928 16.411929,546.71152 c -0.256472,-10.52643 0.392402,-17.89901 2.512886,-28.55181 l 0.971442,-4.88025 -1.774032,-2.35716 C 12.344291,503.24522 6.5708682,491.3648 3.7172259,481.28 1.0667167,471.91309 0.19794851,465.55322 0.17649823,455.36 0.15845711,446.78682 0.4612001,443.48102 1.9494783,436 3.9084534,426.15296 7.0193168,417.05133 11.683708,407.52 18.794232,392.99018 25.754015,383.45357 37.958483,371.51709 54.145331,355.68566 74.732192,341.772 102.08,328.18048 c 27.93844,-13.88505 60.57448,-25.79233 92.64,-33.79975 3.696,-0.92297 6.85135,-1.79476 7.01188,-1.93732 0.16392,-0.14555 -2.36375,-2.96513 -5.76545,-6.43129 -6.653,-6.77906 -7.65168,-8.21351 -8.77429,-12.60284 -3.00202,-11.73782 5.30716,-23.33844 17.60786,-24.5827 3.09545,-0.31311 6.94091,0.46636 10.24,2.07566 l 2.72,1.32681 76.5178,76.52548 c 59.76127,59.76726 76.731,76.91088 77.49138,78.28547 2.31223,4.18 3.13172,9.30768 2.19213,13.71683 -1.53043,7.18183 -7.42905,13.34163 -14.60131,15.24781 -0.968,0.25728 -3.128,0.46778 -4.8,0.46778 -1.672,0 -3.832,-0.2105 -4.8,-0.46778 -2.66742,-0.70893 -6.05091,-2.50627 -8.11011,-4.30826 -1.01594,-0.88902 -1.92711,-1.61638 -2.02483,-1.61638 -0.56112,0 1.81584,9.92422 3.91612,16.35059 5.45748,16.69856 13.50618,29.97536 25.40877,41.91325 11.80957,11.84461 25.23472,20.09494 40.98275,25.18573 21.3177,6.89126 47.045,7.32349 69.6329,1.16985 4.07619,-1.11046 6.45904,-1.2751 9.66762,-0.66793 7.3958,1.39949 13.07888,6.48774 15.60147,13.96851 0.73987,2.19411 0.82749,8.00755 0.15673,10.4 -0.94716,3.37837 -3.09622,7.00803 -5.52268,9.32755 -3.22948,3.0872 -6.92189,4.68525 -15.30935,6.62586 -26.22297,6.06717 -54.79273,5.68781 -79.36742,-1.05386 -10.21683,-2.80285 -17.4689,-5.59453 -27.03197,-10.40605 -14.15731,-7.123 -25.45174,-15.26704 -36.6312,-26.4135 -9.52851,-9.50042 -15.45712,-17.34317 -24.16492,-31.96704 -0.48468,-0.81395 -0.95509,-1.28605 -1.11605,-1.12 -0.15303,0.15789 -0.51472,1.22304 -0.80375,2.36704 -2.63215,10.41818 -10.05455,33.68528 -14.08741,44.16 -8.03592,20.87206 -14.16589,32.41654 -24.80767,46.72 -12.35042,16.6 -22.10163,27.35248 -31.79321,35.05786 -21.07548,16.75625 -43.25298,19.4816 -72.98365,8.96883 C 169.09082,619.86 166.94722,619.2 166.6086,619.2 c -0.33863,0 -3.85593,1.3024 -7.81623,2.89421 -15.85849,6.37417 -29.25334,10.16861 -42.33022,11.99113 -4.25608,0.59316 -17.404729,0.88733 -21.306732,0.47671 z M 94.778374,511.06019 C 137.66302,499.93165 183.12278,457.04416 226.4066,386.88 235.99259,371.34086 251.2,343.74339 251.2,341.88646 c 0,-0.3591 -1.44724,-2.06012 -3.4593,-4.06595 l -3.4593,-3.44857 -4.4607,0.99123 c -38.00319,8.44473 -73.36931,23.76969 -103.12239,44.68534 -19.46376,13.6825 -36.24915,29.63011 -50.587472,48.06263 -1.732249,2.22688 -3.971267,5.31248 -4.975587,6.85689 -4.050115,6.22813 -8.279814,16.80323 -10.203971,25.51197 -1.67432,7.57798 -1.964,10.45494 -1.965459,19.52 -0.0013,7.51309 0.0802,8.8833 0.713987,12.01683 3.316525,16.39757 11.466083,22.58099 25.098566,19.04336 z M 411.36,376.37315 c -2.64688,-0.79744 -5.09053,-2.09673 -7.36,-3.91331 -1.056,-0.84525 -35.6295,-35.27853 -76.83002,-76.51834 -73.77335,-73.84374 -74.92979,-75.02034 -76.21237,-77.5415 -1.66057,-3.26417 -2.37766,-6.04866 -2.39542,-9.30151 -0.0181,-3.31438 0.47659,-5.41418 2.05828,-8.73688 2.67599,-5.62153 8.15318,-9.69397 14.56672,-10.83078 2.70077,-0.47871 3.19783,-0.47989 6.04653,-0.0143 2.33112,0.38096 3.78597,0.84524 5.84369,1.86488 2.45766,1.21782 3.31041,1.91739 8.28,6.79268 3.04709,2.98928 5.6221,5.3531 5.72226,5.25295 0.10015,-0.10015 0.9537,-3.92956 1.89679,-8.50979 10.47282,-50.86293 24.30626,-94.17137 37.88194,-118.59722 3.58042,-6.441984 6.92298,-11.457536 13.23248,-19.855392 23.18618,-30.860469 39.72221,-43.754629 61.18912,-47.7129363 3.70029,-0.6823031 12.69357,-0.9168816 17.2857,-0.4508762 7.46966,0.7580215 15.2136,2.5613245 24.04742,5.5998365 2.84522,0.978652 5.42083,1.779368 5.72355,1.779368 0.30272,0 3.80682,-1.311468 7.78688,-2.914372 C 475.89686,6.4131667 489.2128,2.6579133 502.72,0.75291843 c 5.74858,-0.81075396 19.45248,-0.80695437 24.8,0.006876 4.82989,0.73505567 12.51366,2.66947257 16.66086,4.19443297 11.68404,4.2963366 24.51956,12.7160266 34.39488,22.5619696 12.96996,12.931333 20.26132,28.496328 23.23674,49.603803 0.4423,3.137619 0.56352,6.1732 0.56218,14.08 -0.003,11.12772 -0.4288,15.64828 -2.4096,25.51324 l -0.98132,4.88732 1.77402,2.35714 c 3.88832,5.16634 8.67123,13.8341 11.236,20.3623 9.78291,24.90056 9.07914,50.94792 -2.0849,77.16684 -6.37782,14.97833 -14.44124,27.054 -25.90595,38.79624 -17.23091,17.64809 -38.87827,32.48669 -68.96291,47.27193 -25.23555,12.40214 -54.50573,23.28835 -83.43965,31.03302 -2.24377,0.60058 -4.07977,1.21715 -4.08,1.37018 -1.9e-4,0.15302 1.22256,1.56333 2.71725,3.13398 4.16125,4.37274 6.0543,8.80899 6.0543,14.18781 0,3.23923 -0.51865,5.41331 -2.06128,8.64 -2.15692,4.51171 -6.49891,8.40035 -11.26246,10.08659 -2.82758,1.00096 -8.86928,1.19175 -11.60816,0.36656 z m -18.5248,-79.26443 c 8.5865,-2.38956 21.21619,-6.64931 29.48509,-9.94475 31.87785,-12.70443 58.74045,-29.26618 82.07501,-50.60214 11.15728,-10.20165 24.47462,-25.25937 30.53411,-34.52441 6.09469,-9.31885 10.58873,-22.52016 12.11859,-35.59838 0.61136,-5.22645 0.60397,-15.18797 -0.0144,-19.53961 -1.51526,-10.66165 -5.5608,-18.02262 -11.50461,-20.93301 -4.84003,-2.36993 -10.03728,-2.01195 -20.32889,1.40025 -16.97607,5.62842 -34.14612,15.9824 -51.80112,31.23737 -5.37626,4.64542 -20.04352,19.24586 -25.19069,25.07596 -17.44157,19.75564 -33.0241,41.15004 -49.33107,67.7301 -6.42855,10.47843 -17.99712,30.97026 -17.99712,31.87896 0,0.38335 15.0142,15.59094 15.3927,15.59094 0.10874,0 3.06186,-0.79708 6.5625,-1.77128 z"
       id="path845" />
  </g>
</svg>
