<?xml version="1.0" encoding="UTF-8" standalone="no"?>
<svg
   viewBox="0 0 10.16 10.16"
   version="1.1"
   id="svg46"
   sodipodi:docname="fh-hourglass.svg"
   inkscape:version="1.1.2 (0a00cf5339, 2022-02-04)"
   xmlns:inkscape="http://www.inkscape.org/namespaces/inkscape"
   xmlns:sodipodi="http://sodipodi.sourceforge.net/DTD/sodipodi-0.dtd"
   xmlns="http://www.w3.org/2000/svg"
   xmlns:svg="http://www.w3.org/2000/svg">
  <sodipodi:namedview
     id="namedview48"
     pagecolor="#ffffff"
     bordercolor="#666666"
     borderopacity="1.0"
     inkscape:pageshadow="2"
     inkscape:pageopacity="0.0"
     inkscape:pagecheckerboard="0"
     showgrid="false"
     inkscape:zoom="85.925198"
     inkscape:cx="5.0799999"
     inkscape:cy="5.0799999"
     inkscape:window-width="1846"
     inkscape:window-height="1136"
     inkscape:window-x="0"
     inkscape:window-y="0"
     inkscape:window-maximized="1"
     inkscape:current-layer="svg46" />
  <defs
     id="defs10">
    <style
       id="style2">.cls-1,.cls-3,.cls-6{fill:none;}.cls-2{clip-path:url(#clip-path);}.cls-3,.cls-6{stroke:#231f20;stroke-miterlimit:10;}.cls-3{stroke-width:0.6px;}.cls-4{clip-path:url(#clip-path-2);}.cls-5{fill:#231f20;}.cls-6{stroke-linecap:round;stroke-width:0.31px;}</style>
    <clipPath
       id="clip-path"
       transform="translate(-0.13 -0.2)">
      <path
         class="cls-1"
         d="M0,5.25A5.25,5.25,0,0,0,5.15,10.5h.19A5.25,5.25,0,1,0,0,5.25"
         id="path4" />
    </clipPath>
    <clipPath
       id="clip-path-2"
       transform="translate(-0.13 -0.2)">
      <path
         class="cls-1"
         d="M3,.53A5.24,5.24,0,0,0,.54,2.92V7.57A5.34,5.34,0,0,0,2.92,10H7.57A5.26,5.26,0,0,0,10,7.54V3A5.21,5.21,0,0,0,7.54.53Z"
         id="path7" />
    </clipPath>
  </defs>
  <circle
     class="cls-3"
     cx="5.0799999"
     cy="5.0799999"
     r="4.7800002"
     id="circle12"
     style="stroke:#000000;stroke-opacity:1" />
  <g
     class="cls-4"
     clip-path="url(#clip-path-2)"
     id="g42"
     style="fill:#000000">
    <path
       class="cls-5"
       d="M 7.08,8.59 6.78,8.51 H 6.93 6.77 A 2.57,2.57 0 0 0 6.46,6.78 5.28,5.28 0 0 0 5.32,5.51 L 5.15,5.36 5,5.2 A 5.56,5.56 0 0 1 3.8,3.85 3,3 0 0 1 3.45,1.85 L 3.74,2 A 2.64,2.64 0 0 0 4.05,3.7 5.74,5.74 0 0 0 5.19,5 l 0.17,0.15 0.17,0.16 a 5.6,5.6 0 0 1 1.21,1.32 2.91,2.91 0 0 1 0.34,2"
       transform="translate(-0.13,-0.2)"
       id="path16"
       style="fill:#000000" />
    <path
       class="cls-5"
       d="M 5,5.66 A 4.89,4.89 0 0 0 4,6.78 2.65,2.65 0 0 0 3.69,8.51 L 3.38,8.59 a 3,3 0 0 1 0.35,-2 4.72,4.72 0 0 1 1,-1.18 L 4.88,5.55 5,5.66"
       transform="translate(-0.13,-0.2)"
       id="path18"
       style="fill:#000000" />
    <path
       class="cls-5"
       d="M 6.74,3.85 A 5,5 0 0 1 5.72,5 1.85,1.85 0 0 1 5.58,4.86 L 5.49,4.79 A 4.65,4.65 0 0 0 6.49,3.67 2.69,2.69 0 0 0 6.78,2 l 0.3,-0.08 a 2.91,2.91 0 0 1 -0.34,2"
       transform="translate(-0.13,-0.2)"
       id="path20"
       style="fill:#000000" />
    <path
       class="cls-6"
       d="m 3.39,8.49 c 0,0 0.42,0.38 1.86,0.38 A 3.09,3.09 0 0 0 7.13,8.49"
       transform="translate(-0.13,-0.2)"
       id="path22"
       style="fill:#000000" />
    <path
       class="cls-6"
       d="M 7.13,2 A 3,3 0 0 0 5.26,1.62 3,3 0 0 0 3.39,2"
       transform="translate(-0.13,-0.2)"
       id="path24"
       style="fill:#000000" />
    <path
       class="cls-5"
       d="M 3.58,7.83 A 1.84,1.84 0 0 1 5,7.33 c 1,0 1.28,-0.45 1.37,-0.74 A 1,1 0 0 1 6.89,7.33 V 8.62 A 4.35,4.35 0 0 1 5.24,8.94 4.55,4.55 0 0 1 3.56,8.62 Z"
       transform="translate(-0.13,-0.2)"
       id="path26"
       style="fill:#000000" />
    <path
       class="cls-5"
       d="M 6.91,2.64 A 1.79,1.79 0 0 1 5.52,3.15 c -1,0 -1.28,0.45 -1.37,0.74 A 1,1 0 0 1 3.63,3.15 V 1.86 a 4.37,4.37 0 0 1 3.33,0 z"
       transform="translate(-0.13,-0.2)"
       id="path28"
       style="fill:#000000" />
    <path
       class="cls-5"
       d="M 5.25,3.34 A 0.16,0.16 0 0 1 5.09,3.19 v 0 a 0.16,0.16 0 1 1 0.32,0 v 0 A 0.16,0.16 0 0 1 5.25,3.34"
       transform="translate(-0.13,-0.2)"
       id="path30"
       style="fill:#000000" />
    <path
       class="cls-5"
       d="M 5.25,4.53 A 0.16,0.16 0 0 1 5.09,4.38 v 0 a 0.16,0.16 0 1 1 0.32,0 v 0 A 0.16,0.16 0 0 1 5.25,4.53"
       transform="translate(-0.13,-0.2)"
       id="path32"
       style="fill:#000000" />
    <path
       class="cls-5"
       d="M 5.25,3.94 A 0.16,0.16 0 0 1 5.09,3.78 v 0 a 0.16,0.16 0 1 1 0.32,0 v 0 A 0.16,0.16 0 0 1 5.25,3.94"
       transform="translate(-0.13,-0.2)"
       id="path34"
       style="fill:#000000" />
    <path
       class="cls-5"
       d="M 5.25,6.86 A 0.16,0.16 0 0 1 5.09,6.71 v 0 a 0.16,0.16 0 0 1 0.32,0 v 0 A 0.16,0.16 0 0 1 5.25,6.86"
       transform="translate(-0.13,-0.2)"
       id="path36"
       style="fill:#000000" />
    <path
       class="cls-5"
       d="M 5.25,6.27 A 0.16,0.16 0 0 1 5.09,6.11 v 0 a 0.16,0.16 0 0 1 0.32,0 v 0 A 0.16,0.16 0 0 1 5.25,6.27"
       transform="translate(-0.13,-0.2)"
       id="path38"
       style="fill:#000000" />
    <path
       class="cls-5"
       d="M 5.25,7.45 A 0.16,0.16 0 0 1 5.09,7.3 v 0 a 0.16,0.16 0 1 1 0.32,0 v 0 A 0.16,0.16 0 0 1 5.25,7.45"
       transform="translate(-0.13,-0.2)"
       id="path40"
       style="fill:#000000" />
  </g>
</svg>
