<?xml version="1.0" encoding="UTF-8" standalone="no"?>
<!-- Created with Inkscape (http://www.inkscape.org/) -->

<svg
   width="31.75mm"
   height="31.75mm"
   viewBox="0 0 31.75 31.75"
   version="1.1"
   id="svg2339"
   sodipodi:docname="fh-infusion.svg"
   inkscape:version="1.1.2 (0a00cf5339, 2022-02-04)"
   xmlns:inkscape="http://www.inkscape.org/namespaces/inkscape"
   xmlns:sodipodi="http://sodipodi.sourceforge.net/DTD/sodipodi-0.dtd"
   xmlns="http://www.w3.org/2000/svg"
   xmlns:svg="http://www.w3.org/2000/svg">
  <sodipodi:namedview
     id="namedview2341"
     pagecolor="#ffffff"
     bordercolor="#666666"
     borderopacity="1.0"
     inkscape:pageshadow="2"
     inkscape:pageopacity="0.0"
     inkscape:pagecheckerboard="0"
     inkscape:document-units="mm"
     showgrid="false"
     fit-margin-top="0"
     fit-margin-left="0"
     fit-margin-right="0"
     fit-margin-bottom="0"
     inkscape:zoom="8.2268223"
     inkscape:cx="71.169642"
     inkscape:cy="48.439116"
     inkscape:window-width="1846"
     inkscape:window-height="1136"
     inkscape:window-x="0"
     inkscape:window-y="0"
     inkscape:window-maximized="1"
     inkscape:current-layer="layer1" />
  <defs
     id="defs2336" />
  <g
     inkscape:label="Layer 1"
     inkscape:groupmode="layer"
     id="layer1"
     transform="translate(-334.44922,-218.3051)">
    <path
       id="path1526"
       style="stroke-width:1.32292"
       d="m 366.19922,234.1801 a 15.875,15.875 0 0 1 -15.875,15.875 15.875,15.875 0 0 1 -15.875,-15.875 15.875,15.875 0 0 1 15.875,-15.875 15.875,15.875 0 0 1 15.875,15.875 z" />
    <path
       id="path849-7-3"
       style="fill:none;stroke:#ffffff;stroke-width:1.32292"
       d="m 350.37616,237.77063 a 5.8208332,5.8208332 0 0 1 -5.82083,5.82083 5.8208332,5.8208332 0 0 1 -5.82083,-5.82083 5.8208332,5.8208332 0 0 1 5.82083,-5.82083 5.8208332,5.8208332 0 0 1 5.82083,5.82083 z m -0.23434,-6.93181 a 5.8208332,5.8208332 0 0 1 -5.82084,5.82083 5.8208332,5.8208332 0 0 1 -5.82083,-5.82083 5.8208332,5.8208332 0 0 1 5.82083,-5.82083 5.8208332,5.8208332 0 0 1 5.82084,5.82083 z m 6.09485,-3.1082 a 5.8208332,5.8208332 0 0 1 -5.82084,5.82083 5.8208332,5.8208332 0 0 1 -5.82083,-5.82083 5.8208332,5.8208332 0 0 1 5.82083,-5.82083 5.8208332,5.8208332 0 0 1 5.82084,5.82083 z m 5.56955,3.33435 a 5.8208332,5.8208332 0 0 1 -5.82084,5.82084 5.8208332,5.8208332 0 0 1 -5.82083,-5.82084 5.8208332,5.8208332 0 0 1 5.82083,-5.82083 5.8208332,5.8208332 0 0 1 5.82084,5.82083 z m 0.23236,6.67401 a 5.8208332,5.8208332 0 0 1 -5.82084,5.82084 5.8208332,5.8208332 0 0 1 -5.82083,-5.82084 5.8208332,5.8208332 0 0 1 5.82083,-5.82083 5.8208332,5.8208332 0 0 1 5.82084,5.82083 z m -6.086,3.33533 a 5.8208332,5.8208332 0 0 1 -5.82084,5.82083 5.8208332,5.8208332 0 0 1 -5.82083,-5.82083 5.8208332,5.8208332 0 0 1 5.82083,-5.82083 5.8208332,5.8208332 0 0 1 5.82084,5.82083 z" />
    <path
       id="path2100"
       style="fill:#ffffff;stroke-width:1.32292"
       d="m 351.67153,234.38506 a 1.3878701,1.3250337 0 0 1 -1.38787,1.32503 1.3878701,1.3250337 0 0 1 -1.38787,-1.32503 1.3878701,1.3250337 0 0 1 1.38787,-1.32504 1.3878701,1.3250337 0 0 1 1.38787,1.32504 z" />
  </g>
</svg>
