<?xml version="1.0" encoding="UTF-8"?>
<!-- Generator: Adobe Illustrator 27.1.0, SVG Export Plug-In . SVG Version: 6.00 Build 0)  -->
<svg version="1.1" id="Layer_1" xmlns="http://www.w3.org/2000/svg" xmlns:xlink="http://www.w3.org/1999/xlink" x="0px" y="0px" viewBox="0 0 200 100" style="enable-background:new 0 0 200 100;" xml:space="preserve">
<path id="Hive2x" d="M129.5,100c27.6,0,50-22.4,50-50s-22.4-50-50-50c-15.9,0.1-30.8,7.7-40.2,20.6C80.3,8.4,65.8,0.5,49.5,0.5  C22.2,0.5,0,22.7,0,50s22.2,49.5,49.5,49.5c16.3,0,30.8-7.9,39.8-20.1C98.7,92.3,113.6,99.9,129.5,100z M49.5,95.5  C24.3,95.5,4,75.2,4,50S24.3,4.5,49.5,4.5S95.1,24.8,95.1,50S74.7,95.5,49.5,95.5z M112.5,81.5c-5.5,0-10.1-3.9-11.2-9  c-0.4,0-0.8-0.1-1.2-0.1c-0.4-0.1-0.7-0.1-1-0.3c-0.2-0.1-0.4-0.2-0.7-0.4c-0.3-0.2-0.8-0.8-0.8-1.6s0.5-1.4,0.8-1.6  c0.3-0.2,0.5-0.3,0.7-0.4c0.4-0.2,0.7-0.2,1-0.3c0.4-0.1,0.8-0.1,1.2-0.1c1.1-5.2,5.8-9,11.2-9c5.5,0,10.1,3.9,11.2,9h32.8  c0.9,0,1.7,0.1,2.5,0.2c0.4,0.1,0.7,0.1,1,0.3c0.2,0.1,0.4,0.2,0.7,0.4s0.8,0.8,0.8,1.6s-0.5,1.4-0.8,1.6c-0.3,0.2-0.5,0.3-0.7,0.4  c-0.4,0.2-0.7,0.2-1,0.3c-0.7,0.1-1.5,0.2-2.5,0.2h-32.8C122.6,77.6,118,81.5,112.5,81.5z M66.5,81.5c5.5,0,10.1-3.9,11.2-9  c0.4,0,0.8-0.1,1.2-0.1c0.4-0.1,0.7-0.1,1-0.3c0.2-0.1,0.4-0.2,0.7-0.4c0.3-0.2,0.8-0.8,0.8-1.6s-0.5-1.4-0.8-1.6S80.2,68,80,67.9  c-0.4-0.2-0.7-0.2-1-0.3c-0.4-0.1-0.8-0.1-1.2-0.1c-1.1-5.2-5.8-9-11.2-9c-5.5,0-10.1,3.9-11.2,9H22.5c-0.9,0-1.7,0.1-2.5,0.2  c-0.4,0.1-0.7,0.1-1,0.3c-0.2,0.1-0.4,0.2-0.7,0.4s-0.8,0.8-0.8,1.6s0.5,1.4,0.8,1.6c0.3,0.2,0.5,0.3,0.7,0.4c0.4,0.2,0.7,0.2,1,0.3  c0.7,0.1,1.5,0.2,2.5,0.2h32.8C56.4,77.6,61,81.5,66.5,81.5z M112.5,76.5c3.6,0,6.5-2.9,6.5-6.5s-2.9-6.5-6.5-6.5S106,66.4,106,70  S108.9,76.5,112.5,76.5z M66.5,76.5c-3.6,0-6.5-2.9-6.5-6.5c0-3.6,2.9-6.5,6.5-6.5c3.6,0,6.5,2.9,6.5,6.5  C73,73.6,70.1,76.5,66.5,76.5z M146.5,61.5c-5.5,0-10.1-3.9-11.2-9h-32.8c-0.9,0-1.7-0.1-2.5-0.2c-0.4-0.1-0.7-0.1-1-0.3  c0,0,0,0,0,0c0-0.7,0.1-1.4,0.1-2s0-1.4-0.1-2c0,0,0,0,0,0c0.4-0.2,0.7-0.2,1-0.3c0.7-0.1,1.5-0.2,2.5-0.2h32.8  c1.2-5.1,5.8-9,11.2-9c5.5,0,10.1,3.9,11.2,9c0.4,0,0.8,0.1,1.2,0.1c0.4,0.1,0.7,0.1,1,0.3c0.2,0.1,0.4,0.2,0.7,0.4  c0.3,0.2,0.8,0.8,0.8,1.6s-0.5,1.4-0.8,1.6c-0.3,0.2-0.5,0.3-0.7,0.4c-0.4,0.2-0.7,0.2-1,0.3c-0.4,0.1-0.8,0.1-1.2,0.1  C156.6,57.6,152,61.5,146.5,61.5z M32.5,61.5c5.5,0,10.1-3.9,11.2-9h32.8c0.9,0,1.7-0.1,2.5-0.2c0.4-0.1,0.7-0.1,1-0.3  c0.2-0.1,0.4-0.2,0.7-0.4c0.3-0.2,0.8-0.8,0.8-1.6s-0.5-1.4-0.8-1.6S80.2,48,80,47.9c-0.4-0.2-0.7-0.2-1-0.3  c-0.7-0.1-1.5-0.2-2.5-0.2H43.7c-1.2-5.1-5.8-9-11.2-9c-5.5,0-10.1,3.9-11.2,9c-0.4,0-0.8,0.1-1.2,0.1c-0.4,0.1-0.7,0.1-1,0.3  c-0.2,0.1-0.4,0.2-0.7,0.4s-0.8,0.8-0.8,1.6s0.5,1.4,0.8,1.6c0.3,0.2,0.5,0.3,0.7,0.4c0.4,0.2,0.7,0.2,1,0.3  c0.4,0.1,0.8,0.1,1.2,0.1C22.4,57.6,27,61.5,32.5,61.5z M146.5,56.5c3.6,0,6.5-2.9,6.5-6.5s-2.9-6.5-6.5-6.5S140,46.4,140,50  S142.9,56.5,146.5,56.5z M32.5,56.5c-3.6,0-6.5-2.9-6.5-6.5s2.9-6.5,6.5-6.5c3.6,0,6.5,2.9,6.5,6.5S36.1,56.5,32.5,56.5z   M112.5,41.5c-5.5,0-10.1-3.9-11.2-9c-0.4,0-0.8-0.1-1.2-0.1c-0.4-0.1-0.7-0.1-1-0.3c-0.2-0.1-0.4-0.2-0.7-0.4  c-0.3-0.2-0.8-0.8-0.8-1.6s0.5-1.4,0.8-1.6c0.3-0.2,0.5-0.3,0.7-0.4c0.4-0.2,0.7-0.2,1-0.3c0.4-0.1,0.8-0.1,1.2-0.1  c1.1-5.2,5.8-9,11.2-9c5.5,0,10.1,3.9,11.2,9h32.8c0.9,0,1.7,0.1,2.5,0.2c0.4,0.1,0.7,0.1,1,0.3c0.2,0.1,0.4,0.2,0.7,0.4  c0.3,0.2,0.8,0.8,0.8,1.6s-0.5,1.4-0.8,1.6c-0.3,0.2-0.5,0.3-0.7,0.4c-0.4,0.2-0.7,0.2-1,0.3c-0.7,0.1-1.5,0.2-2.5,0.2h-32.8  C122.6,37.6,118,41.5,112.5,41.5z M66.5,41.5c5.5,0,10.1-3.9,11.2-9c0.4,0,0.8-0.1,1.2-0.1c0.4-0.1,0.7-0.1,1-0.3  c0.2-0.1,0.4-0.2,0.7-0.4c0.3-0.2,0.8-0.8,0.8-1.6s-0.5-1.4-0.8-1.6c-0.3-0.2-0.5-0.3-0.7-0.4c-0.4-0.2-0.7-0.2-1-0.3  c-0.4-0.1-0.8-0.1-1.2-0.1c-1.1-5.2-5.8-9-11.2-9c-5.5,0-10.1,3.9-11.2,9H22.5c-0.9,0-1.7,0.1-2.5,0.2c-0.4,0.1-0.7,0.1-1,0.3  c-0.2,0.1-0.4,0.2-0.7,0.4c-0.3,0.2-0.8,0.8-0.8,1.6s0.5,1.4,0.8,1.6c0.3,0.2,0.5,0.3,0.7,0.4c0.4,0.2,0.7,0.2,1,0.3  c0.7,0.1,1.5,0.2,2.5,0.2h32.8C56.4,37.6,61,41.5,66.5,41.5z M112.5,36.5c3.6,0,6.5-2.9,6.5-6.5s-2.9-6.5-6.5-6.5S106,26.4,106,30  S108.9,36.5,112.5,36.5z M66.5,36.5c-3.6,0-6.5-2.9-6.5-6.5s2.9-6.5,6.5-6.5c3.6,0,6.5,2.9,6.5,6.5S70.1,36.5,66.5,36.5z"/>
</svg>