<svg xmlns="http://www.w3.org/2000/svg" xmlns:xlink="http://www.w3.org/1999/xlink" viewBox="0 0 100 100"><g id="SteamMinus">
	<path d="m 42.398 0 c -0.825 0.018 -1.56 0.645 -2.012 2.068 c -0.36 1.133 -2.09 3.867 -3.844 6.074 c -5.421 6.821 -3.828 15.578 3.273 17.998 c 1.234 0.42 7.268 0.283 9.428 -0.215 c 0.148 -0.035 0.554 -0.032 0.904 0.008 c 0.937 0.106 3.599 -3.636 3.639 -5.115 c 0.019 -0.701 -0.963 -1.59 -2.182 -1.977 c -2.633 -0.836 -4.436 -4.999 -4.426 -10.217 c 0.01 -4.744 -2.674 -8.671 -4.781 -8.625 z m 19.422 23.225 c -0.595 0.076 -1.127 0.774 -1.703 2.039 c -0.69 1.515 -1.683 2.754 -2.209 2.754 c -0.526 0 -2.064 1.287 -3.416 2.859 l -2.459 2.857 l -10.148 -1.336 C 22.796 29.883 22.553 29.888 16.152 33.121 C 8.036 37.221 4.179 43.585 3.716 53.633 c -0.183 3.983 -1.105 9.045 -2.047 11.248 c -1.945 4.55 -2.244 12.421 -0.613 16.123 c 3.621 8.217 7.247 12.257 14.047 15.65 c 8.012 3.998 9.812 4.177 18.047 1.783 c 4.769 -1.387 7.23 -2.987 11.607 -7.543 c 3.055 -3.18 6.133 -5.779 6.84 -5.779 c 0.707 0 3.683 -1.033 6.613 -2.293 c 6.148 -2.645 8.801 -7.192 10.055 -17.225 c 0.65 -5.206 0.465 -6.161 -1.564 -7.998 c -4.192 -3.794 -4.59 -5.633 -2.092 -9.676 c 3.477 -5.626 4.001 -14.146 1.207 -19.623 c -1.836 -3.6 -3.004 -5.203 -3.996 -5.076 z" fill="blue" stroke="none"/>
	<path d="m 21.616 43.699 h 14.796 v 16.805 h 9.02 L 29.014 89.53 L 13.961 60.504 h 7.655 z" fill="white" stroke="none"/>
</g></svg>
