<svg xmlns="http://www.w3.org/2000/svg" xmlns:xlink="http://www.w3.org/1999/xlink" viewBox="0 0 100 100"><g id="SteamPlus">
	<path d="M 42.789 0.006 C 41.752 0.082 40.984 1.01 40.25 2.854 C 39.596 4.498 37.655 8.29 35.936 11.279 C 33.07 16.262 32.932 16.962 34.311 19.674 C 35.138 21.301 37.617 23.855 39.816 25.35 C 43.911 28.132 46.627 28.207 51.826 25.686 C 55.196 24.051 55.013 19.782 51.451 16.98 C 49.208 15.216 48.757 14.126 49.25 11.66 C 49.981 8.005 48.42 3.332 45.805 1.346 C 44.564 0.403 43.595 -0.053 42.789 0.006 z M 61.971 21.311 L 60.619 24.447 C 58.756 28.767 56.451 30.861 51.922 32.355 C 49.188 33.258 47.204 33.303 45.117 32.51 C 40.277 30.669 18.801 31.098 14.541 33.119 C 9.987 35.28 5.354 41.224 5.354 44.906 C 5.354 46.441 4.864 47.697 4.266 47.697 C 2.789 47.697 2.881 55.66 4.375 57.154 C 5.245 58.025 4.762 59.733 2.6 63.422 C 0.015 67.833 -0.298 69.305 0.195 74.75 C 0.507 78.192 1.762 82.966 2.98 85.355 C 5.718 90.721 12.976 97.423 17.014 98.314 C 18.673 98.681 20.519 99.144 21.117 99.344 C 26.377 101.098 34.949 99.197 39.27 95.318 C 41.244 93.546 43.358 91.769 43.971 91.367 C 44.583 90.966 45.939 89.291 46.984 87.646 C 48.398 85.424 49.762 84.658 52.299 84.658 C 56.455 84.658 64.188 80.302 66.621 76.588 C 69.073 72.846 69.14 58.356 66.715 56.344 C 63.444 53.63 62.698 50.989 64.447 48.32 C 66.576 45.072 68.721 33.127 67.871 29.256 C 67.505 27.59 66.027 25.122 64.588 23.77 L 61.971 21.311 z" fill="red" stroke="none"/>
	<path d="M 29.278 39.604 L 45.846 68.895 H 36.744 V 85.853 H 21.813 V 68.895 h -7.725 z" fill="white" stroke="none"/>
</g></svg>
