<svg xmlns="http://www.w3.org/2000/svg" xmlns:xlink="http://www.w3.org/1999/xlink" viewBox="0 0 100 100"><path id="Wave" d="M 50 0 A 50 50 0 0 0 0.914 41.031 C 2.336 40.075 3.986 39.333 5.977 39.707 C 9.491 40.368 11.942 42.888 13.678 45.803 C 15.414 48.718 16.61 52.154 17.795 55.408 C 18.98 58.662 20.168 61.732 21.559 63.764 C 22.949 65.795 24.202 66.72 26.297 66.646 C 29.122 66.548 30.757 64.946 32.326 61.824 C 33.896 58.702 35.009 54.248 36.15 49.705 C 37.292 45.162 38.456 40.526 40.516 36.793 C 42.575 33.06 45.93 30.124 50.613 30.125 C 52.839 30.126 54.835 30.906 56.377 32.186 C 57.918 33.465 59.038 35.172 59.938 37.082 C 61.737 40.903 62.716 45.639 63.707 50.266 C 64.698 54.892 65.705 59.41 67.18 62.498 C 67.917 64.042 68.757 65.199 69.652 65.916 C 70.548 66.633 71.471 66.986 72.834 66.949 C 74.887 66.894 76.209 65.885 77.609 63.834 C 79.01 61.783 80.209 58.766 81.414 55.564 C 82.619 52.363 83.843 48.979 85.584 46.07 C 87.325 43.162 89.713 40.624 93.148 39.736 C 95.573 39.11 97.551 40.24 99.221 41.225 A 50 50 0 0 0 50 0 z M 50.611 34.125 C 47.46 34.124 45.692 35.69 44.018 38.725 C 42.344 41.759 41.165 46.156 40.029 50.68 C 38.893 55.203 37.798 59.847 35.9 63.621 C 34.003 67.395 30.914 70.488 26.438 70.645 C 22.863 70.769 20.08 68.685 18.258 66.023 C 16.435 63.362 15.231 60.054 14.037 56.777 C 12.843 53.5 11.672 50.251 10.242 47.85 C 8.812 45.449 7.298 44.024 5.236 43.637 C 5.009 43.594 3.154 44.283 1.68 45.449 C 1.12 45.892 0.636 46.328 0.215 46.723 A 50 50 0 0 0 0 50 A 50 50 0 0 0 50 100 A 50 50 0 0 0 100 50 A 50 50 0 0 0 99.863 46.482 C 99.733 46.377 98.741 45.579 97.424 44.803 C 96.018 43.974 94.286 43.574 94.148 43.609 C 92.052 44.151 90.469 45.698 89.016 48.125 C 87.563 50.552 86.37 53.752 85.156 56.975 C 83.943 60.197 82.719 63.445 80.914 66.09 C 79.109 68.734 76.444 70.852 72.943 70.947 C 70.721 71.007 68.707 70.283 67.152 69.039 C 65.598 67.795 64.473 66.11 63.57 64.221 C 61.765 60.441 60.789 55.731 59.797 51.104 C 58.805 46.476 57.799 41.931 56.318 38.787 C 55.578 37.215 54.732 36.019 53.822 35.264 C 52.912 34.509 51.972 34.125 50.611 34.125 z"/></svg>
