<?xml version="1.0" encoding="UTF-8" standalone="no"?>
<svg
   viewBox="0 0 10.52 10.52"
   version="1.1"
   id="svg20"
   sodipodi:docname="fh-shadow.svg"
   inkscape:version="1.1.2 (0a00cf5339, 2022-02-04)"
   xmlns:inkscape="http://www.inkscape.org/namespaces/inkscape"
   xmlns:sodipodi="http://sodipodi.sourceforge.net/DTD/sodipodi-0.dtd"
   xmlns="http://www.w3.org/2000/svg"
   xmlns:svg="http://www.w3.org/2000/svg">
  <sodipodi:namedview
     id="namedview22"
     pagecolor="#ffffff"
     bordercolor="#666666"
     borderopacity="1.0"
     inkscape:pageshadow="2"
     inkscape:pageopacity="0.0"
     inkscape:pagecheckerboard="0"
     showgrid="false"
     inkscape:zoom="82.984787"
     inkscape:cx="5.2600002"
     inkscape:cy="5.2600002"
     inkscape:window-width="1846"
     inkscape:window-height="1136"
     inkscape:window-x="0"
     inkscape:window-y="0"
     inkscape:window-maximized="1"
     inkscape:current-layer="svg20" />
  <defs
     id="defs4">
    <style
       id="style2">.cls-1{fill:#231f20;}</style>
  </defs>
  <g
     id="Layer_2"
     data-name="Layer 2"
     style="fill:#000000">
    <g
       id="Layer_1-2"
       data-name="Layer 1"
       style="fill:#000000">
      <path
         class="cls-1"
         d="M1.63,1.76,8.76,8.9a.23.23,0,0,0,.32,0l.1-.1a.67.67,0,0,0,0-.93L2.66,1.37a.68.68,0,0,0-.93,0l-.1.1a.21.21,0,0,0,0,.31"
         id="path6"
         style="fill:#000000" />
      <path
         class="cls-1"
         d="M9.66,2.9a.14.14,0,0,0,.23-.17A5.12,5.12,0,0,0,9,1.53,5.38,5.38,0,0,0,7.8.63a.15.15,0,0,0-.18.24Z"
         id="path8"
         style="fill:#000000" />
      <path
         class="cls-1"
         d="M2.9.55h0a.25.25,0,0,0-.06.39L9.58,7.69A.24.24,0,0,0,10,7.63h0a.87.87,0,0,0-.16-1L3.9.71a.87.87,0,0,0-1-.16"
         id="path10"
         style="fill:#000000" />
      <path
         class="cls-1"
         d="M1.65,2.38a.56.56,0,0,0-.86.1A5.27,5.27,0,0,0,8.05,9.73a.54.54,0,0,0,.1-.85Z"
         id="path12"
         style="fill:#000000" />
      <path
         class="cls-1"
         d="M5.67,0h0a.11.11,0,0,0-.09.19l4.76,4.75a.1.1,0,0,0,.18-.08h0A1.37,1.37,0,0,0,10.11,4L6.57.41A1.45,1.45,0,0,0,5.67,0"
         id="path14"
         style="fill:#000000" />
      <path
         class="cls-1"
         d="M4.22.09h0a.15.15,0,0,0-.07.26l6,6a.15.15,0,0,0,.25-.08h0a1.05,1.05,0,0,0-.29-1l-5-5a1.06,1.06,0,0,0-1-.29"
         id="path16"
         style="fill:#000000" />
    </g>
  </g>
</svg>
