<svg xmlns="http://www.w3.org/2000/svg" xmlns:xlink="http://www.w3.org/1999/xlink" viewBox="0 0 100 100"><path id="Tide" d="M 27.872 97.221 C 20.669 94.338 11.068 83.656 14.033 81.823 c 0.651 -0.402 4.384 0.936 8.297 2.973 c 9.32 4.853 14.787 4.859 21.461 0.024 c 5.229 -3.788 10.287 -4.56 12.489 -1.906 c 5.072 6.111 16.991 5.014 25.348 -2.335 c 4.05 -3.561 6.566 -0.986 3.96 4.052 c -4.842 9.363 -16.885 14.428 -24.983 10.508 c -6.699 -3.243 -13.385 -3.092 -20.042 0.452 c -5.715 3.042 -8.325 3.378 -12.692 1.63 z M 25.882 74.812 C 21.237 71.648 19.178 71.368 10.438 72.713 C 1.762 74.049 1.437 69.218 9.798 63.214 C 14.637 59.739 14.637 59.739 20.895 62.644 c 10.365 4.811 14.847 4.783 22.827 -0.143 c 6.799 -4.197 6.799 -4.197 12.547 -1.191 c 8.944 4.676 13.187 4.772 21.179 0.477 c 6.143 -3.301 7.175 -3.526 10.877 -2.367 c 11.281 3.531 11.276 10.418 -0.008 10.259 c -5.86 -0.082 -7.814 0.452 -12.655 3.461 c -6.881 4.278 -9.694 4.43 -15.022 0.815 c -6.921 -4.697 -9.846 -4.724 -18.583 -0.169 c -9.327 4.861 -10.439 4.932 -16.174 1.025 z M 25.436 53.229 c -4.96 -3.659 -12.644 -3.871 -18.173 -0.5 c -8.658 5.278 -10.055 -2.385 -1.577 -8.649 c 7.584 -5.603 9.425 -5.865 16.97 -2.411 c 9.835 4.503 15.03 3.963 22.619 -2.35 c 3.715 -3.091 6.744 -3.434 8.769 -0.994 c 4.808 5.793 17.899 6.017 25.073 0.429 c 3.771 -2.937 5.74 -2.698 13.463 1.637 c 10.429 5.855 9.646 12.545 -0.972 8.297 c -5.955 -2.383 -10.168 -1.681 -16.939 2.822 c -5.986 3.981 -8.93 4.274 -12.748 1.271 c -7.333 -5.768 -14.154 -5.412 -22.614 1.181 c -3.804 2.965 -9.248 2.676 -13.871 -0.734 z M 25.066 31.697 C 22.659 29.827 20.256 29.181 15.664 29.172 C 4.5 29.149 5.522 23.573 18.755 12.305 C 40.09 -5.86 69.743 -3.699 88.241 17.37 c 4.655 5.301 3.583 10.074 -1.827 8.133 c -2.137 -0.767 -8.598 1.659 -12.928 4.854 c -4.94 3.644 -6.584 3.571 -14.982 -0.669 c -8.012 -4.044 -10.556 -3.87 -18.673 1.277 c -6.267 3.974 -10.334 4.176 -14.766 0.731 z" stroke="none"/></svg>
