<?xml version="1.0" encoding="UTF-8" standalone="no"?>
<!-- Created with Inkscape (http://www.inkscape.org/) -->

<svg
   width="5.821877mm"
   height="5.7587318mm"
   viewBox="0 0 5.821877 5.7587318"
   version="1.1"
   id="svg1416"
   xml:space="preserve"
   inkscape:version="1.2.2 (b0a8486541, 2022-12-01)"
   sodipodi:docname="gh2e-tear.svg"
   xmlns:inkscape="http://www.inkscape.org/namespaces/inkscape"
   xmlns:sodipodi="http://sodipodi.sourceforge.net/DTD/sodipodi-0.dtd"
   xmlns="http://www.w3.org/2000/svg"
   xmlns:svg="http://www.w3.org/2000/svg"><sodipodi:namedview
     id="namedview1418"
     pagecolor="#ffffff"
     bordercolor="#000000"
     borderopacity="0.25"
     inkscape:showpageshadow="2"
     inkscape:pageopacity="0.0"
     inkscape:pagecheckerboard="0"
     inkscape:deskcolor="#d1d1d1"
     inkscape:document-units="mm"
     showgrid="false"
     inkscape:zoom="13.899884"
     inkscape:cx="22.230402"
     inkscape:cy="5.143928"
     inkscape:window-width="1854"
     inkscape:window-height="1011"
     inkscape:window-x="0"
     inkscape:window-y="0"
     inkscape:window-maximized="1"
     inkscape:current-layer="layer1" /><defs
     id="defs1413" /><g
     inkscape:label="Layer 1"
     inkscape:groupmode="layer"
     id="layer1"
     transform="translate(0.66137612,-99.517638)"><path
       style="fill:#000000;stroke-width:0.264583"
       d="m 1.082325,104.94729 c -0.22653839,-0.16565 -0.66755128,-0.35721 -0.66877786,-0.44108 -0.00136,-0.093 0.46401916,-0.0764 0.76316486,-0.23647 0.3242333,-0.17352 0.7007432,-0.60805 0.8366888,-0.96562 0.1359455,-0.35756 0.5307266,-0.75792 0.8772916,-0.88968 0.3465648,-0.13177 0.7053551,-0.43564 0.7973118,-0.67527 0.2643513,-0.68889 1.3415158,-0.39872 1.4529062,0.39139 0.2807766,1.99159 -2.5244866,3.93849 -4.0585854,2.81673 z m 3.3044053,-1.62233 c 0,-0.21828 -0.1785937,-0.39688 -0.396875,-0.39688 -0.2182812,0 -0.396875,0.1786 -0.396875,0.39688 0,0.21828 0.1785938,0.39687 0.396875,0.39687 0.2182813,0 0.396875,-0.17859 0.396875,-0.39687 z m -4.61360054,0.60487 c -1.13668206,-1.62284 0.0864741,-4.085723 2.16620474,-4.361758 0.7639108,-0.101392 1.1244792,-0.05057 1.1244792,0.158476 0,0.169249 -0.1785938,0.376262 -0.396875,0.460022 -0.2182813,0.0838 -0.396875,0.30541 -0.396875,0.49255 0,0.18715 -0.1616644,0.4023 -0.3592539,0.47812 -0.1975898,0.0758 -0.4508877,0.53505 -0.5628844,1.0205 -0.1119966,0.48545 -0.2371041,1.02908 -0.2780167,1.20807 -0.040913,0.179 -0.25639118,0.50745 -0.47884138,0.7299 -0.13797667,0.13798 0.0141789,0.42025 -0.074279,0.44071 -0.14418996,0.0333 -0.51373081,-0.29832 -0.74365856,-0.62659 z m 0.90943397,-1.39862 c 0,-0.21828 -0.1190625,-0.39688 -0.26458333,-0.39688 -0.14552084,0 -0.26458333,0.1786 -0.26458333,0.39688 0,0.21828 0.11906249,0.39687 0.26458333,0.39687 0.14552083,0 0.26458333,-0.17859 0.26458333,-0.39687 z m 0.79374997,-2.11667 c 0,-0.21828 -0.1785937,-0.39687 -0.396875,-0.39687 -0.21828123,0 -0.39687497,0.17859 -0.39687497,0.39687 0,0.21828 0.17859374,0.39688 0.39687497,0.39688 0.2182813,0 0.396875,-0.1786 0.396875,-0.39688 z"
       id="path1607"
       sodipodi:nodetypes="csccccscsssssccscscsccscssssssssss" /></g></svg>
