<?xml version="1.0" encoding="UTF-8"?>
<svg version="1.1" xmlns="http://www.w3.org/2000/svg" width="347" height="347">
<path d="M0 0 C0.9375 1.75 0.9375 1.75 0.6640625 3.65234375 C-0.14307284 5.9826216 -1.13164499 7.21477184 -2.75 9.0625 C-5.7506397 12.91114657 -7.58464922 16.87632479 -9.375 21.375 C-9.62918701 22.00833252 -9.88337402 22.64166504 -10.14526367 23.29418945 C-15.86900609 38.20005248 -12.36860195 51.89066274 -6.9765625 66.296875 C-4.56244061 72.77580042 -3.58624113 78.90001736 -3.0625 85.75 C-0.85599437 86.65706993 -0.85599437 86.65706993 1.9375 86.75 C4.94339988 84.99548187 4.94339988 84.99548187 7.8125 82.375 C8.3391626 81.92036377 8.8658252 81.46572754 9.40844727 80.99731445 C13.26326723 77.57996291 16.45937701 73.88783772 19.48828125 69.71484375 C21.3988106 67.12455732 23.60439554 64.96030948 25.9375 62.75 C27.0821875 61.38875 27.0821875 61.38875 28.25 60 C31.96742467 56.88773749 34.11461587 56.75 38.9375 56.75 C41.2016766 58.13772114 41.72296917 59.05540017 42.49609375 61.55859375 C46.37758309 80.82864262 39.93322494 99.61075208 29.9375 115.75 C25.94605299 121.17628091 20.78902942 124.30215709 14.9765625 127.5859375 C13.00951214 128.59014934 13.00951214 128.59014934 11.9375 129.75 C10.57062444 129.98629151 9.19443462 130.16931607 7.81640625 130.328125 C-7.5681293 131.71056148 -7.5681293 131.71056148 -19.94921875 139.96875 C-25.06231509 147.31063192 -26.04476463 153.85504807 -25.0625 162.75 C-23.73169282 165.68309902 -22.63095787 166.64853447 -20.0625 168.75 C-13.76850959 170.8479968 -6.85735109 170.92001431 -0.75 168.36328125 C6.63935494 164.18865793 11.45263534 160.42356511 13.875 152.0625 C18.64195587 137.10159234 25.67179375 128.70480031 39.4375 121.125 C40.62980225 120.44920898 40.62980225 120.44920898 41.84619141 119.75976562 C47.44763578 116.84088167 51.7854497 116.02511222 57.9375 117.75 C60.53698582 118.70372246 61.63370161 119.14783374 62.89355469 121.64501953 C62.9375 123.75 62.9375 123.75 61.62988281 125.57763672 C60.97342773 126.18881348 60.31697266 126.79999023 59.640625 127.4296875 C58.9290625 128.11160156 58.2175 128.79351562 57.484375 129.49609375 C56.34742188 130.54990234 56.34742188 130.54990234 55.1875 131.625 C47.34692709 138.961925 43.30172618 144.26415301 42.76391602 155.31762695 C42.72802368 157.25835083 42.72802368 157.25835083 42.69140625 159.23828125 C42.65846121 160.68164654 42.62524967 162.12500577 42.59179688 163.56835938 C42.5445656 165.8127014 42.5000962 168.05702004 42.46069336 170.30151367 C42.12386929 188.64128192 38.00085162 201.50088315 24.84375 214.87890625 C16.77143787 222.36853388 8.58117987 228.19414987 -2.6875 228.02734375 C-8.0793312 227.39770557 -11.863707 224.92025031 -15.6875 221.1875 C-17.73946917 218.48324924 -19.24548348 215.56808907 -20.8125 212.5625 C-23.67564311 207.09104851 -27.26280208 202.61367896 -31.3046875 197.96484375 C-33.0625 195.75 -33.0625 195.75 -33.0625 193.75 C-33.7225 193.75 -34.3825 193.75 -35.0625 193.75 C-36.47265625 191.80078125 -36.47265625 191.80078125 -38.125 189.0625 C-41.58144189 183.46118012 -45.26449655 178.07792798 -49.046875 172.6953125 C-50.27245301 170.90444851 -51.45516947 169.08184514 -52.5546875 167.2109375 C-54.30715413 164.35069403 -56.30620672 161.83955771 -58.4375 159.25 C-59.18773437 158.3321875 -59.93796875 157.414375 -60.7109375 156.46875 C-63.03509989 153.71207315 -63.03509989 153.71207315 -65.65234375 151.1796875 C-67.81611029 148.99838639 -69.52372102 146.90450905 -71.25 144.375 C-72.13171875 143.08722656 -72.13171875 143.08722656 -73.03125 141.7734375 C-76.67367109 136.3518338 -80.31583492 130.9300693 -83.90966797 125.47607422 C-85.02419412 123.80735335 -86.17753995 122.16476249 -87.33203125 120.5234375 C-89.54982337 116.96896254 -89.67256133 114.86791396 -89.0625 110.75 C-87.03235223 108.13690399 -85.90609089 106.88340042 -82.59228516 106.359375 C-81.68784668 106.40578125 -80.7834082 106.4521875 -79.8515625 106.5 C-78.85382813 106.5309375 -77.85609375 106.561875 -76.828125 106.59375 C-74.74216817 106.69752895 -72.65623046 106.80169271 -70.5703125 106.90625 C-64.50746654 107.0937607 -60.74576012 107.07581503 -56.0625 102.75 C-53.98015192 100.32638929 -53.98015192 100.32638929 -52.3125 97.6875 C-51.74015625 96.83027344 -51.1678125 95.97304687 -50.578125 95.08984375 C-50.07796875 94.31769531 -49.5778125 93.54554688 -49.0625 92.75 C-48.0725 91.265 -48.0725 91.265 -47.0625 89.75 C-46.17396916 83.89954369 -46.81163607 77.76094706 -50.0625 72.75 C-52.53539844 70.34787474 -55.1288193 68.13046153 -57.7421875 65.8828125 C-61.81720394 62.13709032 -62.85728177 58.95409713 -63.36328125 53.51953125 C-63.79560087 41.99512539 -60.58593376 34.68903058 -52.9375 26.25 C-52.07209595 25.28126953 -52.07209595 25.28126953 -51.18920898 24.29296875 C-41.65742667 13.75693802 -15.89440678 -9.63297381 0 0 Z " fill="#000000" transform="translate(284.0625,57.25)"/>
<path d="M0 0 C9.31944518 1.19690383 9.31944518 1.19690383 18.66796875 2.12890625 C19.52076416 2.20383301 20.37355957 2.27875977 21.25219727 2.35595703 C22.82060539 2.48897691 24.39015495 2.60943925 25.96069336 2.71435547 C31.29404431 3.18267343 34.51495557 4.81349294 39.0625 7.625 C41.32120965 8.41523637 41.32120965 8.41523637 43.5 8.875 C52.68609119 11.41884064 62.13195973 16.34780034 70.0625 21.625 C71.94152845 25.02514672 72.28250976 27.77482923 72.0625 31.625 C71.5360791 31.85791748 71.0096582 32.09083496 70.46728516 32.33081055 C67.99761134 33.42572259 65.52987896 34.52492636 63.0625 35.625 C61.77617676 36.19661865 61.77617676 36.19661865 60.46386719 36.77978516 C57.78031313 37.98194956 55.10854416 39.20781901 52.4375 40.4375 C51.53515625 40.83775391 50.6328125 41.23800781 49.703125 41.65039062 C44.36946036 44.12673492 40.49437348 46.73201002 36.50634766 51.0612793 C34.35004793 53.39660221 31.85205075 55.08048224 29.25 56.875 C22.5263365 62.2539308 18.29684336 68.01955826 14.3125 75.625 C13.84457031 76.48867187 13.37664062 77.35234375 12.89453125 78.2421875 C6.83313307 88.81919608 6.83313307 88.81919608 6.0625 100.625 C7.92870518 106.17918209 10.1892296 111.42873681 13.4375 116.3125 C15.56649802 120.65238059 15.33176499 124.01274129 14.0625 128.625 C13.4025 129.615 12.7425 130.605 12.0625 131.625 C8.75 132.125 8.75 132.125 5.0625 131.625 C1.59940831 129.00656482 -0.45265519 125.86275999 -2.75 122.25 C-8.13014927 114.08467245 -13.87383658 109.82679632 -23.38671875 107.28125 C-35.0306332 105.12923941 -48.56145767 106.15439974 -59.60546875 110.73046875 C-64.24380975 112.50966488 -68.74049236 111.3957535 -73.3203125 109.7890625 C-79.1817346 107.13163319 -83.80342702 103.3557556 -88.60327148 99.14990234 C-92.60794058 95.70805511 -95.98360116 94.24782893 -100.9375 92.625 C-106.05397492 89.34273307 -107.56257473 86.60509965 -109.18359375 81.01953125 C-111.63198448 73.24303635 -115.8638197 68.32560644 -122.14453125 63.25390625 C-122.73621094 62.71636719 -123.32789062 62.17882812 -123.9375 61.625 C-123.9375 60.965 -123.9375 60.305 -123.9375 59.625 C-124.618125 59.41875 -125.29875 59.2125 -126 59 C-130.26610149 57.00310143 -134.78538222 53.92923557 -136.9375 49.625 C-137.47633853 45.67351743 -137.18766959 44.01235937 -135 40.625 C-132.18795539 37.584526 -128.92635738 35.45165687 -125.4375 33.25390625 C-122.7822558 31.5238487 -120.3202242 29.62426914 -117.8125 27.6875 C-111.88962112 23.34845503 -105.55392231 20.41963797 -98.87255859 17.49267578 C-96.96287925 16.63638 -95.0842699 15.73361706 -93.20703125 14.80859375 C-81.39425227 9.0134694 -69.50030152 4.89486432 -56.41796875 3.0234375 C-53.4577668 2.54794049 -50.76351236 1.61081827 -47.9375 0.625 C-42.50723444 -0.29608302 -37.11623009 -0.66845178 -31.625 -0.9375 C-30.43874023 -1.00227539 -30.43874023 -1.00227539 -29.22851562 -1.06835938 C-19.30744632 -1.57609891 -9.858978 -1.29173359 0 0 Z " fill="#000000" transform="translate(195.9375,8.375)"/>
<path d="M0 0 C1.11503906 0.33386719 2.23007812 0.66773438 3.37890625 1.01171875 C14.98290971 4.77957748 23.26337533 9.95418544 29 21 C29 21.66 29 22.32 29 23 C29.57234375 23.2475 30.1446875 23.495 30.734375 23.75 C35.5338023 26.39795989 38.57647439 30.12416581 41 35 C42.08950696 40.92956766 41.5052126 47.03121402 41 53 C40.91621094 54.07378906 40.83242188 55.14757812 40.74609375 56.25390625 C40.58754322 58.02312888 40.41903723 59.79150171 40.23828125 61.55859375 C39.31782543 70.98949357 39.89017913 78.59700274 45.8125 86.3828125 C51.61244741 92.67319663 58.38562653 96.28239413 66 100 C66.99257812 100.52464844 67.98515625 101.04929687 69.0078125 101.58984375 C81.60937269 108.82116037 81.60937269 108.82116037 95.3046875 110.2890625 C98.19813721 109.18745695 98.19813721 109.18745695 99.75 106.375 C102.24913069 103.73702872 102.83099308 103.4914866 106.3125 103.1875 C112.62806669 103.51019319 117.50903209 106.64115471 122.84765625 109.70703125 C127.93187569 112.59810609 133.27230753 114.85683861 138.65820312 117.12109375 C143.12422738 119.03568362 147.16485304 121.24610847 151.24682617 123.88208008 C153.24865274 125.15855465 155.29477256 126.22926784 157.4375 127.25 C166.91557215 131.89381587 176.39353835 136.69756285 185.375 142.25 C191.43241988 145.97526163 197.89049587 148.77840909 204.5 151.375 C211.03175727 154.40760159 218.46362078 158.27157953 223 164 C222.96004204 166.64221982 222.35087431 167.63512804 220.53125 169.52734375 C202.31071461 182.17660005 169.72591901 185.59694789 148 184 C147.01 183.67 146.02 183.34 145 183 C143.53425879 182.92099327 142.0655224 182.89164564 140.59765625 182.89453125 C129.66345491 182.75849142 120.17920029 181.63467793 109.79174805 178.15576172 C105.41161732 176.6935093 101.53125581 175.6399459 96.875 175.4375 C88.03884922 175.01149584 80.72509501 169.28082587 73.328125 164.87109375 C70.31661129 163.17800095 67.28713736 161.68475418 64.16479492 160.21606445 C55.08123606 155.9140127 47.62031393 150.51252574 40 144 C39.09894531 143.25105469 38.19789062 142.50210938 37.26953125 141.73046875 C33.0165467 138.10190281 30.10652717 134.65979076 27 130 C25.56606108 128.70170395 24.10455085 127.43356691 22.625 126.1875 C18.06797309 122.26442937 15.11784241 118.09393971 12 113 C11.04569744 111.60140782 10.08728108 110.20561471 9.125 108.8125 C6.08720613 104.2838627 3.42360945 99.5631118 0.80322266 94.78442383 C-1.03894516 91.4165104 -1.03894516 91.4165104 -3.58203125 88.58203125 C-5.97593483 85.91114709 -6.57388445 82.45327789 -7.5 79.0625 C-7.69980469 78.36576172 -7.89960938 77.66902344 -8.10546875 76.95117188 C-8.75991541 74.63976631 -9.38387943 72.3219146 -10 70 C-10.24661377 69.08001221 -10.49322754 68.16002441 -10.74731445 67.2121582 C-14.7895905 51.66543418 -17.33939874 35.45628516 -17.4375 19.375 C-17.44740967 18.55394775 -17.45731934 17.73289551 -17.4675293 16.88696289 C-17.37541041 10.47111419 -16.48921059 3.56242267 -11.875 -1.1875 C-7.54826727 -2.41027229 -4.15723685 -1.30621933 0 0 Z " fill="#000000" transform="translate(17,156)"/>
<path d="M0 0 C4.13430053 3.12297457 6.97208418 7.35194301 9.99609375 11.5078125 C11.49579416 13.48720619 12.99580127 15.46636753 14.49609375 17.4453125 C17.95725691 22.0857476 21.36545264 26.76228671 24.7578125 31.453125 C26.98823966 34.49709366 29.25391189 37.51164689 31.52807617 40.52294922 C36.95248921 47.70728294 42.11908235 54.96027836 46.93359375 62.5703125 C49.10850933 65.66791955 51.494536 68.41901353 54.00390625 71.24609375 C60.48657152 78.6058255 66.16263987 85.97061734 70.99609375 94.5078125 C74.14939818 99.91789362 77.71679622 104.72991629 81.66796875 109.5859375 C84.47681063 113.11112832 87.18742044 116.69933654 89.87109375 120.3203125 C90.34756348 120.95461182 90.8240332 121.58891113 91.31494141 122.24243164 C95.27905698 127.62392833 97.31506687 131.64989052 96.99609375 138.5078125 C90.71778598 140.00914697 85.92237465 139.01731255 79.99609375 136.5078125 C78.22677686 135.36983776 76.61236081 134.12592889 74.9609375 132.82421875 C71.59785093 130.57101761 67.80111975 129.31439697 64.05078125 127.83203125 C61.10678326 126.55579683 58.51885556 125.0925571 55.80859375 123.3828125 C52.84371131 121.52332067 50.23614795 120.1431255 46.87109375 119.1953125 C38.38003785 116.67381826 30.24121501 111.40345506 22.9609375 106.4375 C19.68737533 104.30688114 16.2989372 102.66413279 12.74609375 101.0703125 C11.41098822 100.45935961 10.0763527 99.84737861 8.7421875 99.234375 C8.09878418 98.93950195 7.45538086 98.64462891 6.79248047 98.34082031 C2.81160336 96.49483598 -1.09099959 94.49243876 -5.00390625 92.5078125 C-6.92003513 91.54840435 -8.83673467 90.59013533 -10.75390625 89.6328125 C-12.25824219 88.87871094 -12.25824219 88.87871094 -13.79296875 88.109375 C-16.03366561 86.99175248 -18.27883401 85.88306963 -20.52734375 84.78125 C-26.56591584 81.81487632 -32.44543777 78.73404952 -38.16015625 75.171875 C-40.48917552 73.80901482 -42.817604 72.56215455 -45.22265625 71.34375 C-45.97828857 70.95815918 -46.7339209 70.57256836 -47.51245117 70.17529297 C-49.01204309 69.4154065 -50.51722231 68.66641507 -52.02856445 67.93017578 C-56.89070942 65.45626625 -60.06666987 63.17045886 -63.00390625 58.5078125 C-63.65038806 53.29366478 -62.56868783 48.4880249 -61.31640625 43.4453125 C-61.16751953 42.76404297 -61.01863281 42.08277344 -60.86523438 41.38085938 C-59.43764782 35.55294722 -56.8734472 31.47549772 -51.81640625 28.0078125 C-44.81605663 26.7633059 -38.09657213 29.62870097 -31.9140625 32.703125 C-29.88857942 33.70192525 -29.88857942 33.70192525 -27.00390625 33.5078125 C-28.03886582 29.47147017 -29.6002942 26.5369195 -32.00390625 23.1953125 C-34.92722201 18.95363865 -36.92385254 14.741324 -37.00390625 9.5078125 C-36.0590221 6.87765951 -35.41389912 5.74810209 -32.97607422 4.31933594 C-32.15768066 4.00512695 -31.33928711 3.69091797 -30.49609375 3.3671875 C-29.13871094 2.84511719 -29.13871094 2.84511719 -27.75390625 2.3125 C-26.80515625 1.96445313 -25.85640625 1.61640625 -24.87890625 1.2578125 C-23.95335937 0.89429688 -23.0278125 0.53078125 -22.07421875 0.15625 C-14.34780979 -2.74660986 -7.53454037 -4.20054298 0 0 Z " fill="#000000" transform="translate(178.00390625,172.4921875)"/>
<path d="M0 0 C5.90712925 6.20017222 9.59306587 15.08892477 11.24609375 23.3828125 C12.62308738 27.87443457 15.8144576 29.50360849 19.74609375 31.6328125 C20.99944567 32.28871592 22.25467585 32.94104218 23.51171875 33.58984375 C37.85320542 40.99321161 37.85320542 40.99321161 40.24609375 47.5703125 C40.16166572 50.94743377 39.57105733 52.22503869 37.24609375 54.6953125 C34.084476 56.67132359 31.19126537 57.69457293 27.66015625 58.8046875 C19.86754111 61.05212045 19.86754111 61.05212045 14.37109375 66.5703125 C13.28897569 69.88116379 12.60385808 73.30607079 11.80859375 76.6953125 C9.79997389 84.9049024 9.79997389 84.9049024 6.24609375 87.5703125 C2.02667008 87.72374609 0.00529774 87.23218265 -3.19140625 84.4453125 C-4.03703125 83.4965625 -4.88265625 82.5478125 -5.75390625 81.5703125 C-7.07915386 80.45645408 -8.41315905 79.35296489 -9.75390625 78.2578125 C-13.2174281 75.28722634 -15.28301994 72.2932089 -17.53515625 68.3671875 C-20.04547335 64.66607896 -23.62546088 62.94646096 -27.75390625 61.5703125 C-29.60716457 61.4687641 -31.46160339 61.38802369 -33.31640625 61.3203125 C-39.73912533 60.82387045 -44.30715371 58.90621284 -49.75390625 55.5703125 C-50.43710937 55.17585938 -51.1203125 54.78140625 -51.82421875 54.375 C-57.0114264 51.09772655 -58.83360045 47.29014994 -60.3125 41.3125 C-60.859635 37.91348437 -60.92394905 34.63787272 -60.94140625 31.1953125 C-60.95558594 29.92945313 -60.96976563 28.66359375 -60.984375 27.359375 C-60.53120097 19.9088867 -58.39110264 15.37895901 -53.56640625 9.9453125 C-53.07027832 9.37627197 -52.57415039 8.80723145 -52.06298828 8.22094727 C-38.91932218 -6.54589531 -16.60352809 -13.53427902 0 0 Z " fill="#000000" transform="translate(61.75390625,80.4296875)"/>
<path d="M0 0 C4.63375262 4.30928854 8.8111354 9.83116041 11.16015625 15.72265625 C11.0390625 18.39453125 11.0390625 18.39453125 10.16015625 20.72265625 C8.59375 21.98046875 8.59375 21.98046875 6.59765625 22.84765625 C5.87835938 23.16734375 5.1590625 23.48703125 4.41796875 23.81640625 C1.60990659 24.94351771 -1.19953327 26.04983662 -4.046875 27.07421875 C-5.45185238 27.58233693 -6.83788672 28.14288487 -8.21484375 28.72265625 C-10.53756468 29.60750232 -12.83222986 30.33369591 -15.21484375 31.03515625 C-19.76067495 32.37902188 -24.27377829 33.80693222 -28.77734375 35.28515625 C-29.75356689 35.59996948 -29.75356689 35.59996948 -30.74951172 35.92114258 C-33.79461505 36.92861402 -36.14903698 37.92878507 -38.83984375 39.72265625 C-41.88844062 40.45516633 -44.94863135 41.0560872 -48.02734375 41.6484375 C-51.58831633 43.00853119 -52.25100665 44.32155184 -53.83984375 47.72265625 C-54.19046875 48.45484375 -54.54109375 49.18703125 -54.90234375 49.94140625 C-57.20475707 55.54394532 -58.65498049 61.05463879 -59.92578125 66.96875 C-61.22328708 72.29739573 -62.93521477 77.47214688 -64.64794922 82.6796875 C-66.20861114 87.49067763 -67.40091357 92.19165073 -68.33984375 97.16015625 C-69.2273653 101.16420464 -69.62805192 102.49069377 -72.46484375 105.59765625 C-78.10801723 107.47871408 -82.59030044 106.54460477 -88.08984375 104.53515625 C-92.4640071 101.65218495 -95.08900689 98.47460893 -97.15234375 93.66015625 C-98.89469449 83.6812384 -97.69176546 73.462995 -96.52734375 63.47265625 C-96.39199219 62.27624512 -96.25664063 61.07983398 -96.1171875 59.84716797 C-95.83561961 57.37073931 -95.5509442 54.89466202 -95.26318359 52.41894531 C-94.84877686 48.8006535 -94.46049846 45.18039518 -94.078125 41.55859375 C-93.83269985 39.32154113 -93.58663425 37.08455866 -93.33984375 34.84765625 C-93.23373779 33.81479492 -93.12763184 32.78193359 -93.01831055 31.71777344 C-92.25987779 25.09047625 -90.81425082 20.43746598 -86.83984375 14.97265625 C-83.09882173 12.16688974 -80.13828179 11.88449112 -75.58203125 11.25 C-72.95982391 10.74572936 -71.40472718 10.0891022 -69.15234375 8.72265625 C-64.60682391 6.16580134 -59.66098384 5.8731174 -54.56176758 5.40625 C-51.68424801 5.13289784 -49.13731582 4.84264575 -46.44482422 3.7565918 C-43.75500809 2.68898437 -41.30488637 2.15698047 -38.453125 1.6875 C-37.43154297 1.51798828 -36.40996094 1.34847656 -35.35742188 1.17382812 C-34.29974609 1.00431641 -33.24207031 0.83480469 -32.15234375 0.66015625 C-31.11400391 0.48677734 -30.07566406 0.31339844 -29.00585938 0.13476562 C-5.37548301 -3.73202324 -5.37548301 -3.73202324 0 0 Z " fill="#000000" transform="translate(172.83984375,134.27734375)"/>
</svg>
