<?xml version="1.0" encoding="UTF-8" standalone="no"?>
<!-- Created with Inkscape (http://www.inkscape.org/) -->

<svg
   width="11.328973mm"
   height="8.8022785mm"
   viewBox="0 0 11.328973 8.8022789"
   version="1.1"
   id="svg1794"
   xml:space="preserve"
   inkscape:version="1.2.2 (b0a8486541, 2022-12-01)"
   sodipodi:docname="gh2e-supplies-consumed.svg"
   xmlns:inkscape="http://www.inkscape.org/namespaces/inkscape"
   xmlns:sodipodi="http://sodipodi.sourceforge.net/DTD/sodipodi-0.dtd"
   xmlns="http://www.w3.org/2000/svg"
   xmlns:svg="http://www.w3.org/2000/svg"><sodipodi:namedview
     id="namedview1796"
     pagecolor="#ffffff"
     bordercolor="#000000"
     borderopacity="0.25"
     inkscape:showpageshadow="2"
     inkscape:pageopacity="0.0"
     inkscape:pagecheckerboard="0"
     inkscape:deskcolor="#d1d1d1"
     inkscape:document-units="mm"
     showgrid="false"
     inkscape:zoom="12.657033"
     inkscape:cx="5.4910183"
     inkscape:cy="18.448241"
     inkscape:window-width="1854"
     inkscape:window-height="1011"
     inkscape:window-x="0"
     inkscape:window-y="0"
     inkscape:window-maximized="1"
     inkscape:current-layer="layer1" /><defs
     id="defs1791" /><g
     inkscape:label="Layer 1"
     inkscape:groupmode="layer"
     id="layer1"
     transform="translate(33.826766,-95.460259)"><path
       id="rect1993"
       style="fill:#ffffff;stroke:#000000;stroke-width:0.15;stroke-linecap:square;stroke-linejoin:miter;stroke-dasharray:none;stroke-opacity:1"
       d="m -33.746178,95.541808 v 1.032495 l 9.930756,-0.0065 v -1.032495 z m 0.496093,0.280603 c 0.119642,0.002 0.218142,0.09464 0.227377,0.21394 l 5.16e-4,0.01757 c 1.11e-4,0.126385 -0.101014,0.229579 -0.227376,0.232027 -0.126229,0.0024 -0.231206,-0.09657 -0.236161,-0.222725 -0.0048,-0.126094 0.09211,-0.232881 0.218074,-0.240296 0.0058,-3.94e-4 0.01171,-5.66e-4 0.01757,-5.16e-4 z m 8.831599,0.0235 c 0.125977,-0.0072 0.2346,0.08762 0.24443,0.213424 l 0.001,0.01809 c 1.11e-4,0.126386 -0.101014,0.22958 -0.227376,0.232028 -0.12623,0.0024 -0.231208,-0.09657 -0.236162,-0.222726 -0.0051,-0.126292 0.0919,-0.233396 0.218075,-0.240812 z"
       sodipodi:nodetypes="ccccccccccccccccccc" /><path
       id="rect1995"
       style="fill:#ffffff;stroke:#000000;stroke-width:0.15;stroke-linecap:square;stroke-linejoin:miter;stroke-dasharray:none;stroke-opacity:1"
       d="m -24.626511,97.044563 h 0.790838 v 5.184957 h -0.790838 z" /><path
       id="rect1997"
       style="fill:#ffffff;stroke:#000000;stroke-width:0.15;stroke-linecap:square;stroke-linejoin:miter;stroke-dasharray:none;stroke-opacity:1"
       d="m -33.7103,97.041672 h 1.14254 v 5.182718 h -1.14254 z" /><path
       id="rect1999"
       style="fill:#ffffff;stroke:#000000;stroke-width:0.15;stroke-linecap:square;stroke-linejoin:miter;stroke-dasharray:none;stroke-opacity:1"
       d="m -33.751766,102.65428 v 0.94258 h 9.934794 v -0.94258 z m 0.471289,0.24753 a 0.23186722,0.23186722 0 0 1 0.244946,0.21394 l 5.17e-4,0.0176 a 0.23186722,0.23186722 0 0 1 -0.227377,0.23203 0.23186722,0.23186722 0 0 1 -0.236161,-0.22272 0.23186722,0.23186722 0 0 1 0.218075,-0.24082 z m 8.866125,0.0165 a 0.23186722,0.23186722 0 0 1 0.227893,0.21394 l 5.17e-4,0.0181 a 0.23186722,0.23186722 0 0 1 -0.227376,0.23202 0.23186722,0.23186722 0 0 1 -0.236162,-0.22324 0.23186722,0.23186722 0 0 1 0.218075,-0.24029 0.23186722,0.23186722 0 0 1 0.01705,-5.2e-4 z" /><path
       id="rect2001"
       style="fill:#ffffff;stroke:#000000;stroke-width:0.15;stroke-linecap:square;stroke-linejoin:miter;stroke-dasharray:none;stroke-opacity:1"
       d="m -26.25024,99.853593 0.981086,-0.666828 -0.02399,2.864865 -0.968372,0.022 z"
       sodipodi:nodetypes="ccccc" /><path
       id="rect2003"
       style="fill:#ffffff;stroke:#000000;stroke-width:0.15;stroke-linecap:square;stroke-linejoin:miter;stroke-dasharray:none;stroke-opacity:1"
       d="m -27.655286,100.29741 0.971414,-0.445942 v 2.145272 h -0.967346 z"
       sodipodi:nodetypes="ccccc" /><path
       id="rect2005"
       style="fill:#ffffff;stroke:#000000;stroke-width:0.15;stroke-linecap:square;stroke-linejoin:miter;stroke-dasharray:none;stroke-opacity:1"
       d="m -29.218173,100.7915 1.124428,-0.43281 0.0096,1.78089 h -1.165943 z"
       sodipodi:nodetypes="ccccc" /><path
       id="rect2007"
       style="fill:#ffffff;stroke:#000000;stroke-width:0.15;stroke-linecap:square;stroke-linejoin:miter;stroke-dasharray:none;stroke-opacity:1"
       d="m -30.541279,101.13934 0.930421,-0.25482 -0.01456,1.31831 h -0.92797 z"
       sodipodi:nodetypes="ccccc" /><path
       id="rect2009"
       style="fill:#ffffff;stroke:#000000;stroke-width:0.15;stroke-linecap:square;stroke-linejoin:miter;stroke-dasharray:none;stroke-opacity:1"
       d="m -32.098778,101.7397 1.073937,-0.26999 0.01128,0.81201 h -1.085217 z"
       sodipodi:nodetypes="ccccc" /><path
       id="rect2011"
       style="fill:#ffffff;stroke:#000000;stroke-width:0.15;stroke-linecap:square;stroke-linejoin:miter;stroke-dasharray:none;stroke-opacity:1"
       d="m -32.150974,97.061661 h 1.185205 l 0.0098,2.473091 -1.195005,0.480288 z"
       sodipodi:nodetypes="ccccc" /><path
       id="rect2013"
       style="fill:#ffffff;stroke:#000000;stroke-width:0.15;stroke-linecap:square;stroke-linejoin:miter;stroke-dasharray:none;stroke-opacity:1"
       d="m -30.595922,97.00808 h 1.05537 l 0.04748,2.025519 -1.102849,0.390185 z"
       sodipodi:nodetypes="ccccc" /><path
       id="rect2015"
       style="fill:#ffffff;stroke:#000000;stroke-width:0.15;stroke-linecap:square;stroke-linejoin:miter;stroke-dasharray:none;stroke-opacity:1"
       d="m -29.152628,97.03418 h 1.066744 l 0.02196,1.389051 -1.088703,0.3857 z"
       sodipodi:nodetypes="ccccc" /><path
       id="rect2017"
       style="fill:#ffffff;stroke:#000000;stroke-width:0.15;stroke-linecap:square;stroke-linejoin:miter;stroke-dasharray:none;stroke-opacity:1"
       d="m -27.648851,97.041412 h 1.176067 l -0.01068,0.74439 -1.167283,0.352785 z"
       sodipodi:nodetypes="ccccc" /><path
       id="rect2019"
       style="fill:#ffffff;stroke:#000000;stroke-width:0.15;stroke-linecap:square;stroke-linejoin:miter;stroke-dasharray:none;stroke-opacity:1"
       d="m -26.294106,97.014587 1.036014,-0.05617 0.0094,0.480665 -1.005409,0.272759 z"
       sodipodi:nodetypes="ccccc" /><path
       id="rect2021"
       style="fill:#ffffff;stroke:#000000;stroke-width:0.15;stroke-linecap:square;stroke-linejoin:miter;stroke-dasharray:none;stroke-opacity:1"
       transform="rotate(-25.126874)"
       d="m -71.716057,77.219845 7.294244,0.604464 -0.464245,0.916282 -7.279726,-0.518815 z"
       sodipodi:nodetypes="ccccc" /><g
       id="Layer_2"
       data-name="Layer 2"
       transform="matrix(0.43065654,0,0,0.43065654,-28.552128,98.205716)"><g
         id="Layer_1-2"
         data-name="Layer 1"><path
           class="cls-1"
           d="M 13.75,7 A 6.73,6.73 0 1 1 7,0.3 6.72,6.72 0 0 1 13.75,7"
           id="path1169"
           style="fill:#e26969" /><circle
           class="cls-2"
           cx="7.0300002"
           cy="7.0300002"
           r="6.73"
           transform="rotate(-5.65,7.0668177,7.0525338)"
           id="circle1171"
           style="fill:none;stroke:#ffffff;stroke-width:0.6px;stroke-miterlimit:10" /><path
           class="cls-3"
           d="M 10.82,3.75 C 10.64,3.48 10.1,2.88 9.54,3.36 9.35,3.52 8.42,4.54 7.33,5.74 6.59,4.86 6,4.14 6,4.13 5.62,3.71 4.26,4.47 3.86,4.87 L 5.9,7.33 c -1.33,1.49 -2.54,2.85 -2.66,3 0.17,0.27 0.71,0.87 1.27,0.39 C 4.7,10.56 5.63,9.54 6.72,8.34 L 8.08,9.93 C 8.46,10.34 9.82,9.59 10.22,9.19 10.12,9.06 9.14,7.9 8.15,6.72 c 1.33,-1.49 2.54,-2.84 2.67,-3"
           id="path1173"
           style="fill:#ffffff" /></g></g></g></svg>
