<svg xmlns="http://www.w3.org/2000/svg" width="180" height="185"><path d="M178 4a788.47 788.47 0 0 1-9 46c-3.84-3.56-6.1-7.41-8.63-11.95L159 36c-2.15-.22-2.15-.22-3.83 1.58l-2.23 2.24-2.54 2.53-2.76 2.77a5226.13 5226.13 0 0 1-8.78 8.81 3078.3 3078.3 0 0 1-13.43 13.47l-4.13 4.14c-4.34 4.36-8.5 8.8-12.51 13.45-3.55 3.98-7.37 7.69-11.15 11.44a1683954735.72 1683954735.72 0 0 1-21.94 21.8l-2.55 2.54-2.36 2.34-2.08 2.06c-2.6 2.77-3.7 4.18-3.72 8.05l.32 3.84.15 2.04c.22 2.98.54 5.89 1.12 8.83.5 2.56.82 4.49.42 7.07a39.07 39.07 0 0 1-8 8l-2-1a94.84 94.84 0 0 1-1.63-7.25l-.4-2.03A45.28 45.28 0 0 1 54 142l-2 1 .44 3.44L53 151l.29 2.25c.27 2.25.5 4.5.71 6.75l.3 2.14c.2 2.05.2 2.05-.3 5.86l-7 6-5-20c-1.54 4.61.01 9 .97 13.66 1.07 5.51 1.43 9.21-1.78 14.09-2.18 2.24-3.14 2.92-6.19 3.25-2.13-6.54-3.04-13.2-4-20l-1.88 1.5C27 168 27 168 25 168c-2.52-5.18-4.44-10.24-3-16 4.52-6.87 11.09-12.23 17.32-17.51 2.14-1.99 4-3.95 5.89-6.16 4.3-5 8.95-9.6 13.63-14.24l4.26-4.23 8.9-8.84a6974.23 6974.23 0 0 0 12.83-12.76C88.5 84.6 92.12 80.94 95.5 77c4.21-4.9 8.81-9.4 13.41-13.94l4.28-4.25a6207.8 6207.8 0 0 1 16.34-16.2l5.53-5.47c4.49-4.47 8.46-8.84 11.94-14.14l-3.06-1.9-3.94-2.48a117.75 117.75 0 0 1-7-4.63V12a10682.23 10682.23 0 0 1 31.64-6.25l2.66-.53 2.48-.49 2.18-.43C174 4 174 4 178 4Zm-52 2-2.63 3.63-1.47 2.03L120 14l-1.27 1.64A22.41 22.41 0 0 1 114 20c-3.04.1-5.05-.07-7.94-.69-1.51-.24-3.03-.48-4.55-.7l-2.3-.34C83.67 16.39 69.1 22.08 56 30c0 4.13 1.73 5.59 4.25 8.81 8.6 11.09 8.6 11.09 9.19 15.38C69 57 69 57 67.94 58.94c-2.45 1.34-4.23 1.14-6.94.7-3.97-1.27-7-4.09-10.19-6.7a420.68 420.68 0 0 0-4.17-3.35l-1.83-1.5C42.78 46.66 42.78 46.66 39 47c-4.64 8.78-9.07 17.17-11 27l-.69 3.44c-.87 9.11-.87 9.11.4 18.06.78 2.78.74 4.65.29 7.5-1.3 1.94-1.3 1.94-3.05 3.73l-1.89 1.95A216.81 216.81 0 0 1 14 117c-8.6-12.9-6.87-33.33-4-48 2.9-13 8.36-25.78 17-36-1.36-4-3.13-6.55-6-9.63-5.74-6.18-5.74-6.18-6.5-9.68.65-3.5 2.16-5.07 4.5-7.65 3.3-1.72 5.48-1.01 9-.04a41.6 41.6 0 0 1 6.19 5.63A64.82 64.82 0 0 0 40 17c3.51.06 6-2.23 8.81-4.19C71.08-1.59 101.61-5.19 126 6Zm48 50c1.95 2.92 2.68 4.96 3.56 8.31l.76 2.8c5.85 24.71.4 48.17-11.95 69.73A139.28 139.28 0 0 1 163 142l2.34 2.74 3.03 3.57 1.54 1.8 1.49 1.75 1.36 1.6c1.98 2.46 3.18 4.23 3.74 7.35-.62 3.94-2 5.4-4.7 8.19-1.8 1-1.8 1-4.16.93-3.35-1.18-5.45-2.93-8.14-5.24l-2.78-2.37L154 160a716 716 0 0 0-5-4l-2.39 1.76c-19.82 14.33-41.8 20.63-66.25 16.83-4.54-.92-8.96-2.14-13.36-3.59 1.4-1.65 2.82-3.3 4.25-4.92 1.77-2.04 1.77-2.04 3.21-4.21 2.36-3.23 4.1-5.55 8.11-6.45 3.01-.06 5.93.1 8.93.33 15.19.59 28.6-2.33 41.5-10.75 1.41-2.07 1.41-2.07 2-4a25356.7 25356.7 0 0 1-4.25-5.63l-2.4-3.16c-6.2-8.46-6.2-8.46-6.85-11.84.7-3.28 1.73-4.48 4.5-6.37 5.19.24 8 2.13 12 5.31 3.91 3.09 7.83 5.98 12 8.69 9.47-16 15.36-33.47 11.53-52.32-1.11-5.7-1.11-5.7.6-8.6a57.5 57.5 0 0 1 5.3-5.14l1.9-1.76c1.54-1.42 3.1-2.8 4.67-4.18Z"/><path d="m46.25 117.5 2.75.5c-1.6 4.15-4.08 7.83-8 10-5.78.4-11.36-.83-17-2 .31-2.81 1.24-4.36 2.81-6.75 5.72-4.04 12.75-2.65 19.44-1.75ZM16 141l2.58.24c2.14.22 4.28.49 6.42.76-1.94 4.16-4.17 7.39-8 10-5.92.78-11.26-.51-17-2 3.8-7.97 7.53-9.85 16-9Zm16-11c1.34.3 2.68.63 4 1-1.48 3.46-2.87 5.86-6 8-6.02.7-12.05.06-18-1 4.12-10.1 10.34-9.55 20-8Z"/></svg>