<?xml version="1.0" encoding="UTF-8" standalone="no"?>
<!-- Created with Inkscape (http://www.inkscape.org/) -->

<svg
   width="10.791173mm"
   height="10.858499mm"
   viewBox="0 0 10.791173 10.858498"
   version="1.1"
   id="svg926"
   xml:space="preserve"
   inkscape:version="1.2.2 (b0a8486541, 2022-12-01)"
   sodipodi:docname="gh2e-command.svg"
   xmlns:inkscape="http://www.inkscape.org/namespaces/inkscape"
   xmlns:sodipodi="http://sodipodi.sourceforge.net/DTD/sodipodi-0.dtd"
   xmlns="http://www.w3.org/2000/svg"
   xmlns:svg="http://www.w3.org/2000/svg"><sodipodi:namedview
     id="namedview928"
     pagecolor="#ffffff"
     bordercolor="#000000"
     borderopacity="0.25"
     inkscape:showpageshadow="2"
     inkscape:pageopacity="0.0"
     inkscape:pagecheckerboard="0"
     inkscape:deskcolor="#d1d1d1"
     inkscape:document-units="mm"
     showgrid="false"
     inkscape:zoom="12.494412"
     inkscape:cx="38.177066"
     inkscape:cy="25.41136"
     inkscape:window-width="1854"
     inkscape:window-height="1011"
     inkscape:window-x="0"
     inkscape:window-y="0"
     inkscape:window-maximized="1"
     inkscape:current-layer="layer1" /><defs
     id="defs923" /><g
     inkscape:label="Layer 1"
     inkscape:groupmode="layer"
     id="layer1"
     transform="translate(-162.62003,-115.74961)"><path
       id="path1059"
       style="fill:#000000;stroke-width:0.264583"
       d="m 168.1108,115.74997 c -1.03632,-0.0113 -2.08484,0.24549 -2.99826,0.82476 -2.28342,1.4481 -3.13874,4.42946 -1.97301,6.87658 l 0.56741,1.19063 0.17156,-1.05834 c 0.53537,-3.30099 2.81819,-6.76808 4.43022,-6.72878 0.71961,0.0175 0.72221,0.0236 0.13901,0.30489 -0.32742,0.15791 -0.59531,0.4875 -0.59531,0.73225 0,0.24475 -0.35719,0.7629 -0.79375,1.15187 -0.43656,0.38898 -0.79375,0.96526 -0.79375,1.28054 v 0.57309 l 0.59531,-0.54208 c 0.9,-0.81974 1.65259,-1.1374 2.69441,-1.1374 0.51889,0 0.94361,0.0497 0.94361,0.11059 0,0.57923 -0.48909,0.97719 -1.37459,1.11879 -1.27714,0.20421 -1.79864,1.02588 -1.3193,2.07791 0.27773,0.60959 0.70643,0.79448 1.57665,0.67955 0.42307,-0.0559 1.73912,0.95435 1.45676,1.11827 -0.11402,0.0662 -0.92161,0.20369 -1.79473,0.30541 -2.50984,0.29239 -2.77812,0.39682 -2.77812,1.08107 0,0.36169 0.19,0.66303 0.46302,0.73433 2.10352,0.5497 4.42592,-0.30913 5.81463,-2.15026 0.82791,-1.09763 0.84569,-1.17223 0.45992,-1.91823 -0.4772,-0.9228 -0.57581,-0.94024 -1.32911,-0.23254 -0.52367,0.49196 -0.61836,0.50457 -0.99064,0.13229 -0.22633,-0.22632 -0.59814,-0.41135 -0.82682,-0.41135 -0.22867,0 -0.416,-0.11906 -0.416,-0.26458 0,-0.14552 0.35192,-0.26458 0.78186,-0.26458 0.48425,0 1.03705,-0.2557 1.45315,-0.6718 0.57165,-0.57165 0.75678,-0.62622 1.2423,-0.36638 0.54664,0.29255 0.56389,0.26416 0.41134,-0.67593 -0.37538,-2.31316 -2.76332,-3.84381 -5.21777,-3.87057 z m -2.88613,1.35134 c 0.3986,0 0.2822,1.22849 -0.15038,1.5875 -0.21828,0.18116 -0.40117,0.58285 -0.40617,0.89246 -0.005,0.3096 -0.17962,0.86041 -0.38758,1.22421 -0.36359,0.636 -0.37857,0.60701 -0.38757,-0.75293 -0.009,-1.38327 0.69842,-2.95124 1.3317,-2.95124 z" /></g></svg>
