<?xml version="1.0" encoding="UTF-8"?>
<svg version="1.1" xmlns="http://www.w3.org/2000/svg" width="508" height="508">
<path d="M0 0 C3.86863916 1.04557815 6.80006963 0.85856328 10.7421875 0.05859375 C13 0 13 0 16.00390625 0.9765625 C22.1928808 2.89656622 28.88761482 2.039543 35.28320312 1.83398438 C41.31332988 1.72475659 44.58932905 2.29123571 50 5 C55.57616309 5.63706878 61.20814452 5.70974436 66.81640625 5.8203125 C74.42229828 6.17564895 78.90474259 7.46124915 84.74047852 12.45166016 C88.17810411 14.80729727 91.41167426 14.5909062 95.46484375 14.69921875 C98.94857873 15.11254324 100.7394543 16.59456885 103.375 18.79296875 C105.98260266 20.72986592 108.8774245 21.27940565 112 22 C115 23 115 23 116.34765625 24.41796875 C118.50735893 26.48576919 120.65274728 27.23632066 123.4375 28.3125 C134.33212601 32.75153632 143.03586525 37.47739319 151.8125 45.25 C155.54052156 48.53247752 159.56048255 51.34956252 163.66015625 54.1484375 C166.22397546 56.17723601 167.96411082 58.45513853 170 61 C171.82504127 62.24437582 171.82504127 62.24437582 173.6875 63.0625 C177 65 177 65 177.6875 67.125 C177.790625 67.74375 177.89375 68.3625 178 69 C179.88316159 70.10836423 179.88316159 70.10836423 182 71 C184.26345949 73.09648297 186.24550585 75.40830123 188.25 77.75 C190.58186976 80.43458956 192.96300034 83.00871204 195.5 85.5 C199.18833327 89.13815186 202.87105996 92.86295162 206 97 C206 97.66 206 98.32 206 99 C206.62261719 99.24878906 207.24523437 99.49757813 207.88671875 99.75390625 C210.44183172 101.26052554 210.80533912 102.19385485 211.8125 104.9375 C213.31749871 108.65573211 215.10367596 111.75784832 217.375 115.0625 C220.73186874 120.17295689 222.78885295 125.3067816 224.7980957 131.03442383 C226.25886325 135.16086108 227.93281203 138.90895562 230.0625 142.75 C233.25493394 148.83401023 234.75617186 155.13653543 236.26391602 161.79589844 C237.1383867 165.65042806 238.05458347 169.30758087 239.546875 172.97265625 C241.36768941 177.59556922 241.94415222 182.28096522 242.5625 187.1875 C243.26905301 193.53853415 243.26905301 193.53853415 245.0859375 199.61328125 C246.40134868 203.047966 246.16760823 206.38289703 246.0625 210 C245.96354482 215.38466641 246.08798919 220.57379161 246.6875 225.9375 C247.13094755 230.9447619 246.52183098 234.33246893 244.8203125 239.0078125 C243.6887587 243.1352897 243.41898663 247.24508035 243.0625 251.5 C242.52015278 257.61968924 241.71580962 262.54297695 239.05078125 268.125 C237.83487934 271.45177996 237.31182375 274.6677017 236.75097656 278.15625 C234.90895581 289.57759918 231.31614081 298.97782068 226.25292969 309.32568359 C224.90630718 312.1999827 223.69783783 315.10833411 222.5078125 318.05078125 C215.11200227 336.24698244 215.11200227 336.24698244 207.94140625 342.2578125 C205.84998466 344.13462142 204.86779096 345.74660029 203.625 348.25 C200.50924958 354.42740794 195.8334608 359.36723366 191.29101562 364.52539062 C190.19347943 365.7790061 189.11774139 367.05165227 188.046875 368.328125 C181.36722702 376.25630531 173.32615155 382.62558229 165.28515625 389.1171875 C161.9781714 391.6640174 161.9781714 391.6640174 160.5 395.375 C160.75958899 398.23508889 160.75958899 398.23508889 163.4375 400.0625 C166.05233058 401.60537397 168.77550284 402.80224369 171.5625 404 C180.01499547 407.73614506 180.01499547 407.73614506 181.9296875 412.13671875 C184.47400467 420.24218631 184.70938095 428.58059505 185 437 C185.06445312 437.97066406 185.12890625 438.94132812 185.1953125 439.94140625 C185.56960494 448.31308059 184.17920154 458.10892071 179.52734375 465.265625 C177.79352411 467.08552079 176.03868437 468.53043211 174 470 C173.23300781 470.57878906 172.46601563 471.15757812 171.67578125 471.75390625 C169.16273969 473.5804969 166.59621009 475.29425831 164 477 C163.29875 477.50402344 162.5975 478.00804687 161.875 478.52734375 C152.23137716 485.01956842 140.1818936 488.07345044 129.04296875 491.078125 C125.86581118 491.88028265 125.86581118 491.88028265 123 494 C121.22705934 494.38286622 119.43650225 494.68698528 117.640625 494.94140625 C112.10093227 495.79398659 106.67512664 496.92073105 101.20996094 498.1574707 C79.97099972 502.94567851 59.14660302 505.37996301 37.38989258 505.84228516 C34.9932541 505.94174314 34.9932541 505.94174314 32.66748047 506.50488281 C29.24655022 507.13984955 25.89130333 507.14303056 22.42578125 507.1328125 C21.7019072 507.13376923 20.97803314 507.13472595 20.23222351 507.13571167 C18.70339877 507.13639013 17.17457111 507.1345592 15.64575195 507.13037109 C13.33733422 507.12505717 11.02911454 507.13030718 8.72070312 507.13671875 C1.83231278 507.13946662 -4.96034592 507.02898658 -11.80981445 506.21386719 C-15.62292335 505.84152482 -19.42447057 505.98508559 -23.25 506.0625 C-36.77027829 506.18230809 -51.06929353 505.9789906 -64.046875 501.85546875 C-68.27348121 500.63109473 -72.56076949 499.79384124 -76.875 498.9375 C-77.74938721 498.7629126 -78.62377441 498.5883252 -79.5246582 498.40844727 C-84.27560574 497.47803296 -89.01069096 496.69166163 -93.8125 496.0625 C-99.94972965 495.18012552 -105.6130295 493.27333775 -111.43359375 491.2265625 C-114.50390278 490.17061832 -117.54861973 489.25948016 -120.6875 488.4375 C-122.45888729 487.96038527 -124.2297097 487.48116902 -126 487 C-127.010625 486.72800781 -128.02125 486.45601563 -129.0625 486.17578125 C-135.32337495 484.32099705 -139.58153165 482.2242088 -144.265625 477.65625 C-146.11055644 475.78839346 -146.11055644 475.78839346 -149.125 474 C-153.66302055 470.84311614 -157.31610528 467.80371966 -158.67138672 462.24755859 C-159.04001161 459.05570676 -159.24195562 455.89767076 -159.375 452.6875 C-159.44332031 451.61048828 -159.51164062 450.53347656 -159.58203125 449.42382812 C-159.76849251 446.28252677 -159.89677987 443.14504393 -160 440 C-160.03730225 439.08790771 -160.07460449 438.17581543 -160.11303711 437.23608398 C-160.24204831 431.94762874 -159.66347811 427.71646513 -157.8125 422.6875 C-157.20341797 420.96080078 -157.20341797 420.96080078 -156.58203125 419.19921875 C-153.07054353 412.09821024 -147.35105926 409.38498731 -140.546875 405.94140625 C-137.75635671 404.18413818 -137.75635671 404.18413818 -136.95703125 401.01171875 C-137.00691451 397.51535541 -137.49877557 396.66107449 -139.9375 394.25 C-143 391.15261959 -143 391.15261959 -143 389 C-144.32 388.34 -145.64 387.68 -147 387 C-147 386.34 -147 385.68 -147 385 C-147.54527344 384.74734375 -148.09054688 384.4946875 -148.65234375 384.234375 C-151.45005673 382.76336452 -153.97523774 381.06636371 -156.5625 379.25 C-157.98755859 378.26773438 -157.98755859 378.26773438 -159.44140625 377.265625 C-162.30592584 374.72910383 -163.32659999 372.40063595 -165 369 C-167.21399023 367.03182806 -167.21399023 367.03182806 -169.75 365.375 C-174.82842689 361.52748355 -177.37526384 357.46625944 -180.33984375 351.89453125 C-182.30771739 348.46348568 -184.63960291 345.80049148 -187.421875 343.01171875 C-189.59256783 340.24462269 -190.66806284 337.24745504 -192 334 C-193.15325306 331.7223252 -194.32013149 329.45150208 -195.5 327.1875 C-197.60429635 323.10310418 -199.38150169 319.16149325 -200.5 314.6875 C-201.5023813 310.82927765 -203.000842 308.48834526 -205.5625 305.4375 C-209.23869129 300.99061871 -210.22631412 297.63685429 -211 292 C-211.32077052 289.88035694 -211.65496038 287.76379709 -212.00292969 285.6484375 C-212.24504934 284.16902922 -212.4730341 282.68721503 -212.68457031 281.203125 C-212.79639648 280.50445312 -212.90822266 279.80578125 -213.0234375 279.0859375 C-213.11544434 278.4676709 -213.20745117 277.8494043 -213.30224609 277.21240234 C-213.98945654 274.71414155 -213.98945654 274.71414155 -216.04101562 271.71923828 C-218.28921262 267.90210948 -218.43642003 264.86166804 -218.3203125 260.40625 C-218.30990936 259.69706421 -218.29950623 258.98787842 -218.28878784 258.25720215 C-218.25347809 256.00392714 -218.19139418 253.75255578 -218.125 251.5 C-217.87518301 241.59421321 -218.04698529 232.25323559 -219.53271484 222.43359375 C-220.20076814 217.52476325 -220.29436401 212.69658684 -220.25 207.75 C-220.26160156 206.38681641 -220.26160156 206.38681641 -220.2734375 204.99609375 C-220.27085937 204.12597656 -220.26828125 203.25585938 -220.265625 202.359375 C-220.26336914 201.59077148 -220.26111328 200.82216797 -220.25878906 200.03027344 C-220 198 -220 198 -218 195 C-217.72500313 192.79876705 -217.72500313 192.79876705 -217.6875 190.3125 C-217.16366295 183.1216459 -214.85660027 176.66865855 -212.60351562 169.87451172 C-211.52564929 166.52667282 -210.64889233 163.12783447 -209.7734375 159.72265625 C-205.41382344 144.37593403 -200.07216713 129.48687674 -190 117 C-188.67928271 115.00604799 -187.43799897 112.97902156 -186.19921875 110.93359375 C-184.92791846 108.88377733 -183.56343657 106.918406 -182.1875 104.9375 C-179.03295307 100.27885208 -176.474158 95.35111288 -173.97924805 90.31616211 C-171.83995546 86.12920603 -169.48959828 83.22978877 -166 80 C-164.91678974 78.90343764 -163.83900705 77.80149713 -162.765625 76.6953125 C-157.01425707 70.84150291 -151.3849028 65.2956982 -144.7421875 60.44140625 C-142.73636223 58.92692529 -142.73636223 58.92692529 -141 55.9375 C-138.63501691 52.46393109 -136.22515658 50.91512283 -132.703125 48.7109375 C-128.39673496 45.98521664 -124.27396385 42.9922162 -120.11328125 40.05078125 C-117.1440129 38.09486421 -114.20775667 36.52513496 -111 35 C-104.26618602 31.66938303 -97.56104905 28.34948087 -91 24.6875 C-87.40966688 22.69876304 -83.98588665 21.07726666 -80 20 C-80 19.34 -80 18.68 -80 18 C-76.39179946 15.88988779 -72.76879946 15.22094542 -68.6875 14.4375 C-67.41261719 14.18871094 -66.13773438 13.93992187 -64.82421875 13.68359375 C-62.28219413 13.22919711 -59.73038617 12.82639974 -57.171875 12.4765625 C-54.3068772 12.04610716 -52.45761133 11.4745668 -50 10 C-50 9.34 -50 8.68 -50 8 C-43.3767736 4.50065362 -39.23894063 3.38728421 -31.85546875 5.66015625 C-27.70615581 6.15398693 -24.09930097 5.19906015 -20.0625 4.25 C-19.27681641 4.07984375 -18.49113281 3.9096875 -17.68164062 3.734375 C-0.54217961 -0.16682449 -0.54217961 -0.16682449 0 0 Z M20.97436523 40.06787109 C16.26886968 40.1332513 11.56408363 40.22088719 6.85913086 40.31738281 C4.90965452 40.35582824 2.96010345 40.39065269 1.01049805 40.421875 C-14.22699835 40.66724943 -28.12061703 41.51347505 -42.5625 46.8125 C-44.06598999 47.34979736 -44.06598999 47.34979736 -45.59985352 47.89794922 C-51.51707556 50.03190307 -57.36645222 52.27890939 -63.12890625 54.8046875 C-65.33804766 55.72441168 -67.51769658 56.54445352 -69.77734375 57.3203125 C-83.15645061 61.95117035 -94.09257397 68.95928111 -105 78 C-105.99515625 78.82242188 -106.9903125 79.64484375 -108.015625 80.4921875 C-111.37577119 83.29138533 -114.69621921 86.13458494 -118 89 C-118.53093262 89.45955078 -119.06186523 89.91910156 -119.60888672 90.39257812 C-126.84577644 96.70269716 -133.05245176 103.4440681 -139 111 C-142.07591446 114.64324979 -145.23686259 118.19420274 -148.515625 121.65625 C-153.37840278 126.83183805 -157.3772876 131.38564726 -160 138 C-160.35707031 138.77988281 -160.71414062 139.55976563 -161.08203125 140.36328125 C-162.98218895 144.68060068 -164.13755862 148.2074658 -164.25 152.9375 C-164.58486527 158.67546165 -167.55080716 162.10870498 -171.08984375 166.45703125 C-175.31364278 172.08012566 -175.4913917 177.62309066 -176 184.4375 C-176.44192475 190.33392184 -177.11242236 195.37675615 -179 201 C-179.09245188 204.57346629 -178.93627839 208.0899416 -178.77734375 211.66015625 C-179.02360155 215.35402321 -179.99668311 216.96137723 -182 220 C-182.25926574 223.75935317 -182.19211438 226.42365687 -181 230 C-180.81908151 232.87746553 -180.6761774 235.74497867 -180.5625 238.625 C-180.30612393 244.24312446 -179.88258132 249.44741633 -178.3828125 254.88671875 C-177.89912424 257.55687538 -178.13520722 259.98201222 -178.3125 262.6875 C-178.50008244 271.29422364 -174.09682644 279.12896695 -168.8125 285.734375 C-165.78479001 289.51901249 -165.93016876 293.00672879 -166.26171875 297.72265625 C-166.26735202 302.64782265 -164.2947649 305.66030288 -161.5625 309.625 C-160.88296265 310.65488037 -160.88296265 310.65488037 -160.18969727 311.70556641 C-159.25560303 313.12111726 -158.31506783 314.53243873 -157.36816406 315.93945312 C-156.08666585 317.86947542 -154.858074 319.82123903 -153.6484375 321.796875 C-148.5655349 330.06494444 -143.17788254 338.75113252 -134.8125 344 C-131.81230381 346.13347285 -131.07268973 347.44613748 -129.375 350.625 C-125.43433797 357.58821169 -118.88928114 364.20379601 -111.24609375 367.01171875 C-109.5740179 367.4125064 -107.89957175 367.80356377 -106.22265625 368.18359375 C-102.75028207 369.45903523 -101.19216365 371.95981833 -98.96875 374.8125 C-92.94269401 381.50811777 -83.90805544 385.83549171 -76 390 C-75.40445313 390.34675781 -74.80890625 390.69351562 -74.1953125 391.05078125 C-65.98832099 395.61217782 -56.20983558 397.5782553 -47 398.9375 C-43.45197365 399.51581267 -41.33708808 400.21778486 -38.5625 402.5 C-31.49992167 408.15006267 -20.46659999 407.27991629 -11.78759766 407.65917969 C-6.36422233 407.90380531 -6.36422233 407.90380531 -4.09667969 408.50268555 C15.3742987 413.12103475 48.93168226 409.84350844 66.94921875 400.46484375 C69.8490146 399.07249619 72.39820726 398.44882128 75.55541992 397.92553711 C95.50897361 394.5279722 114.52158149 384.84290401 130 372 C131.47251572 370.90764356 132.9505604 369.82263963 134.4375 368.75 C143.38898167 361.9832212 151.43755594 354.17833617 158.63671875 345.58203125 C160.63319509 343.26520341 162.838018 341.161982 165 339 C172.55868669 330.99668468 179.19656291 321.54172405 183.734375 311.51171875 C184.84511678 309.30737626 186.05326051 307.31826695 187.38671875 305.24609375 C190.00503192 301.10823244 192.094571 296.8535323 194.0625 292.375 C194.40684082 291.59447266 194.75118164 290.81394531 195.10595703 290.00976562 C199.10453572 280.72836555 201.7483692 271.21633041 203.56640625 261.2734375 C203.98271196 259.09064542 204.51430967 256.96524741 205.0625 254.8125 C206.28491968 249.44531359 206.47706416 244.01806297 206.7734375 238.53515625 C206.95120887 235.76130982 207.24080865 233.11228307 207.6875 230.375 C208.25752696 227.09634404 208.25752696 227.09634404 207.01147461 224.6394043 C205.84884245 221.60556015 205.88822307 219.61946874 206.12890625 216.39453125 C206.19400391 215.32783203 206.25910156 214.26113281 206.32617188 213.16210938 C206.48237257 210.94819049 206.6437401 208.73462942 206.81054688 206.52148438 C207.2411727 199.27914103 206.42436525 193.79862015 204 187 C203.62826677 185.64401676 203.27284413 184.28340658 202.9375 182.91796875 C202.4734375 181.07138672 202.4734375 181.07138672 202 179.1875 C201.5359375 177.32158203 201.5359375 177.32158203 201.0625 175.41796875 C200.05674983 172.18255918 198.79536191 169.84385326 197 167 C196.47215147 165.57965396 195.99034253 164.14110164 195.5625 162.6875 C194.37070532 158.90620379 192.8156556 155.59033251 190.953125 152.1015625 C189.88429093 149.744871 189.34297785 147.45385472 188.75 144.9375 C187.64024635 140.89088449 186.41175098 139.18860424 183.0625 136.6875 C178.19500088 132.96581728 177.42319695 128.72362748 175.92578125 122.96484375 C174.75738641 119.22302229 173.07602028 117.38391572 170 115 C167.42176586 112.65615079 165.90370789 110.82579692 164.19921875 107.7421875 C159.22846552 98.9050383 151.67769854 92.07791818 143.2578125 86.640625 C140.93378526 84.95188548 139.39991454 83.24651019 137.625 81 C131.49030569 73.58364421 122.82786235 69.59057081 113.47265625 67.99609375 C110.50393825 66.8001647 109.2822972 65.04119043 107.36401367 62.54858398 C105.07609656 59.95107937 102.13663657 58.42284363 99.125 56.8125 C98.53847656 56.48314453 97.95195312 56.15378906 97.34765625 55.81445312 C83.26112092 48.02815942 67.3162632 44.33461226 51.5625 41.625 C50.61769775 41.45750244 49.67289551 41.29000488 48.69946289 41.11743164 C41.80931023 40.00992593 35.10619787 39.82184767 28.13626099 39.95880127 C25.74904082 40.00483986 23.3618245 40.03667199 20.97436523 40.06787109 Z " fill="#000000" transform="translate(240,1)"/>
<path d="M0 0 C-0.30742786 6.14855718 -3.32214575 9.39439873 -7 14 C-13.2326339 22.09659918 -17.60680086 30.8278574 -22 40 C-22.495 40.99 -22.495 40.99 -23 42 C-23.21937263 43.50893038 -23.39058496 45.02504438 -23.53515625 46.54296875 C-23.62216797 47.45240234 -23.70917969 48.36183594 -23.79882812 49.29882812 C-23.88583984 50.25208984 -23.97285156 51.20535156 -24.0625 52.1875 C-24.15337891 53.12142578 -24.24425781 54.05535156 -24.33789062 55.01757812 C-25.0432633 62.55392827 -25.34195008 69.37521624 -23.625 76.8125 C-22.67372427 80.95515238 -21.83104755 85.05035465 -21.1875 89.25 C-20.02333571 94.96918806 -17.1819375 99.17945995 -14 104 C-13.16738886 105.35090731 -12.33822669 106.7039438 -11.51171875 108.05859375 C-6.17160032 116.71476122 -0.77815849 124.31816949 7 131 C8.42699219 132.25876953 8.42699219 132.25876953 9.8828125 133.54296875 C26.92573825 147.94448533 47.99111093 153.28922363 70 152 C75.0709779 151.2663266 80.01232293 150.16261695 85 149 C86.38348238 148.72724226 87.76761465 148.4577624 89.15234375 148.19140625 C96.92320115 146.60505317 102.46588586 144.5139674 108.4453125 139.078125 C111.41248182 136.66446433 114.56177269 135.05263316 118 133.4375 C123.18318136 130.98638807 127.76538336 128.1982978 132.390625 124.8125 C135.41275238 122.71329774 138.54936465 120.87059979 141.75 119.0625 C142.33571777 118.73088867 142.92143555 118.39927734 143.52490234 118.05761719 C146.62634345 116.31163321 149.74218614 114.59402625 152.8671875 112.890625 C153.49657227 112.54249756 154.12595703 112.19437012 154.77441406 111.83569336 C156.52477469 110.86791481 158.28173493 109.91210058 160.0390625 108.95703125 C163.09588522 107.15503637 163.09588522 107.15503637 165.0859375 104.38671875 C168.69515123 99.8862502 173.260906 99.69170837 178.75 99.0625 C185.2258831 98.28633385 191.6139701 97.22902432 198.01269531 95.96508789 C209.84750033 93.73781545 209.84750033 93.73781545 215.09765625 96.81640625 C216.53431641 97.89728516 216.53431641 97.89728516 218 99 C220.1427378 99.9859223 222.28865008 100.96497129 224.4375 101.9375 C231.9961757 105.99295386 235.1926453 111.00436952 238 119 C242.40819596 136.3923368 241.14308695 157.42430854 234.91796875 174.234375 C234.03308386 176.90032607 233.64088082 179.28192472 233.3125 182.0625 C231.44617494 193.52706826 224.75161529 205.32851625 217.8046875 214.484375 C215.9402051 217.08335047 214.35836324 219.75182963 212.76464844 222.52099609 C208.56453526 229.81450882 203.96530428 235.99974277 198 242 C197.0925 242.928125 196.185 243.85625 195.25 244.8125 C194.5075 245.534375 193.765 246.25625 193 247 C190.39415255 249.54070126 188.06216678 251.91334327 185.9375 254.875 C182.77480739 258.79311282 178.40602031 260.83959939 174.03515625 263.19140625 C171.30438244 264.81862411 169.05935573 266.62802903 166.65893555 268.69506836 C163.47757378 271.19755234 159.91990185 273.06600782 156.375 275 C155.58101807 275.43715332 154.78703613 275.87430664 153.96899414 276.32470703 C148.62562702 279.22451064 143.23979542 281.78839565 137.56640625 283.98828125 C135.25300474 284.90026145 133.09401484 285.94657924 130.875 287.0625 C124.35341469 290.01815426 117.14073353 291.09958096 110.16430664 292.52880859 C108.10756625 292.97658174 106.08696987 293.50008397 104.0546875 294.046875 C99.47600834 295.20890752 94.88482532 295.69757066 90.1875 296.125 C89.27532715 296.2084668 88.3631543 296.29193359 87.42333984 296.37792969 C73.05969413 297.59413608 59.24526196 297.37421033 45 295 C43.51318999 294.77880791 42.02620293 294.55880335 40.5390625 294.33984375 C39.02578122 294.10322217 37.51275375 293.86497103 36 293.625 C35.30567871 293.52340576 34.61135742 293.42181152 33.89599609 293.31713867 C28.79916906 292.45822665 25.29960557 290.72084415 21 288 C21.30301226 282.74778743 22.36142597 279.015419 24.625 274.25 C27.90694439 266.6335926 27.75880648 260.45600056 24.71875 252.75390625 C21.61376337 246.28254381 18.18969991 240.57453665 12.5625 236 C10.44090747 234.26728406 8.57889665 232.5502988 6.69921875 230.54296875 C-0.7718857 223.50434502 -11.97494213 218.97448526 -22.2265625 219.01171875 C-28.13816401 219.31196939 -32.89219245 219.77401628 -38 223 C-38.99 223.33 -39.98 223.66 -41 224 C-42.02450239 226.18137797 -42.02450239 226.18137797 -43 229 C-43.64707835 230.42572034 -44.31500854 231.84210242 -45 233.25 C-45.33 233.93578125 -45.66 234.6215625 -46 235.328125 C-47 237 -47 237 -49 238 C-53.89706114 238.69958016 -56.99882085 237.48364549 -60.98828125 234.81640625 C-64.19748226 231.91877815 -66.16994019 228.40067012 -68.34375 224.6953125 C-69.79231063 222.33798507 -71.23391032 220.49722227 -73.125 218.5 C-78.81004097 212.14968828 -81.32853026 203.42504139 -84.10546875 195.5078125 C-84.71951836 193.78632844 -85.37152873 192.07805832 -86.0546875 190.3828125 C-87.27219515 187.31388826 -88.09999756 184.17647922 -89 181 C-89.36532837 180.04867187 -89.36532837 180.04867187 -89.73803711 179.078125 C-92.1272552 172.78767514 -92.50424258 166.93478568 -92.625 160.25 C-92.67622531 158.23428404 -92.73079503 156.21864969 -92.7890625 154.203125 C-92.80662598 153.32301758 -92.82418945 152.44291016 -92.84228516 151.53613281 C-92.94307931 148.99031988 -92.94307931 148.99031988 -93.50268555 146.49560547 C-94.39854566 142.00003252 -94.18457094 137.44433297 -94.1875 132.875 C-94.19974609 131.89273438 -94.21199219 130.91046875 -94.22460938 129.8984375 C-94.24749241 118.30436657 -91.59899507 108.00313679 -88.125 97 C-87.78597656 95.90171875 -87.44695312 94.8034375 -87.09765625 93.671875 C-85.18134326 87.52218616 -83.12552242 81.4523431 -80.85205078 75.42529297 C-80.00448212 73.01275798 -79.3557235 70.60801413 -78.75 68.125 C-75.26350052 56.16040068 -66.54492529 44.79177574 -57 37 C-53.16240018 33.06667773 -49.93661423 28.99364539 -47.0625 24.3125 C-44.5492425 20.41928414 -42.08816146 18.4002479 -38.06640625 16.171875 C-35.91223146 14.95022578 -34.02236488 13.57428444 -32.0625 12.0625 C-19.00624466 2.08286721 -19.00624466 2.08286721 -12.6875 1.5625 C-8.10196774 1.1135153 -4.33191392 -1.44397131 0 0 Z " fill="#000000" transform="translate(180,89)"/>
</svg>
