<?xml version="1.0" encoding="UTF-8"?>
<svg version="1.1" xmlns="http://www.w3.org/2000/svg" width="397" height="397">
<path d="M0 0 C14.18670863 11.13686142 23.87512275 24.58828174 26.56640625 42.6796875 C29.41306721 67.17753208 25.53551554 91.17619841 14.05175781 112.90380859 C12.34598969 116.15080897 10.70697704 119.43065824 9.06640625 122.7109375 C8.50050781 123.83113281 7.93460938 124.95132813 7.3515625 126.10546875 C4.64457182 131.71560885 4.03146197 136.90393561 5.51171875 142.984375 C8.44271122 150.18380312 14.91981111 154.60684133 21.82275391 157.71826172 C30.46642954 161.18584668 39.51577917 163.29349216 48.5534668 165.45043945 C67.82769999 170.06267431 84.03454027 175.68262575 95.421875 193.0703125 C100.79235846 202.67088046 103.84232236 213.23316778 106.87939453 223.74633789 C108.20654306 228.33365563 109.66469403 232.77220973 111.44140625 237.2109375 C113.03586008 241.52336325 113.55690108 244.41200799 112.00390625 248.8984375 C108.36430847 254.45163824 103.08081581 258.70998711 98.00390625 262.8984375 C97.49214844 263.32253906 96.98039062 263.74664062 96.453125 264.18359375 C89.2243558 270.14940557 81.83856343 275.85296011 74.19140625 281.2734375 C73.52310791 281.74869873 72.85480957 282.22395996 72.16625977 282.71362305 C62.38426171 289.559465 52.25908516 294.85833322 41.25390625 299.4609375 C40.23311981 299.88956085 40.23311981 299.88956085 39.19171143 300.32684326 C28.17241212 304.91851328 17.31824184 308.48587693 5.50878906 310.47509766 C3.05684829 310.88948999 0.62289242 311.36505405 -1.81640625 311.84765625 C-44.70477499 319.7211734 -89.62527331 312.0949377 -128.47827148 293.15917969 C-130.55550327 292.14993903 -132.64142497 291.16053549 -134.72851562 290.171875 C-147.78320842 283.89950008 -159.83819758 276.16119481 -170.99609375 266.8984375 C-171.7540625 266.28613281 -172.51203125 265.67382812 -173.29296875 265.04296875 C-182.80491541 257.04718808 -189.94663621 247.16935799 -191.234375 234.56640625 C-191.82757128 214.74116216 -182.46396277 193.88724405 -169.5234375 179.23046875 C-165.02524029 174.53968817 -160.44792508 172.08390239 -154.34375 169.984375 C-153.59593765 169.72401459 -152.84812531 169.46365417 -152.07765198 169.19540405 C-143.28039259 166.20878612 -134.27205381 164.08824029 -125.22290039 162.01757812 C-116.78707171 160.07106356 -108.96092072 157.7451265 -101.18359375 153.8828125 C-100.52495834 153.55608551 -99.86632294 153.22935852 -99.18772888 152.89273071 C-93.30862093 149.81499452 -88.96828594 145.84282188 -85.99609375 139.8984375 C-84.72226808 130.70996403 -87.61852175 124.04819094 -91.68359375 115.9609375 C-92.75216199 113.76537383 -93.81858165 111.56876311 -94.8828125 109.37109375 C-95.40576904 108.29738525 -95.92872559 107.22367676 -96.4675293 106.11743164 C-107.48661008 82.91241964 -113.03739286 51.3146738 -104.43359375 26.2734375 C-101.9946419 19.98012291 -98.62341299 14.78119262 -93.99609375 9.8984375 C-93.37863281 9.14433594 -92.76117188 8.39023438 -92.125 7.61328125 C-70.08012565 -18.95589327 -27.00566834 -18.94269826 0 0 Z " fill="#000000" transform="translate(238.99609375,81.1015625)"/>
<path d="M0 0 C4.41268555 3.59664096 6.65856987 7.90018307 7.5 13.4921875 C7.79269331 19.51069366 6.76944129 23.20468251 3.125 28 C-2.09991176 32.83304338 -8.0686757 33.21734259 -14.875 34 C-15.60686523 34.09023437 -16.33873047 34.18046875 -17.09277344 34.2734375 C-28.94961448 35.70185628 -40.75114142 36.18859888 -52.6875 36.1875 C-53.9564209 36.18830566 -55.2253418 36.18911133 -56.53271484 36.18994141 C-76.09984223 36.07292868 -76.09984223 36.07292868 -80.875 32 C-83.16010762 28.64850883 -83.85496573 26.56095955 -84 22.5 C-82.4144678 17.56723315 -80.30372084 15.58065724 -75.875 13 C-73.83989136 12.31319417 -71.77804439 11.7034861 -69.703125 11.1484375 C-67.84167847 10.6380896 -67.84167847 10.6380896 -65.94262695 10.11743164 C-65.28146881 9.93737579 -64.62031067 9.75731995 -63.93911743 9.57180786 C-60.36094395 8.58057176 -56.80470933 7.51593685 -53.24609375 6.45703125 C-51.76501914 6.01872752 -50.28389906 5.58057738 -48.80273438 5.14257812 C-46.53803505 4.47209654 -44.27354762 3.80092537 -42.00952148 3.12817383 C-39.77645852 2.46498433 -37.54259685 1.80454577 -35.30859375 1.14453125 C-34.63461044 0.94350296 -33.96062714 0.74247467 -33.26622009 0.53535461 C-23.64308334 -2.3012716 -9.2632643 -5.23805078 0 0 Z " fill="#000000" transform="translate(389.875,159)"/>
<path d="M0 0 C0.64497437 0.17601746 1.28994873 0.35203491 1.95446777 0.53338623 C11.030474 3.01172895 20.04996884 5.65907574 29 8.5625 C29.94391602 8.8622876 30.88783203 9.1620752 31.86035156 9.47094727 C47.28037623 14.64466197 47.28037623 14.64466197 51.03222656 20.40673828 C52.20306223 23.71932708 51.64611309 26.09201113 50.75 29.4375 C46.38996971 33.79753029 42.87832439 34.55084896 36.82247925 34.57626343 C35.62837936 34.57331772 35.62837936 34.57331772 34.41015625 34.5703125 C33.5799295 34.57181305 32.74970276 34.5733136 31.89431763 34.57485962 C29.2003293 34.5772147 26.50647497 34.57097209 23.8125 34.5625 C22.44600815 34.55917664 22.44600815 34.55917664 21.0519104 34.55578613 C-24.14430377 34.42583871 -24.14430377 34.42583871 -33.8125 25.19921875 C-37.37848 20.82895521 -39.42835018 15.89730648 -39.6875 10.25 C-39.07806294 4.93919137 -37.70644638 1.85561884 -33.875 -1.875 C-24.23231733 -8.07386743 -10.06300223 -2.78536555 0 0 Z " fill="#000000" transform="translate(39.25,157.5625)"/>
<path d="M0 0 C17.73734886 -0.54372605 17.73734886 -0.54372605 24.40332031 4.25830078 C27.40027699 7.71632771 28.00091738 9.50803422 27.84082031 14.07080078 C24.40504658 21.0797792 19.13868097 23.73765674 12.08691406 26.21923828 C9.82099186 26.97237238 7.55122587 27.71401209 5.27832031 28.44580078 C4.08480957 28.83501709 2.89129883 29.2242334 1.66162109 29.62524414 C-1.94035327 30.79010833 -5.54782649 31.93537324 -9.15917969 33.07080078 C-10.20477051 33.39999512 -11.25036133 33.72918945 -12.32763672 34.06835938 C-15.14100426 34.94304152 -17.95993623 35.79447799 -20.78417969 36.63330078 C-21.60474854 36.88450684 -22.42531738 37.13571289 -23.27075195 37.39453125 C-31.62980102 39.79860998 -40.31333961 40.38672738 -48.15917969 36.07080078 C-53.1995247 31.63529717 -56.71819271 26.92687297 -57.49511719 20.13330078 C-57.60011099 11.9017867 -57.60011099 11.9017867 -55.53417969 8.00830078 C-49.94574672 3.44931599 -44.74776324 2.48337269 -37.78417969 1.94580078 C-36.87732422 1.86797363 -35.97046875 1.79014648 -35.03613281 1.70996094 C-23.37282045 0.76316039 -11.69182129 0.38338175 0 0 Z " fill="#000000" transform="translate(62.1591796875,217.92919921875)"/>
<path d="M0 0 C0.75382965 -0.00555405 1.5076593 -0.01110809 2.28433228 -0.01683044 C4.70668296 -0.02854894 7.12843149 -0.02238369 9.55078125 -0.01171875 C10.78808487 -0.00948303 10.78808487 -0.00948303 12.05038452 -0.00720215 C21.8101948 0.02458838 31.49444348 0.18508098 41.17578125 1.55078125 C41.96621826 1.65994873 42.75665527 1.76911621 43.57104492 1.8815918 C49.82389778 2.9311901 55.52589159 5.08973697 60.17578125 9.48828125 C64.14642535 16.10602141 65.6279108 21.73808319 63.86328125 29.30078125 C62.31088535 32.4761365 60.58623716 35.03165133 57.86328125 37.30078125 C49.80802499 39.98586667 41.53844576 38.49645996 33.6015625 36.18359375 C32.82641296 35.96247925 32.05126343 35.74136475 31.25262451 35.5135498 C23.09178819 33.1450471 15.04398064 30.45698332 7.02685547 27.64404297 C4.57708011 26.78813319 2.12088166 25.95263223 -0.3359375 25.1171875 C-1.92099913 24.56502406 -3.50565115 24.01168305 -5.08984375 23.45703125 C-6.17268646 23.0927301 -6.17268646 23.0927301 -7.27740479 22.72106934 C-12.76368532 20.76083884 -17.03208508 18.13746141 -20.57421875 13.36328125 C-21.39930976 10.33794756 -21.02665558 8.28842631 -20.13671875 5.30078125 C-15.40266688 -0.00135684 -6.62138625 -0.00727228 0 0 Z " fill="#000000" transform="translate(328.13671875,220.69921875)"/>
<path d="M0 0 C4.26686072 3.07610889 6.923315 6.20953726 8.359375 11.3359375 C9.16913126 16.59935316 8.76807142 20.52829538 6.03125 25.1328125 C-1.63394262 35.42734445 -15.51694578 39.66312139 -27.05859375 44.03491211 C-28.94815949 44.75405686 -30.82931036 45.49279316 -32.7109375 46.23242188 C-49.04571998 52.46135001 -49.04571998 52.46135001 -56.8125 49.6875 C-59.49935818 47.80669928 -61.03239054 46.27879335 -61.71875 42.9921875 C-62.01527555 36.09796839 -59.76474335 32.07270252 -55.3125 26.9375 C-48.47582902 20.81811132 -40.82358513 15.73980286 -33.1875 10.6875 C-32.15496094 9.99398437 -31.12242187 9.30046875 -30.05859375 8.5859375 C-11.56721672 -3.71023933 -11.56721672 -3.71023933 0 0 Z " fill="#000000" transform="translate(365.3125,93.0625)"/>
<path d="M0 0 C8.57328961 3.15674115 15.83541591 8.44445756 23 14 C23.73605469 14.56589844 24.47210938 15.13179687 25.23046875 15.71484375 C26.67342865 16.83188921 28.11217419 17.9543977 29.546875 19.08203125 C31.98601288 20.98906421 34.44356499 22.8698527 36.90527344 24.74755859 C39.61381492 26.81857001 42.30769569 28.90791302 45 31 C46.12921875 31.87205078 46.12921875 31.87205078 47.28125 32.76171875 C51.01488067 35.77551808 53.49804342 38.40025797 55 43 C55 46.6875 55 46.6875 54 50 C52 52 52 52 49 53 C40.82463494 52.76830949 34.20454369 49.94004495 26.75 46.75 C24.45366389 45.78517475 22.15678964 44.82162926 19.859375 43.859375 C18.73160645 43.38395264 17.60383789 42.90853027 16.44189453 42.41870117 C11.92532474 40.55703377 7.36374606 38.82660842 2.78759766 37.11743164 C-5.4161943 33.8288736 -11.96113631 28.70293419 -16.171875 20.80078125 C-18.10904353 15.93237088 -18.28492555 11.99851462 -16.875 6.94921875 C-13.79060685 0.07818223 -6.71779568 -1.0057165 0 0 Z " fill="#000000" transform="translate(40,89)"/>
<path d="M0 0 C4.70166891 2.4379024 7.97822933 5.23548963 9.8359375 10.26171875 C11.23727216 16.56772474 11.42325837 21.36334717 8 27 C1.58554288 34.60681748 -6.17348577 40.90480558 -14 47 C-14.76828125 47.60070312 -15.5365625 48.20140625 -16.328125 48.8203125 C-21.90154373 53.09326686 -25.65991967 55.77264003 -33 55 C-35.75329021 53.20437595 -37.52627461 51.94745078 -39 49 C-40.72540051 37.7848967 -32.25353746 27.13695109 -26.5 18.0625 C-25.84294067 17.01654663 -25.84294067 17.01654663 -25.17260742 15.94946289 C-19.12474918 6.66822829 -11.96536442 -1.92036713 0 0 Z " fill="#000000" transform="translate(321,43)"/>
<path d="M0 0 C3.1875 1.5625 3.1875 1.5625 6 4 C6.51691406 4.42796875 7.03382812 4.8559375 7.56640625 5.296875 C14.01216154 11.09955029 18.39359729 18.73724445 23 26 C23.39461426 26.61875 23.78922852 27.2375 24.19580078 27.875 C33.73504373 42.88545775 33.73504373 42.88545775 33 52 C31.47422949 54.07068855 30.52146211 54.86732029 28.01953125 55.50390625 C21.22545325 55.68428 17.92910322 53.46757671 13 49 C12.22914062 48.33484375 11.45828125 47.6696875 10.6640625 46.984375 C-15.13580315 24.35862532 -15.13580315 24.35862532 -16.23828125 13.6953125 C-16.4397465 6.71825262 -16.4397465 6.71825262 -14.125 2.9375 C-9.89866595 -0.91592222 -5.49535743 -0.59455181 0 0 Z " fill="#000000" transform="translate(82,42)"/>
<path d="M0 0 C3.18991531 2.10654785 5.33922175 3.99446789 7.4375 7.1875 C9.41170669 17.05853345 5.31078254 26.45115934 0.32421875 34.80859375 C-2.90248767 39.62361243 -6.06446088 43.88846447 -11 47 C-13.97152243 47 -15.29562176 46.58991678 -17.5625 44.69140625 C-21.74525393 39.76985068 -21.15617043 32.56321593 -20.72436523 26.47119141 C-19.91748251 18.03360386 -18.44500898 9.80626123 -13 3 C-8.48004439 0.29630928 -5.27999801 -0.75428543 0 0 Z " fill="#000000" transform="translate(266,13)"/>
<path d="M0 0 C5.18241616 3.58782657 7.30652762 6.50135363 8.51953125 12.62109375 C9.63775199 23.37092242 8.13787718 34.8808682 2 44 C-0.9375 45.6875 -0.9375 45.6875 -4 46 C-9.54353211 43.45992956 -10.82370245 40.06766767 -12.921875 34.58984375 C-15.69153432 25.36768102 -17.84382764 14.16052381 -14 5 C-9.79858171 -0.27870504 -6.55839233 -1.80034299 0 0 Z " fill="#000000" transform="translate(202,2)"/>
<path d="M0 0 C6.98897838 6.0773725 10.2620386 14.31147299 11.04345703 23.47558594 C11.16151611 25.61052883 11.22147118 27.73704507 11.25 29.875 C11.27090698 30.89207031 11.27090698 30.89207031 11.29223633 31.9296875 C11.2508834 36.26046691 10.59094228 39.09541833 7.875 42.5 C4.7774637 43.27438408 2.9526206 43.13666321 0.17578125 41.49609375 C-9.15732806 34.1344727 -15.41192825 22.7115174 -17.5703125 11.10546875 C-17.85152896 6.20292847 -16.25069714 3.16153093 -13.125 -0.5 C-8.30250742 -2.10749753 -4.62964993 -2.22223196 0 0 Z " fill="#000000" transform="translate(140.125,13.5)"/>
</svg>
