<svg xmlns="http://www.w3.org/2000/svg" width="397" height="397"><path d="M239 81c14 11 24 25 27 43 2 24-1 48-13 70l-5 10-2 3c-2 6-3 11-1 17 2 7 9 12 16 15l27 8c19 4 35 10 46 27 6 10 9 20 12 31l4 13c2 5 3 8 1 12-4 6-9 10-14 14l-2 1-22 17-2 2c-10 7-20 12-31 17h-2a152 152 0 0 1-41 12 207 207 0 0 1-133-22c-13-6-25-14-36-23l-2-2c-10-8-17-18-18-30-1-20 9-41 21-56 5-4 10-7 16-9l2-1 27-7c8-2 16-4 24-8l2-1c6-3 10-7 13-13 1-9-2-16-6-24l-3-7-1-3c-11-23-17-55-8-80 2-6 5-11 10-16l2-2c22-27 65-27 92-8ZM390 159c4 4 7 8 7 13 1 7 0 10-4 15-5 5-11 5-18 6h-2c-12 2-24 2-36 2h-4c-19 0-19 0-24-4-2-3-3-5-3-9 1-5 4-7 8-10l6-2 4-1h2l11-4a22541 22541 0 0 1 18-5h2c9-3 24-6 33-1ZM39 158h2l27 8 3 1c16 5 16 5 19 11v9c-4 4-8 5-14 5H60c-45 0-45 0-55-9-3-5-5-10-5-15s2-9 5-12c10-7 24-1 34 2Z"/><path d="M62 218c18-1 18-1 25 4 3 4 3 5 3 10-3 7-9 10-16 12a762 762 0 0 1-21 7l-3 1-9 3h-2c-8 3-17 3-25-1-5-4-9-9-9-16 0-8 0-8 2-12 5-5 10-6 17-6h3l35-2ZM328 221h12a212 212 0 0 1 32 2c6 1 12 3 16 7 4 7 6 12 4 20-2 3-3 6-6 8-8 3-16 1-24-1a197492987 197492987 0 0 1-39-13l-2-1c-6-2-10-4-13-9v-8c5-5 14-5 20-5ZM365 93c5 3 7 6 9 11 0 6 0 10-3 14-7 10-21 15-33 19l-5 2c-17 7-17 7-24 4-3-2-5-4-5-7-1-7 2-11 6-16l22-16 3-2c19-13 19-13 30-9ZM40 89c9 3 16 8 23 14l2 2a744 744 0 0 1 20 15l2 2c4 3 6 5 8 10l-1 7-5 3c-8 0-15-3-22-6l-7-3-4-2-13-5c-8-3-15-8-19-16-2-5-2-9-1-14 3-7 10-8 17-7ZM321 43c5 2 8 5 10 10 1 7 1 11-2 17-6 8-14 14-22 20l-2 2c-6 4-10 7-17 6-3-2-5-3-6-6-2-11 7-22 13-31l1-2c6-9 13-18 25-16ZM82 42l6 4 2 1c6 6 10 14 15 21l1 2c10 15 10 15 9 24-2 2-2 3-5 4-7 0-10-3-15-7l-2-2C67 66 67 66 66 56c0-7 0-7 2-11 4-4 9-4 14-3ZM266 13l7 7c2 10-2 19-7 28-3 5-6 9-11 12-3 0-4 0-7-2-4-5-3-12-3-19 1-8 3-16 8-23 5-3 8-4 13-3ZM202 2c5 4 7 7 9 13 1 10-1 22-7 31l-6 2c-6-3-7-6-9-11-3-10-5-21-1-30 4-5 7-7 14-5ZM140 14c7 6 10 14 11 23v8c0 5 0 8-3 11-3 1-5 1-8-1-9-7-15-19-17-30-1-5 1-8 4-12 5-2 8-2 13 1Z"/></svg>