<svg xmlns="http://www.w3.org/2000/svg" width="780" height="780"><path d="m376 6 16 2c10 1 19 5 28 10 7 4 13 7 20 9s10 5 15 10c5 7 13 11 21 15l2 1c5 3 9 4 14 5h3c13 2 24 0 37-6 6-3 12-5 19-6l3-1c13-2 29-4 40 3l7 6 14 10c6 4 11 8 16 14l6 6c4 3 6 6 8 11 3 7 7 14 12 20 9 11 13 22 16 36l5 17 4 12 2 6v3a273 273 0 0 0 6 20l1 3 1 5c2 10 5 17 13 22l14 8 4 2 22 9c11 5 23 10 28 22l4 13v3c5 22 3 45 2 67a1307 1307 0 0 0-1 19c-1 11-5 18-11 26-7 9-11 17-14 27-3 7-5 14-10 20-11 15-20 27-18 47l7 30 4 27v3c1 13-5 27-10 39l-3 7c-5 13-18 24-29 32l-4 3c-15 15-35 23-54 31l-2 1c-16 7-32 9-49 10-16 1-16 1-32 6l-2 1c-9 4-9 4-16 12-2 6-2 12-2 19-1 10-3 14-11 22l-13 16c-8 11-24 17-38 19-9 1-19 0-29-1l-14-1c-28-2-52-8-75-23l-17-9-18-10-2-2-9-5c-11-8-27-10-41-8l-12 5c-12 6-22 8-36 9h-3c-19 1-39-5-53-18l-7-8-8-6c-6-4-8-10-11-16l-8-12c-8-9-12-21-17-32l-3-6c-3-4-4-9-5-14l-8-23c-3-8-5-17-6-27-2-12-6-25-15-34l-7-4-2-1-20-4c-6 0-10-2-15-6l-4-7-16-20c-15-16-10-47-10-67a156 156 0 0 1 11-56 199 199 0 0 1 21-43l7-10a10414 10414 0 0 1 12-24l1-2c3-9 4-18 1-28v-2l-5-12c-3-8-4-16-5-24v-3c-3-21 1-40 13-57 4-5 9-9 14-12l6-6c9-11 20-17 33-22 4-1 7-4 11-6 7-6 13-9 22-11 6-1 9-3 14-6 7-4 14-6 22-7 9-2 17-4 24-9 6-3 11-4 17-5 9-1 15-4 20-10 6-9 11-18 14-28 5-14 13-24 23-34l2-2c24-21 70-11 98-5Zm6 98c-3 4-3 7-3 12 3 10 9 19 17 26l9 12 7 9 12 15 1 2c4 7 5 13 6 21 1 14 4 27 8 40 2 8 2 18-2 26-4 2-5 3-9 2-6-4-9-12-11-18-5-12-12-20-21-29-7-7-14-16-18-25-6-8-16-10-25-13-12-4-21-7-30-16-8-7-13-9-24-9h-2l-14-1c-8-2-15-3-23-3h-2c-22 1-52 6-69 21-3 4-3 8-3 12 2 5 5 8 10 10l23 7 17 6c6 3 12 4 19 4l23 5 2 1c7 3 11 5 15 11 6 8 17 11 27 14 4 1 6 4 8 8 2 5 3 10 2 16-2 3-3 4-7 5l-12-1-3-1c-5-1-10-2-15-5-16-9-48-3-66-2l-4 1c-15 1-26 6-39 13l-3 2-10 5-4 2c-9 5-17 10-24 17l-12 10c-15 9-21 20-25 36l-5 13c-4 7-6 13-4 21 2 4 4 7 8 9h14l3-1c6-2 10-3 14-8 3-5 8-8 13-11l11-10c5-3 11-5 17-6 11-2 21-5 30-10s17-8 27-9l3-1c8 0 16 0 23 5l1 8c-3 7-9 10-15 14l-3 2c-8 5-15 9-23 12-4 2-8 4-11 8l-6 6c-4 4-7 7-9 12v3h-2l-1 2c-3 7-7 12-12 17a63 63 0 0 0-17 39c-1 6-2 10-5 15-2 3-2 7-2 11v9a3023 3023 0 0 0 0 16c-1 25-1 25 5 49l1 3c4 10 9 20 19 25 5 1 9 0 13-2 7-6 7-12 8-20 1-7 2-12 5-18l3-12 7-16c4-8 7-15 9-23 2-12 8-22 14-33l1-2c4-8 12-16 21-20h8c3 3 4 4 5 8 0 11-3 21-5 31a162 162 0 0 0 27 144c4 5 7 8 13 10 10 5 15 9 21 18 6 8 14 16 24 18h7l14 3c4 1 7 1 11-1 4-3 6-7 7-12 0-7-5-11-9-17l-7-13c-3-7-5-12-10-18a157 157 0 0 1-15-26c-4-8-5-14-6-22 0-6-1-11-3-17-2-12-3-28 3-39 1-3 3-3 6-3 4 0 5 1 7 4l12 24 1 3 3 5c3 8 9 14 16 20l4 4c6 6 12 10 19 14l8 6 21 11c4 2 7 3 10 6 4 5 9 6 15 8l3 1c13 5 26 5 40 5h7c10 0 19-2 28-5l9-2c15-3 15-3 26-12l1-4h2c2-6 3-11 2-17l-5-5-3-2c-8-5-19-6-29-7l-19-4-9-2-15-4-7-4c-11-4-19-10-27-17l-8-7c-6-4-12-8-14-15-1-5-1-9 2-14 3-3 4-3 9-3 11 0 22 6 32 11 6 3 11 3 18 3h2a1545 1545 0 0 0 31 0c21 0 51-3 67-18l3-3c3-5 7-7 12-10 23-15 47-38 53-67l1-14v-3c0-6-1-11-5-15-4-3-8-3-13-2-6 2-10 6-14 11-10 12-10 12-17 14l-4 1-3 1-16 8c-9 6-20 11-30 16l-3 2a101 101 0 0 1-35 6c-8 1-14 2-21-2-4-3-6-5-6-11 0-4 1-8 4-11 5-3 9-5 15-6 9-2 16-5 23-11 3-3 7-4 11-6 7-3 13-7 16-14v-3h2l1-3c2-12 6-17 16-23 5-4 8-8 10-14l1-7 3-18 1-3 1-2a155 155 0 0 0 2-92c-6-21-6-21-20-36-6-2-11-2-16 0-6 4-8 9-10 15l-1 12a76 76 0 0 1-9 40l-1 2c-5 12-9 23-12 35-5 17-11 39-25 49-6 2-13 3-19 2-3-3-5-5-5-9-1-8 2-14 5-21 7-14 8-28 8-44v-10c0-16-3-31-10-46-4-9-6-19-8-29-2-7-4-12-10-18a536 536 0 0 1-20-19l-11-11-14-11-9-6c-15-11-37-21-52-6Z"/></svg>