<?xml version="1.0" standalone="no"?>
<!DOCTYPE svg PUBLIC "-//W3C//DTD SVG 20010904//EN"
 "http://www.w3.org/TR/2001/REC-SVG-20010904/DTD/svg10.dtd">
<svg version="1.0" xmlns="http://www.w3.org/2000/svg"
 width="77.000000pt" height="82.000000pt" viewBox="0 0 77.000000 82.000000"
 preserveAspectRatio="xMidYMid meet">

<g transform="translate(0.000000,82.000000) scale(0.100000,-0.100000)"
fill="#000000" stroke="none">
<path d="M536 731 c-3 -4 6 -19 19 -31 23 -22 35 -77 20 -92 -3 -3 -32 8 -63
26 -87 47 -190 42 -273 -15 -53 -37 -68 28 -19 80 34 35 32 35 -38 20 -29 -6
-59 -20 -72 -34 -21 -22 -22 -30 -16 -95 6 -57 4 -71 -7 -76 -19 -7 -11 -39
20 -80 18 -25 23 -43 23 -92 0 -58 2 -62 34 -87 23 -18 36 -37 41 -62 9 -47
31 -80 59 -87 12 -3 35 -17 51 -30 41 -35 78 -41 115 -20 16 10 30 22 30 26 0
4 10 8 23 8 38 0 64 27 83 87 12 39 29 67 52 87 33 29 34 32 29 86 -6 51 -4
58 23 90 39 46 41 107 2 68 -9 -9 -12 -8 -12 8 0 11 5 25 10 30 6 6 11 37 11
69 1 50 -2 61 -22 77 -13 10 -35 21 -49 24 -14 3 -35 9 -47 14 -12 5 -25 6
-27 1z m-264 -288 l29 -27 6 22 c3 12 9 22 14 22 10 0 12 -93 3 -103 -4 -4
-19 2 -34 13 -16 11 -35 20 -44 20 -18 0 -36 30 -36 59 0 29 28 27 62 -6z
m284 12 c10 -25 -5 -65 -24 -65 -10 0 -28 -7 -41 -16 -26 -18 -36 -12 -46 29
-6 22 -4 26 8 21 10 -3 27 5 44 20 31 29 51 33 59 11z m-312 -181 c9 -8 16
-27 16 -40 0 -34 27 -84 45 -84 9 0 15 9 15 24 0 29 24 53 35 35 5 -7 23 -9
51 -5 43 5 43 5 50 -29 3 -19 10 -35 15 -35 5 0 9 -5 9 -11 0 -8 -12 -10 -34
-6 -18 3 -38 1 -44 -5 -12 -12 -52 -1 -52 14 0 6 -8 3 -19 -6 -17 -15 -20 -15
-34 -1 -9 8 -20 15 -26 15 -18 0 -41 44 -41 79 0 19 -7 43 -17 53 -14 16 -14
18 0 18 8 0 23 -7 31 -16z m326 6 c0 -5 -4 -10 -9 -10 -6 0 -15 -27 -22 -61
-11 -58 -26 -78 -48 -65 -6 4 -5 16 4 34 15 30 30 68 39 95 6 18 36 24 36 7z"/>
<path d="M692 416 c-24 -35 -28 -61 -11 -71 18 -12 49 26 49 61 0 45 -12 48
-38 10z"/>
<path d="M50 401 c0 -29 22 -61 41 -61 19 0 20 30 3 59 -23 39 -44 40 -44 2z"/>
</g>
</svg>
