<?xml version="1.0" standalone="no"?>
<!DOCTYPE svg PUBLIC "-//W3C//DTD SVG 20010904//EN"
 "http://www.w3.org/TR/2001/REC-SVG-20010904/DTD/svg10.dtd">
<svg version="1.0" xmlns="http://www.w3.org/2000/svg"
 width="77.000000pt" height="82.000000pt" viewBox="0 0 77.000000 82.000000"
 preserveAspectRatio="xMidYMid meet">

<g transform="translate(0.000000,82.000000) scale(0.100000,-0.100000)"
fill="#000000" stroke="none">
<path d="M300 711 c-39 -8 -77 -27 -98 -48 -19 -18 -30 -16 -37 7 -5 16 -10
18 -26 10 -33 -18 -52 -67 -44 -119 4 -25 7 -87 8 -136 2 -68 6 -98 20 -118 9
-15 21 -27 25 -27 7 0 30 -46 45 -92 5 -15 160 -98 183 -98 17 0 159 75 171
90 7 8 15 27 18 41 3 14 23 46 44 72 l39 47 -5 80 c-4 53 -2 94 7 120 13 41 6
73 -28 127 -14 23 -14 23 -39 3 -24 -19 -24 -19 -66 10 -34 24 -55 31 -112 34
-38 3 -86 1 -105 -3z m-6 -269 c5 -23 6 -45 3 -48 -11 -12 -76 18 -91 41 -16
25 -22 76 -9 88 3 4 25 -3 47 -16 34 -19 42 -29 50 -65z m263 56 c-11 -67 -24
-86 -67 -99 -22 -7 -43 -9 -47 -5 -4 4 -1 26 7 49 11 31 25 47 55 64 53 30 59
29 52 -9z m-189 -256 c18 -2 39 1 47 8 13 10 19 10 34 -5 13 -11 27 -14 40
-10 17 5 21 2 21 -14 0 -27 -35 -45 -68 -35 -43 11 -116 12 -134 1 -12 -8 -24
-7 -42 1 -32 14 -36 47 -6 39 14 -3 24 1 31 15 7 13 16 17 27 12 9 -4 32 -9
50 -12z"/>
</g>
</svg>
