<?xml version="1.0" encoding="UTF-8" standalone="no"?>
<!-- Created with Inkscape (http://www.inkscape.org/) -->

<svg
   width="197.2641mm"
   height="197.26411mm"
   viewBox="0 0 197.2641 197.26412"
   version="1.1"
   id="svg5"
   sodipodi:docname="earth.svg"
   inkscape:version="1.1.2 (0a00cf5339, 2022-02-04)"
   xmlns:inkscape="http://www.inkscape.org/namespaces/inkscape"
   xmlns:sodipodi="http://sodipodi.sourceforge.net/DTD/sodipodi-0.dtd"
   xmlns="http://www.w3.org/2000/svg"
   xmlns:svg="http://www.w3.org/2000/svg">
  <sodipodi:namedview
     id="namedview17"
     pagecolor="#ffffff"
     bordercolor="#666666"
     borderopacity="1.0"
     inkscape:pageshadow="2"
     inkscape:pageopacity="0.0"
     inkscape:pagecheckerboard="0"
     inkscape:document-units="mm"
     showgrid="false"
     inkscape:zoom="1.0473214"
     inkscape:cx="307.9284"
     inkscape:cy="372.85594"
     inkscape:window-width="1850"
     inkscape:window-height="1016"
     inkscape:window-x="0"
     inkscape:window-y="0"
     inkscape:window-maximized="1"
     inkscape:current-layer="svg5"
     fit-margin-top="0"
     fit-margin-left="0"
     fit-margin-right="0"
     fit-margin-bottom="0" />
  <defs
     id="defs2">
    <clipPath
       clipPathUnits="userSpaceOnUse"
       id="clipPath1104">
      <path
         d="M 0,600 H 600 V 0 H 0 Z"
         id="path1102" />
    </clipPath>
    <clipPath
       clipPathUnits="userSpaceOnUse"
       id="clipPath1286">
      <path
         d="M 0,600 H 600 V 0 H 0 Z"
         id="path1284" />
    </clipPath>
    <clipPath
       clipPathUnits="userSpaceOnUse"
       id="clipPath1470">
      <path
         d="M 0,600 H 600 V 0 H 0 Z"
         id="path1468" />
    </clipPath>
  </defs>
  <path
     d="m 98.632053,194.58761 c -25.630716,0 -49.727202,-9.98114 -67.850807,-28.10475 C 12.657641,148.35926 2.6765001,124.26242 2.6765001,98.632054 2.6765001,73.00169 12.657641,48.904852 30.781246,30.781247 48.904851,12.657642 73.001337,2.6765001 98.632053,2.6765001 c 25.630357,0 49.727197,9.9811419 67.850807,28.1047469 18.1236,18.123605 28.10474,42.220443 28.10474,67.850807 0,25.630366 -9.98114,49.727206 -28.10474,67.850806 -18.12361,18.12361 -42.22045,28.10475 -67.850807,28.10475"
     style="fill:#ffffff;fill-opacity:1;fill-rule:nonzero;stroke:#000000;stroke-width:5.353;stroke-miterlimit:4;stroke-dasharray:none;stroke-opacity:1"
     id="bg" />
  <g
     id="symbol"
     transform="matrix(0.35277777,0,0,-0.35277777,60.478639,132.09462)"
     style="fill:#000000">
    <path
       d="m 0,0 c -0.423,-4 -4.892,-6.179 -8.264,-3.987 -24.283,15.779 -85.571,80.677 -11.571,162.809 73.487,81.563 169.567,37.861 265.702,95.873 2.907,1.755 6.665,0.165 7.401,-3.15 13.134,-59.172 20.961,-187.976 -39.103,-247.223 -73.5,-72.5 -133.5,-40.5 -166,-29 -1.5,-18 4.501,-41.921 9.501,-58.421 5,-16.5 -27.001,-21.079 -31.001,-18.079 -4,3 -18.611,83.753 18.5,133 47.5,63.032 163,118 166.5,162.5 -22.5,-20 -51.809,-46.518 -129,-89.5 C 14.221,66.711 2.036,19.224 0,0"
       style="fill:#000000;fill-opacity:1;fill-rule:nonzero;stroke:none"
       id="path1482" />
  </g>
</svg>
