<?xml version="1.0" encoding="UTF-8" standalone="no"?>
<!-- Created with Inkscape (http://www.inkscape.org/) -->

<svg
   width="54.565903mm"
   height="81.805901mm"
   viewBox="0 0 54.565905 81.8059"
   version="1.1"
   id="svg5"
   sodipodi:docname="heal.svg"
   inkscape:version="1.1.2 (0a00cf5339, 2022-02-04)"
   xmlns:inkscape="http://www.inkscape.org/namespaces/inkscape"
   xmlns:sodipodi="http://sodipodi.sourceforge.net/DTD/sodipodi-0.dtd"
   xmlns="http://www.w3.org/2000/svg"
   xmlns:svg="http://www.w3.org/2000/svg">
  <sodipodi:namedview
     id="namedview34"
     pagecolor="#ffffff"
     bordercolor="#666666"
     borderopacity="1.0"
     inkscape:pageshadow="2"
     inkscape:pageopacity="0.0"
     inkscape:pagecheckerboard="0"
     inkscape:document-units="mm"
     showgrid="false"
     inkscape:zoom="0.89421017"
     inkscape:cx="140.34732"
     inkscape:cy="209.68225"
     inkscape:window-width="1850"
     inkscape:window-height="1016"
     inkscape:window-x="0"
     inkscape:window-y="0"
     inkscape:window-maximized="1"
     inkscape:current-layer="svg5"
     fit-margin-top="0"
     fit-margin-left="0"
     fit-margin-right="0"
     fit-margin-bottom="0" />
  <defs
     id="defs2">
    <clipPath
       clipPathUnits="userSpaceOnUse"
       id="clipPath1104">
      <path
         d="M 0,600 H 600 V 0 H 0 Z"
         id="path1102" />
    </clipPath>
    <clipPath
       clipPathUnits="userSpaceOnUse"
       id="clipPath1286">
      <path
         d="M 0,600 H 600 V 0 H 0 Z"
         id="path1284" />
    </clipPath>
    <clipPath
       clipPathUnits="userSpaceOnUse"
       id="clipPath1470">
      <path
         d="M 0,600 H 600 V 0 H 0 Z"
         id="path1468" />
    </clipPath>
    <clipPath
       clipPathUnits="userSpaceOnUse"
       id="clipPath1656">
      <path
         d="M 0,600 H 600 V 0 H 0 Z"
         id="path1654" />
    </clipPath>
    <clipPath
       clipPathUnits="userSpaceOnUse"
       id="clipPath1844">
      <path
         d="M 0,600 H 600 V 0 H 0 Z"
         id="path1842" />
    </clipPath>
    <clipPath
       clipPathUnits="userSpaceOnUse"
       id="clipPath2265">
      <path
         d="M 0,600 H 600 V 0 H 0 Z"
         id="path2263" />
    </clipPath>
    <clipPath
       clipPathUnits="userSpaceOnUse"
       id="clipPath2512">
      <path
         d="M 0,600 H 600 V 0 H 0 Z"
         id="path2510" />
    </clipPath>
    <clipPath
       clipPathUnits="userSpaceOnUse"
       id="clipPath2740">
      <path
         d="M 0,300 H 300 V 0 H 0 Z"
         id="path2738" />
    </clipPath>
    <clipPath
       clipPathUnits="userSpaceOnUse"
       id="clipPath2946">
      <path
         d="M 0,300 H 300 V 0 H 0 Z"
         id="path2944" />
    </clipPath>
    <clipPath
       clipPathUnits="userSpaceOnUse"
       id="clipPath3139">
      <path
         d="M 0,300 H 300 V 0 H 0 Z"
         id="path3137" />
    </clipPath>
    <clipPath
       clipPathUnits="userSpaceOnUse"
       id="clipPath3322">
      <path
         d="M 0,300 H 300 V 0 H 0 Z"
         id="path3320" />
    </clipPath>
    <clipPath
       clipPathUnits="userSpaceOnUse"
       id="clipPath3754">
      <path
         d="M 0,300 H 300 V 0 H 0 Z"
         id="path3752" />
    </clipPath>
    <clipPath
       clipPathUnits="userSpaceOnUse"
       id="clipPath3928">
      <path
         d="M 0,300 H 300 V 0 H 0 Z"
         id="path3926" />
    </clipPath>
    <clipPath
       clipPathUnits="userSpaceOnUse"
       id="clipPath4106">
      <path
         d="M 0,300 H 300 V 0 H 0 Z"
         id="path4104" />
    </clipPath>
  </defs>
  <path
     id="path4110"
     style="fill:#000000;fill-opacity:1;fill-rule:nonzero;stroke:none;stroke-width:1.19655"
     d="M 103.06641 4.203125 C 102.09166 4.203125 101.11708 4.7540458 100.72461 5.8554688 C 95.600953 20.258424 81.893895 54.748861 57.873047 87.984375 C 26.452689 131.45646 10.529297 152.54812 10.529297 189.13281 C 10.529297 240.2413 51.959121 281.67188 103.06641 281.67188 C 154.1749 281.67188 195.60547 240.2413 195.60547 189.13281 C 195.60547 152.54812 179.68132 131.45646 148.25977 87.984375 C 124.2389 54.748861 110.53305 20.258424 105.4082 5.8554688 C 105.01633 4.7540458 104.04115 4.203125 103.06641 4.203125 z M 102.52539 120.41602 C 108.22772 120.41602 112.85352 125.03731 112.85352 130.74609 L 112.85352 177.2168 L 159.32422 177.2168 C 165.03624 177.21363 169.65039 181.829 169.65039 187.54102 C 169.65039 193.2498 165.02655 197.87109 159.32422 197.87109 L 112.85352 197.87109 L 112.85352 244.3418 C 112.85352 250.05059 108.22772 254.66406 102.52539 254.66406 C 96.823051 254.66406 92.199219 250.05059 92.199219 244.3418 L 92.199219 197.87109 L 45.728516 197.87109 C 40.026176 197.87109 35.402344 193.2498 35.402344 187.54102 C 35.402344 181.83222 40.026176 177.2168 45.728516 177.2168 L 92.199219 177.2168 L 92.199219 130.74609 C 92.199219 125.03731 96.823051 120.41602 102.52539 120.41602 z "
     transform="scale(0.26458333)" />
</svg>
