<?xml version="1.0" encoding="UTF-8" standalone="no"?>
<!-- Created with Inkscape (http://www.inkscape.org/) -->

<svg
   width="54.565903mm"
   height="81.805901mm"
   viewBox="0 0 54.565905 81.8059"
   version="1.1"
   id="svg5"
   sodipodi:docname="heal.svg"
   inkscape:version="1.1.2 (0a00cf5339, 2022-02-04)"
   xmlns:inkscape="http://www.inkscape.org/namespaces/inkscape"
   xmlns:sodipodi="http://sodipodi.sourceforge.net/DTD/sodipodi-0.dtd"
   xmlns="http://www.w3.org/2000/svg"
   xmlns:svg="http://www.w3.org/2000/svg">
  <sodipodi:namedview
     id="namedview34"
     pagecolor="#ffffff"
     bordercolor="#666666"
     borderopacity="1.0"
     inkscape:pageshadow="2"
     inkscape:pageopacity="0.0"
     inkscape:pagecheckerboard="0"
     inkscape:document-units="mm"
     showgrid="false"
     inkscape:zoom="0.89421017"
     inkscape:cx="140.34732"
     inkscape:cy="209.68225"
     inkscape:window-width="1850"
     inkscape:window-height="1016"
     inkscape:window-x="0"
     inkscape:window-y="0"
     inkscape:window-maximized="1"
     inkscape:current-layer="svg5"
     fit-margin-top="0"
     fit-margin-left="0"
     fit-margin-right="0"
     fit-margin-bottom="0" />
  <defs
     id="defs2">
    <clipPath
       clipPathUnits="userSpaceOnUse"
       id="clipPath1104">
      <path
         d="M 0,600 H 600 V 0 H 0 Z"
         id="path1102" />
    </clipPath>
    <clipPath
       clipPathUnits="userSpaceOnUse"
       id="clipPath1286">
      <path
         d="M 0,600 H 600 V 0 H 0 Z"
         id="path1284" />
    </clipPath>
    <clipPath
       clipPathUnits="userSpaceOnUse"
       id="clipPath1470">
      <path
         d="M 0,600 H 600 V 0 H 0 Z"
         id="path1468" />
    </clipPath>
    <clipPath
       clipPathUnits="userSpaceOnUse"
       id="clipPath1656">
      <path
         d="M 0,600 H 600 V 0 H 0 Z"
         id="path1654" />
    </clipPath>
    <clipPath
       clipPathUnits="userSpaceOnUse"
       id="clipPath1844">
      <path
         d="M 0,600 H 600 V 0 H 0 Z"
         id="path1842" />
    </clipPath>
    <clipPath
       clipPathUnits="userSpaceOnUse"
       id="clipPath2265">
      <path
         d="M 0,600 H 600 V 0 H 0 Z"
         id="path2263" />
    </clipPath>
    <clipPath
       clipPathUnits="userSpaceOnUse"
       id="clipPath2512">
      <path
         d="M 0,600 H 600 V 0 H 0 Z"
         id="path2510" />
    </clipPath>
    <clipPath
       clipPathUnits="userSpaceOnUse"
       id="clipPath2740">
      <path
         d="M 0,300 H 300 V 0 H 0 Z"
         id="path2738" />
    </clipPath>
    <clipPath
       clipPathUnits="userSpaceOnUse"
       id="clipPath2946">
      <path
         d="M 0,300 H 300 V 0 H 0 Z"
         id="path2944" />
    </clipPath>
    <clipPath
       clipPathUnits="userSpaceOnUse"
       id="clipPath3139">
      <path
         d="M 0,300 H 300 V 0 H 0 Z"
         id="path3137" />
    </clipPath>
    <clipPath
       clipPathUnits="userSpaceOnUse"
       id="clipPath3322">
      <path
         d="M 0,300 H 300 V 0 H 0 Z"
         id="path3320" />
    </clipPath>
    <clipPath
       clipPathUnits="userSpaceOnUse"
       id="clipPath3754">
      <path
         d="M 0,300 H 300 V 0 H 0 Z"
         id="path3752" />
    </clipPath>
    <clipPath
       clipPathUnits="userSpaceOnUse"
       id="clipPath3928">
      <path
         d="M 0,300 H 300 V 0 H 0 Z"
         id="path3926" />
    </clipPath>
    <clipPath
       clipPathUnits="userSpaceOnUse"
       id="clipPath4106">
      <path
         d="M 0,300 H 300 V 0 H 0 Z"
         id="path4104" />
    </clipPath>
  </defs>
  <g
     id="layer1"
     transform="translate(89.528896,129.11234)"
     style="fill:#000000">
    <path
       d="m -48.921705,-104.41094 c -7.082015,-9.79875 -11.123083,-19.96792 -12.634031,-24.21431 -0.231069,-0.64946 -1.14935,-0.64946 -1.380771,0 -1.510596,4.24639 -5.551665,14.41556 -12.633677,24.21431 -9.263591,12.816773 -13.958712,19.034833 -13.958712,29.821014 0,15.068199 12.214931,27.283479 27.282774,27.283479 15.068198,0 27.283127,-12.21528 27.283127,-27.283479 0,-10.786181 -4.694766,-17.004241 -13.95871,-29.821014"
       style="fill:#000000;fill-opacity:1;fill-rule:nonzero;stroke:none;stroke-width:0.352777"
       id="path4110" />
  </g>
  <path
     d="m 46.913438,54.053153 c 0,1.683109 -1.363424,3.045579 -3.044629,3.045579 H 30.167982 v 13.700827 c 0,1.683109 -1.363422,3.043677 -3.044627,3.043677 -1.681207,0 -3.044631,-1.360568 -3.044631,-3.043677 V 57.098732 H 10.377899 c -1.6812071,0 -3.0446291,-1.36247 -3.0446291,-3.045579 0,-1.683109 1.363422,-3.043677 3.0446291,-3.043677 H 24.078724 V 37.308649 c 0,-1.683107 1.363424,-3.045579 3.044631,-3.045579 1.681205,0 3.044627,1.362472 3.044627,3.045579 v 13.700827 h 13.700827 c 1.684061,-9.34e-4 3.044629,1.359616 3.044629,3.043677 z"
     id="path2"
     style="fill:#ffffff;stroke-width:0.0951445" />
</svg>
