<?xml version="1.0" encoding="UTF-8" standalone="no"?>
<!-- Created with Inkscape (http://www.inkscape.org/) -->

<svg
   width="205.94328mm"
   height="205.97595mm"
   viewBox="0 0 205.94329 205.97595"
   version="1.1"
   id="svg5"
   sodipodi:docname="poison.svg"
   inkscape:version="1.1.2 (0a00cf5339, 2022-02-04)"
   xmlns:inkscape="http://www.inkscape.org/namespaces/inkscape"
   xmlns:sodipodi="http://sodipodi.sourceforge.net/DTD/sodipodi-0.dtd"
   xmlns="http://www.w3.org/2000/svg"
   xmlns:svg="http://www.w3.org/2000/svg">
  <sodipodi:namedview
     id="namedview78"
     pagecolor="#ffffff"
     bordercolor="#666666"
     borderopacity="1.0"
     inkscape:pageshadow="2"
     inkscape:pageopacity="0.0"
     inkscape:pagecheckerboard="0"
     inkscape:document-units="mm"
     showgrid="false"
     fit-margin-top="0"
     fit-margin-left="0"
     fit-margin-right="0"
     fit-margin-bottom="0"
     inkscape:zoom="1.0134873"
     inkscape:cx="293.54093"
     inkscape:cy="359.6493"
     inkscape:window-width="1850"
     inkscape:window-height="1016"
     inkscape:window-x="0"
     inkscape:window-y="0"
     inkscape:window-maximized="1"
     inkscape:current-layer="svg5" />
  <defs
     id="defs2">
    <clipPath
       clipPathUnits="userSpaceOnUse"
       id="clipPath1104">
      <path
         d="M 0,600 H 600 V 0 H 0 Z"
         id="path1102" />
    </clipPath>
    <clipPath
       clipPathUnits="userSpaceOnUse"
       id="clipPath1286">
      <path
         d="M 0,600 H 600 V 0 H 0 Z"
         id="path1284" />
    </clipPath>
    <clipPath
       clipPathUnits="userSpaceOnUse"
       id="clipPath1470">
      <path
         d="M 0,600 H 600 V 0 H 0 Z"
         id="path1468" />
    </clipPath>
    <clipPath
       clipPathUnits="userSpaceOnUse"
       id="clipPath1656">
      <path
         d="M 0,600 H 600 V 0 H 0 Z"
         id="path1654" />
    </clipPath>
    <clipPath
       clipPathUnits="userSpaceOnUse"
       id="clipPath1844">
      <path
         d="M 0,600 H 600 V 0 H 0 Z"
         id="path1842" />
    </clipPath>
    <clipPath
       clipPathUnits="userSpaceOnUse"
       id="clipPath2265">
      <path
         d="M 0,600 H 600 V 0 H 0 Z"
         id="path2263" />
    </clipPath>
    <clipPath
       clipPathUnits="userSpaceOnUse"
       id="clipPath2512">
      <path
         d="M 0,600 H 600 V 0 H 0 Z"
         id="path2510" />
    </clipPath>
    <clipPath
       clipPathUnits="userSpaceOnUse"
       id="clipPath2740">
      <path
         d="M 0,300 H 300 V 0 H 0 Z"
         id="path2738" />
    </clipPath>
    <clipPath
       clipPathUnits="userSpaceOnUse"
       id="clipPath2946">
      <path
         d="M 0,300 H 300 V 0 H 0 Z"
         id="path2944" />
    </clipPath>
    <clipPath
       clipPathUnits="userSpaceOnUse"
       id="clipPath3139">
      <path
         d="M 0,300 H 300 V 0 H 0 Z"
         id="path3137" />
    </clipPath>
    <clipPath
       clipPathUnits="userSpaceOnUse"
       id="clipPath3322">
      <path
         d="M 0,300 H 300 V 0 H 0 Z"
         id="path3320" />
    </clipPath>
    <clipPath
       clipPathUnits="userSpaceOnUse"
       id="clipPath3754">
      <path
         d="M 0,300 H 300 V 0 H 0 Z"
         id="path3752" />
    </clipPath>
    <clipPath
       clipPathUnits="userSpaceOnUse"
       id="clipPath3928">
      <path
         d="M 0,300 H 300 V 0 H 0 Z"
         id="path3926" />
    </clipPath>
    <clipPath
       clipPathUnits="userSpaceOnUse"
       id="clipPath4106">
      <path
         d="M 0,300 H 300 V 0 H 0 Z"
         id="path4104" />
    </clipPath>
    <clipPath
       clipPathUnits="userSpaceOnUse"
       id="clipPath4300">
      <path
         d="M 0,300 H 300 V 0 H 0 Z"
         id="path4298" />
    </clipPath>
    <clipPath
       clipPathUnits="userSpaceOnUse"
       id="clipPath4493">
      <path
         d="M 0,300 H 300 V 0 H 0 Z"
         id="path4491" />
    </clipPath>
    <clipPath
       clipPathUnits="userSpaceOnUse"
       id="clipPath4688">
      <path
         d="M 0,300 H 300 V 0 H 0 Z"
         id="path4686" />
    </clipPath>
    <clipPath
       clipPathUnits="userSpaceOnUse"
       id="clipPath4913">
      <path
         d="M 0,600 H 600 V 0 H 0 Z"
         id="path4911" />
    </clipPath>
    <clipPath
       clipPathUnits="userSpaceOnUse"
       id="clipPath5244">
      <path
         d="M 0,600 H 600 V 0 H 0 Z"
         id="path5242" />
    </clipPath>
    <clipPath
       clipPathUnits="userSpaceOnUse"
       id="clipPath5260">
      <path
         d="M 286.083,583.583 16.416,313.916 c -7.685,-7.686 -7.685,-20.146 0,-27.833 v 0 L 286.083,16.417 c 7.687,-7.686 20.147,-7.686 27.833,0 v 0 l 269.667,269.666 c 7.686,7.687 7.686,20.147 0,27.833 v 0 L 313.916,583.583 c -3.843,3.843 -8.879,5.765 -13.916,5.765 v 0 c -5.037,0 -10.074,-1.922 -13.917,-5.765"
         id="path5258" />
    </clipPath>
    <clipPath
       clipPathUnits="userSpaceOnUse"
       id="clipPath5462">
      <path
         d="M 0,600 H 600 V 0 H 0 Z"
         id="path5460" />
    </clipPath>
    <clipPath
       clipPathUnits="userSpaceOnUse"
       id="clipPath5478">
      <path
         d="M 286.083,583.583 16.417,313.916 c -7.687,-7.686 -7.687,-20.146 0,-27.833 v 0 L 286.083,16.417 c 7.687,-7.686 20.147,-7.686 27.834,0 v 0 l 269.666,269.666 c 7.686,7.687 7.686,20.147 0,27.833 v 0 L 313.917,583.583 c -3.843,3.843 -8.88,5.765 -13.917,5.765 v 0 c -5.037,0 -10.074,-1.922 -13.917,-5.765"
         id="path5476" />
    </clipPath>
    <clipPath
       clipPathUnits="userSpaceOnUse"
       id="clipPath5490">
      <path
         d="M 0,600 H 600 V 0 H 0 Z"
         id="path5488" />
    </clipPath>
    <clipPath
       clipPathUnits="userSpaceOnUse"
       id="clipPath5808">
      <path
         d="M 0,600 H 600 V 0 H 0 Z"
         id="path5806" />
    </clipPath>
    <clipPath
       clipPathUnits="userSpaceOnUse"
       id="clipPath6067">
      <path
         d="M 0,600 H 600 V 0 H 0 Z"
         id="path6065" />
    </clipPath>
    <clipPath
       clipPathUnits="userSpaceOnUse"
       id="clipPath6304">
      <path
         d="M 0,600 H 600 V 0 H 0 Z"
         id="path6302" />
    </clipPath>
    <clipPath
       clipPathUnits="userSpaceOnUse"
       id="clipPath6531">
      <path
         d="M 0,600 H 600 V 0 H 0 Z"
         id="path6529" />
    </clipPath>
    <clipPath
       clipPathUnits="userSpaceOnUse"
       id="clipPath6760">
      <path
         d="M 0,600 H 600 V 0 H 0 Z"
         id="path6758" />
    </clipPath>
  </defs>
  <path
     d="m 102.97156,203.29945 c -1.38359,0 -2.68393,-0.53869 -3.662538,-1.51694 L 4.176852,106.65034 c -2.0189472,-2.0193 -2.0189472,-5.30543 0,-7.324725 L 99.309022,4.1930917 c 0.978608,-0.9779 2.278948,-1.5165916 3.662538,-1.5165916 1.38359,0 2.68393,0.5386916 3.66254,1.5165916 l 95.13217,95.1325233 c 2.0193,2.019295 2.0193,5.305425 0,7.324725 l -95.13217,95.13217 c -0.97861,0.97825 -2.27895,1.51694 -3.66254,1.51694"
     style="fill:none;fill-opacity:1;fill-rule:nonzero;stroke:#000000;stroke-width:5.353;stroke-miterlimit:4;stroke-dasharray:none;stroke-opacity:1"
     id="path6764" />
  <path
     id="path6772"
     style="fill:#000000;fill-opacity:1;fill-rule:nonzero;stroke:none;stroke-width:1.33333"
     d="M 397.37305 231.28906 C 205.02506 231.28906 181.75452 314.2686 171.75586 358.08594 C 153.95319 436.09925 188.69843 473.29007 208.62109 487.24609 C 233.15043 504.43142 291.54492 507.35938 291.54492 507.35938 C 291.54492 507.35938 283.68225 546.2974 291.54492 555.35742 C 308.84492 575.2894 480.17984 576.62274 503.20117 555.35742 C 512.0145 547.21742 503.20117 507.35938 503.20117 507.35938 C 503.20117 507.35938 561.59432 504.43142 586.125 487.24609 C 606.045 473.29007 640.79423 436.09925 622.99023 358.08594 C 612.99157 314.2686 589.72239 231.28906 397.37305 231.28906 z M 331.11523 328.45703 C 333.27247 328.43207 335.4424 328.96023 337.32617 330.01172 C 343.89253 333.29194 345.72251 342.86237 340.76953 348.29883 C 327.92196 359.89696 314.72372 371.13505 301.74219 382.5957 C 313.67464 393.22226 325.6066 403.85001 337.53906 414.47656 C 342.52864 417.82144 344.58534 424.87513 341.62695 430.20898 C 338.5561 436.58773 329.35341 438.49863 324.05078 433.77539 C 312.31105 421.02432 300.92925 407.92074 289.32617 395.03516 C 278.91 407.04128 268.4943 419.04661 258.07812 431.05273 C 254.34783 436.69598 246.11128 438.43549 240.45117 434.72656 C 234.36743 431.20586 232.83811 422.14884 237.60742 416.92969 C 250.51791 405.30533 263.78844 394.05552 276.83594 382.57422 C 264.93924 372.02734 253.04317 361.48046 241.14648 350.93359 C 235.78061 347.32898 234.07715 339.52132 237.51953 334.04492 C 240.75591 328.18286 249.4231 326.58717 254.39453 331.16602 C 266.17125 344.01049 277.62708 357.1699 289.28125 370.13477 L 318.99219 336.08398 C 321.78205 332.45988 325.29177 328.71637 330.19141 328.50195 C 330.49819 328.4757 330.80706 328.4606 331.11523 328.45703 z M 531.0957 328.45703 C 533.24988 328.432 535.41875 328.95856 537.30078 330.00781 C 543.86994 333.28929 545.70849 342.8547 540.75391 348.29883 C 527.90635 359.89696 514.70615 371.13505 501.72461 382.5957 C 513.65707 393.22226 525.58902 403.85001 537.52148 414.47656 C 542.51103 417.82144 544.56776 424.87513 541.60938 430.20898 C 538.53738 436.58603 529.33614 438.49942 524.0332 433.77539 C 512.29346 421.02432 500.91167 407.92074 489.30859 395.03516 C 478.8924 407.04128 468.47674 419.04661 458.06055 431.05273 C 454.34969 436.66201 446.17736 438.42718 440.52148 434.7793 C 434.37 431.30372 432.78764 422.16354 437.59766 416.92969 C 450.49851 405.29857 463.77457 394.05669 476.81836 382.57422 C 464.92169 372.02734 453.02561 361.48046 441.12891 350.93359 C 435.76511 347.32911 434.04981 339.52055 437.50195 334.04492 C 440.73904 328.18151 449.40457 326.58917 454.37695 331.16602 C 466.1537 344.01049 477.6095 357.1699 489.26367 370.13477 C 499.16709 358.78416 509.07119 347.43459 518.97461 336.08398 C 521.76447 332.45988 525.2742 328.71637 530.17383 328.50195 C 530.48015 328.47581 530.78796 328.46061 531.0957 328.45703 z M 393.97852 424.66797 C 402.17861 424.70868 407.36856 429.39919 410.25781 443.95703 C 414.94061 467.55568 420.50318 492.02355 414.8125 491.95703 C 406.76849 491.85971 406.81213 487.62443 391.32812 484.28711 C 373.77614 480.50577 365.46282 493.41512 361.66016 484.28711 C 357.85616 475.15777 375.9645 427.56771 387.8125 425.31836 C 390.03425 424.89661 392.08619 424.65857 393.97852 424.66797 z "
     transform="scale(0.26458333)" />
</svg>
