<?xml version="1.0" encoding="UTF-8" standalone="no"?>
<!-- Created with Inkscape (http://www.inkscape.org/) -->

<svg
   width="144.59076mm"
   height="144.61382mm"
   viewBox="0 0 144.59076 144.61381"
   version="1.1"
   id="svg5"
   sodipodi:docname="target.svg"
   inkscape:version="1.1.2 (0a00cf5339, 2022-02-04)"
   xmlns:inkscape="http://www.inkscape.org/namespaces/inkscape"
   xmlns:sodipodi="http://sodipodi.sourceforge.net/DTD/sodipodi-0.dtd"
   xmlns="http://www.w3.org/2000/svg"
   xmlns:svg="http://www.w3.org/2000/svg">
  <sodipodi:namedview
     id="namedview32"
     pagecolor="#ffffff"
     bordercolor="#666666"
     borderopacity="1.0"
     inkscape:pageshadow="2"
     inkscape:pageopacity="0.0"
     inkscape:pagecheckerboard="0"
     inkscape:document-units="mm"
     showgrid="false"
     inkscape:zoom="0.89619566"
     inkscape:cx="309.64221"
     inkscape:cy="398.90843"
     inkscape:window-width="1850"
     inkscape:window-height="1016"
     inkscape:window-x="0"
     inkscape:window-y="0"
     inkscape:window-maximized="1"
     inkscape:current-layer="svg5"
     fit-margin-top="0"
     fit-margin-left="0"
     fit-margin-right="0"
     fit-margin-bottom="0" />
  <defs
     id="defs2">
    <clipPath
       clipPathUnits="userSpaceOnUse"
       id="clipPath1104">
      <path
         d="M 0,600 H 600 V 0 H 0 Z"
         id="path1102" />
    </clipPath>
    <clipPath
       clipPathUnits="userSpaceOnUse"
       id="clipPath1286">
      <path
         d="M 0,600 H 600 V 0 H 0 Z"
         id="path1284" />
    </clipPath>
    <clipPath
       clipPathUnits="userSpaceOnUse"
       id="clipPath1470">
      <path
         d="M 0,600 H 600 V 0 H 0 Z"
         id="path1468" />
    </clipPath>
    <clipPath
       clipPathUnits="userSpaceOnUse"
       id="clipPath1656">
      <path
         d="M 0,600 H 600 V 0 H 0 Z"
         id="path1654" />
    </clipPath>
    <clipPath
       clipPathUnits="userSpaceOnUse"
       id="clipPath1844">
      <path
         d="M 0,600 H 600 V 0 H 0 Z"
         id="path1842" />
    </clipPath>
    <clipPath
       clipPathUnits="userSpaceOnUse"
       id="clipPath2265">
      <path
         d="M 0,600 H 600 V 0 H 0 Z"
         id="path2263" />
    </clipPath>
    <clipPath
       clipPathUnits="userSpaceOnUse"
       id="clipPath2512">
      <path
         d="M 0,600 H 600 V 0 H 0 Z"
         id="path2510" />
    </clipPath>
    <clipPath
       clipPathUnits="userSpaceOnUse"
       id="clipPath2740">
      <path
         d="M 0,300 H 300 V 0 H 0 Z"
         id="path2738" />
    </clipPath>
    <clipPath
       clipPathUnits="userSpaceOnUse"
       id="clipPath2946">
      <path
         d="M 0,300 H 300 V 0 H 0 Z"
         id="path2944" />
    </clipPath>
    <clipPath
       clipPathUnits="userSpaceOnUse"
       id="clipPath3139">
      <path
         d="M 0,300 H 300 V 0 H 0 Z"
         id="path3137" />
    </clipPath>
    <clipPath
       clipPathUnits="userSpaceOnUse"
       id="clipPath3322">
      <path
         d="M 0,300 H 300 V 0 H 0 Z"
         id="path3320" />
    </clipPath>
  </defs>
  <path
     d="m 72.29538,142.73467 c -0.971406,0 -1.884362,-0.37821 -2.571435,-1.06503 L 2.9325278,74.878216 c -1.417484,-1.417732 -1.417484,-3.724893 0,-5.142625 L 69.723945,2.94393 c 0.687073,-0.686575 1.600022,-1.064785 2.571428,-1.064785 0.971406,0 1.884363,0.37821 2.571443,1.064785 l 66.791414,66.791661 c 1.41748,1.417732 1.41748,3.724893 0,5.142625 L 74.866816,141.66964 c -0.68708,0.68682 -1.60003,1.06503 -2.571443,1.06503"
     style="fill:#ffffff;fill-opacity:1;fill-rule:nonzero;stroke:#000000;stroke-width:3.75829;stroke-miterlimit:4;stroke-dasharray:none;stroke-opacity:1"
     id="path858" />
  <g
     id="layer1"
     transform="translate(-24.182697,167.70209)"
     style="fill:#000000">
    <g
       id="g3318"
       clip-path="url(#clipPath3322)"
       transform="matrix(0.35277777,0,0,-0.35277777,43.913399,-42.468655)"
       style="fill:#000000">
      <g
         id="g3324"
         transform="translate(149.9997,62.9336)"
         style="fill:#000000">
        <path
           d="m 0,0 c -48.085,0 -87.066,38.981 -87.066,87.066 0,48.085 38.981,87.067 87.066,87.067 48.086,0 87.066,-38.982 87.066,-87.067 C 87.066,38.981 48.086,0 0,0 m 0,202.755 c -63.893,0 -115.688,-51.796 -115.688,-115.689 0,-63.892 51.795,-115.688 115.688,-115.688 63.894,0 115.688,51.796 115.688,115.688 0,63.893 -51.794,115.689 -115.688,115.689"
           style="fill:#000000;fill-opacity:1;fill-rule:nonzero;stroke:none"
           id="path3326" />
      </g>
      <g
         id="g3328"
         transform="translate(149.9997,109.2998)"
         style="fill:#000000">
        <path
           d="m 0,0 c -22.478,0 -40.699,18.223 -40.699,40.7 0,22.478 18.221,40.7 40.699,40.7 22.479,0 40.7,-18.222 40.7,-40.7 C 40.7,18.223 22.479,0 0,0 m 0,113.636 c -40.281,0 -72.936,-32.655 -72.936,-72.936 0,-40.281 32.655,-72.935 72.936,-72.935 40.281,0 72.936,32.654 72.936,72.935 0,40.281 -32.655,72.936 -72.936,72.936"
           style="fill:#000000;fill-opacity:1;fill-rule:nonzero;stroke:none"
           id="path3330" />
      </g>
    </g>
  </g>
</svg>
