<?xml version="1.0" encoding="UTF-8" standalone="no"?>
<svg
   version="1.1"
   viewBox="-10 0 970 1000"
   id="svg6"
   sodipodi:docname="boat.svg"
   inkscape:version="1.1.2 (0a00cf5339, 2022-02-04)"
   xmlns:inkscape="http://www.inkscape.org/namespaces/inkscape"
   xmlns:sodipodi="http://sodipodi.sourceforge.net/DTD/sodipodi-0.dtd"
   xmlns="http://www.w3.org/2000/svg"
   xmlns:svg="http://www.w3.org/2000/svg">
  <defs
     id="defs10" />
  <sodipodi:namedview
     id="namedview8"
     pagecolor="#ffffff"
     bordercolor="#666666"
     borderopacity="1.0"
     inkscape:pageshadow="2"
     inkscape:pageopacity="0.0"
     inkscape:pagecheckerboard="0"
     showgrid="false"
     inkscape:zoom="0.1955"
     inkscape:cx="-1240.4092"
     inkscape:cy="-48.59335"
     inkscape:window-width="1850"
     inkscape:window-height="1016"
     inkscape:window-x="0"
     inkscape:window-y="0"
     inkscape:window-maximized="1"
     inkscape:current-layer="svg6" />
  <path
     style="fill:#000000;stroke-width:1.57278"
     d="m 267.26457,972.85602 c -18.93504,-5.26878 -28.56744,-13.52818 -49.74724,-42.65662 l -15.33243,-21.08656 -9.53176,5.26242 c -5.24248,2.89431 -19.39957,10.44061 -31.46024,16.76956 l -21.92848,11.50714 -3.23584,-4.31498 c -1.77971,-2.37327 -7.87859,-12.58772 -13.55303,-22.69879 C 39.672036,768.09407 41.86398,772.19633 43.689688,768.18935 c 2.186648,-4.79921 1.686101,-4.79915 45.91218,-0.002 19.429872,2.10733 40.281242,4.25967 46.336422,4.78299 6.05516,0.52331 13.4865,1.28764 16.51408,1.69849 40.10992,5.44302 220.05986,16.33382 270.90964,16.39583 l 23.19836,0.0289 -0.0129,-5.11148 c -0.007,-2.81135 -0.67743,-9.35802 -1.49087,-14.54814 -0.81346,-5.19014 -1.85505,-12.2676 -2.31465,-15.7277 -5.73188,-43.1525 -13.71943,-103.5826 -14.34412,-108.52113 -0.43766,-3.46009 -1.49834,-11.24531 -2.35704,-17.30048 -0.8587,-6.05516 -4.77111,-35.42663 -8.69428,-65.26995 -12.78692,-97.26966 -21.01158,-159.40626 -22.6914,-171.43192 -0.90626,-6.4877 -5.50961,-41.16726 -10.2297,-77.06575 -4.72006,-35.89847 -9.31305,-70.57805 -10.20661,-77.06573 -0.89356,-6.48766 -4.78717,-35.85915 -8.65243,-65.26994 -3.86527,-29.41081 -7.71334,-58.4284 -8.5513,-64.48358 -7.14815,-51.654856 -7.05548,-50.292374 -3.8579,-56.731352 3.75264,-7.556647 9.40664,-11.706682 17.25901,-12.668071 7.17519,-0.878465 15.39001,2.797393 19.8411,8.878233 2.54112,3.471543 27.60172,135.97113 58.59567,309.80524 2.08211,11.67782 19.1031,105.10035 37.82444,207.60564 18.72133,102.50528 35.29675,193.64134 36.83428,202.52454 1.53754,8.88323 3.28998,16.6458 3.89435,17.25015 0.60435,0.60438 14.33276,-0.54427 30.50754,-2.55254 83.3699,-10.35116 198.64122,-33.70121 327.04695,-66.24853 30.48743,-7.72773 56.50322,-13.63921 57.8129,-13.13666 2.66584,1.02299 4.75571,7.38981 3.23393,9.85214 -0.54398,0.88015 -12.46535,7.55739 -26.49198,14.83833 -44.32165,23.00643 -109.45373,56.7302 -137.16961,71.02294 -14.7054,7.58342 -27.59287,14.57966 -28.63883,15.54723 -1.04597,0.96756 -13.26727,26.75584 -27.15848,57.30729 -13.89118,30.5514 -27.1066,59.21513 -29.36758,63.69716 -4.88646,9.68807 -13.12854,21.51765 -14.99138,21.51765 -0.72914,0 -9.41591,-10.91266 -19.30401,-24.25053 l -17.97833,-24.25056 -29.57847,15.72135 c -61.64926,32.7673 -89.61792,46.64684 -97.81246,48.53952 -16.26704,3.75719 -35.08624,-0.19895 -50.21249,-10.55549 -7.89621,-5.40638 -12.49076,-10.92367 -36.01196,-43.24386 l -7.65317,-10.51618 -28.25169,14.94871 c -15.53845,8.22177 -41.55061,21.99433 -57.80482,30.60556 -38.08029,20.1744 -50.87957,23.46006 -70.31779,18.05147 z M 336.46646,702.0208 C 315.25031,698.25223 256.14124,688.21513 40.785688,651.81229 18.037573,647.96704 14.048594,646.275 14.048594,640.47106 c 0,-1.19888 5.368629,-11.50288 11.930285,-22.89774 15.745961,-27.34427 43.936925,-84.16883 53.322192,-107.48168 15.638669,-38.84622 23.359789,-64.7506 31.330489,-105.11422 9.04381,-45.79791 19.27828,-121.91194 22.20523,-165.14086 1.29514,-19.12799 2.10727,-22.58327 5.76844,-24.54267 2.6868,-1.43793 19.57084,1.4749 88.75594,15.31217 l 85.43795,17.08788 0.82029,6.29432 c 0.45115,3.46187 2.97004,25.04959 5.5975,47.97272 2.62747,22.9231 5.08167,44.15551 5.45377,47.1831 0.37209,3.02757 2.84393,24.25996 5.49298,47.18308 2.64903,22.92312 7.25236,62.55694 10.22959,88.07513 2.97723,25.5182 7.91312,67.983 10.96867,94.36622 3.05554,26.38321 6.25289,53.63146 7.10521,60.55163 0.85233,6.92018 2.62453,22.13674 3.93824,33.81457 1.31369,11.6778 2.80067,23.88643 3.30438,27.13027 0.88111,5.67438 0.74668,5.89087 -3.54753,5.71259 -2.45488,-0.10196 -14.01795,-1.88248 -25.69576,-3.95677 z m 272.97167,-28.34987 c -3.4272,-77.54216 -15.01684,-160.37763 -32.42219,-231.73342 -7.98803,-32.74815 -19.74804,-73.85833 -21.66659,-75.74123 -0.57984,-0.56907 -10.02175,0.89284 -20.98203,3.24867 l -19.9278,4.28332 -1.00593,-15.04446 c -5.79714,-86.69971 -13.04926,-128.9074 -33.15833,-192.98269 -3.83778,-12.2287 -6.97781,-22.64412 -6.97781,-23.14537 0,-0.50125 7.2544,1.60549 16.12087,4.68166 57.23609,19.8576 114.9069,50.14636 158.45662,83.22152 26.55344,20.16687 43.52204,35.23655 70.38145,62.50527 23.42975,23.78682 26.63913,28.4832 22.01878,32.22071 -1.08129,0.87465 -15.76701,4.45933 -32.63498,7.9659 -16.86797,3.50657 -44.47008,9.28958 -61.33804,12.85108 -16.86796,3.56151 -36.50792,7.63435 -43.64436,9.05078 -7.13645,1.41639 -12.96773,2.96657 -12.9584,3.44485 0.009,0.47826 5.43942,3.70054 12.06687,7.16063 57.17753,29.85153 118.6887,75.20863 169.32595,124.85756 33.57356,32.91829 134.69775,144.05764 134.67963,148.01804 -0.0251,5.47337 -3.22686,6.91657 -23.03372,10.38247 -16.28741,2.85006 -249.21185,43.98983 -267.32752,47.21613 l -4.94085,0.87993 z"
     id="path827" />
</svg>
