<?xml version="1.0" encoding="UTF-8" standalone="no"?>
<svg
   version="1.1"
   viewBox="-10 0 970 1000"
   id="svg6"
   sodipodi:docname="sled.svg"
   inkscape:version="1.1.2 (0a00cf5339, 2022-02-04)"
   xmlns:inkscape="http://www.inkscape.org/namespaces/inkscape"
   xmlns:sodipodi="http://sodipodi.sourceforge.net/DTD/sodipodi-0.dtd"
   xmlns="http://www.w3.org/2000/svg"
   xmlns:svg="http://www.w3.org/2000/svg">
  <defs
     id="defs10" />
  <sodipodi:namedview
     id="namedview8"
     pagecolor="#ffffff"
     bordercolor="#666666"
     borderopacity="1.0"
     inkscape:pageshadow="2"
     inkscape:pageopacity="0.0"
     inkscape:pagecheckerboard="0"
     showgrid="false"
     inkscape:zoom="0.1955"
     inkscape:cx="519.18159"
     inkscape:cy="-48.59335"
     inkscape:window-width="1850"
     inkscape:window-height="1016"
     inkscape:window-x="0"
     inkscape:window-y="0"
     inkscape:window-maximized="1"
     inkscape:current-layer="svg6" />
  <path
     style="fill:#000000;stroke-width:1.56433"
     d="M 110.88797,828.34873 C 91.23771,824.49343 71.518466,814.91218 57.93488,802.61976 45.990001,791.81026 12.787319,748.62414 10.46679,740.87888 c -5.644177,-18.83856 9.589328,-38.96834 29.567434,-39.0708 13.274627,-0.0681 19.656451,5.00311 39.329464,31.25243 13.046072,17.40711 21.381682,26.08191 29.060142,30.24265 6.09122,3.30064 7.98115,3.40236 71.17746,3.83149 l 64.92009,0.44084 11.39376,-49.71754 c 6.26656,-27.34463 11.37022,-50.24549 11.34146,-50.89079 -0.0287,-0.64528 -20.14693,-1.17326 -44.70707,-1.17326 -44.23169,0 -44.68786,-0.0333 -48.14487,-3.51975 C 171.919,659.76735 150.5502,598.42624 100.15474,449.13288 61.236829,333.84104 28.987574,237.3532 28.489715,234.71545 c -2.453024,-12.99677 9.005922,-29.80624 22.862599,-33.53786 5.182355,-1.39561 23.548492,-1.67585 70.368406,-1.07375 53.87115,0.69279 65.9318,1.27888 80.56349,3.91491 59.19903,10.66528 107.22894,29.81254 155.6518,62.05102 57.30879,38.1545 93.70967,80.62847 123.76222,144.41066 5.96268,12.65497 12.69661,26.52882 14.96425,30.83074 23.06951,43.76512 60.63274,70.35247 113.13221,80.07525 18.93332,3.5064 94.95335,4.02208 115.44283,0.78309 44.70558,-7.06706 70.78351,-21.47951 86.13836,-47.606 11.18297,-19.02791 11.27035,-23.21258 0.97633,-46.75342 -12.01095,-27.46713 -10.67846,-40.9151 5.79938,-58.52998 25.36556,-27.11585 41.00552,-24.95571 67.65749,9.34471 12.58964,16.20256 38.55174,54.37692 43.08754,63.35529 5.11899,10.13284 5.77585,22.37537 1.76959,32.983 -6.84196,18.11519 -42.59901,74.48845 -68.6024,108.15563 -19.36997,25.07856 -57.94577,63.48075 -70.02356,69.70823 -19.11596,9.85645 -28.38352,11.77743 -61.79141,12.80805 -18.89365,0.58287 -30.42562,1.53651 -30.29706,2.50541 0.11414,0.86038 5.35877,23.60218 11.65468,50.53733 l 11.44717,48.97299 43.87935,-0.47846 c 39.39009,-0.42952 44.43951,-0.77914 49.35454,-3.41724 3.01137,-1.61631 17.83625,-15.14727 32.94401,-30.06877 16.57058,-16.36612 29.73951,-28.07874 33.192,-29.52127 23.28599,-9.72952 47.53481,11.05466 41.68839,35.73196 -1.75909,7.42537 -3.89989,10.05206 -28.6601,35.1657 -28.48225,28.88894 -39.98906,38.23657 -56.01118,45.50135 -22.20885,10.06998 0.79359,9.50289 -377.80117,9.31414 -189.10628,-0.0944 -346.94446,-0.7825 -350.7515,-1.52943 z m 548.30888,-63.61034 c -0.47711,-1.50567 -5.79745,-23.7365 -11.82299,-49.40186 -6.02551,-25.66535 -11.35572,-47.31189 -11.84492,-48.10345 -0.80736,-1.3063 -304.1867,-2.22283 -304.1867,-0.91895 0,0.28614 -5.27966,22.95389 -11.73256,50.37279 -6.45289,27.41891 -11.73254,50.06327 -11.73254,50.32082 0,0.25752 79.24212,0.46825 176.09364,0.46825 166.9958,0 176.04878,-0.14143 175.22607,-2.7376 z"
     id="path894" />
</svg>
