<svg xmlns="http://www.w3.org/2000/svg" height="24px" viewBox="0 -960 960 960" width="24px" fill="#000000"><path d="M281.5-201.5Q200-283 200-400q0-77 25.5-155t66-141.5Q332-760 382-800t98-40q49 0 98.5 40t90 103.5Q709-633 734.5-555T760-400q0 117-81.5 198.5T480-120q-117 0-198.5-81.5Zm340-57Q680-317 680-400q0-57-19.5-120t-49-116.5Q582-690 547-725t-66.5-35q-31.5 0-67 35t-65 88.5Q319-583 299.5-520T280-400q0 83 58.5 141.5T480-200q83 0 141.5-58.5ZM520-240q17 0 28.5-11.5T560-280q0-17-11.5-28.5T520-320q-50 0-85-35t-35-85q0-17-11.5-28.5T360-480q-17 0-28.5 11.5T320-440q0 83 58.5 141.5T520-240Zm-40-240Z"/></svg>