<?xml version="1.0" encoding="UTF-8" standalone="no"?>
<svg
   viewBox="0 0 10.16 10.16"
   version="1.1"
   id="svg46"
   sodipodi:docname="fh-hourglass.svg"
   inkscape:version="1.1.2 (0a00cf5339, 2022-02-04)"
   xmlns:inkscape="http://www.inkscape.org/namespaces/inkscape"
   xmlns:sodipodi="http://sodipodi.sourceforge.net/DTD/sodipodi-0.dtd"
   xmlns="http://www.w3.org/2000/svg"
   xmlns:svg="http://www.w3.org/2000/svg">
  <sodipodi:namedview
     id="namedview48"
     pagecolor="#ffffff"
     bordercolor="#666666"
     borderopacity="1.0"
     inkscape:pageshadow="2"
     inkscape:pageopacity="0.0"
     inkscape:pagecheckerboard="0"
     showgrid="false"
     inkscape:zoom="21.4813"
     inkscape:cx="-4.0267582"
     inkscape:cy="0.6750057"
     inkscape:window-width="1846"
     inkscape:window-height="1016"
     inkscape:window-x="0"
     inkscape:window-y="0"
     inkscape:window-maximized="1"
     inkscape:current-layer="svg46" />
  <defs
     id="defs10">
    <style
       id="style2">.cls-1,.cls-3,.cls-6{fill:none;}.cls-2{clip-path:url(#clip-path);}.cls-3,.cls-6{stroke:#231f20;stroke-miterlimit:10;}.cls-3{stroke-width:0.6px;}.cls-4{clip-path:url(#clip-path-2);}.cls-5{fill:#231f20;}.cls-6{stroke-linecap:round;stroke-width:0.31px;}</style>
    <clipPath
       id="clip-path"
       transform="translate(-0.13 -0.2)">
      <path
         class="cls-1"
         d="M0,5.25A5.25,5.25,0,0,0,5.15,10.5h.19A5.25,5.25,0,1,0,0,5.25"
         id="path4" />
    </clipPath>
    <clipPath
       id="clip-path-2"
       transform="translate(-0.13 -0.2)">
      <path
         class="cls-1"
         d="M3,.53A5.24,5.24,0,0,0,.54,2.92V7.57A5.34,5.34,0,0,0,2.92,10H7.57A5.26,5.26,0,0,0,10,7.54V3A5.21,5.21,0,0,0,7.54.53Z"
         id="path7" />
    </clipPath>
  </defs>
  <path
     class="cls-5"
     d="M 6.95,8.39 6.65,8.31 H 6.8 6.64 A 2.57,2.57 0 0 0 6.33,6.58 5.28,5.28 0 0 0 5.19,5.31 L 5.02,5.16 4.87,5 A 5.56,5.56 0 0 1 3.67,3.65 3,3 0 0 1 3.32,1.65 L 3.61,1.8 A 2.64,2.64 0 0 0 3.92,3.5 5.74,5.74 0 0 0 5.06,4.8 L 5.23,4.95 5.4,5.11 a 5.6,5.6 0 0 1 1.21,1.32 2.91,2.91 0 0 1 0.34,2"
     id="path16"
     style="fill:#000000" />
  <path
     class="cls-5"
     d="m 4.87,5.46 a 4.89,4.89 0 0 0 -1,1.12 2.65,2.65 0 0 0 -0.31,1.73 L 3.25,8.39 a 3,3 0 0 1 0.35,-2 4.72,4.72 0 0 1 1,-1.18 l 0.15,0.14 0.12,0.11"
     id="path18"
     style="fill:#000000" />
  <path
     class="cls-5"
     d="M 6.61,3.65 A 5,5 0 0 1 5.59,4.8 1.85,1.85 0 0 1 5.45,4.66 L 5.36,4.59 a 4.65,4.65 0 0 0 1,-1.12 2.69,2.69 0 0 0 0.29,-1.67 l 0.3,-0.08 a 2.91,2.91 0 0 1 -0.34,2"
     id="path20"
     style="fill:#000000" />
  <path
     class="cls-6"
     d="m 3.26,8.29 c 0,0 0.42,0.38 1.86,0.38 A 3.09,3.09 0 0 0 7,8.29"
     id="path22"
     style="fill:#000000;stroke:#000000;stroke-opacity:1" />
  <path
     class="cls-6"
     d="M 7,1.8 A 3,3 0 0 0 5.13,1.42 3,3 0 0 0 3.26,1.8"
     id="path24"
     style="fill:#000000;stroke:#000000;stroke-opacity:1" />
  <path
     class="cls-5"
     d="m 3.45,7.63 a 1.84,1.84 0 0 1 1.42,-0.5 c 1,0 1.28,-0.45 1.37,-0.74 A 1,1 0 0 1 6.76,7.13 V 8.42 A 4.35,4.35 0 0 1 5.11,8.74 4.55,4.55 0 0 1 3.43,8.42 Z"
     id="path26"
     style="fill:#000000" />
  <path
     class="cls-5"
     d="M 6.78,2.44 A 1.79,1.79 0 0 1 5.39,2.95 c -1,0 -1.28,0.45 -1.37,0.74 A 1,1 0 0 1 3.5,2.95 V 1.66 a 4.37,4.37 0 0 1 3.33,0 z"
     id="path28"
     style="fill:#000000" />
  <path
     class="cls-5"
     d="M 5.12,3.14 A 0.16,0.16 0 0 1 4.96,2.99 v 0 a 0.16,0.16 0 1 1 0.32,0 v 0 A 0.16,0.16 0 0 1 5.12,3.14"
     id="path30"
     style="fill:#000000" />
  <path
     class="cls-5"
     d="M 5.12,4.33 A 0.16,0.16 0 0 1 4.96,4.18 v 0 a 0.16,0.16 0 1 1 0.32,0 v 0 A 0.16,0.16 0 0 1 5.12,4.33"
     id="path32"
     style="fill:#000000" />
  <path
     class="cls-5"
     d="M 5.12,3.74 A 0.16,0.16 0 0 1 4.96,3.58 v 0 a 0.16,0.16 0 1 1 0.32,0 v 0 A 0.16,0.16 0 0 1 5.12,3.74"
     id="path34"
     style="fill:#000000" />
  <path
     class="cls-5"
     d="M 5.12,6.66 A 0.16,0.16 0 0 1 4.96,6.51 v 0 a 0.16,0.16 0 0 1 0.32,0 v 0 A 0.16,0.16 0 0 1 5.12,6.66"
     id="path36"
     style="fill:#000000" />
  <path
     class="cls-5"
     d="M 5.12,6.07 A 0.16,0.16 0 0 1 4.96,5.91 v 0 a 0.16,0.16 0 0 1 0.32,0 v 0 A 0.16,0.16 0 0 1 5.12,6.07"
     id="path38"
     style="fill:#000000" />
  <path
     class="cls-5"
     d="M 5.12,7.25 A 0.16,0.16 0 0 1 4.96,7.1 v 0 a 0.16,0.16 0 1 1 0.32,0 v 0 A 0.16,0.16 0 0 1 5.12,7.25"
     id="path40"
     style="fill:#000000" />
</svg>
