<?xml version="1.0" encoding="UTF-8" standalone="no"?>
<svg
   viewBox="0 0 120 120"
   version="1.1"
   id="svg3"
   sodipodi:docname="shards-resonance.svg"
   inkscape:version="1.1.2 (0a00cf5339, 2022-02-04)"
   width="120"
   height="120"
   xmlns:inkscape="http://www.inkscape.org/namespaces/inkscape"
   xmlns:sodipodi="http://sodipodi.sourceforge.net/DTD/sodipodi-0.dtd"
   xmlns="http://www.w3.org/2000/svg"
   xmlns:svg="http://www.w3.org/2000/svg">
  <defs
     id="defs7" />
  <sodipodi:namedview
     id="namedview5"
     pagecolor="#ffffff"
     bordercolor="#666666"
     borderopacity="1.0"
     inkscape:pageshadow="2"
     inkscape:pageopacity="0.0"
     inkscape:pagecheckerboard="0"
     showgrid="false"
     inkscape:zoom="2.1825"
     inkscape:cx="55.670103"
     inkscape:cy="55.670103"
     inkscape:window-width="1846"
     inkscape:window-height="1016"
     inkscape:window-x="0"
     inkscape:window-y="0"
     inkscape:window-maximized="1"
     inkscape:current-layer="svg3"
     lock-margins="true" />
  <path
     d="m 110.06725,56.296706 c -0.13062,-0.105501 -1.12729,-0.907256 -2.4505,-1.686915 -1.41263,-0.832909 -3.15279,-1.234793 -3.29144,-1.199628 -2.10588,0.544555 -3.69634,2.098847 -5.15619,4.537287 -1.459852,2.43844 -2.658475,5.653524 -3.878196,8.891716 -1.218718,3.237188 -2.448489,6.500499 -4.261996,9.157965 -1.813508,2.656464 -4.491071,4.784446 -8.008574,4.879895 -2.232472,0.06028 -4.255966,-0.66713 -5.818296,-1.916994 -1.561324,-1.249863 -2.691628,-2.942806 -3.598884,-4.84071 -1.813508,-3.797818 -2.79411,-8.53002 -3.790786,-13.17883 -0.996675,-4.649816 -2.007417,-9.216239 -3.495398,-12.375058 -0.743489,-1.579411 -1.593476,-2.781048 -2.507766,-3.539607 -0.914289,-0.758558 -1.858721,-1.144369 -3.226135,-1.144369 -3.165853,-0.001 -4.942188,1.572378 -6.624077,4.621684 -1.681891,3.048301 -2.866449,7.466027 -4.007804,12.011351 -1.141354,4.544321 -2.241516,9.210211 -4.148463,13.002 -1.905942,3.791789 -5.009501,6.89937 -9.506601,7.057109 -3.591851,0.124585 -6.387969,-1.969239 -8.218558,-4.643787 -1.831593,-2.673542 -3.041267,-5.997135 -4.240897,-9.289582 -1.199627,-3.292447 -2.376147,-6.556762 -3.812888,-8.969079 -1.436741,-2.412319 -3.066198,-3.857704 -5.137917,-4.246528 -3.498648,1.357255 -3.389813,1.920525 -4.936348,3.114215 l 0.702295,-5.71883 c 2.164638,-1.335301 3.33566,-1.571776 5.086855,-1.330241 3.530565,0.664115 5.993119,3.195994 7.737301,6.124734 1.744183,2.928742 2.945821,6.380937 4.136406,9.650276 1.190586,3.269338 2.384186,6.35381 3.781743,8.395387 1.396553,2.040574 2.655458,2.969934 4.760333,2.895585 2.838317,-0.09845 4.481024,-1.708013 6.05742,-4.84473 1.577399,-3.136716 2.695646,-7.61171 3.842024,-12.176125 1.147384,-4.564413 2.31687,-9.222266 4.386581,-12.972863 2.068706,-3.750596 5.439519,-6.700435 10.144594,-6.699431 2.236492,10e-4 4.241901,0.784682 5.791169,2.070715 1.548265,1.285028 2.673544,3.000075 3.577786,4.919078 1.807481,3.839011 2.791095,8.597336 3.786766,13.246146 0.995671,4.647806 2.007418,9.187101 3.48937,12.289658 0.740475,1.551278 1.584435,2.713733 2.483653,3.434112 0.900224,0.72038 1.827574,1.075043 3.196999,1.037869 2.062677,-0.05527 3.390908,-1.069016 4.797508,-3.129684 1.407604,-2.060668 2.612256,-5.091888 3.822936,-8.308982 1.21068,-3.216087 2.440449,-6.616039 4.189656,-9.538751 1.749206,-2.921708 4.148459,-5.471672 7.599659,-6.363857 2.43643,-0.62895 5.02647,0.630114 6.70434,1.619756"
     id="path2833"
     sodipodi:nodetypes="cccscccccccsccccccssccccssccccccccccccccccc"
     style="stroke-width:1.00471" />
</svg>
