<svg xmlns="http://www.w3.org/2000/svg" xmlns:xlink="http://www.w3.org/1999/xlink" viewBox="0 0 578.7 578.7"><defs><style>.cls-1{fill:none;}.cls-2{fill:#7d58a4;}.cls-3{fill:#fff;}.cls-4{clip-path:url(#clip-path);}</style><clipPath id="clip-path"><path class="cls-1" d="M289.32,0a19.68,19.68,0,0,0-13.89,5.78L5.77,275.44a19.68,19.68,0,0,0,0,27.82L275.43,572.91a19.59,19.59,0,0,0,13.34,5.79h1.14a19.8,19.8,0,0,0,13.38-5.79L573,303.26a19.64,19.64,0,0,0,5.74-13.09v-1.69a19.62,19.62,0,0,0-5.74-13L303.29,5.78A19.73,19.73,0,0,0,289.32,0Z"/></clipPath></defs><g id="Layer_2" data-name="Layer 2"><g id="Curse"><path class="cls-2" d="M289.35,573.69a14.59,14.59,0,0,1-10.39-4.3L9.31,299.73a14.68,14.68,0,0,1,0-20.77L279,9.3a14.69,14.69,0,0,1,20.77,0L569.39,279a14.69,14.69,0,0,1,0,20.77L299.73,569.39a14.57,14.57,0,0,1-10.38,4.3"/><path class="cls-3" d="M289.35,10a9.68,9.68,0,0,1,6.84,2.82L565.84,282.49a9.68,9.68,0,0,1,0,13.72L296.19,565.86a9.68,9.68,0,0,1-13.68,0L12.85,296.21a9.68,9.68,0,0,1,0-13.72L282.51,12.83A9.65,9.65,0,0,1,289.35,10m0-10a19.69,19.69,0,0,0-13.93,5.78L5.76,275.44a19.68,19.68,0,0,0,0,27.82L275.42,572.91a19.65,19.65,0,0,0,27.86,0L572.93,303.26a19.66,19.66,0,0,0,0-27.82L303.28,5.78A19.7,19.7,0,0,0,289.35,0"/><g class="cls-4"><path class="cls-3" d="M161.81,83.34l46.44,213.38a5.74,5.74,0,0,0,7.51,4.44l53.32-18.37a5.75,5.75,0,0,1,7.59,5.11l11,200.26c.34,6.37,9.24,7.47,11.14,1.43l94.39-297a5.74,5.74,0,0,0-6.75-7.35l-71,16.68a5.75,5.75,0,0,1-6.72-7.48L355.53,62C356.16,60.12,313,2.25,313,2.25A5.72,5.72,0,0,0,308.42,0H212.93a5.7,5.7,0,0,0-5.11,3.12s-46.22,79-46,80.21"/></g></g></g></svg>