<?xml version="1.0" encoding="UTF-8" standalone="no"?>
<svg
   viewBox="0 0 8.28 7.8"
   version="1.1"
   id="svg19"
   sodipodi:docname="jump.svg"
   inkscape:version="1.1.2 (0a00cf5339, 2022-02-04)"
   xmlns:inkscape="http://www.inkscape.org/namespaces/inkscape"
   xmlns:sodipodi="http://sodipodi.sourceforge.net/DTD/sodipodi-0.dtd"
   xmlns="http://www.w3.org/2000/svg"
   xmlns:svg="http://www.w3.org/2000/svg">
  <sodipodi:namedview
     id="namedview21"
     pagecolor="#ffffff"
     bordercolor="#666666"
     borderopacity="1.0"
     inkscape:pageshadow="2"
     inkscape:pageopacity="0.0"
     inkscape:pagecheckerboard="0"
     showgrid="false"
     inkscape:zoom="100.25641"
     inkscape:cx="4.1443734"
     inkscape:cy="3.8950128"
     inkscape:window-width="1846"
     inkscape:window-height="1016"
     inkscape:window-x="0"
     inkscape:window-y="0"
     inkscape:window-maximized="1"
     inkscape:current-layer="svg19" />
  <defs
     id="defs7">
    <style
       id="style2">.cls-1{fill:none;}.cls-2{fill:#fff;}.cls-3{clip-path:url(#clip-path);}</style>
    <clipPath
       id="clip-path"
       transform="translate(0 -0.2)">
      <rect
         class="cls-1"
         width="8.28"
         height="8.01"
         id="rect4" />
    </clipPath>
  </defs>
  <path
     class="cls-2"
     d="M 3.9,6.58 4.68,6.19 H 6.39 L 7.17,6.58 6.58,7.25 H 4.5 Z M 4.41,5.85 2.8,6.62 3.8,7.8 h 3.48 l 1,-1.19 -1.61,-0.76 z"
     id="path9"
     style="fill:#000000" />
  <polygon
     class="cls-2"
     points="7.13,5.15 5.37,6.77 4.27,4.64 "
     id="polygon11"
     style="fill:#000000" />
  <path
     class="cls-2"
     d="M 3.63,1.4 A 3.24,3.24 0 0 1 5.3,5.22 H 6 C 6.46,3.63 6.41,1.14 4,0.22 a 3.64,3.64 0 0 0 -4,1 4.94,4.94 0 0 1 3.63,0.18"
     id="path13"
     style="fill:#000000" />
</svg>
