<svg xmlns="http://www.w3.org/2000/svg" xmlns:xlink="http://www.w3.org/1999/xlink" viewBox="0 0 8.28 7.8"><defs><style>.cls-1{fill:none;}.cls-2{fill:#fff;}.cls-3{clip-path:url(#clip-path);}</style><clipPath id="clip-path" transform="translate(0 -0.2)"><rect class="cls-1" width="8.28" height="8.01"/></clipPath></defs><g id="Layer_2" data-name="Layer 2"><g id="Layer_1-2" data-name="Layer 1"><path class="cls-2" d="M3.9,6.78l.78-.39H6.39l.78.39-.59.67H4.5Zm.51-.73L2.8,6.82,3.8,8H7.28l1-1.19L6.67,6.05Z" transform="translate(0 -0.2)"/><polygon class="cls-2" points="4.27 4.64 7.13 5.15 5.37 6.77 4.27 4.64"/><g class="cls-3"><path class="cls-2" d="M3.63,1.6A3.24,3.24,0,0,1,5.3,5.42H6c.46-1.59.41-4.08-2-5a3.64,3.64,0,0,0-4,1,4.94,4.94,0,0,1,3.63.18" transform="translate(0 -0.2)"/></g></g></g></svg>