<svg xmlns="http://www.w3.org/2000/svg" viewBox="0 0 26.99 26.99"><defs><style>.cls-1{fill:#4f504f;}.cls-2{fill:#fff;}</style></defs><g id="Layer_2" data-name="Layer 2"><g id="Layer_1-2" data-name="Layer 1"><path class="cls-1" d="M13.5,26.76a.68.68,0,0,1-.49-.2L.43,14a.7.7,0,0,1,0-1L13,.43a.69.69,0,0,1,1,0L26.56,13a.68.68,0,0,1,0,1L14,26.56a.67.67,0,0,1-.48.2"/><path class="cls-2" d="M13.5,0a.91.91,0,0,0-.65.27L.27,12.85a.92.92,0,0,0,0,1.3L12.85,26.73a.94.94,0,0,0,.65.26,1,1,0,0,0,.65-.26L26.73,14.15a.94.94,0,0,0,0-1.3L14.15.27A.92.92,0,0,0,13.5,0m0,.47a.44.44,0,0,1,.32.13L26.4,13.18a.46.46,0,0,1,.13.32.48.48,0,0,1-.13.32L13.82,26.4a.48.48,0,0,1-.32.13.46.46,0,0,1-.32-.13L.6,13.82a.44.44,0,0,1-.13-.32.42.42,0,0,1,.13-.32L13.18.6A.42.42,0,0,1,13.5.47"/><path class="cls-2" d="M10.4,12.81,10,15.72c0,.23.27.37.53.23a6.36,6.36,0,0,1,3-.8,6.43,6.43,0,0,1,3,.8c.25.14.56,0,.53-.23l-.44-2.91a.76.76,0,0,0-.38-.51,5.07,5.07,0,0,0-2.72-.67,5,5,0,0,0-2.72.67.73.73,0,0,0-.38.51"/><path class="cls-2" d="M9.4,19.43l-.15,1a.39.39,0,0,0,.63.34,6.74,6.74,0,0,1,3.62-1.16,6.73,6.73,0,0,1,3.61,1.16.39.39,0,0,0,.63-.34l-.15-1a1.41,1.41,0,0,0-.53-.89A5.59,5.59,0,0,0,13.5,17.4a5.65,5.65,0,0,0-3.57,1.14,1.41,1.41,0,0,0-.53.89"/><path class="cls-2" d="M13.33,4.06,8.59,6.74c-.12.07-.06.17.11.17h2.58l-.56,3.73c0,.15.23.23.42.15a5.8,5.8,0,0,1,4.71,0c.2.08.44,0,.42-.15l-.56-3.73H18.3c.16,0,.23-.1.11-.17L13.66,4.06a.38.38,0,0,0-.33,0"/><path class="cls-2" d="M10.63,7.47l-.25,1.67H9.46A.59.59,0,0,1,9,9l-.29-1.5Z"/><path class="cls-2" d="M18.33,7.47,18,9a.59.59,0,0,1-.45.17h-1l-.25-1.67h2"/></g></g></svg>