<?xml version="1.0" encoding="UTF-8" standalone="no"?>
<svg
   viewBox="0 0 8.11 5.8"
   version="1.1"
   id="svg21"
   sodipodi:docname="minus1.svg"
   inkscape:version="1.1.2 (0a00cf5339, 2022-02-04)"
   xmlns:inkscape="http://www.inkscape.org/namespaces/inkscape"
   xmlns:sodipodi="http://sodipodi.sourceforge.net/DTD/sodipodi-0.dtd"
   xmlns="http://www.w3.org/2000/svg"
   xmlns:svg="http://www.w3.org/2000/svg">
  <sodipodi:namedview
     id="namedview23"
     pagecolor="#ffffff"
     bordercolor="#666666"
     borderopacity="1.0"
     inkscape:pageshadow="2"
     inkscape:pageopacity="0"
     inkscape:pagecheckerboard="0"
     showgrid="false"
     inkscape:zoom="44.595799"
     inkscape:cx="3.5877819"
     inkscape:cy="2.34327"
     inkscape:window-width="1551"
     inkscape:window-height="1082"
     inkscape:window-x="26"
     inkscape:window-y="23"
     inkscape:window-maximized="0"
     inkscape:current-layer="svg21" />
  <defs
     id="defs7">
    <style
       id="style2">.cls-1{fill:none;}.cls-2{clip-path:url(#clip-path);}.cls-3{fill:#fff;}</style>
    <clipPath
       id="clip-path"
       transform="translate(0 0)">
      <rect
         class="cls-1"
         width="8.11"
         height="5.79"
         id="rect4" />
    </clipPath>
  </defs>
  <rect
     width="8.1099997"
     height="5.8000002"
     rx="0.40000001"
     id="rect9"
     x="0"
     y="0"
     style="fill:#ffffff" />
  <path
     class="cls-3"
     d="M 6.48,2.9 A 2.42,2.42 0 1 1 4.06,0.48 2.43,2.43 0 0 1 6.48,2.9"
     id="path11"
     style="fill:none;stroke:#000000;stroke-opacity:1;stroke-width:0.35;stroke-miterlimit:4;stroke-dasharray:none" />
  <polygon
     points="3.87,2.89 3.87,3.01 3.59,3.27 2.35,3.27 2.35,3.16 2.64,2.89 "
     id="polygon13"
     style="fill:#e26969;fill-opacity:1" />
  <path
     d="M 4.86,1.43 V 4 a 0.3,0.3 0 0 0 0,0.18 A 0.16,0.16 0 0 0 5,4.24 V 4.37 L 4,4.79 V 4.6 a 0.16,0.16 0 0 0 0.1,0 L 4.19,4.53 A 0.56,0.56 0 0 0 4.29,4.18 V 1.81 A 0.26,0.26 0 0 0 4.22,1.64 0.42,0.42 0 0 0 4.1,1.56 L 4,1.53 V 1.42 L 4.62,1.11 A 0.49,0.49 0 0 1 4.81,1.25 0.26,0.26 0 0 1 4.9,1.43"
     id="path15"
     style="fill:#e26969;fill-opacity:1" />
</svg>
