<svg class="svg_icon" version="1.2" xmlns="http://www.w3.org/2000/svg" viewBox="0 0 580 580">
<defs>
<clipPath clipPathUnits="userSpaceOnUse" id="cp1">
<path d="m-10-10h600v600h-600z"/>
</clipPath>
<clipPath clipPathUnits="userSpaceOnUse" id="cp2">
<path d="m303.92 6.43l269.68 269.64c3.82 3.85 5.74 8.88 5.74 13.93 0 5.02-1.92 10.07-5.74 13.93l-269.68 269.64c-7.67 7.7-20.15 7.7-27.82 0l-269.68-269.64c-7.66-7.71-7.66-20.15 0-27.86l269.68-269.64c3.82-3.85 8.88-5.78 13.9-5.78 5.05 0 10.07 1.93 13.92 5.78z"/>
</clipPath>
</defs>
<style>
.a{fill:#2f9da3}.b{fill:#fff}</style>
<g clip-path="url(#cp1)">
<path class="a" d="m290 574.3c-3.9 0-7.6-1.5-10.4-4.3l-269.6-269.6c-2.8-2.8-4.3-6.5-4.3-10.4 0-3.9 1.5-7.6 4.3-10.4l269.6-269.7c2.8-2.7 6.5-4.3 10.4-4.3 3.9 0 7.6 1.6 10.4 4.3l269.6 269.7c2.8 2.8 4.3 6.5 4.3 10.4 0 3.9-1.5 7.6-4.3 10.4l-269.6 269.6c-2.8 2.8-6.5 4.3-10.4 4.3z"/>
<path fill-rule="evenodd" class="b" d="m303.9 6.4l269.7 269.7c7.7 7.7 7.7 20.1 0 27.8l-269.7 269.7c-3.8 3.8-8.9 5.7-13.9 5.7-5 0-10.1-1.9-13.9-5.7l-269.7-269.7c-7.7-7.7-7.7-20.1 0-27.8l269.7-269.7c3.8-3.8 8.9-5.7 13.9-5.7 5 0 10.1 1.9 13.9 5.7zm-20.7 7.1l-269.7 269.7c-3.8 3.7-3.8 9.9 0 13.6l269.7 269.7c1.8 1.8 4.2 2.8 6.8 2.8 2.6 0 5-1 6.8-2.8l269.7-269.7c3.8-3.7 3.8-9.9 0-13.6l-269.7-269.7c-1.8-1.8-4.2-2.8-6.8-2.8-2.6 0-5 1-6.8 2.8z"/>
<g clip-path="url(#cp2)">
<path fill-rule="evenodd" class="b" d="m290.9 190.8l-10.2 7.3-24.6-15.5-13.7-55.1 27.6 7 17.3 18.9zm64.7 157.9l-3.5-24.1 14.9-20.1 46.9 12.8-2.9 40.3h-29zm-107.7 87.3l17.7-42.2 16.9-10.7 18.7 26.4 5.2 21.7-22.5 13.9zm86-389.2l64.8 64.8-20.1 36.4-49.2 22.1-21.6-26.7 4.1-32.8-10.7-51.2zm-57.4-30.6c3.7-3.7 8.5-5.5 13.4-5.5 4.9 0 9.7 1.8 13.4 5.5l2.4 2.5-23.5 43.1 4.1 62.9-24.9-20.3-59.5-13.6zm181.1 196.7l-6.6-11.9 22.8-14.3 28.4 28.4zm-151.5 256.5q23.7 37.3 35.7 55.8l-38.5 38.5c-7.4 7.5-19.5 7.5-26.9 0l-52.7-52.7 14.4-48.6zm117.2-333.3l32.2 32.2-33.8 45.2-48.8 30.6-5-6.4 26.9-25.6-1.6-35.7zm-47.5 68.1l-29.8 34.3-16.2-8.6-1.6-19.6 44.7-40.3zm68.6 218.3l-84.6 84.5-38.9-48.2 7.2-42.6-14.3-20.1 17.5-34.2 18.1 14.9 71.7 9.5zm-238.5 70.4l-89.1-89.1 39.4-30.5 9.6-53.1h38.3l36 50.9-31.3 66.7zm-48.6-357.6l28-28 38.2 7.4 14.8 69.9 19.4 16-15.5 16.6-31.2-10-26.2-28zm406.4 141c1.9 2 3.4 4.2 4.3 6.6l-46.3 5.6-60.2-3.6-40.5 19.3-50.6-15.7-2.5-14.3 47.6-34.6 37.1-11.2 75.9 12.7zm-9.9 36.8l-93 93-28-40.5-2.3-49.7 55.2 1.1zm-455.9 71.8l-57.3-57.3 24.5-5.6 34.4 18.9 40.3-14.1-5.4 29.3zm88.8-160.1l24.9 5.2 16.4 28.2-20.5 34.2-61.3 8.5-28.5 7.1-19.4-23.5v-40.6l44.3-8.9 38.2-26.6zm-97.5-21.5l51.9-51.8 28.1 34.5-34 26.2-29.1 5.1zm-72.6 72.5l50.1-50.1q2 16.8 5.1 42.8l7.6 27.8-29.2-0.9z"/>
</g>
<path class="b" d="m322.6 304.5c0 20-16.2 36.1-36.1 36.1-19.9 0-36.1-16.1-36.1-36.1 0-14.2 6.2-22.5 18.5-39.4 9.3-13 14.7-26.5 16.7-32.1 0.3-0.9 1.5-0.9 1.8 0 2 5.6 7.3 19.1 16.7 32.1 12.3 16.9 18.5 25.2 18.5 39.4z"/>
</g>
</svg>

