<svg xmlns="http://www.w3.org/2000/svg" xmlns:xlink="http://www.w3.org/1999/xlink" viewBox="0 0 578.7 578.7"><defs><style>.cls-1{fill:none;}.cls-2{clip-path:url(#clip-path);}.cls-3{fill:#119ac0;}.cls-4{fill:#fff;}</style><clipPath id="clip-path" transform="translate(-10.65 -8.7)"><rect id="_Clipping_Path_" data-name="&lt;Clipping Path&gt;" class="cls-1" width="600" height="596.1"/></clipPath></defs><g id="Layer_2" data-name="Layer 2"><g id="Chill"><g class="cls-2"><path class="cls-3" d="M300,582.4a14.59,14.59,0,0,1-10.38-4.3L20,308.43a14.68,14.68,0,0,1,0-20.76L289.62,18a14.68,14.68,0,0,1,20.76,0L580,287.67a14.68,14.68,0,0,1,0,20.76L310.38,578.1A14.61,14.61,0,0,1,300,582.4" transform="translate(-10.65 -8.7)"/><path class="cls-4" d="M300,18.7a9.62,9.62,0,0,1,6.85,2.84L576.51,291.21a9.68,9.68,0,0,1,0,13.69L306.85,574.56a9.68,9.68,0,0,1-13.7,0L23.49,304.9a9.68,9.68,0,0,1,0-13.69L293.15,21.54A9.62,9.62,0,0,1,300,18.7m0-10a19.61,19.61,0,0,0-13.92,5.77L16.42,284.13a19.68,19.68,0,0,0,0,27.84L286.08,581.63a19.68,19.68,0,0,0,27.84,0L583.58,312a19.68,19.68,0,0,0,0-27.84L313.92,14.47A19.61,19.61,0,0,0,300,8.7" transform="translate(-10.65 -8.7)"/><circle class="cls-4" cx="289.51" cy="286.73" r="107.31"/><circle class="cls-3" cx="289.51" cy="286.73" r="82.97"/><polyline class="cls-4" points="230.47 376.35 285.56 296.38 273.4 392.83 215.94 477.93 230.47 376.35"/><polyline class="cls-4" points="318.05 390.22 305.8 323.72 347.3 377.2 360.91 447.38 318.05 390.22"/><polyline class="cls-4" points="393 258.2 326.5 270.45 379.98 228.95 450.17 215.34 393 258.2"/><polyline class="cls-4" points="260.98 183.25 273.23 249.74 231.73 196.27 218.12 126.08 260.98 183.25"/><polyline class="cls-4" points="186.03 315.27 252.53 303.02 199.05 344.51 128.86 358.13 186.03 315.27"/><polyline class="cls-4" points="379.13 345.78 299.16 290.69 395.61 302.85 480.71 360.31 379.13 345.78"/><polyline class="cls-4" points="348.56 197.11 293.47 277.09 305.63 180.63 363.09 95.53 348.56 197.11"/><polyline class="cls-4" points="199.9 227.69 279.87 282.78 183.42 270.61 98.32 213.16 199.9 227.69"/></g></g></g></svg>