<svg class="svg_icon" version="1.2" xmlns="http://www.w3.org/2000/svg" viewBox="0 0 580 580">
<defs><clipPath clipPathUnits="userSpaceOnUse" id="cp1"><path d="m-10-10h600v600h-600z"/></clipPath><clipPath clipPathUnits="userSpaceOnUse" id="cp2"><path d="m303.88 6.44l269.71 269.63c7.68 7.68 7.68 20.19 0 27.87l-269.71 269.63c-3.61 3.65-8.28 5.56-13.03 5.77h-1.69c-4.76-0.21-9.47-2.12-13.11-5.77l-269.63-269.63c-7.68-7.68-7.68-20.19 0-27.87l269.63-269.63c3.86-3.86 8.91-5.77 13.95-5.77 5.05 0 10.1 1.91 13.88 5.77z"/></clipPath><clipPath clipPathUnits="userSpaceOnUse" id="cp3"><path d="m303.88 6.44l269.71 269.63c7.68 7.68 7.68 20.19 0 27.87l-269.71 269.63c-3.78 3.86-8.83 5.77-13.88 5.77-5.04 0-10.09-1.91-13.95-5.77l-269.63-269.63c-7.68-7.68-7.68-20.19 0-27.87l269.63-269.63c3.86-3.86 8.91-5.77 13.95-5.77 5.05 0 10.1 1.91 13.88 5.77z"/></clipPath></defs><style>.a{fill:#5d7b7e}.b{fill:#fff}</style><g clip-path="url(#cp1)"><path class="a" d="m290 574.4c-3.9 0-7.6-1.6-10.4-4.3l-269.7-269.7c-2.7-2.8-4.3-6.5-4.3-10.4 0-3.9 1.6-7.6 4.3-10.4l269.7-269.7c2.8-2.7 6.5-4.2 10.4-4.2 3.9 0 7.6 1.5 10.4 4.2l269.7 269.7c2.7 2.8 4.2 6.5 4.2 10.4 0 3.9-1.5 7.6-4.2 10.4l-269.7 269.7c-2.8 2.7-6.5 4.3-10.4 4.3z"/><path fill-rule="evenodd" class="b" d="m303.9 6.4l269.7 269.7c7.7 7.7 7.7 20.1 0 27.8l-269.7 269.7c-3.8 3.8-8.9 5.8-13.9 5.8-5.1 0-10.1-2-13.9-5.8l-269.7-269.7c-7.7-7.7-7.7-20.1 0-27.8l269.7-269.7c3.8-3.8 8.8-5.8 13.9-5.8 5 0 10.1 2 13.9 5.8zm-20.7 7.1l-269.7 269.7c-3.8 3.7-3.8 9.9 0 13.6l269.7 269.7c1.8 1.9 4.2 2.8 6.8 2.8 2.6 0 5-0.9 6.8-2.8l269.7-269.7c3.8-3.7 3.8-9.9 0-13.6l-269.7-269.7c-1.8-1.9-4.2-2.8-6.8-2.8-2.6 0-5 0.9-6.8 2.8z"/><g clip-path="url(#cp2)"><path fill-rule="evenodd" class="b" d="m462 432.7q-12.1 20.5-28.1 33.5-16 13.1-36.2 17.8-18.4-31.9-27.4-35.9c-10.3 1.3-30.5-5.1-45.6-11.8-24.1-10.6-44.3-38.5-50.9-43.6-6.5-5-12.8-9.8-43.6-22.4-30.9-12.6-36.8-22-30.9-33.6 5-9.8 33 1.2 44.5 6.4 11.4 5.1 30.7 12.9 32.2 7.9 2.4-8-34.1-31.6-41.1-36.4-7-4.8-33.2-19-33.9-31.7-0.8-12.7 9.8-16.2 14.8-14.6 5.7 1.9 32.5 22 46.5 30.8 14 8.9 29.1 20.9 31.9 14.3 3-7.2-21-28.4-31.8-41.8-10.9-13.4-34.7-33.6-39.4-46.6-4.7-12.9 10.6-20.3 16.6-18.3 6.1 2 25.6 24.4 29 28.3 3.5 3.9 26.8 31 36.6 43.1 9.8 12.2 12.9 10.7 15.6 9.4 2.7-1.2 2.8-4.7 1.7-8.9-1.2-4.2-13.4-33.7-15.9-39.4-2.3-5.7-26.7-51.8-9.2-58.6 16.6-6.5 23.1 16.9 28.2 25.8 5 9 31.7 70 34.8 75.2 6.4 11.1 12.4 20.4 22.7 14.6 6.5-3.7 9.4-11.2 10.9-18.1 1.3-6 5.2-29.9 17.1-36.7 11.8-6.8 23.7 1.9 24.1 5 0.5 3.1-9.1 55.5-10.4 61.5-1.2 6.1 10.1 34.2 10.9 49.9 0.9 15.7-1.9 36.7-1.5 38.6q0.5 2 27.8 36.3zm-77.1-33.7c-17.9-24.8-18.6-41.5-14.3-58.2 5.6-21.6 17.4-25.6 14.1-28.8-0.9-1-3-0.9-4.5 0.8-0.4 0.5-10.2 7-17.3 28.2-4.7 13.9-7.6 39.7 13.1 65.7 1.2 1.4 2.8 2.2 4.5 2.2 1.3 0 2.6-0.5 3.7-1.4 2.5-2.2 2.6-5.8 0.7-8.5z"/></g><g clip-path="url(#cp3)"><path class="b" d="m393.5 70.5l-29.8 117.7c-1.7 6.9-5.6 6.4-5.6-0.7l0.7-121.4c0-4.9 2.1-9.6 4-9.3l29.1 3.7c2 0.2 2.8 5.3 1.6 10z"/><path class="b" d="m10.1 272.9l141.6 35.1c8.2 2 7.7 6.2-0.8 6l-145.9-3.7c-5.8-0.1-11.4-2.4-11.2-4.6l4.3-31.4c0.3-2.1 6.3-2.8 12-1.4z"/><path class="b" d="m143.8 431.7l72.1-28.8c4.3-1.7 6.1 1.2 2.6 4.3l-58.4 51c-2.4 2.1-5.7 2.6-6.6 1.1l-13.6-22.3c-0.9-1.5 1-4.2 3.9-5.3z"/><path class="b" d="m244.6 49.7l22.1 106.9c1.2 6.3-2.5 7.6-5.5 2l-50.2-97c-2-3.9-2.1-8.5-0.2-9.2l28.1-9.9c1.9-0.7 4.8 2.9 5.7 7.2z"/><path class="b" d="m112.8 165l72.2 64.4c4.2 3.8 2.1 6.8-3 4.4l-87.3-41.7c-3.5-1.6-6-4.9-5-6.4l15.2-22.8c1-1.6 5-0.5 7.9 2.1z"/></g></g></svg>
