<svg xmlns="http://www.w3.org/2000/svg" viewBox="0 0 578.7 578.7"><defs><style>.cls-1,.cls-3{fill:#5e3c58;}.cls-1{stroke:#fff;stroke-miterlimit:10;stroke-width:1.25px;}.cls-2{fill:#fff;}</style></defs><g id="Layer_2" data-name="Layer 2"><g id="Major_Enfeeble" data-name="Major Enfeeble"><path class="cls-1" d="M289.35,5a14.59,14.59,0,0,1,10.38,4.3L569.4,279a14.7,14.7,0,0,1,0,20.76L299.73,569.4a14.7,14.7,0,0,1-20.76,0L9.3,299.73A14.68,14.68,0,0,1,9.3,279L279,9.3A14.59,14.59,0,0,1,289.35,5"/><path class="cls-2" d="M289.35,568.7a9.62,9.62,0,0,1-6.85-2.84L12.84,296.19a9.68,9.68,0,0,1,0-13.69L282.5,12.84a9.67,9.67,0,0,1,13.69,0L565.86,282.5a9.68,9.68,0,0,1,0,13.69L296.19,565.86a9.6,9.6,0,0,1-6.84,2.84m0,10a19.65,19.65,0,0,0,13.92-5.77L572.93,303.26a19.67,19.67,0,0,0,0-27.83L303.27,5.76a19.7,19.7,0,0,0-27.84,0L5.77,275.43a19.67,19.67,0,0,0,0,27.83L275.43,572.93a19.65,19.65,0,0,0,13.92,5.77"/><path class="cls-2" d="M289.34,410.72c19.29-102.53,55-159.53,183.59-181.37C344.35,207.51,308.63,150.52,289.34,48c-19.28,102.54-55,159.53-183.58,181.37,128.58,21.84,164.3,78.84,183.58,181.37v0Z"/><polygon class="cls-3" points="287.73 176.58 276.07 220.11 346.5 231.16 327.17 267.47 360.92 286.82 336.33 303.52 299.91 282.79 317.98 247.57 247.08 239.24 252.5 198.14 203.34 186.18 246.51 155.25 287.73 176.58"/><path class="cls-2" d="M179.19,422.46c7.72-41,22-63.81,73.44-72.55-51.43-8.74-65.72-31.53-73.44-72.55-7.71,41-22,63.81-73.43,72.55,51.43,8.74,65.72,31.53,73.43,72.55h0Z"/><polygon class="cls-3" points="178.55 328.8 173.89 346.21 202.06 350.63 194.32 365.16 207.82 372.9 197.99 379.58 183.42 371.29 190.65 357.2 162.29 353.86 164.46 337.43 144.79 332.64 162.06 320.27 178.55 328.8"/><path class="cls-2" d="M399.5,422.44c7.71-41,22-63.81,73.43-72.54-51.43-8.74-65.72-31.54-73.43-72.55-7.71,41-22,63.81-73.43,72.55,51.43,8.73,65.72,31.53,73.43,72.54h0Z"/><polygon class="cls-3" points="398.85 328.79 394.19 346.2 422.36 350.62 414.63 365.14 428.13 372.88 418.29 379.56 403.72 371.27 410.95 357.18 382.59 353.85 384.76 337.41 365.1 332.63 382.36 320.25 398.85 328.79"/></g></g></svg>