<svg xmlns="http://www.w3.org/2000/svg" viewBox="0 0 36 36"><defs><style>.cls-1{fill:#77066b;}.cls-2,.cls-3{fill:#fff;}.cls-3{fill-rule:evenodd;}</style></defs><g id="Layer_2" data-name="Layer 2"><g id="Layer_1-2" data-name="Layer 1"><g id="Слой_1"><g id="_1865599803008" data-name=" 1865599803008"><rect class="cls-1" x="5.02" y="5.02" width="25.95" height="25.95" rx="1.44" transform="translate(-7.46 17.99) rotate(-45)"/><path class="cls-2" d="M18,24a5.53,5.53,0,1,1,5.53-5.52A5.55,5.55,0,0,1,18,24Zm0-12.27a6.76,6.76,0,1,0,6.75,6.75A6.73,6.73,0,0,0,18,11.68Zm6.38,15.25a4.66,4.66,0,0,1-4.65-4.68,4.61,4.61,0,0,1,1.39-3.31l0,0c0-.06.08-.09.11-.12a.27.27,0,0,0,.14-.14h0c.06,0,.08-.08.14-.11s.06,0,.06-.06.06,0,.08-.05a4.78,4.78,0,0,1,2.36-.83h.31a4.63,4.63,0,0,1,4.25,2.78s0,0,.06.06c0-.2,0-.4-.06-.6A6.63,6.63,0,0,0,25.31,15a.93.93,0,0,1-.56-1,6.35,6.35,0,0,0-1.51-4.31,6.24,6.24,0,0,0-1.53-1.33,4.57,4.57,0,0,1,.34,5.13,1,1,0,0,0-.11.23s0,0,0,0a4.49,4.49,0,0,1-1.5,1.47,4.15,4.15,0,0,1-2.15.65h-.4a4.63,4.63,0,0,1-4.51-4.64,4.46,4.46,0,0,1,.94-2.78.1.1,0,0,0-.06,0,6.68,6.68,0,0,0-3,5.95c0,.17,0,.28-.14.37A6.48,6.48,0,0,0,7.63,19c-.15.49-.2,1-.32,1.45,0,0,0,0,.06,0a4.64,4.64,0,0,1,4.28-2.84H12a4.89,4.89,0,0,1,1.9.57,4.59,4.59,0,0,1,2.41,4v0a4.83,4.83,0,0,1-.4,1.93h0l-.08.14a4.64,4.64,0,0,1-4.17,2.61,3.31,3.31,0,0,1-.54-.06A6.73,6.73,0,0,0,18,26.36a6.67,6.67,0,0,0,6.89.51h0A3.31,3.31,0,0,1,24.38,26.93Z"/><path class="cls-3" d="M.34,17.18,17.18.34a1.16,1.16,0,0,1,1.64,0L35.66,17.18a1.16,1.16,0,0,1,0,1.64L18.82,35.66a1.16,1.16,0,0,1-1.64,0L.34,18.82A1.16,1.16,0,0,1,.34,17.18ZM17.77.94.94,17.77h0a.34.34,0,0,0,0,.46h0L17.77,35.06h0a.34.34,0,0,0,.46,0h0L35.06,18.23h0a.34.34,0,0,0,0-.46h0L18.23.94h0a.34.34,0,0,0-.46,0Z"/></g></g></g></g></svg>