<svg xmlns="http://www.w3.org/2000/svg" xmlns:xlink="http://www.w3.org/1999/xlink" viewBox="0 0 578.7 578.7"><defs><style>.cls-1{fill:none;}.cls-2{clip-path:url(#clip-path);}.cls-3{fill:#151514;}.cls-4{fill:#fff;}</style><clipPath id="clip-path" transform="translate(-10.65 -10.65)"><rect class="cls-1" width="600" height="600"/></clipPath></defs><g id="Layer_2" data-name="Layer 2"><g id="Invisible"><g class="cls-2"><path class="cls-3" d="M300,584.35a14.56,14.56,0,0,1-10.37-4.29L19.94,310.37a14.68,14.68,0,0,1,0-20.73L289.63,19.94a14.68,14.68,0,0,1,20.74,0l269.69,269.7a14.68,14.68,0,0,1,0,20.73L310.37,580.06A14.56,14.56,0,0,1,300,584.35" transform="translate(-10.65 -10.65)"/><path class="cls-4" d="M300,20.65a9.66,9.66,0,0,1,6.86,2.83L576.52,293.14a9.73,9.73,0,0,1,0,13.72L306.86,576.52a9.73,9.73,0,0,1-13.72,0L23.48,306.86a9.73,9.73,0,0,1,0-13.72L293.14,23.48A9.66,9.66,0,0,1,300,20.65m0-10a19.61,19.61,0,0,0-13.91,5.78L16.43,286.09a19.64,19.64,0,0,0,0,27.82L286.09,583.57a19.63,19.63,0,0,0,27.82,0L583.57,313.91a19.64,19.64,0,0,0,0-27.82L313.91,16.43A19.61,19.61,0,0,0,300,10.65" transform="translate(-10.65 -10.65)"/><path class="cls-4" d="M304.89,217.67a9.22,9.22,0,0,1-.58-18.43,34,34,0,0,0,28.2-18.68l.07-.14a9.23,9.23,0,0,1,16.51,8.28l-8.27-4.16,8.24,4.16,0,.1a52.54,52.54,0,0,1-43.57,28.87h-.57m-38.54-19.18a9.28,9.28,0,0,1-7.7-4.12,52.25,52.25,0,0,1-8.71-28.94,51.49,51.49,0,0,1,5.47-23.2A9.24,9.24,0,1,1,272,150.44a33.22,33.22,0,0,0-3.55,15,33.91,33.91,0,0,0,5.64,18.74,9.2,9.2,0,0,1-2.6,12.8,9.05,9.05,0,0,1-5.1,1.52m71.73-47.65a9.28,9.28,0,0,1-7.7-4.12,33.49,33.49,0,0,0-13.07-11.51,32.9,32.9,0,0,0-17.22-3.48,9.24,9.24,0,0,1-1.18-18.44c1.11-.07,2.26-.1,3.34-.1a51.38,51.38,0,0,1,23.3,5.5,52.13,52.13,0,0,1,20.23,17.8,9.26,9.26,0,0,1-7.7,14.35" transform="translate(-10.65 -10.65)"/><path class="cls-4" d="M300.53,476.76h-10.3v-.41a108.78,108.78,0,0,1-15.77-2.43,9.22,9.22,0,0,1,4.18-18,97.61,97.61,0,0,0,20.91,2.33h.91A96.94,96.94,0,0,0,321.33,456a9.23,9.23,0,1,1,4.19,18,108.57,108.57,0,0,1-15.77,2.43v.37Z" transform="translate(-10.65 -10.65)"/><path class="cls-4" d="M239.22,451.87a9.21,9.21,0,0,1-7.19-3.44c-7.16-8.92-9.56-16.62-9.79-17.46l-.75-2.53,8.21-29.32a9.22,9.22,0,1,1,17.76,5l-6.65,23.81a43.1,43.1,0,0,0,5.61,9,9.21,9.21,0,0,1-7.2,15m11.28-83.71a9.17,9.17,0,0,1-2.5-.34,9.29,9.29,0,0,1-6.41-11.38l11.92-42.69a9.24,9.24,0,0,1,17.79,5L259.38,361.4a9.22,9.22,0,0,1-8.88,6.76" transform="translate(-10.65 -10.65)"/><path class="cls-4" d="M274.32,282.82a9.55,9.55,0,0,1-2.5-.33,9.27,9.27,0,0,1-6.41-11.38l8.57-30.7,8.58,1.92a78.83,78.83,0,0,0,34.85,0l8.58-2,8.58,30.74a9.24,9.24,0,0,1-17.8,5l-3.95-14.15a99.36,99.36,0,0,1-25.67,0l-3.95,14.15a9.21,9.21,0,0,1-8.88,6.75" transform="translate(-10.65 -10.65)"/><path class="cls-4" d="M360.78,451.89a9.13,9.13,0,0,1-5.81-2,9.23,9.23,0,0,1-1.38-13,44,44,0,0,0,5.6-9l-6.65-23.81a9.22,9.22,0,1,1,17.76-5l8.21,29.31-.74,2.5c-.24.88-2.64,8.58-9.8,17.49a9.09,9.09,0,0,1-7.19,3.45M349.5,368.17a9.23,9.23,0,0,1-8.88-6.75L328.7,318.73a9.24,9.24,0,0,1,17.8-5l11.92,42.69A9.28,9.28,0,0,1,352,367.83a9.12,9.12,0,0,1-2.5.34" transform="translate(-10.65 -10.65)"/></g></g></g></svg>