<svg class="svg_icon" version="1.2" xmlns="http://www.w3.org/2000/svg" viewBox="0 0 580 580">
<defs><clipPath clipPathUnits="userSpaceOnUse" id="cp1"><path d="m-10-10h600v600h-600z"/></clipPath></defs><style>.a{fill:#161616}.b{fill:#fff}</style><g clip-path="url(#cp1)"><path class="a" d="m290 574.4c-3.9 0-7.6-1.6-10.4-4.3l-269.7-269.7c-5.7-5.7-5.7-15.1 0-20.8l269.7-269.7c2.8-2.7 6.5-4.2 10.4-4.2 3.9 0 7.6 1.5 10.4 4.2l269.7 269.7c5.7 5.7 5.7 15.1 0 20.8l-269.7 269.7c-2.8 2.7-6.5 4.3-10.4 4.3z"/><path fill-rule="evenodd" class="b" d="m303.9 6.4l269.7 269.7c7.7 7.7 7.7 20.1 0 27.8l-269.7 269.7c-3.8 3.8-8.9 5.7-13.9 5.7-5 0-10.1-1.9-13.9-5.7l-269.7-269.7c-7.7-7.7-7.7-20.1 0-27.8l269.7-269.7c3.8-3.8 8.9-5.7 13.9-5.7 5 0 10.1 1.9 13.9 5.7zm-20.8 7.1l-269.6 269.6c-1.8 1.9-2.9 4.3-2.9 6.9 0 2.6 1.1 5 2.9 6.9l269.6 269.6c1.9 1.8 4.3 2.9 6.9 2.9 2.6 0 5-1.1 6.9-2.9l269.6-269.6c1.8-1.9 2.9-4.3 2.9-6.9 0-2.6-1.1-5-2.9-6.9l-269.6-269.6c-1.9-1.8-4.3-2.9-6.9-2.9-2.6 0-5 1.1-6.9 2.9z"/><path class="b" d="m294.9 207.7c-4.8 0-8.9-3.8-9.2-8.7-0.3-5.1 3.5-9.5 8.6-9.8 12-0.7 22.8-7.9 28.2-18.6l0.1-0.2c2.2-4.5 7.8-6.4 12.3-4.1 4.6 2.3 6.5 7.8 4.2 12.4l-8.3-4.2 8.3 4.2-0.1 0.1c-8.3 16.6-25 27.7-43.5 28.9-0.2 0-0.4 0-0.6 0zm-38.5-19.2c-3 0-6-1.5-7.7-4.1-5.8-8.6-8.8-18.6-8.8-29 0-8.1 1.9-15.9 5.5-23.2 2.3-4.6 7.8-6.4 12.4-4.2 4.6 2.3 6.4 7.9 4.2 12.4-2.4 4.8-3.6 9.8-3.6 15 0 6.7 2 13.2 5.7 18.8 2.8 4.2 1.6 10-2.6 12.8-1.6 1-3.4 1.5-5.1 1.5zm71.7-47.7c-3 0-5.9-1.4-7.7-4.1-3.3-4.9-7.8-8.9-13.1-11.5-5.4-2.7-11.2-3.9-17.2-3.5-5.1 0.3-9.5-3.5-9.8-8.6-0.3-5.1 3.5-9.5 8.6-9.8 1.1-0.1 2.3-0.1 3.4-0.1 8.1 0 15.9 1.8 23.3 5.5 8.2 4 15.1 10.2 20.2 17.8 2.8 4.2 1.6 10-2.6 12.8-1.6 1-3.4 1.5-5.1 1.5z"/><path class="b" d="m290.5 466.8q-0.2 0-0.5 0-0.3 0-0.5 0h-9.3v-0.4c-5.5-0.5-10.7-1.3-15.7-2.5-5-1.1-8.1-6.1-6.9-11.1 1.1-4.9 6.1-8 11-6.8 6.4 1.4 13.5 2.2 20.9 2.3h0.6 0.4c7.5-0.1 14.5-0.9 20.8-2.3 5-1.2 10 1.9 11.1 6.8 1.2 5-1.9 10-6.9 11.1-4.9 1.2-10.2 2-15.8 2.5v0.3z"/><path class="b" d="m229.2 441.9c-2.7 0-5.3-1.2-7.2-3.5-7.1-8.9-9.5-16.6-9.8-17.4l-0.7-2.6 8.2-29.3c1.4-4.9 6.4-7.8 11.4-6.4 4.9 1.4 7.7 6.5 6.4 11.4l-6.7 23.8c1 2.1 2.7 5.3 5.6 9 3.2 3.9 2.6 9.7-1.4 12.9-1.7 1.4-3.8 2.1-5.8 2.1zm11.3-83.7q-1.2 0-2.5-0.4c-4.9-1.4-7.8-6.5-6.4-11.4l11.9-42.6c1.4-4.9 6.5-7.8 11.4-6.4 4.9 1.3 7.8 6.4 6.4 11.3l-11.9 42.7c-1.2 4.1-4.8 6.8-8.9 6.8z"/><path class="b" d="m264.3 272.8q-1.2 0-2.5-0.3c-4.9-1.4-7.7-6.5-6.4-11.4l8.6-30.7 8.6 1.9c11.4 2.6 23.5 2.6 34.8 0l8.6-1.9 8.6 30.7c1.4 4.9-1.5 10-6.4 11.4-4.9 1.3-10-1.5-11.4-6.4l-4-14.2c-8.4 1.1-17.1 1.1-25.6 0l-4 14.2c-1.1 4.1-4.8 6.7-8.9 6.7z"/><path class="b" d="m350.8 441.9c-2.1 0-4.1-0.7-5.8-2-4-3.2-4.6-9.1-1.4-13 2.9-3.7 4.6-6.9 5.6-9l-6.7-23.8c-1.3-4.9 1.5-10 6.4-11.4 5-1.4 10.1 1.5 11.4 6.4l8.2 29.4-0.7 2.4c-0.3 0.9-2.7 8.6-9.8 17.5-1.8 2.3-4.5 3.5-7.2 3.5zm-11.3-83.7c-4.1 0-7.7-2.7-8.9-6.8l-11.9-42.7c-1.4-4.9 1.5-10 6.4-11.4 4.9-1.3 10 1.6 11.4 6.5l11.9 42.7c1.4 4.8-1.5 9.9-6.4 11.3q-1.3 0.4-2.5 0.4z"/></g></svg>
