<svg class="svg_icon" version="1.2" xmlns="http://www.w3.org/2000/svg" viewBox="0 0 580 580">
<defs><clipPath clipPathUnits="userSpaceOnUse" id="cp1"><path d="m-10-10h600v600h-600z"/></clipPath></defs><style>.a{fill:#d28c4d}.b{fill:#fff}</style><g clip-path="url(#cp1)"><path class="a" d="m290 576.2c-4 0-7.6-1.5-10.5-4.3l-271.4-271.4c-5.8-5.8-5.8-15.2 0-21l271.4-271.4c2.9-2.8 6.5-4.3 10.5-4.3 4 0 7.6 1.5 10.5 4.3l271.4 271.4c5.8 5.8 5.8 15.2 0 21l-271.4 271.4c-2.9 2.8-6.5 4.3-10.5 4.3z"/><path fill-rule="evenodd" class="b" d="m303.9 6.4l269.7 269.7c7.7 7.7 7.7 20.1 0 27.8l-269.7 269.7c-3.8 3.8-8.9 5.7-13.9 5.7-5 0-10.1-1.9-13.9-5.7l-269.7-269.7c-7.7-7.7-7.7-20.1 0-27.8l269.7-269.7c3.8-3.8 8.9-5.7 13.9-5.7 5 0 10.1 1.9 13.9 5.7zm-20.7 7.1l-269.7 269.6c-3.8 3.8-3.8 10 0 13.8l269.7 269.6c1.8 1.8 4.2 2.8 6.8 2.8 2.6 0 5-1 6.8-2.8l269.7-269.6c1.9-1.9 2.9-4.3 2.9-6.9 0-2.6-1-5-2.9-6.9l-269.7-269.6c-1.8-1.8-4.2-2.8-6.8-2.8-2.6 0-5 1-6.8 2.8z"/><path class="b" d="m440.4 261.5l72.6 27.4c1.1 0.4 1.1 1.8 0 2.2l-72.6 27.4c-2.3 0.9-5 0.3-6.8-1.4l-15.1-15.3h-347.3l-7.2-11.8 7.2-11.8h347.3l15.1-15.3c1.8-1.7 4.5-2.3 6.8-1.4z"/><path class="b" d="m255.3 242.1l-19.5-37.6 27.5 5 5-55.1 22.6 35.2 51.3-89.2-7.1 91.2 41.7-22.1-22.5 48.8 30.2 2.5-43.1 30c-1.5 1.1-3.7 0.7-4.7-0.9-4.1-6.4-15.5-20.7-37.3-21.3-16.6-0.4-32.6 9.9-39.1 14.7-1.7 1.2-4.1 0.7-5-1.2z"/><path class="b" d="m325.6 339l20 38.6-28.2-5.2-5.1 56.5-23.2-36-52.6 91.3 7.3-93.4-42.7 22.7 23-50.1-30.9-2.5 44.1-30.8c1.6-1.1 3.9-0.7 4.9 1 4.2 6.6 15.8 21.2 38.2 21.8 16.9 0.4 33.3-10.1 40.1-15.1 1.7-1.2 4.1-0.7 5.1 1.2z"/></g></svg>
