<svg class="svg_icon" version="1.2" xmlns="http://www.w3.org/2000/svg" viewBox="0 0 580 580">
<defs><clipPath clipPathUnits="userSpaceOnUse" id="cp1"><path d="m-10-10h600v600h-600z"/></clipPath></defs><style>.a{fill:#474e4e}.b{fill:#fff}</style><g clip-path="url(#cp1)"><path class="a" d="m574.3 290c0 3.9-1.5 7.6-4.3 10.4l-269.6 269.6c-5.8 5.8-15 5.8-20.8 0l-269.6-269.6c-2.8-2.8-4.3-6.5-4.3-10.4 0-3.9 1.5-7.6 4.3-10.4l269.6-269.6c5.8-5.8 15-5.8 20.8 0l269.6 269.6c2.8 2.8 4.3 6.5 4.3 10.4z"/><path fill-rule="evenodd" class="b" d="m6.4 276.1l269.7-269.7c7.7-7.7 20.1-7.7 27.8 0l269.7 269.7c3.8 3.8 5.7 8.9 5.7 13.9 0 5-1.9 10.1-5.7 13.9l-269.7 269.7c-7.7 7.7-20.1 7.7-27.8 0l-269.7-269.7c-3.8-3.8-5.7-8.9-5.7-13.9 0-5 1.9-10.1 5.7-13.9zm7.1 20.7l269.6 269.7c1.9 1.9 4.3 2.9 6.9 2.9 2.6 0 5-1 6.9-2.9l269.6-269.7c1.8-1.8 2.8-4.2 2.8-6.8 0-2.6-1-5-2.8-6.8l-269.6-269.7c-1.9-1.9-4.3-2.9-6.9-2.9-2.6 0-5 1-6.9 2.9l-269.6 269.7c-1.8 1.8-2.8 4.2-2.8 6.8 0 2.6 1 5 2.8 6.8z"/><path class="b" d="m253.8 198.9c7.1 4.5 19.8 10.6 36.2 10.6 16.4 0 29.1-6.1 36.2-10.6 2.8-1.8 6.9 0 7 3l7.5 115h59.2c3.8 0 6.7 4.4 4.9 7.6l-109.2 140.6c-2.8 3.6-8.4 3.6-11.2 0l-109.2-140.6c-1.8-3.2 1-7.6 4.9-7.6h59.2l7.4-115c0.3-3 4.3-4.8 7.1-3z"/><path class="b" d="m257.7 125c6.4 3.5 17.7 8.4 32.3 8.4 14.6 0 25.9-4.9 32.3-8.4 2.4-1.4 6 0 6.2 2.4l2.3 35.8c0.1 3-1.2 5.8-3.7 7.9-5.4 4.5-17 11.3-37.1 11.3-20.1 0-31.7-6.8-37.1-11.3-2.5-2.1-3.8-4.9-3.7-7.9l2.3-35.8c0.2-2.4 3.8-3.8 6.2-2.4z"/><path class="b" d="m320 84.2c2.3-1.1 5.7 0 5.8 2.1l0.4 6.2c0.1 2.4-1 4.6-3.3 6.3-4.8 3.5-15 8.9-32.9 8.9-17.9 0-28.1-5.4-32.9-8.9-2.3-1.7-3.4-3.9-3.3-6.3l0.4-6.2c0.1-2.1 3.5-3.2 5.8-2.1 5.9 3.1 16.4 7.3 30 7.3 13.5 0 24.1-4.2 30-7.3z"/><path class="b" d="m284.4 483.1c2.9 3.6 8.3 3.6 11.2 0l109.8-139.5-5.9 31.2c-0.7 3.6-2.2 7-4.4 9.8l-99.5 129c-2.8 3.7-8.4 3.7-11.2 0l-99.5-129c-2.2-2.8-3.7-6.2-4.4-9.8l-5.9-31.2z"/></g></svg>
