<svg class="svg_icon" version="1.2" xmlns="http://www.w3.org/2000/svg" viewBox="0 0 580 580">
<style>.a{fill:#ce41a1}.b{fill:#fff}</style><path class="a" d="m290 574.3c-3.9 0-7.6-1.5-10.4-4.3l-269.6-269.6c-5.8-5.7-5.8-15.1 0-20.8l269.6-269.6c2.8-2.8 6.5-4.3 10.4-4.3q0 0 0 0c3.9 0 7.6 1.5 10.4 4.3l269.6 269.6c5.8 5.7 5.8 15.1 0 20.8l-269.6 269.6c-2.8 2.8-6.5 4.3-10.4 4.3z"/><path fill-rule="evenodd" class="b" d="m303.9 6.4l269.7 269.7c7.7 7.7 7.7 20.1 0 27.8l-269.7 269.7c-3.8 3.8-8.9 5.7-13.9 5.7-5 0-10.1-1.9-13.9-5.7l-269.7-269.7c-7.7-7.7-7.7-20.1 0-27.8l269.7-269.7c3.8-3.8 8.9-5.7 13.9-5.7 5 0 10.1 1.9 13.9 5.7zm-20.7 7.1l-269.7 269.7c-1.8 1.8-2.8 4.2-2.8 6.8 0 2.6 1 5 2.8 6.8l269.7 269.7c1.8 1.8 4.2 2.8 6.8 2.8 2.6 0 5-1 6.8-2.8l269.7-269.7c1.8-1.8 2.8-4.2 2.8-6.8 0-2.6-1-5-2.8-6.8l-269.7-269.7c-1.8-1.8-4.2-2.8-6.8-2.8-2.6 0-5 1-6.8 2.8z"/><path class="b" d="m172.3 211.7h-26.5c1.4-2.8 3.7-5.1 6.5-7.1h12.3c2.5 1.7 5.1 4.2 7.7 7.1z"/><path class="b" d="m190.7 237.2h-41.6q-2.2-4.7-3.4-8.5h39.5c2.1 3.1 4 6 5.5 8.5z"/><path class="b" d="m208.6 262.6h-44.1q-2.6-4-5.7-8.7-0.4-0.6-0.8-1.2h42.8c2.6 3.7 5.3 7.2 7.8 9.9z"/><path class="b" d="m221.7 160.8h-31.1q0.4-2.4 1.6-4.4h27.6q0.8 1.9 1.9 4.4z"/><path class="b" d="m231.4 186.3h-36.6q-1-2.9-1.9-5.8h36.4q1.1 2.9 2.1 5.8z"/><path class="b" d="m241.3 211.7h-36.2c-0.8-1.9-1.4-3.5-1.8-4.6q-0.4-1.1-1-2.5h36.1c1 2.6 2 5 2.9 7.1z"/><path class="b" d="m252 237.2h-37.7c-0.9-2.9-1.9-5.8-2.8-8.5h36.7c1.2 3.1 2.5 6 3.8 8.5z"/><path class="b" d="m280 109.9h-16.8c5.3-2.4 12-1.9 16.8 0z"/><path class="b" d="m290.8 135.4h-36.2q-0.1-1.6-0.2-3h35.9q0.3 1.5 0.5 3z"/><path class="b" d="m293.7 160.8h-36q-0.4-2.2-0.7-4.4h36.3q0.1 1.3 0.2 2 0 0.8 0.2 2.4z"/><path class="b" d="m295.9 186.3h-34.9q-0.2-2.7-0.5-5.8h34.9q0.2 2.8 0.5 5.8z"/><path class="b" d="m297.8 211.7h-33.9q-0.4-3.6-0.9-7.1h34.3c0.2 2.5 0.4 4.9 0.5 7.1z"/><path class="b" d="m265.8 237.2c0.2-2.5 0.1-5.4-0.1-8.5h33.3c0.8 6 2.1 7.8 3.7 8.5z"/><path class="b" d="m351.6 252.7c-1 4.9-1.5 8.3-1.4 9.5q0 0.2 0 0.4h-130.7c0.2-2.6-0.2-6-1-9.9z"/><path class="b" d="m316.8 228.7h40.1c-0.7 2.9-1.4 5.8-2 8.5h-42.3c1-0.6 1.8-1.7 2.5-3.3 0.4-0.8 1-2.7 1.7-5.2z"/><path class="b" d="m323.4 204.6h39.1q-0.8 3.5-1.7 7.1h-39.3c0.6-2.4 1.3-4.8 1.9-7.1z"/><path class="b" d="m329.3 180.5h38.7q-0.5 2.7-1.2 5.8h-38.7c0.3-1.4 0.7-3.4 1.2-5.8z"/><path class="b" d="m370.6 135.4h-24.5q1.3-1.7 2.8-3h18.9q1.6 1.3 2.8 3z"/><path class="b" d="m372.7 156.4q-0.4 2.3-0.8 4.4h-37.6q0.7-2.2 1.4-4.4z"/><path class="b" d="m360.3 288.1h-180.9c-1.5-3.1-3.5-6.8-6.1-11.3h178.2c1 5.4 3.1 9.5 8.8 11.3z"/><path class="b" d="m241.4 440.8c-0.2-7.4-0.7-14.7-2.1-19.6h101c0 5 0.2 12.3 0.5 19.6z"/><path class="b" d="m341.6 462.5c0.1 2.4-1.4 4.6-3.8 5.4-8.2 2.9-28.4 9.1-47.6 9.8-19 0.6-37.7-4.9-45.7-7.6-2.3-0.8-3.8-3-3.7-5.5 0.3-4.4 0.6-11.6 0.6-19.3h99.5c0.3 6.8 0.5 13.2 0.7 17.2z"/><path class="b" d="m340.4 415.4h-105.9c-5.5-4-11.3-10.6-16.8-18.2h139.2c-8.1 9.1-15.8 16.7-16.4 18q0 0.1-0.1 0.2z"/><path class="b" d="m374.7 373.1c-1.7 3.2-3.3 6.1-5.1 8.5-1.9 2.7-4.1 5.5-6.4 8.3h-150.6c-2.8-4.3-5.6-8.6-8.3-12.9q-1.2-1.9-2.3-3.9z"/><path class="b" d="m385.1 349c-2 5-4.1 10.3-6.4 15.5h-180.7c-2-5.1-3.6-10.3-4.9-15.5z"/><path class="b" d="m399.9 325c-2.5 2.1-4.4 3.7-5.2 4.4-1.6 1.3-3.4 4.8-5.5 9.6h-198.3c-1-4.9-1.7-9.7-2.3-14z"/><path class="b" d="m427.6 300.9c-4.7 4.2-9.8 8.6-14.5 12.6h-225.9c-0.5-4.4-1-7.9-1.6-9.9q-0.5-1.4-0.9-2.7z"/><path class="b" d="m436.7 262.6h-21.4c4.6-1.7 9.2-2.7 13.5-2.2 3 0.3 5.6 1.1 7.9 2.2z"/><path class="b" d="m449 281.2c-0.4 0.7-3.1 3.2-7.1 6.9h-68.3c4.5-1.4 8.4-4 12.2-6.3 1.5-0.9 3.8-2.8 6.7-5h56.4c0.5 2 0.5 3.6 0.1 4.4z"/></svg>
