<svg class="svg_icon" version="1.2" xmlns="http://www.w3.org/2000/svg" viewBox="0 0 580 580">
<defs>
<clipPath clipPathUnits="userSpaceOnUse" id="cp1">
<path d="m-10-10h600v600h-600z"/>
</clipPath>
<clipPath clipPathUnits="userSpaceOnUse" id="cp2">
<path d="m290 574.35c-3.92 0-7.61-1.53-10.38-4.3l-269.67-269.67c-2.77-2.77-4.3-6.46-4.3-10.38 0-3.92 1.53-7.61 4.3-10.38l269.67-269.67c2.77-2.77 6.46-4.3 10.38-4.3 3.92 0 7.61 1.53 10.38 4.3l269.67 269.67c2.77 2.77 4.3 6.46 4.3 10.38 0 3.92-1.53 7.61-4.3 10.38l-269.67 269.67c-2.77 2.77-6.46 4.3-10.38 4.3z"/>
</clipPath>
</defs>
<style>
.a{fill:#843628}.b{fill:#fff}</style>
<g clip-path="url(#cp1)">
<path class="a" d="m290 574.3c-3.9 0-7.6-1.5-10.4-4.3l-269.6-269.6c-2.8-2.8-4.3-6.5-4.3-10.4 0-3.9 1.5-7.6 4.3-10.4l269.6-269.6c2.8-2.8 6.5-4.3 10.4-4.3 3.9 0 7.6 1.5 10.4 4.3l269.6 269.6c2.8 2.8 4.3 6.5 4.3 10.4 0 3.9-1.5 7.6-4.3 10.4l-269.6 269.6c-2.8 2.8-6.5 4.3-10.4 4.3z"/>
<path fill-rule="evenodd" class="b" d="m303.9 6.4l269.7 269.7c7.7 7.7 7.7 20.1 0 27.8l-269.7 269.7c-3.8 3.8-8.9 5.7-13.9 5.7-5 0-10.1-1.9-13.9-5.7l-269.7-269.7c-7.7-7.7-7.7-20.1 0-27.8l269.7-269.7c3.8-3.8 8.9-5.7 13.9-5.7 5 0 10.1 1.9 13.9 5.7zm-20.7 7.1l-269.7 269.7c-3.8 3.7-3.8 9.9 0 13.6l269.7 269.7c1.8 1.8 4.2 2.8 6.8 2.8 2.6 0 5-1 6.8-2.8l269.7-269.7c3.8-3.7 3.8-9.9 0-13.6l-269.7-269.7c-1.8-1.8-4.2-2.8-6.8-2.8-2.6 0-5 1-6.8 2.8z"/>
<path class="b" d="m323.5 272.5c-2 20.5 6.3 54.7 7.1 57.6 0.6 2.5 0.4 15.5 0.1 27.6-0.1 3.8-0.2 7.5-0.4 10.7 15 6.5 33.7 4.6 48.7 15.9 12 9.1 19.8 28.2 22.4 35.2q0.2 0.6 0.1 1.2-0.3 0.5-0.6 0.9-1.1 0.6-2.6 1.2-1.8 0.7-4.2 1.6c-17.4 6.2-54.6 14.8-97.9 11.9q-44.6-31.9-47.9-34.7c-10-14.6-7.7-31-23.2-39.4-4-2.2-9.9-2.1-16.8-0.3-6.8-6-17.1-20.5-23.8-30.2-2.5-3.6-4.5-6.7-5.5-8.3-0.5-0.8-0.7-1.8-0.4-2.7 1.1-3.2 3.9-11 8.4-18.1 1.8-2.9 6.6-9 12.5-16 12.4-15.1 29.3-34.5 30.4-36.4 6.1-10.5 22.2-65.2 22.8-67.8 0.3-1.8-0.7-18.5-1.3-28-0.1-1.6-0.2-3-0.3-4.1 0-1.4 1-2.5 2.3-2.6q15-0.9 32.7 3.3 0.5-6 1.2-10.2c0.2-1.2 1.5-1.9 2.7-1.6 35.2 10.2 67.3 28.9 84.4 50.4 1 1.2 0.8 3-0.4 4.1-4.9 4.5-12.2 13-19.7 23l-26.1-14.5-4.4-2.4c-1.6-0.9-3.5-1.3-5.3-1-2.6 0.3-5 1.9-6.4 4.4-2.3 4.1-0.8 9.4 3.3 11.7l5.4 3 23.3 12.9c-6 8.8-11.5 17.6-15.2 24.9"/>
<g clip-path="url(#cp2)">
<path class="b" d="m5.6 450.9l140-76.8c8.2-4.5 11.8 1.8 5.2 9.1l-113.5 124.1c-4.6 5-11 6.8-12.8 3.6l-26.6-47.3c-1.8-3.2 2-9.6 7.7-12.7z"/>
<path class="b" d="m-27 281.6l163.5 11.6c9.6 0.7 9.9 5.9 0.4 7.5l-161.7 27.3c-6.5 1.1-13.1-0.5-13.3-3.1l-1.8-39c-0.2-2.6 6.3-4.8 12.9-4.3z"/>
<path class="b" d="m70.4 145.9l111 87.6c6.5 5.1 3.8 9.2-3.9 5.8l-131.5-57.5c-5.3-2.3-9.2-6.7-7.8-8.8l20.5-30c1.4-2.1 7.3-0.6 11.7 2.9z"/>
<path class="b" d="m590.3 290l-204.2-2.9c-11.9-0.2-12.5-6.4-0.8-9l200.2-26.2c8-1.7 16.4-0.3 16.7 2.9l4 29c0.3 3.2-7.7 6.3-15.9 6.2z"/>
<path class="b" d="m506.7 157.7l-98.1 54.9c-5.8 3.2-8.7-0.6-4.3-5.4l76-82.9c3-3.3 7.7-4.8 9.2-2.9l22.1 28c1.5 1.9-0.9 6.1-4.9 8.3z"/>
<path class="b" d="m526.6 416.2l-118.7-59.4c-6.9-3.5-5.2-7.2 2.5-5.4l131.7 31.3c5.3 1.3 9.7 4.5 8.9 6.4l-13.1 28.1c-0.9 1.9-6.6 1.4-11.3-1z"/>
</g>
<path class="a" d="m308.9 312.6l-31.8-31.8-44.8 55.4-21.8-34.9-33.6 19.6-2.2-29.7 36.2-21.1 21.4 33.2 42.7-57.2 32.9 25.2 34.9-36.6 5.2 52.9z"/>
</g>
</svg>

