<svg xmlns="http://www.w3.org/2000/svg" xmlns:xlink="http://www.w3.org/1999/xlink" viewBox="0 0 587.11 578.7"><defs><style>.cls-1{fill:none;}.cls-2{clip-path:url(#clip-path);}.cls-3{fill:#7f3b2a;}.cls-4{fill:#fff;}.cls-5{clip-path:url(#clip-path-2);}</style><clipPath id="clip-path" transform="translate(-7.45 -10.65)"><rect class="cls-1" width="600" height="600"/></clipPath><clipPath id="clip-path-2" transform="translate(-7.45 -10.65)"><path class="cls-1" d="M300,584.35a14.59,14.59,0,0,1-10.38-4.3L20,310.38a14.68,14.68,0,0,1,0-20.76L289.62,20a14.68,14.68,0,0,1,20.76,0L580.05,289.62a14.68,14.68,0,0,1,0,20.76L310.38,580.05a14.59,14.59,0,0,1-10.38,4.3"/></clipPath></defs><g id="Layer_2" data-name="Layer 2"><g id="Rupture"><g class="cls-2"><path class="cls-3" d="M300,584.35a14.59,14.59,0,0,1-10.38-4.3L20,310.38a14.68,14.68,0,0,1,0-20.76L289.62,20a14.68,14.68,0,0,1,20.76,0L580.05,289.62a14.68,14.68,0,0,1,0,20.76L310.38,580.05a14.59,14.59,0,0,1-10.38,4.3" transform="translate(-7.45 -10.65)"/><path class="cls-4" d="M300,20.65a9.62,9.62,0,0,1,6.85,2.84L576.51,293.15a9.69,9.69,0,0,1,0,13.7L306.85,576.51a9.68,9.68,0,0,1-13.7,0L23.49,306.85a9.69,9.69,0,0,1,0-13.7L293.15,23.49A9.62,9.62,0,0,1,300,20.65m0-10a19.61,19.61,0,0,0-13.92,5.77L16.42,286.08a19.68,19.68,0,0,0,0,27.84L286.08,583.58a19.68,19.68,0,0,0,27.84,0L583.58,313.92a19.68,19.68,0,0,0,0-27.84L313.92,16.42A19.61,19.61,0,0,0,300,10.65" transform="translate(-7.45 -10.65)"/><path class="cls-4" d="M333.49,282.52c-2,20.45,6.27,54.7,7.06,57.59.64,2.47.48,15.48.15,27.61-.11,3.77-.24,7.45-.36,10.7,15,6.44,33.65,4.6,48.63,15.86,12.07,9.08,19.86,28.19,22.42,35.23a2.31,2.31,0,0,1,.09,1.22c-.19.31-.4.62-.61.92-.74.36-1.6.73-2.55,1.12-1.23.52-2.62,1-4.18,1.6-17.4,6.19-54.62,14.84-97.92,11.95,0,0-44.61-32-48-34.69-9.91-14.61-7.7-31-23.12-39.43-4-2.22-10-2.12-16.88-.29-6.8-6.05-17.11-20.46-23.72-30.16-2.52-3.7-4.5-6.71-5.55-8.33a3.35,3.35,0,0,1-.37-2.75,90.63,90.63,0,0,1,8.34-18c1.81-2.92,6.67-9,12.49-16.07,12.46-15.08,29.34-34.49,30.43-36.33C246,249.74,262.14,195,262.65,192.4c.33-1.83-.64-18.51-1.24-28-.1-1.64-.19-3-.27-4.14a2.44,2.44,0,0,1,2.3-2.57c14.94-.94,32.71,3.31,32.71,3.31s.42-6,1.13-10.2a2.13,2.13,0,0,1,2.72-1.63c35.17,10.22,67.29,28.86,84.41,50.4a3,3,0,0,1-.37,4.07c-4.92,4.51-12.25,13.08-19.76,23l-26.09-14.46-4.34-2.41a8.66,8.66,0,1,0-8.4,15.15l5.31,2.94,23.32,12.95a245.11,245.11,0,0,0-15.21,24.88" transform="translate(-7.45 -10.65)"/><g class="cls-5"><path class="cls-4" d="M15.56,460.93,155.63,384.1c8.2-4.5,11.76,1.85,5.12,9.11L47.28,517.35c-4.54,5-11,6.76-12.78,3.55L7.9,473.59c-1.81-3.21,2-9.58,7.66-12.66" transform="translate(-7.45 -10.65)"/><path class="cls-4" d="M11,293.56l135.54,9.66c9.57.68,9.82,5.91.36,7.5L11.85,333.53" transform="translate(-7.45 -10.65)"/><path class="cls-4" d="M80.43,155.92l111,87.58c6.5,5.12,3.75,9.15-4,5.79L56,191.77c-5.27-2.31-9.2-6.71-7.81-8.75L68.68,153c1.39-2,7.31-.55,11.75,3" transform="translate(-7.45 -10.65)"/><path class="cls-4" d="M594.55,299.92l-198.41-2.81c-11.95-.16-12.54-6.43-.85-9l196-25.65" transform="translate(-7.45 -10.65)"/><path class="cls-4" d="M516.73,167.66l-98.16,54.91c-5.75,3.22-8.72-.54-4.27-5.39l76-82.91c3.05-3.32,7.65-4.76,9.16-2.86l22.15,28c1.51,1.9-1,6.05-4.88,8.25" transform="translate(-7.45 -10.65)"/><path class="cls-4" d="M536.58,426.21,417.91,366.82c-7-3.47-5.2-7.24,2.51-5.41l131.69,31.32c5.28,1.25,9.73,4.45,8.85,6.36l-13,28.08c-.88,1.9-6.6,1.42-11.35-1" transform="translate(-7.45 -10.65)"/></g><polygon class="cls-3" points="311.49 311.97 279.61 280.11 234.84 335.58 213.05 300.68 179.42 320.24 177.25 290.59 213.42 269.41 234.89 302.67 277.55 245.44 310.43 270.68 345.37 234.09 350.57 286.94 311.49 311.97"/></g></g></g></svg>