<svg class="svg_icon" version="1.2" xmlns="http://www.w3.org/2000/svg" viewBox="0 0 580 580">
<defs><clipPath clipPathUnits="userSpaceOnUse" id="cp1"><path d="m-10-10h600v600h-600z"/></clipPath></defs><style>.a{fill:#539f77}.b{fill:#fff}.c{fill:none;stroke:#fff;stroke-linecap:round;stroke-width:21.1;stroke-dasharray:63,63}</style><g clip-path="url(#cp1)"><path class="a" d="m290 574.3c-3.9 0-7.6-1.5-10.4-4.3l-269.6-269.6c-5.8-5.7-5.8-15.1 0-20.8l269.6-269.6c2.8-2.8 6.5-4.3 10.4-4.3 3.9 0 7.6 1.5 10.4 4.3l269.6 269.6c2.8 2.8 4.3 6.5 4.3 10.4 0 3.9-1.5 7.6-4.3 10.4l-269.6 269.6c-2.8 2.8-6.5 4.3-10.4 4.3z"/><path fill-rule="evenodd" class="b" d="m303.9 6.4l269.7 269.7c7.7 7.7 7.7 20.1 0 27.8l-269.7 269.7c-3.8 3.8-8.9 5.7-13.9 5.7-5 0-10.1-1.9-13.9-5.7l-269.7-269.7c-7.7-7.7-7.7-20.1 0-27.8l269.7-269.7c3.8-3.8 8.9-5.7 13.9-5.7 5 0 10.1 1.9 13.9 5.7zm-20.7 7.1l-269.7 269.7c-3.8 3.7-3.8 9.9 0 13.6l269.7 269.7c1.8 1.8 4.2 2.8 6.8 2.8 2.6 0 5-1 6.8-2.8l269.7-269.7c3.8-3.7 3.8-9.9 0-13.6l-269.7-269.7c-1.8-1.8-4.2-2.8-6.8-2.8-2.6 0-5 1-6.8 2.8z"/><path class="c" d="m290 445.1c-7.6 0-15.3-2.1-21.9-6.4-47.2-30.2-79.9-58.3-103.1-88.3-20.7-26.8-25-52.9-25-70.1 0-57 46.4-103.4 103.4-103.4 16.4 0 32.3 3.8 46.6 11 14.3-7.2 30.2-11 46.6-11 57 0 103.4 46.4 103.4 103.4 0 17.2-4.3 43.3-25 70.1-23.2 30-55.9 58.1-103 88.3-6.7 4.3-14.4 6.4-22 6.4z"/><path class="b" d="m397.5 281.8c0 11.3-2.9 27.7-16.4 45.2-22.5 29.2-54.6 53.7-89.1 75.8-1.2 0.8-2.8 0.8-4 0-34.4-22.1-66.6-46.6-89.1-75.8-13.5-17.5-16.4-33.9-16.4-45.2 0-34.9 28.3-63.2 63.2-63.2 17.3 0 32.9 6.9 44.3 18.1 11.4-11.2 27-18.1 44.3-18.1 34.9 0 63.2 28.3 63.2 63.2z"/></g></svg>
