<svg class="svg_icon" version="1.2" xmlns="http://www.w3.org/2000/svg" viewBox="0 0 580 580">
<defs><clipPath clipPathUnits="userSpaceOnUse" id="cp1"><path d="m-10-10h600v600h-600z"/></clipPath></defs><style>.a{fill:#449fd7}.b{fill:#fff}</style><g clip-path="url(#cp1)"><path class="a" d="m290 574.4c-3.9 0-7.6-1.6-10.4-4.3l-269.7-269.7c-5.7-5.7-5.7-15.1 0-20.8l269.7-269.7c2.8-2.7 6.5-4.2 10.4-4.2 3.9 0 7.6 1.5 10.4 4.2l269.7 269.7c5.7 5.7 5.7 15.1 0 20.8l-269.7 269.7c-2.8 2.7-6.5 4.3-10.4 4.3z"/><path fill-rule="evenodd" class="b" d="m303.9 6.4l269.7 269.7c7.7 7.7 7.7 20.1 0 27.8l-269.7 269.7c-3.8 3.8-8.9 5.7-13.9 5.7-5 0-10.1-1.9-13.9-5.7l-269.7-269.7c-7.7-7.7-7.7-20.1 0-27.8l269.7-269.7c3.8-3.8 8.9-5.7 13.9-5.7 5 0 10.1 1.9 13.9 5.7zm-20.8 7.1l-269.6 269.6c-1.8 1.9-2.9 4.3-2.9 6.9 0 2.6 1.1 5 2.9 6.9l269.6 269.6c1.9 1.8 4.3 2.9 6.9 2.9 2.6 0 5-1.1 6.9-2.9l269.6-269.6c1.8-1.9 2.9-4.3 2.9-6.9 0-2.6-1.1-5-2.9-6.9l-269.6-269.6c-1.9-1.8-4.3-2.9-6.9-2.9-2.6 0-5 1.1-6.9 2.9z"/><path fill-rule="evenodd" class="b" d="m427.3 340.5q0 47.9-9.7 51.4-25.8 6.7-67-13c-27.2 12.4-52 17.1-79.9 12.4-19.2-3.4-37.8-9.3-56.6-14.5-28.6-7.8-54.7-13.5-57.9-18.4-5.3-8.2-18-51.1 3.9-103.6 12.7-30.6 26.2-56.4 32.5-83.8 1-4.4 5.1-25.3 55.7-38 30.7-7.7 48.1-12.6 59.6-12.6 9.1 0 12.5 0.6 14 11.4 2.6 17.1 10 38.2 10 46.2-0.1 8.1-3.7 11.2-9.6 11.4q-5.9 0.3-10.4-4.2-4.3 7.7-11.3 7-7.1-0.7-11.1-7.7-3.1 5.4-10.7 5.4-7.6 0.1-10.4-6-5.9 5.5-11 4.7c-5.8-0.9-8.4-8.2-8.4-8.3q-12.9 2.8-17.3-12.1c-3.1 14 5.3 18.8 11.1 19.7-2.4 7.3-3.7 19.1-5.3 27.4-3.2 16.8 11.3 42.4 12.4 62.2 6.7-5.8 25.7-17 50.9-16.7 22 0.2 30.4 4.6 46.3 20.5 5.3-4.3 30.8-23 74-21.2 0.2 28.1 6.2 49.4 6.2 80.4zm-88.4-5c-1.6 0.7-9.6 6-23.9 7.3q-34.6 3.1-64.3-20.3c4.3 9.7 21.2 27.6 50.1 29.4 24.6 1.5 36.6-10.3 38.1-16.4z"/><path class="b" d="m315.7 206.9c-8.7 2.7-17.1-3.4-21.2-8.8 1.6 0.7 3.4 1.1 5.3 1.3q0.9 0.1 1.7 0.1c5.1 0 9-2.3 11.8-4.7 2.2 1 4.8 1.7 7.7 1.9 0.1 0 0.6 0.2 0.8 0.6 0.3 0.3 3 6.7-6.1 9.6z"/></g></svg>
