<svg xmlns="http://www.w3.org/2000/svg" xmlns:xlink="http://www.w3.org/1999/xlink" viewBox="0 0 578.7 578.7"><defs><style>.cls-1{fill:none;}.cls-2{clip-path:url(#clip-path);}.cls-3{fill:#2e4668;}.cls-4{fill:#fff;}</style><clipPath id="clip-path" transform="translate(-10.65 -10.65)"><rect class="cls-1" width="600" height="600"/></clipPath></defs><g id="Layer_2" data-name="Layer 2"><g id="Stun"><g class="cls-2"><path class="cls-3" d="M300,584.35a14.56,14.56,0,0,1-10.37-4.29L19.94,310.37a14.68,14.68,0,0,1,0-20.73L289.63,19.94a14.68,14.68,0,0,1,20.74,0l269.69,269.7a14.68,14.68,0,0,1,0,20.73L310.37,580.06A14.56,14.56,0,0,1,300,584.35" transform="translate(-10.65 -10.65)"/><path class="cls-4" d="M300,20.65a9.66,9.66,0,0,1,6.86,2.83L576.52,293.14a9.73,9.73,0,0,1,0,13.72L306.86,576.52a9.73,9.73,0,0,1-13.72,0L23.48,306.86a9.72,9.72,0,0,1,0-13.72L293.14,23.48A9.66,9.66,0,0,1,300,20.65m0-10a19.61,19.61,0,0,0-13.91,5.78L16.43,286.09a19.64,19.64,0,0,0,0,27.82L286.09,583.57a19.63,19.63,0,0,0,27.82,0L583.57,313.91a19.64,19.64,0,0,0,0-27.82L313.91,16.43A19.61,19.61,0,0,0,300,10.65" transform="translate(-10.65 -10.65)"/><polygon class="cls-4" points="370.25 331.2 488.95 285.24 368.46 244.21 398.99 175.12 331.21 208.45 285.25 89.74 244.21 210.24 175.12 179.71 208.45 247.49 89.75 293.45 210.24 334.48 179.71 403.57 247.49 370.24 293.45 488.95 334.48 368.45 403.58 398.98 370.25 331.2"/><polygon class="cls-3" points="267.08 337.46 235.61 345.36 244.93 313.04 177.52 291.67 243.68 267.05 233.35 235.61 265.87 243.14 287.04 177.52 311.63 241.75 343.1 233.34 333.75 265.66 401.19 287.04 335.03 311.66 345.36 343.1 312.84 336.07 291.63 401.18 267.08 337.46"/><polygon class="cls-4" points="289.35 244.24 301.37 277.33 334.47 289.36 301.37 301.38 289.35 334.47 277.33 301.38 244.23 289.36 277.33 277.33 289.35 244.24"/></g></g></g></svg>