<svg class="svg_icon" version="1.2" xmlns="http://www.w3.org/2000/svg" viewBox="0 0 580 580">
<defs><clipPath clipPathUnits="userSpaceOnUse" id="cp1"><path d="m590 590h-600v-600h600z"/></clipPath></defs><style>.a{fill:#474e4e}.b{fill:#fff}</style><g clip-path="url(#cp1)"><path class="a" d="m290 574.3c-3.9 0-7.6-1.5-10.4-4.3l-269.6-269.6c-5.8-5.7-5.8-15.1 0-20.8l269.6-269.6c2.8-2.8 6.5-4.3 10.4-4.3 3.9 0 7.6 1.5 10.4 4.3l269.6 269.6c5.8 5.7 5.8 15.1 0 20.8l-269.6 269.6c-2.8 2.8-6.5 4.3-10.4 4.3z"/><path fill-rule="evenodd" class="b" d="m303.9 6.4l269.7 269.7c7.7 7.7 7.7 20.1 0 27.8l-269.7 269.7c-3.8 3.8-8.9 5.7-13.9 5.7-5 0-10.1-1.9-13.9-5.7l-269.7-269.7c-7.7-7.7-7.7-20.1 0-27.8l269.7-269.7c3.8-3.8 8.9-5.7 13.9-5.7 5 0 10.1 1.9 13.9 5.7zm-20.7 7.1l-269.7 269.7c-1.8 1.8-2.8 4.2-2.8 6.8 0 2.6 1 5 2.8 6.9l269.7 269.6c1.8 1.8 4.2 2.9 6.8 2.9 2.6 0 5-1.1 6.8-2.9l269.7-269.6c1.8-1.9 2.8-4.3 2.8-6.9 0-2.6-1-5-2.8-6.8l-269.7-269.7c-1.8-1.8-4.2-2.8-6.8-2.8-2.6 0-5 1-6.8 2.8z"/><path class="b" d="m226 202.3l49.6-48.4c1.1-1.2 2.8-0.5 2.8 1.2v26.4 45 26.4c0 1.7-1.7 2.4-2.8 1.3l-49.6-48.4c-0.9-0.9-0.9-2.7 0-3.5z"/><path class="b" d="m297.1 163.7v11.4q-3.5-0.1-7.1 0-3 0-6 0v-21.1l10.2 5.1c1.8 0.8 2.9 2.6 2.9 4.6z"/><path class="b" d="m297.1 233.2v11.7c0 1.9-1.1 3.7-2.9 4.6l-10.2 5.1v-21.4q3 0 6 0 3.6 0 7.1 0z"/><path class="b" d="m290 178.9c14.1 0 30.9 1 44.3 2.3 1.5 0.1 2.7 1.4 2.7 3l-1.7 7.2c-2.2 9.7-2.2 19.8 0 29.6l1.7 7.4c0 1.7-1.5 3.1-3.3 3-13.1-1.2-29.8-2.1-43.7-2.1q-5.9 0-11.6 0.1-1 0-2 0.1v-50.3q1-0.1 2-0.1 5.8-0.2 11.6-0.2z"/><path class="b" d="m362.3 185.2c15.4 2.6 29.9 6.7 43.2 11.1 1.5 0.5 2.3 2 2 3.5l-1.7 8.1c-1.9 8.7-1.9 17.8-0.2 26.6l1.5 7.2c0.4 2.3-1.7 4.2-3.9 3.5-12.8-3.9-26.9-7.7-41.7-10.1-1.3-0.2-2.3-1.1-2.5-2.4l-2.1-10.4c-1.7-8.6-1.7-17.5 0.1-26.2l1.8-8.6c0.3-1.6 1.9-2.6 3.5-2.3z"/><path class="b" d="m461.7 236.5c0 4.8-6.2 14.1-21.5 23.9-6.3-3.4-8.7-4.8-15.6-7.5-0.9-0.3-1.6-1.2-1.8-2.2l-2.1-10.2c-1.7-8.9-1.7-18.1 0.3-27 0.5-2.4 1-4.7 1.4-6.5 0.4-1.9 2.4-3 4.2-2.2 28.4 12.9 35.1 25.5 35.1 31.7z"/><path class="b" d="m480.4 236.5v73.7c0 22.3-21.2 42.5-55.5 57.1v-73.6q8.2-3.5 15.3-7.4c7.4-4 13.9-8.3 19.4-12.9 13.3-11.1 20.8-23.6 20.8-36.9z"/><path class="b" d="m280.6 322.6v-37.1c0-2.4 2.8-4.2 4.8-3l88.1 68.4c2.3 1.8 2.3 5.2 0 7l-88.1 68.5c-2 1.1-4.8-0.7-4.8-3.1v-37.1z"/><path class="b" d="m297.3 282.1l19.6 3.7c2.3 0.4 4.4 1.4 6.2 2.8l80.8 62.3c2.3 1.8 2.3 5.3 0 7l-80.8 62.4c-1.8 1.4-3.9 2.3-6.2 2.7l-19.6 3.7 87.5-68.8c2.2-1.8 2.2-5.2 0-7z"/><path class="b" d="m283.7 317.4v73.7c-23.9-0.3-51.3-3.4-72.6-7.3-1.6-0.2-2.7-1.8-2.5-3.4l1.7-12c2-13.8 2.1-27.8 0.2-41.7l-1.7-12.9c-0.3-2 1.5-3.8 3.5-3.4 21.1 3.7 47.9 6.7 71.4 7z"/><path class="b" d="m203.4 188.1v50c-24.9 5.4-46.5 13.1-63.6 22.4q0 0 0 0c-15.3-9.9-21.5-19.2-21.5-24 0-6.5 11.7-21.8 43.1-35.1 12.6-5.3 26.7-9.8 42-13.3z"/><path class="b" d="m139.8 286.3c2.5 1.3 1.8 1.1 3.1 1.7 1 0.4 1.6 1.3 1.8 2.4l2.1 16.8c1.8 13.9 1.7 27.9-0.4 41.8l-1.3 9.3c-0.3 2-2.6 3.2-4.4 2.3-28.4-14-41.1-30.2-41.1-50.4v-73.7c0 13.3 7.5 25.8 20.8 36.9 5.5 4.6 12 8.9 19.4 12.9z"/><path class="b" d="m165.2 297.6c7.6 2.7 15.6 5.5 24.1 7.7 1.2 0.3 2.1 1.3 2.3 2.5l2 15.3c1.9 13.8 1.8 27.9-0.2 41.7l-1.6 11.3c-0.3 1.8-2.1 3-3.8 2.5-8.9-2.3-17.3-5.3-25.1-8.2-1.4-0.5-2.2-1.9-2-3.3l1.7-11.5c2-13.8 2.1-27.9 0.3-41.8l-1.7-13c-0.3-2.2 1.9-4 4-3.2z"/></g></svg>
