<svg class="svg_icon" version="1.2" xmlns="http://www.w3.org/2000/svg" viewBox="0 0 580 580">
<defs>
<clipPath clipPathUnits="userSpaceOnUse" id="cp1">
<path d="m-10-10h600v600h-600z"/>
</clipPath>
</defs>
<style>
.a{fill:#d28cbf}.b{fill:#fff}</style>
<g clip-path="url(#cp1)">
<path class="a" d="m290 574.3c-3.9 0-7.6-1.5-10.4-4.3l-269.6-269.6c-2.8-2.8-4.3-6.5-4.3-10.4 0-3.9 1.5-7.6 4.3-10.4l269.6-269.6c2.8-2.8 6.5-4.3 10.4-4.3 3.9 0 7.6 1.5 10.4 4.3l269.6 269.6c2.8 2.8 4.3 6.5 4.3 10.4 0 3.9-1.5 7.6-4.3 10.4l-269.6 269.6c-2.8 2.8-6.5 4.3-10.4 4.3z"/>
<path fill-rule="evenodd" class="b" d="m303.9 6.4l269.7 269.7c7.7 7.7 7.7 20.1 0 27.8l-269.7 269.7c-3.8 3.8-8.9 5.7-13.9 5.7-5 0-10.1-1.9-13.9-5.7l-269.7-269.7c-7.7-7.7-7.7-20.1 0-27.8l269.7-269.7c3.8-3.8 8.9-5.7 13.9-5.7 5 0 10.1 1.9 13.9 5.7zm-20.7 7.1l-269.7 269.7c-3.8 3.7-3.8 9.9 0 13.7l269.7 269.6c1.8 1.8 4.2 2.9 6.8 2.9 2.6 0 5-1.1 6.8-2.9l269.7-269.6c3.8-3.8 3.8-10 0-13.7l-269.7-269.7c-1.8-1.8-4.2-2.8-6.8-2.8-2.6 0-5 1-6.8 2.8z"/>
<path class="b" d="m292.7 509.9q-13.6-33.5-57.5-61.8c-43.8-28.1-131.1-130.3-98.4-230.1 23.4 29.4 53.9-4.6 60.7-32.6 6.9-28 12.5-59.9 40.5-71.5-2 20.5 25.2 22.8 36.1 15.9 13.5-8.4 26.2-31.2 15.2-65.1 59.5 34.5 31.7 86.7 58.1 96.3 21.9 8 22.5-21.2 21.8-27.3 46.6 27.7 68.4 82 64.4 150.1-4.3 72.4-35.6 115.9-87.3 158.2q-41.2 33.7-53.6 67.9z"/>
<path class="a" d="m388.6 255.7q-4.5 88.7-33.2 122.6-28.9 33.9-65.4 49-36.5-15.1-65.3-49-28.8-33.9-33.3-122.6 10.5-6.7 22.4-18.5 11.8-11.8 12.8-25 20.8 0.7 36.8-5.4 16-6 26.6-14.1 10.5 8.1 26.6 14.1 16 6.1 36.8 5.4 1 13.2 12.8 25 11.8 11.8 22.4 18.5z"/>
</g>
</svg>

