<svg class="svg_icon" version="1.2" xmlns="http://www.w3.org/2000/svg" viewBox="0 0 580 580">
<defs><clipPath clipPathUnits="userSpaceOnUse" id="cp1"><path d="m-10-10h600v600h-600z"/></clipPath></defs><style>.a{fill:#fa5d1f}.b{fill:#fff}</style><g clip-path="url(#cp1)"><path class="a" d="m290 574.3c-3.9 0-7.6-1.5-10.4-4.2l-269.7-269.7c-2.7-2.8-4.3-6.5-4.3-10.4 0-3.9 1.6-7.6 4.3-10.4l269.7-269.7c2.8-2.7 6.5-4.3 10.4-4.3 3.9 0 7.6 1.6 10.4 4.3l269.7 269.7c2.7 2.8 4.3 6.5 4.3 10.4 0 3.9-1.6 7.6-4.3 10.4l-269.7 269.7c-2.8 2.7-6.5 4.2-10.4 4.2z"/><path fill-rule="evenodd" class="b" d="m303.9 6.4l269.7 269.7c7.7 7.7 7.7 20.1 0 27.8l-269.7 269.7c-3.8 3.8-8.9 5.7-13.9 5.7-5 0-10.1-1.9-13.9-5.7l-269.7-269.7c-7.7-7.7-7.7-20.1 0-27.8l269.7-269.7c3.8-3.8 8.9-5.7 13.9-5.7 5 0 10.1 1.9 13.9 5.7zm-20.8 7.1l-269.6 269.6c-3.8 3.8-3.8 10 0 13.8l269.6 269.6c1.9 1.8 4.3 2.9 6.9 2.9 2.6 0 5-1.1 6.9-2.9l269.6-269.6c3.8-3.8 3.8-10 0-13.8l-269.6-269.6c-1.9-1.8-4.3-2.9-6.9-2.9-2.6 0-5 1.1-6.9 2.9z"/><path fill-rule="evenodd" class="b" d="m421 238.8c-7.8 2.5-13.3 5.4-14.5 14-1.5 10.7 7.1 16.7 4.3 33.4-3.2 18.1-22.7 15.4-20.4-4.2 1-8.3 8.4-27.1-3.6-31.9-5.2-2-18.7-2-19.4-2-53.2 1.1-69 50.8-66.4 75.3 1.2 11.9 8 22 10.8 25.9 16.1 22.3 24.2 33 24.2 51.7 0 26.1-21.1 47.3-47.3 47.3-26.1 0-47.2-21.2-47.2-47.3 0-18.7 8.1-29.4 24.2-51.7 2.6-3.6 13.4-18.6 8.2-42.7-3-14.1-21.4-28.9-50.1-28.9-5.8 0-14.9-0.1-22.7 0-9.5 0.2-11.5 14.4-9.1 25.3 4.9 21.9 11.8 51.6-7.7 56.1-13.2 3.1-19.3-11.6-15.4-28 3.1-13.3 11.6-24.1 8.9-46.1-0.9-7.1-6.4-10.8-13.2-12.1-25.6-4.9-53.8-23.2-58-31.3 123.2 29.9 225.8-65.7 353.4-25.4-5.3 7.5-17.9 15.7-39 22.6zm-106.5 136.5c2.2 37.3-14.7 45.3-21 48.7-1.1 0.5-1.1 2.1 0 2.6 13.3 7.3 43.8-14.1 21.7-51.5-0.2-0.4-0.7-0.2-0.7 0.2z"/></g></svg>
