<?xml version="1.0" standalone="no"?>
<!DOCTYPE svg PUBLIC "-//W3C//DTD SVG 1.1//EN" "http://www.w3.org/Graphics/SVG/1.1/DTD/svg11.dtd" >
<svg xmlns="http://www.w3.org/2000/svg" xmlns:xlink="http://www.w3.org/1999/xlink" version="1.1">
<metadata>
Created by FontForge 20170812 at Wed Jan 11 22:58:17 2012
 By www-data
Copyright (c) 2011 by John Vargas Beltran (john.vargasbeltran@gmail.com), with Reserved Font Name "Germania One"
</metadata>
<defs>
<font id="GermaniaOne-Regular" horiz-adv-x="464" >
  <font-face 
    font-family="Germania One"
    font-weight="400"
    font-stretch="normal"
    units-per-em="1000"
    panose-1="2 11 7 0 2 2 0 0 0 0"
    ascent="800"
    descent="-200"
    x-height="539"
    cap-height="700"
    bbox="-135 -250 822 911"
    underline-thickness="50"
    underline-position="-150"
    unicode-range="U+0020-FB05"
  />
<missing-glyph horiz-adv-x="250" 
 />
    <glyph glyph-name=".notdef" horiz-adv-x="250" 
 />
    <glyph glyph-name=".null" unicode="&#xe000;" horiz-adv-x="0" 
 />
    <glyph glyph-name="nonmarkingreturn" horiz-adv-x="333" 
 />
    <glyph glyph-name="space" unicode=" " horiz-adv-x="250" 
 />
    <glyph glyph-name="exclam" unicode="!" horiz-adv-x="297" 
d="M201 118.5q41 -34.5 41 -47t-41 -48t-52.5 -35.5t-52.5 35.5t-41 48t41.5 47t52.5 34.5t52 -34.5zM215 712q-8 -301 -8 -359.5t15 -96.5l-95 -67q-31 38 -37 163l-13 360h138z" />
    <glyph glyph-name="quotedbl" unicode="&#x22;" horiz-adv-x="468" 
d="M119 485q-10 0 -37 10t-27 15q0 21 22 111.5t28 90.5q17 0 72.5 -21.5t55.5 -29.5q-32 -65 -71.5 -120.5t-42.5 -55.5zM299 485q-10 0 -37 10t-27 15q0 21 22 111.5t28 90.5q17 0 72.5 -21.5t55.5 -29.5q-32 -65 -71.5 -120.5t-42.5 -55.5z" />
    <glyph glyph-name="numbersign" unicode="#" horiz-adv-x="616" 
d="M55 370v118h128l35 188q10 0 47.5 -14.5t52.5 -25.5l-28 -148h94l35 188q10 0 47.5 -14.5t52.5 -25.5l-28 -148h70v-118h-91l-15 -80h106v-118h-128l-34 -184q-13 0 -49 14t-51 26l26 144h-93l-34 -184q-13 0 -49 14t-51 26l26 144h-69v118h91l15 80h-106zM269 370
l-15 -80h93l15 80h-93z" />
    <glyph glyph-name="dollar" unicode="$" 
d="M239.5 203q8.5 0 26.5 13.5t18 21t-13 18.5t-63.5 34.5t-93.5 50.5t-56 53t-13 55t10 50t55.5 62t82.5 60v79h90v-82q89 -40 130 -110l-113 -78l-8 11q-44 56 -65 56q-11 0 -29 -13.5t-18 -22t12.5 -18.5t62 -35t94 -52.5t57.5 -50t13 -67t-14.5 -63.5t-51 -47t-70.5 -46
v-82h-90v83q-39 13 -80.5 43.5t-61.5 65.5l113 78l8 -11q30 -38 44.5 -47t23 -9z" />
    <glyph glyph-name="percent" unicode="%" horiz-adv-x="744" 
d="M236.5 361q-41.5 -29 -63 -29t-61.5 29t-48.5 43t-8.5 69v61q0 53 7.5 68.5t48.5 44.5t62 29t62 -29t48 -43.5t7 -69.5v-61q0 -53 -5 -65q-7 -18 -48.5 -47zM173 414q7 0 13.5 13.5t6.5 45.5v61q0 29 -3 37.5t-8 15t-9 6.5t-9.5 -6.5t-8.5 -15t-3 -37.5v-61
q0 -32 7 -45.5t14 -13.5zM635.5 17q-41.5 -29 -63 -29t-61.5 29t-48.5 43t-8.5 69v61q0 53 7.5 68.5t48.5 44.5t62 29t62 -29t48 -43.5t7 -69.5v-61q0 -53 -5 -65q-7 -18 -48.5 -47zM585 83.5q7 13.5 7 45.5v61q0 29 -3 37.5t-8 15t-9 6.5t-9.5 -6.5t-8.5 -15t-3 -37.5v-61
q0 -32 6.5 -45.5t13.5 -13.5t14 13.5zM608 616l-380 -628q-12 0 -44 21t-46 39l380 628q12 0 44 -21t46 -39z" />
    <glyph glyph-name="ampersand" unicode="&#x26;" horiz-adv-x="745" 
d="M304 415v-111h-49q-13 -4 -31 -18t-24.5 -25t-6.5 -41.5t9.5 -42.5t35.5 -29t44.5 -17t46 17t34.5 32q10 24 10 92.5t-6 94t-24 61.5l112 78q30 -28 45 -91h139v-111h-128v-95q0 -23 8 -41q15 -37 29 -37t43 31l99 -69q-37 -41 -78 -73t-64 -32q-37 0 -118 87
q-99 -87 -148 -87q-39 0 -115.5 61.5t-100.5 100.5q-11 17 -11 71.5t11 70.5q22 33 88 87q-44 44 -56.5 65.5t-12.5 76t14 74t84 68.5t96.5 49t77 -37.5t79.5 -68.5l-96 -69q-8 12 -27.5 27t-31 15t-28.5 -13.5t-23 -25.5t-6 -34t6.5 -37t27 -34.5t34.5 -19.5h12z" />
    <glyph glyph-name="quotesingle" unicode="'" horiz-adv-x="288" 
d="M119 485q-10 0 -37 10t-27 15q0 21 22 111.5t28 90.5q17 0 72.5 -21.5t55.5 -29.5q-32 -65 -71.5 -120.5t-42.5 -55.5z" />
    <glyph glyph-name="parenleft" unicode="(" horiz-adv-x="370" 
d="M51 42.5q-6 77.5 -6 230t13.5 243t47 141.5t105.5 93l104 -73q-79 -60 -99.5 -138.5t-20.5 -289t20.5 -288.5t99.5 -138l-104 -73q-54 31 -84.5 64.5t-50 92t-25.5 136z" />
    <glyph glyph-name="parenright" unicode=")" horiz-adv-x="370" 
d="M319 457.5q6 -77.5 6 -230t-13.5 -243t-47 -141.5t-105.5 -93l-104 73q79 60 99.5 138.5t20.5 289t-20.5 288.5t-99.5 138l104 73q54 -31 84.5 -64.5t50 -92t25.5 -136z" />
    <glyph glyph-name="asterisk" unicode="*" horiz-adv-x="486" 
d="M189 541l-39 -5q-55 0 -100 14q0 30 11.5 66.5t30.5 63.5q52 -18 117 -75q-34 88 -34 135q30 10 68 10t68 -10q0 -50 -34 -135q66 58 118 74q12 -17 26 -54.5t17 -75.5q-46 -13 -98 -13q-5 0 -22 2.5t-21 2.5q76 -46 107 -88q-15 -23 -45.5 -46.5t-64.5 -34.5
q-28 40 -51 130q-23 -90 -51 -129q-25 7 -58.5 30t-52.5 50q34 46 108 88z" />
    <glyph glyph-name="plus" unicode="+" horiz-adv-x="494" 
d="M55 241v118h127v123h130v-123h127v-118h-127v-123h-130v123h-127z" />
    <glyph glyph-name="comma" unicode="," horiz-adv-x="288" 
d="M234 66q0 -25 -78.5 -104.5t-86.5 -79.5q-3 0 -13.5 10t-10.5 15q0 16 56 108q-45 37 -45 50t39.5 46.5t50 33.5t49.5 -33.5t39 -45.5z" />
    <glyph glyph-name="hyphen" unicode="-" horiz-adv-x="383" 
d="M55 260v80h273v-80h-273z" />
    <glyph glyph-name="period" unicode="." horiz-adv-x="288" 
d="M194 112q39 -33 39 -44.5t-39 -45.5t-50 -34t-50 34t-39 45.5t39.5 44.5t50 33t49.5 -33z" />
    <glyph glyph-name="slash" unicode="/" horiz-adv-x="620" 
d="M565 690l-400 -940q-13 0 -55 21.5t-55 38.5l400 940q13 0 55 -21.5t55 -38.5z" />
    <glyph glyph-name="zero" unicode="0" 
d="M232 -12q-34 0 -101 58t-83 94q-11 21 -11 131v122q0 105 13.5 136t80.5 89t101 58t100 -58t84 -94q11 -23 11 -131v-122q0 -105 -13.5 -136t-80.5 -89t-101 -58zM232 118q12 0 29.5 15t24.5 27.5t7 110.5v122q0 83 -5.5 103t-24 35t-31 15t-31 -15t-24.5 -30.5
t-6 -107.5v-122q0 -97 7 -110t24.5 -28t29.5 -15z" />
    <glyph glyph-name="one" unicode="1" horiz-adv-x="481" 
d="M88 110h135v431q-55 -52 -82 -104l-104 60q30 51 97 115t81.5 64t72.5 -34.5t63 -45.5v-486h93v-110h-356v110z" />
    <glyph glyph-name="two" unicode="2" 
d="M232 676q33 0 96.5 -56.5t87.5 -94.5q11 -18 11 -81.5t-13 -84t-110 -81t-121 -91.5q-8 -11 -8 -41v-36h248v-110h-386v136q0 59 14 87t61 66.5t103 75t67 45.5t11 33t-6.5 44.5t-24.5 40t-32.5 19.5t-46.5 -37.5t-42 -83.5l-108 64q14 64 79.5 125t119.5 61z" />
    <glyph glyph-name="three" unicode="3" 
d="M188.5 150q35.5 -42 55 -42t41.5 41q8 16 8 56t-13 57q-47 53 -102 62v67q55 20 90 47q15 11 15 54q0 19 -20 36.5t-33 17.5t-41.5 -37t-37.5 -82l-108 62q14 64 76 125.5t113 61.5q33 0 101 -52.5t77 -79.5q7 -19 7 -75.5t-11 -70.5q-19 -23 -49 -39q47 -37 58.5 -55.5
t11.5 -90t-13 -97t-81.5 -77t-100.5 -51.5q-54 0 -119.5 59t-79.5 122l110 75q10 -52 45.5 -94z" />
    <glyph glyph-name="four" unicode="4" horiz-adv-x="483" 
d="M406 0h-128v142h-127l-114 66q21 89 63.5 202.5t79.5 189.5t48 76q16 0 93 -45.5t85 -60.5v-318h40v-110h-40v-142zM278 252v284q-47 -109 -99 -284h99z" />
    <glyph glyph-name="five" unicode="5" 
d="M413 664v-110h-217l-5 -98q126 -45 220 -134q16 -15 16 -95.5t-17.5 -108.5t-82 -79t-95.5 -51q-54 0 -119.5 58.5t-79.5 121.5l115 80q10 -52 43.5 -96t50.5 -44q21 0 43 41q8 16 8 58.5t-12 54.5q-32 32 -95.5 64.5t-131.5 48.5l18 289h341z" />
    <glyph glyph-name="six" unicode="6" 
d="M348 444.5q54 -45.5 66.5 -69t12.5 -117.5t-13.5 -124t-80.5 -88t-101 -58t-101 58t-83 94q-11 22 -11 116t12 150.5t46 103.5t78 81.5t125 84.5l105 -74q-93 -34 -155 -90q46 -22 100 -67.5zM261.5 135q17.5 17 24.5 32.5t7 84.5t-22.5 98.5t-88.5 52.5l-5 -20
q-6 -38 -6 -121t8 -97.5t24.5 -30.5t28.5 -16t29.5 17z" />
    <glyph glyph-name="seven" unicode="7" 
d="M37 559v105h371q19 -67 19 -105l-250 -571q-13 0 -52.5 18t-55.5 32l227 521h-259z" />
    <glyph glyph-name="eight" unicode="8" 
d="M232 -12q-32 0 -96 49.5t-88 82.5q-11 20 -11 91.5t11 90.5q17 24 59 47q-32 18 -49 39q-11 17 -11 78.5t6 77.5q13 31 78.5 81.5t99 50.5t101 -52.5t79.5 -79.5q6 -15 6 -77t-11 -79q-17 -21 -49 -39q42 -23 59 -47q11 -19 11 -90.5t-11 -91.5q-24 -33 -88 -82.5
t-96 -49.5zM232 98q14 0 34.5 20t22.5 32q4 32 4 60.5t-4 51.5q-2 11 -22.5 29t-34.5 18t-34.5 -18t-22.5 -29q-4 -23 -4 -51.5t4 -60.5q2 -12 22.5 -32t34.5 -20zM232 391q12 0 29 17.5t19 33.5q3 39 3 43.5t-3 34.5q-2 15 -19 30.5t-29 15.5t-29 -15.5t-19 -30.5
q-3 -30 -3 -34.5t3 -43.5q2 -16 19 -33.5t29 -17.5z" />
    <glyph glyph-name="nine" unicode="9" 
d="M132.5 237.5q-58.5 50.5 -77 82t-18.5 100.5t16 105q15 36 80.5 93.5t99 57.5t100.5 -57.5t83 -93.5q11 -22 11 -108.5t-10 -138t-27 -89t-52.5 -73t-71.5 -62t-99 -66.5l-106 73q110 42 173 121q-43 5 -101.5 55.5zM203.5 528.5q-16.5 -17.5 -24.5 -32.5t-8 -74t24 -90
t90 -44q8 16 8 106.5t-8 100.5q-10 17 -26 34t-27.5 17t-28 -17.5z" />
    <glyph glyph-name="colon" unicode=":" horiz-adv-x="283" 
d="M205 423q39 -33 39 -44.5t-39 -45.5t-50 -34t-50 34t-39 45.5t39.5 44.5t50 33t49.5 -33zM194 112q39 -33 39 -44.5t-39 -45.5t-50 -34t-50 34t-39 45.5t39.5 44.5t50 33t49.5 -33z" />
    <glyph glyph-name="semicolon" unicode=";" horiz-adv-x="283" 
d="M245 66q0 -25 -78.5 -104.5t-86.5 -79.5q-3 0 -13.5 10t-10.5 15q0 16 56 108q-45 37 -45 50t39.5 46.5t50 33.5t49.5 -33.5t39 -45.5zM205 423q39 -33 39 -44.5t-39 -45.5t-50 -34t-50 34t-39 45.5t39.5 44.5t50 33t49.5 -33z" />
    <glyph glyph-name="less" unicode="&#x3c;" horiz-adv-x="490" 
d="M435 130q0 -12 -40.5 -48t-56.5 -36t-149.5 115.5t-133.5 138.5t133.5 138.5t150 115.5t56.5 -35.5t40 -48.5q0 -4 -37 -33q-131 -101 -163 -137q32 -36 116 -101t84 -69z" />
    <glyph glyph-name="equal" unicode="=" horiz-adv-x="494" 
d="M55 340v118h384v-118h-384zM55 142v118h384v-118h-384z" />
    <glyph glyph-name="greater" unicode="&#x3e;" horiz-adv-x="490" 
d="M55 470q0 13 40 48.5t56.5 35.5t150 -115.5t133.5 -138.5t-133.5 -138.5t-149.5 -115.5t-56.5 36t-40.5 48q0 4 37 33q131 101 163 137q-32 36 -116 101t-84 69z" />
    <glyph glyph-name="question" unicode="?" horiz-adv-x="515" 
d="M298 118.5q41 -34.5 41 -47t-41 -48t-52.5 -35.5t-52.5 35.5t-41 48t41.5 47t52.5 34.5t52 -34.5zM255 712q35 0 103 -56t91 -93q11 -18 11 -84t-11 -87t-64 -70.5t-63 -63t-10 -34.5v-35h-132v45q0 44 12 62.5t37.5 45t53 53.5t35.5 36.5t8 55.5q0 27 -30.5 58.5
t-45.5 31.5t-42 -41t-37 -95l-115 79q14 64 79.5 128t119.5 64z" />
    <glyph glyph-name="at" unicode="@" horiz-adv-x="644" 
d="M247 534.5q46 31.5 73 31.5t78.5 -42.5t60.5 -61.5t9 -89.5t4 -88.5q4 -35 33 -62q14 26 14 109v38q0 107 -18 141.5t-78 80.5t-100 46t-103.5 -47t-76.5 -80q-18 -50 -18 -141v-38q0 -87 18 -141q11 -33 75 -80t98 -47t71 21l59 -43q-81 -53 -126.5 -53t-136.5 65.5
t-107 106.5q-21 55 -21 171v38q0 122 19 167t110 110.5t138.5 65.5t138.5 -65.5t107 -106.5q21 -55 21 -171v-38q0 -98 -11 -131q-5 -14 -33.5 -42.5t-40 -28.5t-51 26.5t-50.5 40.5q-74 -65 -103 -65q-14 0 -65.5 53.5t-58.5 74t-7 102.5t13 105q19 37 65 68.5zM365 278
l-1 126q0 21 -17.5 41.5t-25.5 20.5t-21.5 -11t-20 -21t-6.5 -81t12 -91q5 -8 16 -17.5t17.5 -9.5t21.5 9.5t19 16.5z" />
    <glyph glyph-name="A" unicode="A" horiz-adv-x="514" 
d="M257 712q37 0 108 -65t88 -107q11 -29 11 -131v-409h-138v150h-138v-150h-138v409q0 102 11 131q17 42 88 107t108 65zM188 409v-139h138v139q0 82 -8 100.5t-27.5 39t-33.5 20.5t-33.5 -20.5t-27.5 -39t-8 -100.5z" />
    <glyph glyph-name="B" unicode="B" horiz-adv-x="534" 
d="M180 657q68 55 95.5 55t88 -52.5t75.5 -74t15 -70.5t-15 -73.5t-55 -62.5q63 -52 89 -87q11 -18 11 -67.5t-11 -64.5q-18 -39 -87 -99.5t-109 -60.5h-207v428q0 81 -11.5 114t-48.5 78l132 92q24 -20 38 -55zM208 304v-183h69q13 0 32 20.5t27.5 36t8.5 63.5q0 33 -50 63
h-87zM208 486v-71h51q11 0 27.5 19.5t22.5 34.5t6 36t-20 47.5t-37 26.5t-53 -13q3 -39 3 -80z" />
    <glyph glyph-name="C" unicode="C" horiz-adv-x="479" 
d="M25 303v94q0 125 20 160t85.5 95t97.5 60q55 0 126 -63.5t90 -139.5l-111 -77q-16 54 -51 99.5t-49 45.5q-25 0 -57 -49q-13 -19 -13 -131v-94q0 -115 13 -131q32 -49 57 -49q14 0 49 39.5t51 87.5l111 -78q-19 -69 -90 -126.5t-126 -57.5q-32 0 -97.5 60t-85.5 95
t-20 160z" />
    <glyph glyph-name="D" unicode="D" horiz-adv-x="534" 
d="M179 660q66 52 100 52t105.5 -65.5t88.5 -106.5q11 -26 11 -131v-118q0 -105 -11 -131q-18 -39 -87 -99.5t-109 -60.5h-207v428q0 81 -11.5 114t-48.5 78l132 92q21 -16 37 -52zM277 569q-29 0 -72 -19q3 -21 3 -64v-365h69q14 0 33.5 20.5t27.5 39t8 100.5v128
q0 82 -8 100.5t-27.5 39t-33.5 20.5z" />
    <glyph glyph-name="E" unicode="E" horiz-adv-x="452" 
d="M188 426h179v-121h-179v-184h239v-121h-377v616l138 96h223v-122h-186l-37 -26v-138z" />
    <glyph glyph-name="F" unicode="F" horiz-adv-x="477" 
d="M70 0v399q0 123 20 158t85.5 95t97.5 60q44 0 109 -35t97 -79l-111 -77q-56 56 -90 56q-13 0 -30 -16.5t-28.5 -35t-11.5 -93.5v-23h179v-121h-179v-288h-138z" />
    <glyph glyph-name="G" unicode="G" horiz-adv-x="480" 
d="M163 397v-106q0 -82 8 -100.5t27.5 -39t34.5 -20.5t38 21t32 38q6 17 7 50h-69v111h199v-351h-97l-12 68q-69 -80 -102 -80t-104.5 65.5t-88.5 106.5q-11 26 -11 131v106q0 125 20 160t85.5 95t97.5 60q55 0 126 -64t90 -140l-111 -77q-16 54 -51 100t-49 46
q-25 0 -57 -49q-13 -19 -13 -131z" />
    <glyph glyph-name="H" unicode="H" horiz-adv-x="534" 
d="M346 0v320h-138v-320h-138v428q0 85 -11.5 118.5t-48.5 81.5l120 84q32 -21 55 -77.5t23 -136.5v-58h138v260h138v-700h-138z" />
    <glyph glyph-name="I" unicode="I" horiz-adv-x="250" 
d="M56 0v700h138v-700h-138z" />
    <glyph glyph-name="J" unicode="J" horiz-adv-x="449" 
d="M261 700h138v-397q0 -125 -20 -160t-85.5 -95t-102 -60t-94.5 43t-87 101l111 78q1 -1 8.5 -11.5t13.5 -18t15 -16.5q19 -21 32.5 -21t30.5 16.5t28.5 34.5t11.5 109v397z" />
    <glyph glyph-name="K" unicode="K" horiz-adv-x="534" 
d="M208 498v-58h30q17 0 35.5 18.5t28 35t19.5 95t10 111.5h138q0 -39 -11 -122t-20 -102q-15 -33 -76 -89q71 -61 92 -103q10 -21 20.5 -126.5t10.5 -157.5h-138q0 47 -9.5 147.5t-18.5 116.5q-31 56 -73 56h-38v-320h-138v438q0 81 -11.5 112.5t-48.5 77.5l120 84
q32 -21 55 -77.5t23 -136.5z" />
    <glyph glyph-name="L" unicode="L" horiz-adv-x="390" 
d="M380 120v-120h-365v700h138v-580h227z" />
    <glyph glyph-name="M" unicode="M" horiz-adv-x="734" 
d="M310 0v509q0 17 -6.5 28.5t-21.5 26.5t-24 15q-20 0 -53 -40q3 -25 3 -53v-486h-138v428q0 85 -11.5 119t-48.5 81l120 84q32 -23 46 -55q72 55 102 55t113 -77q83 77 117 77q25 0 85.5 -52.5t75.5 -74t15 -56.5v-529h-138v509q0 19 -7 29.5t-23.5 25.5t-29 15t-39.5 -33
q1 -5 1 -17v-529h-138z" />
    <glyph glyph-name="N" unicode="N" horiz-adv-x="520" 
d="M207 529l1 -43v-486h-138v428q0 84 -11.5 118t-48.5 82l120 84q29 -19 54 -65q79 65 107 65t88.5 -52.5t75.5 -74t15 -56.5v-529h-139v509q0 9 -7.5 22.5t-23 30.5t-29 17t-33.5 -15.5t-31 -34.5z" />
    <glyph glyph-name="O" unicode="O" 
d="M232 -12q-36 0 -107.5 65.5t-88.5 106.5q-11 26 -11 131v118q0 105 11 131q17 41 88.5 106.5t107.5 65.5t107.5 -65.5t88.5 -106.5q11 -26 11 -131v-118q0 -105 -11 -131q-17 -41 -88.5 -106.5t-107.5 -65.5zM232 131q14 0 33.5 20.5t27.5 39t8 100.5v118q0 82 -8 100.5
t-27.5 39t-33.5 20.5t-33.5 -20.5t-27.5 -39t-8 -100.5v-118q0 -82 8 -100.5t27.5 -39t33.5 -20.5z" />
    <glyph glyph-name="P" unicode="P" horiz-adv-x="510" 
d="M253 339h20q19 0 44.5 18.5t32.5 40.5t7 59t-7 61.5t-32.5 42.5t-49 18t-63.5 -26q3 -33 3 -67v-486h-138v428q0 84 -11.5 118.5t-48.5 80.5l120 85q26 -18 46 -59q82 59 117 59t97 -56t84 -94q11 -14 11 -97t-11 -105q-22 -38 -84 -94t-97 -56h-40v129z" />
    <glyph glyph-name="Q" unicode="Q" 
d="M25 261v148q0 105 11 131q17 41 88.5 106.5t107.5 65.5t107.5 -65.5t88.5 -106.5q11 -26 11 -131v-118q0 -105 -9.5 -128t-48 -62.5t-80.5 -59.5q45 -33 57 -33q24 0 49 28l93 -65q-38 -40 -78.5 -70t-63.5 -30q-36 0 -108 47.5t-142 118.5q24 17 58 40.5t48.5 34
t32.5 25.5q30 25 46 53q8 16 8 101v118q0 82 -8 100.5t-27.5 39t-33.5 20.5t-33.5 -20.5t-27.5 -39t-8 -100.5v-148q0 -75 6 -103l-104 -72q-20 26 -30 48t-10 127z" />
    <glyph glyph-name="R" unicode="R" horiz-adv-x="534" 
d="M180 657q80 55 109 55t89.5 -52.5t75.5 -74t15 -56.5q0 -68 -11 -81q-21 -32 -65 -75q61 -58 76 -89q8 -21 17 -127.5t9 -156.5h-150q0 45 -8 141t-17.5 116t-22.5 35h-89v-292h-138v438q0 81 -11.5 112.5t-48.5 77.5l120 84q32 -21 50 -55zM208 486v-77h39q14 0 36 22
t28.5 37.5t6.5 32.5t-6.5 30.5t-18.5 30.5t-20 17q-27 0 -68 -13q3 -39 3 -80z" />
    <glyph glyph-name="S" unicode="S" 
d="M428 282q11 -18 11 -71.5t-22 -90.5q-20 -29 -85 -80.5t-96 -51.5q-55 0 -126 57.5t-90 126.5l111 76q16 -47 51 -86t49.5 -39t31 9.5t25.5 19.5q13 16 13 50t-16 42q-20 17 -77.5 45t-106.5 60.5t-62.5 63.5t-13.5 80.5t22 86.5q20 29 85 80.5t96 51.5q55 0 126 -57.5
t90 -126.5l-111 -77q-16 47 -51 86.5t-49.5 39.5t-31.5 -9t-27.5 -22.5t-10.5 -46t20 -43.5q16 -14 73 -44q146 -80 172 -130z" />
    <glyph glyph-name="T" unicode="T" horiz-adv-x="422" 
d="M410 700v-120h-130v-580h-138v580h-130v120h398z" />
    <glyph glyph-name="U" unicode="U" horiz-adv-x="534" 
d="M484 700v-409q0 -105 -11 -131q-17 -41 -88.5 -106.5t-107.5 -65.5t-107.5 65.5t-88.5 106.5q-11 26 -11 131v145q0 81 -11.5 114t-48.5 78l120 84q32 -21 55 -81.5t23 -144.5v-195q0 -82 8 -100.5t27.5 -39t33.5 -20.5t33.5 20.5t27.5 39t8 100.5v409h138z" />
    <glyph glyph-name="V" unicode="V" horiz-adv-x="494" 
d="M45 700h138v-389q0 -56 6.5 -84.5t29.5 -62t33 -33.5t33 33.5t29.5 62t6.5 84.5v117q0 84 -11.5 117t-48.5 81l120 86q32 -21 55 -81.5t23 -144.5v-165q0 -78 -15 -128t-85.5 -127.5t-106.5 -77.5t-106.5 77.5t-85.5 127.5t-15 128v379z" />
    <glyph glyph-name="W" unicode="W" horiz-adv-x="738" 
d="M443 700v-379q0 -56 6.5 -85.5t26.5 -67t27.5 -37.5t27.5 37.5t27 67t7 85.5v107q0 84 -11.5 117.5t-48.5 82.5l120 84q32 -22 55 -82t23 -144v-165q0 -78 -15 -128.5t-82.5 -127.5t-101.5 -77q-21 0 -58.5 38t-71.5 89q-36 -52 -72.5 -89.5t-57.5 -37.5q-34 0 -101.5 77
t-82.5 127.5t-15 128.5v379h138v-379q0 -65 7 -90t27 -62.5t27.5 -37.5t27.5 37.5t26.5 67t6.5 85.5v379h138z" />
    <glyph glyph-name="X" unicode="X" horiz-adv-x="508" 
d="M334 700h138q0 -35 -7.5 -111t-13.5 -93q-11 -34 -86 -109q37 -35 66 -73t35.5 -58.5t14 -116t7.5 -139.5h-138q0 36 -7 127.5t-11 106.5q-9 24 -37 55t-41 31t-41 -31t-35 -50.5t-13.5 -110t-6.5 -128.5h-138q0 44 7.5 139.5t14 116t35.5 58.5t66 73q-37 20 -58.5 56.5
t-26.5 69.5q-15 89 -55 115l120 84q30 -17 47 -55.5t21.5 -77t20 -79t42.5 -60.5q17 3 35.5 28.5t24.5 43.5t13 89.5t7 98.5z" />
    <glyph glyph-name="Y" unicode="Y" horiz-adv-x="484" 
d="M173 0v280q-39 32 -75.5 76.5t-49.5 70t-13 104.5v169h138v-169q0 -51 8.5 -71.5t30 -49.5t30.5 -29t31 29.5t30 48.5t8 72v169h138v-169q0 -80 -13 -105t-50 -69.5t-75 -76.5v-280h-138z" />
    <glyph glyph-name="Z" unicode="Z" horiz-adv-x="448" 
d="M423 0h-398v100l246 480h-234v120h386v-100l-247 -480h247v-120z" />
    <glyph glyph-name="bracketleft" unicode="[" horiz-adv-x="393" 
d="M171 750q127 0 167 -26l-43 -94q-30 10 -100 10v-780q70 0 100 10l43 -94q-40 -26 -167 -26q-11 0 -61.5 29t-54.5 38v866q4 9 54.5 38t61.5 29z" />
    <glyph glyph-name="backslash" unicode="\" horiz-adv-x="620" 
d="M455 -250l-400 940q13 17 55 38.5t55 21.5l400 -940q-13 -17 -55 -38.5t-55 -21.5z" />
    <glyph glyph-name="bracketright" unicode="]" horiz-adv-x="393" 
d="M222 -250q-127 0 -167 26l43 94q30 -10 100 -10v780q-70 0 -100 -10l-43 94q40 26 167 26q11 0 61.5 -29t54.5 -38v-866q-4 -9 -54.5 -38t-61.5 -29z" />
    <glyph glyph-name="asciicircum" unicode="^" horiz-adv-x="618" 
d="M139 165q-12 0 -48 27.5t-36 37.5q0 16 115.5 140.5t138.5 124.5t138.5 -124.5t115.5 -140.5q0 -10 -35.5 -37.5t-48.5 -27.5q-5 0 -35 29.5t-72 71t-63 59.5q-21 -18 -63 -59.5t-72 -71t-35 -29.5z" />
    <glyph glyph-name="underscore" unicode="_" horiz-adv-x="483" 
d="M55 -250v80h373v-80h-373z" />
    <glyph glyph-name="grave" unicode="`" horiz-adv-x="298" 
d="M55 685q0 10 32.5 37.5t42 27.5t61.5 -64t52 -70.5t-15 -21t-22 -14.5t-79 45.5t-72 59.5z" />
    <glyph glyph-name="a" unicode="a" horiz-adv-x="472" 
d="M410 539v-410q6 -35 47 -62l-90 -77q-13 9 -32 32t-32 47q-83 -81 -116 -81q-24 0 -77.5 53t-66.5 86t-13 142.5t13 142.5t66.5 86t77.5 53q35 0 113 -72l12 60h98zM242.5 412.5q-21.5 13.5 -32.5 13.5t-23.5 -13t-16.5 -24q-13 -18 -13 -119.5t13 -119.5
q4 -10 16.5 -23.5t23.5 -13.5t32.5 13.5t28 24.5t7.5 117q0 106 -7 118.5t-28.5 26z" />
    <glyph glyph-name="b" unicode="b" horiz-adv-x="468" 
d="M65 0v546q0 51 -12 78t-38 49l110 77q72 -57 72 -161v-91q60 53 86.5 53t81 -53.5t62.5 -78.5q11 -25 11 -149.5t-11 -149.5q-8 -25 -62.5 -78.5t-78.5 -53.5q-35 0 -112 73l-11 -61h-98zM230.5 126.5q21.5 -13.5 32.5 -13.5t23.5 13t18.5 27t6 116.5t-6 116t-18.5 27
t-23 13.5t-32 -13.5t-28.5 -23.5q-8 -17 -8 -120.5t7 -116t28.5 -26z" />
    <glyph glyph-name="c" unicode="c" horiz-adv-x="399" 
d="M51 110q-21 33 -21 159t21 160q15 25 74 73.5t91.5 48.5t88 -38.5t83.5 -87.5l-103 -71q-13 24 -35.5 53t-33.5 29q-20 0 -46 -42q-13 -26 -13 -124.5t13 -124.5q8 -13 21 -27.5t26 -14.5t34 23t34 59l103 -72q-27 -50 -82.5 -87.5t-88.5 -37.5t-92 48.5t-74 73.5z" />
    <glyph glyph-name="d" unicode="d" horiz-adv-x="435" 
d="M103.5 497.5q54.5 53.5 80.5 53.5t89 -54v49q0 51 -12 78t-38 49l110 77q72 -57 72 -161v-589h-102l-12 59q-73 -71 -109 -71q-24 0 -78.5 53.5t-62.5 78.5q-11 25 -11 149.5t11 149.5q8 25 62.5 78.5zM237.5 412.5q-21.5 13.5 -32.5 13.5t-23.5 -13t-18.5 -27t-6 -116.5
t6 -116t18.5 -27t23 -13.5t32 13.5t28.5 23.5q6 14 8 81v37q0 106 -7 118.5t-28.5 26z" />
    <glyph glyph-name="e" unicode="e" horiz-adv-x="444" 
d="M404 271v-36h-242q0 -60 15 -95q5 -12 18 -24.5t27 -12.5t35 24t33 58l103 -73q-27 -50 -82.5 -87t-89.5 -37t-98.5 53t-78.5 82.5t-14 146t14 146t78.5 82.5t94.5 53t94.5 -53t78.5 -82.5t14 -144.5zM242.5 423q-15.5 13 -29 13t-30.5 -26.5t-21 -79.5h114
q-3 53 -10.5 66.5t-23 26.5z" />
    <glyph glyph-name="f" unicode="f" horiz-adv-x="348" 
d="M15 395v75l50 12q0 112 11 137t76 78t95.5 53t76.5 -28.5t69 -65.5l-98 -66q-28 45 -48 45q-10 0 -23 -13t-20 -27t-7 -95h142v-105h-142v-395h-132v395h-50z" />
    <glyph glyph-name="g" unicode="g" horiz-adv-x="438" 
d="M237 413q-21 13 -32 13t-23.5 -13t-16.5 -24q-8 -16 -8 -100t8 -99q4 -10 16.5 -23.5t23.5 -13.5t32.5 13.5t28.5 25t7 98t-7.5 98.5t-28.5 25zM403 539v-506q0 -128 -11.5 -152.5t-80.5 -77.5t-103.5 -53t-86.5 34.5t-78 79.5l103 71l10 -13q37 -47 51.5 -47t33 13
t25 27.5t6.5 122.5l3 39q-68 -49 -92.5 -49t-77.5 53t-64 79t-11 129t11 129.5t64 79.5t81 53t107 -64l12 52h98z" />
    <glyph glyph-name="h" unicode="h" horiz-adv-x="503" 
d="M197 0h-132v546q0 51 -12 78t-38 49l110 77q72 -57 72 -161v-93q62 55 90 55t89.5 -55.5t61.5 -109.5v-193q0 -51 12 -79t38 -49l-110 -77q-72 57 -72 162v222q0 17 -18 35.5t-33.5 18.5t-57.5 -42v-384z" />
    <glyph glyph-name="i" unicode="i" horiz-adv-x="222" 
d="M40 539h132v-346q0 -51 12 -79t38 -49l-110 -77q-72 57 -72 162v389zM157 715.5q38 -32.5 38 -44t-38.5 -44.5t-49 -33t-48.5 32.5t-38 44t38.5 44.5t49 33t48.5 -32.5z" />
    <glyph glyph-name="j" unicode="j" horiz-adv-x="268" 
d="M218 388l-1 -355q0 -126 -15 -151q-11 -26 -76 -79t-98 -53t-85 34.5t-78 79.5l103 71l10 -13q37 -47 50.5 -47t29 13t22 26t6.5 94v337q0 51 -12 79t-38 49l110 77q72 -57 72 -162zM179 715.5q38 -32.5 38 -44t-38.5 -44.5t-49 -33t-48.5 32.5t-38 44t38.5 44.5t49 33
t48.5 -32.5z" />
    <glyph glyph-name="k" unicode="k" horiz-adv-x="503" 
d="M197 0h-132v546q0 51 -12 78t-38 49l110 77q72 -57 72 -161v-114q78 76 104 76t92 -57t68 -89q0 -23 -31.5 -78t-60.5 -84q73 -90 93 -167l-126 -88q-23 81 -48 134.5t-70 100.5v35q31 22 66 64.5t40 65.5q-28 38 -48 38q-11 0 -36.5 -21.5t-42.5 -40.5v-364z" />
    <glyph glyph-name="l" unicode="l" horiz-adv-x="232" 
d="M35 750h132v-557q0 -51 12 -79t38 -49l-110 -77q-72 57 -72 162v600z" />
    <glyph glyph-name="m" unicode="m" horiz-adv-x="703" 
d="M418 0h-132v372q0 17 -18 35.5t-30.5 18.5t-40.5 -24v-402h-132v345q0 51 -12 79t-38 49l110 77q33 -28 49 -57q65 58 90 58q15 0 49 -22t62 -53q79 75 109.5 75t92 -55.5t61.5 -109.5v-193q0 -51 12 -79t38 -49l-110 -77q-72 57 -72 162v222q0 17 -18 35.5t-29.5 18.5
t-42.5 -25q2 -10 2 -15v-386z" />
    <glyph glyph-name="n" unicode="n" horiz-adv-x="503" 
d="M197 0h-132v345q0 51 -12 79t-38 49l110 77q37 -30 55 -69q74 70 104.5 70t92 -55.5t61.5 -109.5v-193q0 -51 12 -79t38 -49l-110 -77q-72 57 -72 162v222q0 17 -18 35.5t-33.5 18.5t-57.5 -42v-384z" />
    <glyph glyph-name="o" unicode="o" horiz-adv-x="434" 
d="M217 103q9 0 24.5 15t22.5 27q13 22 13 124t-13 125q-7 12 -22.5 27t-24.5 15t-24.5 -15t-22.5 -27q-13 -22 -13 -124t13 -125q7 -12 22.5 -27t24.5 -15zM217 -12q-29 0 -90.5 49t-75.5 73q-21 37 -21 160t21 159q14 24 75.5 73t90.5 49t90.5 -49t75.5 -73
q21 -36 21 -159t-21 -160q-14 -24 -75.5 -73t-90.5 -49z" />
    <glyph glyph-name="p" unicode="p" horiz-adv-x="475" 
d="M232.5 126.5q21.5 -13.5 36 -13.5t36.5 37q13 23 13 119.5t-13 119.5q-6 11 -17.5 24t-22 13t-32.5 -13.5t-29 -25.5t-7 -117t7 -117.5t28.5 -26zM365.5 41q-53.5 -53 -80.5 -53t-88 54v-87q0 -51 12 -79t38 -49l-110 -77q-72 57 -72 162v425q0 95 -50 137l110 77
q28 -23 52 -72q78 72 111 72q24 0 77.5 -53t66.5 -86t13 -142.5t-13 -142.5t-66.5 -86z" />
    <glyph glyph-name="q" unicode="q" horiz-adv-x="438" 
d="M182 551q36 0 111 -73l12 61h98v-789h-132v290q-61 -52 -87 -52t-80.5 53.5t-62.5 78.5q-11 25 -11 149.5t11 149.5q8 25 62.5 78.5t78.5 53.5zM237.5 412.5q-21.5 13.5 -32.5 13.5t-23.5 -13t-18.5 -27t-6 -116.5t6 -116t18.5 -27t23 -13.5t32 13.5t28.5 23.5
q8 17 8 120.5t-7 116t-28.5 26z" />
    <glyph glyph-name="r" unicode="r" horiz-adv-x="383" 
d="M197 0h-132v345q0 51 -12.5 79.5t-37.5 49.5l110 77q36 -30 55 -70q74 70 104 70q20 0 61 -37t48 -81l-107 -77q-1 24 -11.5 47t-18.5 23q-17 0 -59 -42v-384z" />
    <glyph glyph-name="s" unicode="s" horiz-adv-x="407" 
d="M387 162q0 -31 -77 -102.5t-114.5 -71.5t-93 37t-82.5 87l103 71q50 -70 73 -70q17 0 42 17t25 32q0 4 -24 17.5t-58.5 34t-68.5 46t-58 62.5t-24 75t68 96t104.5 58t92 -37t82.5 -87l-103 -71q-50 70 -73 70q-12 0 -29.5 -13.5t-17.5 -24.5t36.5 -34t80 -47.5t80 -64
t36.5 -80.5z" />
    <glyph glyph-name="t" unicode="t" horiz-adv-x="342" 
d="M197 434v-221q0 -47 32 -86t88 -62l-110 -77q-60 28 -101 77.5t-41 104.5v264h-50v75l50 12q-2 49 -12 77.5t-38 55.5l110 77q72 -57 72 -162v-30h112v-105h-112z" />
    <glyph glyph-name="u" unicode="u" horiz-adv-x="463" 
d="M40 539h132v-372q0 -17 16 -35.5t30 -18.5t58 41v385h132v-539h-102l-12 59q-75 -71 -105 -71t-89.5 55.5t-59.5 109.5v386z" />
    <glyph glyph-name="v" unicode="v" horiz-adv-x="454" 
d="M420 389v-86q0 -120 -13 -149t-80.5 -97.5t-99.5 -68.5t-100 68.5t-80.5 98.5t-12.5 148v236h132v-236q0 -105 7.5 -123.5t25 -37.5t28.5 -19t28.5 19t25 37.5t7.5 123.5v43q0 51 -12 79t-38 49l110 77q72 -57 72 -162z" />
    <glyph glyph-name="w" unicode="w" horiz-adv-x="668" 
d="M634 389v-86q0 -120 -12.5 -149t-76.5 -97.5t-94 -68.5q-36 0 -117 113q-81 -113 -117 -113q-30 0 -94.5 69t-76.5 100t-12 146v236h132v-236q0 -105 7 -124t21 -37.5t23 -18.5t22.5 18.5t21 36.5t7.5 89v272h132v-236q0 -105 7 -124t21 -37.5t23 -18.5t22.5 18.5
t21 36.5t7.5 125v43q0 86 -40 128l100 77q72 -57 72 -162z" />
    <glyph glyph-name="x" unicode="x" horiz-adv-x="456" 
d="M167 0h-132v51q0 96 13.5 131t87.5 111q-68 78 -82 112t-14 113v21h132v-21q0 -55 8 -77.5t25 -52.5t23 -30t23 30t25 52.5t8 77.5v21h132v-21q0 -79 -11 -105q-22 -48 -86 -120q31 -31 57.5 -65.5t35.5 -57.5t9 -119v-51h-132v51q0 75 -8 96q-7 21 -26.5 48.5t-27 27.5
t-26.5 -28t-26.5 -48.5t-7.5 -95.5v-51z" />
    <glyph glyph-name="y" unicode="y" horiz-adv-x="488" 
d="M301 539h132v-506q0 -119 -15 -148t-78.5 -82t-96.5 -53t-85 34.5t-78 79.5l103 71l11 -13q36 -47 49.5 -47t29 13t22 26t6.5 94v54q-56 -54 -83.5 -54t-90 55.5t-62.5 109.5v173q0 51 -12 79t-38 49l110 77q72 -57 72 -162v-202q0 -17 19 -35.5t33 -18.5t52 41v365z" />
    <glyph glyph-name="z" unicode="z" horiz-adv-x="416" 
d="M30 434v105h352v-71l-214 -355h72q53 0 98 40l68 -81q-26 -35 -70 -53.5t-89 -18.5h-227v85l203 349h-193z" />
    <glyph glyph-name="braceleft" unicode="{" horiz-adv-x="412" 
d="M255 88v-113q0 -57 16.5 -80.5t85.5 -65.5l-111 -79q-81 64 -111 110.5t-30 124.5v115q0 51 -14 72t-56 50v56q42 29 56 50t14 72v115q0 78 30 124.5t111 110.5l111 -79q-69 -42 -85.5 -65.5t-16.5 -80.5v-113q0 -100 -98 -162q98 -62 98 -162z" />
    <glyph glyph-name="bar" unicode="|" horiz-adv-x="200" 
d="M55 -250v1000h90v-1000h-90z" />
    <glyph glyph-name="braceright" unicode="}" horiz-adv-x="412" 
d="M157 412v113q0 57 -16.5 80.5t-85.5 65.5l111 79q81 -64 111 -110.5t30 -124.5v-115q0 -51 14 -72t56 -50v-56q-42 -29 -56 -50t-14 -72v-115q0 -78 -30 -124.5t-111 -110.5l-111 79q69 42 85.5 65.5t16.5 80.5v113q0 100 98 162q-98 62 -98 162z" />
    <glyph glyph-name="asciitilde" unicode="~" horiz-adv-x="544" 
d="M420 263q-69 -49 -81.5 -49t-63.5 28t-66 32q-16 -4 -45 -27t-37 -23t-40 23.5t-32 31.5q0 17 69 66t85 49q8 0 59.5 -28t66.5 -32q16 4 45 27t37 23t40 -23.5t32 -31.5q0 -17 -69 -66z" />
    <glyph glyph-name="nbspace" unicode="&#xa0;" horiz-adv-x="250" 
 />
    <glyph glyph-name="exclamdown" unicode="&#xa1;" horiz-adv-x="297" 
d="M96 420.5q-41 34.5 -41 47t41 48t52.5 35.5t52.5 -35.5t41 -48t-41.5 -47t-52.5 -34.5t-52 34.5zM82 -174q8 301 8 360t-15 97l95 67q31 -38 37 -163l13 -361h-138z" />
    <glyph glyph-name="cent" unicode="&#xa2;" horiz-adv-x="423" 
d="M271 0h-90v114q-40 22 -83.5 60t-53 57t-9.5 120t11 119q8 17 51.5 55t83.5 60v115h90v-107q40 -15 80.5 -46.5t61.5 -68.5l-113 -78l-8 11q-44 56 -65 56q-10 0 -25.5 -13t-22.5 -26t-7 -78t7 -78t22.5 -26t23.5 -13t17 5.5t18 15.5q16 15 32 35l8 11l113 -78
q-21 -37 -61.5 -68.5t-80.5 -46.5v-107z" />
    <glyph glyph-name="sterling" unicode="&#xa3;" horiz-adv-x="536" 
d="M55 220v110h86q-2 16 -25 85t-23 141q4 17 73.5 68.5t86 51.5t87 -49.5t102.5 -89.5l-114 -66q-24 30 -77 60q0 -55 15 -99.5t15 -90.5v-11h111v-110h-111v-100h200v-120h-426v120h88v100h-88z" />
    <glyph glyph-name="currency" unicode="&#xa4;" horiz-adv-x="630" 
d="M513 418q57 -70 57 -118.5t-57 -118.5q7 -5 14.5 -11t13 -10t11 -8.5t9.5 -8t7 -5.5q7 -5 7 -8q0 -12 -40.5 -48t-52 -36t-66.5 42q-60 -43 -101.5 -43t-101.5 43q-52 -42 -64.5 -42t-53 36t-40.5 48q0 6 61 51q-56 71 -56 118t58 119q-63 49 -63 52q0 13 40 48.5
t52 35.5t69 -45q60 43 100.5 43t98.5 -42q56 44 68 44t52 -35.5t40 -48.5q0 -4 -62 -52zM391.5 212.5q46.5 50.5 46.5 86.5t-47 87t-75 51t-76 -51.5t-48 -87t46.5 -86t76.5 -50.5t76.5 50.5z" />
    <glyph glyph-name="yen" unicode="&#xa5;" horiz-adv-x="509" 
d="M75 222v78h102q-37 32 -72 76.5t-47.5 70t-12.5 104.5v113h150v-113q0 -51 8.5 -72t23 -43.5t25.5 -22.5t26.5 23.5t23 42.5t7.5 72v113h150v-113q0 -78 -12.5 -103.5t-48 -70.5t-71.5 -77h102v-78h-102v-40h102v-78h-102v-104h-150v104h-102v78h102v40h-102z" />
    <glyph glyph-name="brokenbar" unicode="&#xa6;" horiz-adv-x="200" 
d="M55 750h90v-354l-90 -63v417zM145 -250h-90v373l90 63v-436z" />
    <glyph glyph-name="section" unicode="&#xa7;" horiz-adv-x="524" 
d="M353 26.5q-58 -38.5 -92 -38.5t-92.5 37t-87.5 87l113 78l8 -11q44 -56 65 -56q11 0 29 13.5t18 21.5t-14 19t-71 40.5t-103.5 60t-58.5 58.5t-12 56.5t14 50.5t46 54q-40 40 -40 74.5t11.5 58t75 72t99.5 48.5t94.5 -37t87.5 -87l-113 -78l-8 11q-44 56 -65 56
q-11 0 -29 -10t-18 -16t13 -18t67 -41q140 -73 168 -120q11 -19 11 -63t-12 -60.5t-43 -45.5q14 -13 24.5 -31t10.5 -56t-11 -54q-27 -35 -85 -73.5zM203 443q-23 -32 -23 -45t10 -23q10 -8 119 -74q35 33 35 57q0 6 -8 12q-31 24 -133 73z" />
    <glyph glyph-name="dieresis" unicode="&#xa8;" horiz-adv-x="456" 
d="M203 685q0 -10 -32.5 -37.5t-41.5 -27.5t-41.5 27.5t-32.5 37.5t33 37.5t41.5 27.5t41 -27.5t32.5 -37.5zM401 685q0 -10 -32.5 -37.5t-41.5 -27.5t-41.5 27.5t-32.5 37.5t33 37.5t41.5 27.5t41 -27.5t32.5 -37.5z" />
    <glyph glyph-name="copyright" unicode="&#xa9;" horiz-adv-x="664" 
d="M332 60q37 0 109.5 50.5t85 87t12.5 156t-13 153t-85 84.5t-109 51t-109 -51t-85 -84.5t-13 -153t12.5 -156t85 -87t109.5 -50.5zM332 -12q-33 0 -91 32t-106.5 73t-58.5 67q-21 56 -21 193.5t21 187.5q18 42 112 106.5t144 64.5t144 -64.5t112 -106.5q21 -50 21 -187.5
t-21 -193.5q-10 -26 -58.5 -67t-106.5 -73t-91 -32zM361 304h105q0 -55 -6 -67q-12 -25 -58 -64t-70 -39t-70 39t-58 64q-6 13 -6 79v70q0 66 6 79q12 25 58 64t70 39t69.5 -39t58.5 -64q6 -11 6 -67h-105q0 36 -11.5 51.5t-17.5 15.5q-13 0 -24 -28q-5 -13 -5 -51v-70
q0 -38 5 -51q12 -28 24 -28q6 0 14 10q15 19 15 57z" />
    <glyph glyph-name="ordfeminine" unicode="&#xaa;" horiz-adv-x="396" 
d="M184 677q22 0 71 -32.5t58 -47.5q7 -18 7 -83.5t3 -83t28 -34.5l-74 -56q-29 10 -53 32q-34 -32 -52 -32t-61.5 32t-49.5 46.5t-6 90t6.5 90t53.5 46.5t69 32zM187 424q5 0 14.5 4.5t11.5 7.5q5 17 5 66t-3 62t-13 21t-15 8t-15 -8t-13 -21t-3 -58t3.5 -55t13 -18.5
t14.5 -8.5z" />
    <glyph glyph-name="guillemotleft" unicode="&#xab;" horiz-adv-x="560" 
d="M305 110q0 -5 -19 -19.5t-26 -14.5t-57.5 48t-99 103.5t-48.5 72.5t48.5 72.5t99 103.5t57.5 48t26 -14.5t19 -19.5q0 -16 -110 -190q110 -174 110 -190zM505 110q0 -5 -19 -19.5t-26 -14.5t-57.5 48t-99 103.5t-48.5 72.5t48.5 72.5t99 103.5t57.5 48t26 -14.5t19 -19.5
q0 -16 -110 -190q110 -174 110 -190z" />
    <glyph glyph-name="logicalnot" unicode="&#xac;" horiz-adv-x="583" 
d="M55 241v118h473v-190l-142 -39v111h-331z" />
    <glyph glyph-name="uni00AD" unicode="&#xad;" horiz-adv-x="363" 
d="M55 260v80h253v-80h-253z" />
    <glyph glyph-name="registered" unicode="&#xae;" horiz-adv-x="833" 
d="M332 -12q-33 0 -91 32t-106.5 73t-58.5 67q-21 56 -21 193.5t21 187.5q18 42 112 106.5t144 64.5t144 -64.5t112 -106.5q21 -50 21 -187.5t-21 -193.5q-10 -26 -58.5 -67t-106.5 -73t-91 -32zM332 60q37 0 109.5 50.5t85 87t12.5 156t-13 153t-85 84.5t-109 51t-109 -51
t-85 -84.5t-13 -153t12.5 -156t85 -87t109.5 -50.5zM284 537q39 33 55.5 33t56 -31t52.5 -48q6 -10 6 -39.5t-6 -39.5q-18 -22 -49 -45q44 -34 52.5 -50t15 -79.5t6.5 -94.5h-105q0 27 -6 84.5t-11 66.5t-15 21h-27v-172h-105v257q0 48 -5 67.5t-21 47.5l79 56
q15 -10 27 -34zM345 424l4 23q-3 0 -4 -1q-11 22 -18.5 22t-19.5 -17q2 -10 2 -17v-32h16q11 0 20 22z" />
    <glyph glyph-name="macron" unicode="&#xaf;" horiz-adv-x="455" 
d="M65 608v93h325v-93h-325z" />
    <glyph glyph-name="degree" unicode="&#xb0;" horiz-adv-x="387" 
d="M229.5 504q19.5 23 19.5 42.5t-20 42.5t-35 23t-35 -23.5t-20 -43t19.5 -42t35.5 -22.5t35.5 23zM352 547q0 -44 -58 -106t-101 -62t-100.5 61.5t-57.5 106t58.5 105t100.5 60.5t100 -60.5t58 -104.5z" />
    <glyph glyph-name="plusminus" unicode="&#xb1;" horiz-adv-x="494" 
d="M55 314v118h127v93h130v-93h127v-118h-127v-93h-130v93h-127zM55 76v118h384v-118h-384z" />
    <glyph glyph-name="twosuperior" unicode="&#xb2;" horiz-adv-x="265" 
d="M139 527q5 5 5 35.5t-11 30.5q-2 0 -5 -4q-6 -8 -6 -47h-104q0 53 6 70q6 14 48 39t62 25t62 -26t48.5 -40t6.5 -63t-17 -63.5t-106 -53.5q-14 -8 -14 -18h134v-75h-233v73q0 40 8.5 52.5t58 35.5t57.5 29z" />
    <glyph glyph-name="threesuperior" unicode="&#xb3;" horiz-adv-x="263" 
d="M103 538q43 3 43 28q0 9 -4 18t-11.5 9t-13.5 -12q-3 -9 -3 -19h-99q0 41 8 53t48.5 36.5t60.5 24.5t64 -26t49 -40q3 -8 3 -41t-6 -37q-7 -10 -24 -20q22 -14 28.5 -23t6.5 -42.5t-6 -48.5t-51 -40.5t-66 -25.5t-62.5 24t-49.5 36t-8 54h99q0 -17 8.5 -24.5t12.5 -7.5
t11 6q10 9 10 26t-7 24.5t-41 14.5v53z" />
    <glyph glyph-name="acute" unicode="&#xb4;" horiz-adv-x="298" 
d="M243 685q0 -14 -72 -59.5t-79 -45.5t-22 14.5t-15 21t52 70.5t61.5 64t42 -27.5t32.5 -37.5z" />
    <glyph glyph-name="mu" unicode="&#xb5;" horiz-adv-x="513" 
d="M316 539h132v-539h-102l-12 59q-75 -71 -101.5 -71t-61.5 30v-100q0 -48 40 -90l-110 -78q-36 41 -36 131v465q0 51 -12 79t-38 49l110 77q72 -57 72 -162v-222q0 -17 21.5 -35.5t37.5 -18.5t60 41v385z" />
    <glyph glyph-name="mu" unicode="&#x3bc;" horiz-adv-x="513" 
d="M316 539h132v-539h-102l-12 59q-75 -71 -101.5 -71t-61.5 30v-100q0 -48 40 -90l-110 -78q-36 41 -36 131v465q0 51 -12 79t-38 49l110 77q72 -57 72 -162v-222q0 -17 21.5 -35.5t37.5 -18.5t60 41v385z" />
    <glyph glyph-name="paragraph" unicode="&#xb6;" horiz-adv-x="634" 
d="M267 159v200h-26q-47 0 -116.5 60.5t-69.5 110.5t69 110t117 60h338v-132h-65q3 -21 3 -43v-525h-90v491q0 53 -10 77h-73q13 -57 13 -116v-327q0 -51 -14 -88t-33 -49l-79 56q22 27 29 46.5t7 68.5z" />
    <glyph glyph-name="periodcentered" unicode="&#xb7;" horiz-adv-x="272" 
d="M194 322q39 -33 39 -44.5t-39 -45.5t-50 -34t-50 34t-39 45.5t39.5 44.5t50 33t49.5 -33z" />
    <glyph glyph-name="cedilla" unicode="&#xb8;" horiz-adv-x="280" 
d="M55 -86q0 11 45 72.5t50 61.5q7 0 26 -10.5t19 -13.5q0 -10 -60 -80q29 -27 45 -41t26 -23q19 -19 19 -27t-59.5 -55.5t-66 -47.5t-25.5 19t-19 25t60 60q-60 54 -60 60z" />
    <glyph glyph-name="onesuperior" unicode="&#xb9;" horiz-adv-x="308" 
d="M45 412h85v156q-22 -27 -33 -53l-77 54q19 30 64 68.5t55 38.5t51.5 -28t43.5 -37v-199h29v-75h-218v75z" />
    <glyph glyph-name="ordmasculine" unicode="&#xba;" horiz-adv-x="368" 
d="M253.5 371.5q-46.5 -31.5 -69 -31.5t-69.5 32t-53.5 46.5t-6.5 90t6.5 90t53.5 46.5t69.5 32t69 -31.5t53 -46.5t6.5 -90.5t-6.5 -90.5t-53 -46.5zM184 424q5 0 13 8t10 14q5 22 5 65t-3.5 54.5t-11.5 19.5t-13 8t-13 -8t-11.5 -21t-3.5 -58t3.5 -55.5t11.5 -18.5t13 -8z
" />
    <glyph glyph-name="guillemotright" unicode="&#xbb;" horiz-adv-x="560" 
d="M255 490q0 5 19 19.5t26 14.5t57.5 -48t99 -103.5t48.5 -72.5t-48.5 -72.5t-99 -103.5t-57.5 -48t-26 14.5t-19 19.5q0 16 110 190q-110 174 -110 190zM55 490q0 5 19 19.5t26 14.5t57.5 -48t99 -103.5t48.5 -72.5t-48.5 -72.5t-99 -103.5t-57.5 -48t-26 14.5t-19 19.5
q0 16 110 190q-110 174 -110 190z" />
    <glyph glyph-name="onequarter" unicode="&#xbc;" horiz-adv-x="730" 
d="M665 0h-104v61h-64l-77 54q13 44 41.5 98.5t53 89.5t31.5 35q10 0 61 -33.5t58 -44.5v-119h20v-80h-20v-61zM561 141v84q-27 -50 -40 -84h40zM634 616l-380 -628q-12 0 -44 21t-46 39l380 628q12 0 44 -21t46 -39zM70 412h85v156q-22 -27 -33 -53l-77 54q19 30 64 68.5
t55 38.5t51.5 -28t43.5 -37v-199h29v-75h-218v75z" />
    <glyph glyph-name="onehalf" unicode="&#xbd;" horiz-adv-x="750" 
d="M70 412h85v156q-22 -27 -33 -53l-77 54q19 30 64 68.5t55 38.5t51.5 -28t43.5 -37v-199h29v-75h-218v75zM634 616l-380 -628q-12 0 -44 21t-46 39l380 628q12 0 44 -21t46 -39zM593 190q5 5 5 35.5t-11 30.5q-2 0 -5 -4q-6 -8 -6 -47h-104q0 53 6 70q6 14 48 39t62 25
t62 -26t48.5 -40t6.5 -63t-17 -63.5t-106 -53.5q-14 -8 -14 -18h134v-75h-233v73q0 40 8.5 52.5t58 35.5t57.5 29z" />
    <glyph glyph-name="threequarters" unicode="&#xbe;" horiz-adv-x="695" 
d="M630 0h-104v61h-64l-77 54q13 44 41.5 98.5t53 89.5t31.5 35q10 0 61 -33.5t58 -44.5v-119h20v-80h-20v-61zM526 141v84q-27 -50 -40 -84h40zM138 538q43 3 43 28q0 9 -4 18t-11.5 9t-13.5 -12q-3 -9 -3 -19h-99q0 41 8 53t48.5 36.5t60.5 24.5t64 -26t49 -40q3 -8 3 -41
t-6 -37q-7 -10 -24 -20q22 -14 28.5 -23t6.5 -42.5t-6 -48.5t-51 -40.5t-66 -25.5t-62.5 24t-49.5 36t-8 54h99q0 -17 8.5 -24.5t12.5 -7.5t11 6q10 9 10 26t-7 24.5t-41 14.5v53zM599 616l-380 -628q-12 0 -44 21t-46 39l380 628q12 0 44 -21t46 -39z" />
    <glyph glyph-name="questiondown" unicode="&#xbf;" horiz-adv-x="515" 
d="M217 420.5q-41 34.5 -41 47t41 48t52.5 35.5t52.5 -35.5t41 -48t-41.5 -47t-52.5 -34.5t-52 34.5zM260 -173q-35 0 -103 56t-91 93q-11 18 -11 84t11 87t64 70.5t63 63t10 34.5v35h132v-45q0 -45 -12 -63t-37.5 -44.5t-53 -53.5t-35.5 -36.5t-8 -55.5q0 -27 30.5 -58.5
t45.5 -31.5t42 41t37 95l115 -79q-14 -64 -79.5 -128t-119.5 -64z" />
    <glyph glyph-name="Agrave" unicode="&#xc0;" horiz-adv-x="514" 
d="M257 712q37 0 108 -65t88 -107q11 -29 11 -131v-409h-138v150h-138v-150h-138v409q0 102 11 131q17 42 88 107t108 65zM188 409v-139h138v139q0 82 -8 100.5t-27.5 39t-33.5 20.5t-33.5 -20.5t-27.5 -39t-8 -100.5zM214 766q-81 16 -81 28t20 50t27 38q10 0 81.5 -41.5
t71.5 -47t-8 -24.5t-12 -19q-18 0 -99 16z" />
    <glyph glyph-name="Aacute" unicode="&#xc1;" horiz-adv-x="514" 
d="M257 712q37 0 108 -65t88 -107q11 -29 11 -131v-409h-138v150h-138v-150h-138v409q0 102 11 131q17 42 88 107t108 65zM188 409v-139h138v139q0 82 -8 100.5t-27.5 39t-33.5 20.5t-33.5 -20.5t-27.5 -39t-8 -100.5zM343 844q20 -38 20 -50t-81 -28t-99 -16q-4 0 -12 19
t-8 24.5t71.5 47t81.5 41.5q7 0 27 -38z" />
    <glyph glyph-name="Acircumflex" unicode="&#xc2;" horiz-adv-x="514" 
d="M257 712q37 0 108 -65t88 -107q11 -29 11 -131v-409h-138v150h-138v-150h-138v409q0 102 11 131q17 42 88 107t108 65zM188 409v-139h138v139q0 82 -8 100.5t-27.5 39t-33.5 20.5t-33.5 -20.5t-27.5 -39t-8 -100.5zM397 773q-12 -23 -18.5 -23t-112.5 44
q-112 -44 -113 -44q-5 0 -17.5 23t-12.5 31q0 5 67 41.5t76 36.5t76 -36.5t67 -41.5q0 -8 -12 -31z" />
    <glyph glyph-name="Atilde" unicode="&#xc3;" horiz-adv-x="514" 
d="M257 712q37 0 108 -65t88 -107q11 -29 11 -131v-409h-138v150h-138v-150h-138v409q0 102 11 131q17 42 88 107t108 65zM188 409v-139h138v139q0 82 -8 100.5t-27.5 39t-33.5 20.5t-33.5 -20.5t-27.5 -39t-8 -100.5zM394.5 800.5q-61.5 -59.5 -73 -59.5t-89.5 60
q-78 -60 -87 -60t-28 19t-19 25.5t61.5 66t73 59.5t89.5 -60q78 60 87 60t28 -19t19 -25.5t-61.5 -66z" />
    <glyph glyph-name="Adieresis" unicode="&#xc4;" horiz-adv-x="514" 
d="M257 712q37 0 108 -65t88 -107q11 -29 11 -131v-409h-138v150h-138v-150h-138v409q0 102 11 131q17 42 88 107t108 65zM188 409v-139h138v139q0 82 -8 100.5t-27.5 39t-33.5 20.5t-33.5 -20.5t-27.5 -39t-8 -100.5zM233 815q0 -10 -32.5 -37.5t-41.5 -27.5t-41.5 27.5
t-32.5 37.5t33 37.5t41.5 27.5t41 -27.5t32.5 -37.5zM431 815q0 -10 -32.5 -37.5t-41.5 -27.5t-41.5 27.5t-32.5 37.5t33 37.5t41.5 27.5t41 -27.5t32.5 -37.5z" />
    <glyph glyph-name="Aring" unicode="&#xc5;" horiz-adv-x="514" 
d="M257 712q37 0 108 -65t88 -107q11 -29 11 -131v-409h-138v150h-138v-150h-138v409q0 102 11 131q17 42 88 107t108 65zM188 409v-139h138v139q0 82 -8 100.5t-27.5 39t-33.5 20.5t-33.5 -20.5t-27.5 -39t-8 -100.5zM299 827q0 10 -16 24t-25.5 14t-26 -14.5t-16.5 -24
t16 -23.5t26 -14t26 14t16 24zM352 827q0 -19 -36.5 -52t-58.5 -33t-58.5 32.5t-36.5 52t37 52t58.5 32.5t58 -32.5t36.5 -51.5z" />
    <glyph glyph-name="AE" unicode="&#xc6;" horiz-adv-x="728" 
d="M464 426h179v-121h-179v-184h239v-121h-377v150h-138v-150h-138v409q0 102 11 131q17 42 88 107t109.5 65t120.5 -78l110 78h198v-122h-161l-62 -46v-118zM188 409v-139h138v139q0 82 -8 100.5t-27.5 39t-33.5 20.5t-33.5 -20.5t-27.5 -39t-8 -100.5z" />
    <glyph glyph-name="Ccedilla" unicode="&#xc7;" horiz-adv-x="489" 
d="M159 -86q0 12 49 79q-36 15 -91.5 68t-69.5 79q-22 38 -22 163v94q0 125 20 160t85.5 95t97.5 60q55 0 126 -63.5t90 -139.5l-111 -77q-16 54 -51 99.5t-49 45.5q-25 0 -57 -49q-13 -19 -13 -131v-94q0 -115 13 -131q32 -49 57 -49q14 0 49 39.5t51 87.5l111 -78
q-14 -52 -60 -99t-98 -70q-25 -33 -47 -59q29 -27 45 -41t26 -23q19 -19 19 -27t-59.5 -55.5t-66 -47.5t-25.5 19t-19 25t60 60q-60 54 -60 60z" />
    <glyph glyph-name="Egrave" unicode="&#xc8;" horiz-adv-x="487" 
d="M208 426h179v-121h-179v-184h239v-121h-377v616l138 96h223v-122h-186l-37 -26v-138zM214 766q-81 16 -81 28t20 50t27 38q10 0 81.5 -41.5t71.5 -47t-8 -24.5t-12 -19q-18 0 -99 16z" />
    <glyph glyph-name="Eacute" unicode="&#xc9;" horiz-adv-x="487" 
d="M208 426h179v-121h-179v-184h239v-121h-377v616l138 96h223v-122h-186l-37 -26v-138zM403 844q20 -38 20 -50t-81 -28t-99 -16q-4 0 -12 19t-8 24.5t71.5 47t81.5 41.5q7 0 27 -38z" />
    <glyph glyph-name="Ecircumflex" unicode="&#xca;" horiz-adv-x="487" 
d="M208 426h179v-121h-179v-184h239v-121h-377v616l138 96h223v-122h-186l-37 -26v-138zM417 773q-12 -23 -18.5 -23t-112.5 44q-112 -44 -113 -44q-5 0 -17.5 23t-12.5 31q0 5 67 41.5t76 36.5t76 -36.5t67 -41.5q0 -8 -12 -31z" />
    <glyph glyph-name="Edieresis" unicode="&#xcb;" horiz-adv-x="487" 
d="M208 426h179v-121h-179v-184h239v-121h-377v616l138 96h223v-122h-186l-37 -26v-138zM247 815q0 -10 -32.5 -37.5t-41.5 -27.5t-41.5 27.5t-32.5 37.5t33 37.5t41.5 27.5t41 -27.5t32.5 -37.5zM445 815q0 -10 -32.5 -37.5t-41.5 -27.5t-41.5 27.5t-32.5 37.5t33 37.5
t41.5 27.5t41 -27.5t32.5 -37.5z" />
    <glyph glyph-name="Igrave" unicode="&#xcc;" horiz-adv-x="250" 
d="M56 0v700h138v-700h-138zM94 766q-81 16 -81 28t20 50t27 38q10 0 81.5 -41.5t71.5 -47t-8 -24.5t-12 -19q-18 0 -99 16z" />
    <glyph glyph-name="Iacute" unicode="&#xcd;" horiz-adv-x="250" 
d="M56 0v700h138v-700h-138zM223 844q20 -38 20 -50t-81 -28t-99 -16q-4 0 -12 19t-8 24.5t71.5 47t81.5 41.5q7 0 27 -38z" />
    <glyph glyph-name="Icircumflex" unicode="&#xce;" horiz-adv-x="250" 
d="M56 0v700h138v-700h-138zM256 773q-12 -23 -18.5 -23t-112.5 44q-112 -44 -113 -44q-5 0 -17.5 23t-12.5 31q0 5 67 41.5t76 36.5t76 -36.5t67 -41.5q0 -8 -12 -31z" />
    <glyph glyph-name="Idieresis" unicode="&#xcf;" horiz-adv-x="250" 
d="M56 0v700h138v-700h-138zM101 815q0 -10 -32.5 -37.5t-41.5 -27.5t-41.5 27.5t-32.5 37.5t33 37.5t41.5 27.5t41 -27.5t32.5 -37.5zM299 815q0 -10 -32.5 -37.5t-41.5 -27.5t-41.5 27.5t-32.5 37.5t33 37.5t41.5 27.5t41 -27.5t32.5 -37.5z" />
    <glyph glyph-name="Eth" unicode="&#xd0;" horiz-adv-x="534" 
d="M179 660q66 52 100 52t105.5 -65.5t88.5 -106.5q11 -26 11 -131v-118q0 -105 -11 -131q-18 -39 -87 -99.5t-109 -60.5h-207v290h-60v120h60v18q0 81 -11.5 113.5t-48.5 77.5l132 93q21 -16 37 -52zM277 569q-29 0 -72 -19q3 -21 3 -64v-76h75v-120h-75v-169h69
q14 0 33.5 20.5t27.5 39t8 100.5v128q0 82 -8 100.5t-27.5 39t-33.5 20.5z" />
    <glyph glyph-name="Ntilde" unicode="&#xd1;" horiz-adv-x="520" 
d="M207 529l1 -43v-486h-138v428q0 84 -11.5 118t-48.5 82l120 84q29 -19 54 -65q79 65 107 65t88.5 -52.5t75.5 -74t15 -56.5v-529h-139v509q0 9 -7.5 22.5t-23 30.5t-29 17t-33.5 -15.5t-31 -34.5zM377.5 800.5q-61.5 -59.5 -73 -59.5t-89.5 60q-78 -60 -87 -60t-28 19
t-19 25.5t61.5 66t73 59.5t89.5 -60q78 60 87 60t28 -19t19 -25.5t-61.5 -66z" />
    <glyph glyph-name="Ograve" unicode="&#xd2;" 
d="M232 -12q-36 0 -107.5 65.5t-88.5 106.5q-11 26 -11 131v118q0 105 11 131q17 41 88.5 106.5t107.5 65.5t107.5 -65.5t88.5 -106.5q11 -26 11 -131v-118q0 -105 -11 -131q-17 -41 -88.5 -106.5t-107.5 -65.5zM232 131q14 0 33.5 20.5t27.5 39t8 100.5v118q0 82 -8 100.5
t-27.5 39t-33.5 20.5t-33.5 -20.5t-27.5 -39t-8 -100.5v-118q0 -82 8 -100.5t27.5 -39t33.5 -20.5zM184 766q-81 16 -81 28t20 50t27 38q10 0 81.5 -41.5t71.5 -47t-8 -24.5t-12 -19q-18 0 -99 16z" />
    <glyph glyph-name="Oacute" unicode="&#xd3;" 
d="M232 -12q-36 0 -107.5 65.5t-88.5 106.5q-11 26 -11 131v118q0 105 11 131q17 41 88.5 106.5t107.5 65.5t107.5 -65.5t88.5 -106.5q11 -26 11 -131v-118q0 -105 -11 -131q-17 -41 -88.5 -106.5t-107.5 -65.5zM232 131q14 0 33.5 20.5t27.5 39t8 100.5v118q0 82 -8 100.5
t-27.5 39t-33.5 20.5t-33.5 -20.5t-27.5 -39t-8 -100.5v-118q0 -82 8 -100.5t27.5 -39t33.5 -20.5zM343 844q20 -38 20 -50t-81 -28t-99 -16q-4 0 -12 19t-8 24.5t71.5 47t81.5 41.5q7 0 27 -38z" />
    <glyph glyph-name="Ocircumflex" unicode="&#xd4;" 
d="M232 -12q-36 0 -107.5 65.5t-88.5 106.5q-11 26 -11 131v118q0 105 11 131q17 41 88.5 106.5t107.5 65.5t107.5 -65.5t88.5 -106.5q11 -26 11 -131v-118q0 -105 -11 -131q-17 -41 -88.5 -106.5t-107.5 -65.5zM232 131q14 0 33.5 20.5t27.5 39t8 100.5v118q0 82 -8 100.5
t-27.5 39t-33.5 20.5t-33.5 -20.5t-27.5 -39t-8 -100.5v-118q0 -82 8 -100.5t27.5 -39t33.5 -20.5zM364 773q-12 -23 -18.5 -23t-112.5 44q-112 -44 -113 -44q-5 0 -17.5 23t-12.5 31q0 5 67 41.5t76 36.5t76 -36.5t67 -41.5q0 -8 -12 -31z" />
    <glyph glyph-name="Otilde" unicode="&#xd5;" 
d="M232 -12q-36 0 -107.5 65.5t-88.5 106.5q-11 26 -11 131v118q0 105 11 131q17 41 88.5 106.5t107.5 65.5t107.5 -65.5t88.5 -106.5q11 -26 11 -131v-118q0 -105 -11 -131q-17 -41 -88.5 -106.5t-107.5 -65.5zM232 131q14 0 33.5 20.5t27.5 39t8 100.5v118q0 82 -8 100.5
t-27.5 39t-33.5 20.5t-33.5 -20.5t-27.5 -39t-8 -100.5v-118q0 -82 8 -100.5t27.5 -39t33.5 -20.5zM349.5 800.5q-61.5 -59.5 -73 -59.5t-89.5 60q-78 -60 -87 -60t-28 19t-19 25.5t61.5 66t73 59.5t89.5 -60q78 60 87 60t28 -19t19 -25.5t-61.5 -66z" />
    <glyph glyph-name="Odieresis" unicode="&#xd6;" 
d="M232 -12q-36 0 -107.5 65.5t-88.5 106.5q-11 26 -11 131v118q0 105 11 131q17 41 88.5 106.5t107.5 65.5t107.5 -65.5t88.5 -106.5q11 -26 11 -131v-118q0 -105 -11 -131q-17 -41 -88.5 -106.5t-107.5 -65.5zM232 131q14 0 33.5 20.5t27.5 39t8 100.5v118q0 82 -8 100.5
t-27.5 39t-33.5 20.5t-33.5 -20.5t-27.5 -39t-8 -100.5v-118q0 -82 8 -100.5t27.5 -39t33.5 -20.5zM207 815q0 -10 -32.5 -37.5t-41.5 -27.5t-41.5 27.5t-32.5 37.5t33 37.5t41.5 27.5t41 -27.5t32.5 -37.5zM405 815q0 -10 -32.5 -37.5t-41.5 -27.5t-41.5 27.5t-32.5 37.5
t33 37.5t41.5 27.5t41 -27.5t32.5 -37.5z" />
    <glyph glyph-name="multiply" unicode="&#xd7;" horiz-adv-x="518" 
d="M379 494q12 0 48 -27.5t36 -37.5q0 -6 -34 -47t-74 -83q108 -116 108 -128t-35.5 -39.5t-48.5 -27.5q-2 0 -23 20q-79 76 -97 90q-18 -14 -68 -62t-52 -48q-12 0 -48 27.5t-36 37.5q0 15 107 130q-39 42 -73 83t-34 49t35.5 35.5t48.5 27.5q2 0 23 -20q79 -76 97 -90
q18 14 68 62t52 48z" />
    <glyph glyph-name="Oslash" unicode="&#xd8;" 
d="M339.5 53.5q-71.5 -65.5 -110 -65.5t-120.5 80l-42 -80q-5 0 -17 9t-12 13q18 37 43 87q-37 43 -46.5 66t-9.5 128v118q0 105 11 131q17 41 88.5 106.5t109 65.5t121.5 -80q40 80 42 80q5 0 17 -8.5t12 -12t-44 -88.5q35 -38 46 -63.5t11 -130.5v-118q0 -105 -11 -131
q-17 -41 -88.5 -106.5zM232 127q14 0 35 20.5t29.5 39.5t8.5 104v118q0 28 -1 41l-136 -266q10 -18 30 -37.5t34 -19.5zM159 251l137 265q-9 18 -29.5 37.5t-35 19.5t-35 -20.5t-29 -39.5t-8.5 -104v-158z" />
    <glyph glyph-name="Ugrave" unicode="&#xd9;" horiz-adv-x="534" 
d="M484 700v-409q0 -105 -11 -131q-17 -41 -88.5 -106.5t-107.5 -65.5t-107.5 65.5t-88.5 106.5q-11 26 -11 131v145q0 81 -11.5 114t-48.5 78l120 84q32 -21 55 -81.5t23 -144.5v-195q0 -82 8 -100.5t27.5 -39t33.5 -20.5t33.5 20.5t27.5 39t8 100.5v409h138zM201 766
q-81 16 -81 28t20 50t27 38q10 0 81.5 -41.5t71.5 -47t-8 -24.5t-12 -19q-18 0 -99 16z" />
    <glyph glyph-name="Uacute" unicode="&#xda;" horiz-adv-x="534" 
d="M484 700v-409q0 -105 -11 -131q-17 -41 -88.5 -106.5t-107.5 -65.5t-107.5 65.5t-88.5 106.5q-11 26 -11 131v145q0 81 -11.5 114t-48.5 78l120 84q32 -21 55 -81.5t23 -144.5v-195q0 -82 8 -100.5t27.5 -39t33.5 -20.5t33.5 20.5t27.5 39t8 100.5v409h138zM363 844
q20 -38 20 -50t-81 -28t-99 -16q-4 0 -12 19t-8 24.5t71.5 47t81.5 41.5q7 0 27 -38z" />
    <glyph glyph-name="Ucircumflex" unicode="&#xdb;" horiz-adv-x="534" 
d="M484 700v-409q0 -105 -11 -131q-17 -41 -88.5 -106.5t-107.5 -65.5t-107.5 65.5t-88.5 106.5q-11 26 -11 131v145q0 81 -11.5 114t-48.5 78l120 84q32 -21 55 -81.5t23 -144.5v-195q0 -82 8 -100.5t27.5 -39t33.5 -20.5t33.5 20.5t27.5 39t8 100.5v409h138zM397 773
q-12 -23 -18.5 -23t-112.5 44q-112 -44 -113 -44q-5 0 -17.5 23t-12.5 31q0 5 67 41.5t76 36.5t76 -36.5t67 -41.5q0 -8 -12 -31z" />
    <glyph glyph-name="Udieresis" unicode="&#xdc;" horiz-adv-x="534" 
d="M484 700v-409q0 -105 -11 -131q-17 -41 -88.5 -106.5t-107.5 -65.5t-107.5 65.5t-88.5 106.5q-11 26 -11 131v145q0 81 -11.5 114t-48.5 78l120 84q32 -21 55 -81.5t23 -144.5v-195q0 -82 8 -100.5t27.5 -39t33.5 -20.5t33.5 20.5t27.5 39t8 100.5v409h138zM242 815
q0 -10 -32.5 -37.5t-41.5 -27.5t-41.5 27.5t-32.5 37.5t33 37.5t41.5 27.5t41 -27.5t32.5 -37.5zM440 815q0 -10 -32.5 -37.5t-41.5 -27.5t-41.5 27.5t-32.5 37.5t33 37.5t41.5 27.5t41 -27.5t32.5 -37.5z" />
    <glyph glyph-name="Yacute" unicode="&#xdd;" horiz-adv-x="509" 
d="M183 0v280q-39 32 -75.5 76.5t-49.5 70t-13 104.5v169h138v-169q0 -51 8.5 -71.5t30 -49.5t30.5 -29t31 29.5t30 48.5t8 72v169h138v-169q0 -80 -13 -105t-50 -69.5t-75 -76.5v-280h-138zM363 844q20 -38 20 -50t-81 -28t-99 -16q-4 0 -12 19t-8 24.5t71.5 47t81.5 41.5
q7 0 27 -38z" />
    <glyph glyph-name="Thorn" unicode="&#xde;" horiz-adv-x="510" 
d="M207 547q58 35 89.5 35t93.5 -54t83 -90q11 -19 11 -81.5t-11 -80.5q-22 -36 -84 -90t-96 -54h-85v-132h-138v468q0 68 -11.5 95t-48.5 65l120 84q30 -17 51.5 -60t25.5 -105zM283 450q-33 0 -75 -27v-162h75q13 0 34 17t28 34t7 44t-8 43.5t-28 33.5t-33 17z" />
    <glyph glyph-name="germandbls" unicode="&#xdf;" horiz-adv-x="543" 
d="M354 104.5q28 26.5 28 44.5t-22 46.5t-49 56t-49 60.5t-22 60t51 93.5t51 94t-27.5 51.5t-45.5 24t-38 -13t-27 -25.5t-7 -96.5v-500h-132v395h-50v75l50 12q0 112 12 137t84 78t106 53q53 0 127.5 -69t74.5 -117q0 -27 -47.5 -102.5t-47.5 -89t21.5 -37.5t48 -50t48 -63
t21.5 -71q0 -54 -33.5 -99t-77.5 -65l-110 77q34 14 62 40.5z" />
    <glyph glyph-name="agrave" unicode="&#xe0;" horiz-adv-x="448" 
d="M410 539v-410q6 -35 47 -62l-90 -77q-13 9 -32 32t-32 47q-83 -81 -116 -81q-24 0 -77.5 53t-66.5 86t-13 142.5t13 142.5t66.5 86t77.5 53q35 0 113 -72l12 60h98zM242.5 412.5q-21.5 13.5 -32.5 13.5t-23.5 -13t-16.5 -24q-13 -18 -13 -119.5t13 -119.5
q4 -10 16.5 -23.5t23.5 -13.5t32.5 13.5t28 24.5t7.5 117q0 106 -7 118.5t-28.5 26zM92 685q0 10 32.5 37.5t42 27.5t61.5 -64t52 -70.5t-15 -21t-22 -14.5t-79 45.5t-72 59.5z" />
    <glyph glyph-name="aacute" unicode="&#xe1;" horiz-adv-x="448" 
d="M410 539v-410q6 -35 47 -62l-90 -77q-13 9 -32 32t-32 47q-83 -81 -116 -81q-24 0 -77.5 53t-66.5 86t-13 142.5t13 142.5t66.5 86t77.5 53q35 0 113 -72l12 60h98zM242.5 412.5q-21.5 13.5 -32.5 13.5t-23.5 -13t-16.5 -24q-13 -18 -13 -119.5t13 -119.5
q4 -10 16.5 -23.5t23.5 -13.5t32.5 13.5t28 24.5t7.5 117q0 106 -7 118.5t-28.5 26zM340 685q0 -14 -72 -59.5t-79 -45.5t-22 14.5t-15 21t52 70.5t61.5 64t42 -27.5t32.5 -37.5z" />
    <glyph glyph-name="acircumflex" unicode="&#xe2;" horiz-adv-x="448" 
d="M410 539v-410q6 -35 47 -62l-90 -77q-13 9 -32 32t-32 47q-83 -81 -116 -81q-24 0 -77.5 53t-66.5 86t-13 142.5t13 142.5t66.5 86t77.5 53q35 0 113 -72l12 60h98zM242.5 412.5q-21.5 13.5 -32.5 13.5t-23.5 -13t-16.5 -24q-13 -18 -13 -119.5t13 -119.5
q4 -10 16.5 -23.5t23.5 -13.5t32.5 13.5t28 24.5t7.5 117q0 106 -7 118.5t-28.5 26zM226 640q-78 -60 -87 -60t-28 19t-19 25.5t61.5 66t72.5 59.5t72.5 -59.5t61.5 -66t-19 -25.5t-28 -19t-87 60z" />
    <glyph glyph-name="atilde" unicode="&#xe3;" horiz-adv-x="448" 
d="M410 539v-410q6 -35 47 -62l-90 -77q-13 9 -32 32t-32 47q-83 -81 -116 -81q-24 0 -77.5 53t-66.5 86t-13 142.5t13 142.5t66.5 86t77.5 53q35 0 113 -72l12 60h98zM242.5 412.5q-21.5 13.5 -32.5 13.5t-23.5 -13t-16.5 -24q-13 -18 -13 -119.5t13 -119.5
q4 -10 16.5 -23.5t23.5 -13.5t32.5 13.5t28 24.5t7.5 117q0 106 -7 118.5t-28.5 26zM344.5 639.5q-61.5 -59.5 -73 -59.5t-89.5 60q-78 -60 -87 -60t-28 19t-19 25.5t61.5 66t73 59.5t89.5 -60q78 60 87 60t28 -19t19 -25.5t-61.5 -66z" />
    <glyph glyph-name="adieresis" unicode="&#xe4;" horiz-adv-x="448" 
d="M410 539v-410q6 -35 47 -62l-90 -77q-13 9 -32 32t-32 47q-83 -81 -116 -81q-24 0 -77.5 53t-66.5 86t-13 142.5t13 142.5t66.5 86t77.5 53q35 0 113 -72l12 60h98zM242.5 412.5q-21.5 13.5 -32.5 13.5t-23.5 -13t-16.5 -24q-13 -18 -13 -119.5t13 -119.5
q4 -10 16.5 -23.5t23.5 -13.5t32.5 13.5t28 24.5t7.5 117q0 106 -7 118.5t-28.5 26zM202 685q0 -10 -32.5 -37.5t-41.5 -27.5t-41.5 27.5t-32.5 37.5t33 37.5t41.5 27.5t41 -27.5t32.5 -37.5zM400 685q0 -10 -32.5 -37.5t-41.5 -27.5t-41.5 27.5t-32.5 37.5t33 37.5
t41.5 27.5t41 -27.5t32.5 -37.5z" />
    <glyph glyph-name="aring" unicode="&#xe5;" horiz-adv-x="448" 
d="M410 539v-410q6 -35 47 -62l-90 -77q-13 9 -32 32t-32 47q-83 -81 -116 -81q-24 0 -77.5 53t-66.5 86t-13 142.5t13 142.5t66.5 86t77.5 53q35 0 113 -72l12 60h98zM242.5 412.5q-21.5 13.5 -32.5 13.5t-23.5 -13t-16.5 -24q-13 -18 -13 -119.5t13 -119.5
q4 -10 16.5 -23.5t23.5 -13.5t32.5 13.5t28 24.5t7.5 117q0 106 -7 118.5t-28.5 26zM254 666q0 10 -16 24t-25.5 14t-26 -14.5t-16.5 -24t16 -23.5t26 -14t26 14t16 24zM307 666q0 -19 -36.5 -52t-58.5 -33t-58.5 32.5t-36.5 52t37 52t58.5 32.5t58 -32.5t36.5 -51.5z" />
    <glyph glyph-name="ae" unicode="&#xe6;" horiz-adv-x="661" 
d="M158 -12q-21 0 -84.5 62.5t-63.5 99t77.5 99.5t160.5 100q0 28 -19 57.5t-33 29.5q-25 0 -73 -82l-103 71q28 49 83 87.5t92.5 38.5t117.5 -76q82 76 121 76q30 0 94.5 -53t78.5 -82.5t14 -144.5v-36h-242q0 -60 15 -95q5 -12 18 -24.5t27 -12.5t35 24t33 58l103 -73
q-27 -50 -82.5 -87t-93.5 -37q-22 0 -63 28.5t-76 63.5q-85 -92 -137 -92zM459.5 423q-15.5 13 -29 13t-30.5 -26.5t-21 -79.5h114q-3 53 -10.5 66.5t-23 26.5zM144 162q0 -11 13.5 -30t23 -19t31.5 14q37 24 37 44q0 5 1 31t1 31q-34 -12 -70.5 -36t-36.5 -35z" />
    <glyph glyph-name="ccedilla" unicode="&#xe7;" horiz-adv-x="408" 
d="M127 -86q0 12 53 84q-33 17 -75.5 55.5t-53.5 56.5q-21 33 -21 159t21 160q15 25 74 73.5t91.5 48.5t88 -38.5t83.5 -87.5l-103 -71q-13 24 -35.5 53t-33.5 29q-20 0 -46 -42q-13 -26 -13 -124.5t13 -124.5q8 -13 21 -27.5t26 -14.5t34 23t34 59l103 -72
q-22 -40 -61.5 -72t-78.5 -45q-17 -23 -41 -52q29 -27 45 -41t26 -23q19 -19 19 -27t-59.5 -55.5t-66 -47.5t-25.5 19t-19 25t60 60q-60 54 -60 60z" />
    <glyph glyph-name="egrave" unicode="&#xe8;" horiz-adv-x="444" 
d="M404 271v-36h-242q0 -60 15 -95q5 -12 18 -24.5t27 -12.5t35 24t33 58l103 -73q-27 -50 -82.5 -87t-89.5 -37t-98.5 53t-78.5 82.5t-14 146t14 146t78.5 82.5t94.5 53t94.5 -53t78.5 -82.5t14 -144.5zM242.5 423q-15.5 13 -29 13t-30.5 -26.5t-21 -79.5h114
q-3 53 -10.5 66.5t-23 26.5zM93 685q0 10 32.5 37.5t42 27.5t61.5 -64t52 -70.5t-15 -21t-22 -14.5t-79 45.5t-72 59.5z" />
    <glyph glyph-name="eacute" unicode="&#xe9;" horiz-adv-x="444" 
d="M404 271v-36h-242q0 -60 15 -95q5 -12 18 -24.5t27 -12.5t35 24t33 58l103 -73q-27 -50 -82.5 -87t-89.5 -37t-98.5 53t-78.5 82.5t-14 146t14 146t78.5 82.5t94.5 53t94.5 -53t78.5 -82.5t14 -144.5zM242.5 423q-15.5 13 -29 13t-30.5 -26.5t-21 -79.5h114
q-3 53 -10.5 66.5t-23 26.5zM331 685q0 -14 -72 -59.5t-79 -45.5t-22 14.5t-15 21t52 70.5t61.5 64t42 -27.5t32.5 -37.5z" />
    <glyph glyph-name="ecircumflex" unicode="&#xea;" horiz-adv-x="444" 
d="M404 271v-36h-242q0 -60 15 -95q5 -12 18 -24.5t27 -12.5t35 24t33 58l103 -73q-27 -50 -82.5 -87t-89.5 -37t-98.5 53t-78.5 82.5t-14 146t14 146t78.5 82.5t94.5 53t94.5 -53t78.5 -82.5t14 -144.5zM242.5 423q-15.5 13 -29 13t-30.5 -26.5t-21 -79.5h114
q-3 53 -10.5 66.5t-23 26.5zM217 640q-78 -60 -87 -60t-28 19t-19 25.5t61.5 66t72.5 59.5t72.5 -59.5t61.5 -66t-19 -25.5t-28 -19t-87 60z" />
    <glyph glyph-name="edieresis" unicode="&#xeb;" horiz-adv-x="444" 
d="M404 271v-36h-242q0 -60 15 -95q5 -12 18 -24.5t27 -12.5t35 24t33 58l103 -73q-27 -50 -82.5 -87t-89.5 -37t-98.5 53t-78.5 82.5t-14 146t14 146t78.5 82.5t94.5 53t94.5 -53t78.5 -82.5t14 -144.5zM242.5 423q-15.5 13 -29 13t-30.5 -26.5t-21 -79.5h114
q-3 53 -10.5 66.5t-23 26.5zM192 685q0 -10 -32.5 -37.5t-41.5 -27.5t-41.5 27.5t-32.5 37.5t33 37.5t41.5 27.5t41 -27.5t32.5 -37.5zM390 685q0 -10 -32.5 -37.5t-41.5 -27.5t-41.5 27.5t-32.5 37.5t33 37.5t41.5 27.5t41 -27.5t32.5 -37.5z" />
    <glyph glyph-name="igrave" unicode="&#xec;" horiz-adv-x="251" 
d="M54 539h132v-346q0 -51 12 -79t38 -49l-110 -77q-72 57 -72 162v389zM37 685q0 10 32.5 37.5t42 27.5t61.5 -64t52 -70.5t-15 -21t-22 -14.5t-79 45.5t-72 59.5z" />
    <glyph glyph-name="iacute" unicode="&#xed;" horiz-adv-x="251" 
d="M54 539h132v-346q0 -51 12 -79t38 -49l-110 -77q-72 57 -72 162v389zM225 685q0 -14 -72 -59.5t-79 -45.5t-22 14.5t-15 21t52 70.5t61.5 64t42 -27.5t32.5 -37.5z" />
    <glyph glyph-name="icircumflex" unicode="&#xee;" horiz-adv-x="251" 
d="M54 539h132v-346q0 -51 12 -79t38 -49l-110 -77q-72 57 -72 162v389zM131 640q-78 -60 -87 -60t-28 19t-19 25.5t61.5 66t72.5 59.5t72.5 -59.5t61.5 -66t-19 -25.5t-28 -19t-87 60z" />
    <glyph glyph-name="idieresis" unicode="&#xef;" horiz-adv-x="251" 
d="M109 685q0 -10 -32.5 -37.5t-41.5 -27.5t-41.5 27.5t-32.5 37.5t33 37.5t41.5 27.5t41 -27.5t32.5 -37.5zM307 685q0 -10 -32.5 -37.5t-41.5 -27.5t-41.5 27.5t-32.5 37.5t33 37.5t41.5 27.5t41 -27.5t32.5 -37.5zM54 539h132v-346q0 -51 12 -79t38 -49l-110 -77
q-72 57 -72 162v389z" />
    <glyph glyph-name="eth" unicode="&#xf0;" 
d="M222 -12q-30 0 -95 53t-76 77.5t-11 141t11 141t76 77.5t95 53q4 0 6 -1q-17 24 -40 46q-73 -50 -83.5 -50t-39.5 24.5t-29 33.5t67 58q-35 21 -70 33l106 75l61 -39q58 39 68 39t38.5 -24.5t28.5 -32t-51 -47.5q72 -52 96 -148t24 -225.5t-11 -154t-76 -77.5t-95 -53z
M222 103q11 0 26.5 13t22 27t6.5 116.5t-6.5 116t-22.5 27t-26.5 13.5t-26 -13t-22 -27t-6.5 -116.5t6.5 -116.5t22 -27t26.5 -13z" />
    <glyph glyph-name="ntilde" unicode="&#xf1;" horiz-adv-x="503" 
d="M197 0h-132v345q0 51 -12 79t-38 49l110 77q37 -30 55 -69q74 70 104.5 70t92 -55.5t61.5 -109.5v-193q0 -51 12 -79t38 -49l-110 -77q-72 57 -72 162v222q0 17 -18 35.5t-33.5 18.5t-57.5 -42v-384zM368.5 639.5q-61.5 -59.5 -73 -59.5t-89.5 60q-78 -60 -87 -60t-28 19
t-19 25.5t61.5 66t73 59.5t89.5 -60q78 60 87 60t28 -19t19 -25.5t-61.5 -66z" />
    <glyph glyph-name="ograve" unicode="&#xf2;" horiz-adv-x="434" 
d="M217 103q9 0 24.5 15t22.5 27q13 22 13 124t-13 125q-7 12 -22.5 27t-24.5 15t-24.5 -15t-22.5 -27q-13 -22 -13 -124t13 -125q7 -12 22.5 -27t24.5 -15zM217 -12q-29 0 -90.5 49t-75.5 73q-21 37 -21 160t21 159q14 24 75.5 73t90.5 49t90.5 -49t75.5 -73
q21 -36 21 -159t-21 -160q-14 -24 -75.5 -73t-90.5 -49zM123 685q0 10 32.5 37.5t42 27.5t61.5 -64t52 -70.5t-15 -21t-22 -14.5t-79 45.5t-72 59.5z" />
    <glyph glyph-name="oacute" unicode="&#xf3;" horiz-adv-x="434" 
d="M217 103q9 0 24.5 15t22.5 27q13 22 13 124t-13 125q-7 12 -22.5 27t-24.5 15t-24.5 -15t-22.5 -27q-13 -22 -13 -124t13 -125q7 -12 22.5 -27t24.5 -15zM217 -12q-29 0 -90.5 49t-75.5 73q-21 37 -21 160t21 159q14 24 75.5 73t90.5 49t90.5 -49t75.5 -73
q21 -36 21 -159t-21 -160q-14 -24 -75.5 -73t-90.5 -49zM311 685q0 -14 -72 -59.5t-79 -45.5t-22 14.5t-15 21t52 70.5t61.5 64t42 -27.5t32.5 -37.5z" />
    <glyph glyph-name="ocircumflex" unicode="&#xf4;" horiz-adv-x="434" 
d="M217 103q9 0 24.5 15t22.5 27q13 22 13 124t-13 125q-7 12 -22.5 27t-24.5 15t-24.5 -15t-22.5 -27q-13 -22 -13 -124t13 -125q7 -12 22.5 -27t24.5 -15zM217 -12q-29 0 -90.5 49t-75.5 73q-21 37 -21 160t21 159q14 24 75.5 73t90.5 49t90.5 -49t75.5 -73
q21 -36 21 -159t-21 -160q-14 -24 -75.5 -73t-90.5 -49zM217 640q-78 -60 -87 -60t-28 19t-19 25.5t61.5 66t72.5 59.5t72.5 -59.5t61.5 -66t-19 -25.5t-28 -19t-87 60z" />
    <glyph glyph-name="otilde" unicode="&#xf5;" horiz-adv-x="434" 
d="M217 103q9 0 24.5 15t22.5 27q13 22 13 124t-13 125q-7 12 -22.5 27t-24.5 15t-24.5 -15t-22.5 -27q-13 -22 -13 -124t13 -125q7 -12 22.5 -27t24.5 -15zM217 -12q-29 0 -90.5 49t-75.5 73q-21 37 -21 160t21 159q14 24 75.5 73t90.5 49t90.5 -49t75.5 -73
q21 -36 21 -159t-21 -160q-14 -24 -75.5 -73t-90.5 -49zM334.5 639.5q-61.5 -59.5 -73 -59.5t-89.5 60q-78 -60 -87 -60t-28 19t-19 25.5t61.5 66t73 59.5t89.5 -60q78 60 87 60t28 -19t19 -25.5t-61.5 -66z" />
    <glyph glyph-name="odieresis" unicode="&#xf6;" horiz-adv-x="434" 
d="M217 103q9 0 24.5 15t22.5 27q13 22 13 124t-13 125q-7 12 -22.5 27t-24.5 15t-24.5 -15t-22.5 -27q-13 -22 -13 -124t13 -125q7 -12 22.5 -27t24.5 -15zM217 -12q-29 0 -90.5 49t-75.5 73q-21 37 -21 160t21 159q14 24 75.5 73t90.5 49t90.5 -49t75.5 -73
q21 -36 21 -159t-21 -160q-14 -24 -75.5 -73t-90.5 -49zM192 685q0 -10 -32.5 -37.5t-41.5 -27.5t-41.5 27.5t-32.5 37.5t33 37.5t41.5 27.5t41 -27.5t32.5 -37.5zM390 685q0 -10 -32.5 -37.5t-41.5 -27.5t-41.5 27.5t-32.5 37.5t33 37.5t41.5 27.5t41 -27.5t32.5 -37.5z
" />
    <glyph glyph-name="divide" unicode="&#xf7;" horiz-adv-x="494" 
d="M55 241v118h384v-118h-384zM285 498.5q35 -29.5 35 -40t-35 -41t-45 -30.5t-45 30.5t-35 41t35.5 40t45 29.5t44.5 -29.5zM285 183.5q35 -29.5 35 -40t-35 -41t-45 -30.5t-45 30.5t-35 41t35.5 40t45 29.5t44.5 -29.5z" />
    <glyph glyph-name="oslash" unicode="&#xf8;" horiz-adv-x="424" 
d="M307 41q-65 -53 -96.5 -53t-106.5 63q-38 -63 -40 -63q-4 0 -14 9t-10 12t37 67q-31 31 -36 44q-11 25 -11 149.5t11 150t76 78.5t98 53t107 -66q40 66 42 66q4 0 14 -8.5t10 -11.5t-40 -71q29 -27 37.5 -46.5t8.5 -144t-11 -150t-76 -78.5zM212 440q-11 0 -28 -13
t-23.5 -27.5t-6.5 -131.5v-62q28 48 111 185l-3 12q-5 11 -22 24t-28 13zM212 99q11 0 28 13t23.5 27.5t6.5 92.5t-1 95l-109 -184q0 -13 20.5 -28.5t31.5 -15.5z" />
    <glyph glyph-name="ugrave" unicode="&#xf9;" horiz-adv-x="513" 
d="M80 539h132v-372q0 -17 16 -35.5t30 -18.5t58 41v385h132v-539h-102l-12 59q-75 -71 -105 -71t-89.5 55.5t-59.5 109.5v386zM162 685q0 10 32.5 37.5t42 27.5t61.5 -64t52 -70.5t-15 -21t-22 -14.5t-79 45.5t-72 59.5z" />
    <glyph glyph-name="uacute" unicode="&#xfa;" horiz-adv-x="513" 
d="M80 539h132v-372q0 -17 16 -35.5t30 -18.5t58 41v385h132v-539h-102l-12 59q-75 -71 -105 -71t-89.5 55.5t-59.5 109.5v386zM350 685q0 -14 -72 -59.5t-79 -45.5t-22 14.5t-15 21t52 70.5t61.5 64t42 -27.5t32.5 -37.5z" />
    <glyph glyph-name="ucircumflex" unicode="&#xfb;" horiz-adv-x="513" 
d="M80 539h132v-372q0 -17 16 -35.5t30 -18.5t58 41v385h132v-539h-102l-12 59q-75 -71 -105 -71t-89.5 55.5t-59.5 109.5v386zM256 640q-78 -60 -87 -60t-28 19t-19 25.5t61.5 66t72.5 59.5t72.5 -59.5t61.5 -66t-19 -25.5t-28 -19t-87 60z" />
    <glyph glyph-name="udieresis" unicode="&#xfc;" horiz-adv-x="513" 
d="M80 539h132v-372q0 -17 16 -35.5t30 -18.5t58 41v385h132v-539h-102l-12 59q-75 -71 -105 -71t-89.5 55.5t-59.5 109.5v386zM231 685q0 -10 -32.5 -37.5t-41.5 -27.5t-41.5 27.5t-32.5 37.5t33 37.5t41.5 27.5t41 -27.5t32.5 -37.5zM429 685q0 -10 -32.5 -37.5
t-41.5 -27.5t-41.5 27.5t-32.5 37.5t33 37.5t41.5 27.5t41 -27.5t32.5 -37.5z" />
    <glyph glyph-name="yacute" unicode="&#xfd;" horiz-adv-x="513" 
d="M316 539h132v-506q0 -119 -15 -148t-78.5 -82t-96.5 -53t-85 34.5t-78 79.5l103 71l10 -13q37 -47 50.5 -47t29 13t22 26t6.5 94v54q-56 -54 -83.5 -54t-90 55.5t-62.5 109.5v173q0 51 -12 79t-38 49l110 77q72 -57 72 -162v-202q0 -17 19 -35.5t33 -18.5t52 41v365z
M360 685q0 -14 -72 -59.5t-79 -45.5t-22 14.5t-15 21t52 70.5t61.5 64t42 -27.5t32.5 -37.5z" />
    <glyph glyph-name="thorn" unicode="&#xfe;" horiz-adv-x="468" 
d="M65 546q0 51 -12 78t-38 49l110 77q72 -57 72 -161v-91q60 53 86.5 53t81 -53.5t62.5 -78.5q11 -25 11 -149.5t-11 -149.5q-8 -25 -62.5 -78.5t-80.5 -53.5t-87 52v-85q0 -51 12 -79t38 -49l-110 -77q-72 57 -72 162v634zM230.5 126.5q21.5 -13.5 32.5 -13.5t23.5 13
t18.5 27t6 116.5t-6 116t-18.5 27t-23 13.5t-32 -13.5t-28.5 -23.5q-8 -17 -8 -120.5t7 -116t28.5 -26z" />
    <glyph glyph-name="ydieresis" unicode="&#xff;" horiz-adv-x="513" 
d="M316 539h132v-506q0 -119 -15 -148t-78.5 -82t-96.5 -53t-85 34.5t-78 79.5l103 71l10 -13q37 -47 50.5 -47t29 13t22 26t6.5 94v54q-56 -54 -83.5 -54t-90 55.5t-62.5 109.5v173q0 51 -12 79t-38 49l110 77q72 -57 72 -162v-202q0 -17 19 -35.5t33 -18.5t52 41v365z
M231 685q0 -10 -32.5 -37.5t-41.5 -27.5t-41.5 27.5t-32.5 37.5t33 37.5t41.5 27.5t41 -27.5t32.5 -37.5zM429 685q0 -10 -32.5 -37.5t-41.5 -27.5t-41.5 27.5t-32.5 37.5t33 37.5t41.5 27.5t41 -27.5t32.5 -37.5z" />
    <glyph glyph-name="Amacron" unicode="&#x100;" horiz-adv-x="514" 
d="M257 712q37 0 108 -65t88 -107q11 -29 11 -131v-409h-138v150h-138v-150h-138v409q0 102 11 131q17 42 88 107t108 65zM188 409v-139h138v139q0 82 -8 100.5t-27.5 39t-33.5 20.5t-33.5 -20.5t-27.5 -39t-8 -100.5zM94 769v93h325v-93h-325z" />
    <glyph glyph-name="amacron" unicode="&#x101;" horiz-adv-x="443" 
d="M405 539v-410q6 -35 47 -62l-90 -77q-13 9 -32 32t-32 47q-83 -81 -116 -81q-24 0 -77.5 53t-66.5 86t-13 142.5t13 142.5t66.5 86t77.5 53q35 0 113 -72l12 60h98zM237.5 412.5q-21.5 13.5 -32.5 13.5t-23.5 -13t-16.5 -24q-13 -18 -13 -119.5t13 -119.5
q4 -10 16.5 -23.5t23.5 -13.5t32.5 13.5t28 24.5t7.5 117q0 106 -7 118.5t-28.5 26zM59 608v93h325v-93h-325z" />
    <glyph glyph-name="Emacron" unicode="&#x112;" horiz-adv-x="487" 
d="M208 426h179v-121h-179v-184h239v-121h-377v616l138 96h223v-122h-186l-37 -26v-138zM113 769v93h325v-93h-325z" />
    <glyph glyph-name="emacron" unicode="&#x113;" horiz-adv-x="454" 
d="M414 271v-36h-242q0 -60 15 -95q5 -12 18 -24.5t27 -12.5t35 24t33 58l103 -73q-27 -50 -82.5 -87t-89.5 -37t-98.5 53t-78.5 82.5t-14 146t14 146t78.5 82.5t94.5 53t94.5 -53t78.5 -82.5t14 -144.5zM252.5 423q-15.5 13 -29 13t-30.5 -26.5t-21 -79.5h114
q-3 53 -10.5 66.5t-23 26.5zM65 608v93h325v-93h-325z" />
    <glyph glyph-name="Edotaccent" unicode="&#x116;" horiz-adv-x="487" 
d="M208 426h179v-121h-179v-184h239v-121h-377v616l138 96h223v-122h-186l-37 -26v-138zM361 840q0 -11 -35.5 -41.5t-45.5 -30.5t-45.5 30.5t-35.5 41.5t36 41t45.5 30t45 -30t35.5 -41z" />
    <glyph glyph-name="edotaccent" unicode="&#x117;" horiz-adv-x="454" 
d="M414 271v-36h-242q0 -60 15 -95q5 -12 18 -24.5t27 -12.5t35 24t33 58l103 -73q-27 -50 -82.5 -87t-89.5 -37t-98.5 53t-78.5 82.5t-14 146t14 146t78.5 82.5t94.5 53t94.5 -53t78.5 -82.5t14 -144.5zM252.5 423q-15.5 13 -29 13t-30.5 -26.5t-21 -79.5h114
q-3 53 -10.5 66.5t-23 26.5zM308 679q0 -11 -35.5 -41.5t-45.5 -30.5t-45.5 30.5t-35.5 41.5t36 41t45.5 30t45 -30t35.5 -41z" />
    <glyph glyph-name="Ecaron" unicode="&#x11a;" horiz-adv-x="487" 
d="M208 426h179v-121h-179v-184h239v-121h-377v616l138 96h223v-122h-186l-37 -26v-138zM283 838q106 44 112.5 44t18.5 -23t12 -31q0 -5 -67 -41.5t-76 -36.5t-76 36.5t-67 41.5q0 8 12.5 31t17.5 23q1 0 113 -44z" />
    <glyph glyph-name="hbar" unicode="&#x127;" horiz-adv-x="503" 
d="M-9 568v80h63q-6 20 -19 39l90 63q53 -42 66 -102h73v-80h-67v-92q62 55 90 55t89.5 -55.5t61.5 -109.5v-173q0 -51 12 -79t38 -49l-110 -77q-72 57 -72 162v202q0 17 -18 35.5t-33.5 18.5t-57.5 -42v-364h-132v568h-74z" />
    <glyph glyph-name="Itilde" unicode="&#x128;" horiz-adv-x="250" 
d="M56 0v700h138v-700h-138zM242.5 800.5q-61.5 -59.5 -73 -59.5t-89.5 60q-78 -60 -87 -60t-28 19t-19 25.5t61.5 66t73 59.5t89.5 -60q78 60 87 60t28 -19t19 -25.5t-61.5 -66z" />
    <glyph glyph-name="itilde" unicode="&#x129;" horiz-adv-x="261" 
d="M54 539h132v-346q0 -51 12 -79t38 -49l-110 -77q-72 57 -72 162v389zM248.5 639.5q-61.5 -59.5 -73 -59.5t-89.5 60q-78 -60 -87 -60t-28 19t-19 25.5t61.5 66t73 59.5t89.5 -60q78 60 87 60t28 -19t19 -25.5t-61.5 -66z" />
    <glyph glyph-name="Imacron" unicode="&#x12a;" horiz-adv-x="250" 
d="M56 0v700h138v-700h-138zM-37 769v93h325v-93h-325z" />
    <glyph glyph-name="imacron" unicode="&#x12b;" horiz-adv-x="261" 
d="M54 539h132v-346q0 -51 12 -79t38 -49l-110 -77q-72 57 -72 162v389zM-32 608v93h325v-93h-325z" />
    <glyph glyph-name="Idotaccent" unicode="&#x130;" horiz-adv-x="250" 
d="M56 0v700h138v-700h-138zM206 840q0 -11 -35.5 -41.5t-45.5 -30.5t-45.5 30.5t-35.5 41.5t36 41t45.5 30t45 -30t35.5 -41z" />
    <glyph glyph-name="dotlessi" unicode="&#x131;" horiz-adv-x="251" 
d="M54 539h132v-346q0 -51 12 -79t38 -49l-110 -77q-72 57 -72 162v389z" />
    <glyph glyph-name="IJ" unicode="&#x132;" horiz-adv-x="699" 
d="M56 0v700h138v-700h-138zM511 700h138v-397q0 -125 -20 -160t-85.5 -95t-102 -60t-94.5 43t-87 101l111 78q1 -1 8.5 -11.5t13.5 -18t15 -16.5q19 -21 32.5 -21t30.5 16.5t28.5 34.5t11.5 109v397z" />
    <glyph glyph-name="ij" unicode="&#x133;" horiz-adv-x="534" 
d="M51 539h132v-346q0 -51 12 -79t38 -49l-110 -77q-72 57 -72 162v389zM168 715.5q38 -32.5 38 -44t-38.5 -44.5t-49 -33t-48.5 32.5t-38 44t38.5 44.5t49 33t48.5 -32.5zM479 388l-1 -355q0 -126 -15 -151q-11 -26 -76 -79t-98 -53t-85 34.5t-78 79.5l103 71l11 -13
q36 -47 49.5 -47t29 13t22 26t6.5 94v337q0 51 -12 79t-38 49l110 77q72 -57 72 -162zM440 715.5q38 -32.5 38 -44t-38.5 -44.5t-49 -33t-48.5 32.5t-38 44t38.5 44.5t49 33t48.5 -32.5z" />
    <glyph glyph-name="Jcircumflex" unicode="&#x134;" horiz-adv-x="449" 
d="M261 700h138v-397q0 -125 -20 -160t-85.5 -95t-102 -60t-94.5 43t-87 101l111 78q1 -1 8.5 -11.5t13.5 -18t15 -16.5q19 -21 32.5 -21t30.5 16.5t28.5 34.5t11.5 109v397zM304 801q-78 -60 -87 -60t-28 19t-19 25.5t61.5 66t72.5 59.5t72.5 -59.5t61.5 -66t-19 -25.5
t-28 -19t-87 60z" />
    <glyph glyph-name="jcircumflex" unicode="&#x135;" horiz-adv-x="273" 
d="M218 388l-1 -355q0 -126 -15 -151q-11 -26 -76 -79t-98 -53t-85 34.5t-78 79.5l103 71l10 -13q37 -47 50.5 -47t29 13t22 26t6.5 94v337q0 51 -12 79t-38 49l110 77q72 -57 72 -162zM137 640q-78 -60 -87 -60t-28 19t-19 25.5t61.5 66t72.5 59.5t72.5 -59.5t61.5 -66
t-19 -25.5t-28 -19t-87 60z" />
    <glyph glyph-name="kcedilla" unicode="&#x137;" horiz-adv-x="503" 
d="M197 0h-132v546q0 51 -12 78t-38 49l110 77q72 -57 72 -161v-114q78 76 104 76t92 -57t68 -89q0 -23 -31.5 -78t-60.5 -84q73 -90 93 -167l-126 -88q-23 81 -48 134.5t-70 100.5v35q31 22 66 64.5t40 65.5q-28 38 -48 38q-11 0 -36.5 -21.5t-42.5 -40.5v-364zM166 -86
q0 11 45 72.5t50 61.5q7 0 26 -10.5t19 -13.5q0 -10 -60 -80q29 -27 45 -41t26 -23q19 -19 19 -27t-59.5 -55.5t-66 -47.5t-25.5 19t-19 25t60 60q-60 54 -60 60z" />
    <glyph glyph-name="kgreenlandic" unicode="&#x138;" horiz-adv-x="503" 
d="M197 0h-132v346q0 51 -12 79t-38 49l110 77q72 -57 72 -162v-52l69 50q17 12 28.5 32t11.5 38v82h132v-96q0 -51 -73 -105q33 -13 50 -53t20 -82t15.5 -83t37.5 -55l-110 -77q-29 16 -46 63.5t-22 94.5q-13 120 -54 120q-17 0 -59 -42v-224z" />
    <glyph glyph-name="Ldotaccent" unicode="&#x13f;" horiz-adv-x="445" 
d="M435 120v-120h-365v700h138v-580h227zM439 307q0 -11 -35.5 -41.5t-45.5 -30.5t-45.5 30.5t-35.5 41.5t36 41t45.5 30t45 -30t35.5 -41z" />
    <glyph glyph-name="ldot" unicode="&#x140;" horiz-adv-x="460" 
d="M65 750h132v-557q0 -51 12 -79t38 -49l-110 -77q-72 57 -72 162v600zM386 322q39 -33 39 -44.5t-39 -45.5t-50 -34t-50 34t-39 45.5t39.5 44.5t50 33t49.5 -33z" />
    <glyph glyph-name="Lslash" unicode="&#x141;" horiz-adv-x="445" 
d="M435 120v-120h-365v234q-22 -14 -26.5 -14t-31.5 20t-27 27q21 20 85 66v367h138v-271q38 25 43 25t31.5 -20t26.5 -27q-36 -33 -101 -79v-208h227z" />
    <glyph glyph-name="lslash" unicode="&#x142;" horiz-adv-x="374" 
d="M122 750h132v-317q32 21 37 21t31.5 -20t26.5 -27q-32 -29 -95 -74v-140q0 -51 12 -79t38 -49l-110 -77q-72 57 -72 162v92q-33 -22 -38 -22t-32 20t-27 27q27 25 97 75v408z" />
    <glyph glyph-name="Nacute" unicode="&#x143;" horiz-adv-x="520" 
d="M207 529l1 -43v-486h-138v428q0 84 -11.5 118t-48.5 82l120 84q29 -19 54 -65q79 65 107 65t88.5 -52.5t75.5 -74t15 -56.5v-529h-139v509q0 9 -7.5 22.5t-23 30.5t-29 17t-33.5 -15.5t-31 -34.5zM343 844q20 -38 20 -50t-81 -28t-99 -16q-4 0 -12 19t-8 24.5t71.5 47
t81.5 41.5q7 0 27 -38z" />
    <glyph glyph-name="nacute" unicode="&#x144;" horiz-adv-x="503" 
d="M197 0h-132v345q0 51 -12 79t-38 49l110 77q37 -30 55 -69q74 70 104.5 70t92 -55.5t61.5 -109.5v-193q0 -51 12 -79t38 -49l-110 -77q-72 57 -72 162v222q0 17 -18 35.5t-33.5 18.5t-57.5 -42v-384zM345 685q0 -14 -72 -59.5t-79 -45.5t-22 14.5t-15 21t52 70.5t61.5 64
t42 -27.5t32.5 -37.5z" />
    <glyph glyph-name="Eng" unicode="&#x14a;" horiz-adv-x="520" 
d="M207 529l1 -43v-486h-138v428q0 84 -11.5 118t-48.5 82l120 84q29 -19 54 -65q79 65 107 65t88.5 -52.5t75.5 -74t15 -56.5v-463q0 -124 -20 -159.5t-85.5 -95.5t-101.5 -60t-94.5 37t-87.5 87l111 78q47 -47 70 -47q13 0 30 16.5t28.5 34t11.5 109.5v443q0 22 -23.5 46
t-37 24t-33.5 -15.5t-31 -34.5z" />
    <glyph glyph-name="eng" unicode="&#x14b;" horiz-adv-x="493" 
d="M346 -197q-65 -53 -98 -53t-85 34.5t-78 79.5l103 71l10 -13q37 -47 50.5 -47t29 13t22 26t6.5 94v364q0 17 -18 35.5t-33.5 18.5t-57.5 -42v-384h-132v345q0 51 -12 79t-38 49l110 77q37 -30 55 -69q74 70 104.5 70t92 -55.5t61.5 -109.5l-1 -353q0 -126 -15 -151
q-11 -26 -76 -79z" />
    <glyph glyph-name="Omacron" unicode="&#x14c;" 
d="M232 -12q-36 0 -107.5 65.5t-88.5 106.5q-11 26 -11 131v118q0 105 11 131q17 41 88.5 106.5t107.5 65.5t107.5 -65.5t88.5 -106.5q11 -26 11 -131v-118q0 -105 -11 -131q-17 -41 -88.5 -106.5t-107.5 -65.5zM232 131q14 0 33.5 20.5t27.5 39t8 100.5v118q0 82 -8 100.5
t-27.5 39t-33.5 20.5t-33.5 -20.5t-27.5 -39t-8 -100.5v-118q0 -82 8 -100.5t27.5 -39t33.5 -20.5zM69 769v93h325v-93h-325z" />
    <glyph glyph-name="ohungarumlaut" unicode="&#x151;" horiz-adv-x="434" 
d="M217 103q9 0 24.5 15t22.5 27q13 22 13 124t-13 125q-7 12 -22.5 27t-24.5 15t-24.5 -15t-22.5 -27q-13 -22 -13 -124t13 -125q7 -12 22.5 -27t24.5 -15zM217 -12q-29 0 -90.5 49t-75.5 73q-21 37 -21 160t21 159q14 24 75.5 73t90.5 49t90.5 -49t75.5 -73
q21 -36 21 -159t-21 -160q-14 -24 -75.5 -73t-90.5 -49zM219 700q0 -16 -69.5 -68t-79.5 -52q-3 0 -13.5 10.5t-10.5 16.5t52 74.5t62 68.5q7 0 33 -21t26 -29zM389 700q0 -16 -69.5 -68t-79.5 -52q-3 0 -13.5 10.5t-10.5 16.5t52 74.5t62 68.5q7 0 33 -21t26 -29z" />
    <glyph glyph-name="OE" unicode="&#x152;" horiz-adv-x="703" 
d="M439 426h179v-121h-179v-184h239v-121h-357v51q-59 -63 -92 -63t-104.5 65.5t-88.5 106.5q-11 26 -11 131v118q0 105 11 131q17 41 88.5 106.5t108.5 65.5t115 -74l106 74h208v-122h-171l-52 -36v-128zM198.5 151.5q19.5 -20.5 34 -20.5t38 19.5t30.5 40.5v218
q0 82 -8 100.5t-27.5 39t-33.5 20.5t-33.5 -20.5t-27.5 -39t-8 -100.5v-118q0 -82 8 -100.5t27.5 -39z" />
    <glyph glyph-name="oe" unicode="&#x153;" horiz-adv-x="682" 
d="M126.5 502q61.5 49 93 49t117.5 -73q81 73 114.5 73t98 -53t78.5 -82.5t14 -144.5v-36h-242q0 -60 15 -95q5 -12 18 -24.5t27 -12.5t35 24t33 58l103 -73q-27 -50 -82.5 -87t-93 -37t-118.5 73q-83 -73 -116 -73t-94.5 49t-75.5 73q-21 37 -21 160t21 159q14 24 75.5 73z
M217 103q9 0 24.5 15t22.5 27q13 22 13 124t-13 125q-7 12 -22.5 27t-24.5 15t-24.5 -15t-22.5 -27q-13 -22 -13 -124t13 -125q7 -12 22.5 -27t24.5 -15zM480.5 423q-15.5 13 -29 13t-30.5 -26.5t-21 -79.5h114q-3 53 -10.5 66.5t-23 26.5z" />
    <glyph glyph-name="Racute" unicode="&#x154;" horiz-adv-x="534" 
d="M180 657q80 55 109 55t89.5 -52.5t75.5 -74t15 -56.5q0 -68 -11 -81q-21 -32 -65 -75q61 -58 76 -89q8 -21 17 -127.5t9 -156.5h-150q0 45 -8 141t-17.5 116t-22.5 35h-89v-292h-138v438q0 81 -11.5 113.5t-48.5 77.5l120 83q32 -21 50 -55zM208 486v-77h39q14 0 36 22
t28.5 37.5t6.5 32.5t-6.5 30.5t-18.5 30.5t-20 17q-27 0 -68 -13q3 -39 3 -80zM361 846q0 -14 -72 -59.5t-79 -45.5t-22 14.5t-15 21t52 70.5t61.5 64t42 -27.5t32.5 -37.5z" />
    <glyph glyph-name="Rcommaaccent" unicode="&#x156;" horiz-adv-x="534" 
d="M180 657q80 55 109 55t89.5 -52.5t75.5 -74t15 -56.5q0 -68 -11 -81q-21 -32 -65 -75q61 -58 76 -89q8 -21 17 -127.5t9 -156.5h-150q0 45 -8 141t-17.5 116t-22.5 35h-89v-292h-138v438q0 81 -11.5 112.5t-48.5 77.5l120 84q32 -21 50 -55zM208 486v-77h39q14 0 36 22
t28.5 37.5t6.5 32.5t-6.5 30.5t-18.5 30.5t-20 17q-27 0 -68 -13q3 -39 3 -80zM320 -64q35 -30 35 -44t-64 -78t-72 -64q-3 0 -13.5 10t-10.5 14t40 75q-40 36 -40 46.5t35.5 40.5t45 30t44.5 -30z" />
    <glyph glyph-name="rcommaaccent" unicode="&#x157;" horiz-adv-x="398" 
d="M197 0h-132v345q0 51 -12 79t-38 49l110 77q37 -30 55 -69q74 70 104 70q20 0 61 -37t48 -81l-107 -77q-1 24 -11.5 47t-18.5 23q-17 0 -59 -42v-384zM177 -64q35 -30 35 -44t-64 -78t-72 -64q-3 0 -13.5 10t-10.5 14t40 75q-40 36 -40 46.5t35.5 40.5t45 30t44.5 -30z
" />
    <glyph glyph-name="Rcaron" unicode="&#x158;" horiz-adv-x="534" 
d="M180 657q80 55 109 55t89.5 -52.5t75.5 -74t15 -56.5q0 -68 -11 -81q-21 -32 -65 -75q61 -58 76 -89q8 -21 17 -127.5t9 -156.5h-150q0 45 -8 141t-17.5 116t-22.5 35h-89v-292h-138v438q0 81 -11.5 112.5t-48.5 77.5l120 84q32 -21 50 -55zM208 486v-77h39q14 0 36 22
t28.5 37.5t6.5 32.5t-6.5 30.5t-18.5 30.5t-20 17q-27 0 -68 -13q3 -39 3 -80zM256 851q78 60 87 60t28 -19t19 -25.5t-61.5 -66t-72.5 -59.5t-72.5 59.5t-61.5 66t19 25.5t28 19t87 -60z" />
    <glyph glyph-name="rcaron" unicode="&#x159;" horiz-adv-x="398" 
d="M197 0h-132v345q0 51 -12 79t-38 49l110 77q37 -30 55 -69q74 70 104 70q20 0 61 -37t48 -81l-107 -77q-1 24 -11.5 47t-18.5 23q-17 0 -59 -42v-384zM199 690q78 60 87 60t28 -19t19 -25.5t-61.5 -66t-72.5 -59.5t-72.5 59.5t-61.5 66t19 25.5t28 19t87 -60z" />
    <glyph glyph-name="Utilde" unicode="&#x168;" horiz-adv-x="534" 
d="M484 700v-409q0 -105 -11 -131q-17 -41 -88.5 -106.5t-107.5 -65.5t-107.5 65.5t-88.5 106.5q-11 26 -11 131v145q0 81 -11.5 114t-48.5 78l120 84q32 -21 55 -81.5t23 -144.5v-195q0 -82 8 -100.5t27.5 -39t33.5 -20.5t33.5 20.5t27.5 39t8 100.5v409h138zM384.5 800.5
q-61.5 -59.5 -73 -59.5t-89.5 60q-78 -60 -87 -60t-28 19t-19 25.5t61.5 66t73 59.5t89.5 -60q78 60 87 60t28 -19t19 -25.5t-61.5 -66z" />
    <glyph glyph-name="utilde" unicode="&#x169;" horiz-adv-x="513" 
d="M80 539h132v-372q0 -17 16 -35.5t30 -18.5t58 41v385h132v-539h-102l-12 59q-75 -71 -105 -71t-89.5 55.5t-59.5 109.5v386zM373.5 639.5q-61.5 -59.5 -73 -59.5t-89.5 60q-78 -60 -87 -60t-28 19t-19 25.5t61.5 66t73 59.5t89.5 -60q78 60 87 60t28 -19t19 -25.5
t-61.5 -66z" />
    <glyph glyph-name="Umacron" unicode="&#x16a;" horiz-adv-x="534" 
d="M484 700v-409q0 -105 -11 -131q-17 -41 -88.5 -106.5t-107.5 -65.5t-107.5 65.5t-88.5 106.5q-11 26 -11 131v145q0 81 -11.5 114t-48.5 78l120 84q32 -21 55 -81.5t23 -144.5v-195q0 -82 8 -100.5t27.5 -39t33.5 -20.5t33.5 20.5t27.5 39t8 100.5v409h138zM104 769v93
h325v-93h-325z" />
    <glyph glyph-name="umacron" unicode="&#x16b;" horiz-adv-x="513" 
d="M80 539h132v-372q0 -17 16 -35.5t30 -18.5t58 41v385h132v-539h-102l-12 59q-75 -71 -105 -71t-89.5 55.5t-59.5 109.5v386zM94 608v93h325v-93h-325z" />
    <glyph glyph-name="uring" unicode="&#x16f;" horiz-adv-x="513" 
d="M80 539h132v-372q0 -17 16 -35.5t30 -18.5t58 41v385h132v-539h-102l-12 59q-75 -71 -105 -71t-89.5 55.5t-59.5 109.5v386zM298 666q0 10 -16 24t-25.5 14t-26 -14.5t-16.5 -24t16 -23.5t26 -14t26 14t16 24zM351 666q0 -19 -36.5 -52t-58.5 -33t-58.5 32.5t-36.5 52
t37 52t58.5 32.5t58 -32.5t36.5 -51.5z" />
    <glyph glyph-name="uhungarumlaut" unicode="&#x171;" horiz-adv-x="513" 
d="M80 539h132v-372q0 -17 16 -35.5t30 -18.5t58 41v385h132v-539h-102l-12 59q-75 -71 -105 -71t-89.5 55.5t-59.5 109.5v386zM258 700q0 -16 -69.5 -68t-79.5 -52q-3 0 -13.5 10.5t-10.5 16.5t52 74.5t62 68.5q7 0 33 -21t26 -29zM428 700q0 -16 -69.5 -68t-79.5 -52
q-3 0 -13.5 10.5t-10.5 16.5t52 74.5t62 68.5q7 0 33 -21t26 -29z" />
    <glyph glyph-name="longs" unicode="&#x17f;" horiz-adv-x="348" 
d="M15 395v75l50 12q0 112 11 137t76 78t95.5 53t76.5 -28.5t69 -65.5l-98 -66q-28 45 -48 45q-10 0 -23 -13t-20 -27t-7 -95v-500h-132v395h-50z" />
    <glyph glyph-name="AEacute" unicode="&#x1fc;" horiz-adv-x="728" 
d="M464 426h179v-121h-179v-184h239v-121h-377v150h-138v-150h-138v409q0 102 11 131q17 42 88 107t109.5 65t120.5 -78l110 78h198v-122h-161l-62 -46v-118zM188 409v-139h138v139q0 82 -8 100.5t-27.5 39t-33.5 20.5t-33.5 -20.5t-27.5 -39t-8 -100.5zM571 846
q0 -14 -72 -59.5t-79 -45.5t-22 14.5t-15 21t52 70.5t61.5 64t42 -27.5t32.5 -37.5z" />
    <glyph glyph-name="aeacute" unicode="&#x1fd;" horiz-adv-x="661" 
d="M537 685q0 -14 -72 -59.5t-79 -45.5t-22 14.5t-15 21t52 70.5t61.5 64t42 -27.5t32.5 -37.5zM158 -12q-21 0 -84.5 62.5t-63.5 99t77.5 99.5t160.5 100q0 28 -19 57.5t-33 29.5q-25 0 -73 -82l-103 71q28 49 83 87.5t92.5 38.5t117.5 -76q82 76 121 76q30 0 94.5 -53
t78.5 -82.5t14 -144.5v-36h-242q0 -60 15 -95q5 -12 18 -24.5t27 -12.5t35 24t33 58l103 -73q-27 -50 -82.5 -87t-93.5 -37q-22 0 -63 28.5t-76 63.5q-85 -92 -137 -92zM459.5 423q-15.5 13 -29 13t-30.5 -26.5t-21 -79.5h114q-3 53 -10.5 66.5t-23 26.5zM144 162
q0 -11 13.5 -30t23 -19t31.5 14q37 24 37 44q0 5 1 31t1 31q-34 -12 -70.5 -36t-36.5 -35z" />
    <glyph glyph-name="dotlessj" unicode="&#x237;" horiz-adv-x="273" 
d="M218 388l-1 -355q0 -126 -15 -151q-11 -26 -76 -79t-98 -53t-85 34.5t-78 79.5l103 71l10 -13q37 -47 50.5 -47t29 13t22 26t6.5 94v337q0 51 -12 79t-38 49l110 77q72 -57 72 -162z" />
    <glyph glyph-name="circumflex" unicode="&#x2c6;" horiz-adv-x="338" 
d="M169 640q-78 -60 -87 -60t-28 19t-19 25.5t61.5 66t72.5 59.5t72.5 -59.5t61.5 -66t-19 -25.5t-28 -19t-87 60z" />
    <glyph glyph-name="caron" unicode="&#x2c7;" horiz-adv-x="378" 
d="M189 690q78 60 87 60t28 -19t19 -25.5t-61.5 -66t-72.5 -59.5t-72.5 59.5t-61.5 66t19 25.5t28 19t87 -60z" />
    <glyph glyph-name="dotaccent" unicode="&#x2d9;" horiz-adv-x="272" 
d="M217 679q0 -11 -35.5 -41.5t-45.5 -30.5t-45.5 30.5t-35.5 41.5t36 41t45.5 30t45 -30t35.5 -41z" />
    <glyph glyph-name="ring" unicode="&#x2da;" horiz-adv-x="300" 
d="M192 666q0 10 -16 24t-25.5 14t-26 -14.5t-16.5 -24t16 -23.5t26 -14t26 14t16 24zM245 666q0 -19 -36.5 -52t-58.5 -33t-58.5 32.5t-36.5 52t37 52t58.5 32.5t58 -32.5t36.5 -51.5z" />
    <glyph glyph-name="tilde" unicode="&#x2dc;" horiz-adv-x="468" 
d="M351.5 639.5q-61.5 -59.5 -73 -59.5t-89.5 60q-78 -60 -87 -60t-28 19t-19 25.5t61.5 66t73 59.5t89.5 -60q78 60 87 60t28 -19t19 -25.5t-61.5 -66z" />
    <glyph glyph-name="hungarumlaut" unicode="&#x2dd;" horiz-adv-x="453" 
d="M228 700q0 -16 -69.5 -68t-79.5 -52q-3 0 -13.5 10.5t-10.5 16.5t52 74.5t62 68.5q7 0 33 -21t26 -29zM398 700q0 -16 -69.5 -68t-79.5 -52q-3 0 -13.5 10.5t-10.5 16.5t52 74.5t62 68.5q7 0 33 -21t26 -29z" />
    <glyph glyph-name="dotaccentcmb" unicode="&#x307;" horiz-adv-x="272" 
d="M217 679q0 -11 -35.5 -41.5t-45.5 -30.5t-45.5 30.5t-35.5 41.5t36 41t45.5 30t45 -30t35.5 -41z" />
    <glyph glyph-name="endash" unicode="&#x2013;" horiz-adv-x="483" 
d="M55 260v80h373v-80h-373z" />
    <glyph glyph-name="emdash" unicode="&#x2014;" horiz-adv-x="683" 
d="M55 260v80h573v-80h-573z" />
    <glyph glyph-name="quoteleft" unicode="&#x2018;" horiz-adv-x="306" 
d="M92 476q-47 41 -47 56.5t87 97.5t97 82q3 0 13.5 -10t10.5 -15.5t-47 -94.5q55 -43 55 -59t-48 -57t-61 -41t-60 41z" />
    <glyph glyph-name="quoteright" unicode="&#x2019;" horiz-adv-x="306" 
d="M214 671q47 -41 47 -56.5t-87 -97.5t-97 -82q-3 0 -13.5 10t-10.5 15.5t47 94.5q-55 43 -55 59t48 57t61 41t60 -41z" />
    <glyph glyph-name="quotesinglbase" unicode="&#x201a;" horiz-adv-x="307" 
d="M205 224q47 -41 47 -56.5t-87 -97.5t-97 -82q-3 0 -13.5 10t-10.5 15.5t47 94.5q-55 43 -55 59t48 57t61 41t60 -41z" />
    <glyph glyph-name="quotedblleft" unicode="&#x201c;" horiz-adv-x="542" 
d="M92 476q-47 41 -47 56.5t87 97.5t97 82q3 0 13.5 -10t10.5 -15.5t-47 -94.5q55 -43 55 -59t-48 -57t-61 -41t-60 41zM328 476q-47 41 -47 56.5t87 97.5t97 82q3 0 13.5 -10t10.5 -15.5t-47 -94.5q55 -43 55 -59t-48 -57t-61 -41t-60 41z" />
    <glyph glyph-name="quotedblright" unicode="&#x201d;" horiz-adv-x="542" 
d="M450 671q47 -41 47 -56.5t-87 -97.5t-97 -82q-3 0 -13.5 10t-10.5 15.5t47 94.5q-55 43 -55 59t48 57t61 41t60 -41zM214 671q47 -41 47 -56.5t-87 -97.5t-97 -82q-3 0 -13.5 10t-10.5 15.5t47 94.5q-55 43 -55 59t48 57t61 41t60 -41z" />
    <glyph glyph-name="quotedblbase" unicode="&#x201e;" horiz-adv-x="543" 
d="M205 224q47 -41 47 -56.5t-87 -97.5t-97 -82q-3 0 -13.5 10t-10.5 15.5t47 94.5q-55 43 -55 59t48 57t61 41t60 -41zM441 224q47 -41 47 -56.5t-87 -97.5t-97 -82q-3 0 -13.5 10t-10.5 15.5t47 94.5q-55 43 -55 59t48 57t61 41t60 -41z" />
    <glyph glyph-name="bullet" unicode="&#x2022;" horiz-adv-x="377" 
d="M264 345q58 -49 58 -67t-58 -68.5t-74.5 -50.5t-75.5 51t-59 68.5t59.5 66.5t75.5 49t74 -49z" />
    <glyph glyph-name="guilsinglleft" unicode="&#x2039;" horiz-adv-x="360" 
d="M305 110q0 -5 -19 -19.5t-26 -14.5t-57.5 48t-99 103.5t-48.5 72.5t48.5 72.5t99 103.5t57.5 48t26 -14.5t19 -19.5q0 -16 -110 -190q110 -174 110 -190z" />
    <glyph glyph-name="guilsinglright" unicode="&#x203a;" horiz-adv-x="360" 
d="M55 490q0 5 19 19.5t26 14.5t57.5 -48t99 -103.5t48.5 -72.5t-48.5 -72.5t-99 -103.5t-57.5 -48t-26 14.5t-19 19.5q0 16 110 190q-110 174 -110 190z" />
    <glyph glyph-name="fraction" unicode="&#x2044;" horiz-adv-x="580" 
d="M525 616l-380 -628q-12 0 -44 21t-46 39l380 628q12 0 44 -21t46 -39z" />
    <glyph glyph-name="Euro" unicode="&#x20ac;" 
d="M232 -12q-40 0 -117.5 69t-96.5 113q-11 19 -11 121v82q0 102 11 121q19 44 96.5 113t117.5 69q27 0 78 -36t92 -80l-107 -75q-9 15 -29 30.5t-35 15.5t-39.5 -24.5t-31.5 -40t-8 -36.5h250v-78h-251v-40h251v-78h-250q2 -26 7 -34q7 -20 31.5 -43.5t42 -23.5t35.5 15.5
t28 32.5l107 -75q-40 -44 -91.5 -81t-79.5 -37z" />
    <glyph glyph-name="CR" unicode="&#xe001;" horiz-adv-x="250" 
 />
    <glyph glyph-name="Acute" unicode="&#xe006;" horiz-adv-x="310" 
d="M235 844q20 -38 20 -50t-81 -28t-99 -16q-4 0 -12 19t-8 24.5t71.5 47t81.5 41.5q7 0 27 -38z" />
    <glyph glyph-name="Caron" unicode="&#xe007;" horiz-adv-x="396" 
d="M198 838q106 44 112.5 44t18.5 -23t12 -31q0 -5 -67 -41.5t-76 -36.5t-76 36.5t-67 41.5q0 8 12.5 31t17.5 23q1 0 113 -44z" />
    <glyph glyph-name="Circumflex" unicode="&#xe008;" horiz-adv-x="396" 
d="M329 773q-12 -23 -18.5 -23t-112.5 44q-112 -44 -113 -44q-5 0 -17.5 23t-12.5 31q0 5 67 41.5t76 36.5t76 -36.5t67 -41.5q0 -8 -12 -31z" />
    <glyph glyph-name="Grave" unicode="&#xe009;" horiz-adv-x="0" 
d="M136 766q-81 16 -81 28t20 50t27 38q10 0 81.5 -41.5t71.5 -47t-8 -24.5t-12 -19q-18 0 -99 16z" />
    <glyph glyph-name="commaaccent" unicode="&#xe00c;" horiz-adv-x="270" 
d="M180 -64q35 -30 35 -44t-64 -78t-72 -64q-3 0 -13.5 10t-10.5 14t40 75q-40 36 -40 46.5t35.5 40.5t45 30t44.5 -30z" />
    <glyph glyph-name="a.salt" unicode="&#xe011;" horiz-adv-x="445" 
d="M158 -12q-21 0 -84.5 62.5t-63.5 99t77.5 99.5t160.5 100q0 28 -19 57.5t-33 29.5q-25 0 -73 -82l-103 71q28 49 83 87.5t88.5 38.5t92.5 -50t73 -75q21 -40 21 -152.5t5.5 -146t46.5 -60.5l-90 -77q-13 9 -32 32t-32 47q-83 -81 -118 -81zM144 162q0 -11 13.5 -30
t23 -19t31.5 14q37 24 37 44q0 5 1 31t1 31q-34 -12 -70.5 -36t-36.5 -35z" />
    <glyph glyph-name="kcommaaccent" unicode="&#xe013;" horiz-adv-x="503" 
d="M197 0h-132v546q0 51 -12 78t-38 49l110 77q72 -57 72 -161v-114q78 76 104 76t92 -57t68 -89q0 -23 -31.5 -78t-60.5 -84q73 -90 93 -167l-126 -88q-23 81 -48 134.5t-70 100.5v35q31 22 66 64.5t40 65.5q-28 38 -48 38q-11 0 -36.5 -21.5t-42.5 -40.5v-364zM296 -64
q35 -30 35 -44t-64 -78t-72 -64q-3 0 -13.5 10t-10.5 14t40 75q-40 36 -40 46.5t35.5 40.5t45 30t44.5 -30z" />
    <glyph glyph-name="ff" unicode="&#xfb00;" horiz-adv-x="597" 
d="M197 395v-395h-132v395h-50v75l50 12q0 102 11.5 126t80 77t96 53t63 -16.5t64.5 -41.5q80 70 113.5 70t79.5 -28.5t69 -65.5l-98 -66q-28 45 -48 45q-10 0 -23 -13t-20 -27t-7 -95h142v-105h-142v-395h-132v395h-117zM197 500h117q0 58 1 78q-10 14 -27.5 29.5
t-30.5 15.5t-29.5 -13t-23.5 -26t-7 -84z" />
    <glyph glyph-name="fi" unicode="&#xfb01;" horiz-adv-x="580" 
d="M15 395v75l50 12q0 112 12 137t84 78t106.5 53t87 -28.5t78.5 -65.5l-98 -66q-42 45 -68 45q-16 0 -36 -13t-27 -25.5t-7 -96.5h298v-307q0 -51 12 -79t38 -49l-110 -77q-72 57 -72 162v245h-166v-395h-132v395h-50z" />
    <glyph glyph-name="fl" unicode="&#xfb02;" horiz-adv-x="580" 
d="M15 395v75l50 12q0 112 11 136q15 26 94 79t111.5 53t71.5 -16t71 -40l81 56v-545q0 -51 12 -79t38 -49l-110 -77q-72 57 -72 162v428q-15 14 -41 29.5t-46 15.5t-46 -13t-35 -24q-8 -17 -8 -98h142v-105h-142v-395h-132v395h-50z" />
    <glyph glyph-name="ffi" unicode="&#xfb03;" horiz-adv-x="827" 
d="M197 395v-395h-132v395h-50v75l50 12q0 104 12 128t84 77t102.5 53t70 -17.5t69.5 -44.5q91 72 128.5 72t90 -28.5t78.5 -65.5l-98 -66q-42 45 -68 45q-16 0 -36 -13t-27 -25.5t-7 -96.5h298v-307q0 -51 12 -79t38 -49l-110 -77q-72 57 -72 162v245h-166v-395h-132v395
h-135zM197 500h135q0 48 3 80q-42 45 -68 45q-16 0 -36 -13t-27 -25.5t-7 -86.5z" />
    <glyph glyph-name="ffl" unicode="&#xfb04;" horiz-adv-x="837" 
d="M197 395v-395h-132v395h-50v75l50 12q0 104 12 128t84 77t102.5 53t70 -18.5t71.5 -46.5q102 75 149 75q27 0 66 -16t71 -40l81 56v-545q0 -51 12 -79t38 -49l-110 -77q-72 57 -72 162v428q-15 14 -41 29.5t-46 15.5t-46 -13t-35 -24q-8 -17 -8 -98h142v-105h-142v-395
h-132v395h-135zM197 500h135q0 48 3 80q-42 45 -68 45q-16 0 -36 -13t-27 -25.5t-7 -86.5z" />
    <glyph glyph-name="longs_t" unicode="&#xfb05;" horiz-adv-x="720" 
d="M511 -12q-32 0 -95 55.5t-69 109.5q-4 36 -4 115v166h-50v75l50 12q-2 59 -9 90q-39 24 -61 24t-42 -13t-27 -25.5t-7 -96.5v-500h-132v395h-50v75l50 12q0 112 12 137t84 78t111 53t101 -40l30 21q72 -57 72 -162v-30h142v-105h-142v-166q0 -67 2 -92.5t16.5 -44
t27.5 -18.5t47 31l67 -68q-33 -31 -71.5 -59.5t-52.5 -28.5z" />
    </font>
</defs>
</svg>
