<?xml version="1.0" encoding="UTF-8" standalone="no"?>
<!-- Created with Inkscape (http://www.inkscape.org/) -->

<svg
   width="64.560051mm"
   height="66.199867mm"
   viewBox="0 0 64.56005 66.199867"
   version="1.1"
   id="svg868"
   inkscape:version="1.1.2 (0a00cf5339, 2022-02-04)"
   sodipodi:docname="level.svg"
   xmlns:inkscape="http://www.inkscape.org/namespaces/inkscape"
   xmlns:sodipodi="http://sodipodi.sourceforge.net/DTD/sodipodi-0.dtd"
   xmlns="http://www.w3.org/2000/svg"
   xmlns:svg="http://www.w3.org/2000/svg">
  <defs
     id="defs8" />
  <sodipodi:namedview
     id="namedview6"
     pagecolor="#ffffff"
     bordercolor="#666666"
     borderopacity="1.0"
     inkscape:pageshadow="2"
     inkscape:pageopacity="0.0"
     inkscape:pagecheckerboard="0"
     inkscape:document-units="mm"
     showgrid="false"
     inkscape:zoom="2.2100247"
     inkscape:cx="114.25212"
     inkscape:cy="157.01182"
     inkscape:window-width="1850"
     inkscape:window-height="1043"
     inkscape:window-x="0"
     inkscape:window-y="0"
     inkscape:window-maximized="1"
     inkscape:current-layer="layer1" />
  <g
     inkscape:label="Layer 1"
     inkscape:groupmode="layer"
     id="layer1"
     transform="translate(7.84782,28.500768)">
    <g
       id="Layer_2"
       data-name="Layer 2"
       transform="matrix(5.2987348,0,0,5.2987348,-1.4334823,-13.286211)">
      <g
         id="Layer_1-2"
         data-name="Layer 1">
        <path
           d="M 8,3 C 8,3 6.81,2.59 4.87,0 2.93,2.59 1.78,3 1.78,3 1.78,3 1.2,3 0,1.79 A 24,24 0 0 1 0.51,6 11.29,11.29 0 0 0 4.87,6.9 11.23,11.23 0 0 0 9.23,6 24,24 0 0 1 9.74,1.83 C 8.55,3 8,3 8,3 M 0.61,3.5 0.48,2.68 l 1,0.73 A 1.56,1.56 0 0 0 0.59,3.5 M 8.26,3.35 9.26,2.61 9.14,3.43 A 1.63,1.63 0 0 0 8.25,3.35 M 4.84,1.35 3.3,2.4 4.87,0.66 6.45,2.4 Z"
           id="path2" />
      </g>
    </g>
  </g>
</svg>
