<svg xmlns="http://www.w3.org/2000/svg" viewBox="0 0 14.05 14.05"><defs><style>.cls-1{fill:#e26969;}.cls-2{fill:none;stroke:#fff;stroke-miterlimit:10;stroke-width:0.6px;}.cls-3{fill:#fff;}</style></defs><g id="Layer_2" data-name="Layer 2"><g id="Layer_1-2" data-name="Layer 1"><path class="cls-1" d="M13.75,7A6.73,6.73,0,1,1,7,.3,6.72,6.72,0,0,1,13.75,7"/><circle class="cls-2" cx="7.03" cy="7.03" r="6.73" transform="translate(-0.66 0.73) rotate(-5.65)"/><path class="cls-3" d="M10.82,3.75c-.18-.27-.72-.87-1.28-.39-.19.16-1.12,1.18-2.21,2.38C6.59,4.86,6,4.14,6,4.13c-.38-.42-1.74.34-2.14.74L5.9,7.33c-1.33,1.49-2.54,2.85-2.66,3,.17.27.71.87,1.27.39.19-.16,1.12-1.18,2.21-2.38L8.08,9.93c.38.41,1.74-.34,2.14-.74-.1-.13-1.08-1.29-2.07-2.47,1.33-1.49,2.54-2.84,2.67-3"/></g></g></svg>