<?xml version="1.0" standalone="no"?>
<!DOCTYPE svg PUBLIC "-//W3C//DTD SVG 1.1//EN" "http://www.w3.org/Graphics/SVG/1.1/DTD/svg11.dtd" >
<svg xmlns="http://www.w3.org/2000/svg" xmlns:xlink="http://www.w3.org/1999/xlink" version="1.1">
<metadata>
Created by FontForge 20201107 at Sat Jan 10 18:53:27 2009
 By 
Copyright (c) 2009 by by Frantisek Storm. All rights reserved.
</metadata>
<defs>
<font id="Moyenage" horiz-adv-x="558" >
  <font-face 
    font-family="Moyenage"
    font-weight="400"
    font-stretch="normal"
    units-per-em="1000"
    panose-1="2 0 0 0 0 0 0 0 0 0"
    ascent="750"
    descent="-250"
    x-height="542"
    cap-height="750"
    bbox="-62 -259 1104 919"
    underline-thickness="50"
    underline-position="-100"
    unicode-range="U+0020-2122"
  />
<missing-glyph horiz-adv-x="257" 
 />
    <glyph glyph-name=".notdef" horiz-adv-x="257" 
 />
    <glyph glyph-name=".null" horiz-adv-x="0" 
 />
    <glyph glyph-name="nonmarkingreturn" horiz-adv-x="333" 
 />
    <glyph glyph-name="space" unicode=" " horiz-adv-x="257" 
 />
    <glyph glyph-name="exclam" unicode="!" horiz-adv-x="320" 
d="M237 61q-22 -22 -43.5 -43t-43.5 -42q-24 17 -46 37t-42 47q23 22 45.5 43.5t45.5 43.5q18 -27 39.5 -48t44.5 -38zM77 721q38 8 75 14.5t75 14.5q6 -29 9 -63t3 -72q0 -47 -4 -97.5t-10 -100t-14 -95t-17 -82.5l-40 -14l-40 -14q2 23 3.5 49.5t1.5 57.5q0 49 -3 104
t-8.5 108.5t-13.5 102.5t-17 87z" />
    <glyph glyph-name="numbersign" unicode="#" horiz-adv-x="623" 
d="M20 280q6 -1 17.5 -2t26 -2t30.5 -1.5t31 -0.5q2 14 5.5 42t7 59t7 59t5.5 42q-16 0 -33.5 -0.5t-33 -1.5t-28 -1.5t-19.5 -1.5q2 10 4 19t4 19q6 -2 17.5 -3t26.5 -1.5t32 -1.5t32 -1q8 73 13.5 133.5t6.5 93.5q34 5 67 10.5t66 10.5q-7 -41 -15.5 -106.5t-18.5 -142.5
h24.5h31.5t31.5 0.5t24.5 0.5q8 73 13.5 133.5t6.5 93.5q34 5 67 10.5t66 10.5q-7 -40 -16 -104.5t-17 -140.5q15 1 31.5 2t31.5 2t27 2t18 2l-4 -22l-4 -22q-13 2 -44.5 3t-60.5 3q-2 -14 -5 -41t-6 -57.5t-6.5 -58t-4.5 -40.5q16 0 33.5 0.5t32.5 1.5t27 2t17 2l-4 -22
l-4 -22q-14 2 -46 3t-61 3q-8 -81 -14 -147.5t-8 -101.5q-34 -6 -67.5 -12t-66.5 -11q3 16 7 43.5t9 63.5t10.5 78.5t11.5 88.5h-111q-9 -82 -15.5 -149t-8.5 -102q-34 -6 -67 -12t-67 -11q3 16 7 43.5t9 63t10.5 78t11.5 88.5q-31 -1 -64 -2t-47 -3q2 10 4.5 19.5t4.5 18.5
zM244 274h24h31.5t32 0.5t24.5 0.5q3 17 6 44.5t6.5 56.5t7 56.5t5.5 44.5h-112q-8 -51 -14 -102t-11 -101z" />
    <glyph glyph-name="dollar" unicode="$" horiz-adv-x="590" 
d="M311 -131q-9 -3 -18 -5.5t-19 -5.5q1 20 1.5 55t1.5 80q-59 9 -123.5 16t-118.5 9q17 31 33.5 60.5t33.5 60.5q39 -2 84.5 -7t91.5 -12v133.5t-1 115.5q-20 -22 -39.5 -43t-39.5 -43q-18 3 -39 8.5t-42 13t-41.5 16.5t-36.5 19q1 9 1 21v26v80q0 42 2.5 81.5t13.5 62.5
q21 11 42 21.5t42 21.5q13 14 25 26.5t26 26.5q20 8 40.5 15.5t43.5 15.5q-1 29 -1 53t-1 38q10 3 19.5 5.5t19.5 5.5q-1 -14 -2 -42t-2 -65q60 -10 125.5 -18t119.5 -10q-17 -30 -33.5 -60t-33.5 -61q-41 2 -87 7.5t-92 12.5q0 -20 -0.5 -39t-0.5 -37q0 -45 0.5 -81.5
t1.5 -56.5q20 22 41 43.5t41 43.5q18 -3 39.5 -9t43 -14t42 -17t36.5 -18q-1 -9 -1.5 -20t-0.5 -25q0 -23 0.5 -51t0.5 -57q0 -42 -2 -82t-10 -70q-21 -11 -42.5 -21t-41.5 -21l-54 -54q-22 -8 -45 -16l-46 -16q0 -40 0.5 -72.5t1.5 -44.5zM308 113q25 -3 49.5 -7t47.5 -9
q2 26 3.5 57t1.5 63q0 35 -1.5 69t-3.5 60q-22 10 -46.5 17.5t-50.5 12.5v-263zM277 385q0 15 -0.5 39t-0.5 54t-0.5 64t-0.5 69q-24 3 -47.5 6.5t-45.5 8.5q-2 -21 -3.5 -48t-1.5 -56q0 -30 1.5 -59t3.5 -50q44 -21 95 -28z" />
    <glyph glyph-name="ampersand" unicode="&#x26;" horiz-adv-x="657" 
d="M61 273q23 10 46.5 20t47.5 21q-29 41 -53 78t-24 70q0 40 4 79.5t10 82.5q26 14 51 26.5l51 25.5q17 18 34 36.5t35 37.5q31 -10 70.5 -18.5t81.5 -15.5t83.5 -12t77.5 -8q-18 -28 -35.5 -56t-35.5 -57q-73 6 -147 22t-137 39q-2 -14 -3 -31.5t-1 -37.5q0 -26 2 -51.5
t6 -43.5q27 -41 63.5 -91.5t78.5 -101.5t86.5 -99.5t86.5 -86.5q14 -9 35 -13.5t38 -6.5q-33 24 -73 62t-79 82t-74 90.5t-58 88.5q16 24 32.5 48.5t33.5 48.5q19 -8 43.5 -15.5t51.5 -13t55 -9.5t55 -6q-10 -26 -19.5 -53t-19.5 -53q-23 0 -49.5 2t-52 5.5t-49.5 8
t-42 10.5q17 -30 49 -70t70.5 -79.5t79 -74t74.5 -53.5q-31 -23 -58.5 -58.5t-53.5 -66.5q-22 4 -50 12.5t-48 19.5q-11 9 -21 19.5t-21 21.5q-21 -19 -41.5 -37t-40.5 -36q-30 0 -65 3t-68.5 8.5t-63.5 12.5t-49 16q-8 24 -11 58t-3 69q0 32 4 69.5t10 61.5zM378 60
q-52 51 -105.5 111t-101.5 119q0 -27 1 -55.5t3.5 -54.5t5 -47.5t5.5 -34.5q13 -5 35.5 -10.5t49 -10.5t54.5 -9.5t53 -7.5z" />
    <glyph glyph-name="parenleft" unicode="(" horiz-adv-x="368" 
d="M387 -193q-24 -14 -47.5 -28t-47.5 -28q-43 25 -86.5 65.5t-68.5 88.5q-12 22 -21 58.5t-15 82t-9 97t-3 105.5q0 93 7 168t25 137t49.5 112.5t81.5 94.5h133q-54 -48 -86.5 -92t-49.5 -98t-22 -125t-5 -173q0 -42 1.5 -84t4.5 -79.5t7.5 -69.5t10.5 -55
q9 -29 25.5 -55.5t36 -49.5t40.5 -41.5t39 -30.5z" />
    <glyph glyph-name="parenright" unicode=")" horiz-adv-x="368" 
d="M75 760q21 -12 43.5 -29t43.5 -36.5t38.5 -42.5t29.5 -47q15 -28 25.5 -77.5t16 -111.5t6.5 -130.5t-3 -135t-13.5 -125.5t-23.5 -101q-8 -22 -21.5 -46t-30 -47t-34.5 -44t-36 -37h-134q24 21 46 45t40 49t31.5 50.5t20.5 48.5q8 29 14 78t8.5 107.5t3 121.5t-3 120.5
t-9.5 104.5t-16 74q-9 23 -25.5 46t-36 43.5t-39.5 37.5t-36 28z" />
    <glyph glyph-name="asterisk" unicode="*" horiz-adv-x="458" 
d="M30 607q10 13 19.5 26t19.5 26q33 -20 65.5 -41t66.5 -41q-8 35 -14.5 69.5t-14.5 68.5q14 8 28 17t28 17l32 -12l32 -12q-20 -72 -38 -146q31 17 62 34.5t62 34.5q11 -11 23.5 -21t23.5 -21v-69q-38 -2 -77 -5t-77 -5q26 -24 52.5 -48.5t53.5 -48.5q-8 -13 -14.5 -26.5
t-14.5 -27.5q-15 -6 -30.5 -11.5t-31.5 -11.5q-15 35 -29.5 70.5t-28.5 70.5q-15 -32 -29.5 -64.5t-28.5 -64.5q-16 3 -32 5.5t-32 5.5q-10 13 -20 25.5t-20 25.5q30 25 59.5 50t59.5 50q-35 3 -71.5 6.5t-71.5 7.5z" />
    <glyph glyph-name="plus" unicode="+" horiz-adv-x="507" 
d="M196 113q4 45 6.5 87.5t2.5 87.5q-85 -1 -183 -9q5 26 8.5 52t8.5 52q44 -4 84.5 -5.5t81.5 -2.5q-1 41 -3.5 79t-5.5 78q28 4 55.5 8t55.5 8q-4 -45 -5.5 -87.5t-2.5 -85.5q45 1 90 2.5t94 5.5l-8 -52l-8 -52q-45 3 -86 5t-82 3q1 -41 2.5 -80t5.5 -79z" />
    <glyph glyph-name="comma" unicode="," horiz-adv-x="268" 
d="M154 -124q-20 -10 -41 -19t-41 -18q31 73 31 122q0 71 -58 96q24 22 47.5 44t47.5 44q27 -17 49.5 -41t31.5 -51q-3 -20 -10 -44t-16.5 -48t-20 -46t-20.5 -39z" />
    <glyph glyph-name="hyphen" unicode="-" horiz-adv-x="269" 
d="M236 307v-20q-51 -11 -102 -22.5t-102 -23.5v18zM32 392q51 15 102 29t102 29v-110q-51 -14 -102 -26.5t-102 -26.5v105v0z" />
    <glyph glyph-name="period" unicode="." horiz-adv-x="276" 
d="M230 66q-23 -23 -46 -44.5t-46 -42.5q-26 16 -49.5 36.5t-43.5 48.5l48 44t48 45q19 -28 41.5 -49t47.5 -38z" />
    <glyph glyph-name="slash" unicode="/" horiz-adv-x="534" 
d="M81 -236q-36 -5 -71.5 -10t-71.5 -10q64 116 132 242.5t134.5 254.5t130 254t117.5 242q36 5 71.5 10t71.5 10q-65 -115 -132 -240.5t-133 -254t-129 -255t-120 -243.5z" />
    <glyph glyph-name="zero" unicode="0" 
d="M505 107q-28 -13 -55.5 -25t-55.5 -25q-23 -21 -45.5 -41.5t-45.5 -40.5q-31 4 -66 12t-69 17.5t-66 21t-57 23.5q0 18 -1 51t-2 75.5t-2 91.5t-1 99q0 39 1 76.5t2.5 70.5t4 60.5t6.5 45.5q28 13 55.5 25.5t55.5 24.5l78 81q31 -5 67.5 -13.5t73 -19.5t70.5 -24t61 -25
q0 -16 0.5 -44t1 -63t1 -76t0.5 -84q0 -44 -0.5 -86.5t-2 -81t-4 -71t-5.5 -55.5zM328 584q5 3 9 7t9 7q1 -27 2.5 -72t2.5 -97.5t2 -108.5t1 -106q0 -43 -0.5 -77.5t-0.5 -57.5q6 -2 10.5 -2t10.5 -2q2 33 3 81t1 105q0 55 -1 111.5t-2.5 104t-4 81.5t-4.5 46
q-83 32 -184 49q-2 -34 -4 -85t-2 -109q0 -55 1 -111t3 -103.5t4.5 -81.5t5.5 -45q32 -12 71.5 -20t79.5 -15v30q0 29 -0.5 69t-1 85.5t-1.5 92.5t-2.5 90t-3.5 78t-4 56z" />
    <glyph glyph-name="one" unicode="1" 
d="M420 81q-21 -27 -42.5 -53.5t-41.5 -52.5q-20 9 -46.5 16.5t-56 12.5t-58 8t-52.5 5q17 16 34.5 32t35.5 32q1 19 1.5 48t0.5 64q0 55 -1.5 119t-3.5 122.5t-5.5 104.5t-7.5 65q5 3 9.5 5.5t9.5 4.5q3 -21 5 -64t3.5 -97t2.5 -113.5t1 -112.5q0 -43 -0.5 -78t-1.5 -57
q5 5 9.5 8.5t9.5 8.5q1 19 2 45.5t1.5 58t0.5 66.5v71q0 42 -0.5 84t-1 78.5t-1.5 66t-2 47.5q-14 17 -41.5 32t-48.5 23q27 17 54.5 34.5t55.5 34.5q33 -11 70 -27t69 -39q-6 -9 -10 -48.5t-6.5 -94.5t-4 -118.5t-1.5 -120.5q0 -50 1 -89.5t3 -61.5q-22 -11 -43.5 -20.5
t-43.5 -19.5q18 -2 37.5 -5.5t38.5 -7.5t36 -8.5t30 -8.5z" />
    <glyph glyph-name="two" unicode="2" 
d="M280 145q-20 -7 -38 -13t-38 -13q40 -2 82.5 -5t83.5 -7t79 -8.5t69 -8.5q-20 -29 -40.5 -57.5t-40.5 -57.5q-95 20 -206 29t-219 10q23 28 47.5 54.5t47.5 53.5h23q17 25 33 61.5t30.5 79t27 87t22.5 86t16.5 76t9.5 56.5q5 4 10.5 7.5t11.5 7.5q-9 -56 -23 -120.5
t-33 -127.5t-41.5 -119t-49.5 -94q5 0 10 -0.5t11 -0.5q28 40 54.5 96t48 120t37 130t22.5 125q-53 22 -128 36.5t-152 19.5q25 26 48.5 51t47.5 51q40 -1 87 -6.5t94.5 -14.5t91.5 -21t79 -25q-10 -72 -30 -148.5t-48 -148.5t-63 -134.5t-74 -106.5z" />
    <glyph glyph-name="three" unicode="3" 
d="M478 382v-55t-1.5 -67t-4 -68.5t-8.5 -58.5l-54 -32l-54 -32q-14 -23 -28.5 -47t-28.5 -47q-64 14 -138 21.5t-142 9.5q18 29 36 58.5t35 58.5q130 -5 243 -34q2 19 3 40.5t1 44.5q0 35 -2.5 67t-6.5 56q-38 14 -95 24.5t-119 14.5q20 24 39.5 47.5t39.5 47.5q21 0 43 -2
l44 -4q3 19 3 43q0 26 -2.5 53.5t-7.5 50.5q8 7 19 13q2 -20 3 -42.5t1 -43.5q0 -19 -1 -38t-3 -37q6 -1 11.5 -1.5t11.5 -1.5q6 24 8.5 54.5t2.5 59.5q0 19 -0.5 36t-2.5 28q-27 10 -60 17.5t-70.5 13.5t-77.5 10.5t-79 6.5q24 26 47.5 51.5t47.5 51.5q40 -2 83.5 -5.5
t87.5 -9.5t86 -14t80 -19v-12q0 -23 -1.5 -51.5t-5 -56.5t-9.5 -53t-15 -43q-27 -17 -53.5 -33.5t-52.5 -33.5q43 -7 82 -17t65 -20z" />
    <glyph glyph-name="four" unicode="4" 
d="M101 674q35 19 69.5 38t69.5 39q0 -44 -1.5 -94.5t-5 -100t-10 -95.5t-15.5 -82q-17 -10 -34.5 -20t-35.5 -19q65 -3 121 -9.5t116 -16.5q1 26 1 52.5v52.5q0 93 -1.5 162t-3.5 95q72 37 142 74q-2 -16 -3.5 -48t-2.5 -71t-1.5 -80t-0.5 -75v-138q0 -78 1.5 -150.5
t4.5 -134.5q-38 -20 -76.5 -39.5t-76.5 -38.5q7 33 10.5 101.5t5.5 166.5q-9 -13 -18.5 -26t-18.5 -27q-155 41 -330 51q15 26 30.5 51t30.5 51q3 37 3 83q0 54 -4.5 111.5t-13.5 110.5q11 5 19 10q4 -42 8.5 -88.5t4.5 -93.5q0 -36 -1 -70t-4 -63q4 0 8 -0.5t9 -0.5
q7 40 10.5 86.5t3.5 94.5q0 39 -2.5 77.5t-7.5 73.5z" />
    <glyph glyph-name="five" unicode="5" 
d="M230 750q29 -10 68 -19.5t81.5 -17t86 -13.5t80.5 -10q-14 -29 -28 -56.5t-28 -55.5q-34 2 -75 6t-83 10t-81.5 13t-70.5 15q67 -50 122.5 -105t95.5 -115.5t62.5 -125.5t23.5 -134q-26 -17 -51 -34t-51 -34q-15 -25 -30.5 -50t-30.5 -49q-35 10 -71 24.5t-69.5 32
t-63.5 38.5t-54 44q20 22 40.5 43t40.5 43q19 -14 42.5 -28t47.5 -26t48 -22t44 -16q-5 55 -30.5 110.5t-67 108t-97 100.5t-119.5 87q5 4 8.5 7.5t8.5 7.5q67 -48 123.5 -100t97.5 -106.5t64.5 -110.5t25.5 -112q6 -3 12.5 -5t12.5 -4q-1 63 -25.5 124.5t-66.5 119.5
t-98.5 111.5t-121.5 101.5q26 23 53 45t53 45q18 28 35.5 56t35.5 56z" />
    <glyph glyph-name="six" unicode="6" 
d="M166 650q17 26 33.5 50t33.5 50q33 -3 70 -9t75 -13.5t75 -16.5t69 -18l-60 -108q-29 9 -63.5 18t-71 16t-73.5 12t-71 6q-1 -15 -2 -38.5t-1.5 -50.5t-0.5 -55.5v-53.5q16 19 31.5 37.5t32.5 36.5q32 -3 68 -11t72.5 -17.5t70.5 -21t61 -21.5q0 -32 1.5 -73t1.5 -86
q0 -43 -2 -88.5t-10 -90.5q-27 -13 -54.5 -25t-54.5 -25q-23 -20 -45 -40t-45 -40q-33 4 -68.5 12t-69.5 18t-65.5 21.5t-57.5 22.5q0 18 -0.5 49.5t-1.5 71.5t-1.5 86t-0.5 93q0 78 2.5 146.5t10.5 106.5q28 13 55.5 25t55.5 24zM333 364q4 3 8 6.5t8 7.5q4 -60 6 -116
t2 -112q0 -18 -0.5 -36t-0.5 -35q5 -2 11.5 -3t12.5 -3q2 33 3 65.5t1 62.5q0 62 -3 110t-8 72q-41 11 -91.5 21.5t-102.5 17.5q0 -54 1 -104.5t2.5 -92t3.5 -70.5t5 -41q70 -19 152 -30q1 17 1 34.5v36.5q0 51 -2.5 105t-8.5 104z" />
    <glyph glyph-name="seven" unicode="7" 
d="M363 113q-28 -25 -56 -49.5t-57 -50.5q-27 33 -39.5 77t-12.5 95q0 49 10.5 102.5t30 107.5t46 106.5t59.5 100.5q-6 0 -12 0.5t-11 0.5q-78 -112 -118 -225t-40 -208q0 -57 14.5 -102.5t45.5 -77.5q-4 -4 -8 -7.5t-8 -8.5q-60 71 -60 194q0 94 38.5 206t120.5 230
q-72 4 -142 11.5t-137 17.5q18 29 36.5 58.5t36.5 58.5q45 -11 100 -18.5t114 -12.5t119.5 -7.5t114.5 -3.5q-49 -56 -90 -117.5t-71 -123t-46.5 -120.5t-16.5 -110q0 -37 9.5 -68.5t29.5 -55.5z" />
    <glyph glyph-name="eight" unicode="8" horiz-adv-x="576" 
d="M190 684l52 66q69 -4 142 -18t137 -35q2 -22 3 -47.5t1 -53.5q0 -20 -0.5 -43t-1.5 -45.5t-3 -43t-4 -35.5l-130 -42q13 -3 32 -6t39 -6t38 -6.5t27 -7.5q2 -20 2.5 -43.5t0.5 -48.5q0 -47 -2.5 -98t-7.5 -90l-125 -39l-57 -65q-69 4 -143.5 17.5t-135.5 33.5
q-2 22 -3 50.5t-1 59.5q0 22 0.5 47t2 49t3 45.5t4.5 36.5l134 40q-12 3 -31 5.5t-40 6t-40 7t-29 7.5q-2 17 -2.5 38.5t-0.5 43.5q0 44 2.5 91.5t7.5 89.5zM348 314q-20 6 -36.5 11.5t-33 10t-35 9.5t-42.5 10q-4 -29 -5.5 -68t-1.5 -71q0 -36 2.5 -69.5t6.5 -56.5
q25 -8 45 -13.5t39.5 -10t41 -8t50.5 -5.5q2 26 3 56.5t1 60.5q0 40 -1.5 75t-6.5 59l-18 6q0 -21 0.5 -52t0.5 -62.5v-59.5v-43l-12 -9q1 20 1.5 49.5t1 61.5t0 63.5t-0.5 55.5zM234 638q-2 -24 -2.5 -53t-1 -57t-0.5 -53.5v-43.5l38.5 -11t34.5 -10.5t35.5 -10.5t41.5 -10
q2 28 4 65t2 66q0 33 -2.5 63.5t-5.5 53.5q-26 7 -46 12.5t-40 10t-41.5 8t-49.5 6.5q-2 -27 -3 -55t-1 -54q0 -38 2 -70.5t6 -55.5q9 -4 17 -5q-1 15 -1.5 41.5t-0.5 56v56t1 41.5z" />
    <glyph glyph-name="nine" unicode="9" 
d="M53 621q25 11 50.5 23t51.5 23q24 20 48.5 41t47.5 42q33 -5 68.5 -12.5t69.5 -17.5t65.5 -21.5t58.5 -22.5q0 -23 0.5 -58.5t1 -79t1 -91.5t0.5 -96q0 -71 -2.5 -132.5t-10.5 -97.5q-28 -12 -55 -24.5t-55 -24.5q-16 -25 -32 -49l-32 -48q-32 10 -69.5 20t-76.5 18
t-78 13t-72 7q17 27 34.5 53.5t34.5 52.5q30 -1 66 -6t72.5 -12t71.5 -16t63 -18q2 34 3.5 90.5t1.5 119.5q-16 -19 -31.5 -38.5t-32.5 -38.5q-32 3 -69.5 11t-74.5 17.5t-70.5 20.5t-57.5 22q-1 28 -3 66.5t-2 83.5q0 44 3 89.5t11 90.5zM203 600q5 3 9 5.5t8 5.5
q-2 -32 -3.5 -67.5t-1.5 -73.5q0 -35 1.5 -68.5t3.5 -65.5q35 -8 77.5 -14t82.5 -11v45q0 41 -1 80.5t-2.5 73t-4 59.5t-4.5 41q-40 14 -88 24.5t-100 17.5q-2 -27 -3 -55.5t-1 -57.5q0 -63 3 -112t8 -74l10 -6t11 -5q-3 51 -5 100.5t-2 100.5q0 15 1 29t1 28z" />
    <glyph glyph-name="colon" unicode=":" horiz-adv-x="276" 
d="M230 66q-23 -23 -46 -44.5t-46 -42.5q-26 16 -49.5 36.5t-43.5 48.5l48 44t48 45q19 -28 41.5 -49t47.5 -38zM230 478q-23 -22 -46 -43.5t-46 -44.5q-26 17 -49.5 38t-43.5 48q24 23 48 45l48 44q19 -28 41.5 -49t47.5 -38z" />
    <glyph glyph-name="semicolon" unicode=";" horiz-adv-x="276" 
d="M230 478q-23 -22 -46 -43.5t-46 -44.5q-26 17 -49.5 38t-43.5 48q24 23 48 45l48 44q19 -28 41.5 -49t47.5 -38zM155 -124q-20 -10 -40.5 -19t-40.5 -18q31 73 31 121q0 72 -58 97q24 22 47.5 44t47.5 44q28 -17 50 -41t32 -51q-3 -20 -10.5 -44t-17 -48t-20.5 -46
t-21 -39z" />
    <glyph glyph-name="less" unicode="&#x3c;" horiz-adv-x="424" 
d="M395 236q-2 -31 -3.5 -61.5t-3.5 -61.5q-39 22 -84.5 42t-92.5 37t-94 31.5t-89 25.5q4 38 8 75t7 75q41 14 88 31t93.5 35.5t90.5 37.5t80 37q-2 -27 -3.5 -54t-3.5 -54q-23 -6 -57 -16.5t-72 -24t-76 -29t-67 -31.5q31 -15 69.5 -30t77.5 -27.5t73.5 -22.5t58.5 -15z
" />
    <glyph glyph-name="equal" unicode="=" horiz-adv-x="507" 
d="M39 482q112 -8 219.5 -7.5t225.5 7.5l-17 -103q-114 7 -221.5 7t-222.5 -7zM39 276q112 -7 219.5 -7t225.5 7l-17 -103q-114 8 -221.5 8t-222.5 -8z" />
    <glyph glyph-name="greater" unicode="&#x3e;" horiz-adv-x="424" 
d="M36 541q39 -22 84.5 -42t92.5 -37t93.5 -32t88.5 -26l-15 -149q-41 -14 -87.5 -31.5t-93 -36t-91 -37.5t-80.5 -37l8 109q22 5 56.5 15.5t72.5 24t76 29.5t67 32q-31 15 -70 29.5t-77.5 27.5t-73.5 23t-59 15z" />
    <glyph glyph-name="question" unicode="?" horiz-adv-x="466" 
d="M288 611q-24 6 -55 10t-64.5 7.5t-67.5 5.5t-64 3q9 28 18.5 56t19.5 57q40 -2 89.5 -5.5t99.5 -9.5t95.5 -13.5t76.5 -16.5q-1 -41 -0.5 -88t-0.5 -95t-3 -95t-8 -89q-29 -12 -57.5 -24.5t-57.5 -25.5q-14 -20 -27 -38.5t-27 -38.5q-15 3 -44.5 6.5t-58.5 3.5
q-18 0 -35 -0.5t-29 -2.5q4 31 7.5 62t7.5 62q11 2 24 3t28 1q23 0 49 -1.5t49 -3.5q1 12 1.5 28t0.5 33q0 49 -3.5 96t-8.5 76l10 6l10 6q1 -23 3 -62t2 -79q0 -30 -0.5 -57.5t-2.5 -47.5q6 -1 12.5 -1.5t12.5 -2.5q3 21 5 55.5t2 72.5q0 44 -2 83t-7 64zM229 61
q-22 -22 -44 -43t-43 -42q-25 17 -47 36.5t-42 46.5q23 23 46 44t46 44q17 -27 39 -48t45 -38z" />
    <glyph glyph-name="at" unicode="@" horiz-adv-x="790" 
d="M571 164q-25 -7 -49.5 -13.5t-50.5 -14.5q-15 -14 -30.5 -29t-31.5 -30q-23 3 -49 8.5t-52 12t-49 14.5t-40 17q-4 14 -5.5 41t-1.5 57q0 40 2 76t10 56q20 8 40.5 16.5t40.5 16.5l24 24t24 23q23 0 50.5 -2t45.5 -5v31v22.5t-1 15.5q-23 6 -56.5 11t-72 8.5t-78 5.5
t-72.5 2q-4 -34 -6.5 -79t-2.5 -94q0 -44 1 -87t3.5 -82t7 -71t11.5 -52q39 -10 89 -17.5t106 -12t115.5 -6.5t116.5 -2q11 58 15.5 133.5t4.5 148.5q0 68 -3.5 126t-10.5 87q27 16 54 31.5t54 30.5q9 -34 14.5 -99.5t5.5 -141.5q0 -77 -5.5 -155.5t-19.5 -135.5
q-23 -14 -47 -27t-47 -26q-13 -19 -25 -37.5t-24 -36.5q-62 0 -132 3t-138 10t-129 17t-106 24q-14 48 -20.5 117.5t-6.5 145.5q0 69 7 136.5t20 115.5l42 28l42 28q17 19 32.5 38t32.5 39q42 -1 90 -4t95.5 -8t92.5 -13t81 -18q-2 -25 -4 -62t-3.5 -79.5t-2 -87.5t-0.5 -86
q0 -29 0.5 -55.5t1.5 -47.5zM331 365q-2 -12 -3 -32t-1 -44q0 -31 2 -60.5t6 -46.5q10 -4 24 -7t29 -5.5t30 -4.5t26 -4q1 9 2.5 29.5t2 47.5t1 56.5t0.5 56.5q-11 2 -26 4.5t-31.5 4l-33 3t-28.5 2.5z" />
    <glyph glyph-name="A" unicode="A" horiz-adv-x="663" 
d="M604 681q-5 -25 -9 -76t-7 -113t-5 -129t-2 -124v-73t2 -52q11 -16 27 -29t33 -19q-22 -23 -43.5 -45.5t-44.5 -45.5q-17 3 -35.5 10t-36.5 17t-34 22.5t-28 26.5q4 21 7.5 51t5.5 67t3.5 78.5t2.5 83.5l-18 -21q-17 2 -40.5 6t-48.5 8.5t-48 10t-40 11.5v-54v-67.5
t-1 -67.5q-24 -11 -47.5 -22t-46.5 -22q29 -2 58 -8.5t64 -17.5q-23 -28 -47 -56t-47 -56q-37 17 -79 26t-88 11q14 13 28 26.5t28 26.5q2 20 3 44t1 51q0 53 -3 112t-8.5 115t-13 105t-17.5 82q5 2 10 4.5t10 4.5q9 -38 15 -90t10.5 -110.5t6.5 -118.5t2 -112
q0 -21 -0.5 -40t-1.5 -35q5 5 9 8t8 8q2 29 4.5 65t2.5 76q0 48 -2.5 98.5t-6 99t-8.5 91t-10 73.5l108 51q20 26 39.5 51.5t39.5 51.5q32 -11 75 -21.5t89.5 -19.5t92 -16.5t82.5 -11.5zM230 623q6 -59 9 -123t5 -133q12 20 24 39.5t24 39.5q15 -4 35 -7.5t41 -6.5t40.5 -5
t31.5 -2q0 80 -3 164q-23 2 -51.5 5.5t-57 8t-54.5 10t-44 10.5z" />
    <glyph glyph-name="B" unicode="B" horiz-adv-x="645" 
d="M594 373q-1 -6 -1 -12v-14q0 -15 0.5 -33t0.5 -38q0 -42 -3.5 -86.5t-15.5 -80.5q-28 -11 -55.5 -22t-55.5 -22l-69 -90q-35 8 -84.5 14.5t-102 11t-103.5 7.5t-88 4q14 13 27 26t27 26q3 32 4.5 76.5t1.5 95.5q0 47 -1.5 95.5t-4 92t-6 79.5t-8.5 57q5 2 9.5 5t9.5 5
q4 -24 6.5 -59t4 -76.5t2.5 -86.5t1 -89q0 -53 -1 -100t-3 -82q5 5 9 8t8 8q5 55 7 128.5t2 147.5q0 67 -1.5 125.5t-5.5 93.5q20 11 39.5 22.5t39.5 22.5q-44 4 -88.5 6.5t-89.5 2.5q22 27 43.5 54t42.5 54q60 0 129 -3.5t136.5 -10.5t127.5 -17t103 -23q1 -11 1.5 -23
t0.5 -26q0 -44 -6 -92.5t-19 -77.5l-105 -57q38 -8 74.5 -20.5t59.5 -26.5zM443 311q-14 6 -36.5 11.5t-49.5 10.5t-54.5 8.5t-50.5 4.5q0 -61 2 -111t4 -76q-23 -12 -45 -23.5t-45 -22.5q28 -1 64 -4t73.5 -6.5t72.5 -8.5t61 -11q4 29 5.5 61.5t1.5 65.5q0 51 -3 101z
M438 596q-36 9 -84 16t-100 12q-2 -35 -2.5 -78t-0.5 -90q0 -26 0.5 -53.5t0.5 -53.5q14 23 27.5 44.5t27.5 43.5q27 0 66 -4.5t76 -11.5q2 11 2 24v27q0 34 -3.5 67.5t-9.5 56.5z" />
    <glyph glyph-name="C" unicode="C" horiz-adv-x="531" 
d="M519 91q-17 -29 -32.5 -58t-32.5 -58q-44 2 -94.5 8t-101 15t-97.5 20.5t-83 24.5q-6 23 -11.5 57.5t-9.5 75.5t-6 86.5t-2 90.5q0 71 5.5 134.5t18.5 105.5q26 14 51.5 28t51.5 28q19 25 37.5 50t37.5 51q32 -9 69 -15.5t76 -11t78 -8t74 -4.5q-15 -32 -30 -63t-31 -62
q-32 1 -69 3.5t-74.5 7.5t-73 11.5t-63.5 15.5q-7 -53 -10 -112.5t-3 -119.5q0 -79 5 -148t16 -108q4 -2 10.5 -4t11.5 -4q-7 58 -11 126.5t-4 139.5q0 51 2.5 99t7.5 92q5 2 10.5 5.5t10.5 5.5q-8 -45 -12.5 -108.5t-4.5 -132.5q0 -64 3.5 -124.5t11.5 -107.5
q57 -12 129.5 -20t138.5 -12z" />
    <glyph glyph-name="D" unicode="D" horiz-adv-x="647" 
d="M103 93q5 55 7 128.5t2 147.5q0 67 -1.5 125.5t-5.5 93.5q20 11 39 22t39 22q-45 5 -90 7.5t-87 2.5q22 27 43.5 54t42.5 54q57 0 127.5 -4t140 -11t131 -17t100.5 -23v-18q0 -24 1 -58t2.5 -73.5t2.5 -83.5t1 -88q0 -76 -5 -144.5t-19 -113.5l-111 -45
q-18 -25 -36 -48.5t-35 -47.5q-33 7 -81.5 13.5t-101.5 11.5t-104 8t-88 4q14 13 27 26t27 26q3 32 4.5 76.5t1.5 94.5q0 47 -1.5 96t-4 92.5t-6 79.5t-8.5 57q5 2 9.5 5t9.5 5q4 -24 6.5 -59t4 -76.5t2.5 -86.5t1 -89q0 -53 -1 -100t-3 -82q5 5 9 8t8 8zM436 596
q-32 8 -80.5 15t-100.5 12q-2 -45 -3 -103t-1 -118q0 -38 0.5 -75t1 -69t2 -57.5t3.5 -41.5q-23 -12 -45.5 -24t-45.5 -23q31 -1 66.5 -2.5t71.5 -4.5t70.5 -6.5t63.5 -8.5q7 44 9.5 106.5t2.5 128.5q0 42 -1 83t-3 76.5t-5 64.5t-6 47z" />
    <glyph glyph-name="E" unicode="E" horiz-adv-x="541" 
d="M105 588q20 12 41 23.5t41 23.5q-39 2 -77.5 3.5t-74.5 1.5h-29q22 28 43 55t43 55q22 1 46.5 1h50.5q43 0 89 -1.5t91 -4.5t87.5 -7.5t77.5 -9.5q-11 -33 -22.5 -66.5t-22.5 -66.5q-48 11 -109 19.5t-125 13.5q-1 -23 -2 -51t-2 -57.5t-1.5 -58.5t-0.5 -54
q9 15 17.5 29.5t17.5 29.5q42 -11 96.5 -17t99.5 -6l-42 -138q-22 3 -46.5 7t-49.5 8.5t-48.5 10.5t-42.5 12q1 -59 3.5 -108t4.5 -76q-26 -10 -51 -19.5t-50 -19.5h26q38 0 82.5 -2t89 -5t87 -7.5t77.5 -9.5q-16 -31 -31.5 -61t-31.5 -60q-42 7 -98.5 13.5t-116.5 11
t-119 8t-106 4.5q14 13 27 26t27 26q3 31 4.5 72.5t1.5 89.5t-1.5 98t-4 95t-6 82t-8.5 59q5 3 9.5 6t9.5 6q3 -22 5.5 -52.5t5 -67t3.5 -76.5t1 -80q0 -63 -1 -120t-4 -99q5 5 9 8t8 8q5 46 6.5 105.5t1.5 121.5q0 83 -2 147.5t-4 120.5z" />
    <glyph glyph-name="F" unicode="F" horiz-adv-x="513" 
d="M105 588q20 12 41 23.5t41 23.5q-38 2 -76 3.5t-75 1.5h-30q22 28 43 55t43 55q22 1 49 1h55q42 0 88.5 -1.5t91 -4.5t85.5 -7.5t73 -9.5q-11 -33 -22.5 -66.5t-22.5 -66.5q-47 11 -107 19.5t-128 14.5q-2 -45 -3 -104l-2 -118q9 15 17.5 29.5t17.5 28.5
q42 -12 95.5 -16.5t100.5 -5.5q-11 -35 -21 -69.5t-21 -69.5q-22 3 -46.5 6.5t-49.5 8.5t-48.5 11t-42.5 12q1 -60 3.5 -108t4.5 -75q-26 -11 -52 -20.5t-52 -19.5q30 -3 61 -10t65 -18q-24 -29 -48.5 -58t-48.5 -58q-36 17 -78.5 26t-88.5 11q14 13 27 26t27 26
q2 32 4 79.5t2 100.5q0 47 -1.5 94.5t-4 89.5t-6.5 76.5t-8 55.5q5 3 9.5 6t9.5 6q4 -25 6.5 -61t4.5 -78t3 -88t1 -91q0 -51 -1.5 -97t-3.5 -80q5 5 9 8t8 8q5 52 7 121t2 140q0 70 -2.5 128t-4.5 106z" />
    <glyph glyph-name="G" unicode="G" horiz-adv-x="610" 
d="M258 750q31 -8 70 -13.5t80 -9.5t82 -7t77 -4q-13 -29 -25.5 -57.5t-25.5 -57.5q-33 1 -75 4.5t-85 8.5t-83 10.5t-68 11.5q-7 -48 -10 -104.5t-3 -115.5q0 -46 1 -90t3.5 -83t6.5 -70.5t9 -50.5q4 -3 9 -5.5t10 -4.5q-8 58 -12.5 137.5t-4.5 163.5q0 52 2.5 101t7.5 88
q5 3 9.5 5.5t9.5 4.5q-8 -41 -11 -105t-3 -135q0 -78 4 -149.5t12 -117.5q41 -9 88.5 -15.5t95.5 -8.5q-5 43 -8 97.5t-3 108.5q0 63 6 113q-20 3 -43 6.5t-45.5 8t-43.5 10t-39 11.5q25 20 49.5 40t49.5 40q24 -8 51.5 -14.5t56.5 -12t57.5 -9t54.5 -6.5q-8 -48 -10.5 -98
t-2.5 -99q0 -48 1.5 -92t6.5 -76q-30 -14 -60 -26t-60 -26q-16 -20 -31.5 -41t-30.5 -41q-40 3 -81.5 9.5t-82 16.5t-78 21.5t-69.5 24.5q-6 24 -10.5 56.5t-7.5 71t-5 80.5t-2 84q0 80 7 153t22 123q28 14 55 28t55 28q17 20 35 39.5t35 39.5z" />
    <glyph glyph-name="H" unicode="H" horiz-adv-x="649" 
d="M284 750q31 -8 71.5 -15t84 -12.5t87 -9.5t81.5 -5q-18 -28 -36 -55.5t-36 -54.5q-37 1 -77.5 3.5t-80 6t-76.5 8.5t-67 11q6 -85 9 -172q20 20 41 39t41 39q28 -3 64 -9.5t73 -15.5t71.5 -19.5t60.5 -20.5q-5 -15 -8 -41.5t-5 -60t-3 -70.5t-1 -72q0 -45 1.5 -81
t4.5 -52q9 -11 20 -18.5t28 -15.5q-21 -21 -42.5 -41.5t-42.5 -40.5q-32 9 -63.5 26t-54.5 41q-1 9 -1 21.5v27.5q0 35 1 79.5t2.5 88t4 80.5t5.5 57q-19 7 -43.5 14t-51 13t-53 10.5t-49.5 8.5q1 -26 1 -51.5v-51.5q0 -94 -3 -187q-24 -10 -47.5 -19.5t-47.5 -19.5
q29 -2 59 -9t65 -17l-48 -56t-47 -56q-36 17 -79 26t-88 11q14 13 27 26t27 26q2 25 3.5 56.5t1.5 68.5q0 54 -2.5 112.5t-6.5 112.5t-9.5 98.5t-11.5 69.5q9 3 19 8q5 -29 9.5 -75t7.5 -100t5 -112t2 -110q0 -33 -0.5 -63t-2.5 -53q4 5 8 8t9 8q3 34 4.5 77t1.5 91t-1 98
t-3.5 96t-5.5 84t-6 64q31 14 61 27.5t62 27.5q19 23 37.5 46t38.5 46z" />
    <glyph glyph-name="I" unicode="I" horiz-adv-x="332" 
d="M283 87q-23 -28 -47 -56l-48 -56q-36 17 -80 26t-90 11q14 13 27 26t27 26q3 32 4.5 75.5t1.5 93.5q0 47 -1.5 95.5t-4 92t-6.5 79.5t-9 57q5 2 10 5t10 5q4 -25 6.5 -61t4 -78t2.5 -87.5t1 -90.5q0 -50 -1 -94.5t-3 -78.5q4 5 8 8t9 8q5 55 6.5 128.5t1.5 146.5
q0 66 -1.5 123.5t-4.5 92.5q17 11 35 21.5t35 21.5q-45 7 -90 11t-80 5q22 26 43.5 53t42.5 54q58 -2 124.5 -7t129.5 -16l-90 -111q-2 -35 -3.5 -89.5t-1.5 -114.5q0 -39 0.5 -77t1.5 -71.5t2.5 -60.5t3.5 -44q-50 -23 -104 -46q29 -2 61 -9t67 -17z" />
    <glyph glyph-name="J" unicode="J" horiz-adv-x="449" 
d="M385 143q-33 -18 -65.5 -36.5t-65.5 -36.5q-20 -24 -39.5 -47.5t-39.5 -47.5q-57 31 -104.5 71t-91.5 89q20 25 41 49.5t42 49.5q32 -32 66.5 -59.5t70.5 -48.5q2 26 3 63.5t1 76.5q0 42 -1.5 84t-4.5 79.5t-7.5 70t-10.5 55.5q10 5 19 11q8 -53 13 -129t5 -156
q0 -45 -1.5 -89t-3.5 -76q5 -4 11 -7t11 -6q2 42 3 96.5t1 111.5q0 83 -2 156t-7 116q17 11 35.5 21.5t35.5 20.5q-22 3 -53.5 6.5t-64.5 5.5t-63.5 4t-50.5 2q22 26 43 53t43 54q33 -1 75 -3t85.5 -5t84 -7.5t71.5 -10.5l-90 -111q-2 -25 -3 -72.5t-1 -103.5q0 -43 0.5 -87
t2 -83t3.5 -71.5t4 -52.5z" />
    <glyph glyph-name="K" unicode="K" horiz-adv-x="661" 
d="M569 481l-51 -25.5t-51 -24.5q39 -10 76.5 -23.5t63.5 -26.5q-6 -15 -10 -36.5t-6 -47t-3 -53t-1 -53.5q0 -29 1.5 -55t4.5 -44q9 -11 20.5 -19t28.5 -15l-44 -42t-44 -41q-32 9 -63.5 25.5t-55.5 42.5q0 7 -0.5 14.5t-0.5 15.5q0 28 1.5 60.5t3.5 65t5.5 62.5t7.5 53
q-15 8 -39.5 15t-52.5 12.5t-56.5 10t-51.5 6.5q0 -61 2.5 -116t4.5 -83q-50 -23 -104 -46q29 -2 59.5 -9t65.5 -17l-48 -56t-47 -56q-37 17 -79 26t-88 11q14 13 27 26t27 26q2 26 4 60t2 73q0 50 -1 104t-3.5 103t-6.5 89.5t-10 64.5q5 2 10 5l10 6q3 -24 6 -60t5 -78
t3 -87.5t1 -89.5q0 -51 -1.5 -96.5t-3.5 -80.5q4 5 8 8t9 8q5 55 6.5 128.5t1.5 146.5q0 65 -2 118t-4 100q17 11 35 21.5t35 20.5q-45 7 -90 11t-80 6q22 26 43.5 52.5t42.5 52.5q58 -2 119 -6.5t109 -14.5q-16 -18 -31.5 -36.5t-31.5 -36.5q-5 -72 -5.5 -150.5
t-0.5 -142.5l72 90q27 -2 60.5 -6.5t66.5 -11.5q5 27 7.5 58t2.5 61q0 35 -4 65t-16 55q38 20 75 40l74 40q4 -14 7.5 -33.5t3.5 -41.5q0 -24 -2 -50.5t-6 -52.5t-10 -50.5t-13 -44.5z" />
    <glyph glyph-name="L" unicode="L" horiz-adv-x="526" 
d="M20 12q14 13 27 26t27 26q2 29 3.5 69.5t1.5 86.5q0 48 -1 98.5t-3.5 96t-6.5 83t-9 60.5q5 2 10 5l10 6q3 -21 5.5 -50.5t4.5 -64t3 -73t1 -77.5q0 -64 -1.5 -124t-3.5 -103q5 5 9 8t9 8q4 56 6 130t2 149q0 65 -1.5 122t-5.5 92q18 11 36 21.5t35 20.5q-45 7 -90 11
t-80 6q22 26 43 52.5t43 52.5q58 -2 124.5 -7t128.5 -16q-23 -28 -44.5 -55.5t-44.5 -55.5q-2 -29 -3 -73.5t-1 -95.5v-85t1 -82t2.5 -70.5t3.5 -50.5q-25 -11 -50.5 -20t-50.5 -19q40 0 87 -2t93.5 -5t90.5 -7.5t80 -9.5q-5 75 -21.5 139t-47.5 121q11 3 25 8
q28 -62 43.5 -123.5t25.5 -137.5q-6 -3 -11.5 -5.5t-11.5 -5.5q-15 -29 -29.5 -58.5t-29.5 -58.5q-44 7 -100.5 13.5t-115.5 11.5t-116 8t-102 4z" />
    <glyph glyph-name="M" unicode="M" horiz-adv-x="922" 
d="M903 66q-23 -23 -44.5 -45.5t-43.5 -45.5q-17 3 -35.5 10t-36.5 17t-34.5 22.5t-28.5 26.5q6 28 9.5 71.5t6 94.5t3.5 105.5t1 105.5q0 48 -1 90t-2 71q-33 3 -75.5 10t-75.5 15q-3 -27 -5 -67t-3.5 -86.5t-2 -96.5t-0.5 -96q0 -60 1 -108t3 -74q13 -21 36 -32
q-22 -20 -43.5 -39.5t-43.5 -39.5q-32 13 -62 30t-53 42q6 23 10.5 62.5t7 87.5t3.5 102t1 105q0 58 -1 108.5t-2 82.5q-39 4 -82.5 10t-78.5 16q8 -81 11 -165t3 -169v-65t-1 -65q-24 -11 -47.5 -22t-47.5 -22q29 -2 57.5 -8.5t64.5 -17.5q-24 -28 -47.5 -56t-47.5 -56
q-36 17 -78.5 26t-88.5 11q14 13 28.5 26.5t28.5 26.5q2 23 3.5 52.5t1.5 61.5q0 52 -3 109t-8 110.5t-13 100t-17 77.5q5 2 10 4.5t10 4.5q7 -35 13.5 -84t10.5 -103.5t6.5 -111t2.5 -107.5q0 -59 -3 -102q4 5 8 8t9 8q3 31 4.5 68t1.5 78q0 48 -2 98.5t-5 98t-7.5 89
t-10.5 72.5l108 48q20 26 39 52.5t39 52.5q56 -23 128 -39.5t143 -25.5q11 17 21 32.5t21 32.5q64 -24 137.5 -41t149.5 -28q-3 -17 -6 -48t-6 -70.5t-5 -85t-3.5 -92t-2.5 -91.5t-1 -83q0 -32 0.5 -57.5t2.5 -41.5q11 -17 27 -28.5t33 -17.5z" />
    <glyph glyph-name="N" unicode="N" horiz-adv-x="661" 
d="M603 681q-5 -26 -9.5 -80.5t-7.5 -121.5t-5 -137.5t-2 -127.5q0 -32 0.5 -57t2.5 -41q11 -17 27 -30.5t33 -19.5q-22 -23 -44 -45.5t-44 -45.5q-17 3 -35.5 10t-36.5 17t-34.5 22.5t-28.5 26.5q6 28 9.5 71.5t6 94.5t3.5 105.5t1 105.5q0 48 -1 89.5t-2 70.5
q-21 2 -49 5.5t-57 8t-55.5 9.5t-43.5 10q8 -81 11 -165t3 -169v-65t-1 -65q-24 -11 -47.5 -22t-47.5 -22q29 -2 57.5 -8.5t64.5 -17.5q-24 -28 -47.5 -56t-47.5 -56q-36 17 -78.5 26t-88.5 11q14 13 28.5 26.5t28.5 26.5q2 23 3.5 52.5t1.5 61.5q0 52 -3 109t-8 110.5
t-13 100t-17 77.5q5 2 10 4.5t10 4.5q7 -35 13.5 -84t10.5 -103.5t6.5 -111t2.5 -107.5q0 -59 -3 -102q4 5 8 8t9 8q3 31 4.5 68t1.5 78q0 48 -2 98.5t-5 98t-7.5 89t-10.5 72.5l108 48q20 26 39.5 52.5t39.5 52.5q30 -11 73 -21.5t90 -19.5t93 -16.5t82 -11.5z" />
    <glyph glyph-name="O" unicode="O" horiz-adv-x="613" 
d="M538 104q-30 -12 -59.5 -23.5t-59.5 -22.5q-18 -21 -35.5 -42t-35.5 -41q-30 3 -67 11t-74.5 18.5t-72.5 23t-62 24.5q-9 61 -16 140t-7 160q0 72 7 139.5t24 121.5l117 57q17 20 32.5 40t32.5 40q32 -2 71 -8.5t78 -15.5t76.5 -19.5t66.5 -22.5q0 -54 4.5 -139t4.5 -178
q0 -72 -5 -140.5t-20 -122.5zM407 77q5 32 8 85.5t3 115.5q0 46 -1.5 94.5t-3.5 92.5t-5.5 81.5t-6.5 63.5q-20 7 -45 13.5t-51 12t-51.5 10t-46.5 7.5q-8 -45 -11.5 -103t-3.5 -121q0 -44 1.5 -87.5t4.5 -83t6.5 -73.5t8.5 -59q2 -3 8 -6.5t9 -5.5q-7 60 -11 136t-4 157
q0 51 2 102.5t7 100.5q5 2 9.5 5t9.5 5q-8 -48 -11 -111.5t-3 -132.5q0 -75 3.5 -145.5t11.5 -123.5q16 -5 37 -9.5t43 -9t44 -7.5t39 -4z" />
    <glyph glyph-name="P" unicode="P" horiz-adv-x="603" 
d="M103 93q5 54 6.5 125.5t1.5 143.5q0 69 -1.5 129.5t-5.5 95.5q20 11 39.5 22.5t39.5 22.5q-45 5 -90.5 7.5t-86.5 2.5q22 27 43.5 54t42.5 54q64 0 132 -5t132 -13t121 -20t101 -26q2 -20 3.5 -46.5t1.5 -55.5q0 -28 -1.5 -57t-5.5 -55.5t-10 -48.5t-15 -37l-102 -54
q-12 -20 -23.5 -39t-23.5 -39q-34 1 -76 6t-73 11l2 -64t3 -49q-26 -11 -52 -22.5t-52 -22.5q29 -3 59 -9.5t66 -16.5l-48 -56l-48 -56q-36 17 -78 26t-88 11q14 13 27 26t27 26q3 32 4.5 76.5t1.5 95.5q0 47 -1.5 95t-4 91.5t-6 79.5t-8.5 57q5 3 9.5 5.5t9.5 5.5
q4 -23 6.5 -57t4 -73.5t2.5 -83.5t1 -87q0 -56 -1.5 -106t-3.5 -86q5 5 9 8t9 8zM434 593q-32 8 -79.5 15.5t-100.5 13.5q-2 -40 -3 -88.5t-1 -96.5q0 -24 0.5 -47t0.5 -43q4 6 8.5 13t8.5 13q38 -11 84.5 -19.5t89.5 -10.5q4 17 5.5 38.5t1.5 46.5q0 24 -1.5 49t-3.5 47.5
t-4.5 40t-5.5 28.5z" />
    <glyph glyph-name="Q" unicode="Q" horiz-adv-x="613" 
d="M626 -56q-29 -22 -57.5 -44t-57.5 -45q-41 30 -96 59t-114.5 55t-119 47t-109.5 35q-8 60 -15.5 135.5t-7.5 153.5q0 75 7 145.5t25 127.5q29 14 58 29t58 29q17 20 32.5 39.5t32.5 39.5q32 -2 71 -8.5t78.5 -15.5t76.5 -19.5t67 -22.5v-49q0 -44 4 -100.5t3 -118.5
q0 -79 -5 -157t-23 -138q-32 -11 -65 -22.5t-65 -23.5q7 49 10 114t3 134q0 43 -1 85t-3 80.5t-5 70t-7 53.5q-42 14 -95 23.5t-98 15.5q-8 -41 -11.5 -99t-3.5 -121q0 -44 1.5 -88t4.5 -83.5t6.5 -73.5t7.5 -58q5 -2 8.5 -3t8.5 -3q-6 57 -11 134t-5 157q0 55 2 106t9 91
q5 2 9.5 5t9.5 6q-8 -38 -11.5 -97.5t-3.5 -125.5q0 -39 1 -78t2.5 -76t4.5 -69.5t6 -57.5q40 -13 88.5 -31t99 -40t100.5 -48t95 -54z" />
    <glyph glyph-name="R" unicode="R" horiz-adv-x="653" 
d="M563 461q-23 -11 -46.5 -21.5t-46.5 -21.5q38 -8 73 -21t57 -26q-10 -29 -14.5 -77.5t-4.5 -98.5q0 -31 1.5 -58.5t4.5 -47.5q15 -21 48 -34l-42 -40l-42 -40q-32 9 -64 26t-55 42q-1 13 -1 27v28q0 27 1 56t3.5 57t5.5 53.5t7 44.5q-11 8 -35 14.5t-53 12t-58 9.5t-50 6
q0 -60 1.5 -112t4.5 -80q-26 -12 -51.5 -23.5t-51.5 -22.5q29 -3 57 -9t63 -17q-23 -28 -45.5 -56t-45.5 -56q-36 17 -78.5 26t-88.5 11q14 13 27 26t27 26q3 29 4.5 71.5t1.5 90.5t-1 98t-3.5 95t-6.5 81.5t-9 58.5q5 3 9.5 5.5t9.5 5.5q3 -23 6 -56.5t5 -73t3 -82.5t1 -86
q0 -56 -1 -107t-4 -88q5 5 9 8t8 8q4 54 6.5 127t2.5 145q0 69 -2 128t-5 94q20 11 39 22.5t38 22.5q-48 5 -93.5 7t-82.5 3q22 27 43.5 54t42.5 54q60 0 131.5 -3.5t141.5 -10.5t130.5 -17t96.5 -22q3 -18 3 -49q0 -24 -1.5 -51.5t-5.5 -53.5t-10 -47.5t-15 -34.5zM252 356
q14 20 28 40.5t28 40.5q32 -2 71.5 -6t75.5 -11v12q0 20 -1.5 43t-3.5 45.5t-6 42.5t-8 35q-28 8 -77.5 14t-104.5 11q-2 -43 -2.5 -98.5t-0.5 -106.5v-32.5t1 -29.5z" />
    <glyph glyph-name="S" unicode="S" horiz-adv-x="590" 
d="M301 139q-4 -3 -8.5 -5.5t-8.5 -5.5q2 44 3 85.5t1 85.5q0 17 -0.5 34.5t-0.5 35.5q-22 -22 -44 -43t-44 -43q-18 3 -39 8.5t-42.5 13t-42 16.5t-36.5 19q1 9 1 21v26v80q0 42 2.5 81.5t13.5 62.5q26 13 51.5 26t51.5 25l30 44l30 44q34 -8 76.5 -15.5t87 -13.5t88.5 -10
t82 -6q-17 -30 -33.5 -60.5t-33.5 -60.5q-35 1 -73 5.5t-77 10t-76.5 12.5t-71.5 14q-3 -22 -4.5 -49t-1.5 -56q0 -30 1.5 -58.5t4.5 -49.5q20 -10 46.5 -17t52.5 -11q-2 57 -2.5 102.5t-1.5 99.5q5 3 9.5 5.5t9.5 5.5q-2 -33 -3 -72t-1 -82v-54q23 22 46 43.5t46 43.5
q18 -3 39.5 -9t43 -14t42 -17t36.5 -18q-1 -9 -1.5 -20t-0.5 -25q0 -23 0.5 -51t0.5 -57q0 -42 -2 -82t-10 -70q-26 -13 -52 -25.5t-52 -24.5q-15 -23 -30.5 -45t-30.5 -44q-34 9 -77 16t-88 12.5t-90 9t-83 5.5q17 31 33.5 61t33.5 60q34 -1 72 -5t76.5 -9.5t76.5 -12.5
t73 -14q2 24 3.5 54t1.5 61q0 36 -1.5 70.5t-4.5 62.5q-21 10 -48 17.5t-53 12.5q0 -34 0.5 -68.5t0.5 -65.5t0.5 -57.5t1.5 -45.5z" />
    <glyph glyph-name="T" unicode="T" horiz-adv-x="521" 
d="M195 563l34 18t34 19q-69 8 -133 19t-119 25q18 26 35.5 52.5t34.5 53.5q50 -8 107.5 -13.5t118.5 -8.5t123 -4.5t121 -1.5q-6 -35 -12.5 -69t-12.5 -69q-45 0 -90.5 2t-91.5 6q-1 -32 -1.5 -69.5t-0.5 -78.5q0 -43 0.5 -86.5t1.5 -81.5t2.5 -68.5t3.5 -48.5
q-50 -23 -104 -46q29 -2 62.5 -9t65.5 -17q-24 -28 -47.5 -56t-47.5 -56q-37 17 -74 26t-83 11q11 13 21 25.5t21 24.5q2 30 3 65t1 72q0 36 -1.5 72t-4 69.5t-6.5 62.5t-8 51q5 3 9.5 5.5t9.5 5.5q7 -57 10 -133.5t3 -155.5q0 -26 -0.5 -51t-1.5 -49q5 5 8 9t8 9
q5 57 7 132t2 147q0 58 -2 108t-6 82zM148 454q-20 -14 -34.5 -17.5t-31.5 -3.5q-23 0 -42 11t-32 29t-20 41t-7 48q0 24 6 45.5t24 36.5q-12 -35 -12 -66q0 -29 9 -53.5t24.5 -42t35.5 -27t43 -9.5q8 0 17.5 1.5t19.5 6.5z" />
    <glyph glyph-name="U" unicode="U" horiz-adv-x="661" 
d="M591 105q8 -12 24.5 -25.5t30.5 -18.5q-23 -22 -44.5 -43.5t-44.5 -42.5q-32 12 -63 36t-52 51l-69 -87q-41 1 -87.5 5t-93.5 10t-91 14t-81 17q13 13 26.5 26t26.5 26q3 33 4.5 78t1.5 96q0 45 -1.5 91.5t-4 88.5t-6 76t-8.5 55q5 2 10 5l10 6q3 -24 6 -58.5t4.5 -74.5
t2.5 -83.5t1 -86.5q0 -51 -1.5 -98t-3.5 -82q5 5 9 8t9 8q4 55 6 127t2 144q0 66 -1.5 122t-5.5 91l36 22t35 22q-45 7 -90 11t-80 5q21 26 42.5 52t43.5 52q58 -2 124.5 -6t128.5 -16q-23 -28 -44.5 -55t-44.5 -55q-2 -38 -3.5 -97.5t-1.5 -123.5q0 -36 0.5 -71t1 -66
t2 -56.5t3.5 -41.5q-26 -10 -51.5 -19.5t-50.5 -20.5q27 -8 60.5 -14.5t70 -12.5t74 -10t72.5 -5q-2 25 -2 57v69q0 63 1.5 134t4 135.5t6 116t7.5 76.5q39 20 78.5 40.5t79.5 41.5q-8 -22 -13.5 -66.5t-9.5 -102t-6 -122t-2 -126.5q0 -74 3 -135t9 -93z" />
    <glyph glyph-name="V" unicode="V" horiz-adv-x="650" 
d="M323 727q-13 -17 -26 -32t-26 -32q4 -46 6 -105.5t2 -123.5q0 -78 -3 -153t-8 -131q-4 -3 -7.5 -5.5t-7.5 -4.5q6 43 9 108t3 137q0 75 -3 144t-9 117q-5 -6 -9.5 -11.5t-9.5 -11.5q3 -56 5 -124t2 -139q0 -61 -1.5 -119t-6.5 -107q48 -7 103 -18.5t108 -27.5
q10 80 15.5 164t5.5 162q0 90 -9.5 159t-32.5 98q34 20 67 39.5t67 39.5q24 -36 34.5 -96t10.5 -137q0 -88 -11.5 -190t-30.5 -207q-26 -11 -51.5 -22.5t-51.5 -22.5l-36 -50l-36 -50q-70 23 -147 42t-151 34q5 33 8.5 95.5t3.5 135.5q0 41 -1 83t-3.5 82t-6 75t-7.5 63
q18 11 36 21.5t36 21.5q-38 8 -78 11.5t-75 5.5q21 26 42 52.5t43 52.5q58 -2 117 -7t121 -16z" />
    <glyph glyph-name="W" unicode="W" horiz-adv-x="913" 
d="M823 119q-26 -12 -52.5 -23.5t-52.5 -22.5l-78 -99q-52 24 -112 47.5t-116 38.5q-16 -22 -32.5 -43t-32.5 -42q-61 25 -127.5 44t-132.5 33q6 34 9 99.5t3 143.5q0 40 -1 80.5t-3.5 78.5t-6 71.5t-7.5 59.5q18 11 36 21.5t36 21.5q-41 7 -79.5 11t-73.5 6q21 26 42 52.5
t43 52.5q58 -2 117 -7t121 -16q-13 -17 -26 -32t-26 -32q4 -50 6 -114.5t2 -134.5q0 -74 -3 -143.5t-8 -121.5q-4 -2 -7.5 -4.5t-7.5 -5.5q6 44 9 111.5t3 140.5q0 72 -3 139.5t-9 114.5q-5 -6 -9.5 -11.5t-9.5 -11.5q2 -65 4.5 -143t2.5 -156q0 -51 -1.5 -99t-6.5 -90
q44 -8 89 -21t83 -29q2 21 3.5 52t2.5 67.5t1.5 76.5t0.5 80q0 66 -0.5 124t-3.5 92q38 20 75.5 38.5t75.5 37.5q-2 -15 -4 -46.5t-3.5 -73t-2.5 -89.5t-1 -96v-67t0.5 -61.5t1.5 -51.5t3 -38q40 -7 79 -18t74 -25q8 71 14 147t6 148q0 53 -3 100.5t-9 86.5t-15.5 68
t-22.5 45q36 17 71.5 34.5t70.5 34.5q25 -36 35.5 -97.5t10.5 -145.5q0 -91 -12 -192t-30 -196z" />
    <glyph glyph-name="X" unicode="X" horiz-adv-x="552" 
d="M80 750q22 -4 49 -11.5t54.5 -17t53 -21.5t45.5 -24q16 19 32 37t32 37q42 -20 94 -31.5t115 -11.5q-10 -32 -19 -64.5t-19 -64.5q-24 2 -52.5 7.5t-58 15t-58.5 22t-54 27.5q11 -64 23 -134t26 -140q45 2 80.5 3.5t49.5 3.5q-2 -8 -4.5 -16.5t-4.5 -17.5
q-13 3 -44.5 4.5t-72.5 1.5q12 -61 25 -118.5t28 -108.5q35 -21 74 -31t81 -16q-21 -27 -42 -53.5t-42 -52.5q-23 3 -50 10.5t-54.5 17t-53 21t-44.5 23.5q-16 -18 -31.5 -36t-32.5 -36q-40 19 -94.5 29.5t-113.5 11.5q8 32 16.5 64.5t16.5 64.5q24 -2 53.5 -7.5t60 -14.5
t60 -22t54.5 -28q-12 66 -24.5 137.5t-26.5 143.5q-43 -1 -77.5 -2t-48.5 -3q2 8 5 16t5 16q11 -4 42.5 -5t70.5 -2q-12 60 -25 115.5t-27 105.5q-35 21 -75 31t-80 16q20 27 41 54z" />
    <glyph glyph-name="Y" unicode="Y" horiz-adv-x="635" 
d="M418 80q7 38 12.5 94t8.5 119q-19 -22 -37.5 -44.5t-38.5 -44.5q-32 12 -68 22t-73.5 18t-75 14t-71.5 10q5 29 7.5 65.5t2.5 74.5q0 50 -4 96t-13 81q18 11 36 21.5t37 21.5q-37 8 -78 11.5t-76 4.5q21 26 42 52.5t43 53.5q58 -2 117 -7t122 -16l-54 -66q4 -37 6 -73
t2 -72q0 -41 -2 -78.5t-7 -67.5q-3 -2 -6.5 -4.5t-6.5 -4.5q4 26 6.5 55t2.5 60q0 42 -2.5 85t-9.5 82l-10 -12l-10 -12q4 -33 6 -70.5t2 -75.5q0 -32 -1.5 -63.5t-6.5 -57.5q24 -3 52.5 -7.5t57.5 -10.5t57.5 -13t52.5 -15q3 61 3 125q0 40 -2.5 78t-7 69.5t-12 55.5
t-16.5 37q35 20 69 39.5t69 39.5q23 -34 33 -94t10 -141q0 -49 -3 -101t-9 -104t-14.5 -103t-18.5 -98q-27 -12 -53.5 -23.5t-53.5 -22.5q-15 -23 -30.5 -44.5t-30.5 -43.5q-36 2 -79.5 7.5t-88.5 13.5t-88 18.5t-79 21.5q25 27 49.5 54.5t49.5 54.5q60 -22 134.5 -39.5
t146.5 -25.5z" />
    <glyph glyph-name="Z" unicode="Z" horiz-adv-x="549" 
d="M347 608q-34 1 -78 4.5t-89.5 9t-88 11.5t-73.5 13q23 26 45.5 52t45.5 52q38 -6 91 -12t110 -10.5t111.5 -7.5t96.5 -5q-13 -77 -36 -157t-53.5 -155t-66.5 -140.5t-73 -112.5q-22 -8 -43.5 -15t-42.5 -15q34 -1 74 -3.5t81.5 -6.5t83.5 -9t81 -11q-20 -29 -40 -57.5
t-40 -57.5q-47 10 -100 17t-108.5 12t-111.5 7.5t-109 2.5q47 57 94 109h18q25 36 50.5 92.5t47.5 120t38.5 126.5t23.5 111q5 4 11 7t12 7q-12 -54 -29.5 -116t-40 -124t-47.5 -120t-52 -104h18q29 42 58.5 100.5t55 123.5t45 132.5t30.5 128.5z" />
    <glyph glyph-name="bracketleft" unicode="[" horiz-adv-x="372" 
d="M404 779q-13 -29 -25 -57l-24 -56q-33 6 -68 13t-67 14q-1 -15 -1.5 -45t-1 -70.5t-0.5 -90v-102.5q0 -79 0.5 -161.5t1 -153.5t2 -124.5t3.5 -74.5q16 -8 36 -15t41.5 -13.5t42 -11.5t38.5 -9q-23 -18 -45.5 -36t-45.5 -36q-52 10 -104.5 24.5t-101.5 36.5
q4 28 6.5 79.5t4 116.5t2.5 138.5t1 147.5q0 64 -0.5 124t-1.5 111t-2.5 89t-2.5 58q27 15 53.5 30t53.5 30q11 17 23 35t23 35q35 -9 78 -15t81 -11z" />
    <glyph glyph-name="backslash" unicode="\" 
d="M592 -245q-34 -1 -67.5 -1t-67.5 -1q-54 117 -114.5 244t-123.5 255t-127.5 254t-126.5 240q33 1 66.5 1t67.5 1q52 -116 112.5 -242.5t125 -255t129.5 -254.5t126 -241z" />
    <glyph glyph-name="bracketright" unicode="]" horiz-adv-x="372" 
d="M-32 -223q13 28 24.5 56t23.5 56q33 -6 68.5 -13t66.5 -14q1 15 1.5 45t1 70.5t0.5 90v102.5q0 79 -0.5 161.5t-1 154t-2 125t-3.5 74.5q-16 7 -36 14.5t-41 13.5t-42 11.5t-38 8.5q22 18 44.5 36t45.5 36q53 -10 105 -24.5t101 -35.5q-4 -28 -6.5 -79.5t-4 -116.5
t-2.5 -139t-1 -147q0 -64 0.5 -124t1.5 -111t2 -89.5t3 -57.5q-27 -15 -53.5 -30.5t-53.5 -30.5q-11 -17 -22.5 -35t-23.5 -35q-35 10 -77.5 16t-80.5 11z" />
    <glyph glyph-name="asciicircum" unicode="^" horiz-adv-x="392" 
d="M377 425q-29 -2 -57.5 -5t-57.5 -5q-5 21 -12.5 51.5t-17 63.5t-20 65t-20.5 56q-11 -24 -22.5 -54.5t-21 -61.5t-17.5 -60t-13 -50q-26 -2 -52.5 -5t-52.5 -5q31 75 59 156.5t52 161.5q37 4 73.5 7.5t74.5 8.5q18 -83 43.5 -164.5t61.5 -159.5z" />
    <glyph glyph-name="underscore" unicode="_" horiz-adv-x="549" 
d="M42 -52q114 -8 237.5 -8t244.5 8l-17 -105q-115 9 -239.5 9t-243.5 -9z" />
    <glyph glyph-name="a" unicode="a" horiz-adv-x="509" 
d="M107 542q42 0 90.5 -4.5t95.5 -12.5t89.5 -19.5t73.5 -25.5q-3 -28 -5 -64.5t-3.5 -77t-2.5 -83.5t-1 -84q0 -26 0.5 -50.5t1.5 -46.5q7 -8 21 -19t29 -16q-21 -16 -41 -32t-41 -32q-58 25 -100 72q-17 -19 -32 -36t-32 -36q-27 3 -56.5 8t-58.5 12.5t-54 17t-43 20.5
q-3 14 -4.5 33t-1.5 40q0 35 3.5 70.5t10.5 59.5l42 18t43 18l20 18t21 18q20 6 42 11l44 10q17 -1 31 -2t25 -2q0 21 -0.5 44t-1.5 35q-46 16 -116 23t-150 8q16 27 31 53.5t30 53.5zM170 246q-3 -20 -3 -55q0 -27 2 -55t5 -46q12 -5 29.5 -9t36.5 -7t37 -5t32 -4
q2 18 3.5 63.5t2.5 101.5q-12 3 -30 5.5t-38.5 5t-40.5 4t-36 1.5z" />
    <glyph glyph-name="b" unicode="b" horiz-adv-x="524" 
d="M198 750q-4 -50 -6 -128t-4 -163q17 21 34.5 41.5t34.5 42.5q25 -3 57 -11.5t63.5 -19t58.5 -22t41 -22.5q-1 -10 -1 -21v-23q1 -34 1.5 -74t0.5 -79q0 -46 -2.5 -89t-12.5 -74q-29 -13 -58 -26.5t-58 -27.5q-15 -20 -30 -39.5t-30 -39.5q-28 3 -62.5 12t-68 20t-62 23.5
t-44.5 23.5q1 18 2.5 48t2 68t1 82t0.5 91q0 58 -1 117.5t-3.5 113t-5.5 97t-7 69.5q4 3 8 5t8 5q4 -23 6.5 -43.5t4.5 -39.5q33 20 66.5 41t65.5 42zM337 407q-10 6 -28 11.5t-39 10.5t-42.5 9t-39.5 7q-1 -29 -1 -57v-55q0 -72 0.5 -130.5t3.5 -90.5q11 -6 28.5 -12
t37.5 -11.5t41.5 -9t41.5 -5.5q5 29 6.5 72t1.5 90q0 51 -3.5 98t-7.5 73z" />
    <glyph glyph-name="c" unicode="c" horiz-adv-x="440" 
d="M427 73q-22 -25 -43.5 -49.5t-44.5 -48.5q-32 4 -69 11t-74.5 16.5t-72.5 21t-63 24.5q-6 27 -9.5 73.5t-3.5 99.5q0 52 2.5 104.5t8.5 94.5q24 11 48 21.5t48 21.5q20 20 40.5 39.5t40.5 39.5q19 -13 44 -26.5t52 -26.5t54 -24t52 -20q-19 -23 -37.5 -45t-37.5 -45
q-20 5 -43.5 12t-47.5 15.5t-47 18t-42 20.5q-2 -19 -3 -39.5t-1 -42.5q0 -61 3.5 -119.5t10.5 -95.5q23 -9 52.5 -16.5t61 -14.5t63 -12t58.5 -8z" />
    <glyph glyph-name="d" unicode="d" horiz-adv-x="516" 
d="M461 109q-29 -14 -58 -26.5t-58 -26.5q-16 -20 -31.5 -40.5t-31.5 -40.5q-27 3 -59 10t-64 16.5t-61 21.5t-50 24q0 36 -1.5 79t-1.5 92q0 61 2 119.5t13 101.5q32 14 63.5 28.5t63.5 28.5q-4 -32 -7 -76.5t-3 -92.5q0 -34 0.5 -66.5t2 -61t3 -51.5t4.5 -37
q29 -14 68 -22.5t78 -13.5q2 28 3 60t1 66t-0.5 70.5t-1.5 70.5t-2.5 64t-4.5 52q-26 7 -66 28t-81.5 49t-79.5 61t-61 66q26 22 52 43.5t52 44.5q21 -31 59 -66t83 -67t92 -57t86 -37q4 -42 6 -84t2 -87q0 -58 -2 -120t-9 -123z" />
    <glyph glyph-name="e" unicode="e" horiz-adv-x="474" 
d="M298 225q-22 -5 -55.5 -7t-61.5 -4q2 -26 4 -49.5t4 -44.5q22 -8 53 -15.5t65 -13.5t67.5 -11t60.5 -7q-21 -25 -43 -49.5t-44 -48.5q-33 3 -71 9.5t-76.5 16t-75 21t-65.5 24.5q-7 30 -11 82.5t-4 112.5q0 48 3 94t11 83q26 13 53 25t54 25q17 18 34.5 36.5t34.5 37.5
q47 -15 102 -27.5t104 -20.5q2 -15 3 -34.5t1 -40.5q0 -33 -3 -66.5t-10 -56.5q-18 -7 -34.5 -13t-32.5 -14t-32.5 -18.5t-34.5 -25.5zM182 443q-2 -28 -3.5 -58t-1.5 -62v-26q15 -3 33.5 -5.5t37 -4.5t36 -3.5t31.5 -1.5q2 14 4 32.5t2 38.5q0 40 -6 67q-32 3 -66.5 9
t-66.5 14z" />
    <glyph glyph-name="f" unicode="f" horiz-adv-x="364" 
d="M210 -171q-38 -20 -77 -39t-78 -39q4 51 8 129.5t7 169t4.5 185t2.5 177.5h-57q14 22 28.5 43t28.5 43q0 31 -0.5 57t-0.5 43q29 19 57.5 37.5t57.5 37.5q17 19 33.5 38t33.5 39q17 -11 40.5 -21.5t49.5 -20.5t51.5 -18t47.5 -14q-20 -20 -41 -39.5t-41 -39.5
q-36 6 -78 17t-73 27q0 -7 -0.5 -21.5t-1 -32t-1 -36.5t-0.5 -34h170q-3 -26 -5.5 -52.5t-5.5 -52.5h-161q-2 -83 -2.5 -168.5t-0.5 -163.5t1 -143.5t3 -107.5z" />
    <glyph glyph-name="g" unicode="g" horiz-adv-x="526" 
d="M57 -217q-3 13 -5 32t-2 41q0 30 5 61t16 51q26 11 53 21.5t53 20.5q-32 8 -66 20.5t-62 26.5q-2 32 -3 70t-1 78q0 55 3.5 112.5t15.5 94.5q27 11 54 21.5t54 21.5l66 87q28 -12 63.5 -23t72.5 -20.5t73 -17t66 -10.5q-11 -13 -20.5 -25t-20.5 -25q-3 -46 -4.5 -112
t-1.5 -141q0 -70 2.5 -139.5t5.5 -126.5q-31 -14 -61.5 -29t-61.5 -29q-14 -23 -27.5 -46t-27.5 -46q-29 0 -61 2.5t-64 6.5t-61.5 9.5t-52.5 12.5zM188 111q13 -5 30.5 -10t37 -8.5l39 -7t37.5 -5.5v82q0 15 -0.5 30t0.5 29q0 51 1 96t4 83q-17 2 -36.5 5.5t-39.5 7.5
t-38.5 9t-33.5 11q-5 -27 -7 -68t-2 -86q0 -51 2.5 -96t5.5 -72zM340 -138q-2 48 -4 99t-4 103q-8 -11 -15.5 -22.5t-15.5 -23.5q-29 -4 -58.5 -6t-58.5 -4q-5 -12 -7 -29.5t-2 -29.5q0 -19 1.5 -36t4.5 -29q16 -5 37 -9t42.5 -6.5t42 -4t37.5 -2.5z" />
    <glyph glyph-name="h" unicode="h" horiz-adv-x="539" 
d="M527 37q-24 -16 -47 -31t-47 -31q-26 11 -50.5 26.5t-47.5 36.5q2 13 3.5 36.5t3 52.5t2.5 61t1 63q0 60 -1 98t-2 55q-11 7 -28.5 12.5t-38.5 10t-42.5 7t-38.5 4.5q-1 -63 -2 -115t-1 -104q0 -51 0.5 -92.5t1.5 -64.5q5 -8 10.5 -13.5t13.5 -9.5q-25 -16 -49.5 -32
t-49.5 -32q-20 12 -39.5 27t-41.5 39q6 10 10.5 39.5t7.5 71t4.5 90.5t1.5 99v27q0 122 -4.5 218.5t-14.5 153.5q5 3 8.5 5t8.5 5q4 -23 6.5 -43.5t4.5 -39.5q32 20 64.5 41t65.5 42q-2 -24 -2.5 -57t-1.5 -71t-1.5 -80t-0.5 -84q17 21 33.5 42t33.5 42q29 -5 61.5 -11.5
t63.5 -15.5t59 -20.5t49 -24.5q-4 -15 -7 -38.5t-5.5 -52t-3.5 -60.5t-1 -63v-55q0 -40 1.5 -75.5t3.5 -52.5q8 -11 20 -20.5t25 -15.5z" />
    <glyph glyph-name="i" unicode="i" horiz-adv-x="248" 
d="M235 39l-50 -32t-51 -32q-32 11 -57 27t-48 39q10 7 16 26t9.5 53t4.5 84.5t1 120.5q0 26 -0.5 54t-1.5 54q-5 14 -13.5 24.5t-25.5 20.5q25 16 49.5 32t49.5 32q56 -22 102 -65q-20 -13 -24.5 -70t-4.5 -166q0 -38 0.5 -78.5t2.5 -79.5q8 -12 17 -22.5t24 -21.5z
M203 653q-20 -18 -40.5 -36.5t-40.5 -36.5q-22 14 -42.5 32t-37.5 41q20 19 41 37t41 37q15 -23 36 -41.5t43 -32.5z" />
    <glyph glyph-name="j" unicode="j" horiz-adv-x="248" 
d="M197 -171q-38 -20 -76.5 -39t-76.5 -39q4 48 6.5 106t4.5 120t3 123.5t1 117.5v75q0 40 1 69t-2 50.5t-12 37t-29 28.5l50 32l50 32q29 -11 54 -27t48 -38q-8 -5 -13.5 -29.5t-8.5 -71t-4.5 -116t-1.5 -165.5q0 -89 1.5 -157.5t4.5 -108.5zM202 653q-20 -18 -40.5 -36.5
t-40.5 -36.5q-22 14 -42.5 32t-37.5 41q21 19 42 37t42 37q14 -23 35 -41.5t42 -32.5z" />
    <glyph glyph-name="k" unicode="k" horiz-adv-x="531" 
d="M474 378q-25 -14 -50 -27t-50 -27q29 -5 57 -13.5t50 -17.5q-2 -12 -3.5 -30.5t-2.5 -40.5t-1.5 -44.5t-0.5 -42.5v-29.5t1 -21.5q8 -13 20.5 -22t27.5 -17q-20 -17 -40 -35t-40 -35q-31 8 -58.5 22.5t-49.5 37.5q-1 11 -1.5 25t-0.5 29q0 35 2.5 70t6.5 59
q-28 11 -71.5 19t-81.5 13q0 -75 0.5 -121t1.5 -69q5 -8 9.5 -12t12.5 -9q-24 -17 -48 -32t-48 -32q-21 13 -40.5 27.5t-40.5 38.5q5 10 9.5 36t7.5 62.5t4.5 80t1.5 88.5v64q0 118 -5 215t-13 153q4 3 8 5t8 5q4 -23 6.5 -43.5t4.5 -39.5q32 20 65 41t65 42
q-2 -41 -3.5 -100.5t-2.5 -126.5t-2 -135.5t-1 -128.5q16 20 32.5 40t32.5 40q23 -1 51 -4t55 -8q0 44 -14 84.5t-33 68.5q35 16 69.5 31.5t69.5 31.5q12 -22 19 -54.5t7 -64.5q0 -27 -3 -46z" />
    <glyph glyph-name="l" unicode="l" horiz-adv-x="240" 
d="M225 39q-25 -17 -49.5 -32.5t-48.5 -31.5q-24 12 -46.5 27t-44.5 39q5 10 9 36.5t6.5 63t3.5 80t1 88.5q0 69 -0.5 133t-2.5 119.5t-5 101t-8 77.5q4 3 8 5t8 5q4 -23 6.5 -43.5t4.5 -39.5q32 20 65 41t65 42q-2 -45 -4 -110.5t-3.5 -138.5t-2.5 -146.5t-1 -134.5v-41
t0.5 -41t1 -38t1.5 -31q7 -10 16 -17t20 -13z" />
    <glyph glyph-name="m" unicode="m" horiz-adv-x="778" 
d="M724 73q16 -23 44 -36q-24 -16 -47.5 -31t-47.5 -31q-26 12 -49.5 27t-45.5 36q2 15 3.5 38.5t2.5 52t1.5 60.5t0.5 64v50v66t-1 40q-9 6 -23.5 11t-31 9t-33.5 6.5t-30 4.5q-3 -12 -5 -33.5t-3.5 -48.5t-2 -58t-0.5 -61v-45q0 -36 1 -67t3 -59q10 -19 32 -29
q-23 -17 -46.5 -32.5t-46.5 -31.5q-23 12 -43.5 26.5t-40.5 37.5q2 13 3.5 35.5t2.5 51t1.5 61t0.5 64.5q0 57 -1 98.5t-3 61.5q-10 6 -24.5 10.5t-30 8.5t-31.5 6.5t-30 4.5q-3 -18 -4.5 -48.5t-2.5 -66.5t-1.5 -75t-0.5 -76q0 -26 -1 -47t0.5 -38t7.5 -29.5t20 -21.5
q-25 -16 -49 -32t-49 -32q-21 13 -40.5 27.5t-40.5 38.5q13 21 17 89t4 178q0 29 -1 60t-2 60q-5 14 -17 28t-28 22q20 16 40.5 32t40.5 32q13 -5 28.5 -13.5t29.5 -19t26.5 -22.5t21.5 -24q16 20 32.5 39.5t32.5 39.5q51 -11 104.5 -30.5t95.5 -45.5q16 20 31 38t31 38
q55 -11 109 -26.5t96 -41.5q-5 -17 -8 -43.5t-4.5 -58t-2.5 -66.5t-1 -68q0 -24 0.5 -49t1 -47.5t1.5 -40.5t3 -28z" />
    <glyph glyph-name="n" unicode="n" horiz-adv-x="543" 
d="M487 73q17 -23 46 -36q-24 -16 -47.5 -31t-47.5 -31q-25 12 -50.5 27t-47.5 36q2 15 4 37t3.5 49t2 57.5t0.5 60.5q0 51 -0.5 96.5t-2.5 68.5q-11 6 -28 11t-36 8.5t-39.5 6.5t-38.5 5q-3 -18 -5 -47t-3 -63t-1.5 -71t-0.5 -72q0 -26 -1 -49.5t0.5 -42.5t7 -33t19.5 -21
q-25 -16 -49.5 -32t-49.5 -32q-20 13 -39.5 27.5t-41.5 38.5q6 10 10.5 36.5t7.5 62.5t4 79t1 86q0 29 1 55.5t-2.5 48.5t-14 39.5t-33.5 29.5q20 16 40.5 32t40.5 32q28 -10 58.5 -33.5t47.5 -48.5q17 20 33 40.5t33 41.5q29 -5 60.5 -11t62.5 -15t59 -20t50 -26
q-5 -18 -8 -44.5t-5.5 -58t-3.5 -66t-1 -68.5q0 -51 1.5 -93.5t3.5 -66.5z" />
    <glyph glyph-name="o" unicode="o" horiz-adv-x="515" 
d="M457 92l-54 -22t-55 -22q-16 -19 -32 -37t-33 -37q-24 3 -56.5 10.5t-65.5 17t-62.5 21.5t-48.5 24q-1 38 -3.5 91t-2.5 111q0 47 3 91.5t11 82.5q26 11 53 21.5t54 21.5q15 19 30.5 38t30.5 38q25 -3 58 -11.5t67 -19t64 -23t50 -24.5q1 -38 3 -85.5t2 -99.5
q0 -48 -2.5 -95.5t-10.5 -91.5zM325 409q-33 14 -71.5 21.5t-73.5 11.5q-2 -26 -3 -55.5t-1 -60.5q0 -35 1 -69t2.5 -63.5t4 -52t4.5 -33.5q32 -14 70 -22t74 -12q2 30 3 63t1 67t-1 66.5t-2.5 59.5t-3.5 47.5t-4 31.5z" />
    <glyph glyph-name="p" unicode="p" horiz-adv-x="536" 
d="M197 -171q-38 -20 -76 -39t-76 -39q4 14 7.5 60.5t6 109.5t3.5 135t1 137q0 92 -2 149t-4 86q-8 17 -24 29.5t-33 20.5l48 32t47 32q26 -11 55.5 -32.5t46.5 -45.5q17 20 34 39t34 39q27 -4 57.5 -12.5t61 -19.5t58.5 -23.5t48 -24.5q0 -31 0.5 -71t0.5 -82
q0 -54 -3.5 -107t-12.5 -96q-29 -14 -57.5 -26.5t-57.5 -26.5q-14 -18 -28.5 -35.5t-28.5 -34.5q-25 0 -55.5 3t-52.5 8q0 -11 -0.5 -23.5t-0.5 -25.5q0 -36 0.5 -69.5t2.5 -46.5zM349 65q5 24 7 61.5t2 78.5q0 30 -1 60t-2.5 56.5t-3 47.5t-3.5 33q-14 8 -32.5 14.5
t-39 11.5t-40.5 8.5t-36 6.5q-2 -24 -3.5 -60t-1.5 -82v-47q0 -28 -0.5 -55t-0.5 -53q0 -13 0.5 -26t0.5 -26q12 -6 31.5 -11t41.5 -8.5t43.5 -6t37.5 -3.5z" />
    <glyph glyph-name="q" unicode="q" horiz-adv-x="523" 
d="M472 -171q-38 -20 -74.5 -38.5t-74.5 -38.5q2 31 3.5 68t3 76.5t2.5 79t2 77.5q-17 -20 -34 -39.5t-34 -38.5q-23 3 -52.5 10t-59.5 16.5t-57.5 21t-46.5 23.5q-1 38 -3.5 89.5t-2.5 107.5q0 45 3 88t11 81q27 11 54 21.5t54 21.5q15 22 30.5 43.5t30.5 43.5
q25 -3 59 -11.5t69 -19t66 -23t51 -24.5q-2 -18 -3 -49.5t-1.5 -71.5t-1 -86.5t-0.5 -94.5q0 -50 0.5 -99t1 -93.5t1.5 -80.5t3 -60zM330 400q-15 7 -34 13.5t-39.5 11.5t-40.5 8.5t-36 5.5q-2 -26 -3 -54.5t-1 -57.5q0 -36 1 -70t2.5 -63t4 -52t5.5 -37q13 -7 31 -13
t38 -10.5t40 -8t36 -5.5q1 26 1 55.5v59.5q0 70 -1.5 128t-3.5 89z" />
    <glyph glyph-name="r" unicode="r" horiz-adv-x="406" 
d="M268 58q-6 -3 -12.5 -6t-12.5 -7q-15 -20 -36.5 -37t-41.5 -33q-32 9 -67.5 26t-61.5 40q6 12 10.5 28.5t7.5 42.5t4.5 65t1.5 97v74.5t-2 76.5q-5 17 -18 31t-30 22q21 16 41.5 32t41.5 32q29 -11 56.5 -26.5t51.5 -38.5q-2 -6 -4 -25t-3.5 -46t-2.5 -59.5t-1 -66.5
q0 -62 1 -108.5t3 -83.5q7 -11 20 -22.5t27 -19.5q-7 26 -12.5 61.5t-9.5 76t-6.5 83.5t-2.5 85q0 35 1.5 66.5t3.5 58.5l42 32t43 33q9 -14 22 -29t29.5 -29.5t34.5 -27t38 -21.5l-34 -48l-34 -48q-37 12 -71.5 31t-56.5 39q-2 -17 -3 -38t-1 -44q0 -34 3 -71t8.5 -73
t13.5 -68.5t19 -56.5z" />
    <glyph glyph-name="s" unicode="s" horiz-adv-x="483" 
d="M442 91q-26 -12 -51.5 -24t-51.5 -24q-14 -17 -28 -33.5t-28 -33.5q-55 17 -119 27.5t-130 15.5q17 26 33 52.5t33 53.5q54 -5 113 -16.5t103 -25.5q2 18 3 41t1 43q0 18 -0.5 35t-2.5 28q-14 8 -36 13t-38 7q-14 -20 -29 -39t-29 -39q-38 4 -77.5 15.5t-65.5 28.5
q-3 14 -3.5 42t-0.5 58q0 28 1 56.5t4 52.5q26 11 51.5 22t51.5 22q11 18 22 36.5t22 36.5q59 -14 124 -25t126 -17q-14 -27 -27.5 -54.5t-27.5 -54.5q-54 5 -111.5 14.5t-105.5 25.5q-2 -17 -2.5 -40t-0.5 -42q0 -17 1 -33.5t3 -31.5q12 -8 35 -12t38 -6q15 19 30 37.5
t30 38.5q17 -2 37 -6t39 -9.5t36 -12.5t29 -14q2 -15 3 -41.5t1 -57.5q0 -29 -1 -57.5t-4 -52.5z" />
    <glyph glyph-name="t" unicode="t" horiz-adv-x="385" 
d="M379 74q-23 -25 -45 -50t-45 -49q-27 4 -58 11.5t-61 18t-57.5 23.5t-47.5 29q3 12 5.5 42.5t4 71.5t2.5 89.5t1 96.5v55h-61l60 87q-2 36 -4 65t-4 44q38 17 76 35l76 36l-2.5 -30t-2.5 -39.5t-2 -45t-2 -47.5h161q-3 -26 -5.5 -52.5t-5.5 -52.5h-152q-1 -37 -1 -72.5
v-67.5q0 -50 0.5 -87t2.5 -57q10 -9 28.5 -17.5t41.5 -15.5t48 -12.5t49 -8.5z" />
    <glyph glyph-name="u" unicode="u" horiz-adv-x="547" 
d="M531 38q-21 -16 -42.5 -31.5t-43.5 -31.5q-25 12 -53 34.5t-45 45.5q-19 -20 -37 -40t-37 -40q-60 10 -119 26t-107 45q4 17 7.5 41t5 52.5t2.5 59.5t1 62q0 49 -1 93t-4 89q-8 11 -20 20.5t-25 15.5l90 63q26 -11 52.5 -27.5t48.5 -36.5q-2 -15 -4 -39.5t-3 -54.5
t-1.5 -63.5t-0.5 -66.5q0 -46 1 -86t3 -60q24 -12 63.5 -20t77.5 -11q5 31 7.5 82.5t2.5 108.5q0 55 -0.5 103t-2.5 77q-5 10 -10 16.5t-11 12.5l44 32t44 33q21 -12 44.5 -27.5t45.5 -39.5q-5 -8 -8.5 -27.5t-6.5 -47t-4.5 -60.5t-1.5 -69v-61q0 -37 0.5 -71.5t2.5 -61.5
q7 -11 19 -21t26 -18z" />
    <glyph glyph-name="v" unicode="v" horiz-adv-x="533" 
d="M460 100l-54 -22l-54 -22q-17 -20 -34.5 -40.5t-35.5 -40.5q-64 10 -124.5 26t-109.5 45q4 14 7.5 37.5t5.5 52.5t3 62.5t1 67.5q0 48 -1.5 91t-3.5 71q-9 17 -25 29.5t-34 20.5q25 16 49.5 32t49.5 32q26 -11 55 -28.5t52 -39.5q-2 -12 -4 -34t-3.5 -50t-2 -60.5
t-0.5 -65.5v-64q0 -33 1.5 -55.5t2.5 -34.5q29 -14 65 -22.5t71 -13.5q9 53 13.5 106.5t4.5 101.5q0 71 -10 119t-28 57l108 84q35 -11 50.5 -60.5t15.5 -123.5q0 -59 -8.5 -126.5t-22.5 -131.5z" />
    <glyph glyph-name="w" unicode="w" horiz-adv-x="761" 
d="M689 102q-29 -14 -58 -26.5t-58 -25.5q-17 -19 -33.5 -37.5t-33.5 -37.5q-52 8 -101.5 27t-89.5 45q-15 -18 -30.5 -36t-30.5 -36q-60 8 -113 26.5t-94 43.5q4 15 7.5 39.5t5.5 55t3 64.5t1 68q0 48 -1.5 90t-3.5 68q-8 16 -24 28t-33 20q24 16 48.5 32t48.5 32
q27 -11 55.5 -28.5t51.5 -38.5q-2 -14 -3.5 -37.5t-3 -53.5t-2 -63.5t-0.5 -67.5q0 -115 3 -145q21 -12 53.5 -21.5t61.5 -14.5q2 16 3.5 39.5t2.5 52t1.5 59.5t0.5 62q0 49 -1 92t-3 69q-10 19 -33 31q23 16 47 32t47 33q24 -12 44.5 -28t43.5 -39q-5 -8 -7.5 -34.5
t-4.5 -63.5t-2.5 -81t-0.5 -87v-59t2 -48q24 -11 53.5 -19t55.5 -11q9 51 14.5 106t5.5 106q0 73 -10 120t-27 56q26 21 52.5 41.5t53.5 40.5q34 -11 50 -61t16 -123q0 -59 -8 -125.5t-22 -130.5z" />
    <glyph glyph-name="x" unicode="x" horiz-adv-x="476" 
d="M476 472q-19 -25 -38 -50.5t-38 -50.5q-36 11 -76 31.5t-69 41.5q20 -82 43.5 -167.5t52.5 -157.5q26 -21 59 -37t66 -26q-23 -20 -46 -40.5t-46 -40.5q-17 5 -37.5 12.5t-41.5 17t-41 20.5t-35 22l-63 -72q-38 21 -81 40.5t-86 28.5q18 25 36.5 50.5t37.5 50.5
q38 -11 75.5 -30t68.5 -41q-20 84 -42.5 168.5t-51.5 154.5q-26 22 -57.5 37t-66.5 26q23 20 46 41t46 41q17 -3 38 -10.5t42 -17t40.5 -21t33.5 -23.5l63 72q36 -23 79.5 -41.5t88.5 -28.5z" />
    <glyph glyph-name="y" unicode="y" horiz-adv-x="537" 
d="M326 -159q6 34 12 89t11 118q-15 -19 -30.5 -36.5t-29.5 -36.5q-66 8 -129 27t-111 46q5 14 8 37.5t5 52.5t3 62t1 66q0 48 -1 91t-4 71q-8 17 -24.5 29.5t-33.5 20.5q24 16 49 32t49 32q27 -11 56 -27t52 -38q-3 -13 -4.5 -37.5t-2.5 -56t-1.5 -68t-0.5 -72.5
q0 -100 3 -130q28 -12 68.5 -23.5t78.5 -17.5q2 42 4 85t2 84q0 40 -1.5 76.5t-5.5 65t-10.5 47.5t-15.5 26q28 21 55.5 42.5t54.5 43.5q16 -5 27.5 -25t19 -51.5t10.5 -73t3 -87.5q0 -53 -3.5 -110.5t-9.5 -114t-13.5 -108.5t-15.5 -95q-29 -14 -57.5 -29.5t-57.5 -30.5
q-19 -20 -37.5 -38.5l-37.5 -37.5q-22 15 -50.5 30t-60 28.5t-64 24.5t-60.5 19q23 20 47 40t48 41q23 -3 51 -11t56.5 -19.5t54 -25t43.5 -27.5z" />
    <glyph glyph-name="z" unicode="z" horiz-adv-x="462" 
d="M36 439q15 26 30.5 51.5t30.5 51.5q40 0 82.5 -3.5t84 -8.5t80.5 -13t72 -17q1 -7 1 -14.5v-15.5q0 -21 -3.5 -45.5t-9.5 -49.5t-14.5 -48.5t-18.5 -40.5q-17 -9 -33 -18.5t-33 -18.5q33 -8 64 -17.5t56 -20.5q0 -16 0.5 -33.5t0.5 -36.5q0 -30 -0.5 -63t-1.5 -66t-3 -63
t-6 -54l-52 -26l-52 -26q-14 -23 -28.5 -46t-28.5 -46q-58 5 -117.5 18t-107.5 32q-6 30 -6 75q0 23 1.5 47.5t5 47t8.5 42.5t13 35q26 17 52 32.5t52 31.5q-8 -26 -11 -63.5t-3 -74.5q0 -22 0.5 -43.5t2.5 -38.5q32 -11 72 -16.5t78 -9.5q1 22 2 50t1 58q0 42 -2.5 82.5
t-5.5 65.5q-23 8 -51.5 16t-59 15.5t-62 13t-59.5 8.5q23 23 46.5 47t46.5 47q27 -1 56 -3.5t58 -7.5q6 28 9.5 58.5t3.5 56.5q0 7 -0.5 13t-0.5 12q-19 8 -47 15t-60.5 12t-66.5 8.5t-66 5.5zM90 323q-5 -2 -10 -4.5t-10 -4.5q-2 13 -8 28.5t-14 30.5t-17.5 28.5
t-19.5 21.5q14 8 25 16q9 -11 17 -25.5t15 -30.5t13 -31.5t9 -28.5z" />
    <glyph glyph-name="braceleft" unicode="{" horiz-adv-x="403" 
d="M439 779q-13 -29 -25 -57l-24 -56q-34 6 -69.5 13t-65.5 15q-1 -23 -1.5 -78.5t-0.5 -133.5v-76q-26 -21 -53 -42t-54 -41q27 -24 54 -47.5t53 -47.5q0 -64 0.5 -121.5t1.5 -104.5t2 -81t2 -51q16 -7 36 -14t41 -13.5t42 -12t39 -8.5q-23 -18 -45.5 -36t-45.5 -36
q-53 10 -105 25t-102 35q8 42 16.5 133t8.5 215q-27 26 -54.5 51.5t-54.5 51.5q27 24 54.5 48.5t54.5 49.5q0 51 -2.5 101t-5 93t-5.5 75t-4 47q26 15 53 30l54 30q11 17 23 35t23 35q36 -9 78.5 -15t80.5 -11z" />
    <glyph glyph-name="bar" unicode="|" horiz-adv-x="319" 
d="M222 -236q-32 -5 -63.5 -10.5t-63.5 -10.5q2 57 4 127.5t3.5 149t2.5 161.5t1 166q0 110 -1.5 211t-6.5 182q31 5 62 9t62 9q-5 -88 -6.5 -203.5t-1.5 -241.5q0 -75 0.5 -149.5t1.5 -145.5t2.5 -135.5t3.5 -118.5z" />
    <glyph glyph-name="braceright" unicode="}" horiz-adv-x="403" 
d="M-36 -223q12 28 24.5 56t23.5 56q33 -6 68 -13t67 -15q1 20 1 66.5v109.5v114q27 21 53.5 42t53.5 41q-27 24 -53.5 47.5t-53.5 47.5q0 64 -0.5 121t-1 103.5t-2 80.5t-2.5 51q-32 14 -76.5 27.5t-79.5 20.5q43 36 90 72q52 -10 104 -25t102 -35q-7 -41 -15.5 -131
t-9.5 -215q28 -26 55 -51.5t55 -51.5q-28 -24 -55 -48.5t-55 -49.5q0 -51 2.5 -101.5t5 -93.5t5.5 -75.5t5 -47.5l-108 -60q-11 -17 -22.5 -35t-23.5 -35q-35 10 -77.5 16t-79.5 11z" />
    <glyph glyph-name="asciitilde" unicode="~" horiz-adv-x="445" 
d="M420 591q-2 -31 -5.5 -61.5t-5.5 -61.5q-28 -22 -55.5 -40t-55.5 -32q-40 26 -80 50.5t-82 41.5q-33 -8 -59.5 -23.5t-52.5 -31.5q3 31 6.5 61.5t6.5 62.5q25 17 53 31.5t59 22.5q36 -24 74.5 -49t82.5 -42q29 11 57.5 30t56.5 41z" />
    <glyph glyph-name="currency" unicode="&#xa4;" horiz-adv-x="509" 
d="M452 231q-17 -8 -34 -15.5t-34 -15.5q25 -37 55 -78t54 -72q-11 -3 -22 -5.5t-22 -5.5q-20 30 -45.5 70.5t-47.5 77.5q-25 -13 -43.5 -38t-37.5 -47q-29 4 -70.5 13t-76.5 22q-15 -25 -28.5 -47t-27.5 -42q-14 -2 -27 -4t-27 -4q8 10 18 23.5t21 28.5t21 30.5t18 29.5
q-11 6 -20.5 12t-16.5 12q-3 38 -4 76t-1 76q0 37 3 73t11 67q34 15 70 32q-22 32 -48.5 66.5t-49.5 65.5l42 9q20 -29 40 -61.5t43 -67.5q10 4 20.5 14t20 22.5t18.5 25.5t17 24q29 -5 71.5 -14t77.5 -22q10 16 24 36.5t23 34.5q13 2 26 3.5t26 3.5q-17 -20 -34 -43.5
t-36 -48.5q12 -8 23 -15t20 -15q2 -34 2.5 -64.5t0.5 -59.5q0 -38 -2.5 -79.5t-10.5 -83.5zM325 465q-13 7 -30.5 12t-36.5 9t-37.5 6.5t-33.5 4.5q-3 -24 -4 -55.5t-1 -63.5q0 -45 3.5 -84.5t8.5 -57.5q26 -14 66 -21.5t72 -11.5q2 26 3 58t1 64q0 45 -3.5 83.5t-7.5 56.5z
" />
    <glyph glyph-name="brokenbar" unicode="&#xa6;" horiz-adv-x="319" 
d="M222 -236q-32 -5 -63.5 -10.5t-63.5 -10.5q1 33 2.5 76t2.5 91.5t2 100t2 101.5q28 2 55.5 5t55.5 5q0 -47 1 -96t2 -96t2 -90t2 -76zM222 758q-2 -27 -3 -63t-2 -77t-2 -84t-1 -84q-27 -2 -54 -5t-55 -5q0 38 -1 79.5t-2 81.5t-2 76t-2 63q31 5 62 9t62 9z" />
    <glyph glyph-name="section" unicode="&#xa7;" horiz-adv-x="594" 
d="M196 633q-2 -10 -2.5 -28t-1.5 -42t-1 -52.5v-59.5q22 21 44.5 41.5t44.5 41.5q22 -3 60 -10.5t77 -17t73.5 -20.5t51.5 -20q-2 -6 -2 -24v-46q0 -40 0.5 -93.5t0.5 -114.5q0 -47 -0.5 -94t-2 -87.5t-4.5 -71t-7 -45.5q-26 -12 -53.5 -24.5t-53.5 -25.5
q-18 -23 -35.5 -44.5t-35.5 -44.5q-33 9 -71.5 16t-79 12.5t-81.5 9.5t-79 6q17 29 33.5 57t33.5 57q70 -2 146 -14t145 -27q2 23 3 72t1 109q-22 -20 -43.5 -41t-44.5 -41q-21 2 -58.5 9t-76.5 16.5t-73.5 20t-50.5 20.5q1 7 1 30v58v214q0 48 0.5 93.5t2.5 83t5 64t8 35.5
q27 14 54 26.5t54 25.5q17 22 34 43.5t34 43.5q34 -9 72.5 -16t78.5 -12.5t80 -9.5t78 -7q-17 -29 -33.5 -56.5t-33.5 -56.5q-70 2 -147 14.5t-145 26.5zM196 103q11 -6 36 -12.5t55.5 -12.5t61 -11t51.5 -8q0 58 -0.5 112t-1.5 99t-1.5 77.5t-1.5 48.5q-10 4 -34.5 10.5
t-55 12.5t-61.5 11.5t-53 8.5v-52q0 -53 0.5 -100t1 -85t1.5 -64t2 -35z" />
    <glyph glyph-name="copyright" unicode="&#xa9;" horiz-adv-x="723" 
d="M655 689q5 -20 9.5 -51.5t7.5 -69.5t4.5 -82t1.5 -89q0 -41 -1.5 -82t-5 -79.5t-8.5 -73t-12 -61.5q-26 -13 -51 -26t-51 -26q-14 -19 -26.5 -37t-26.5 -38q-51 0 -106 3t-109.5 10t-107.5 17t-100 24q-15 49 -22 123.5t-7 159.5q0 79 7 157t21 135q23 14 44.5 28.5
t44.5 28.5q18 20 36 39t35 39q37 0 93.5 -4t117.5 -11t117.5 -15.5t94.5 -18.5zM541 602q-12 3 -38.5 7t-60 8.5t-72 9t-75.5 8t-68.5 6t-52.5 2.5q-6 -42 -8.5 -97.5t-2.5 -115.5q0 -48 1.5 -96t5 -90t9 -76t12.5 -54q38 -9 75.5 -16t78 -11.5t87 -7t102.5 -2.5q6 32 10 69
t7 76.5t4 79t1 77.5q0 72 -3.5 131.5t-11.5 91.5zM366 214q-15 90 -15 181q0 23 1.5 46t5.5 46q4 3 8 5.5t9 5.5q-6 -25 -9 -55.5t-3 -62.5q0 -45 3 -90t10 -79q64 -13 141 -19q-22 -18 -43.5 -35.5t-43.5 -35.5q-22 1 -48.5 5.5t-54 10t-53.5 12.5t-47 14q-13 34 -19.5 84
t-6.5 102q0 45 5.5 86t16.5 71l81 33q16 14 31.5 27.5t31.5 27.5q33 -11 71 -17.5t83 -9.5q-15 -18 -30 -35.5t-30 -34.5q-26 1 -58.5 5.5t-62.5 12.5q-6 -27 -9.5 -58.5t-3.5 -65.5q0 -45 3.5 -88t13.5 -83q4 -2 10.5 -3.5t11.5 -2.5z" />
    <glyph glyph-name="guillemotleft" unicode="&#xab;" horiz-adv-x="515" 
d="M290 126q-20 -26 -40 -51t-40 -51q-23 22 -48.5 53.5t-50.5 67t-47 71t-38 64.5q25 25 54.5 59.5t58 71t53.5 72.5t41 63q14 -14 28 -27.5t28 -27.5q-15 -18 -35 -40.5t-41.5 -45t-42 -44.5t-35.5 -38q14 -24 33 -51.5t40 -54.5t42 -51t40 -40zM488 162
q-20 -26 -40 -50.5t-40 -50.5q-23 22 -48.5 53.5t-50.5 66.5t-47 70.5t-38 65.5q25 25 54.5 59t58 71t53.5 72.5t41 63.5l56 -56q-37 -42 -78 -86t-76 -81q14 -24 33 -52t40 -55t42 -51t40 -40z" />
    <glyph glyph-name="logicalnot" unicode="&#xac;" horiz-adv-x="507" 
d="M38 382q217 -13 446 0q0 -3 -3 -25.5t-7 -54.5t-9 -69t-9 -68.5t-6.5 -54t-2.5 -25.5l-102 -3q14 46 21.5 99.5t8.5 104.5q-173 8 -354 -6z" />
    <glyph glyph-name="registered" unicode="&#xae;" horiz-adv-x="531" 
d="M61 658q15 10 30 19t29 19q12 14 24 27t23 26q31 0 73.5 -3t86 -7t82.5 -9.5t64 -11.5q5 -24 9.5 -78t4.5 -117q0 -58 -3.5 -114t-13.5 -94q-17 -8 -34 -16.5t-34 -16.5q-9 -13 -17.5 -26t-17.5 -26q-40 0 -82.5 2t-82.5 6t-76 11t-64 16q-9 28 -14 80.5t-5 112.5
q0 55 4.5 107.5t13.5 92.5zM143 328q42 -11 106 -17.5t140 -6.5q7 41 10.5 90.5t3.5 97.5q0 53 -2 97.5t-8 64.5q-12 3 -44 7t-71.5 8t-79 7t-66.5 3q-2 -28 -3.5 -63.5t-1.5 -73.5q0 -35 1 -69t3 -62.5t5 -50t7 -32.5zM144 604q9 11 19 22.5t20 22.5q19 0 43 -1.5t48.5 -4
t48.5 -6.5t44 -9v-10q0 -29 -3.5 -53.5t-10.5 -36.5q-9 -4 -18 -7t-18 -7q14 -3 27 -7t21 -8q-5 -13 -7 -33t-2 -41q0 -10 -0.5 -19.5t1 -17t7.5 -13.5t18 -9q-10 -9 -19.5 -17t-19.5 -16q-11 2 -22 8t-19 14q-2 10 -2.5 21t-0.5 22q0 41 8 71q-11 5 -28.5 10t-31.5 7
q0 -16 0.5 -36t2.5 -47q-9 -4 -18.5 -7.5t-18.5 -7.5q21 -2 46 -10q-10 -12 -20 -23l-20 -22q-16 7 -31.5 12t-33.5 7l19 19q2 11 2 27.5v33.5q0 36 -2.5 74.5t-7.5 64.5q2 2 4 2.5t4 2.5q5 -29 6.5 -68.5t1.5 -74.5v-31t-1 -25q6 6 8.5 18.5t3 27.5t0 29.5t-0.5 23.5
q0 26 -1 52t-2 56q7 4 14.5 7.5t15.5 8.5q-18 2 -36 2.5t-38 1.5zM248 596q-1 -11 -1.5 -22.5t-0.5 -25.5v-21t1 -23v-10q5 7 10 13.5t10 13.5q9 -1 19.5 -2.5t21.5 -3.5q1 6 1 14v17q-2 25 -9 41q-12 2 -25 4.5t-27 4.5z" />
    <glyph glyph-name="degree" unicode="&#xb0;" horiz-adv-x="384" 
d="M338 446q-21 -10 -41.5 -19.5t-41.5 -19.5q-14 -14 -28 -28.5t-28 -28.5q-19 2 -41 7.5t-43.5 12.5t-41 15.5t-33.5 16.5q-1 31 -2.5 69t-1.5 76q0 30 2 57.5t7 49.5q21 10 42 19t41 19q14 14 28 28.5t28 29.5q19 -3 41.5 -9t44.5 -14t41 -16.5t33 -16.5q1 -29 2 -61
t1 -64t-2 -63.5t-7 -59.5zM238 650q-22 9 -48.5 16.5t-50.5 9.5q-3 -26 -3 -67q0 -23 1 -47.5t2 -46t2.5 -38.5t3.5 -26q21 -11 47 -18t51 -9q1 13 1.5 29.5t0.5 35.5q0 23 -0.5 47.5t-1.5 46.5t-2.5 40t-2.5 27z" />
    <glyph glyph-name="plusminus" unicode="&#xb1;" horiz-adv-x="507" 
d="M22 58q5 26 8.5 52t8.5 52q52 -3 101.5 -5.5t100.5 -2.5q59 0 119 1.5t123 6.5l-8 -52l-8 -52q-61 5 -118.5 6.5t-115.5 1.5q-52 0 -104.5 -2t-106.5 -6zM196 204q4 45 6.5 87t2.5 87q-44 -1 -89 -2.5t-94 -4.5q5 26 8.5 51t8.5 51q87 -6 166 -6q-1 40 -3.5 78.5
t-5.5 78.5l111 15q-4 -45 -5.5 -87t-2.5 -85q86 0 184 6q-4 -26 -8 -51t-8 -51q-45 2 -86 4t-82 3q1 -41 2.5 -80t5.5 -79z" />
    <glyph glyph-name="paragraph" unicode="&#xb6;" horiz-adv-x="550" 
d="M289 -238q1 13 1.5 39t0.5 59t0.5 70t0.5 74q-32 0 -65 2t-62.5 7t-54 13.5t-40.5 21.5q-11 37 -17.5 86t-6.5 103q0 44 5 88t16.5 84.5t30.5 74.5t46 58h398q-15 -14 -30 -27.5t-29 -27.5q-3 -31 -4.5 -80.5t-1.5 -109.5t1.5 -125t4.5 -122.5t7 -103t10 -67.5
q-5 -2 -9.5 -4.5t-9.5 -5.5q-4 27 -7.5 76.5t-5.5 109.5t-3.5 125.5t-1.5 125.5q0 52 1 95t3 72q-4 -5 -8.5 -8.5t-9.5 -7.5q-4 -46 -6 -118.5t-2 -151.5q0 -52 0.5 -103t2 -95.5t3.5 -80t4 -56.5q-41 -23 -80.5 -45t-81.5 -45z" />
    <glyph glyph-name="periodcentered" unicode="&#xb7;" horiz-adv-x="297" 
d="M252 321q-26 -27 -52 -55t-52 -55q-28 20 -54.5 48t-49.5 61q27 28 54.5 55.5t54.5 55.5q20 -33 46 -61.5t53 -48.5z" />
    <glyph glyph-name="guillemotright" unicode="&#xbb;" horiz-adv-x="515" 
d="M305 583q22 -21 47.5 -52.5t50.5 -66.5t47 -70.5t38 -65.5q-24 -25 -53.5 -59.5t-58 -71.5t-54 -72.5t-41.5 -63.5l-56 56q15 18 35 40.5t41.5 45.5t42 44.5t35.5 37.5q-14 24 -32.5 51.5t-39.5 54.5t-42 51t-40 40zM107 547q22 -22 47.5 -53.5t50.5 -66.5t47 -70.5
t38 -64.5q-24 -26 -53.5 -60.5t-58 -71t-54 -72t-41.5 -63.5l-56 55q15 18 35 40.5t41.5 45.5t42 44.5t35.5 38.5q-14 24 -32.5 51.5t-39.5 54.5t-42 50.5t-40 40.5z" />
    <glyph glyph-name="afii10023" unicode="&#x401;" horiz-adv-x="541" 
d="M105 588q20 12 41 23.5t41 23.5q-39 2 -77.5 3.5t-74.5 1.5h-29q22 28 43 55t43 55q22 1 46.5 1h50.5q43 0 89 -1.5t91 -4.5t87.5 -7.5t77.5 -9.5q-11 -33 -22.5 -66.5t-22.5 -66.5q-48 11 -109 19.5t-125 13.5q-1 -23 -2 -51t-2 -57.5t-1.5 -58.5t-0.5 -54
q9 15 17.5 29.5t17.5 29.5q42 -11 96.5 -17t99.5 -6l-42 -138q-22 3 -46.5 7t-49.5 8.5t-48.5 10.5t-42.5 12q1 -59 3.5 -108t4.5 -76q-26 -10 -51 -19.5t-50 -19.5h26q38 0 82.5 -2t89 -5t87 -7.5t77.5 -9.5q-16 -31 -31.5 -61t-31.5 -60q-42 7 -98.5 13.5t-116.5 11
t-119 8t-106 4.5q14 13 27 26t27 26q3 31 4.5 72.5t1.5 89.5t-1.5 98t-4 95t-6 82t-8.5 59q5 3 9.5 6t9.5 6q3 -22 5.5 -52.5t5 -67t3.5 -76.5t1 -80q0 -63 -1 -120t-4 -99q5 5 9 8t8 8q5 46 6.5 105.5t1.5 121.5q0 83 -2 147.5t-4 120.5zM266 868q-12 -21 -24.5 -41.5
t-25.5 -41.5q-19 8 -39 19.5t-38 28.5l51 84q16 -17 36.5 -29t39.5 -20zM439 868q-13 -21 -25.5 -41.5t-24.5 -41.5q-20 8 -39.5 19.5t-38.5 28.5l51 84q17 -17 37 -29t40 -20z" />
    <glyph glyph-name="afii10051" unicode="&#x402;" horiz-adv-x="879" 
d="M823 195v-59.5t0.5 -71.5t1 -75t1.5 -70t1.5 -56t1.5 -34q-38 -20 -76 -39t-76 -39q2 20 4 57.5t3.5 83.5t2.5 97t2 99t1.5 89.5t0.5 67.5v51.5t-2 35.5q-9 4 -24.5 8t-34.5 7t-38 5t-34 3q-1 -38 -1.5 -72.5t-0.5 -67.5v-79t15 -36q-14 -8 -27 -15.5t-27 -15.5
q-20 10 -42 32q4 7 6.5 33t3.5 61.5t1.5 75.5t0.5 76q0 53 -1.5 93.5t-3.5 71.5q-34 4 -70.5 9.5t-71.5 10.5q-1 -32 -1.5 -73t-0.5 -84q0 -34 0.5 -66.5t1.5 -61t2.5 -51t3.5 -37.5q-50 -23 -104 -46q29 -2 61 -9t67 -17q-24 -28 -47.5 -56t-47.5 -56q-37 17 -74 26t-83 11
q11 13 21 25.5t21 24.5q3 45 3 101q0 39 -1 80.5t-3.5 80t-6 72.5t-8.5 58q5 3 9.5 5.5t9.5 5.5q5 -57 9 -133.5t4 -155.5q0 -26 -0.5 -51t-1.5 -49q5 5 8.5 9t7.5 9q2 28 4 62t3 70.5t1.5 74.5t0.5 74q0 58 -2 108t-6 82q17 11 34.5 20t34.5 19q-69 8 -133 19.5t-116 25.5
q20 26 38.5 50.5t37.5 50.5q91 -14 204.5 -20.5t250.5 -6.5h60q-5 -33 -8.5 -72t-7.5 -85q-8 0 -22.5 1t-22.5 2q-1 -27 -1 -58.5v-65.5q17 21 34 42.5t34 42.5q29 -5 61.5 -11.5t63.5 -15.5t59 -20.5t49 -24.5q-5 -16 -8.5 -43t-5.5 -62t-3 -75.5t-1 -82.5zM144 454
q-19 -14 -34 -17.5t-32 -3.5q-23 0 -41 11t-31 29t-19.5 41.5t-6.5 48.5q0 24 6.5 49t24.5 37q-7 -17 -11 -36t-4 -39q0 -29 9 -52.5t25 -40.5t36 -26t43 -9q14 0 35 8z" />
    <glyph glyph-name="afii10052" unicode="&#x403;" horiz-adv-x="467" 
d="M2 642q22 27 43.5 54t42.5 54q75 -8 169.5 -12t187.5 -4q16 0 31 0.5t30 0.5q-7 -33 -13.5 -66t-12.5 -66q-55 0 -118 2.5t-127 7.5q10 -81 13.5 -164t3.5 -165v-64t-1 -63q-24 -11 -47.5 -22t-47.5 -22q29 -2 65 -8.5t72 -17.5l-48 -56l-48 -56q-36 17 -84.5 26
t-95.5 11q14 13 28 26.5t28 26.5q3 25 4 55t1 64q0 50 -2.5 105t-8 106.5t-13 96.5t-16.5 75q5 2 9.5 4.5t9.5 4.5q8 -34 14 -80.5t10.5 -98.5t7 -106t2.5 -103q0 -32 -1 -60t-3 -51q5 5 9 8t9 8q3 32 4.5 69.5t1.5 79.5q0 46 -2 95t-5 95t-7.5 86.5t-10.5 71.5q17 8 34 15
t34 15q-42 5 -80.5 10t-71.5 12zM291 766q-20 3 -39 6.5t-38 6.5q31 30 59 62.5t49 65.5q27 -2 54 -4.5t54 -5.5q-32 -36 -68 -69.5t-71 -61.5z" />
    <glyph glyph-name="afii10053" unicode="&#x404;" horiz-adv-x="517" 
d="M517 90q-23 -29 -44 -57.5t-44 -57.5q-39 2 -85.5 8t-93.5 15t-91 20t-80 25q-7 22 -12.5 57.5t-9.5 78.5t-6 90.5t-2 94.5q0 68 6 130t19 104l54 28l54 28q19 24 37 48t38 48q64 -17 130.5 -26t138.5 -13q-11 -32 -22 -63l-22 -62q-34 1 -70.5 4.5t-72.5 9.5t-70 14
t-62 16q-7 -48 -10 -101.5t-3 -108.5h27q0 48 2.5 92t7.5 81q5 3 9.5 6t9.5 6q-7 -33 -10 -81.5t-5 -103.5q47 1 96.5 2.5t93.5 3.5q-8 -26 -17 -50.5t-17 -50.5q-32 1 -73 2t-81 2q1 -59 4.5 -114t9.5 -94q57 -14 128 -21t138 -10zM237 126q-5 42 -8.5 94.5t-5.5 109.5h-27
q1 -61 6 -113t13 -84q5 -2 11 -3.5t11 -3.5z" />
    <glyph glyph-name="afii10054" unicode="&#x405;" horiz-adv-x="590" 
d="M301 139q-4 -3 -8.5 -5.5t-8.5 -5.5q2 44 3 85.5t1 85.5q0 17 -0.5 34.5t-0.5 35.5q-22 -22 -44 -43t-44 -43q-18 3 -39 8.5t-42.5 13t-42 16.5t-36.5 19q1 9 1 21v26v80q0 42 2.5 81.5t13.5 62.5q26 13 51.5 26t51.5 25l30 44l30 44q34 -8 76.5 -15.5t87 -13.5t88.5 -10
t82 -6q-17 -30 -33.5 -60.5t-33.5 -60.5q-35 1 -73 5.5t-77 10t-76.5 12.5t-71.5 14q-3 -22 -4.5 -49t-1.5 -56q0 -30 1.5 -58.5t4.5 -49.5q20 -10 46.5 -17t52.5 -11q-2 57 -2.5 102.5t-1.5 99.5q5 3 9.5 5.5t9.5 5.5q-2 -33 -3 -72t-1 -82v-54q23 22 46 43.5t46 43.5
q18 -3 39.5 -9t43 -14t42 -17t36.5 -18q-1 -9 -1.5 -20t-0.5 -25q0 -23 0.5 -51t0.5 -57q0 -42 -2 -82t-10 -70q-26 -13 -52 -25.5t-52 -24.5q-15 -23 -30.5 -45t-30.5 -44q-34 9 -77 16t-88 12.5t-90 9t-83 5.5q17 31 33.5 61t33.5 60q34 -1 72 -5t76.5 -9.5t76.5 -12.5
t73 -14q2 24 3.5 54t1.5 61q0 36 -1.5 70.5t-4.5 62.5q-21 10 -48 17.5t-53 12.5q0 -34 0.5 -68.5t0.5 -65.5t0.5 -57.5t1.5 -45.5z" />
    <glyph glyph-name="afii10055" unicode="&#x406;" horiz-adv-x="332" 
d="M283 87q-23 -28 -47 -56l-48 -56q-36 17 -80 26t-90 11q14 13 27 26t27 26q3 32 4.5 75.5t1.5 93.5q0 47 -1.5 95.5t-4 92t-6.5 79.5t-9 57q5 2 10 5t10 5q4 -25 6.5 -61t4 -78t2.5 -87.5t1 -90.5q0 -50 -1 -94.5t-3 -78.5q4 5 8 8t9 8q5 55 6.5 128.5t1.5 146.5
q0 66 -1.5 123.5t-4.5 92.5q17 11 35 21.5t35 21.5q-45 7 -90 11t-80 5q22 26 43.5 53t42.5 54q58 -2 124.5 -7t129.5 -16l-90 -111q-2 -35 -3.5 -89.5t-1.5 -114.5q0 -39 0.5 -77t1.5 -71.5t2.5 -60.5t3.5 -44q-50 -23 -104 -46q29 -2 61 -9t67 -17z" />
    <glyph glyph-name="afii10056" unicode="&#x407;" horiz-adv-x="332" 
d="M283 87q-23 -28 -47 -56l-48 -56q-36 17 -80 26t-90 11q14 13 27 26t27 26q3 32 4.5 75.5t1.5 93.5q0 47 -1.5 95.5t-4 92t-6.5 79.5t-9 57q5 2 10 5t10 5q4 -25 6.5 -61t4 -78t2.5 -87.5t1 -90.5q0 -50 -1 -94.5t-3 -78.5q4 5 8 8t9 8q5 55 6.5 128.5t1.5 146.5
q0 66 -1.5 123.5t-4.5 92.5q17 11 35 21.5t35 21.5q-45 7 -90 11t-80 5q22 26 43.5 53t42.5 54q58 -2 124.5 -7t129.5 -16l-90 -111q-2 -35 -3.5 -89.5t-1.5 -114.5q0 -39 0.5 -77t1.5 -71.5t2.5 -60.5t3.5 -44q-50 -23 -104 -46q29 -2 61 -9t67 -17zM321 868
q-13 -21 -25.5 -41.5t-24.5 -41.5q-20 8 -39.5 19.5t-38.5 28.5l51 84q17 -17 37 -29t40 -20zM148 868q-12 -21 -24.5 -41.5t-25.5 -41.5q-19 8 -39 19.5t-38 28.5l51 84q16 -17 36.5 -29t39.5 -20z" />
    <glyph glyph-name="afii10057" unicode="&#x408;" horiz-adv-x="452" 
d="M387 143q-33 -18 -65.5 -36.5t-65.5 -36.5q-20 -24 -39.5 -47.5t-39.5 -47.5q-57 31 -105 71t-92 89q20 25 41.5 49.5t42.5 49.5q32 -32 66.5 -59.5t69.5 -48.5q2 26 3 63.5t1 76.5q0 42 -1.5 84t-4.5 79.5t-7.5 70t-10.5 55.5q10 5 19 11q8 -53 13 -129t5 -156
q0 -45 -1.5 -89t-3.5 -76q5 -4 11 -7t11 -6q2 42 3 96.5t1 111.5q0 83 -2 156t-7 116q18 11 36 21.5t35 20.5q-22 3 -53.5 6.5t-64 5.5t-63 4t-51.5 2q22 26 43.5 53t42.5 54q33 -1 75 -3t85.5 -5t84 -7.5t71.5 -10.5l-90 -111q-2 -25 -3 -72.5t-1 -103.5q0 -43 0.5 -87
t2 -83t3.5 -71.5t5 -52.5z" />
    <glyph glyph-name="afii10058" unicode="&#x409;" horiz-adv-x="926" 
d="M589 681q-5 -34 -9.5 -91.5t-8.5 -124.5q20 20 41 38.5t42 38.5q27 -3 56.5 -9t59 -14t57 -18t50.5 -20q-5 -37 -5 -89t-1 -105.5t-4.5 -101t-16.5 -76.5l-117 -48q-20 -22 -40 -43.5t-40 -42.5q-30 3 -64 9t-68 15t-64 20t-52 25q4 27 7.5 64t6 80.5t4 91t1.5 93.5
q0 61 -0.5 120t-2.5 99q-20 2 -43 5.5t-45.5 7.5t-43 8.5t-34.5 9.5q7 -51 12 -114.5t5 -133.5q0 -53 -4 -107t-12.5 -106t-22 -99.5t-33.5 -87.5q-24 2 -51.5 6t-54 9.5t-50.5 11.5t-41 13q11 30 21.5 60t21.5 60q13 -7 27 -13.5t28 -11.5q0 17 0.5 35t0.5 38
q-1 50 -4.5 104.5t-9.5 107t-15 100t-19 84.5q5 2 10 4.5t10 4.5q8 -41 15.5 -90.5t13 -102t9 -106.5t3.5 -104q0 -21 -0.5 -41.5t-1.5 -39.5q9 -3 19 -8q2 27 3.5 56.5t1.5 60.5q0 48 -3 100t-7.5 102.5t-11 97.5t-13.5 87l108 48q20 26 39.5 51t39.5 51q29 -11 66.5 -21.5
t78 -19.5t80.5 -16.5t75 -11.5zM719 75q2 11 3.5 31.5t2.5 46t1.5 54.5t0.5 59q0 44 -1 83t-3 65q-31 12 -73 23t-80 17q-2 -47 -4 -94.5t-2 -92.5v-62q0 -27 0.5 -49t1.5 -39q31 -16 74 -27t79 -15z" />
    <glyph glyph-name="afii10059" unicode="&#x40a;" horiz-adv-x="927" 
d="M588 750q-3 -23 -6.5 -55t-6 -69.5t-5 -79.5t-3.5 -85l87 81q27 -3 56.5 -9t59 -14t57 -18t50.5 -20q-5 -37 -5 -89t-1 -105.5t-4.5 -101t-16.5 -76.5l-58 -24l-58 -24q-21 -22 -41 -43.5t-40 -42.5q-29 3 -63 9t-67.5 15t-63.5 20t-51 25q2 24 4 57t3 73t2 83.5t2 88.5
q-4 -8 -7.5 -17t-8.5 -17q-14 2 -33.5 5.5t-40.5 8t-41.5 9.5t-35.5 10q0 -57 -0.5 -105t-2.5 -83q-23 -11 -45 -22t-45 -22q29 -2 57.5 -9t64.5 -17q-25 -28 -48.5 -56t-47.5 -56q-36 17 -78.5 26t-88.5 11q14 13 27.5 26t27.5 26q2 23 3 53.5t1 66.5q0 61 -3 133.5
t-8.5 139t-12 119.5t-13.5 76l21 9q5 -25 10 -74t9 -109t7 -125.5t4 -124.5q0 -46 -0.5 -85t-2.5 -66q5 5 9 8t8 8q3 31 4.5 74t1.5 93q0 58 -1.5 121.5t-4.5 120.5t-6 103t-6 70q38 19 76 37.5t76 37.5q1 -29 1.5 -71t1.5 -90.5t1.5 -100.5t1.5 -101q5 15 11 29.5t11 29.5
q26 -10 64 -18t83 -13q1 71 1 135v118q84 40 167 82zM723 414q-31 11 -74.5 22.5t-81.5 18.5q-3 -87 -3 -167v-67q0 -28 1.5 -54t1.5 -50q31 -16 73.5 -27t78.5 -15q2 10 3.5 27.5t2.5 40t1.5 48.5t0.5 53q0 50 -1 95.5t-3 74.5z" />
    <glyph glyph-name="afii10060" unicode="&#x40b;" horiz-adv-x="886" 
d="M823 210q0 -18 0.5 -37.5t1 -38.5t1.5 -35t2 -26q8 -11 20 -20.5t25 -15.5q-24 -16 -47 -31t-47 -31q-25 11 -50 26.5t-48 36.5q3 16 4.5 42.5t3 58t2 64.5t0.5 63v40.5t-2 25.5q-9 4 -24.5 8t-34.5 7t-38 5t-34 3q-1 -38 -1.5 -72.5t-0.5 -67.5v-79t15 -36
q-14 -8 -27 -15.5t-27 -15.5q-20 10 -42 32q3 6 5 24t3.5 44.5t2.5 58.5t1 65q0 72 -1.5 126.5t-3.5 92.5q-34 4 -70.5 9.5t-71.5 10.5q-1 -32 -1.5 -73t-0.5 -84q0 -34 0.5 -66.5t1.5 -61t2.5 -51t3.5 -37.5q-50 -23 -104 -46q29 -2 61 -9t67 -17q-24 -28 -47.5 -56
t-47.5 -56q-37 17 -74 26t-83 11q11 13 21 25.5t21 24.5q3 42 3 95q0 41 -1 83.5t-3.5 81.5t-6 73.5t-8.5 58.5q5 3 9.5 5.5t9.5 5.5q6 -57 9.5 -135.5t3.5 -159.5q0 -24 -0.5 -47.5t-1.5 -46.5q5 5 8.5 9t7.5 9q5 50 6.5 113.5t1.5 128.5q0 68 -1.5 130t-5.5 99
q17 11 34.5 20t34.5 19q-69 8 -133 19.5t-116 25.5q20 26 38.5 50.5t37.5 50.5q91 -14 204.5 -20.5t250.5 -6.5h60q-5 -35 -8.5 -78t-7.5 -94q-8 0 -22.5 1t-22.5 2q0 -24 -0.5 -52t-0.5 -57q17 21 34 42.5t34 42.5q29 -5 61.5 -11.5t63.5 -15.5t59 -20.5t49 -24.5
q-5 -16 -8.5 -43t-5.5 -60.5t-3 -71t-1 -73.5zM144 454q-19 -14 -34 -17.5t-32 -3.5q-23 0 -41 11t-31 29t-19.5 41.5t-6.5 48.5q0 24 6.5 49t24.5 37q-7 -17 -11 -36t-4 -39q0 -29 9 -52.5t25 -40.5t36 -26t43 -9q14 0 35 8z" />
    <glyph glyph-name="afii10061" unicode="&#x40c;" horiz-adv-x="661" 
d="M465 750q46 -3 94.5 -14.5t84.5 -27.5l-28 -64l-28 -64q-16 6 -36 13t-41.5 13t-42.5 10t-39 6q-56 -59 -106 -165q36 -4 76 -12.5t78 -19t72.5 -22.5t60.5 -22q-5 -13 -8.5 -33.5t-6.5 -44.5t-4.5 -50.5t-1.5 -52.5q0 -65 6 -107q10 -12 21.5 -20t28.5 -15l-44 -42
t-44 -41q-32 9 -63.5 25.5t-54.5 42.5q-1 13 -1.5 27.5t-0.5 31.5q0 26 1.5 54.5t4 56.5t6 53.5t7.5 45.5q-15 7 -34.5 13t-42 11.5t-47 9t-47.5 6.5q-9 -26 -17 -54.5t-14 -59.5q1 -23 2 -42.5t3 -36.5q-50 -23 -104 -46q29 -2 59.5 -9t65.5 -17l-48 -56t-47 -56
q-37 17 -79 26t-88 11q14 13 27 26t27 26q2 27 4 65t2 82v90q0 40 -2 78.5t-5 72t-7 61t-7 45.5q5 2 10 5l10 6q3 -23 6 -56.5t5 -73t3 -82.5t1 -86q0 -56 -1.5 -107t-3.5 -87q4 5 8 8t9 8q4 48 6 110t2 125q0 76 -2 141t-4 117q17 11 35 21.5t35 20.5q-45 7 -90 11t-80 6
q22 26 43.5 52.5t42.5 52.5q58 -2 119 -6.5t109 -14.5q-16 -18 -31.5 -36.5t-31.5 -36.5q-3 -38 -5 -86.5t-2 -101.5v-151q15 68 38.5 130t52 117t60.5 101.5t64 84.5zM349 778q-20 3 -39 6.5t-38 6.5q31 30 59 62.5t48 65.5q28 -2 55 -4.5t54 -5.5q-32 -36 -68 -69.5
t-71 -61.5z" />
    <glyph glyph-name="afii10062" unicode="&#x40e;" horiz-adv-x="632" 
d="M416 80q6 38 12 94t9 119q-20 -22 -38.5 -44.5t-37.5 -44.5q-65 23 -142 39.5t-146 24.5q4 29 6.5 65t2.5 74q0 50 -3.5 96.5t-12.5 81.5q18 11 36 21.5t36 21.5q-36 8 -77 11.5t-76 4.5q21 26 42 52.5t43 53.5q58 -2 117 -7t122 -16l-54 -66q5 -42 6 -83t1 -83
q0 -35 -2 -67t-6 -58q-3 -2 -6.5 -4.5t-6.5 -4.5q5 29 6.5 63t1.5 69q0 38 -3 76.5t-8 73.5l-10 -12l-10 -12q4 -33 6 -70.5t2 -75.5q0 -32 -1.5 -63.5t-6.5 -57.5q24 -3 52.5 -7.5t57.5 -10.5t57.5 -13t52.5 -15q1 23 1.5 46t0.5 46q0 46 -1.5 89t-6 79t-11.5 63t-18 42
q35 20 69 39.5t69 39.5q23 -35 33 -97.5t10 -147.5q0 -48 -3.5 -98.5t-9.5 -101.5t-14.5 -101t-17.5 -95q-27 -12 -53.5 -23.5t-53.5 -22.5q-15 -23 -30.5 -44.5t-30.5 -43.5q-36 2 -80 7.5t-89 13.5t-88 18.5t-78 21.5q25 27 49.5 54.5t49.5 54.5q60 -22 134.5 -39.5
t146.5 -25.5zM175 880l58 12l58 12q1 -22 7.5 -38t16 -26.5t21 -15.5t22.5 -5q14 0 22.5 9t8.5 27q0 13 -4 26l56 12t56 11q-9 -29 -24 -53t-39 -42t-58.5 -28t-83.5 -10q-25 0 -44 11.5t-33.5 28.5t-24 35.5t-15.5 33.5z" />
    <glyph glyph-name="afii10145" unicode="&#x40f;" horiz-adv-x="651" 
d="M623 91q-18 -29 -35.5 -58t-35.5 -58q-22 5 -67 9.5t-103 9.5q-6 -35 -14.5 -66.5t-17.5 -56.5q-22 -9 -43 -18.5t-43 -19.5q1 10 1.5 23t0.5 28q0 29 -2 60.5t-5 56.5q-66 5 -128 7t-110 4l28 26l28 26q2 20 3 47t1 58q0 62 -3.5 135.5t-9.5 142.5t-13.5 125.5
t-15.5 85.5q5 2 10.5 4t10.5 4q7 -32 13 -90t11 -127.5t8 -142t3 -133.5q0 -59 -3 -96q5 5 9 8t8 8q3 27 4 64t1 80q0 59 -2 125t-5 127t-7 111.5t-8 79.5q38 17 75.5 35t75.5 35q3 -35 5 -85.5t3.5 -109t2 -120t0.5 -117.5q0 -54 -0.5 -98.5t-2.5 -73.5q-23 -10 -44.5 -20
t-43.5 -20q29 1 66 1.5t76 0.5q32 0 65 -0.5t64 -1.5q1 57 2 134t2.5 156t3.5 151.5t5 121.5q42 20 83.5 40.5t83.5 40.5q-8 -20 -13.5 -67.5t-9.5 -109t-6 -130t-2 -131.5q0 -55 1.5 -100.5t5.5 -71.5q-24 -9 -48.5 -18t-49.5 -18q38 -2 71.5 -5t59.5 -8z" />
    <glyph glyph-name="afii10017" unicode="&#x410;" horiz-adv-x="678" 
d="M614 681q-5 -25 -9 -76t-7.5 -113t-5.5 -129t-2 -124q0 -40 0.5 -73t2.5 -52q11 -16 27 -29t33 -19q-23 -23 -44.5 -45.5t-43.5 -45.5q-17 3 -35.5 10t-36.5 17t-34.5 22.5t-28.5 26.5q4 21 7.5 51t5.5 67t3.5 78.5t2.5 83.5q-5 -5 -8.5 -10.5t-8.5 -10.5q-18 2 -41.5 6
t-48.5 8.5t-48 10t-40 11.5q1 -17 1 -35v-36q0 -29 -0.5 -59t-1.5 -59q-23 -11 -46.5 -22t-47.5 -22q30 -2 59 -8.5t64 -17.5q-23 -28 -47 -56l-48 -56q-36 17 -78 26t-88 11q14 13 28 26.5t28 26.5q2 23 3 51.5t1 60.5q0 52 -3 108.5t-8.5 110.5t-13.5 100.5t-17 77.5
q5 2 10 4.5t10 4.5q7 -35 13 -82.5t10.5 -101t7.5 -109t3 -106.5v-57.5t-2 -49.5q4 5 8 8t9 8q2 29 4 65t2 76q0 48 -2 98.5t-6 99t-8.5 91t-10.5 73.5q27 13 54.5 25.5t54.5 25.5q20 26 39.5 51.5t39.5 51.5q32 -11 75 -21.5t89.5 -19.5t92 -16.5t82.5 -11.5zM239 623
q7 -59 10 -123t5 -133q12 20 23.5 39.5t23.5 39.5q15 -4 35.5 -7.5t41.5 -6.5t40 -5t32 -2q-1 42 -1 82t-2 82q-23 2 -51.5 5.5t-57 8t-55 10t-44.5 10.5z" />
    <glyph glyph-name="afii10018" unicode="&#x411;" horiz-adv-x="661" 
d="M245 627q3 -40 4.5 -84t3.5 -91q20 20 40 41l40 42q28 -3 64.5 -9t73.5 -14.5t71.5 -18.5t59.5 -20q-5 -33 -5 -80t-0.5 -97.5t-4 -99.5t-14.5 -86q-31 -12 -60.5 -23t-60.5 -23q-17 -23 -35 -44.5t-35 -44.5q-34 8 -82 14.5t-99 11t-100 7.5t-86 4q14 13 27 26t27 26
q2 23 3 53t1 65q0 54 -2.5 113.5t-6.5 115t-9.5 101t-11.5 70.5l10 4l10 4q5 -29 9 -75t7 -100t5 -112t2 -110q0 -70 -3 -116q5 5 9 8t8 8q3 34 4.5 78t1.5 92t-1 98t-3.5 95.5t-5 84t-5.5 63.5q31 14 61.5 27t60.5 27q20 23 38 46t38 46q32 -8 72 -15t83.5 -13t87 -10
t81.5 -6l-36 -54t-36 -55q-37 1 -77.5 3.5t-80 6.5t-76.5 9t-67 11zM448 401q-14 6 -37.5 12.5t-50.5 12t-55 10.5t-52 8q1 -32 1 -64v-64q0 -44 -0.5 -85t-0.5 -79q-21 -10 -42 -19.5t-41 -20.5q27 -1 63.5 -3.5t74.5 -6.5t73.5 -9t61.5 -11q2 17 3.5 40t2.5 50t1.5 55.5
t0.5 56.5q0 35 -0.5 66t-2.5 51z" />
    <glyph glyph-name="afii10019" unicode="&#x412;" horiz-adv-x="645" 
d="M594 373q-1 -6 -1 -12v-14q0 -15 0.5 -33t0.5 -38q0 -42 -3.5 -86.5t-15.5 -80.5q-28 -11 -55.5 -22t-55.5 -22l-69 -90q-35 8 -84.5 14.5t-102 11t-103.5 7.5t-88 4q14 13 27 26t27 26q3 32 4.5 76.5t1.5 95.5q0 47 -1.5 95.5t-4 92t-6 79.5t-8.5 57q5 2 9.5 5t9.5 5
q4 -24 6.5 -59t4 -76.5t2.5 -86.5t1 -89q0 -53 -1 -100t-3 -82q5 5 9 8t8 8q5 55 7 128.5t2 147.5q0 67 -1.5 125.5t-5.5 93.5q20 11 39.5 22.5t39.5 22.5q-44 4 -88.5 6.5t-89.5 2.5q22 27 43.5 54t42.5 54q60 0 129 -3.5t136.5 -10.5t127.5 -17t103 -23q1 -11 1.5 -23
t0.5 -26q0 -44 -6 -92.5t-19 -77.5l-105 -57q38 -8 74.5 -20.5t59.5 -26.5zM443 311q-14 6 -36.5 11.5t-49.5 10.5t-54.5 8.5t-50.5 4.5q0 -61 2 -111t4 -76q-23 -12 -45 -23.5t-45 -22.5q28 -1 64 -4t73.5 -6.5t72.5 -8.5t61 -11q4 29 5.5 61.5t1.5 65.5q0 51 -3 101z
M438 596q-36 9 -84 16t-100 12q-2 -35 -2.5 -78t-0.5 -90q0 -26 0.5 -53.5t0.5 -53.5q14 23 27.5 44.5t27.5 43.5q27 0 66 -4.5t76 -11.5q2 11 2 24v27q0 34 -3.5 67.5t-9.5 56.5z" />
    <glyph glyph-name="afii10020" unicode="&#x413;" horiz-adv-x="467" 
d="M89 750q43 -5 94.5 -8t106 -5t110 -2.5t106.5 0.5l-26 -132q-55 0 -118 3t-126 8q14 -113 16 -230t0 -226l-95 -45q29 -2 64.5 -8t71.5 -17l-96 -113q-36 17 -84.5 26t-95.5 11l57 54q3 33 4.5 75.5t0 89t-4.5 95t-8.5 93.5t-12.5 83.5t-15 65.5l20 9q10 -45 17.5 -110.5
t11.5 -135.5t4.5 -137.5t-3.5 -115.5l17 15q5 52 6 119.5t-2 137t-9 133t-14 107.5l69 31q-42 4 -80.5 9.5t-72.5 12.5z" />
    <glyph glyph-name="afii10021" unicode="&#x414;" horiz-adv-x="681" 
d="M9 0q23 26 47 50.5t47 50.5h1q4 32 6 69.5t2 78.5q0 42 -2.5 87t-7.5 88.5t-12.5 82.5t-16.5 71q5 2 10 4.5t10 4.5q7 -32 13.5 -70t11 -79t7 -83.5t2.5 -83.5q0 -47 -2.5 -90t-7.5 -80q5 0 10 0.5t10 0.5q6 45 9.5 97.5t3.5 107.5q0 78 -7 154t-21 139l108 48
q20 26 39.5 51t39.5 51q30 -11 67.5 -21.5t78.5 -19.5t82 -16.5t77 -11.5q-5 -26 -8.5 -75t-6.5 -109t-4.5 -124.5t-1.5 -121.5q0 -33 0.5 -61t1.5 -48q-24 -11 -47.5 -21.5t-48.5 -21.5q45 -2 86 -4t76 -7q-14 -43 -22.5 -91.5t-8.5 -89.5v-21t1 -19q-26 -12 -51 -24
t-51 -24q-4 20 -6 48t-2 59q0 14 0.5 27.5t1.5 26.5q-42 4 -89.5 8t-98 6.5t-100.5 4t-96 1.5q1 -14 1.5 -32.5t0.5 -36.5q0 -16 -0.5 -30.5t-1.5 -26.5q-23 -14 -46.5 -28t-46.5 -28q-4 48 -13.5 98t-23.5 84zM257 145q-20 -11 -38.5 -21t-38.5 -21q18 1 36 1h36
q45 0 92.5 -0.5t93.5 -1.5q3 34 5.5 75.5t3.5 85.5t1.5 89t0.5 86v84t-1 68q-20 2 -43 5t-46 7.5t-45 9t-39 9.5q9 -86 9 -180q0 -78 -6 -154.5t-21 -141.5z" />
    <glyph glyph-name="afii10022" unicode="&#x415;" horiz-adv-x="542" 
d="M105 588q20 12 41 23.5t41 23.5q-39 2 -77.5 3.5t-74.5 1.5h-29q22 28 43 55t43 55q22 1 46.5 1h50.5q43 0 89 -1.5t91 -4.5t87.5 -7.5t77.5 -9.5q-11 -33 -22.5 -66.5t-22.5 -66.5q-48 11 -109 19.5t-125 13.5q-1 -23 -2 -51t-2 -57.5t-1.5 -58.5t-0.5 -54
q9 15 17.5 29.5t17.5 29.5q42 -11 96.5 -17t99.5 -6l-42 -138q-22 3 -46.5 7t-49.5 8.5t-48.5 10.5t-42.5 12q1 -59 3.5 -108t4.5 -76q-26 -10 -51 -19.5t-50 -19.5h26q38 0 82.5 -2t89 -5t87 -7.5t77.5 -9.5q-16 -31 -31.5 -61t-31.5 -60q-42 7 -98.5 13.5t-116.5 11
t-119 8t-106 4.5q14 13 27 26t27 26q3 31 4.5 72.5t1.5 89.5t-1.5 98t-4 95t-6 82t-8.5 59q5 3 9.5 6t9.5 6q3 -22 5.5 -52.5t5 -67t3.5 -76.5t1 -80q0 -63 -1 -120t-4 -99q5 5 9 8t8 8q5 46 6.5 105.5t1.5 121.5q0 83 -2 147.5t-4 120.5z" />
    <glyph glyph-name="afii10024" unicode="&#x416;" horiz-adv-x="901" 
d="M79 259q27 12 53.5 24t52.5 24q-37 11 -73 25.5t-59 27.5q4 13 8 32.5t6.5 42t4 47.5t1.5 49q0 31 -1.5 58t-4.5 47q-18 21 -49 35q22 21 43.5 41.5t43.5 41.5q33 -9 64.5 -26t54.5 -43v-30q0 -27 -1 -58t-3 -61t-5 -58.5t-7 -50.5q14 -8 33 -15t39.5 -12.5t41.5 -9.5
t38 -7q-1 41 -2.5 80t-3.5 72t-5 58.5t-6 40.5q9 6 19 11q4 -24 6.5 -66t4 -93t2.5 -107.5t1 -111.5q0 -64 -1.5 -118.5t-3.5 -89.5q4 4 8 7.5t8 7.5q2 29 4 69.5t3 87t1.5 96.5t0.5 98q0 76 -1.5 139.5t-3.5 98.5q39 22 78 43.5t79 43.5q-3 -33 -5.5 -77t-4.5 -94
t-3.5 -104.5t-1.5 -108.5q17 22 34 43t34 43q22 -2 46.5 -6.5t50.5 -9.5q-5 35 -8 81.5t-3 90.5q0 23 1.5 43.5t3.5 39.5q37 17 74 34.5t75 34.5q-11 -47 -16 -105t-5 -111q0 -18 1 -34t1 -29q-27 -13 -53.5 -25t-53.5 -25q36 -11 72 -25t60 -26q-5 -15 -9 -37t-6.5 -48
t-3.5 -54.5t-1 -55.5q0 -28 1.5 -52t4.5 -41q9 -11 20.5 -19t28.5 -15l-44 -42t-44 -41q-32 9 -63.5 25.5t-54.5 42.5q0 8 -0.5 16.5t-0.5 17.5q0 28 1 60t3 63.5t5 60.5t7 52q-32 15 -74.5 25.5t-83.5 15.5q0 -78 1 -149.5t3 -118.5q4 -8 11 -15.5t15 -12.5
q-24 -21 -47.5 -41.5t-47.5 -40.5q-33 15 -61 31t-54 38q3 34 6 89.5t3 120.5v59t-1 60q-16 -22 -32 -43.5t-32 -43.5q-20 2 -44 6t-48 9q2 -35 5 -83.5t3 -96.5q0 -23 -0.5 -45t-2.5 -39q-38 -18 -75 -34.5t-75 -33.5q11 45 16.5 104t5.5 113q0 20 -0.5 38t-2.5 34z" />
    <glyph glyph-name="afii10025" unicode="&#x417;" horiz-adv-x="557" 
d="M445 491q-29 -14 -58 -27t-58 -27q52 -7 101 -18t85 -23q1 -17 1 -35v-36q0 -51 -4 -103t-14 -87q-29 -17 -57 -33.5t-57 -33.5q-13 -24 -26.5 -47t-27.5 -46q-32 0 -71.5 3t-80 7t-78.5 9.5t-65 11.5q-3 24 -4 46t-1 43q0 46 7.5 87t22.5 73q31 17 61.5 34.5t62.5 34.5
q-10 -38 -14 -79t-4 -76q0 -19 1 -35t4 -27q17 -4 38 -7.5t42.5 -6t41.5 -4.5t34 -3q3 36 3 72q0 35 -1.5 68t-5.5 62q4 2 7.5 5t7.5 5q2 -20 3.5 -47t1.5 -56t-1 -58t-3 -54q7 -2 13.5 -2t14.5 -1q2 24 2.5 47t0.5 45q0 41 -1.5 77.5t-4.5 62.5q-20 7 -50 14t-65.5 13
t-73.5 10.5t-73 6.5q23 23 45 45.5t45 44.5q22 0 45 -1t46 -3q11 27 16.5 61.5t5.5 66.5q0 10 6 13t13 8q-2 -41 -9 -80.5t-21 -69.5q5 -1 11 -1.5t12 -1.5q15 32 25.5 79t10.5 88q-35 2 -78.5 6t-88.5 9.5t-87.5 12t-73.5 12.5l90 105q38 -7 88.5 -12.5t104.5 -10t107 -8
t96 -5.5q-1 -28 -7.5 -61t-16 -64t-21 -57.5t-21.5 -40.5z" />
    <glyph glyph-name="afii10026" unicode="&#x418;" horiz-adv-x="661" 
d="M591 105q8 -12 24.5 -25.5t30.5 -18.5q-23 -22 -44.5 -43.5t-44.5 -42.5q-32 12 -63 36t-52 51l-69 -87q-41 1 -87.5 5t-93.5 10t-91 14t-81 17q13 13 26.5 26t26.5 26q3 33 4.5 78t1.5 96q0 45 -1.5 91.5t-4 88.5t-6 76t-8.5 55q5 2 10 5l10 6q3 -24 6 -58.5t4.5 -74.5
t2.5 -83.5t1 -86.5q0 -51 -1.5 -98t-3.5 -82q5 5 9 8t9 8q4 55 6 127t2 144q0 66 -1.5 122t-5.5 91l36 22t35 22q-45 7 -90 11t-80 5q21 26 42.5 52t43.5 52q58 -2 124.5 -6t128.5 -16q-23 -28 -44.5 -55t-44.5 -55q-2 -38 -3.5 -97.5t-1.5 -123.5q0 -36 0.5 -71t1 -66
t2 -56.5t3.5 -41.5q-26 -10 -51.5 -19.5t-50.5 -20.5q27 -8 60.5 -14.5t70 -12.5t74 -10t72.5 -5q-2 25 -2 57v69q0 63 1.5 134t4 135.5t6 116t7.5 76.5q39 20 78.5 40.5t79.5 41.5q-8 -22 -13.5 -66.5t-9.5 -102t-6 -122t-2 -126.5q0 -74 3 -135t9 -93z" />
    <glyph glyph-name="afii10027" unicode="&#x419;" horiz-adv-x="661" 
d="M591 105q8 -12 24.5 -25.5t30.5 -18.5q-23 -22 -44.5 -43.5t-44.5 -42.5q-32 12 -63 36t-52 51l-69 -87q-41 1 -87.5 5t-93.5 10t-91 14t-81 17q13 13 26.5 26t26.5 26q3 33 4.5 78t1.5 96q0 45 -1.5 91.5t-4 88.5t-6 76t-8.5 55q5 2 10 5l10 6q3 -24 6 -58.5t4.5 -74.5
t2.5 -83.5t1 -86.5q0 -51 -1.5 -98t-3.5 -82q5 5 9 8t9 8q4 55 6 127t2 144q0 66 -1.5 122t-5.5 91l36 22t35 22q-45 7 -90 11t-80 5q21 26 42.5 52t43.5 52q58 -2 124.5 -6t128.5 -16q-23 -28 -44.5 -55t-44.5 -55q-2 -38 -3.5 -97.5t-1.5 -123.5q0 -36 0.5 -71t1 -66
t2 -56.5t3.5 -41.5q-26 -10 -51.5 -19.5t-50.5 -20.5q27 -8 60.5 -14.5t70 -12.5t74 -10t72.5 -5q-2 25 -2 57v69q0 63 1.5 134t4 135.5t6 116t7.5 76.5q39 20 78.5 40.5t79.5 41.5q-8 -22 -13.5 -66.5t-9.5 -102t-6 -122t-2 -126.5q0 -74 3 -135t9 -93zM209 874
q29 6 57.5 12t57.5 12q1 -22 7.5 -37.5t16 -26t21 -15.5t21.5 -5q14 0 23.5 8t9.5 27q0 13 -4 26l56 12l56 12q-10 -29 -25 -53.5t-38.5 -42.5t-58 -28t-83.5 -10q-25 0 -44 11.5t-33.5 28.5t-24 35.5t-15.5 33.5z" />
    <glyph glyph-name="afii10028" unicode="&#x41a;" horiz-adv-x="661" 
d="M465 750q46 -3 94.5 -14.5t84.5 -27.5l-28 -64l-28 -64q-16 6 -36 13t-41.5 13t-42.5 10t-39 6q-56 -59 -106 -165q36 -4 76 -12.5t78 -19t72.5 -22.5t60.5 -22q-5 -13 -8.5 -33.5t-6.5 -44.5t-4.5 -50.5t-1.5 -52.5q0 -65 6 -107q10 -12 21.5 -20t28.5 -15l-44 -42
t-44 -41q-32 9 -63.5 25.5t-54.5 42.5q-1 13 -1.5 27.5t-0.5 31.5q0 26 1.5 54.5t4 56.5t6 53.5t7.5 45.5q-15 7 -34.5 13t-42 11.5t-47 9t-47.5 6.5q-9 -26 -17 -54.5t-14 -59.5q1 -23 2 -42.5t3 -36.5q-50 -23 -104 -46q29 -2 59.5 -9t65.5 -17l-48 -56t-47 -56
q-37 17 -79 26t-88 11q14 13 27 26t27 26q2 27 4 65t2 82v90q0 40 -2 78.5t-5 72t-7 61t-7 45.5q5 2 10 5l10 6q3 -23 6 -56.5t5 -73t3 -82.5t1 -86q0 -56 -1.5 -107t-3.5 -87q4 5 8 8t9 8q4 48 6 110t2 125q0 76 -2 141t-4 117q17 11 35 21.5t35 20.5q-45 7 -90 11t-80 6
q22 26 43.5 52.5t42.5 52.5q58 -2 119 -6.5t109 -14.5q-16 -18 -31.5 -36.5t-31.5 -36.5q-3 -38 -5 -86.5t-2 -101.5v-151q15 68 38.5 130t52 117t60.5 101.5t64 84.5z" />
    <glyph glyph-name="afii10029" unicode="&#x41b;" horiz-adv-x="681" 
d="M200 -25q-24 2 -51.5 6t-54 9.5t-50.5 11.5t-42 13l22 60l22 60q13 -8 28.5 -15t26.5 -11q5 36 7.5 74.5t2.5 78.5q0 85 -9.5 168t-29.5 149q5 2 9.5 4.5t9.5 4.5q17 -74 25 -161t8 -171q0 -41 -2.5 -79.5t-7.5 -73.5q9 -5 18 -6q8 45 11.5 97t3.5 107q0 76 -7 154.5
t-20 144.5q27 12 53.5 24t53.5 24q20 26 39.5 51t39.5 51q30 -11 70 -21.5t83 -19.5t85.5 -16.5t78.5 -11.5q-4 -18 -7 -50.5t-5.5 -73.5t-4.5 -87.5t-3.5 -94t-2.5 -92.5t-1 -82q0 -57 3 -85q11 -17 27 -30.5t33 -19.5q-22 -23 -43.5 -45.5t-43.5 -45.5q-17 3 -36 9
t-37 15.5t-34.5 21t-28.5 24.5q6 29 9.5 74.5t5.5 98.5t3 110t1 109v87t-2 66q-21 2 -46 5t-50 7.5t-48 9t-40 9.5q6 -49 10.5 -105.5t4.5 -116.5q0 -107 -19 -218t-68 -206z" />
    <glyph glyph-name="afii10030" unicode="&#x41c;" horiz-adv-x="954" 
d="M227 648q20 26 38.5 51t38.5 51q20 -11 46.5 -22t56 -21t59.5 -18.5t57 -14.5q-3 -23 -4 -53t-1 -64q0 -50 2 -107.5t5 -112t8 -101t11 -76.5q8 40 15 106t12.5 137.5t9 136.5t3.5 103q22 26 43 53t43 53q22 -11 50.5 -22t58.5 -21t60 -18.5t56 -14.5q-6 -17 -10.5 -52.5
t-8 -82t-5 -99t-1.5 -104.5q0 -72 3 -135t10 -101q8 -11 24.5 -22.5t28.5 -18.5q-26 -22 -51 -43t-51 -42q-29 14 -61 31.5t-55 41.5q-5 39 -6.5 93.5t-1.5 115.5q0 46 1 93.5t2.5 92.5t4.5 85.5t6 70.5q-20 2 -46.5 10t-43.5 16q-5 -24 -10.5 -67.5t-10.5 -97.5t-10 -113.5
t-9 -116t-7 -105t-4 -79.5q-41 -18 -80.5 -35.5t-81.5 -34.5q-8 37 -15 86.5t-13 106t-10.5 115.5t-8 114t-5 103.5t-1.5 82.5v17q-22 3 -50 10.5t-48 19.5q5 -50 10.5 -108.5t5.5 -123.5q0 -53 -4.5 -108t-14.5 -109t-26.5 -106t-40.5 -99q-24 2 -51.5 6t-54 9.5
t-50.5 11.5t-42 13l22 60l22 60q13 -7 28.5 -14t26.5 -11q5 36 7.5 74.5t2.5 78.5q0 82 -10 164.5t-29 151.5q5 2 9.5 4.5t9.5 4.5q16 -70 24.5 -154.5t8.5 -167.5q0 -43 -2.5 -83.5t-7.5 -78.5q5 -2 9 -3.5t9 -3.5q9 46 13 99.5t4 109.5q0 76 -8 153.5t-21 140.5
q27 12 53.5 24t53.5 24z" />
    <glyph glyph-name="afii10031" unicode="&#x41d;" horiz-adv-x="673" 
d="M454 668q42 20 83 40.5l83 41.5q-7 -19 -12.5 -65t-9.5 -107t-6.5 -129.5t-2.5 -132.5q0 -68 1.5 -124t5.5 -85q10 -12 26.5 -24t31.5 -17q-23 -23 -44.5 -45.5t-44.5 -45.5q-32 13 -65.5 33.5t-58.5 46.5v45q0 52 0.5 115.5t1.5 129.5l-15 -33q-14 2 -37 6t-48.5 8.5
t-50.5 10t-41 11.5q0 -54 -0.5 -102.5t-1.5 -88.5q-23 -11 -45 -22t-45 -22q29 -2 57.5 -9t64.5 -17q-25 -28 -48.5 -56t-47.5 -56q-36 17 -78.5 26t-88.5 11q14 13 27.5 26t27.5 26q2 23 3 54.5t1 69.5q0 41 -1.5 87t-4 92.5t-6 91t-7.5 82t-8.5 66.5t-8.5 44q5 2 10 5
t10 5q5 -25 10 -72.5t9 -107t7 -124t4 -123.5q0 -48 -0.5 -88.5t-2.5 -68.5q5 5 9 8t8 8q3 31 4.5 74t1.5 93q0 58 -1.5 121.5t-4.5 120.5t-6 103t-6 70q38 19 76 37.5t76 37.5q0 -26 1 -62.5t2 -78.5t2 -88t1 -90v-42l21 60q23 -9 71 -17.5t102 -14.5q1 72 4 133.5t5 117.5
z" />
    <glyph glyph-name="afii10032" unicode="&#x41e;" horiz-adv-x="613" 
d="M538 104q-30 -12 -59.5 -23.5t-59.5 -22.5q-18 -21 -35.5 -42t-35.5 -41q-30 3 -67 11t-74.5 18.5t-72.5 23t-62 24.5q-9 61 -16 140t-7 160q0 72 7 139.5t24 121.5l117 57q17 20 32.5 40t32.5 40q32 -2 71 -8.5t78 -15.5t76.5 -19.5t66.5 -22.5q0 -54 4.5 -139t4.5 -178
q0 -72 -5 -140.5t-20 -122.5zM407 77q5 32 8 85.5t3 115.5q0 46 -1.5 94.5t-3.5 92.5t-5.5 81.5t-6.5 63.5q-20 7 -45 13.5t-51 12t-51.5 10t-46.5 7.5q-8 -45 -11.5 -103t-3.5 -121q0 -44 1.5 -87.5t4.5 -83t6.5 -73.5t8.5 -59q2 -3 8 -6.5t9 -5.5q-7 60 -11 136t-4 157
q0 51 2 102.5t7 100.5q5 2 9.5 5t9.5 5q-8 -48 -11 -111.5t-3 -132.5q0 -75 3.5 -145.5t11.5 -123.5q16 -5 37 -9.5t43 -9t44 -7.5t39 -4z" />
    <glyph glyph-name="afii10033" unicode="&#x41f;" horiz-adv-x="661" 
d="M603 681q-5 -26 -9.5 -80.5t-7.5 -121.5t-5 -137.5t-2 -127.5q0 -32 0.5 -57t2.5 -41q11 -17 27 -30.5t33 -19.5q-22 -23 -44 -45.5t-44 -45.5q-17 3 -35.5 10t-36.5 17t-34.5 22.5t-28.5 26.5q6 28 9.5 71.5t6 94.5t3.5 105.5t1 105.5q0 48 -1 89.5t-2 70.5
q-21 2 -49 5.5t-57 8t-55.5 9.5t-43.5 10q8 -81 11 -165t3 -169v-65t-1 -65q-24 -11 -47.5 -22t-47.5 -22q29 -2 57.5 -8.5t64.5 -17.5q-24 -28 -47.5 -56t-47.5 -56q-36 17 -78.5 26t-88.5 11q14 13 28.5 26.5t28.5 26.5q2 23 3.5 52.5t1.5 61.5q0 52 -3 109t-8 110.5
t-13 100t-17 77.5q5 2 10 4.5t10 4.5q7 -35 13.5 -84t10.5 -103.5t6.5 -111t2.5 -107.5q0 -59 -3 -102q4 5 8 8t9 8q3 31 4.5 68t1.5 78q0 48 -2 98.5t-5 98t-7.5 89t-10.5 72.5l108 48q20 26 39.5 52.5t39.5 52.5q30 -11 73 -21.5t90 -19.5t93 -16.5t82 -11.5z" />
    <glyph glyph-name="afii10034" unicode="&#x420;" horiz-adv-x="603" 
d="M98 93q5 55 7 128.5t2 146.5q0 68 -1.5 126t-5.5 93l78 45q-45 5 -90 7.5t-86 2.5q22 27 43 54t43 54q64 0 131.5 -5t131.5 -13t121.5 -20t101.5 -26q2 -20 3.5 -46.5t1.5 -55.5q0 -28 -1.5 -57t-5.5 -55.5t-10 -48.5t-15 -37q-26 -14 -51.5 -27t-51.5 -27
q-11 -20 -22.5 -39t-23.5 -39q-34 1 -76 6t-73 11q1 -32 1.5 -64t2.5 -49q-26 -11 -51.5 -22.5t-51.5 -22.5q29 -3 59 -9.5t65 -16.5q-23 -28 -47 -56l-48 -56q-36 17 -78 26t-88 11q14 13 26.5 26t26.5 26q3 33 4.5 79t1.5 98q0 46 -1.5 94t-4 90.5t-6 77.5t-8.5 56
q5 3 10 5.5t10 5.5q4 -23 6.5 -56.5t4 -73t2.5 -83t1 -86.5q0 -56 -1.5 -106.5t-3.5 -87.5q5 5 9 8t8 8zM430 593q-32 8 -79.5 15.5t-101.5 13.5q-2 -45 -3 -100t-1 -109q0 -17 0.5 -34t0.5 -32q10 14 18 26q37 -11 84 -19.5t90 -10.5q4 17 5.5 38.5t1.5 46.5q0 24 -1.5 49
t-3.5 47.5t-4.5 40t-5.5 28.5z" />
    <glyph glyph-name="afii10035" unicode="&#x421;" horiz-adv-x="531" 
d="M519 91q-17 -29 -32.5 -58t-32.5 -58q-44 2 -94.5 8t-101 15t-97.5 20.5t-83 24.5q-6 23 -11.5 57.5t-9.5 75.5t-6 86.5t-2 90.5q0 71 5.5 134.5t18.5 105.5q26 14 51.5 28t51.5 28q19 25 37.5 50t37.5 51q32 -9 69 -15.5t76 -11t78 -8t74 -4.5q-15 -32 -30 -63t-31 -62
q-32 1 -69 3.5t-74.5 7.5t-73 11.5t-63.5 15.5q-7 -53 -10 -112.5t-3 -119.5q0 -79 5 -148t16 -108q4 -2 10.5 -4t11.5 -4q-7 58 -11 126.5t-4 139.5q0 51 2.5 99t7.5 92q5 2 10.5 5.5t10.5 5.5q-8 -45 -12.5 -108.5t-4.5 -132.5q0 -64 3.5 -124.5t11.5 -107.5
q57 -12 129.5 -20t138.5 -12z" />
    <glyph glyph-name="afii10036" unicode="&#x422;" horiz-adv-x="966" 
d="M232 617q-65 5 -120 11.5t-93 14.5l69 107q51 -6 121 -10t150 -7.5t165.5 -5.5t167 -3t155 -1t129.5 1l-26 -137q-26 -1 -57.5 -1h-66.5q-1 -31 -2 -70t-1 -80.5t0.5 -83t1.5 -79t2.5 -67t3.5 -47.5l-104 -46q29 -2 62.5 -9t65.5 -16l-95 -113q-37 17 -74.5 26t-82.5 11
l72 82q4 52 6.5 115.5t2.5 126.5t-2 119t-6 92l75 42q-17 0 -42 0.5t-52 1.5t-52.5 2t-42.5 2q-2 -48 -2.5 -112.5t0 -127.5t2.5 -116.5t5 -79.5l-104 -46q28 -2 58 -9t61 -16l-95 -113q-35 17 -69 26t-79 11l71 82q4 52 6.5 117t2.5 130t-1.5 122.5t-5.5 93.5l77 41
q-18 1 -44 3t-53.5 3.5t-53 3.5t-41.5 3q-1 -32 -1.5 -73t-0.5 -85.5v-89t1 -84t2.5 -71t3.5 -49.5l-103 -46q28 -2 58 -9t61 -16l-95 -113q-35 17 -69.5 26t-79.5 11l42 51q3 43 3.5 98t-2 110t-7 103.5t-10.5 80.5l20 13q4 -38 7 -85.5t4.5 -99t1 -105t-2.5 -102.5l16 18
q4 52 6.5 119t2.5 134.5t-2 127t-6 95.5zM19 643q-26 -40 -29 -78.5t10 -66.5t39.5 -41t60.5 -2l-11 -9q-36 -15 -63.5 -1.5t-41 43t-10 68.5t28.5 74z" />
    <glyph glyph-name="afii10037" unicode="&#x423;" horiz-adv-x="632" 
d="M416 80q6 38 12 94t9 119q-20 -22 -38.5 -44.5t-37.5 -44.5q-65 23 -142 39.5t-146 24.5q4 29 6.5 65t2.5 74q0 50 -3.5 96.5t-12.5 81.5q18 11 36 21.5t36 21.5q-36 8 -77 11.5t-76 4.5q21 26 42 52.5t43 53.5q58 -2 117 -7t122 -16l-54 -66q5 -42 6 -83t1 -83
q0 -35 -2 -67t-6 -58q-3 -2 -6.5 -4.5t-6.5 -4.5q5 29 6.5 63t1.5 69q0 38 -3 76.5t-8 73.5l-10 -12l-10 -12q4 -33 6 -70.5t2 -75.5q0 -32 -1.5 -63.5t-6.5 -57.5q24 -3 52.5 -7.5t57.5 -10.5t57.5 -13t52.5 -15q1 23 1.5 46t0.5 46q0 46 -1.5 89t-6 79t-11.5 63t-18 42
q35 20 69 39.5t69 39.5q23 -35 33 -97.5t10 -147.5q0 -48 -3.5 -98.5t-9.5 -101.5t-14.5 -101t-17.5 -95q-27 -12 -53.5 -23.5t-53.5 -22.5q-15 -23 -30.5 -44.5t-30.5 -43.5q-36 2 -80 7.5t-89 13.5t-88 18.5t-78 21.5q25 27 49.5 54.5t49.5 54.5q60 -22 134.5 -39.5
t146.5 -25.5z" />
    <glyph glyph-name="afii10038" unicode="&#x424;" horiz-adv-x="777" 
d="M282 696q5 2 9.5 2.5t9.5 2.5q4 -19 6.5 -61t4.5 -96.5t3 -117t1 -122.5q0 -71 -1.5 -131.5t-3.5 -95.5q5 5 9 8t8 8q3 29 4.5 71.5t2.5 92t1.5 103.5t0.5 106q0 42 -0.5 81t-1.5 71.5t-2.5 56.5t-2.5 37q38 10 75.5 19t75.5 19q-1 -12 -1.5 -33t-1 -48t-1 -58t-0.5 -64
q21 21 41.5 43t41.5 43q38 -6 84.5 -14t86.5 -24q3 -23 5 -64t2 -86q0 -57 -6.5 -105t-20.5 -77q-26 -11 -51.5 -21t-51.5 -21q-13 -12 -25 -24.5t-25 -25.5q-16 0 -38 2.5t-37 4.5q0 -7 0.5 -12.5t0.5 -10.5q-27 -11 -53 -21t-52 -21q56 -4 129 -26l-48 -56t-47 -56
q-37 17 -81 26t-90 11q14 13 27 26t27 26q3 26 4 68.5t2 93.5l-42.5 -42.5t-42.5 -43.5q-38 6 -83.5 14.5t-86.5 23.5q-4 23 -6 61.5t-2 82.5q0 30 1 60t4 57t8 48.5t13 35.5q50 26 100 50q11 16 22 31.5t22 31.5q20 -2 41 -3.5t41 -5.5q-2 24 -4.5 41.5t-4.5 27.5zM188 542
q-5 -19 -8 -50t-3 -78q0 -51 5 -93.5t11 -65.5q27 -7 53.5 -11t54.5 -7v39q0 60 -0.5 125.5t-2.5 121.5q-12 4 -26 7t-29 5.5t-29.5 4t-25.5 2.5zM477 533q0 -71 -0.5 -138t2.5 -135q23 -8 54 -12.5t55 -6.5q4 17 7 42.5t3 72.5q0 48 -3.5 91t-10.5 69q-27 6 -53.5 10.5
t-53.5 6.5z" />
    <glyph glyph-name="afii10039" unicode="&#x425;" horiz-adv-x="552" 
d="M80 750q22 -4 49 -11.5t54.5 -17t53 -21.5t45.5 -24q16 19 32 37t32 37q42 -20 94 -31.5t115 -11.5q-10 -32 -19 -64.5t-19 -64.5q-24 2 -52.5 7.5t-58 15t-58.5 22t-54 27.5q11 -64 23 -134t26 -140q45 2 80.5 3.5t49.5 3.5q-2 -8 -4.5 -16.5t-4.5 -17.5
q-13 3 -44.5 4.5t-72.5 1.5q12 -61 25 -118.5t28 -108.5q35 -21 74 -31t81 -16q-21 -27 -42 -53.5t-42 -52.5q-23 3 -50 10.5t-54.5 17t-53 21t-44.5 23.5q-16 -18 -31.5 -36t-32.5 -36q-40 19 -94.5 29.5t-113.5 11.5q8 32 16.5 64.5t16.5 64.5q24 -2 53.5 -7.5t60 -14.5
t60 -22t54.5 -28q-12 66 -24.5 137.5t-26.5 143.5q-43 -1 -77.5 -2t-48.5 -3q2 8 5 16t5 16q11 -4 42.5 -5t70.5 -2q-12 60 -25 115.5t-27 105.5q-35 21 -75 31t-80 16q20 27 41 54z" />
    <glyph glyph-name="afii10040" unicode="&#x426;" horiz-adv-x="663" 
d="M587 140q-27 -9 -53.5 -17.5t-53.5 -17.5q51 -2 92.5 -6t69.5 -9q-14 -41 -22 -89.5t-8 -83.5v-24t1 -21q-25 -12 -50 -23t-50 -23q-3 17 -6 41.5t-3 50.5q0 15 0.5 31t2.5 30q-32 6 -91.5 11t-129 9.5t-141 8t-127.5 4.5q14 13 28.5 26t28.5 26q2 19 3 42.5t1 50.5
q0 61 -3.5 136.5t-9.5 146.5t-13.5 129.5t-16.5 87.5q5 2 11 4.5t11 4.5q7 -32 13 -92.5t11 -132.5t8 -146.5t3 -133.5q0 -51 -3 -84q4 5 8 8t9 8q3 26 4 60.5t1 76.5q0 60 -2 126.5t-5 128.5t-7 113.5t-8 81.5q38 17 75.5 35t75.5 35q3 -31 5 -78t3.5 -101t2 -111.5
t0.5 -109.5q0 -62 -0.5 -115t-2.5 -89l-44 -20l-44 -20q31 1 68.5 1.5t78.5 0.5q30 0 61.5 -0.5t61.5 -1.5q1 38 1.5 85t1 98.5t1.5 105t2 103.5t3 94t4 77q42 20 83.5 40.5t83.5 40.5q-7 -20 -12.5 -64.5t-9.5 -102.5t-6.5 -124t-2.5 -127t2 -112t5 -80z" />
    <glyph glyph-name="afii10041" unicode="&#x427;" horiz-adv-x="644" 
d="M574 156q-25 -11 -49 -22t-49 -22q30 -2 60.5 -8t66.5 -17q-24 -29 -48 -56.5t-48 -55.5q-37 17 -79.5 26t-89.5 11q22 20 43 40t43 41q-3 43 -3 107q0 25 0.5 52t1.5 56q-17 -22 -34.5 -44t-34.5 -44q-36 0 -80.5 4t-90.5 10t-90 13.5t-79 16.5q14 13 28.5 26.5
t28.5 26.5q0 8 0.5 17t0.5 18q0 51 -5 106t-14 100q5 3 9 5.5t9 5.5q8 -55 11.5 -110.5t3.5 -106.5v-21q5 4 9 7.5t8 8.5q2 25 3 50.5t1 52.5q0 32 -1.5 66.5t-5.5 69.5q19 11 36.5 22t35.5 22q-45 7 -89.5 11t-79.5 5q45 53 86 104q60 -2 124.5 -6t127.5 -16
q-22 -26 -43.5 -52t-44.5 -52q1 -23 1.5 -45.5t0.5 -45.5q0 -35 -1.5 -69.5t-3.5 -67.5l-48 -20l-48 -20q25 -5 59 -10t70.5 -8.5t73 -6.5t66.5 -4q1 51 2.5 103t3.5 98t4.5 83t5.5 58q40 20 79 40.5t79 40.5q-8 -22 -13.5 -67.5t-9.5 -103t-6 -122t-2 -123.5
q0 -57 1.5 -103.5t6.5 -74.5z" />
    <glyph glyph-name="afii10042" unicode="&#x428;" horiz-adv-x="914" 
d="M552 141q-26 -8 -50 -16t-49 -16q69 0 132 -1.5t115 -4.5q0 40 0.5 89.5t1.5 102.5t2 107.5t2.5 104t3 91.5t3.5 71q42 20 84 40.5t84 40.5q-8 -26 -14 -74.5t-10 -108.5t-6.5 -126.5t-2.5 -127.5t2 -111t6 -79q-23 -14 -47 -28t-47 -28q-12 -23 -23.5 -46l-22.5 -45
q-24 3 -74.5 7t-115.5 8t-138.5 7.5t-143 6t-129.5 4.5t-97 3q14 13 28.5 26t28.5 26q2 20 3 45t1 54q0 61 -3.5 135.5t-9.5 144.5t-14 128t-16 86q5 2 11 4.5t11 4.5q7 -32 13 -90.5t10.5 -127.5t7.5 -141.5t3 -132.5v-53.5t-2 -43.5q4 5 8 8t9 8q2 23 3.5 55t1.5 69
q0 60 -2 128.5t-5 133t-7 118t-8 83.5q38 17 75.5 35t75.5 35q3 -33 5 -84.5t3.5 -110t2 -119.5t0.5 -114t-0.5 -98t-2.5 -78l-44 -20l-44 -20q32 0 70 1.5t81 1.5h86q2 52 3 113.5t1 125.5q0 45 -0.5 90.5t-1 87.5t-2 78.5t-2.5 64.5q42 20 83 40.5t83 40.5
q-5 -20 -8 -61.5t-5 -96t-3 -116t-1 -120.5q0 -67 2 -125t5 -90z" />
    <glyph glyph-name="afii10043" unicode="&#x429;" horiz-adv-x="930" 
d="M856 139q-27 -9 -54.5 -18t-55.5 -19q54 -2 95.5 -4.5t66.5 -6.5q-14 -43 -21.5 -92t-7.5 -84v-22.5t1 -20.5q-26 -12 -51 -23t-50 -23q-5 18 -7 42t-2 50q0 15 0.5 31t2.5 30q-24 4 -78.5 7.5t-126 7t-152.5 6.5t-157 5.5t-140 4t-101 2.5q14 13 28.5 26t28.5 26
q2 20 3 45t1 54q0 61 -3.5 135.5t-9.5 144.5t-14 128t-16 86q5 2 11 4.5t11 4.5q7 -32 13 -91.5t11 -130.5t8 -144.5t3 -132.5q0 -54 -3 -90q4 5 8 8t9 8q2 23 3.5 55t1.5 69q0 60 -2 128.5t-5 133t-7 118t-8 83.5q38 17 75.5 35t75.5 35q3 -33 5 -84.5t3.5 -110t2 -119.5
t0.5 -114t-0.5 -98t-2.5 -78l-44 -20l-44 -20q44 1 105 2t132 1q2 51 3 110.5t1 122.5v92.5t-1 89.5t-2 80t-3 65q42 20 83 40.5t83 40.5q-5 -18 -8 -60t-5 -97.5t-3 -118.5t-1 -123q0 -66 2 -122t5 -88q-26 -8 -50.5 -16t-50.5 -16l128 -2t122 -3q0 57 0.5 133.5t2 156
t3.5 152.5t6 123q42 20 84 40.5t84 40.5q-8 -26 -14 -73t-10 -104.5t-6.5 -121.5t-2.5 -122q0 -60 2 -110.5t6 -79.5z" />
    <glyph glyph-name="afii10044" unicode="&#x42a;" horiz-adv-x="679" 
d="M273 732q1 -27 3 -63.5t3 -75t2 -74t1 -60.5q20 19 39 38t39 38q28 -3 64.5 -9t74 -14t72.5 -17.5t60 -19.5q-5 -33 -4.5 -79.5t0.5 -96.5t-3.5 -99.5t-15.5 -89.5q-32 -11 -62.5 -22t-61.5 -22q-18 -23 -35 -45.5t-35 -45.5q-34 8 -79.5 14.5t-95.5 11.5t-99.5 7.5
t-91.5 3.5l28 26l28 26q3 42 3 100q0 57 -3 121.5t-7.5 125t-11 111.5t-12.5 80q5 2 10 5t10 5q6 -32 10.5 -82.5t8.5 -110t6 -121.5t2 -117v-56t-2 -47q5 4 9 7.5t8 7.5q2 23 3.5 52t1.5 64q0 52 -1.5 110.5t-4 115.5t-5.5 108.5t-7 87.5q-32 6 -76 9t-83 4q21 26 41 53
t41 53q64 -1 121 -4.5t107 -13.5zM476 405q-17 6 -42 12t-52 11.5t-53.5 9.5t-46.5 7q0 -34 0.5 -67.5t0.5 -67.5q0 -41 -1 -81.5t-2 -81.5q-20 -9 -41 -18t-41 -18q31 -1 68.5 -3t75 -6t71 -8.5t57.5 -9.5q2 13 4 36t3 51t1.5 59t0.5 61q0 35 -1 65.5t-2 48.5z" />
    <glyph glyph-name="afii10045" unicode="&#x42b;" horiz-adv-x="938" 
d="M98 677q38 18 76.5 36.5t76.5 36.5q2 -21 4.5 -58.5t4 -79.5t2.5 -83t1 -70q20 19 38.5 38t38.5 38q28 -3 64.5 -9t74 -14t72.5 -17.5t60 -19.5q-2 -25 -3 -54t-1 -61v-53q0 -52 -3.5 -103.5t-15.5 -93.5q-31 -11 -61.5 -22t-62.5 -22q-17 -23 -34.5 -45.5t-34.5 -45.5
q-34 8 -80 14.5t-96 11.5t-99.5 7.5t-91.5 3.5l28 26l28 26q2 23 3 53.5t1 66.5q0 60 -3.5 129t-9.5 134t-14 120t-16 87l21 9q7 -35 13.5 -91t11 -121t7.5 -133t3 -126q0 -34 -0.5 -63t-2.5 -51l18 15q2 23 3 54t1 66q0 59 -2 126t-5 131t-7 118.5t-8 88.5zM456 405
q-16 6 -40 12t-51 11t-54 9.5t-48 7.5v-74q0 -113 -3 -224q-20 -9 -41 -18t-41 -18q31 -1 69 -3t75.5 -6t71 -8.5t56.5 -9.5q2 12 4 33t3 46.5t1.5 54.5t0.5 57q0 39 -0.5 73.5t-2.5 56.5zM889 87q-23 -28 -47 -56l-48 -56q-36 17 -79.5 26t-89.5 11l26 26t27 26
q2 29 4.5 70.5t2.5 89.5t-1.5 97.5t-4 94.5t-6.5 82t-10 59q5 2 10 5t10 5q4 -25 6.5 -61t4 -78.5t2.5 -88.5t1 -91q0 -50 -1 -94.5t-3 -76.5q5 5 9 8t8 8q5 50 6.5 116.5t1.5 135.5q0 73 -1 137t-5 102q17 11 35 21.5t36 21.5q-45 7 -90 11t-81 5q22 26 43.5 53t42.5 54
q58 -2 125 -7t129 -16q-23 -28 -44.5 -55.5t-44.5 -55.5q-3 -40 -4 -103.5t-1 -131.5q0 -35 0.5 -68.5t1.5 -62.5t2 -52.5t3 -38.5q-26 -12 -51.5 -23.5t-51.5 -22.5q29 -2 60.5 -9t66.5 -17z" />
    <glyph glyph-name="afii10046" unicode="&#x42c;" horiz-adv-x="660" 
d="M98 677q38 18 76.5 36.5t76.5 36.5q2 -21 4.5 -58.5t4 -79.5t2.5 -83t1 -70q20 19 38.5 38t38.5 38q28 -3 64.5 -9t74 -14t72.5 -17.5t60 -19.5q-2 -25 -3 -55t-1 -62v-80q0 -46 -4.5 -89.5t-14.5 -78.5l-62 -22l-62 -22q-17 -23 -34.5 -45.5t-34.5 -45.5q-34 8 -80 14.5
t-96 11.5t-99.5 7.5t-91.5 3.5l28 26l28 26q2 23 3 53.5t1 65.5q0 60 -3.5 129.5t-9.5 135t-14 120t-16 86.5l21 9q7 -35 13.5 -91t11 -121t7.5 -133t3 -126q0 -34 -0.5 -63t-2.5 -51l18 15q2 23 3 54t1 66q0 59 -2 126t-5 131t-7 118.5t-8 88.5zM456 405q-16 6 -40 12
t-51 11t-54 9.5t-48 7.5v-74q0 -113 -3 -224q-20 -9 -41 -18t-41 -18q31 -1 69 -3t75 -6t70.5 -8.5t56.5 -9.5q3 12 5 34.5t3 50.5t1.5 59t0.5 61q0 35 -1 66t-2 50z" />
    <glyph glyph-name="afii10047" unicode="&#x42d;" horiz-adv-x="517" 
d="M3 634q22 29 43.5 58t43.5 58q39 -2 85 -8.5t92.5 -15.5t90.5 -21t80 -25q6 -22 11.5 -56t9 -75t6 -86.5t2.5 -91.5q0 -72 -4.5 -137.5t-18.5 -108.5l-54 -28l-54 -28q-19 -23 -37.5 -47t-37.5 -47q-61 17 -132 25t-138 13q11 32 21.5 62.5t21.5 61.5q25 -1 56 -3.5
t63.5 -6.5t65 -9.5t60.5 -11.5q2 23 3.5 51.5t1.5 58.5q0 28 -0.5 56t-1.5 57q-27 0 -56.5 -0.5t-57.5 -1.5t-52.5 -1.5t-42.5 -1.5q8 25 16 50.5t16 50.5q12 -1 31.5 -1.5t42.5 -1.5t47.5 -1.5t48.5 -0.5q-4 38 -8.5 72t-10.5 62q5 5 9 8t9 7q6 -35 10 -72.5t6 -77.5h30
q-2 48 -7 91.5t-12 79.5q-32 9 -68.5 16.5t-75.5 12.5t-78 9t-76 6zM294 329q2 -21 1.5 -40.5t-0.5 -39.5q0 -77 -6 -146q5 -2 10.5 -3.5t10.5 -3.5q7 47 10.5 98t3.5 102v33h-30z" />
    <glyph glyph-name="afii10048" unicode="&#x42e;" horiz-adv-x="946" 
d="M279 87l-48 -56l-48 -56q-36 17 -80.5 26t-90.5 11l28 26l28 26q2 20 3 47t1 59q0 42 -1.5 90t-4 97t-6 97t-7.5 89t-9 72.5t-10 48.5q5 2 11 4.5t11 4.5q4 -19 7.5 -51.5t7 -73t6 -87t5 -94t3.5 -94t1 -86.5q0 -68 -3 -110q4 5 8 8t9 8q2 31 4 75.5t2 97.5
q0 59 -2 122.5t-4.5 121t-6 104.5t-6.5 72l76 32l76 32q1 -27 2 -68.5t2 -90.5t1.5 -101.5t1.5 -102.5l10 28l10 28q9 -5 23.5 -9.5t30 -8.5t31.5 -7.5t30 -6.5q2 57 9 108t20 94q29 14 58 28.5t59 28.5q17 20 32.5 40t32.5 40q33 -3 71 -9.5t76 -15.5t74.5 -20t66.5 -23
q-1 -11 -1 -21v-21q0 -58 3.5 -123t3.5 -133q0 -76 -4.5 -149.5t-18.5 -130.5q-29 -11 -59 -23t-60 -23q-17 -21 -35 -42t-35 -41q-32 3 -68.5 11t-73 18.5t-70.5 23t-61 24.5q-9 60 -15 135t-7 156q-3 -8 -6.5 -16.5t-6.5 -16.5q-12 2 -28 6t-33 9t-33 10t-26 10v-65v-68.5
t-1 -57.5q-23 -10 -45.5 -20t-45.5 -21q29 -2 59.5 -9t65.5 -17zM554 610q5 2 9 5t9 5q-8 -49 -11 -116t-3 -139q0 -73 3.5 -140.5t11.5 -118.5q37 -11 79.5 -18.5t80.5 -11.5q4 31 5.5 76t1.5 98q0 48 -1 98.5t-3 98.5t-4.5 90t-5.5 72q-41 14 -91 25t-98 19
q-8 -44 -11 -102t-3 -120q0 -44 1 -88t3.5 -84t6 -74.5t8.5 -59.5q5 -2 8.5 -5t8.5 -6q-7 65 -11 148t-4 174q0 45 2.5 88.5t7.5 85.5z" />
    <glyph glyph-name="afii10049" unicode="&#x42f;" horiz-adv-x="640" 
d="M245 750q36 -10 80 -20t90 -18t90 -14.5t81 -10.5q-6 -27 -10 -83.5t-7 -124.5t-4.5 -139.5t-1.5 -128.5q0 -31 0.5 -56t2.5 -41q21 -35 58 -48q-22 -23 -44 -45.5t-44 -45.5q-33 5 -71 24.5t-62 46.5q6 21 9.5 57.5t6 82t3.5 96.5t1 101q0 67 -1 124.5t-2 89.5
q-46 2 -103.5 9t-106.5 18q-2 -16 -3.5 -37.5t-1.5 -44.5q0 -34 1.5 -67.5t6.5 -58.5q16 -5 38 -8.5t46 -7t46.5 -6.5t40.5 -5q-2 45 -4 89.5t-5 86.5l18 9q3 -51 4.5 -110t1.5 -121q0 -86 -3 -166t-12 -133q-3 -1 -6.5 -1.5t-6.5 -1.5q7 59 10.5 121.5t3.5 126.5v68
q-34 -107 -75 -202t-105 -180q-23 1 -49 4.5t-51.5 9t-49.5 12t-42 14.5q15 33 30 67t29 68q15 -7 36.5 -14t44 -13t45 -10.5t40.5 -5.5q33 41 57.5 83.5t46.5 93.5q-29 3 -66 7.5t-74.5 11.5t-72 15.5t-58.5 17.5q-4 13 -7.5 34.5t-6.5 47t-4.5 52.5t-1.5 51q0 23 0.5 42
t2.5 30q31 14 61.5 27.5t61.5 27.5q17 26 34 51t34 51z" />
    <glyph glyph-name="afii10065" unicode="&#x430;" horiz-adv-x="509" 
d="M107 542q42 0 90.5 -4.5t95.5 -12.5t89.5 -19.5t73.5 -25.5q-3 -28 -5 -64.5t-3.5 -77t-2.5 -83.5t-1 -84q0 -26 0.5 -50.5t1.5 -46.5q7 -8 21 -19t29 -16q-21 -16 -41 -32t-41 -32q-58 25 -100 72q-17 -19 -32 -36t-32 -36q-27 3 -56.5 8t-58.5 12.5t-54 17t-43 20.5
q-3 14 -4.5 33t-1.5 40q0 35 3.5 70.5t10.5 59.5l42 18t43 18l20 18t21 18q20 6 42 11l44 10q17 -1 31 -2t25 -2q0 21 -0.5 44t-1.5 35q-46 16 -116 23t-150 8q16 27 31 53.5t30 53.5zM170 246q-3 -20 -3 -55q0 -27 2 -55t5 -46q12 -5 29.5 -9t36.5 -7t37 -5t32 -4
q2 18 3.5 63.5t2.5 101.5q-12 3 -30 5.5t-38.5 5t-40.5 4t-36 1.5z" />
    <glyph glyph-name="afii10066" unicode="&#x431;" horiz-adv-x="526" 
d="M50 614q29 12 57 24.5t57 25.5q19 21 37 42.5t37 43.5q60 -16 128.5 -27t127.5 -15q-11 -27 -22 -53.5t-22 -53.5q-68 3 -137 14t-120 27q-1 -18 -1.5 -36.5t-1.5 -40.5t-1.5 -49t-1.5 -62q17 20 33 40.5t32 40.5q25 -3 55.5 -10t62 -16.5t60 -20.5t48.5 -21
q-1 -11 -1 -26v-29q0 -27 1 -56t1 -58q0 -52 -2.5 -103t-13.5 -87q-29 -13 -57.5 -26.5t-57.5 -27.5q-16 -20 -31 -39.5t-30 -39.5q-28 3 -62.5 11.5t-68 20t-62 24t-44.5 23.5q1 18 2 46t2 63.5t1.5 76.5t0.5 83q0 72 -2 147.5t-4 143.5zM191 112q29 -15 71.5 -24t77.5 -14
q4 24 6 61t2 78q0 57 -3 110t-8 82q-13 6 -31.5 10.5t-39 8.5t-41.5 7.5t-38 5.5q-1 -48 -1 -95.5v-88.5q0 -49 1.5 -85t3.5 -56z" />
    <glyph glyph-name="afii10067" unicode="&#x432;" horiz-adv-x="524" 
d="M198 750q-4 -50 -6 -128t-4 -163q17 21 34.5 41.5t34.5 42.5q25 -3 57 -11.5t63.5 -19t58.5 -22t41 -22.5q-1 -10 -1 -21v-23q1 -34 1.5 -74t0.5 -79q0 -46 -2.5 -89t-12.5 -74q-29 -13 -58 -26.5t-58 -27.5q-15 -20 -30 -39.5t-30 -39.5q-28 3 -62.5 12t-68 20t-62 23.5
t-44.5 23.5q1 18 2.5 48t2 68t1 82t0.5 91q0 58 -1 117.5t-3.5 113t-5.5 97t-7 69.5q4 3 8 5t8 5q4 -23 6.5 -43.5t4.5 -39.5q33 20 66.5 41t65.5 42zM337 407q-10 6 -28 11.5t-39 10.5t-42.5 9t-39.5 7q-1 -29 -1 -57v-55q0 -72 0.5 -130.5t3.5 -90.5q11 -6 28.5 -12
t37.5 -11.5t41.5 -9t41.5 -5.5q5 29 6.5 72t1.5 90q0 51 -3.5 98t-7.5 73zM197 750q14 17 30.5 21t35.5 4q23 0 44.5 -6.5t38 -18.5t26 -28.5t9.5 -36.5q0 -32 -28 -68.5t-96 -73.5q4 6 10 14q54 32 77 62.5t23 56.5q0 18 -9.5 33.5t-25 26.5t-36.5 17t-44 6q-28 0 -55 -9z
" />
    <glyph glyph-name="afii10068" unicode="&#x433;" horiz-adv-x="430" 
d="M338 190q5 3 10.5 5t10.5 5q2 -13 7.5 -28.5t13.5 -31t17.5 -28.5t19.5 -22q-14 -7 -25 -20t-20.5 -29.5t-18 -33.5t-16.5 -32q-35 1 -76 4.5t-82.5 10t-80 16t-67.5 21.5q-3 18 -4 35t-1 36q0 40 6 81q54 29 109.5 67t100.5 71q1 11 1 24.5v26.5v21.5t-2 19.5
q-42 12 -93 19t-103 10q9 -11 17 -25t15 -29t12.5 -30.5t9.5 -27.5q-5 -3 -10.5 -5t-10.5 -5q-2 13 -8 28.5t-14 30.5t-17.5 28.5t-19.5 21.5l24 15q14 26 28 51t28 51q74 -2 151 -16.5t139 -39.5q1 -14 1.5 -28.5t0.5 -28.5q0 -26 -2.5 -52.5t-6.5 -50.5q-25 -11 -52 -26.5
t-54 -33t-52.5 -36t-46.5 -34.5q-3 -23 -3 -48q0 -10 1 -19t3 -17q45 -17 102.5 -24.5t110.5 -10.5q-17 22 -31.5 55t-21.5 58z" />
    <glyph glyph-name="afii10069" unicode="&#x434;" horiz-adv-x="516" 
d="M461 109q-29 -14 -58 -26.5t-58 -26.5q-16 -20 -31.5 -40.5t-31.5 -40.5q-27 3 -59 10t-64 16.5t-61 21.5t-50 24q0 36 -1.5 79t-1.5 92q0 61 2 119.5t13 101.5q32 14 63.5 28.5t63.5 28.5q-4 -32 -7 -76.5t-3 -92.5q0 -34 0.5 -66.5t2 -61t3 -51.5t4.5 -37
q29 -14 68 -22.5t78 -13.5q2 28 3 60t1 66t-0.5 70.5t-1.5 70.5t-2.5 64t-4.5 52q-26 7 -66 28t-81.5 49t-79.5 61t-61 66q26 22 52 43.5t52 44.5q21 -31 59 -66t83 -67t92 -57t86 -37q4 -42 6 -84t2 -87q0 -58 -2 -120t-9 -123z" />
    <glyph glyph-name="afii10070" unicode="&#x435;" horiz-adv-x="474" 
d="M298 225q-22 -5 -55.5 -7t-61.5 -4q2 -26 4 -49.5t4 -44.5q22 -8 53 -15.5t65 -13.5t67.5 -11t60.5 -7q-21 -25 -43 -49.5t-44 -48.5q-33 3 -71 9.5t-76.5 16t-75 21t-65.5 24.5q-7 30 -11 82.5t-4 112.5q0 48 3 94t11 83q26 13 53 25t54 25q17 18 34.5 36.5t34.5 37.5
q47 -15 102 -27.5t104 -20.5q2 -15 3 -34.5t1 -40.5q0 -33 -3 -66.5t-10 -56.5q-18 -7 -34.5 -13t-32.5 -14t-32.5 -18.5t-34.5 -25.5zM182 443q-2 -28 -3.5 -58t-1.5 -62v-26q15 -3 33.5 -5.5t37 -4.5t36 -3.5t31.5 -1.5q2 14 4 32.5t2 38.5q0 40 -6 67q-32 3 -66.5 9
t-66.5 14z" />
    <glyph glyph-name="afii10072" unicode="&#x436;" horiz-adv-x="800" 
d="M796 509q-28 -61 -59 -124q-18 14 -40.5 25.5t-40.5 16.5q-10 -7 -20 -16.5t-19 -22.5q7 -41 19.5 -84.5t27.5 -84t30.5 -75.5t29.5 -59q32 -20 69 -28q-38 -42 -76 -82q-15 3 -33 8.5t-35.5 11.5t-33 13t-26.5 14q-25 57 -43.5 124.5t-27.5 137.5q-23 -35 -42 -75
q-8 -26 -10.5 -49.5t-2.5 -51.5q0 -23 0.5 -44.5t2.5 -40.5l-150 -48q3 22 6 55t5 72.5t4 82t3 83.5q-42 -88 -96 -165.5t-111 -127.5q-28 2 -64 11.5t-61 20.5q14 32 27 62.5t27 62.5q20 -14 45 -24t44 -14q10 7 19.5 16t19.5 23q-8 41 -20 83.5t-26.5 82t-30.5 74
t-31 58.5q-33 21 -69 28q20 21 41 41.5t41 41.5q15 -3 32 -8.5t33.5 -11.5t31.5 -13.5t26 -14.5q24 -57 42.5 -125t27.5 -137q11 17 21.5 36t21.5 39q5 23 8 44t3 47q0 29 -0.5 54.5t-1.5 40.5q38 12 75 24t75 25q-3 -22 -5.5 -55t-5 -72t-4 -81.5t-2.5 -82.5
q41 87 92.5 163.5t108.5 127.5q13 -1 30.5 -4t35 -7.5t34 -10t28.5 -11.5z" />
    <glyph glyph-name="afii10073" unicode="&#x437;" horiz-adv-x="462" 
d="M36 439q15 26 30.5 51.5t30.5 51.5q40 0 82.5 -3.5t84 -8.5t80.5 -13t72 -17q1 -7 1 -14.5v-15.5q0 -21 -3.5 -45.5t-9.5 -49.5t-14.5 -48.5t-18.5 -40.5q-17 -9 -33 -18.5t-33 -18.5q33 -8 64 -17.5t56 -20.5q0 -16 0.5 -33.5t0.5 -36.5q0 -30 -0.5 -63t-1.5 -66t-3 -63
t-6 -54l-52 -26l-52 -26q-14 -23 -28.5 -46t-28.5 -46q-58 5 -117.5 18t-107.5 32q-6 30 -6 75q0 23 1.5 47.5t5 47t8.5 42.5t13 35q26 17 52 32.5t52 31.5q-8 -26 -11 -63.5t-3 -74.5q0 -22 0.5 -43.5t2.5 -38.5q32 -11 72 -16.5t78 -9.5q1 22 2 50t1 58q0 42 -2.5 82.5
t-5.5 65.5q-23 8 -51.5 16t-59 15.5t-62 13t-59.5 8.5q23 23 46.5 47t46.5 47q27 -1 56 -3.5t58 -7.5q6 28 9.5 58.5t3.5 56.5q0 7 -0.5 13t-0.5 12q-19 8 -47 15t-60.5 12t-66.5 8.5t-66 5.5zM90 323q-5 -2 -10 -4.5t-10 -4.5q-2 13 -8 28.5t-14 30.5t-17.5 28.5
t-19.5 21.5q14 8 25 16q9 -11 17 -25.5t15 -30.5t13 -31.5t9 -28.5z" />
    <glyph glyph-name="afii10074" unicode="&#x438;" horiz-adv-x="547" 
d="M531 38q-21 -16 -42.5 -31.5t-43.5 -31.5q-25 12 -53 34.5t-45 45.5q-19 -20 -37 -40t-37 -40q-60 10 -119 26t-107 45q4 17 7.5 41t5 52.5t2.5 59.5t1 62q0 49 -1 93t-4 89q-8 11 -20 20.5t-25 15.5l90 63q26 -11 52.5 -27.5t48.5 -36.5q-2 -15 -4 -39.5t-3 -54.5
t-1.5 -63.5t-0.5 -66.5q0 -46 1 -86t3 -60q24 -12 63.5 -20t77.5 -11q5 31 7.5 82.5t2.5 108.5q0 55 -0.5 103t-2.5 77q-5 10 -10 16.5t-11 12.5l44 32t44 33q21 -12 44.5 -27.5t45.5 -39.5q-5 -8 -8.5 -27.5t-6.5 -47t-4.5 -60.5t-1.5 -69v-61q0 -37 0.5 -71.5t2.5 -61.5
q7 -11 19 -21t26 -18z" />
    <glyph glyph-name="afii10075" unicode="&#x439;" horiz-adv-x="547" 
d="M531 38q-21 -16 -42.5 -31.5t-43.5 -31.5q-25 12 -53 34.5t-45 45.5q-19 -20 -37 -40t-37 -40q-60 10 -119 26t-107 45q4 17 7.5 41t5 52.5t2.5 59.5t1 62q0 49 -1 93t-4 89q-8 11 -20 20.5t-25 15.5l90 63q26 -11 52.5 -27.5t48.5 -36.5q-2 -15 -4 -39.5t-3 -54.5
t-1.5 -63.5t-0.5 -66.5q0 -46 1 -86t3 -60q24 -12 63.5 -20t77.5 -11q5 31 7.5 82.5t2.5 108.5q0 55 -0.5 103t-2.5 77q-5 10 -10 16.5t-11 12.5l44 32t44 33q21 -12 44.5 -27.5t45.5 -39.5q-5 -8 -8.5 -27.5t-6.5 -47t-4.5 -60.5t-1.5 -69v-61q0 -37 0.5 -71.5t2.5 -61.5
q7 -11 19 -21t26 -18zM118 678q29 6 57.5 11.5t57.5 12.5q1 -23 7.5 -39t16 -26t21 -15t22.5 -5q14 0 23 9t9 28q0 12 -4 25q28 5 55.5 11.5t55.5 11.5q-9 -28 -24 -52.5t-39 -42.5t-58.5 -28.5t-82.5 -10.5q-25 0 -44.5 11.5t-33.5 28.5t-24 36t-15 34z" />
    <glyph glyph-name="afii10076" unicode="&#x43a;" horiz-adv-x="548" 
d="M527 501q-27 -57 -55 -113q-31 13 -69.5 23.5t-73.5 13.5q-39 -41 -70 -92q27 -2 58 -6.5t62 -10.5t59.5 -14t51.5 -18q-5 -26 -7 -66t-2 -77q0 -20 0.5 -36.5t1.5 -27.5q8 -11 19.5 -19.5t25.5 -13.5q-19 -17 -37 -34.5t-37 -34.5q-63 12 -107 60q-1 7 -1 15v17
q0 18 0.5 37t1.5 38t3 35.5t4 29.5q-25 12 -64.5 20.5t-77.5 13.5q-6 -14 -12 -27t-11 -27q0 -39 1.5 -73t3.5 -57q4 -7 9.5 -12.5t11.5 -10.5q-23 -15 -47.5 -29.5t-48.5 -29.5q-21 12 -40.5 27t-40.5 38q6 10 10 39t6.5 67.5t3.5 83.5t1 89v63t-2 54q-12 26 -42 42
q20 16 40.5 32t40.5 32q28 -9 56.5 -24.5t49.5 -35.5q-7 -42 -9.5 -104t-3.5 -125q30 79 73 154.5t91 134.5q45 -3 91 -14t82 -27z" />
    <glyph glyph-name="afii10077" unicode="&#x43b;" horiz-adv-x="507" 
d="M154 464l69 78q24 -9 54 -18t62 -17.5t63 -15.5t56 -11q-5 -16 -8.5 -43t-5 -60t-2 -69.5t-0.5 -71.5q0 -47 1.5 -93.5t3.5 -71.5q7 -11 22 -20t27 -16q-24 -16 -48 -31t-47 -31q-27 12 -53 26.5t-48 36.5q3 15 5 45t3.5 67.5t2 79t0.5 79.5v20q0 28 -0.5 51.5t-2.5 37.5
q-29 3 -64.5 9t-62.5 16q5 -44 9.5 -84t4.5 -78q0 -91 -21 -165.5t-71 -138.5q-28 2 -60.5 11t-54.5 22q13 32 26 63t26 63q19 -14 42.5 -23.5t43.5 -11.5q8 24 13 53t5 61q0 57 -14 115t-42 106z" />
    <glyph glyph-name="afii10078" unicode="&#x43c;" horiz-adv-x="790" 
d="M580 414q-18 4 -39 9.5t-37 13.5q-5 -21 -9.5 -52t-9 -67.5t-8.5 -77t-7 -79t-5.5 -74t-3.5 -62.5q-37 -13 -73.5 -25.5t-72.5 -25.5q-12 49 -22 109t-16.5 120.5t-10.5 116t-4 96.5q-21 3 -39 8.5t-37 16.5q5 -42 8 -80.5t3 -76.5q0 -92 -22 -169.5t-72 -139.5
q-28 2 -60.5 11t-53.5 22q13 32 25.5 62.5t26.5 62.5q19 -14 42.5 -23t43.5 -11q8 23 12 52.5t4 61.5q0 57 -13.5 116.5t-36.5 104.5q17 8 33.5 15t33.5 15q17 20 34 39t34 39q38 -19 87 -35.5t92 -27.5q-3 -18 -3.5 -41.5t-0.5 -46.5q0 -33 1.5 -68.5t4.5 -70t7.5 -66
t10.5 -55.5q8 37 15 81t12 88t7.5 84t2.5 69l40 44t40 45q42 -20 90.5 -37t96.5 -28q-8 -23 -13 -68.5t-5 -100.5q0 -32 1 -65.5t3.5 -64.5t5.5 -58.5t8 -48.5q8 -10 22 -19.5t26 -16.5q-23 -16 -47 -31t-48 -31q-28 11 -55.5 27t-49.5 36q-5 41 -7.5 86t-2.5 91
q0 52 3 103.5t8 97.5z" />
    <glyph glyph-name="afii10079" unicode="&#x43d;" horiz-adv-x="549" 
d="M224 39l-48 -32l-48 -32q-24 11 -50.5 29t-43.5 37q8 6 14 19.5t9.5 39.5t5.5 65t2 96v42.5t-0.5 45.5t-1 45t-1.5 41q-5 14 -15.5 23.5t-26.5 19.5q23 16 46.5 32t46.5 32q29 -11 56.5 -27t50.5 -38q-14 -12 -18.5 -59t-5.5 -141q11 25 22 53q13 -3 30.5 -7.5t37 -8.5
t38 -7.5t32.5 -5.5v40t-0.5 41t-1 37.5t-1.5 29.5q-8 17 -23 29q23 16 44.5 32t44.5 32q52 -22 97 -65q-19 -13 -24 -66t-5 -159q0 -41 1 -84.5t3 -85.5q7 -13 16 -22.5t25 -20.5l-50 -32t-51 -32q-29 11 -52 27t-46 39q14 12 18.5 58t4.5 141q-5 -9 -9 -18.5t-9 -18.5
q-13 2 -32 5.5t-39 8t-39 9t-32 9.5v-45q0 -34 0.5 -66.5t1.5 -53.5q4 -8 11 -15.5t15 -15.5z" />
    <glyph glyph-name="afii10080" unicode="&#x43e;" horiz-adv-x="515" 
d="M457 92l-54 -22t-55 -22q-16 -19 -32 -37t-33 -37q-24 3 -56.5 10.5t-65.5 17t-62.5 21.5t-48.5 24q-1 38 -3.5 91t-2.5 111q0 47 3 91.5t11 82.5q26 11 53 21.5t54 21.5q15 19 30.5 38t30.5 38q25 -3 58 -11.5t67 -19t64 -23t50 -24.5q1 -38 3 -85.5t2 -99.5
q0 -48 -2.5 -95.5t-10.5 -91.5zM325 409q-33 14 -71.5 21.5t-73.5 11.5q-2 -26 -3 -55.5t-1 -60.5q0 -35 1 -69t2.5 -63.5t4 -52t4.5 -33.5q32 -14 70 -22t74 -12q2 30 3 63t1 67t-1 66.5t-2.5 59.5t-3.5 47.5t-4 31.5z" />
    <glyph glyph-name="afii10081" unicode="&#x43f;" horiz-adv-x="543" 
d="M487 73q17 -23 46 -36q-24 -16 -47.5 -31t-47.5 -31q-25 12 -50.5 27t-47.5 36q2 15 4 37t3.5 49t2 57.5t0.5 60.5q0 51 -0.5 96.5t-2.5 68.5q-11 6 -28 11t-36 8.5t-39.5 6.5t-38.5 5q-3 -18 -5 -47t-3 -63t-1.5 -71t-0.5 -72q0 -26 -1 -49.5t0.5 -42.5t7 -33t19.5 -21
q-25 -16 -49.5 -32t-49.5 -32q-20 13 -39.5 27.5t-41.5 38.5q6 10 10.5 36.5t7.5 62.5t4 79t1 86q0 29 1 55.5t-2.5 48.5t-14 39.5t-33.5 29.5q20 16 40.5 32t40.5 32q28 -10 58.5 -33.5t47.5 -48.5q17 20 33 40.5t33 41.5q29 -5 60.5 -11t62.5 -15t59 -20t50 -26
q-5 -18 -8 -44.5t-5.5 -58t-3.5 -66t-1 -68.5q0 -51 1.5 -93.5t3.5 -66.5z" />
    <glyph glyph-name="afii10082" unicode="&#x440;" horiz-adv-x="536" 
d="M197 -171q-38 -20 -76 -39t-76 -39q4 14 7.5 60.5t6 109.5t3.5 135t1 137q0 92 -2 149t-4 86q-8 17 -24 29.5t-33 20.5l48 32t47 32q26 -11 55.5 -32.5t46.5 -45.5q17 20 34 39t34 39q27 -4 57.5 -12.5t61 -19.5t58.5 -23.5t48 -24.5q0 -31 0.5 -71t0.5 -82
q0 -54 -3.5 -107t-12.5 -96q-29 -14 -57.5 -26.5t-57.5 -26.5q-14 -18 -28.5 -35.5t-28.5 -34.5q-25 0 -55.5 3t-52.5 8q0 -11 -0.5 -23.5t-0.5 -25.5q0 -36 0.5 -69.5t2.5 -46.5zM349 65q5 24 7 61.5t2 78.5q0 30 -1 60t-2.5 56.5t-3 47.5t-3.5 33q-14 8 -32.5 14.5
t-39 11.5t-40.5 8.5t-36 6.5q-2 -24 -3.5 -60t-1.5 -82v-47q0 -28 -0.5 -55t-0.5 -53q0 -13 0.5 -26t0.5 -26q12 -6 31.5 -11t41.5 -8.5t43.5 -6t37.5 -3.5z" />
    <glyph glyph-name="afii10083" unicode="&#x441;" horiz-adv-x="440" 
d="M427 73q-22 -25 -43.5 -49.5t-44.5 -48.5q-32 4 -69 11t-74.5 16.5t-72.5 21t-63 24.5q-6 27 -9.5 73.5t-3.5 99.5q0 52 2.5 104.5t8.5 94.5q24 11 48 21.5t48 21.5q20 20 40.5 39.5t40.5 39.5q19 -13 44 -26.5t52 -26.5t54 -24t52 -20q-19 -23 -37.5 -45t-37.5 -45
q-20 5 -43.5 12t-47.5 15.5t-47 18t-42 20.5q-2 -19 -3 -39.5t-1 -42.5q0 -61 3.5 -119.5t10.5 -95.5q23 -9 52.5 -16.5t61 -14.5t63 -12t58.5 -8z" />
    <glyph glyph-name="afii10084" unicode="&#x442;" horiz-adv-x="778" 
d="M724 73q16 -23 44 -36q-24 -16 -47.5 -31t-47.5 -31q-26 12 -49.5 27t-45.5 36q2 15 3.5 38.5t2.5 52t1.5 60.5t0.5 64v50v66t-1 40q-9 6 -23.5 11t-31 9t-33.5 6.5t-30 4.5q-3 -12 -5 -33.5t-3.5 -48.5t-2 -58t-0.5 -61v-45q0 -36 1 -67t3 -59q10 -19 32 -29
q-23 -17 -46.5 -32.5t-46.5 -31.5q-23 12 -43.5 26.5t-40.5 37.5q2 13 3.5 35.5t2.5 51t1.5 61t0.5 64.5q0 57 -1 98.5t-3 61.5q-10 6 -24.5 10.5t-30 8.5t-31.5 6.5t-30 4.5q-3 -18 -4.5 -48.5t-2.5 -66.5t-1.5 -75t-0.5 -76q0 -26 -1 -47t0.5 -38t7.5 -29.5t20 -21.5
q-25 -16 -49 -32t-49 -32q-21 13 -40.5 27.5t-40.5 38.5q13 21 17 89t4 178q0 29 -1 60t-2 60q-5 14 -17 28t-28 22q20 16 40.5 32t40.5 32q13 -5 28.5 -13.5t29.5 -19t26.5 -22.5t21.5 -24q16 20 32.5 39.5t32.5 39.5q51 -11 104.5 -30.5t95.5 -45.5q16 20 31 38t31 38
q55 -11 109 -26.5t96 -41.5q-5 -17 -8 -43.5t-4.5 -58t-2.5 -66.5t-1 -68q0 -24 0.5 -49t1 -47.5t1.5 -40.5t3 -28z" />
    <glyph glyph-name="afii10085" unicode="&#x443;" horiz-adv-x="537" 
d="M326 -159q6 34 12 89t11 118q-15 -19 -30.5 -36.5t-29.5 -36.5q-66 8 -129 27t-111 46q5 14 8 37.5t5 52.5t3 62t1 66q0 48 -1 91t-4 71q-8 17 -24.5 29.5t-33.5 20.5q24 16 49 32t49 32q27 -11 56 -27t52 -38q-3 -13 -4.5 -37.5t-2.5 -56t-1.5 -68t-0.5 -72.5
q0 -100 3 -130q28 -12 68.5 -23.5t78.5 -17.5q2 42 4 85t2 84q0 40 -1.5 76.5t-5.5 65t-10.5 47.5t-15.5 26q28 21 55.5 42.5t54.5 43.5q16 -5 27.5 -25t19 -51.5t10.5 -73t3 -87.5q0 -53 -3.5 -110.5t-9.5 -114t-13.5 -108.5t-15.5 -95q-29 -14 -57.5 -29.5t-57.5 -30.5
q-19 -20 -37.5 -38.5l-37.5 -37.5q-22 15 -50.5 30t-60 28.5t-64 24.5t-60.5 19q23 20 47 40t48 41q23 -3 51 -11t56.5 -19.5t54 -25t43.5 -27.5z" />
    <glyph glyph-name="afii10086" unicode="&#x444;" horiz-adv-x="750" 
d="M309 750q4 -23 6.5 -43.5t4.5 -39.5q32 20 65 41t65 42q-2 -58 -4.5 -132t-4.5 -157l66 81q22 -4 48 -12t52.5 -18t51.5 -21t43 -21q0 -27 0.5 -49.5t1 -44.5t0.5 -46v-52q0 -46 -4 -88.5t-13 -80.5l-117 -57q-12 -17 -24 -34.5t-25 -34.5q-18 0 -40 2.5t-41 5.5
q1 -65 2 -106.5t3 -55.5q-38 -20 -77 -39t-77 -39q4 11 6.5 41t4.5 72.5t3 93t2 102.5q-16 -20 -32 -39.5t-32 -38.5q-22 4 -48 11.5t-52.5 17.5t-51 20.5t-43.5 20.5q-1 32 -2 56.5t-1.5 44.5t-0.5 36v32q0 68 4.5 113t13.5 80q29 14 58 27.5t58 27.5q11 17 23 34t23 34
q18 -2 39.5 -4t41.5 -5q-2 70 -5 126.5t-7 85.5q4 3 7.5 5t8.5 5zM438 198q0 -30 0.5 -57t0.5 -53q26 -8 60 -13t61 -7q5 26 7.5 61.5t2.5 77.5q0 75 -3 126.5t-7 75.5q-27 10 -57.5 16.5t-61.5 10.5q-1 -60 -2 -120.5t-1 -117.5zM309 228q0 51 -0.5 102.5t-1.5 104.5
q-26 8 -59.5 12.5t-58.5 6.5q-6 -28 -8.5 -69t-2.5 -87q0 -56 3 -107t8 -78q27 -11 57.5 -17t60.5 -10q1 35 1.5 70t0.5 72z" />
    <glyph glyph-name="afii10087" unicode="&#x445;" horiz-adv-x="476" 
d="M476 472q-19 -25 -38 -50.5t-38 -50.5q-36 11 -76 31.5t-69 41.5q20 -82 43.5 -167.5t52.5 -157.5q26 -21 59 -37t66 -26q-23 -20 -46 -40.5t-46 -40.5q-17 5 -37.5 12.5t-41.5 17t-41 20.5t-35 22l-63 -72q-38 21 -81 40.5t-86 28.5q18 25 36.5 50.5t37.5 50.5
q38 -11 75.5 -30t68.5 -41q-20 84 -42.5 168.5t-51.5 154.5q-26 22 -57.5 37t-66.5 26q23 20 46 41t46 41q17 -3 38 -10.5t42 -17t40.5 -21t33.5 -23.5l63 72q36 -23 79.5 -41.5t88.5 -28.5z" />
    <glyph glyph-name="afii10088" unicode="&#x446;" horiz-adv-x="541" 
d="M422 542q21 -12 40.5 -27.5t40.5 -39.5q-5 -9 -9 -35.5t-6.5 -62.5t-4 -78.5t-1.5 -84.5q0 -35 0.5 -67t1.5 -56q21 -26 34 -63t15 -74q-20 -22 -41 -43.5t-41 -43.5q-8 -11 -15.5 -23t-15.5 -23q-45 6 -85.5 8.5t-77.5 2.5q-23 0 -43 -1.5t-40 -3.5q15 20 29.5 39
t29.5 39h15q19 0 43.5 -1.5t51 -5t53.5 -9t51 -12.5q-6 49 -28 98.5t-64 87.5q-19 -22 -37 -44t-37 -44q-29 5 -61 11.5t-62.5 14.5t-58.5 18.5t-50 24.5q4 17 7.5 43t5 57.5t2.5 66t1 68.5v56q-1 34 -1 57t-4 39.5t-14 27.5t-30 20l93 63q24 -11 49.5 -27.5t47.5 -36.5
q-2 -14 -3.5 -36t-2.5 -49t-1.5 -57.5t-0.5 -60.5v-36q0 -48 0.5 -82t2.5 -48q9 -6 27 -11t39 -9.5t43 -8.5t40 -6q1 38 2 82t1 89q0 63 -1 119.5t-3 88.5q-9 16 -25 24q25 16 49 32t49 33z" />
    <glyph glyph-name="afii10089" unicode="&#x447;" horiz-adv-x="544" 
d="M524 39q-25 -16 -49.5 -32t-48.5 -32q-29 11 -52.5 27t-46.5 39q8 7 13 20t8 35.5t4.5 57t1.5 85.5l-22 -40l-22 -40q-31 1 -68 5t-72.5 10t-66.5 13t-50 15q6 51 6 128q0 34 0.5 56.5t-2.5 38.5t-12.5 28t-29.5 24q25 17 50 32.5t49 32.5q28 -11 52 -27.5t47 -38.5
q-13 -10 -17 -40t-4 -81q0 -17 0.5 -33.5t1.5 -32.5q10 -5 28 -10t39.5 -8.5t45.5 -6.5t47 -4v47.5t-0.5 51t-1 48t-1.5 39.5q-3 10 -10.5 18t-16.5 13q23 16 46.5 32t46.5 33q52 -22 97 -65q-9 -3 -15 -21.5t-9 -47.5t-4 -66.5t-1 -80.5q0 -50 1 -98t3 -81
q6 -13 13.5 -22.5t21.5 -20.5z" />
    <glyph glyph-name="afii10090" unicode="&#x448;" horiz-adv-x="778" 
d="M111 542q26 -11 49 -26.5t45 -37.5q-3 -17 -4.5 -45t-2 -61.5t-1 -71t-0.5 -71.5v-77t2 -44q9 -6 23 -11t30.5 -9t33 -7t30.5 -4q3 12 5 34t3.5 50t2 60t0.5 62q0 51 -1.5 90.5t-3.5 74.5q-4 10 -12.5 17t-18.5 12l94 65q22 -12 42.5 -27t40.5 -37q-2 -14 -3.5 -37.5
t-2.5 -53t-1 -62.5v-66q0 -55 0.5 -95t2.5 -58q10 -6 24.5 -11t30 -9t31.5 -7t30 -4q3 17 5 45t3 62.5t1.5 72t0.5 73.5v70.5t-1 51.5q-10 19 -28 27l99 65q21 -12 41 -27.5t40 -38.5q-6 -10 -10 -35.5t-6.5 -60t-3.5 -75t-1 -80.5q0 -43 1 -81.5t2 -67.5q7 -12 19.5 -22
t26.5 -16l-91 -63q-26 12 -53 33t-43 45l-66 -78q-52 11 -105.5 30t-94.5 45l-62 -75q-54 10 -108 25t-97 42q4 17 7.5 43.5t5 58t2.5 66.5t1 68q0 24 -0.5 49t-1 47.5t-1.5 40t-2 28.5q-8 12 -19.5 21t-24.5 15z" />
    <glyph glyph-name="afii10091" unicode="&#x449;" horiz-adv-x="778" 
d="M305 -173q15 20 29.5 39t29.5 39q11 0 22.5 0.5t23.5 0.5q66 0 136.5 -8t138.5 -22q-8 50 -31 100t-63 88q-18 -23 -37 -45l-38 -44q-51 11 -105 30t-95 45q-16 -20 -31.5 -38t-31.5 -37q-54 11 -108 25.5t-96 41.5q4 17 7 43.5t5 58.5t3 67t1 69v17q0 22 -0.5 44.5
t-1.5 42t-2 35t-2 24.5q-16 23 -44 36l96 63q26 -12 49 -27.5t45 -36.5q-3 -16 -4.5 -42t-2.5 -58.5t-1.5 -67.5t-0.5 -69q0 -50 0.5 -85t1.5 -49q9 -6 23.5 -11t31 -9t33 -7t30.5 -4q3 12 5 34t3.5 50t2 59.5t0.5 62.5q0 62 -2.5 101t-4.5 66q-8 18 -29 28q23 17 46.5 32.5
t46.5 32.5q23 -12 43.5 -27t40.5 -38q-4 -23 -6 -70.5t-2 -102.5v-60q0 -51 1 -86t2 -53q20 -10 56 -19t69 -14q1 38 2 84t1 93q0 63 -1 117t-3 86q-9 17 -25 25q25 16 49 32t49 33q20 -12 39.5 -27.5t41.5 -39.5q-6 -9 -10 -34.5t-6.5 -62.5t-3.5 -84t-1 -99v-56t1 -50
q26 -39 37 -73t13 -62q-20 -22 -41.5 -43.5t-41.5 -43.5q-8 -11 -15 -23t-15 -23q-48 6 -106 8.5t-114 2.5q-36 0 -70 -1.5t-63 -3.5z" />
    <glyph glyph-name="afii10092" unicode="&#x44a;" horiz-adv-x="576" 
d="M514 103l-56 -26l-56 -26l-28 -38l-28 -38q-24 3 -58.5 10.5t-70 18t-68 21.5t-52.5 22q3 12 4.5 36t3 56.5t2 70t0.5 75.5q0 45 -0.5 85.5t-2.5 69.5q-27 7 -61.5 10t-64.5 4q14 22 26 43.5t26 44.5q19 0 49.5 -1.5t63 -3.5t62.5 -6t48 -8q-3 -13 -5.5 -37.5t-4 -55
t-2.5 -66t-2 -71.5q13 20 25 40.5t25 40.5q28 -2 65.5 -6.5t73.5 -11t65 -13.5t39 -14v-86q0 -43 -3 -80t-15 -60zM393 260q-4 3 -20.5 7t-39.5 8t-48 7t-46 4q0 -21 -0.5 -41t-0.5 -39q0 -32 0.5 -58.5t2.5 -41.5q13 -6 32.5 -11t40.5 -8.5t41.5 -6.5t36.5 -6q4 12 5.5 33
t1.5 47q0 27 -2 55t-4 51z" />
    <glyph glyph-name="afii10093" unicode="&#x44b;" horiz-adv-x="739" 
d="M213 476q-5 -23 -8.5 -73.5t-5.5 -109.5q13 20 25 40.5t25 40.5q28 -2 63 -6.5t69.5 -10.5t63.5 -13.5t46 -14.5v-96q0 -40 -3 -74.5t-14 -55.5q-29 -13 -56.5 -26t-55.5 -26q-14 -19 -28.5 -38t-28.5 -38q-24 3 -58.5 10.5t-70 18t-68 21.5t-52.5 22q3 12 5 37t3.5 58
t2 71t0.5 76q0 33 0.5 63t-3 54t-13.5 42t-31 29q20 17 40 32.5t40 32.5q28 -9 59.5 -28t53.5 -38zM724 39q-26 -16 -50.5 -32t-50.5 -32q-32 11 -57.5 27t-48.5 39q9 7 15 20.5t9.5 38t5 63t1.5 95.5v60q0 29 -0.5 59t-1.5 56q-5 14 -13.5 24.5t-24.5 20.5q24 16 48.5 32
t49.5 32q57 -22 103 -65q-20 -13 -25 -69t-5 -165q0 -38 1 -79t3 -81q7 -12 15.5 -22.5t25.5 -21.5zM353 260q-11 3 -28.5 7t-38.5 8t-44 7t-43 4q-1 -24 -1.5 -48t-0.5 -46q0 -27 0.5 -49.5t2.5 -36.5q13 -6 33 -11t41 -8.5t41.5 -6.5t36.5 -6q3 12 4.5 33t1.5 47
q0 27 -1.5 55t-3.5 51z" />
    <glyph glyph-name="afii10094" unicode="&#x44c;" horiz-adv-x="530" 
d="M213 476q-5 -23 -8.5 -73.5t-5.5 -109.5q13 20 25 40.5t25 40.5q28 -2 65.5 -6.5t73.5 -11t64.5 -13.5t38.5 -14v-96q0 -40 -3 -74.5t-14 -55.5q-29 -13 -56.5 -26t-55.5 -26q-14 -19 -28.5 -38t-28.5 -38q-24 3 -58.5 10.5t-70 18t-68 21.5t-52.5 22q3 12 5 37t3.5 58
t2 71t0.5 76q0 33 0.5 63t-3 54t-13.5 42t-31 29q20 17 40 32.5t40 32.5q28 -9 59.5 -28t53.5 -38zM353 260q-4 3 -21 7t-40 8t-48 7t-45 4q-1 -24 -1.5 -48t-0.5 -46q0 -27 0.5 -49.5t2.5 -36.5q13 -6 33 -11t41 -8.5t41.5 -6.5t36.5 -6q3 12 4.5 33t1.5 47q0 27 -1.5 55
t-3.5 51z" />
    <glyph glyph-name="afii10095" unicode="&#x44d;" horiz-adv-x="431" 
d="M6 442q22 25 43.5 50t43.5 50q32 -4 69 -12.5t74.5 -19.5t72.5 -24.5t63 -28.5q6 -28 10 -76.5t4 -103.5q0 -48 -3 -95t-9 -86q-24 -11 -48 -21.5t-48 -21.5l-78 -78q-51 12 -103.5 25.5t-95.5 27.5q12 26 23.5 50.5t23.5 50.5q22 -6 48 -12.5t53.5 -12.5t53.5 -11.5
t48 -9.5q1 20 2 44t1 50v27.5t-1 27.5q-20 0 -43 -1t-47 -1.5t-46 -1.5t-39 -2q8 21 15 42l14 42q24 -2 64 -3.5t78 -2.5q-2 25 -3.5 46.5t-4.5 35.5q-23 10 -53 19t-61.5 16t-62.5 12.5t-58 8.5z" />
    <glyph glyph-name="afii10096" unicode="&#x44e;" horiz-adv-x="781" 
d="M721 103q-27 -12 -54 -24.5t-54 -25.5q-17 -20 -33 -39.5t-32 -38.5q-25 3 -56.5 10t-63 17t-60.5 21t-48 23q0 29 -2.5 70t-2.5 86v42q-5 -8 -9 -17t-9 -17q-25 6 -53 14.5t-52 19.5v-42.5t0.5 -45.5t1.5 -45t2 -41q11 -19 33 -31q-25 -16 -49.5 -32t-49.5 -32
q-26 11 -54 29t-46 37q8 6 14 22t9.5 44.5t5.5 73t2 107.5v12v37t-1 39q-1 15 -1 29t-3 26.5t-11.5 24t-26.5 22.5q25 16 49 32t49 32q58 -22 102 -65q-14 -12 -19.5 -60t-6.5 -144q5 14 10 29t10 29q17 -7 45 -14.5t60 -14.5q2 29 4 57t7 53q27 12 54.5 24.5t53.5 24.5
q15 20 31 40.5t31 40.5q24 -3 56 -11.5t64.5 -19t62 -22.5t49.5 -24q1 -36 2.5 -79.5t1.5 -89.5q0 -48 -2.5 -97.5t-10.5 -95.5zM590 409q-29 14 -68.5 21.5t-70.5 11.5q-3 -29 -3.5 -65.5t-0.5 -74.5q0 -33 1 -64t2.5 -56.5t4 -45t4.5 -29.5q13 -7 30.5 -12t36 -9t37 -7
t34.5 -5q2 31 3 69t1 76q0 68 -3.5 119t-7.5 71z" />
    <glyph glyph-name="afii10097" unicode="&#x44f;" horiz-adv-x="530" 
d="M49 428q30 9 59.5 18.5t59.5 18.5l34 38t34 39q27 -8 58.5 -15.5t63.5 -14t64 -12t61 -9.5q-4 -19 -7 -49.5t-5.5 -68t-3.5 -78t-1 -78.5q0 -45 0.5 -81t2.5 -56q8 -12 18.5 -21.5t26.5 -19.5q-24 -17 -48.5 -32.5t-48.5 -31.5q-27 11 -49 27t-44 37q3 10 6 29.5t4.5 45
t2.5 55t1 61.5q-29 -72 -65 -137.5t-75 -117.5q-21 1 -47 5t-51.5 9t-49.5 11.5t-42 14.5q14 29 27.5 56t26.5 56q16 -6 36.5 -12.5t42.5 -12t42.5 -9.5t37.5 -5q20 22 37 46t33 50q-32 3 -67 7t-67 10t-58.5 12.5t-39.5 14.5q-6 26 -10 65.5t-4 79.5q0 15 1 29.5t3 25.5z
M193 302q7 -5 22.5 -8.5t36 -6.5t43 -5.5t43.5 -3.5q0 43 -2 82t-4 60q-29 2 -65 7.5t-72 12.5q-4 -19 -5 -39t-1 -40q0 -16 1 -31.5t3 -27.5z" />
    <glyph glyph-name="afii10071" unicode="&#x451;" horiz-adv-x="474" 
d="M298 225q-22 -5 -55.5 -7t-61.5 -4q2 -26 4 -49.5t4 -44.5q22 -8 53 -15.5t65 -13.5t67.5 -11t60.5 -7q-21 -25 -43 -49.5t-44 -48.5q-33 3 -71 9.5t-76.5 16t-75 21t-65.5 24.5q-7 30 -11 82.5t-4 112.5q0 48 3 94t11 83q26 13 53 25t54 25q17 18 34.5 36.5t34.5 37.5
q47 -15 102 -27.5t104 -20.5q2 -15 3 -34.5t1 -40.5q0 -33 -3 -66.5t-10 -56.5q-18 -7 -34.5 -13t-32.5 -14t-32.5 -18.5t-34.5 -25.5zM237 666q-12 -21 -24.5 -41.5t-24.5 -41.5q-20 8 -40 19.5t-38 28.5q13 21 25.5 42t26.5 42q15 -17 35.5 -29t39.5 -20zM410 666
q-12 -21 -24.5 -41.5t-25.5 -41.5q-20 8 -39.5 19.5t-38.5 28.5q13 21 25.5 42t26.5 42q16 -17 36.5 -29t39.5 -20zM182 443q-2 -28 -3.5 -58t-1.5 -62v-26q15 -3 33.5 -5.5t37 -4.5t36 -3.5t31.5 -1.5q2 14 4 32.5t2 38.5q0 40 -6 67q-32 3 -66.5 9t-66.5 14z" />
    <glyph glyph-name="afii10099" unicode="&#x452;" horiz-adv-x="540" 
d="M477 131q0 -47 0.5 -93t1 -86t1.5 -72t2 -51q-39 -20 -77 -39t-76 -39q4 51 6.5 111t4.5 121.5t3 122t1 114.5q0 28 -0.5 58t-0.5 56.5t-0.5 46.5t-0.5 28q-11 7 -28.5 12.5t-38.5 10t-42.5 7t-38.5 4.5q-1 -63 -2 -117.5t-1 -106.5q0 -51 0.5 -92.5t1.5 -64.5
q5 -8 10.5 -13.5t13.5 -9.5q-25 -16 -49.5 -32t-49.5 -32q-20 13 -39.5 27.5t-41.5 38.5q6 10 10.5 37t7.5 64.5t4.5 83t1.5 91.5v87q0 49 -1 94.5t-3 85.5l-28 -2l-28 -2q3 8 5.5 17t4.5 17q10 -2 21 -3t23 -2q-2 41 -5.5 73.5t-7.5 57.5q5 3 8.5 5t8.5 5q4 -23 6.5 -43.5
t4.5 -39.5q32 20 64.5 41t65.5 42q-2 -26 -2.5 -62t-1.5 -78q26 2 50 3.5t45 3.5l-9 -36q-16 3 -39.5 4.5t-47.5 1.5q0 -31 -0.5 -63.5t-0.5 -65.5q17 21 33.5 42t33.5 42q56 -9 119.5 -26t110.5 -44q-4 -19 -7 -58t-4.5 -87t-2 -99.5t-0.5 -96.5z" />
    <glyph glyph-name="afii10100" unicode="&#x453;" horiz-adv-x="427" 
d="M338 190q5 3 10.5 5t10.5 5q2 -13 7.5 -28.5t13.5 -31t17.5 -28.5t19.5 -22q-14 -7 -25 -20t-20.5 -29.5t-18 -33.5t-16.5 -32q-35 1 -76 4.5t-82.5 10t-80 16t-67.5 21.5q-3 18 -4 35t-1 36q0 40 6 81q54 29 109.5 67t100.5 71q1 11 1 24.5v26.5v21.5t-2 19.5
q-42 12 -93 19t-103 10q9 -11 17 -25t15 -29t12.5 -30.5t9.5 -27.5q-5 -3 -10.5 -5t-10.5 -5q-2 13 -8 28.5t-14 30.5t-17.5 28.5t-19.5 21.5l24 15q14 26 28 51t28 51q74 -2 151 -16.5t139 -39.5q1 -14 1.5 -28.5t0.5 -28.5q0 -26 -2.5 -52.5t-6.5 -50.5q-25 -11 -52 -26.5
t-54 -33t-52.5 -36t-46.5 -34.5q-3 -23 -3 -48q0 -10 1 -19t3 -17q45 -17 102.5 -24.5t110.5 -10.5q-17 22 -31.5 55t-21.5 58zM212 563q-20 4 -39 7.5t-38 6.5q31 30 59 62.5t48 65.5q28 -3 55 -5.5t54 -4.5q-32 -37 -68 -70t-71 -62z" />
    <glyph glyph-name="afii10101" unicode="&#x454;" horiz-adv-x="433" 
d="M422 74q-22 -25 -43.5 -50t-43.5 -49q-32 4 -69 12t-74.5 19.5t-72.5 24.5t-63 28q-7 29 -10.5 80.5t-3.5 109.5q0 46 2.5 90t9.5 81q23 11 47.5 21.5t48.5 21.5l79 79q22 -9 48 -17t52 -15t51 -12.5t47 -9.5q-12 -26 -23.5 -51t-23.5 -51q-24 4 -51.5 9.5t-55 11.5
t-52.5 13t-44 13q-3 -47 -3 -104v-22q20 0 44.5 1t49.5 1.5t49 1.5t42 3q-8 -21 -15 -42t-15 -42q-12 1 -30 2t-38.5 2t-42.5 1.5t-41 1.5q2 -33 4 -61t6 -46q23 -10 52.5 -19t61 -16.5t63 -12.5t58.5 -8z" />
    <glyph glyph-name="afii10102" unicode="&#x455;" horiz-adv-x="483" 
d="M442 91q-26 -12 -51.5 -24t-51.5 -24q-14 -17 -28 -33.5t-28 -33.5q-55 17 -119 27.5t-130 15.5q17 26 33 52.5t33 53.5q54 -5 113 -16.5t103 -25.5q2 18 3 41t1 43q0 18 -0.5 35t-2.5 28q-14 8 -36 13t-38 7q-14 -20 -29 -39t-29 -39q-38 4 -77.5 15.5t-65.5 28.5
q-3 14 -3.5 42t-0.5 58q0 28 1 56.5t4 52.5q26 11 51.5 22t51.5 22q11 18 22 36.5t22 36.5q59 -14 124 -25t126 -17q-14 -27 -27.5 -54.5t-27.5 -54.5q-54 5 -111.5 14.5t-105.5 25.5q-2 -17 -2.5 -40t-0.5 -42q0 -17 1 -33.5t3 -31.5q12 -8 35 -12t38 -6q15 19 30 37.5
t30 38.5q17 -2 37 -6t39 -9.5t36 -12.5t29 -14q2 -15 3 -41.5t1 -57.5q0 -29 -1 -57.5t-4 -52.5z" />
    <glyph glyph-name="afii10103" unicode="&#x456;" horiz-adv-x="248" 
d="M235 39l-50 -32t-51 -32q-32 11 -57 27t-48 39q10 7 16 26t9.5 53t4.5 84.5t1 120.5q0 26 -0.5 54t-1.5 54q-5 14 -13.5 24.5t-25.5 20.5q25 16 49.5 32t49.5 32q56 -22 102 -65q-20 -13 -24.5 -70t-4.5 -166q0 -38 0.5 -78.5t2.5 -79.5q8 -12 17 -22.5t24 -21.5z
M203 653q-20 -18 -40.5 -36.5t-40.5 -36.5q-22 14 -42.5 32t-37.5 41q20 19 41 37t41 37q15 -23 36 -41.5t43 -32.5z" />
    <glyph glyph-name="afii10104" unicode="&#x457;" horiz-adv-x="248" 
d="M235 39q-25 -16 -50 -31.5t-51 -32.5q-32 11 -57 27t-48 39q9 7 15 21t9.5 41t5 68t1.5 102v80.5t-2 79.5q-5 14 -13.5 24.5t-25.5 20.5q25 16 49.5 32t49.5 32q56 -22 102 -65q-20 -13 -24.5 -69t-4.5 -165q0 -38 0.5 -79t2.5 -81q8 -12 16 -22.5t25 -21.5zM278 666
q-12 -21 -24.5 -41.5t-24.5 -41.5q-20 8 -40 19.5t-39 28.5q14 21 26.5 42t25.5 42q16 -17 36.5 -29t39.5 -20zM106 666q-13 -21 -25.5 -41.5t-24.5 -41.5q-19 8 -39 19.5t-38 28.5l51 84q16 -17 36 -29t40 -20z" />
    <glyph glyph-name="afii10105" unicode="&#x458;" horiz-adv-x="248" 
d="M197 -171q-38 -20 -76.5 -39t-76.5 -39q4 48 6.5 106t4.5 120t3 123.5t1 117.5v75q0 40 1 69t-2 50.5t-12 37t-29 28.5l50 32l50 32q29 -11 54 -27t48 -38q-8 -5 -13.5 -29.5t-8.5 -71t-4.5 -116t-1.5 -165.5q0 -89 1.5 -157.5t4.5 -108.5zM202 653q-20 -18 -40.5 -36.5
t-40.5 -36.5q-22 14 -42.5 32t-37.5 41q21 19 42 37t42 37q14 -23 35 -41.5t42 -32.5z" />
    <glyph glyph-name="afii10106" unicode="&#x459;" horiz-adv-x="753" 
d="M155 464q17 20 32.5 39t32.5 39q28 -4 58.5 -11t61 -16t59.5 -20t53 -23q-5 -22 -8.5 -71.5t-4.5 -106.5q12 20 24.5 40t25.5 40q28 -2 62 -6.5t66 -11t57.5 -13.5t35.5 -14v-86q0 -43 -3 -80t-15 -60q-29 -13 -56 -26t-56 -26l-28 -38l-28 -38q-24 3 -55.5 10.5
t-63.5 18t-61 21.5t-50 22q3 13 6 42t4.5 65.5t2.5 78.5t1 81q0 27 -0.5 52t-1.5 45q-30 12 -65 19.5t-65 11.5q7 -53 11.5 -102t4.5 -95q0 -82 -17.5 -150t-60.5 -120q-14 0 -30.5 3t-32.5 7.5t-30.5 10.5t-24.5 12q12 30 24.5 59t24.5 59q12 -10 33.5 -19t35.5 -11
q5 20 7.5 45t2.5 52q0 60 -12 124.5t-36 116.5q20 8 39.5 15t39.5 15zM571 260q-4 3 -18 7t-32.5 8t-40 7t-41.5 4q-1 -24 -1.5 -48t-0.5 -46q0 -27 0.5 -49.5t2.5 -36.5q27 -12 63 -19.5t67 -12.5q4 12 5.5 33t1.5 47q0 27 -2 55t-4 51z" />
    <glyph glyph-name="afii10107" unicode="&#x45a;" horiz-adv-x="793" 
d="M749 253q0 -47 -2.5 -86.5t-14.5 -63.5q-29 -13 -56.5 -26t-56.5 -26l-28 -38l-28 -38q-24 3 -55 11t-62.5 18t-61 21t-49.5 22q3 9 5 29t3.5 48t2.5 60.5t1 67.5q-6 -10 -11.5 -20t-11.5 -20q-14 2 -31 5.5t-34 8t-33.5 10t-29.5 10.5q0 -11 -0.5 -22t-0.5 -23
q0 -35 1 -70.5t3 -61.5q8 -16 30 -30q-26 -16 -50 -31.5t-49 -32.5q-25 11 -52 29t-44 37q8 6 14 21t9.5 42.5t5.5 68.5t2 99q0 37 -0.5 80.5t-2.5 79.5q-10 26 -42 46q25 16 49.5 32t49.5 32q58 -23 103 -65q-14 -12 -19.5 -60t-6.5 -144q5 15 11 29.5t12 29.5
q25 -6 61.5 -15.5t66.5 -15.5q0 44 -0.5 83.5t-2.5 65.5q-5 10 -12 16.5t-17 11.5q24 16 47.5 32t47.5 32q23 -12 44 -28t38 -36q-8 -32 -11 -81.5t-5 -104.5q14 20 26.5 41t25.5 41q28 -2 62 -6.5t66.5 -11t57.5 -13.5t35 -14v-76zM611 260q-4 3 -17.5 6.5t-32.5 7
t-41.5 6.5t-43.5 5q-1 -11 -1 -21v-20q0 -39 1 -76.5t3 -61.5q27 -12 63 -19.5t68 -12.5q4 11 5.5 35t1.5 51q0 26 -2 52t-4 48z" />
    <glyph glyph-name="afii10108" unicode="&#x45b;" horiz-adv-x="539" 
d="M527 37q-24 -16 -47 -31t-47 -31q-26 11 -50.5 26.5t-47.5 36.5q2 14 3.5 38.5t3 55.5t2.5 64.5t1 65.5v45q0 37 -1.5 60.5t-1.5 36.5q-11 7 -28.5 12.5t-38.5 10t-42.5 7t-38.5 4.5q-1 -63 -2 -115t-1 -104q0 -51 0.5 -92.5t1.5 -64.5q5 -8 10.5 -13.5t13.5 -9.5
q-25 -16 -49.5 -32t-49.5 -32q-20 12 -39.5 27t-41.5 39q6 10 10.5 39.5t7.5 71t4.5 90.5t1.5 99v16q0 63 -1.5 120t-3.5 107q-15 -1 -29.5 -2t-26.5 -2q2 8 4.5 17t5.5 17q10 -2 21 -3t24 -2q-2 41 -5 73.5t-8 57.5q5 3 8.5 5t8.5 5q4 -23 6.5 -43.5t4.5 -39.5
q32 20 64.5 41t65.5 42q-2 -26 -2.5 -62t-1.5 -78q26 2 50 3.5t44 3.5q-3 -9 -5.5 -18t-4.5 -18q-16 2 -38 4t-47 2q0 -31 -0.5 -63.5t-0.5 -65.5q17 21 33.5 42t33.5 42q29 -5 61.5 -11.5t63.5 -15.5t59 -20.5t49 -24.5q-5 -16 -8 -41t-5 -55t-3 -63t-1 -66v-44
q0 -40 1.5 -75.5t3.5 -52.5q8 -11 20 -20.5t25 -15.5z" />
    <glyph glyph-name="afii10109" unicode="&#x45c;" horiz-adv-x="548" 
d="M527 501q-27 -57 -55 -113q-31 13 -69.5 23.5t-73.5 13.5q-39 -41 -70 -92q27 -2 58 -6.5t62 -10.5t59.5 -14t51.5 -18q-5 -26 -7 -66t-2 -77q0 -20 0.5 -36.5t1.5 -27.5q8 -11 19.5 -19.5t25.5 -13.5q-19 -17 -37 -34.5t-37 -34.5q-63 12 -107 60q-1 7 -1 15v17
q0 18 0.5 37t1.5 38t3 35.5t4 29.5q-25 12 -64.5 20.5t-77.5 13.5q-6 -14 -12 -27t-11 -27q0 -39 1.5 -73t3.5 -57q4 -7 9.5 -12.5t11.5 -10.5q-23 -15 -47.5 -29.5t-48.5 -29.5q-21 12 -40.5 27t-40.5 38q6 10 10 39t6.5 67.5t3.5 83.5t1 89v63t-2 54q-12 26 -42 42
q20 16 40.5 32t40.5 32q28 -9 56.5 -24.5t49.5 -35.5q-7 -42 -9.5 -104t-3.5 -125q30 79 73 154.5t91 134.5q45 -3 91 -14t82 -27zM270 563q-19 4 -38 7.5t-39 6.5q32 30 59.5 62.5t48.5 65.5q27 -3 54.5 -5.5t54.5 -4.5q-32 -37 -68.5 -70t-71.5 -62z" />
    <glyph glyph-name="afii10110" unicode="&#x45e;" horiz-adv-x="537" 
d="M326 -159q6 34 12 89t11 118q-15 -19 -30.5 -36.5t-29.5 -36.5q-66 8 -129 27t-111 46q5 14 8 37.5t5 52.5t3 62t1 66q0 48 -1 91t-4 71q-8 17 -24.5 29.5t-33.5 20.5q24 16 49 32t49 32q27 -11 56 -27t52 -38q-3 -13 -4.5 -37.5t-2.5 -56t-1.5 -68t-0.5 -72.5
q0 -100 3 -130q28 -12 68.5 -23.5t78.5 -17.5q2 42 4 85t2 84q0 40 -1.5 76.5t-5.5 65t-10.5 47.5t-15.5 26q28 21 55.5 42.5t54.5 43.5q16 -5 27.5 -25t19 -51.5t10.5 -73t3 -87.5q0 -53 -3.5 -110.5t-9.5 -114t-13.5 -108.5t-15.5 -95q-29 -14 -57.5 -29.5t-57.5 -30.5
q-19 -20 -37.5 -38.5l-37.5 -37.5q-22 15 -50.5 30t-60 28.5t-64 24.5t-60.5 19q23 20 47 40t48 41q23 -3 51 -11t56.5 -19.5t54 -25t43.5 -27.5zM114 678q29 6 57.5 11.5t57.5 12.5q1 -23 7.5 -39t16 -26t21 -15t22.5 -5q14 0 23 9t9 28q0 12 -4 25q28 5 55.5 11.5
t55.5 11.5q-9 -28 -24 -52.5t-39 -42.5t-59 -28.5t-83 -10.5q-25 0 -44 11.5t-33.5 28.5t-24 36t-14.5 34z" />
    <glyph glyph-name="afii10193" unicode="&#x45f;" horiz-adv-x="542" 
d="M504 80q-14 -26 -28 -51.5t-28 -51.5q-24 5 -56.5 9.5t-67.5 9.5q-5 -31 -12 -60t-17 -55q-37 -18 -74 -37q1 13 1.5 32t0.5 39q0 24 -1.5 48.5t-3.5 43.5q-21 3 -44 5t-45 3.5t-41 3t-34 1.5q3 18 5.5 46t4 62.5t2.5 73.5t1 80q0 40 -1 80t-4 74q-14 20 -43 41l48 32
t48 33q26 -13 48.5 -28.5t46.5 -37.5q-4 -5 -6.5 -31.5t-4 -63.5t-2 -80.5t-0.5 -82.5q0 -38 0.5 -68.5t2.5 -44.5q14 0 32 -0.5t38 -1t40.5 -1t38.5 -1.5q2 28 2.5 64t0.5 75q0 58 -0.5 115t-3.5 98q-8 14 -22 24q24 16 47.5 32t47.5 33q23 -11 48.5 -30t40.5 -37
q-8 -5 -13.5 -25t-8.5 -50.5t-4.5 -69.5t-1.5 -82q0 -34 1 -67t3 -61q-19 -6 -38 -13t-37 -13q23 -2 45 -5.5t48 -8.5z" />
    <glyph glyph-name="afii10050" unicode="&#x490;" horiz-adv-x="485" 
d="M480 760q17 9 33.5 18.5t33.5 18.5q12 -14 24 -34.5t20 -42.5q-15 -8 -30 -16.5t-29 -16.5q-20 -26 -39 -51.5t-38 -51.5q-23 2 -53 5.5t-61 8t-58.5 10t-44.5 11.5q8 -77 11 -157.5t3 -161.5v-70.5t-1 -72.5q-24 -11 -47.5 -22t-47.5 -22q29 -2 64.5 -8.5t71.5 -17.5
l-48 -56l-48 -56q-36 17 -84.5 26t-95.5 11q14 13 28.5 26.5t28.5 26.5q3 27 4 60.5t1 71.5q0 51 -3 106.5t-9 107.5t-13.5 96.5t-16.5 73.5q5 2 9.5 4.5t9.5 4.5q7 -33 13.5 -77.5t11 -95t7 -104t3.5 -102.5q0 -38 -0.5 -72.5t-2.5 -61.5q4 5 8 8t9 8q3 32 4.5 72t1.5 85
q0 48 -2 97.5t-5.5 96.5t-8 88t-10.5 71q28 13 55.5 25t55.5 24q20 24 40 48.5t40 49.5q21 -8 51.5 -15.5t63.5 -13.5t65.5 -11t58.5 -8q-7 17 -16 31.5t-18 26.5z" />
    <glyph glyph-name="afii10098" unicode="&#x491;" horiz-adv-x="430" 
d="M241 409q-42 12 -92.5 19t-102.5 10q-5 -3 -11 -7t-11 -7q-5 19 -8.5 44t-6.5 52t-5 54t-2 49q5 2 10 4.5t10 5.5q0 -21 1.5 -47t4.5 -52.5t7.5 -51t10.5 -42.5q14 26 27 51t26 51q74 -2 151 -16.5t139 -39.5q1 -14 1.5 -28.5t0.5 -28.5q0 -26 -2.5 -52.5t-6.5 -50.5
q-25 -11 -52 -26.5t-54 -33t-52.5 -36t-46.5 -34.5q-3 -23 -3 -48q0 -10 1 -19t3 -17q45 -17 102.5 -24.5t110.5 -10.5q-17 22 -31.5 55t-21.5 58q5 3 10.5 5t10.5 5q2 -13 7.5 -28.5t13.5 -31t17.5 -28.5t19.5 -22q-14 -7 -25 -20t-20.5 -29.5t-18 -33.5t-16.5 -32
q-35 1 -76 4.5t-82.5 10t-80 16t-67.5 21.5q-2 20 -3.5 41t-1.5 43q0 17 2 34l4 34q54 29 109.5 67t100.5 71q1 11 1 24.5v26.5v21.5t-2 19.5z" />
    <glyph glyph-name="endash" unicode="&#x2013;" horiz-adv-x="643" 
d="M45 384q30 -2 75 -3.5t98 -2t110.5 -0.5t111 0.5t99.5 2t78 3.5l-20 -105q-30 3 -75 4.5t-98.5 2.5t-110.5 0.5t-110.5 -1t-100 -2.5t-77.5 -4z" />
    <glyph glyph-name="emdash" unicode="&#x2014;" horiz-adv-x="894" 
d="M45 384q36 -2 101 -3.5t144 -2t165 -0.5t165.5 0.5t145 2t103.5 3.5l-20 -105q-36 2 -101 4t-144.5 2.5t-165.5 0.5t-165.5 -1t-145 -2.5t-102.5 -3.5z" />
    <glyph glyph-name="quoteleft" unicode="&#x2018;" horiz-adv-x="264" 
d="M195 751q-17 -41 -21.5 -69t-0.5 -48t14 -33t22 -22l-75 -83q-24 14 -44.5 32.5t-34.5 43.5q8 40 24.5 79.5t35.5 72.5z" />
    <glyph glyph-name="quoteright" unicode="&#x2019;" horiz-adv-x="264" 
d="M149 522q-20 -8 -40.5 -14.5t-40.5 -13.5q13 31 18.5 54.5t5.5 41.5q0 30 -11.5 47.5t-26.5 28.5l38 42l38 42q23 -14 43.5 -32.5t34.5 -43.5q-8 -41 -24 -80t-35 -72z" />
    <glyph glyph-name="quotesinglbase" unicode="&#x201a;" horiz-adv-x="265" 
d="M149 -106q-20 -7 -40 -13t-40 -14q13 31 18.5 54.5t5.5 42.5q0 29 -11 46t-26 29q18 20 37 41t37 41q24 -14 44.5 -32t34.5 -43q-8 -40 -24.5 -79.5t-35.5 -72.5z" />
    <glyph glyph-name="quotedblleft" unicode="&#x201c;" horiz-adv-x="449" 
d="M380 751q-17 -41 -21.5 -69t-0.5 -48t14 -33t22 -22l-76 -83q-23 14 -43.5 32.5t-34.5 43.5q8 40 24 79.5t35 72.5zM195 751q-17 -41 -21.5 -69t-0.5 -48t14 -33t22 -22l-75 -83q-24 14 -44.5 32.5t-34.5 43.5q8 40 24.5 79.5t35.5 72.5z" />
    <glyph glyph-name="quotedblright" unicode="&#x201d;" horiz-adv-x="449" 
d="M149 522q-20 -8 -40.5 -14.5t-40.5 -13.5q13 31 18.5 54.5t5.5 41.5q0 30 -11.5 47.5t-26.5 28.5l38 42l38 42q23 -14 43.5 -32.5t34.5 -43.5q-8 -41 -24 -80t-35 -72zM333 522q-20 -8 -40 -14.5t-40 -13.5q13 31 18.5 54.5t5.5 41.5q0 30 -11.5 47.5t-26.5 28.5l75 84
q24 -14 44.5 -32.5t34.5 -43.5q-8 -41 -24.5 -80t-35.5 -72z" />
    <glyph glyph-name="quotedblbase" unicode="&#x201e;" horiz-adv-x="450" 
d="M149 -106q-20 -7 -40 -13t-40 -14q13 31 18 54.5t5 41.5q0 31 -10.5 47t-25.5 29q18 20 37 41t37 41q24 -14 44.5 -32t34.5 -43q-8 -40 -24.5 -79.5t-35.5 -72.5zM334 -106q-20 -7 -40 -13t-40 -14q12 30 17.5 53.5t5.5 41.5q0 32 -10 48t-27 29q19 20 38 41t37 41
q24 -14 44.5 -32t34.5 -43q-9 -40 -25 -79.5t-35 -72.5z" />
    <glyph glyph-name="dagger" unicode="&#x2020;" horiz-adv-x="481" 
d="M32 457q5 22 8.5 43.5t8.5 43.5q30 -3 70 -4.5t78 -1.5q-1 54 -3 100t-7 72q26 5 52.5 9t53.5 9q-4 -35 -6 -85.5t-2 -105.5q40 1 83.5 2.5t78.5 4.5q-4 -22 -8 -43.5t-9 -43.5q-30 3 -69.5 4.5t-76.5 2.5q0 -41 1 -85.5t2 -84.5t2.5 -72t3.5 -48q-27 -5 -53.5 -9
t-52.5 -9q2 17 3.5 51.5t3 77.5t2.5 90t1 90q-42 -1 -86 -3t-79 -5z" />
    <glyph glyph-name="daggerdbl" unicode="&#x2021;" horiz-adv-x="481" 
d="M32 497q5 23 8.5 44.5t8.5 43.5q30 -3 69.5 -4.5t77.5 -2.5q-2 41 -4 75.5t-5 56.5q26 5 52.5 9t53.5 9q-3 -29 -5 -68t-3 -82q41 1 84 2.5t78 4.5q-4 -22 -8 -43.5t-9 -44.5q-30 3 -69.5 5t-76.5 3v-22t0.5 -32.5t0.5 -32.5v-22q44 0 85 2t77 5q-4 -23 -8 -44.5
t-9 -43.5q-32 3 -68 5t-76 3q1 -51 3 -90.5t4 -58.5q-27 -5 -53.5 -9t-52.5 -9q2 21 4 66t4 101q-45 0 -86 -2t-77 -6q5 22 8.5 43.5t8.5 44.5q32 -3 69 -5t79 -2v110q-42 -1 -86 -3t-79 -6z" />
    <glyph glyph-name="bullet" unicode="&#x2022;" horiz-adv-x="445" 
d="M354 173q-40 -17 -79.5 -32.5t-78.5 -32.5q-12 4 -28.5 11.5t-33.5 16.5t-31.5 18.5t-21.5 17.5v17q0 26 -1 56t-1 59q0 28 2 53.5t8 45.5q40 16 79 32l78 32q12 -4 29 -12t34 -18t31.5 -20.5t22.5 -19.5v-23q0 -21 0.5 -43t0.5 -45q0 -29 -2 -58t-8 -55z" />
    <glyph glyph-name="ellipsis" unicode="&#x2026;" horiz-adv-x="995" 
d="M267 66q-23 -23 -46 -44.5t-46 -42.5q-26 16 -49.5 36.5t-43.5 48.5l48 44t48 45q19 -28 41.5 -49t47.5 -38zM590 66q-47 -45 -93 -87q-26 16 -49.5 36.5t-43.5 48.5l48 44t49 45q18 -28 41 -49t48 -38zM912 66q-23 -23 -46 -44.5t-46 -42.5q-26 16 -49.5 36.5
t-43.5 48.5l48 44t48 45q19 -28 41.5 -49t47.5 -38z" />
    <glyph glyph-name="perthousand" unicode="&#x2030;" horiz-adv-x="1075" 
d="M333 450q-21 -10 -42 -19.5t-41 -19.5q-14 -14 -28.5 -28t-28.5 -28q-19 2 -41 7.5t-43.5 12t-40.5 15t-33 16.5q-1 32 -3 71.5t-2 78.5q0 28 2 54t7 46l42 18t41 18q14 15 28.5 29t28.5 29q19 -3 41.5 -9t44 -13.5t41 -16.5t33.5 -17q1 -26 2 -56.5t1 -61.5
q0 -33 -2 -65.5t-7 -60.5zM232 651q-22 10 -48 16.5t-50 9.5q-3 -26 -3 -66q0 -23 1 -47t2 -45.5t2.5 -38.5t3.5 -26q21 -10 46.5 -17t51.5 -9q1 12 1.5 28t0.5 35q0 23 -0.5 47.5t-2 46.5t-3 39.5t-2.5 26.5zM223 -7q-32 -5 -63 -9.5t-62 -9.5q25 41 60.5 103.5t74.5 135
t79.5 150t77 148t65.5 128.5t45 92q31 5 62 9.5t63 9.5q-25 -36 -59 -96t-72 -131.5t-78 -149t-76.5 -149.5t-67 -132.5t-49.5 -98.5zM684 70q-21 -10 -42 -19.5t-41 -19.5l-28 -28l-28 -28q-20 2 -42 7.5t-43.5 12.5t-40.5 15t-33 16q-1 30 -2.5 68t-1.5 76q0 29 2 56.5
t7 48.5q20 10 41 19t42 19l28 28l28 28q19 -2 41.5 -8t44.5 -13.5t41 -16.5t33 -17q1 -26 2 -56t1 -62q0 -33 -2 -65t-7 -61zM584 271q-22 10 -48.5 17t-50.5 9q-3 -26 -3 -65q0 -23 1 -47.5t2 -46t2.5 -38.5t3.5 -26q21 -10 47 -17t51 -9q1 12 1.5 28.5t0.5 35.5
q0 23 -0.5 47.5t-1.5 46.5t-2.5 39t-2.5 26zM1035 70q-21 -10 -41.5 -19.5t-42.5 -19.5q-14 -14 -27.5 -28t-27.5 -28q-20 2 -41.5 7.5t-43 12.5t-41 15t-33.5 16q-1 31 -3 69.5t-2 76.5q0 29 2.5 55.5t7.5 47.5q20 10 41 19t42 19l56 56q19 -2 41.5 -8t44 -13.5t41 -16.5
t33.5 -17q1 -26 2 -56t1 -62q0 -33 -2 -65t-7 -61zM935 271q-22 10 -48.5 17t-50.5 9q-3 -26 -3 -65q0 -23 1 -47.5t2 -46t2.5 -38.5t3.5 -26q20 -10 46.5 -17t51.5 -9q1 12 1.5 28.5t0.5 35.5q0 23 -0.5 47.5t-1.5 46.5t-2.5 39t-2.5 26z" />
    <glyph glyph-name="guilsinglleft" unicode="&#x2039;" horiz-adv-x="317" 
d="M290 126q-20 -26 -40 -51t-40 -51q-23 22 -48.5 53.5t-50.5 67t-47 71t-38 64.5q25 25 54.5 59.5t58 71t53.5 72.5t41 63q14 -14 28 -27.5t28 -27.5q-15 -18 -35 -40.5t-41.5 -45t-42 -44.5t-35.5 -38q14 -24 33 -51.5t40 -54.5t42 -51t40 -40z" />
    <glyph glyph-name="guilsinglright" unicode="&#x203a;" horiz-adv-x="317" 
d="M107 547q22 -22 47.5 -53.5t50.5 -66.5t47 -70.5t38 -64.5q-24 -26 -53.5 -60.5t-58 -71t-54 -72t-41.5 -63.5l-56 55q15 18 35 40.5t41.5 45.5t42 44.5t35.5 38.5q-14 24 -32.5 51.5t-39.5 54.5t-42 50.5t-40 40.5z" />
    <glyph glyph-name="Euro" unicode="&#x20ac;" horiz-adv-x="516" 
d="M411 407q-11 1 -31.5 2.5t-46.5 2.5t-56 1.5t-59 0.5q0 -8 -0.5 -17t-0.5 -18q0 -41 3 -80q25 0 51 1t49 2.5t41.5 3.5t29.5 4q-3 -10 -6 -19.5t-5 -20.5q-24 2 -69 4t-90 3q2 -45 6.5 -82t11.5 -62q59 -19 127.5 -28.5t141.5 -14.5q-22 -29 -43 -57.5t-44 -57.5
q-80 5 -163.5 23t-155.5 45q-11 35 -18 98t-10 135q-20 -1 -36.5 -2t-27.5 -3q3 9 5.5 18t5.5 18q8 -2 21.5 -3.5t30.5 -2.5q-1 17 -1 33.5v33.5q0 11 0.5 22t1.5 22q-21 -1 -37.5 -1.5t-26.5 -2.5l6 18t5 18q18 -4 54 -6q2 47 8 87.5t15 72.5q27 14 53.5 28t53.5 28l75 96
q31 -8 59.5 -14.5t57 -11t58 -8t64.5 -5.5l-20 -62t-21 -62q-63 1 -127 13.5t-120 29.5q-6 -45 -9.5 -94t-3.5 -100q31 0 62.5 1t59 2.5t49.5 3.5t34 4q-3 -11 -6 -20.5t-6 -19.5z" />
    <glyph glyph-name="afii61352" unicode="&#x2116;" horiz-adv-x="1156" 
d="M605 681q-4 -18 -7 -50t-6 -72.5t-5 -87t-3.5 -94t-2 -92.5t-0.5 -82q0 -28 0.5 -50.5t2.5 -36.5q11 -17 24 -27t30 -17q-21 -25 -41.5 -49t-40.5 -48q-17 3 -35.5 10t-36.5 17t-34.5 22.5t-28.5 26.5q5 28 9 71.5t6.5 94.5t3.5 105.5t1 105.5q0 49 -1 91t-2 71
q-21 2 -49 5t-57 7.5t-55.5 9t-43.5 9.5q9 -85 11.5 -173.5t2.5 -176.5q0 -29 -0.5 -57t-1.5 -57q-24 -11 -47.5 -22t-47.5 -22q29 -2 58 -8.5t65 -17.5q-24 -28 -47.5 -56t-47.5 -56q-37 17 -79 26t-88 11q14 13 28.5 26.5t28.5 26.5q2 23 3 53t1 62q0 52 -2.5 109t-8 110
t-13 99.5t-16.5 77.5q5 2 9.5 4.5t9.5 4.5q7 -32 13 -74t10.5 -90t7 -98t3.5 -98q0 -43 -0.5 -81t-2.5 -67q4 5 8 8t9 8q3 31 4.5 68t1.5 77q0 48 -2 98.5t-5.5 98.5t-8 90t-9.5 72l108 48q20 26 39 52.5t39 52.5q31 -11 74 -21.5t90 -19.5t93 -16.5t82 -11.5zM1088 311
q-27 -13 -54 -25.5t-54 -24.5q-17 -20 -32.5 -40t-32.5 -40q-25 3 -57 10.5t-65 17t-63 21.5t-49 24q-2 41 -3.5 95.5t-1.5 117.5q0 41 2.5 79.5t10.5 72.5q27 13 54 25l54 24q15 20 30.5 41t31.5 41q24 -3 57 -11.5t67 -19t64 -23.5t50 -25q1 -37 2.5 -81.5t1.5 -95.5
q0 -46 -2.5 -92.5t-10.5 -90.5zM957 615q-14 7 -32.5 13t-38.5 10t-39.5 6.5t-34.5 4.5q-2 -26 -3 -56.5t-1 -62.5q0 -35 1 -69t2.5 -62.5t3.5 -50t5 -33.5q13 -7 31.5 -12.5t38 -9.5t39 -7t35.5 -4q2 21 2.5 46t0.5 51q0 40 -0.5 77.5t-2 69t-3 55t-4.5 34.5zM675 0
q5 23 9 46l8 46q51 -4 97.5 -5.5t93.5 -1.5q53 0 105.5 1t115.5 6q-5 -23 -8.5 -46t-8.5 -46q-51 2 -98.5 4.5t-94.5 2.5q-53 0 -105.5 -1.5t-113.5 -5.5z" />
    <glyph glyph-name="trademark" unicode="&#x2122;" horiz-adv-x="847" 
d="M240 315q-17 -18 -33.5 -36t-33.5 -36q-26 11 -49 16.5t-55 7.5q7 8 13.5 17t13.5 17q3 39 3 89t-3 97.5t-10 74.5l7 3.5t6 3.5q4 -36 7 -85.5t3 -101.5q0 -18 -0.5 -35.5t-1.5 -34.5l6 6t7 6q3 34 4.5 77t1.5 86q0 44 -1.5 82t-4.5 62q12 7 24.5 13.5t24.5 13.5
q-35 5 -74 12t-68 17q14 16 27 31t27 32q61 -11 124 -14.5t135 -3.5q-5 -22 -9.5 -43.5t-9.5 -44.5q-9 0 -22 0.5t-26.5 1.5t-26 2t-19.5 2q-2 -23 -3.5 -58t-1.5 -73q0 -48 2 -91t4 -66q-19 -8 -37 -15t-37 -15q21 -2 41 -6t45 -11zM83 560q-1 0 -1 -1t-1 -1q-15 -5 -24 -5
q-26 0 -38 22.5t-12 49.5q0 6 1 16t3.5 19t5.5 16t7 7q-13 -24 -13 -57q0 -27 11.5 -49t37.5 -22q8 0 23 5zM834 304q-16 -15 -31.5 -30.5t-31.5 -30.5q-23 3 -49 16.5t-43 33.5q4 18 6.5 46t4 61t2 69t0.5 69q0 35 -0.5 64t-1.5 48q-10 2 -23.5 5t-22.5 7q-2 -18 -4 -44.5
t-3 -57.5t-1.5 -63.5t-0.5 -63.5q0 -57 0.5 -91.5t20.5 -46.5l-32 -26l-32 -26q-23 10 -40 21t-33 27q4 15 7 42t5 60t2.5 69.5t0.5 71.5q0 38 -0.5 69t-1.5 50q-14 2 -31 6.5t-26 8.5q7 -54 9 -109t2 -113v-86q-17 -7 -33 -13.5t-33 -14.5q21 -2 41 -5.5t45 -11.5
q-17 -18 -33.5 -36t-33.5 -36q-27 11 -55 16.5t-61 7.5q10 9 19.5 18t20.5 19q2 16 3 35.5t1 41.5q0 34 -2.5 71.5t-6.5 73.5t-10.5 67t-13.5 52q3 2 6 2.5t7 2.5q6 -24 11.5 -56.5t9.5 -69t6 -74.5t2 -71q0 -39 -3 -67q3 3 6.5 5.5t6.5 5.5q2 18 3 39.5t1 45.5
q0 33 -1.5 67.5t-4.5 68t-7 63t-8 51.5q18 7 35 13.5t35 13.5q15 17 29 32.5t29 32.5q26 -13 62 -25t71 -18q8 11 16 21.5t16 21.5q29 -14 69 -26.5t76 -21.5q-4 -17 -7 -53t-5.5 -80.5t-4 -90.5t-1.5 -82q0 -19 0.5 -34t1.5 -25q8 -11 19 -20t24 -13z" />
  </font>
</defs>
</svg>
