<?xml version="1.0" standalone="no"?>
<!DOCTYPE svg PUBLIC "-//W3C//DTD SVG 1.1//EN" "http://www.w3.org/Graphics/SVG/1.1/DTD/svg11.dtd" >
<svg>
<metadata>
Created by FontForge 20090914 at Mon Aug 15 16:08:56 2022
 By www-data
&#194;&#169; 2006 Microsoft Corporation. All Rights Reserved.
</metadata>
<defs>
<font id="Nyala-Regular" horiz-adv-x="0" >
  <font-face 
    font-family="Nyala"
    font-weight="400"
    font-stretch="normal"
    units-per-em="2048"
    panose-1="2 0 5 4 7 3 0 2 0 3"
    ascent="1638"
    descent="-410"
    x-height="734.999"
    cap-height="1181"
    bbox="-784 -534.006 2620 1829"
    underline-thickness="50"
    underline-position="-150"
    unicode-range="U+0020-U+FB04"
  />
<missing-glyph horiz-adv-x="841" 
d="M841 1180v-1180h-841v1180h841zM759 83v1015h-676v-1015h676zM370 385l-1.99512 28.0049c0 74 11.667 126.667 35 158c11.333 15.333 22.166 28.666 32.499 39.999s20.166 21.333 29.499 30c16.667 17.333 30.5 32.666 41.5 45.999s19.167 24.666 24.5 33.999
c10 18 15 38.667 15 62c0 41.333 -12.667 74.666 -38 99.999c-24.667 24.667 -53.667 37 -87 37c-34.667 0 -64.334 -12 -89.001 -36s-40.334 -64 -47.001 -120l-81 13c8.66699 76.667 33.167 133.5 73.5 170.5s89.833 55.5 148.5 55.5
c57.333 0 105.666 -18.667 144.999 -56c38.667 -36.667 58 -89 58 -157c0 -33.333 -6.66699 -66 -20 -98c-13.333 -27.333 -40.333 -61 -81 -101c-42 -36.667 -66.333 -66.334 -73 -89.001c-6.66699 -19.333 -10 -57 -10 -113zM352.005 246.005
c0 16.667 5.66699 30.667 17 42s25 17 41 17c16.667 0 30.834 -5.66699 42.501 -17s17.5 -25.333 17.5 -42s-5.83301 -30.5 -17.5 -41.5s-25.834 -16.5 -42.501 -16.5c-16 0 -29.667 5.5 -41 16.5s-17 24.833 -17 41.5z" />
    <glyph glyph-name="ff" unicode="ff" horiz-adv-x="1061" 
d="M27 707c17.333 1.33301 36.335 2.66699 57.002 4l61 4v134c0 48.667 3 92.334 9 131.001s14.667 73.334 26 104.001s25 57.834 41 81.501s34.333 45.167 55 64.5c36.667 34 78.5 60.333 125.5 79s97.5 28 151.5 28c22 0 44.5 -2.16699 67.5 -6.5s44.333 -11.333 64 -21
s36.667 -21.834 51 -36.501s23.5 -32.334 27.5 -53.001c1.33301 1.33301 2.83301 3 4.5 5s3.16699 3.66699 4.5 5l11 11c34.667 34 74.5 60.167 119.5 78.5s92.833 27.5 143.5 27.5c22 0 45.167 -2.33301 69.5 -7s46.666 -12.5 66.999 -23.5s37.166 -25.167 50.499 -42.5
s20 -38.333 20 -63c0 -18.667 -3.16699 -34.334 -9.5 -47.001s-14.833 -23 -25.5 -31s-23.167 -13.833 -37.5 -17.5s-29.833 -5.5 -46.5 -5.5c-13.333 0 -27.333 1 -42 3v21c0 18 -1 34.833 -3 50.5s-6.5 29 -13.5 40s-17.167 19.667 -30.5 26s-31 9.5 -53 9.5
c-34 0 -61.5 -7.83301 -82.5 -23.5s-37.167 -36.5 -48.5 -62.5s-18.833 -56 -22.5 -90s-5.5 -69.333 -5.5 -106v-249c22 0.666992 43 1 63 1h57h91c5.33301 0 10.333 -1.83301 15 -5.5s6.66699 -9.5 6 -17.5l-4 -62h-228v-618c0 -16 -8 -25.333 -24 -28
c-11.333 -2 -23.5 -3.83301 -36.5 -5.5s-25.5 -3 -37.5 -4s-23 -1.66699 -33 -2s-17.667 -0.5 -23 -0.5c-16 0 -24 8.33301 -24 25v633l-332 -1v-617c0 -16 -8 -25.333 -24 -28c-11.333 -2 -23.5 -3.83301 -36.5 -5.5s-25.5 -3 -37.5 -4s-23 -1.66699 -33 -2
s-17.667 -0.5 -23 -0.5c-16 0 -24 8.33301 -24 25v631l-115 -3zM655.002 859.001c0 52 3.33203 97.8311 9.99902 137.498s16 75.5 28 107.5c-7.33301 -2.66699 -20.333 -4 -39 -4c-7.33301 0 -13.5 0.166992 -18.5 0.5s-11.167 1.16602 -18.5 2.49902v21
c0 18 -1.33301 34.833 -4 50.5s-8.33398 29.334 -17.001 41.001s-20.667 20.667 -36 27s-35.333 9.5 -60 9.5c-38 0 -68.667 -7.83301 -92 -23.5s-41.166 -36.667 -53.499 -63s-20.666 -56.666 -24.999 -90.999s-6.5 -69.833 -6.5 -106.5v-244
c48 0.666992 100.667 1.33398 158 2.00098l174 2v131z" />
    <glyph glyph-name="fi" unicode="fi" horiz-adv-x="948" 
d="M323 644l-0.00292969 -617c0 -16 -8 -25.333 -24 -28c-11.333 -2 -23.5 -3.83301 -36.5 -5.5s-25.5 -3 -37.5 -4s-23 -1.66699 -33 -2s-17.667 -0.5 -23 -0.5c-16 0 -24 8.33301 -24 25v631l-115 -3l-3 67c17.333 1.33301 36.333 2.66602 57 3.99902l61 4v129
c0 74 9.5 141.5 28.5 202.5s47 113.333 84 157s83 77.667 138 102s118.5 36.5 190.5 36.5c25.333 0 52 -2.5 80 -7.5s53.667 -13.167 77 -24.5s42.5 -26 57.5 -44s22.5 -40 22.5 -66c0 -19.333 -3.16699 -35.666 -9.5 -48.999s-15.166 -24.166 -26.499 -32.499
s-24.5 -14.333 -39.5 -18s-30.833 -5.5 -47.5 -5.5c-7.33301 0 -14.666 0.333008 -21.999 1s-14.333 1.66699 -21 3v30c0 45.333 -9.5 77.666 -28.5 96.999s-52.833 29 -101.5 29c-42 0 -76.333 -8 -103 -24s-47.5 -37.5 -62.5 -64.5s-25.167 -58 -30.5 -93
s-8 -71.833 -8 -110.5v-241c28.667 0.666992 60.334 1.33398 95.001 2.00098l100.5 2c32.333 0.666992 61.5 1.16699 87.5 1.5s45 0.5 57 0.5c34.667 7.33301 63.167 12.666 85.5 15.999s36.5 5 42.5 5c21.333 0 32 -12 32 -36v-686c0 -16 -8 -25.333 -24 -28
c-11.333 -2 -23.5 -3.83301 -36.5 -5.5s-25.5 -3 -37.5 -4s-23 -1.66699 -33 -2s-17.667 -0.5 -23 -0.5c-16 0 -24 8.33301 -24 25v545c0 34.667 -5.66699 58 -17 70s-29 18 -53 18z" />
    <glyph glyph-name="fl" unicode="fl" horiz-adv-x="958" 
d="M27 707c17.333 1.33301 36.332 2.66406 56.999 3.99707l61 4v143c0 74.667 9.5 142 28.5 202s46.833 111.167 83.5 153.5s81.667 75 135 98s114.333 34.5 183 34.5c8 0 17.167 -0.5 27.5 -1.5s20.833 -2.33301 31.5 -4s21 -3.5 31 -5.5s19 -4.33301 27 -7
c60 12 96.333 18 109 18c21.333 0 32 -12 32 -36v-1283c0 -16 -8 -25.333 -24 -28c-11.333 -2 -23.5 -3.83301 -36.5 -5.5s-25.5 -3 -37.5 -4s-23 -1.66699 -33 -2s-17.667 -0.5 -23 -0.5c-16 0 -24 8.33301 -24 25v1121c0 84 -42 126 -126 126
c-43.333 0 -78.333 -7.33301 -105 -22s-47.5 -34.667 -62.5 -60s-25.167 -55.166 -30.5 -89.499s-8 -71.166 -8 -110.499v-253c44.667 2 85.834 3.5 123.501 4.5s66.834 1.5 87.501 1.5c5.33301 0 10.166 -1.66699 14.499 -5s6.5 -8.66602 6.5 -15.999v-2l-4 -62l-228 -1
v-617c0 -16 -8 -25.333 -24 -28c-11.333 -2 -23.5 -3.83301 -36.5 -5.5s-25.5 -3 -37.5 -4s-23 -1.66699 -33 -2s-17.667 -0.5 -23 -0.5c-16 0 -24 8.33301 -24 25v631l-115 -3z" />
    <glyph glyph-name="ffi" unicode="ffi" horiz-adv-x="1458" 
d="M833 645l-0.00195312 -617.999c0 -16 -8 -25.333 -24 -28c-11.333 -2 -23.5 -3.83301 -36.5 -5.5s-25.5 -3 -37.5 -4s-23 -1.66699 -33 -2s-17.667 -0.5 -23 -0.5c-16 0 -24 8.33301 -24 25v633l-332 -1v-617c0 -16 -8 -25.333 -24 -28
c-11.333 -2 -23.5 -3.83301 -36.5 -5.5s-25.5 -3 -37.5 -4s-23 -1.66699 -33 -2s-17.667 -0.5 -23 -0.5c-16 0 -24 8.33301 -24 25v631l-115 -3l-3 67c17.333 1.33301 36.333 2.66602 57 3.99902l61 4v129c0 49.333 3 93.333 9 132s14.667 73.167 26 103.5
s25.166 57.333 41.499 81s34.833 45.167 55.5 64.5c38 34 80.333 60.333 127 79s98.334 28 155.001 28c22.667 0 45.834 -2.33301 69.501 -7s45.667 -11.834 66 -21.501s37.666 -22.167 51.999 -37.5s23.166 -33.666 26.499 -54.999c38 42 83.667 74.333 137 97
s115.333 34 186 34c25.333 0 52 -2.5 80 -7.5s53.667 -13.167 77 -24.5s42.5 -26 57.5 -44s22.5 -40 22.5 -66c0 -19.333 -3.16699 -35.666 -9.5 -48.999s-15.166 -24.166 -26.499 -32.499s-24.5 -14.333 -39.5 -18s-30.833 -5.5 -47.5 -5.5
c-7.33301 0 -14.666 0.333008 -21.999 1s-14.333 1.66699 -21 3v30c0 45.333 -9.5 77.666 -28.5 96.999s-52.833 29 -101.5 29c-42 0 -76.333 -8 -103 -24s-47.5 -37.5 -62.5 -64.5s-25.167 -58 -30.5 -93s-8 -71.833 -8 -110.5v-236c36.667 0 71.834 0.166992 105.501 0.5
s65.5 0.5 95.5 0.5h139c34.667 7.33301 63.167 12.666 85.5 15.999s36.5 5 42.5 5c21.333 0 32 -12 32 -36v-686c0 -16 -8 -25.333 -24 -28c-11.333 -2 -23.5 -3.83301 -36.5 -5.5s-25.5 -3 -37.5 -4s-23 -1.66699 -33 -2s-17.667 -0.5 -23 -0.5c-16 0 -24 8.33301 -24 25
v545c0 34.667 -5.66699 58 -17 70s-29 18 -53 18h-252zM322.998 722.001c42 0.666992 91.668 1.33008 149.001 1.99707s118.333 1.33398 183 2.00098v118c0 92 15.667 177 47 255c-6.66699 -1.33301 -13.167 -2.33301 -19.5 -3s-12.5 -1 -18.5 -1c-12.667 0 -25 1 -37 3v21
c0 18 -1.5 34.833 -4.5 50.5s-8.83301 29.334 -17.5 41.001s-20.834 20.667 -36.501 27s-36.5 9.5 -62.5 9.5c-39.333 0 -71 -7.83301 -95 -23.5s-42.5 -36.667 -55.5 -63s-21.667 -56.666 -26 -90.999s-6.5 -69.833 -6.5 -106.5v-241z" />
    <glyph glyph-name="ffl" unicode="ffl" horiz-adv-x="1468" 
d="M27 707c17.333 1.33301 36.334 2.66211 57.001 3.99512l61 4v134c0 48.667 3 92.334 9 131.001s14.667 73.334 26 104.001s25 57.834 41 81.501s34.333 45.167 55 64.5c38 34 80.333 60.333 127 79s98.334 28 155.001 28c22 0 44.667 -2.16699 68 -6.5
s45.166 -11.333 65.499 -21s37.666 -22 51.999 -37s23.5 -33.167 27.5 -54.5c77.333 85.333 182 128 314 128c8 0 17.167 -0.5 27.5 -1.5s20.833 -2.33301 31.5 -4s21 -3.5 31 -5.5s19 -4.33301 27 -7c60 12 96.333 18 109 18c21.333 0 32 -12 32 -36v-1283
c0 -16 -8 -25.333 -24 -28c-11.333 -2 -23.5 -3.83301 -36.5 -5.5s-25.5 -3 -37.5 -4s-23 -1.66699 -33 -2s-17.667 -0.5 -23 -0.5c-16 0 -24 8.33301 -24 25v1121c0 84 -42 126 -126 126c-43.333 0 -78.333 -7.33301 -105 -22s-47.5 -34.667 -62.5 -60
s-25.167 -55.166 -30.5 -89.499s-8 -71.166 -8 -110.499v-248c22 0.666992 43 1 63 1h57h91c5.33301 0 10.333 -1.83301 15 -5.5s6.66699 -9.5 6 -17.5l-4 -62h-228v-618c0 -16 -8 -25.333 -24 -28c-11.333 -2 -23.5 -3.83301 -36.5 -5.5s-25.5 -3 -37.5 -4
s-23 -1.66699 -33 -2s-17.667 -0.5 -23 -0.5c-16 0 -24 8.33301 -24 25v633l-332 -1v-617c0 -16 -8 -25.333 -24 -28c-11.333 -2 -23.5 -3.83301 -36.5 -5.5s-25.5 -3 -37.5 -4s-23 -1.66699 -33 -2s-17.667 -0.5 -23 -0.5c-16 0 -24 8.33301 -24 25v631l-115 -3z
M655.001 857.996c0 89.333 14.666 170.998 43.999 244.998c-11.333 -2 -23.666 -3 -36.999 -3c-7.33301 0 -13.5 0.166992 -18.5 0.5s-11.167 1.16602 -18.5 2.49902v21c0 18 -1.5 34.833 -4.5 50.5s-8.66699 29.334 -17 41.001s-20.333 20.667 -36 27s-36.5 9.5 -62.5 9.5
c-39.333 0 -70.833 -7.83301 -94.5 -23.5s-42 -36.667 -55 -63s-21.667 -56.666 -26 -90.999s-6.5 -69.833 -6.5 -106.5v-244c48 0.666992 100.667 1.33398 158 2.00098l174 2v130z" />
    <glyph glyph-name="f_b" unicode="fb" horiz-adv-x="1484" 
d="M27 707c17.333 1.33301 36.3301 2.65918 56.9971 3.99219l61 4v143c0 74.667 9.5 142 28.5 202s46.833 111.167 83.5 153.5s81.667 75 135 98s114.333 34.5 183 34.5c8 0 17.167 -0.5 27.5 -1.5s20.833 -2.33301 31.5 -4s21 -3.5 31 -5.5s19 -4.33301 27 -7
c60 12 96.333 18 109 18c21.333 0 32 -12 32 -36v-633l101 29c34 9.33301 66.167 17.5 96.5 24.5s58 12.667 83 17s45.5 6.5 61.5 6.5c38.667 0 73.334 -11.167 104.001 -33.5s56.834 -50.666 78.501 -84.999s38.167 -72.166 49.5 -113.499s17 -81 17 -119
c0 -71.333 -12.833 -133.333 -38.5 -186s-60.167 -96.667 -103.5 -132s-93.5 -61.666 -150.5 -78.999s-116.833 -26 -179.5 -26c-30.667 0 -61.5 1.83301 -92.5 5.5s-60 8.83398 -87 15.501s-50.833 14.334 -71.5 23.001s-36 18 -46 28v1081c0 84 -42 126 -126 126
c-43.333 0 -78.333 -7.33301 -105 -22s-47.5 -34.667 -62.5 -60s-25.167 -55.166 -30.5 -89.499s-8 -71.166 -8 -110.499v-253c44.667 2 85.834 3.5 123.501 4.5s66.834 1.5 87.501 1.5c5.33301 0 10.166 -1.66699 14.499 -5s6.5 -8.66602 6.5 -15.999v-2l-4 -62l-228 -1
v-617c0 -16 -8 -25.333 -24 -28c-11.333 -2 -23.5 -3.83301 -36.5 -5.5s-25.5 -3 -37.5 -4s-23 -1.66699 -33 -2s-17.667 -0.5 -23 -0.5c-16 0 -24 8.33301 -24 25v631l-115 -3zM832.997 181.993c0 -22 5.50098 -40.5 16.501 -55.5s24.833 -27 41.5 -36s35 -15.5 55 -19.5
s39.333 -6 58 -6c162 0 243 83.333 243 250c0 38 -4.5 76.667 -13.5 116s-22.333 75 -40 107s-39.334 58 -65.001 78s-55.167 30 -88.5 30c-12.667 0 -37.667 -3.5 -75 -10.5s-81.333 -18.167 -132 -33.5v-420z" />
    <glyph glyph-name="f_f_b" unicode="ffb" horiz-adv-x="1994" 
d="M27 707c17.333 1.33301 36.332 2.65723 56.999 3.99023l61 4v134c0 48.667 3 92.334 9 131.001s14.667 73.334 26 104.001s25 57.834 41 81.501s34.333 45.167 55 64.5c38 34 80.333 60.333 127 79s98.334 28 155.001 28c22 0 44.667 -2.16699 68 -6.5
s45.166 -11.333 65.499 -21s37.666 -22 51.999 -37s23.5 -33.167 27.5 -54.5c77.333 85.333 182 128 314 128c8 0 17.167 -0.5 27.5 -1.5s20.833 -2.33301 31.5 -4s21 -3.5 31 -5.5s19 -4.33301 27 -7c60 12 96.333 18 109 18c21.333 0 32 -12 32 -36v-633l101 29
c34 9.33301 66.167 17.5 96.5 24.5s58 12.667 83 17s45.5 6.5 61.5 6.5c38.667 0 73.334 -11.167 104.001 -33.5s56.834 -50.666 78.501 -84.999s38.167 -72.166 49.5 -113.499s17 -81 17 -119c0 -71.333 -12.833 -133.333 -38.5 -186s-60.167 -96.667 -103.5 -132
s-93.5 -61.666 -150.5 -78.999s-116.833 -26 -179.5 -26c-30.667 0 -61.5 1.83301 -92.5 5.5s-60 8.83398 -87 15.501s-50.833 14.334 -71.5 23.001s-36 18 -46 28v1081c0 84 -42 126 -126 126c-43.333 0 -78.333 -7.33301 -105 -22s-47.5 -34.667 -62.5 -60
s-25.167 -55.166 -30.5 -89.499s-8 -71.166 -8 -110.499v-248c22 0.666992 43 1 63 1h57h91c5.33301 0 10.333 -1.83301 15 -5.5s6.66699 -9.5 6 -17.5l-4 -62h-228v-618c0 -16 -8 -25.333 -24 -28c-11.333 -2 -23.5 -3.83301 -36.5 -5.5s-25.5 -3 -37.5 -4
s-23 -1.66699 -33 -2s-17.667 -0.5 -23 -0.5c-16 0 -24 8.33301 -24 25v633l-332 -1v-617c0 -16 -8 -25.333 -24 -28c-11.333 -2 -23.5 -3.83301 -36.5 -5.5s-25.5 -3 -37.5 -4s-23 -1.66699 -33 -2s-17.667 -0.5 -23 -0.5c-16 0 -24 8.33301 -24 25v631l-115 -3z
M1343 181.991c0 -22 5.50098 -40.5 16.501 -55.5s24.833 -27 41.5 -36s35 -15.5 55 -19.5s39.333 -6 58 -6c162 0 243 83.333 243 250c0 38 -4.5 76.667 -13.5 116s-22.333 75 -40 107s-39.334 58 -65.001 78s-55.167 30 -88.5 30c-12.667 0 -37.667 -3.5 -75 -10.5
s-81.333 -18.167 -132 -33.5v-420zM655 857.991c0 89.333 14.666 170.998 43.999 244.998c-11.333 -2 -23.666 -3 -36.999 -3c-7.33301 0 -13.5 0.166992 -18.5 0.5s-11.167 1.16602 -18.5 2.49902v21c0 18 -1.5 34.833 -4.5 50.5s-8.66699 29.334 -17 41.001
s-20.333 20.667 -36 27s-36.5 9.5 -62.5 9.5c-39.333 0 -70.833 -7.83301 -94.5 -23.5s-42 -36.667 -55 -63s-21.667 -56.666 -26 -90.999s-6.5 -69.833 -6.5 -106.5v-244c48 0.666992 100.667 1.33398 158 2.00098l174 2v130z" />
    <glyph glyph-name="f_h" unicode="fh" horiz-adv-x="1479" 
d="M833 671c30.667 11.333 61.4961 21.9971 92.4961 31.9971s60.5 18.833 88.5 26.5s53.667 13.667 77 18s43 6.5 59 6.5c38 0 70.5 -6 97.5 -18s49.167 -28.667 66.5 -50s30 -47.166 38 -77.499s12 -63.833 12 -100.5l-5 -481c0 -16 -8 -25.333 -24 -28
c-10.667 -2 -22.5 -3.83301 -35.5 -5.5s-25.667 -3 -38 -4s-23.666 -1.66699 -33.999 -2s-17.833 -0.5 -22.5 -0.5c-16 0 -24 8.33301 -24 25l5 398v15c0 36 -2.83301 67.5 -8.5 94.5s-15.167 49.833 -28.5 68.5s-30.666 32.667 -51.999 42s-48 14 -80 14
c-12 0 -34.5 -3.33301 -67.5 -10s-71.833 -19.667 -116.5 -39v-568c0 -16 -8 -25.333 -24 -28c-10.667 -2 -22.5 -3.83301 -35.5 -5.5s-25.667 -3 -38 -4s-23.666 -1.66699 -33.999 -2s-17.833 -0.5 -22.5 -0.5c-16 0 -24 8.33301 -24 25v1121c0 84 -42 126 -126 126
c-43.333 0 -78.333 -7.33301 -105 -22s-47.5 -34.667 -62.5 -60s-25.167 -55.166 -30.5 -89.499s-8 -71.166 -8 -110.499v-253c44.667 2 85.834 3.5 123.501 4.5s66.834 1.5 87.501 1.5c5.33301 0 10.166 -1.66699 14.499 -5s6.5 -8.66602 6.5 -15.999v-2l-4 -62l-228 -1
v-617c0 -16 -8 -25.333 -24 -28c-11.333 -2 -23.5 -3.83301 -36.5 -5.5s-25.5 -3 -37.5 -4s-23 -1.66699 -33 -2s-17.667 -0.5 -23 -0.5c-16 0 -24 8.33301 -24 25v631l-115 -3l-3 67c17.333 1.33301 36.333 2.66602 57 3.99902l61 4v143c0 74.667 9.5 142 28.5 202
s46.833 111.167 83.5 153.5s81.667 75 135 98s114.333 34.5 183 34.5c8 0 17.167 -0.5 27.5 -1.5s20.833 -2.33301 31.5 -4s21 -3.5 31 -5.5s19 -4.33301 27 -7c60 12 96.333 18 109 18c21.333 0 32 -12 32 -36v-639z" />
    <glyph glyph-name="f_f_h" unicode="ffh" horiz-adv-x="1989" 
d="M27 707c17.333 1.33301 36.3311 2.66113 56.998 3.99414l61 4v134c0 48.667 3 92.334 9 131.001s14.667 73.334 26 104.001s25 57.834 41 81.501s34.333 45.167 55 64.5c38 34 80.333 60.333 127 79s98.334 28 155.001 28c22 0 44.667 -2.16699 68 -6.5
s45.166 -11.333 65.499 -21s37.666 -22 51.999 -37s23.5 -33.167 27.5 -54.5c77.333 85.333 182 128 314 128c8 0 17.167 -0.5 27.5 -1.5s20.833 -2.33301 31.5 -4s21 -3.5 31 -5.5s19 -4.33301 27 -7c60 12 96.333 18 109 18c21.333 0 32 -12 32 -36v-639
c30.667 11.333 61.5 22 92.5 32s60.5 18.833 88.5 26.5s53.667 13.667 77 18s43 6.5 59 6.5c38 0 70.5 -6 97.5 -18s49.167 -28.667 66.5 -50s30 -47.166 38 -77.499s12 -63.833 12 -100.5l-5 -481c0 -16 -8 -25.333 -24 -28c-10.667 -2 -22.5 -3.83301 -35.5 -5.5
s-25.667 -3 -38 -4s-23.666 -1.66699 -33.999 -2s-17.833 -0.5 -22.5 -0.5c-16 0 -24 8.33301 -24 25l5 398v15c0 36 -2.83301 67.5 -8.5 94.5s-15.167 49.833 -28.5 68.5s-30.666 32.667 -51.999 42s-48 14 -80 14c-12 0 -34.5 -3.33301 -67.5 -10
s-71.833 -19.667 -116.5 -39v-568c0 -16 -8 -25.333 -24 -28c-10.667 -2 -22.5 -3.83301 -35.5 -5.5s-25.667 -3 -38 -4s-23.666 -1.66699 -33.999 -2s-17.833 -0.5 -22.5 -0.5c-16 0 -24 8.33301 -24 25v1121c0 84 -42 126 -126 126c-43.333 0 -78.333 -7.33301 -105 -22
s-47.5 -34.667 -62.5 -60s-25.167 -55.166 -30.5 -89.499s-8 -71.166 -8 -110.499v-248c22 0.666992 43 1 63 1h57h91c5.33301 0 10.333 -1.83301 15 -5.5s6.66699 -9.5 6 -17.5l-4 -62h-228v-618c0 -16 -8 -25.333 -24 -28c-11.333 -2 -23.5 -3.83301 -36.5 -5.5
s-25.5 -3 -37.5 -4s-23 -1.66699 -33 -2s-17.667 -0.5 -23 -0.5c-16 0 -24 8.33301 -24 25v633l-332 -1v-617c0 -16 -8 -25.333 -24 -28c-11.333 -2 -23.5 -3.83301 -36.5 -5.5s-25.5 -3 -37.5 -4s-23 -1.66699 -33 -2s-17.667 -0.5 -23 -0.5c-16 0 -24 8.33301 -24 25v631
l-115 -3zM654.998 857.995c0 89.333 14.666 170.998 43.999 244.998c-11.333 -2 -23.666 -3 -36.999 -3c-7.33301 0 -13.5 0.166992 -18.5 0.5s-11.167 1.16602 -18.5 2.49902v21c0 18 -1.5 34.833 -4.5 50.5s-8.66699 29.334 -17 41.001s-20.333 20.667 -36 27
s-36.5 9.5 -62.5 9.5c-39.333 0 -70.833 -7.83301 -94.5 -23.5s-42 -36.667 -55 -63s-21.667 -56.666 -26 -90.999s-6.5 -69.833 -6.5 -106.5v-244c48 0.666992 100.667 1.33398 158 2.00098l174 2v130z" />
    <glyph glyph-name="f_j" unicode="fj" horiz-adv-x="948" 
d="M323 722c28.667 0.666992 60.3311 1.33398 94.998 2.00098l100.5 2c32.333 0.666992 61.5 1.16699 87.5 1.5s45 0.5 57 0.5c34.667 7.33301 63.167 12.666 85.5 15.999s36.5 5 42.5 5c21.333 0 32 -12 32 -36v-565c0 -148 -19.667 -266 -59 -354
c-28 -60 -69.833 -111.5 -125.5 -154.5s-123.834 -81.5 -204.501 -115.5l-30 55c33.333 20.667 62 40 86 58s44.5 37 61.5 57s31.333 42.333 43 67s21.834 54.667 30.501 90c7.33301 30 12.5 67 15.5 111s4.5 97.333 4.5 160v435c0 34.667 -5.66699 58 -17 70s-29 18 -53 18
l-252 -1v-617c0 -16 -8 -25.333 -24 -28c-11.333 -2 -23.5 -3.83301 -36.5 -5.5s-25.5 -3 -37.5 -4s-23 -1.66699 -33 -2s-17.667 -0.5 -23 -0.5c-16 0 -24 8.33301 -24 25v631l-115 -3l-3 67c17.333 1.33301 36.333 2.66602 57 3.99902l61 4v129c0 74 9.5 141.5 28.5 202.5
s47 113.333 84 157s83 77.667 138 102s118.5 36.5 190.5 36.5c25.333 0 52 -2.5 80 -7.5s53.667 -13.167 77 -24.5s42.5 -26 57.5 -44s22.5 -40 22.5 -66c0 -19.333 -3.16699 -35.666 -9.5 -48.999s-15.166 -24.166 -26.499 -32.499s-24.5 -14.333 -39.5 -18
s-30.833 -5.5 -47.5 -5.5c-7.33301 0 -14.666 0.333008 -21.999 1s-14.333 1.66699 -21 3v30c0 45.333 -9.5 77.666 -28.5 96.999s-52.833 29 -101.5 29c-42 0 -76.333 -8 -103 -24s-47.5 -37.5 -62.5 -64.5s-25.167 -58 -30.5 -93s-8 -71.833 -8 -110.5v-241z" />
    <glyph glyph-name="f_f_j" unicode="ffj" horiz-adv-x="1458" 
d="M833 27c0 -16 -8.00195 -25.332 -24.002 -27.999c-11.333 -2 -23.5 -3.83301 -36.5 -5.5s-25.5 -3 -37.5 -4s-23 -1.66699 -33 -2s-17.667 -0.5 -23 -0.5c-16 0 -24 8.33301 -24 25v633l-332 -1v-617c0 -16 -8 -25.333 -24 -28c-11.333 -2 -23.5 -3.83301 -36.5 -5.5
s-25.5 -3 -37.5 -4s-23 -1.66699 -33 -2s-17.667 -0.5 -23 -0.5c-16 0 -24 8.33301 -24 25v631l-115 -3l-3 67c17.333 1.33301 36.333 2.66602 57 3.99902l61 4v129c0 49.333 3 93.333 9 132s14.667 73.167 26 103.5s25.166 57.333 41.499 81s34.833 45.167 55.5 64.5
c38 34 80.333 60.333 127 79s98.334 28 155.001 28c22.667 0 45.834 -2.33301 69.501 -7s45.667 -11.834 66 -21.501s37.666 -22.167 51.999 -37.5s23.166 -33.666 26.499 -54.999c38 42 83.667 74.333 137 97s115.333 34 186 34c25.333 0 52 -2.5 80 -7.5
s53.667 -13.167 77 -24.5s42.5 -26 57.5 -44s22.5 -40 22.5 -66c0 -19.333 -3.16699 -35.666 -9.5 -48.999s-15.166 -24.166 -26.499 -32.499s-24.5 -14.333 -39.5 -18s-30.833 -5.5 -47.5 -5.5c-7.33301 0 -14.666 0.333008 -21.999 1s-14.333 1.66699 -21 3v30
c0 45.333 -9.5 77.666 -28.5 96.999s-52.833 29 -101.5 29c-42 0 -76.333 -8 -103 -24s-47.5 -37.5 -62.5 -64.5s-25.167 -58 -30.5 -93s-8 -71.833 -8 -110.5v-236c36.667 0 71.834 0.166992 105.501 0.5s65.5 0.5 95.5 0.5h139c34.667 7.33301 63.167 12.666 85.5 15.999
s36.5 5 42.5 5c21.333 0 32 -12 32 -36v-565c0 -148 -19.667 -266 -59 -354c-28 -60 -69.833 -111.5 -125.5 -154.5s-123.834 -81.5 -204.501 -115.5l-30 55c33.333 20.667 62 40 86 58s44.5 37 61.5 57s31.333 42.333 43 67s21.834 54.667 30.501 90
c7.33301 30 12.5 67 15.5 111s4.5 97.333 4.5 160v435c0 34.667 -5.66699 58 -17 70s-29 18 -53 18h-252v-618zM654.998 844.001c0 92 15.668 176.996 47.001 254.996c-6.66699 -1.33301 -13.167 -2.33301 -19.5 -3s-12.5 -1 -18.5 -1c-12.667 0 -25 1 -37 3v21
c0 18 -1.5 34.833 -4.5 50.5s-8.83301 29.334 -17.5 41.001s-20.834 20.667 -36.501 27s-36.5 9.5 -62.5 9.5c-39.333 0 -71 -7.83301 -95 -23.5s-42.5 -36.667 -55.5 -63s-21.667 -56.666 -26 -90.999s-6.5 -69.833 -6.5 -106.5v-241
c42 0.666992 91.667 1.33398 149 2.00098s118.333 1.33398 183 2.00098v118z" />
    <glyph glyph-name="f_k" unicode="fk" horiz-adv-x="1381" 
d="M1108 700c6.66699 6.66699 13.168 11.6631 19.501 14.9961s14.166 6.33301 23.499 9c14.667 4 30.667 7.5 48 10.5s34.166 5.5 50.499 7.5s31 3.5 44 4.5s22.167 1.5 27.5 1.5c11.333 0 17 -5.33301 17 -16c0 -3.33301 -2.66699 -7.66602 -8 -12.999l-334 -264l365 -428
c3.33301 -5.33301 5 -9.66602 5 -12.999c0 -8 -4.66699 -13 -14 -15c-11.333 -2 -24.833 -3.83301 -40.5 -5.5s-31.167 -3 -46.5 -4s-29.333 -1.66699 -42 -2s-22 -0.5 -28 -0.5c-8.66699 0 -16.167 1.83301 -22.5 5.5s-13.5 10.167 -21.5 19.5l-318 373v-358
c0 -16 -8 -25.333 -24 -28c-11.333 -2 -23.5 -3.83301 -36.5 -5.5s-25.5 -3 -37.5 -4s-23 -1.66699 -33 -2s-17.667 -0.5 -23 -0.5c-16 0 -24 8.33301 -24 25v1121c0 84 -42 126 -126 126c-43.333 0 -78.333 -7.33301 -105 -22s-47.5 -34.667 -62.5 -60
s-25.167 -55.166 -30.5 -89.499s-8 -71.166 -8 -110.499v-253c44.667 2 85.834 3.5 123.501 4.5s66.834 1.5 87.501 1.5c5.33301 0 10.166 -1.66699 14.499 -5s6.5 -8.66602 6.5 -15.999v-2l-4 -62l-228 -1v-617c0 -16 -8 -25.333 -24 -28
c-11.333 -2 -23.5 -3.83301 -36.5 -5.5s-25.5 -3 -37.5 -4s-23 -1.66699 -33 -2s-17.667 -0.5 -23 -0.5c-16 0 -24 8.33301 -24 25v631l-115 -3l-3 67c17.333 1.33301 36.333 2.66602 57 3.99902l61 4v143c0 74.667 9.5 142 28.5 202s46.833 111.167 83.5 153.5
s81.667 75 135 98s114.333 34.5 183 34.5c8 0 17.167 -0.5 27.5 -1.5s20.833 -2.33301 31.5 -4s21 -3.5 31 -5.5s19 -4.33301 27 -7c60 12 96.333 18 109 18c21.333 0 32 -12 32 -36v-906z" />
    <glyph glyph-name="f_f_k" unicode="ffk" horiz-adv-x="1891" 
d="M27 707c17.333 1.33301 36.3359 2.66016 57.0029 3.99316l61 4v134c0 48.667 3 92.334 9 131.001s14.667 73.334 26 104.001s25 57.834 41 81.501s34.333 45.167 55 64.5c38 34 80.333 60.333 127 79s98.334 28 155.001 28c22 0 44.667 -2.16699 68 -6.5
s45.166 -11.333 65.499 -21s37.666 -22 51.999 -37s23.5 -33.167 27.5 -54.5c77.333 85.333 182 128 314 128c8 0 17.167 -0.5 27.5 -1.5s20.833 -2.33301 31.5 -4s21 -3.5 31 -5.5s19 -4.33301 27 -7c60 12 96.333 18 109 18c21.333 0 32 -12 32 -36v-906l275 296
c6.66699 6.66699 13.167 11.667 19.5 15s14.166 6.33301 23.499 9c14.667 4 30.667 7.5 48 10.5s34.166 5.5 50.499 7.5s31 3.5 44 4.5s22.167 1.5 27.5 1.5c11.333 0 17 -5.33301 17 -16c0 -3.33301 -2.66699 -7.66602 -8 -12.999l-334 -264l365 -428
c3.33301 -5.33301 5 -9.66602 5 -12.999c0 -8 -4.66699 -13 -14 -15c-11.333 -2 -24.833 -3.83301 -40.5 -5.5s-31.167 -3 -46.5 -4s-29.333 -1.66699 -42 -2s-22 -0.5 -28 -0.5c-8.66699 0 -16.167 1.83301 -22.5 5.5s-13.5 10.167 -21.5 19.5l-318 373v-358
c0 -16 -8 -25.333 -24 -28c-11.333 -2 -23.5 -3.83301 -36.5 -5.5s-25.5 -3 -37.5 -4s-23 -1.66699 -33 -2s-17.667 -0.5 -23 -0.5c-16 0 -24 8.33301 -24 25v1121c0 84 -42 126 -126 126c-43.333 0 -78.333 -7.33301 -105 -22s-47.5 -34.667 -62.5 -60
s-25.167 -55.166 -30.5 -89.499s-8 -71.166 -8 -110.499v-248c22 0.666992 43 1 63 1h57h91c5.33301 0 10.333 -1.83301 15 -5.5s6.66699 -9.5 6 -17.5l-4 -62h-228v-618c0 -16 -8 -25.333 -24 -28c-11.333 -2 -23.5 -3.83301 -36.5 -5.5s-25.5 -3 -37.5 -4
s-23 -1.66699 -33 -2s-17.667 -0.5 -23 -0.5c-16 0 -24 8.33301 -24 25v633l-332 -1v-617c0 -16 -8 -25.333 -24 -28c-11.333 -2 -23.5 -3.83301 -36.5 -5.5s-25.5 -3 -37.5 -4s-23 -1.66699 -33 -2s-17.667 -0.5 -23 -0.5c-16 0 -24 8.33301 -24 25v631l-115 -3z
M655.003 857.994c0 89.333 14.666 170.998 43.999 244.998c-11.333 -2 -23.666 -3 -36.999 -3c-7.33301 0 -13.5 0.166992 -18.5 0.5s-11.167 1.16602 -18.5 2.49902v21c0 18 -1.5 34.833 -4.5 50.5s-8.66699 29.334 -17 41.001s-20.333 20.667 -36 27s-36.5 9.5 -62.5 9.5
c-39.333 0 -70.833 -7.83301 -94.5 -23.5s-42 -36.667 -55 -63s-21.667 -56.666 -26 -90.999s-6.5 -69.833 -6.5 -106.5v-244c48 0.666992 100.667 1.33398 158 2.00098l174 2v130z" />
    <glyph glyph-name=".notdef" horiz-adv-x="841" 
d="M841 1180v-1180h-841v1180h841zM759 83v1015h-676v-1015h676zM370 385l-1.99512 28.0049c0 74 11.667 126.667 35 158c11.333 15.333 22.166 28.666 32.499 39.999s20.166 21.333 29.499 30c16.667 17.333 30.5 32.666 41.5 45.999s19.167 24.666 24.5 33.999
c10 18 15 38.667 15 62c0 41.333 -12.667 74.666 -38 99.999c-24.667 24.667 -53.667 37 -87 37c-34.667 0 -64.334 -12 -89.001 -36s-40.334 -64 -47.001 -120l-81 13c8.66699 76.667 33.167 133.5 73.5 170.5s89.833 55.5 148.5 55.5
c57.333 0 105.666 -18.667 144.999 -56c38.667 -36.667 58 -89 58 -157c0 -33.333 -6.66699 -66 -20 -98c-13.333 -27.333 -40.333 -61 -81 -101c-42 -36.667 -66.333 -66.334 -73 -89.001c-6.66699 -19.333 -10 -57 -10 -113zM352.005 246.005
c0 16.667 5.66699 30.667 17 42s25 17 41 17c16.667 0 30.834 -5.66699 42.501 -17s17.5 -25.333 17.5 -42s-5.83301 -30.5 -17.5 -41.5s-25.834 -16.5 -42.501 -16.5c-16 0 -29.667 5.5 -41 16.5s-17 24.833 -17 41.5z" />
    <glyph glyph-name="space" unicode=" " horiz-adv-x="600" 
 />
    <glyph glyph-name="space" unicode="&#xa0;" horiz-adv-x="600" 
 />
    <glyph glyph-name="exclam" unicode="!" horiz-adv-x="468" 
d="M343 1181c6.66699 0 12.332 -1.66504 16.999 -4.99805s7 -8.33301 7 -15v-5l-77 -813c-0.666992 -7.33301 -2.16699 -12.166 -4.5 -14.499s-6.5 -3.83301 -12.5 -4.5l-46 -3c-7.33301 -0.666992 -12.166 0.166016 -14.499 2.49902s-3.83301 7.16602 -4.5 14.499l-39 803
v3c0 13.333 8 21.666 24 24.999c10.667 2 23.5 3.66699 38.5 5s30 2.5 45 3.5s28.5 1.83301 40.5 2.5s20.667 1 26 1zM352.998 79.002c0 -36 -10 -62.667 -30 -80s-49 -26 -87 -26c-30.667 0 -54.334 9.66699 -71.001 29s-25 45 -25 77c0 38 10.333 65.333 31 82
s49.334 25 86.001 25c32 0 56 -9.33301 72 -28s24 -45 24 -79z" />
    <glyph glyph-name="quotedbl" unicode="&#x22;" horiz-adv-x="621" 
d="M82 1196c-0.666992 4 -1.00098 7.66602 -1.00098 10.999v10c0 14.667 4.83301 23.5 14.5 26.5s24.5 4.5 44.5 4.5h63c12.667 0 22.167 -1.33301 28.5 -4s9.5 -10 9.5 -22c-0.666992 -4.66699 -1.16699 -9.16699 -1.5 -13.5s-0.833008 -9.16602 -1.5 -14.499l-33 -275
c-7.33301 -55.333 -30.666 -83 -69.999 -83c-7.33301 0 -15 1 -23 3zM361.999 1196c-0.666992 4 -1.00098 7.66602 -1.00098 10.999v10c0 14.667 4.83301 23.5 14.5 26.5s24.5 4.5 44.5 4.5h63c12.667 0 22.167 -1.33301 28.5 -4s9.5 -10 9.5 -22
c-0.666992 -4.66699 -1.16699 -9.16699 -1.5 -13.5s-0.833008 -9.16602 -1.5 -14.499l-33 -275c-7.33301 -55.333 -30.666 -83 -69.999 -83c-7.33301 0 -15 1 -23 3z" />
    <glyph glyph-name="numbersign" unicode="#" horiz-adv-x="806" 
d="M574 616l-37 -237h193l-15 -72l-189 -1l-44 -281l-76 -6l43 286l-179 -1l-43 -279l-76 -6l42 285l-153 -1l-5 76h170l35 235l-164 -1l-5 76h180l38 250l83 15l-42 -265h176l38 250l83 15l-41 -265h180l-15 -72zM282 379h178l35 236l-176 -1z" />
    <glyph glyph-name="dollar" unicode="$" horiz-adv-x="883" 
d="M602 792c0 40 -11.502 71.1689 -34.502 93.502s-52.5 36.5 -88.5 42.5l-1 -353c40.667 -14.667 79.667 -30.5 117 -47.5s70.333 -37 99 -60s51.5 -50.167 68.5 -81.5s25.5 -68.666 25.5 -111.999c0 -47.333 -8.33301 -88.333 -25 -123s-39.167 -64 -67.5 -88
s-61.5 -43 -99.5 -57s-78 -23.667 -120 -29v-115l-72 -15l-1 125h-8c-24.667 0 -54.167 2 -88.5 6s-67.166 12 -98.499 24s-58 29.167 -80 51.5s-33 51.833 -33 88.5c0 15.333 3.16699 28.666 9.5 39.999s14.833 20.666 25.5 27.999s22.834 12.833 36.501 16.5
s27.834 5.5 42.501 5.5c14 0 28 -1 42 -3v-29c0 -50 12.833 -87.5 38.5 -112.5s63.5 -39.167 113.5 -42.5v372c-38.667 14.667 -76 30.667 -112 48s-67.833 38 -95.5 62s-49.834 52 -66.501 84s-25 70 -25 114s8 82.333 24 115s37.5 60 64.5 82s58.5 39.167 94.5 51.5
s74 20.5 114 24.5v122l79 9l-1 -128c24 -0.666992 52 -2.83398 84 -6.50098s62.333 -11 91 -22s52.834 -26.5 72.501 -46.5s29.5 -46.333 29.5 -79c0 -15.333 -3.33301 -28.333 -10 -39s-15.334 -19.5 -26.001 -26.5s-22.667 -12.167 -36 -15.5s-27 -5 -41 -5
c-13.333 0 -27 1 -41 3v28zM638.998 221.002c0 24 -4.49902 44.999 -13.499 62.999s-21 33.833 -36 47.5s-32.333 25.5 -52 35.5s-39.834 19 -60.501 27l-1 -346c22.667 4 44 10.833 64 20.5s37.333 21.834 52 36.501s26.167 31.667 34.5 51s12.5 41 12.5 65z
M249.999 779.001c0 -25.333 4.16504 -47.3311 12.498 -65.998s19.5 -35 33.5 -49s30.167 -26.167 48.5 -36.5s37.5 -19.833 57.5 -28.5l-1 329c-21.333 -2.66699 -41.166 -7.83398 -59.499 -15.501s-34.166 -17.834 -47.499 -30.501s-24 -27.5 -32 -44.5
s-12 -36.5 -12 -58.5z" />
    <glyph glyph-name="percent" unicode="%" horiz-adv-x="1454" 
d="M349 1000c92.667 0 160.835 -24.834 204.502 -74.501s65.5 -122.5 65.5 -218.5c0 -103.333 -25 -181 -75 -233s-124.667 -78 -224 -78c-44.667 0 -83.834 6.83301 -117.501 20.5s-61.834 33.334 -84.501 59.001s-39.667 56.667 -51 93s-17 77.5 -17 123.5
c0 104 25 181.333 75 232s124.667 76 224 76zM326.001 931.999c-26 0 -47.333 -5.99609 -64 -17.9961s-29.667 -28 -39 -48s-15.833 -43 -19.5 -69s-5.5 -53 -5.5 -81c0 -31.333 2 -62 6 -92s11.333 -56.833 22 -80.5s25.334 -42.834 44.001 -57.501s43 -22 73 -22
c26 0 47.333 6.16699 64 18.5s29.667 28.666 39 48.999s15.833 43.666 19.5 69.999s5.5 53.5 5.5 81.5c0 30.667 -2 61 -6 91s-11.333 56.667 -22 80s-25.334 42.166 -44.001 56.499s-43 21.5 -73 21.5zM335.001 6.00293l701 1008l79 -35l-703 -1009zM1134 589.003
c92.667 0 160.835 -24.834 204.502 -74.501s65.5 -122.5 65.5 -218.5c0 -103.333 -25 -181 -75 -233s-124.667 -78 -224 -78c-44.667 0 -83.834 6.83301 -117.501 20.5s-61.834 33.334 -84.501 59.001s-39.667 56.667 -51 93s-17 77.5 -17 123.5c0 104 25 181.333 75 232
s124.667 76 224 76zM1111 521.002c-26 0 -47.333 -5.99609 -64 -17.9961s-29.667 -28 -39 -48s-15.833 -43 -19.5 -69s-5.5 -53 -5.5 -81c0 -31.333 2 -62 6 -92s11.333 -56.833 22 -80.5s25.334 -42.834 44.001 -57.501s43 -22 73 -22c26 0 47.333 6.16699 64 18.5
s29.667 28.666 39 48.999s15.833 43.666 19.5 69.999s5.5 53.5 5.5 81.5c0 30.667 -2 61 -6 91s-11.333 56.667 -22 80s-25.334 42.166 -44.001 56.499s-43 21.5 -73 21.5z" />
    <glyph glyph-name="ampersand" unicode="&#x26;" horiz-adv-x="1198" 
d="M822 629l154.999 83.998c36 -34.667 62.333 -72.5 79 -113.5s25 -81.5 25 -121.5c0 -56.667 -11.333 -108.667 -34 -156s-53 -91 -91 -131l83.5 -75l90.5 -82c4.66699 -4.66699 7 -9.66699 7 -15s-2.16699 -9.66602 -6.5 -12.999s-9.5 -5.66602 -15.5 -6.99902
c-36 -7.33301 -67.5 -11.833 -94.5 -13.5s-44.5 -2.5 -52.5 -2.5c-7.33301 0 -14.5 0.833008 -21.5 2.5s-14.167 5.83398 -21.5 12.501l-49 42.5l-48 41.5c-24 -16.667 -50.833 -31.667 -80.5 -45s-61.167 -24.833 -94.5 -34.5s-67.666 -17 -102.999 -22
s-70.666 -7.5 -105.999 -7.5c-52.667 0 -102.834 6 -150.501 18s-89.5 30.833 -125.5 56.5s-64.667 58 -86 97s-32 85.5 -32 139.5c0 40.667 6.16699 76.167 18.5 106.5s29.166 58.166 50.499 83.499s46.833 49.166 76.5 71.499l96.5 69.5
c-36.667 50 -62.667 95.833 -78 137.5s-23 83.167 -23 124.5c0 54.667 10.333 101.5 31 140.5s48.334 71 83.001 96s74.5 43.5 119.5 55.5s91.5 18 139.5 18c27.333 0 58 -2.33301 92 -7s66 -13.334 96 -26.001s55.167 -30.167 75.5 -52.5s30.5 -50.833 30.5 -85.5
c0 -38 -11.667 -65.167 -35 -81.5s-53.333 -24.5 -90 -24.5c-15.333 0 -31 1 -47 3v32c0 48 -11.5 86.667 -34.5 116s-58.5 44 -106.5 44c-29.333 0 -55 -4.83301 -77 -14.5s-40.5 -23.167 -55.5 -40.5s-26.333 -37.833 -34 -61.5s-11.5 -49.5 -11.5 -77.5
c0 -27.333 3.5 -53.833 10.5 -79.5s18.5 -52.667 34.5 -81s37.167 -58.666 63.5 -90.999s58.833 -68.333 97.5 -108l136.5 -133.5l180.5 -167c32.667 48.667 49 96.334 49 143.001c0 74 -39.333 147.333 -118 220zM762.999 139.998l-256.498 237.499
c-69.667 67.667 -126.834 128.5 -171.501 182.5c-32.667 -30 -56.167 -60.667 -70.5 -92s-21.5 -68 -21.5 -110c0 -44 7 -83.667 21 -119s33.833 -65.5 59.5 -90.5s56.167 -44.167 91.5 -57.5s74.666 -20 117.999 -20c40 0 79.833 5.83301 119.5 17.5
s76.5 28.834 110.5 51.501z" />
    <glyph glyph-name="quotesingle" unicode="'" horiz-adv-x="341" 
d="M82 1196c-0.666992 4 -1.00098 7.66602 -1.00098 10.999v10c0 14.667 4.83301 23.5 14.5 26.5s24.5 4.5 44.5 4.5h63c12.667 0 22.167 -1.33301 28.5 -4s9.5 -10 9.5 -22c-0.666992 -4.66699 -1.16699 -9.16699 -1.5 -13.5s-0.833008 -9.16602 -1.5 -14.499l-33 -275
c-7.33301 -55.333 -30.666 -83 -69.999 -83c-7.33301 0 -15 1 -23 3z" />
    <glyph glyph-name="parenleft" unicode="(" horiz-adv-x="666" 
d="M561 -484c-67.333 45.333 -126 101.333 -176 168s-91.667 140 -125 220s-58.333 165 -75 255s-25 181 -25 273s8.33301 183 25 273s41.667 175 75 255s75 153.333 125 220s108.667 122.667 176 168l45 -50c-54.667 -42 -102.334 -94.167 -143.001 -156.5
s-74.5 -131.5 -101.5 -207.5s-47.333 -156.667 -61 -242s-20.5 -172 -20.5 -260c0 -87.333 6.83301 -173.833 20.5 -259.5s34 -166.5 61 -242.5s60.833 -145.333 101.5 -208s88.334 -114.667 143.001 -156z" />
    <glyph glyph-name="parenright" unicode=")" horiz-adv-x="666" 
d="M105 1348c66.667 -45.333 125.169 -101.335 175.502 -168.002s92.166 -140 125.499 -220s58.333 -165 75 -255s25 -181 25 -273s-8.33301 -183 -25 -273s-41.834 -175 -75.501 -255s-75.5 -153.333 -125.5 -220s-108.333 -122.667 -175 -168l-45 50
c54 42 101.5 94.333 142.5 157s75 131.834 102 207.501s47.333 156.167 61 241.5s20.5 172 20.5 260s-6.83301 174.833 -20.5 260.5s-34.167 166.334 -61.5 242.001s-61.333 144.667 -102 207s-88 114.5 -142 156.5z" />
    <glyph glyph-name="asterisk" unicode="*" horiz-adv-x="772" 
d="M416 1071l70.5049 35.501l64 32l51 24.5c14.333 6.66699 24.833 11 31.5 13c23.333 7.33301 38.333 0 45 -22c1.33301 -4 2.66602 -9.83301 3.99902 -17.5s2.66602 -16.167 3.99902 -25.5s2.5 -19.166 3.5 -29.499s1.83301 -20.5 2.5 -30.5l-259 -33l55.5 -56l50 -52
l39 -41.5c11 -11.667 18.5 -19.834 22.5 -24.501c4.66699 -6.66699 7 -14 7 -22c0 -10 -5 -19.333 -15 -28c-3.33301 -2 -8.33301 -4.83301 -15 -8.5s-14.334 -7.5 -23.001 -11.5l-27 -13l-27 -13l-112 238l-36 -70l-33.5 -64.5l-27.5 -50.5c-8 -14 -14 -23.333 -18 -28
c-7.33301 -11.333 -16.333 -17 -27 -17c-7.33301 0 -14.333 3.33301 -21 10c-7.33301 4.66699 -18.166 14.167 -32.499 28.5s-27.833 29.166 -40.5 44.499l191 179c-26.667 4 -52.834 8.16699 -78.501 12.5l-71 12c-21.667 3.66699 -40.334 7.16699 -56.001 10.5
s-26.5 6 -32.5 8c-16.667 4 -25 13.333 -25 28c0 2.66699 0.166992 5.16699 0.5 7.5s0.833008 5.16602 1.5 8.49902c2.66699 8.66699 8.66699 22 18 40s19.666 35 30.999 51l228 -125l-12 78c-6 38 -10.833 72 -14.5 102s-5.5 49.667 -5.5 59c0 24 12 36 36 36
c8.66699 0 23 -1.66699 43 -5s39.333 -7.66602 58 -12.999z" />
    <glyph glyph-name="plus" unicode="+" horiz-adv-x="805" 
d="M364 355l-319 -2l-5 76h323l-1 320l78 5l-2 -325h327l-15 -72l-312 -2l-2 -326l-71 10z" />
    <glyph glyph-name="comma" unicode="," horiz-adv-x="379" 
d="M54 -202c33.333 28 56.334 59.1689 69.001 93.502s19 68.5 19 102.5c0 28.667 -3.33301 55.667 -10 81s-15.667 47.666 -27 66.999c-2.66699 6 -3.16699 11.667 -1.5 17s5.83398 9 12.501 11c13.333 3.33301 27.166 6.16602 41.499 8.49902s27.833 4.33301 40.5 6
s23.834 3 33.501 4s16.5 1.5 20.5 1.5c9.33301 0 16 -2.33301 20 -7s7.66699 -10.667 11 -18c5.33301 -14 9.16602 -28 11.499 -42s3.5 -28.333 3.5 -43c0 -31.333 -4.66699 -62.5 -14 -93.5s-23 -60.167 -41 -87.5s-40.333 -52 -67 -74s-57.334 -40 -92.001 -54z" />
    <glyph glyph-name="hyphen" unicode="-" horiz-adv-x="605" 
d="M46 441h513l-5 -92l-503 -4z" />
    <glyph glyph-name="hyphen" unicode="&#xad;" horiz-adv-x="605" 
d="M46 441h513l-5 -92l-503 -4z" />
    <glyph glyph-name="period" unicode="." horiz-adv-x="379" 
d="M299 82c0 -38 -10.5 -65.667 -31.5 -83s-50.5 -26 -88.5 -26c-32 0 -56.5 9.66699 -73.5 29s-25.5 46 -25.5 80c0 38 10.667 65.833 32 83.5s51 26.5 89 26.5c32 0 56.333 -9.83301 73 -29.5s25 -46.5 25 -80.5z" />
    <glyph glyph-name="slash" unicode="/" horiz-adv-x="532" 
d="M67 -181l363 1378l87 -17l-362 -1378z" />
    <glyph glyph-name="zero" unicode="0" horiz-adv-x="966" 
d="M505 1001c62.667 0 117.832 -11.167 165.499 -33.5s87.5 -54.833 119.5 -97.5s56 -95 72 -157s24 -132.333 24 -211c0 -85.333 -9.16699 -160.833 -27.5 -226.5s-45.5 -121 -81.5 -166s-80.5 -79.167 -133.5 -102.5s-113.833 -35 -182.5 -35
c-63.333 0 -118.666 11.667 -165.999 35s-87 56.833 -119 100.5s-56 96.667 -72 159s-24 132.833 -24 211.5c0 348.667 141.667 523 425 523zM469.998 916c-42 0 -76.168 -10.999 -102.501 -32.999s-47.166 -51.167 -62.499 -87.5s-25.833 -78.333 -31.5 -126
s-8.5 -97.167 -8.5 -148.5c0 -57.333 3.33301 -113.666 10 -168.999s18.5 -104.833 35.5 -148.5s40.5 -79 70.5 -106s68.333 -40.5 115 -40.5c42 0 76.333 11.333 103 34s47.5 52.667 62.5 90s25.333 80.166 31 128.499s8.5 98.166 8.5 149.499
c0 56.667 -3.33301 112.5 -10 167.5s-18.5 103.833 -35.5 146.5s-40.5 77.167 -70.5 103.5s-68.333 39.5 -115 39.5z" />
    <glyph glyph-name="one" unicode="1" horiz-adv-x="499" 
d="M35 953c78.667 13.333 142.668 22.166 192.001 26.499s79.333 6.5 90 6.5c21.333 0 32 -12 32 -36v-923c0 -16 -8 -25.333 -24 -28c-11.333 -2 -23.5 -3.83301 -36.5 -5.5s-25.5 -3 -37.5 -4s-23 -1.66699 -33 -2s-17.667 -0.5 -23 -0.5c-16 0 -24 8.33301 -24 25v790
c0 20.667 -0.833008 37.834 -2.5 51.501s-5 24.5 -10 32.5s-11.833 13.5 -20.5 16.5s-20.334 4.5 -35.001 4.5c-8 0 -17.167 -0.333008 -27.5 -1s-21.833 -1.66699 -34.5 -3z" />
    <glyph glyph-name="two" unicode="2" horiz-adv-x="904" 
d="M116 687c0 4 0.330078 16.3301 0.99707 36.9971s1.66699 44.167 3 70.5l4 78c1.33301 25.667 2.66602 45.167 3.99902 58.5c0.666992 9.33301 7.33398 16.666 20.001 21.999c36.667 12 79.5 22.833 128.5 32.5s99.833 14.5 152.5 14.5c58 0 108.667 -5.83301 152 -17.5
s79.5 -27.834 108.5 -48.501s50.667 -45.5 65 -74.5s21.5 -60.5 21.5 -94.5c0 -45.333 -10.833 -92.666 -32.5 -141.999s-54.667 -100.166 -99 -152.499s-100.666 -105.666 -168.999 -159.999s-149.166 -109.166 -242.499 -164.499h356c28.667 0 51.667 2.5 69 7.5
s31.5 13.667 42.5 26s20.333 28.666 28 48.999s15.834 45.833 24.501 76.5l46 -4c0 -6 -0.5 -16.333 -1.5 -31l-3.5 -51l-4 -61c-1.33301 -21.333 -2.83301 -42 -4.5 -62l-4.5 -54l-3 -36c-1.33301 -5.33301 -4.66602 -8 -9.99902 -8
c-44.667 0.666992 -81.667 1.16699 -111 1.5s-55.666 0.5 -78.999 0.5h-287c-24 0 -51 -0.166992 -81 -0.5s-68 -0.833008 -114 -1.5c-6 0 -9.66699 3.66699 -11 11l-13 100c-0.666992 3.33301 -1 7.33301 -1 12c0 4 0.833008 7 2.5 9s4.5 4 8.5 6
c88 50.667 163.5 102.834 226.5 156.501s114.5 106.334 154.5 158.001s69.5 101.5 88.5 149.5s28.5 92 28.5 132c0 26.667 -4 51.334 -12 74.001s-19.833 42.167 -35.5 58.5s-34.667 29 -57 38s-47.833 13.5 -76.5 13.5c-62.667 0 -113.834 -19.833 -153.501 -59.5
s-65.834 -97.834 -78.501 -174.501z" />
    <glyph glyph-name="three" unicode="3" horiz-adv-x="930" 
d="M234 98c-0.666992 -5.33301 -1.16699 -10.498 -1.5 -15.498s-0.5 -10.167 -0.5 -15.5c0 -58.667 15 -105 45 -139s74.333 -51 133 -51c39.333 0 74.5 5.83301 105.5 17.5s57.167 28 78.5 49s37.5 46.333 48.5 76s16.5 62.834 16.5 99.501c0 54 -8.5 98.333 -25.5 133
s-40.333 62 -70 82s-64.667 33.833 -105 41.5s-83.833 11.5 -130.5 11.5h-25l-9 75h17c102.667 0 179.167 18.333 229.5 55s75.5 97.334 75.5 182.001c0 37.333 -5.16699 69.666 -15.5 96.999s-24.666 49.833 -42.999 67.5s-40 30.834 -65 39.501s-52.5 13 -82.5 13
c-30.667 0 -59.167 -4.66699 -85.5 -14s-49.833 -23.333 -70.5 -42s-38.167 -42.334 -52.5 -71.001s-24.5 -62 -30.5 -100l-51 5c0 4 0.333008 16.333 1 37s1.66699 43.834 3 69.501l4 76c1.33301 25 2.66602 44.5 3.99902 58.5c1.33301 10 8 17.333 20 22
c38 12.667 81.333 23 130 31s100 12 154 12c48 0 94.5 -4 139.5 -12s85 -22 120 -42s63 -47 84 -81s31.5 -77 31.5 -129c0 -30 -5 -59.333 -15 -88s-24.833 -55.834 -44.5 -81.501s-44 -48.667 -73 -69s-62.5 -36.833 -100.5 -49.5v-4c12 -2 27.333 -5.66699 46 -11
s38.334 -12.833 59.001 -22.5s41.667 -21.834 63 -36.501s40.333 -32.667 57 -54s30.334 -46 41.001 -74s16 -60.333 16 -97c0 -41.333 -6 -79 -18 -113s-28.667 -64.333 -50 -91s-46.5 -49.834 -75.5 -69.501s-60.167 -35.834 -93.5 -48.501s-68.333 -22.167 -105 -28.5
s-73.334 -9.5 -110.001 -9.5c-46 0 -90.167 4.5 -132.5 13.5s-79.833 22.333 -112.5 40s-58.834 39.334 -78.501 65.001s-29.5 55.5 -29.5 89.5c0 17.333 3.66699 32.666 11 45.999s17.166 24.5 29.499 33.5s26.333 15.667 42 20s31.834 6.5 48.501 6.5c8 0 16 -0.5 24 -1.5
s16 -2.16699 24 -3.5z" />
    <glyph glyph-name="four" unicode="4" horiz-adv-x="1013" 
d="M749 -163c0 -16 -8.00195 -25.333 -24.002 -28c-11.333 -2 -23.5 -3.83301 -36.5 -5.5s-25.5 -3 -37.5 -4s-23 -1.66699 -33 -2s-17.667 -0.5 -23 -0.5c-16 0 -24 8.33301 -24 25v321l-520 -3l-11 97l88 134.5l83.5 122.5l83.5 115.5l87.5 114.5l96.5 118.5l110 127.5
c4 4.66699 10.333 8 19 10c22 4 44.333 6.83301 67 8.5s39.334 2.5 50.001 2.5c16 0 24 -8.33301 24 -25l1 -712c44.667 1.33301 85.834 2.66602 123.501 3.99902s66.834 2 87.501 2c5.33301 0 10.166 -1.66699 14.499 -5s6.5 -8.66602 6.5 -15.999v-6.5
c0 -3 -0.333008 -6.83301 -1 -11.5l-5 -76l-227 -1v-307zM144.998 240c28.667 0.666992 61.1699 1.33203 97.5029 1.99902s73.666 1.5 111.999 2.5s76.166 1.83301 113.499 2.5s71.666 1.33398 102.999 2.00098v579l-113.5 -141l-104.5 -140l-102 -146.5z" />
    <glyph glyph-name="five" unicode="5" horiz-adv-x="951" 
d="M151 429l20.002 543.002c0.666992 9.33301 5.16699 14.833 13.5 16.5s17.166 1.5 26.499 -0.5c44 -10 89.833 -19 137.5 -27s96.5 -12 146.5 -12c48.667 0 96.167 5 142.5 15s89.833 29 130.5 57l28 -28c-38 -70.667 -90.833 -125.334 -158.5 -164.001
s-144.834 -58 -231.501 -58c-49.333 0 -101 7 -155 21l-9 -263l92 33c23.333 8.66699 43.166 15.667 59.499 21s30.833 9 43.5 11s27 3 43 3c63.333 0 118.833 -10.5 166.5 -31.5s87.334 -49.167 119.001 -84.5s55.5 -75.833 71.5 -121.5s24 -93.167 24 -142.5
c0 -51.333 -9.5 -102.5 -28.5 -153.5s-47.5 -96.833 -85.5 -137.5s-85.667 -73.667 -143 -99s-124.333 -38 -201 -38c-43.333 0 -85.666 4.5 -126.999 13.5s-78 22.333 -110 40s-57.667 39.334 -77 65.001s-29 55.5 -29 89.5c0 17.333 3.66699 32.666 11 45.999
s17.166 24.333 29.499 33s26.333 15.167 42 19.5s31.834 6.5 48.501 6.5c8 0 16 -0.5 24 -1.5s16 -2.16699 24 -3.5c-0.666992 -5.33301 -1.16699 -10.333 -1.5 -15s-0.5 -9.66699 -0.5 -15c0 -60.667 16.667 -107.5 50 -140.5s77.333 -49.5 132 -49.5
c40 0 75.833 8 107.5 24s58.167 37.5 79.5 64.5s37.666 58.667 48.999 95s17 75.166 17 116.499c0 45.333 -7.16699 86 -21.5 122s-34.666 66.5 -60.999 91.5s-57.833 44 -94.5 57s-77.334 19.5 -122.001 19.5c-59.333 0 -132 -13.667 -218 -41z" />
    <glyph glyph-name="six" unicode="6" horiz-adv-x="1037" 
d="M585 779c58 0 110.166 -9.49805 156.499 -28.498s85.833 -45.167 118.5 -78.5s57.834 -73 75.501 -119s26.5 -96 26.5 -150c0 -61.333 -11.333 -118.333 -34 -171s-53.667 -98.167 -93 -136.5s-85.5 -68.5 -138.5 -90.5s-109.5 -33 -169.5 -33c-71.333 0 -134 14 -188 42
s-99 66 -135 114s-63.167 103.667 -81.5 167s-27.5 130.333 -27.5 201c0 56.667 5.33301 113 16 169s26.834 109.667 48.501 161s48.334 99 80.001 143s68.667 82.167 111 114.5s89.5 57.666 141.5 75.999s109 27.5 171 27.5c54 0 111.667 -8 173 -24l-13 -60
c-18.667 3.33301 -36.834 5.83301 -54.501 7.5s-34.834 2.5 -51.501 2.5c-64.667 0 -121 -11.667 -169 -35s-88.833 -54.5 -122.5 -93.5s-60.5 -84.333 -80.5 -136s-34.333 -105.834 -43 -162.501l170.5 67.5c44.333 17 81.833 25.5 112.5 25.5zM290.999 545.002
c0 -30.667 1.66504 -63.998 4.99805 -99.998s9 -71.833 17 -107.5s18.5 -70.334 31.5 -104.001s29.167 -63.334 48.5 -89.001s42.166 -46.167 68.499 -61.5s56.5 -23 90.5 -23c36 0 67.833 9.16699 95.5 27.5s50.834 42 69.501 71s32.834 61.333 42.501 97
s14.5 70.5 14.5 104.5c0 44.667 -7 85 -21 121s-33.833 66.333 -59.5 91s-56.667 43.667 -93 57s-76.5 20 -120.5 20c-51.333 0 -113.666 -10.667 -186.999 -32c-0.666992 -6 -1.16699 -12 -1.5 -18s-0.5 -12 -0.5 -18v-36z" />
    <glyph glyph-name="seven" unicode="7" horiz-adv-x="924" 
d="M849 969l-423.001 -1126c-3.33301 -8.66699 -7.66602 -14.5 -12.999 -17.5s-12.666 -5.83301 -21.999 -8.5c-14.667 -4 -30.5 -7.33301 -47.5 -10s-33.5 -5 -49.5 -7s-30.333 -3.33301 -43 -4s-21.667 -1 -27 -1s-9.33301 1.5 -12 4.5s-4 6.5 -4 10.5
c0 5.33301 2 11.666 6 18.999l488 1005h-437c-28.667 0 -51.834 -2.83301 -69.501 -8.5s-32.167 -15 -43.5 -28s-20.666 -29.833 -27.999 -50.5s-15 -46.334 -23 -77.001l-46 4c0 19.333 0.666992 43.666 2 72.999s2.83301 58.833 4.5 88.5s3.5 57.167 5.5 82.5
s3.66699 44 5 56c1.33301 5.33301 4.66602 8 9.99902 8c44.667 -0.666992 81.667 -1.16699 111 -1.5s55.333 -0.5 78 -0.5h570z" />
    <glyph glyph-name="eight" unicode="8" horiz-adv-x="1010" 
d="M935 299c0 -55.333 -13.499 -103.498 -40.499 -144.498s-62 -75 -105 -102s-91.333 -47.167 -145 -60.5s-107.5 -20 -161.5 -20c-52 0 -102.667 6.33301 -152 19s-93.333 31.667 -132 57s-69.834 57.166 -93.501 95.499s-35.5 83.166 -35.5 134.499
c0 30.667 4.66699 59 14 85s24 51.333 44 76s46.167 49.667 78.5 75s71.5 53 117.5 83c-29.333 16 -56.833 33.333 -82.5 52s-48.167 39.667 -67.5 63s-34.666 49.166 -45.999 77.499s-17 60.5 -17 96.5c0 50 12 93.833 36 131.5s55.667 69.167 95 94.5
s84.166 44.5 134.499 57.5s101.833 19.5 154.5 19.5c46 0 90.667 -5.83301 134 -17.5s81.833 -28.667 115.5 -51s60.667 -49.666 81 -81.999s30.5 -68.833 30.5 -109.5c0 -26 -4.83301 -50.667 -14.5 -74s-24 -46.5 -43 -69.5s-43.167 -46.5 -72.5 -70.5
s-63.333 -49.333 -102 -76c36 -18 70.5 -37.833 103.5 -59.5s62.333 -46 88 -73s46 -57.667 61 -92s22.5 -72.833 22.5 -115.5zM399.001 559.002c-99.333 -65.333 -149 -147.667 -149 -247c0 -38 6.66699 -72.667 20 -104s31.833 -58.333 55.5 -81s51.667 -40.167 84 -52.5
s67.833 -18.5 106.5 -18.5c31.333 0 61 4.83301 89 14.5s52.5 23.334 73.5 41.001s37.5 39.167 49.5 64.5s18 53.666 18 84.999c0 38.667 -10.167 72.167 -30.5 100.5s-47 53.833 -80 76.5s-70.167 43.5 -111.5 62.5zM581.001 677.001c46 34 80.168 69.168 102.501 105.501
s33.5 76.5 33.5 120.5c0 60 -19.167 108.5 -57.5 145.5s-95.166 55.5 -170.499 55.5c-30.667 0 -59 -4 -85 -12s-48.333 -19.5 -67 -34.5s-33.334 -33.333 -44.001 -55s-16 -45.834 -16 -72.501c0 -30 8.5 -56.667 25.5 -80s39.667 -44.833 68 -64.5
s60.666 -38.167 96.999 -55.5z" />
    <glyph glyph-name="nine" unicode="9" horiz-adv-x="1021" 
d="M422 232c-55.333 0 -104.5 8.49902 -147.5 25.499s-79.167 40.667 -108.5 71s-51.833 67 -67.5 110s-23.5 90.5 -23.5 142.5c0 62 11 118.833 33 170.5s52.167 95.834 90.5 132.501s83.833 65.167 136.5 85.5s109.667 30.5 171 30.5c70.667 0 132.834 -14 186.501 -42
s98.5 -66 134.5 -114s63.167 -103.667 81.5 -167s27.5 -130.333 27.5 -201c0 -90 -12.5 -176.5 -37.5 -259.5s-62.167 -156.5 -111.5 -220.5s-110.5 -115.167 -183.5 -153.5s-157.5 -57.5 -253.5 -57.5c-58.667 0 -120.334 10 -185.001 30l13 60
c36 -10.667 75.333 -16 118 -16c72.667 0 135.334 12.333 188.001 37s96.667 58.5 132 101.5s62.666 93.5 81.999 151.5s32 120.667 38 188l-189 -75c-51.333 -20 -93 -30 -125 -30zM740 426.999c0 30.667 -1.66895 63.998 -5.00195 99.998s-9 71.833 -17 107.5
s-18.333 70.334 -31 104.001s-28.667 63.334 -48 89.001s-41.833 46.167 -67.5 61.5s-55.5 23 -89.5 23c-36.667 0 -68.667 -8 -96 -24s-50.166 -37 -68.499 -63s-32.166 -55.5 -41.499 -88.5s-14 -66.5 -14 -100.5c0 -85.333 21.833 -152.333 65.5 -201
s110.167 -73 199.5 -73c30 0 63.5 3.66699 100.5 11s74.5 17 112.5 29v25z" />
    <glyph glyph-name="colon" unicode=":" horiz-adv-x="379" 
d="M339 82c0 -38 -10.5 -65.667 -31.5 -83s-50.5 -26 -88.5 -26c-32 0 -56.5 9.66699 -73.5 29s-25.5 46 -25.5 80c0 38 10.667 65.833 32 83.5s51 26.5 89 26.5c32 0 56.333 -9.83301 73 -29.5s25 -46.5 25 -80.5zM339 592c0 -38 -10.5 -65.667 -31.5 -83
s-50.5 -26 -88.5 -26c-32 0 -56.5 9.66699 -73.5 29s-25.5 46 -25.5 80c0 38 10.667 65.833 32 83.5s51 26.5 89 26.5c32 0 56.333 -9.83301 73 -29.5s25 -46.5 25 -80.5z" />
    <glyph glyph-name="semicolon" unicode=";" horiz-adv-x="379" 
d="M339 592c0 -38 -10.5 -65.667 -31.5 -83s-50.5 -26 -88.5 -26c-32 0 -56.5 9.66699 -73.5 29s-25.5 46 -25.5 80c0 38 10.667 65.833 32 83.5s51 26.5 89 26.5c32 0 56.333 -9.83301 73 -29.5s25 -46.5 25 -80.5zM94 -202c33.333 28 56.334 59.1689 69.001 93.502
s19 68.5 19 102.5c0 28.667 -3.33301 55.667 -10 81s-15.667 47.666 -27 66.999c-2.66699 6 -3.16699 11.667 -1.5 17s5.83398 9 12.501 11c13.333 3.33301 27.166 6.16602 41.499 8.49902s27.833 4.33301 40.5 6s23.834 3 33.501 4s16.5 1.5 20.5 1.5
c9.33301 0 16 -2.33301 20 -7s7.66699 -10.667 11 -18c5.33301 -14 9.16602 -28 11.499 -42s3.5 -28.333 3.5 -43c0 -31.333 -4.66699 -62.5 -14 -93.5s-23 -60.167 -41 -87.5s-40.333 -52 -67 -74s-57.334 -40 -92.001 -54z" />
    <glyph glyph-name="less" unicode="&#x3c;" horiz-adv-x="805" 
d="M724 704l33 -68l-595 -247l593 -242l-25 -72l-690 286l13 61z" />
    <glyph glyph-name="equal" unicode="=" horiz-adv-x="805" 
d="M45 203l-5 76h725l-15 -72zM45 493l-5 76h725l-15 -72z" />
    <glyph glyph-name="greater" unicode="&#x3e;" horiz-adv-x="805" 
d="M81 75l-33 68l595 247l-593 242l25 72l690 -286l-13 -61z" />
    <glyph glyph-name="question" unicode="?" horiz-adv-x="751" 
d="M154 980c-22.667 36.667 -33.998 69.002 -33.998 97.002c0 20.667 5.5 38 16.5 52s25.5 25.5 43.5 34.5s38.5 15.5 61.5 19.5s46.5 6 70.5 6c46 0 91.167 -6 135.5 -18s83.666 -29.667 117.999 -53s62.166 -52.5 83.499 -87.5s32 -75.833 32 -122.5
c0 -30.667 -4.83301 -57.834 -14.5 -81.501s-22.5 -45.334 -38.5 -65.001s-34.667 -38 -56 -55s-43.666 -33.833 -66.999 -50.5l-58 -40.5c-18.667 -13 -35.334 -26.5 -50.001 -40.5s-26.5 -29.167 -35.5 -45.5s-13.5 -34.833 -13.5 -55.5c0 -19.333 4.5 -39.5 13.5 -60.5
s23.167 -45.5 42.5 -73.5c-15.333 -10.667 -30.5 -19 -45.5 -25s-29.5 -9 -43.5 -9c-19.333 0 -36.333 3.33301 -51 10s-27 15.667 -37 27s-17.667 24.666 -23 39.999s-8 31.666 -8 48.999c0 28.667 6 55.167 18 79.5s27.5 47 46.5 68s40.667 40.667 65 59l73.5 53.5
l66.5 47.5c21.667 15.667 40.834 31.667 57.501 48s30 33.333 40 51s15 36.834 15 57.501c0 24.667 -6 45.834 -18 63.501s-27.833 32 -47.5 43s-42.334 19 -68.001 24s-52.5 7.5 -80.5 7.5c-84 0 -154 -18 -210 -54zM412.002 79.002c0 -36 -10 -62.667 -30 -80
s-49 -26 -87 -26c-30.667 0 -54.334 9.66699 -71.001 29s-25 45 -25 77c0 38 10.333 65.333 31 82s49.334 25 86.001 25c32 0 56 -9.33301 72 -28s24 -45 24 -79z" />
    <glyph glyph-name="at" unicode="@" horiz-adv-x="1513" 
d="M495 641c30.667 12.667 61.001 24.002 91.001 34.002s58.167 18.5 84.5 25.5s50.333 12.333 72 16s39.5 5.5 53.5 5.5c42.667 0 78.5 -5.33301 107.5 -16s52.5 -27.334 70.5 -50.001s30.833 -51.834 38.5 -87.501s11.167 -78.5 10.5 -128.5l-4 -350
c3.33301 -0.666992 6.5 -1 9.5 -1h7.5h15c42.667 0 78.834 10.167 108.501 30.5s53.834 46.833 72.501 79.5s32 69.334 40 110.001s12 81.334 12 122.001c0 74.667 -12.333 142.167 -37 202.5s-58.834 111.833 -102.501 154.5s-95.667 75.334 -156 98.001
s-126.5 34 -198.5 34c-91.333 0 -172.333 -15.167 -243 -45.5s-130.334 -71.833 -179.001 -124.5s-85.667 -115 -111 -187s-38 -149.333 -38 -232c0 -90 14.167 -172.833 42.5 -248.5s69 -140.834 122 -195.501s117.333 -97.334 193 -128.001s160.5 -46 254.5 -46
c26 0 51.333 1.33301 76 4s49.5 6.66699 74.5 12s50.667 11.833 77 19.5s54.5 16.5 84.5 26.5l25 -59c-72.667 -34.667 -143.167 -60 -211.5 -76s-135.833 -24 -202.5 -24c-102.667 0 -195.167 17.833 -277.5 53.5s-152.5 84.667 -210.5 147s-102.667 135.5 -134 219.5
s-47 174.333 -47 271c0 104 17.833 200 53.5 288s85.667 164.167 150 228.5s141.666 114.666 231.999 150.999s190.5 54.5 300.5 54.5c86 0 164.833 -13.333 236.5 -40s133.5 -65.167 185.5 -115.5s92.5 -111.666 121.5 -183.999s43.5 -154.5 43.5 -246.5
c0 -63.333 -8.66699 -123 -26 -179s-43.5 -105 -78.5 -147s-78.5 -75.167 -130.5 -99.5s-112.333 -36.5 -181 -36.5c-26 0 -54.333 2 -85 6c-6.66699 1.33301 -11.5 3 -14.5 5s-5.83301 6.66699 -8.5 14l-16 49c-22 -10.667 -44.833 -20.5 -68.5 -29.5
s-46.334 -16.833 -68.001 -23.5s-41.667 -12 -60 -16s-32.833 -6 -43.5 -6c-31.333 0 -58.5 6.16699 -81.5 18.5s-42 28 -57 47s-26 39.667 -33 62s-10.5 43.833 -10.5 64.5c0 36 6.16699 66.5 18.5 91.5s28.833 46.167 49.5 63.5c18 14.667 39.333 26.667 64 36
s51.834 16.666 81.501 21.999s61.667 9.33301 96 12s70.5 4.66699 108.5 6l1 32c0.666992 30 -1 56.667 -5 80s-11.167 43 -21.5 59s-24 28.167 -41 36.5s-38.5 12.5 -64.5 12.5c-32 0 -65.5 -3.83301 -100.5 -11.5s-74.5 -19.167 -118.5 -34.5zM863.001 338.002
c-28 -2 -54.168 -3.66699 -78.501 -5s-46.5 -3.83301 -66.5 -7.5s-37.667 -8.66699 -53 -15s-28 -15.5 -38 -27.5c-16 -20 -24 -46 -24 -78c0 -13.333 1.83301 -27 5.5 -41s10.334 -26.833 20.001 -38.5s22.834 -21.334 39.501 -29.001s37.667 -11.5 63 -11.5
c7.33301 0 23.166 2.83301 47.499 8.5s51.5 15.834 81.5 30.501z" />
    <glyph glyph-name="A" unicode="A" horiz-adv-x="1139" 
d="M296 419l-153.998 -415.001c-2.66699 -7.33301 -8.66699 -11.666 -18 -12.999c-12 -1.33301 -25.667 -2.33301 -41 -3s-32.666 -1 -51.999 -1c-10.667 0 -16 3.33301 -16 10c0 2 0.333008 3.66699 1 5l458 1098l-21 58c-1.33301 5.33301 -2 9 -2 11
c0 10 6.33301 16 19 18c10.667 2 23.167 3.83301 37.5 5.5s28.166 3.16699 41.499 4.5s25.666 2.33301 36.999 3s19.666 1 24.999 1c13.333 0 23 -7.66699 29 -23l446 -1148c2 -5.33301 3 -9 3 -11c0 -11.333 -6.66699 -18 -20 -20c-12 -2 -25.5 -3.83301 -40.5 -5.5
s-29.667 -3 -44 -4s-27.5 -1.66699 -39.5 -2s-20.667 -0.5 -26 -0.5c-11.333 0 -19 5 -23 15l-163 424zM328.002 503.999h375l-190 496z" />
    <glyph glyph-name="B" unicode="B" horiz-adv-x="1013" 
d="M31 1150c58.667 9.33301 122.331 18.3389 190.998 27.0059s146 13 232 13c32 0 65.5 -1.33301 100.5 -4s69.5 -7.5 103.5 -14.5s66.333 -17 97 -30s57.834 -29.833 81.501 -50.5s42.334 -45.834 56.001 -75.501s20.5 -64.5 20.5 -104.5c0 -29.333 -5 -58.5 -15 -87.5
s-24.833 -56.333 -44.5 -82s-44 -48.834 -73 -69.501s-62.5 -37.334 -100.5 -50.001v-4c11.333 -2 26.333 -5.5 45 -10.5s38.5 -12.333 59.5 -22s42.167 -21.834 63.5 -36.501s40.5 -32.334 57.5 -53.001s30.833 -44.834 41.5 -72.501s16 -59.5 16 -95.5
c0 -14 -1.66699 -32.167 -5 -54.5s-10.5 -46.166 -21.5 -71.499s-26.667 -50.833 -47 -76.5s-47.5 -48.834 -81.5 -69.501s-76 -37.5 -126 -50.5s-109.667 -19.5 -179 -19.5c-31.333 0 -59.166 0.666992 -83.499 2s-48.333 3 -72 5s-48.334 3.66699 -74.001 5
s-55.5 2 -89.5 2c-16 -0 -24 8.33301 -24 25v990c0 33.333 -7.33301 55.5 -22 66.5s-33.667 16.5 -57 16.5c-13.333 0 -28 -1 -44 -3zM345.997 85.0059c8 -2 18.167 -3.83301 30.5 -5.5s25.5 -3.16699 39.5 -4.5s28.5 -2.33301 43.5 -3s29.167 -1 42.5 -1
c48.667 0 89.334 7.16699 122.001 21.5s58.667 32.5 78 54.5s33 45.833 41 71.5s12 49.5 12 71.5c0 54 -8.5 98.5 -25.5 133.5s-41 62.667 -72 83s-68.333 34.333 -112 42s-91.834 11.5 -144.501 11.5h-28h-13.5c-4.33301 0 -8.83301 -0.333008 -13.5 -1v-474z
M345.997 640.006c6.66699 0 13.1689 -0.169922 19.502 -0.50293s12.5 -0.5 18.5 -0.5c55.333 0 103.666 4.33301 144.999 13s75.5 22.334 102.5 41.001s47.167 42.834 60.5 72.501s20 65.834 20 108.501c0 42 -7 77.833 -21 107.5s-33.5 54 -58.5 73s-55 32.833 -90 41.5
s-73.5 13 -115.5 13c-28.667 0 -49.334 -2 -62.001 -6s-19 -16 -19 -36v-427z" />
    <glyph glyph-name="C" unicode="C" horiz-adv-x="1181" 
d="M1131 75c-34.667 -19.333 -72.667 -35.668 -114 -49.001s-81.833 -24 -121.5 -32s-76.667 -13.833 -111 -17.5s-62.166 -5.5 -83.499 -5.5c-92 0 -176 15.5 -252 46.5s-141.167 73.833 -195.5 128.5s-96.5 119.667 -126.5 195s-45 157.666 -45 246.999
c0 96.667 17 182.334 51 257.001s81 137.5 141 188.5s131 89.667 213 116s171 39.5 267 39.5c54 0 105.667 -3.5 155 -10.5s97.333 -15.5 144 -25.5c6 -1.33301 10.833 -4.16602 14.5 -8.49902s5.83398 -8.83301 6.50098 -13.5l2.5 -36c1 -14.667 1.83301 -30.5 2.5 -47.5
s1.5 -34.333 2.5 -52s1.83301 -34 2.5 -49s1.16699 -27.833 1.5 -38.5s0.5 -17.334 0.5 -20.001l-50 -5c-4 41.333 -16.167 76.333 -36.5 105s-45.5 51.834 -75.5 69.501s-63.167 30.5 -99.5 38.5s-72.5 12 -108.5 12c-72.667 0 -135.834 -12 -189.501 -36
s-98.334 -57.167 -134.001 -99.5s-62.334 -92.333 -80.001 -150s-26.5 -120.5 -26.5 -188.5c0 -79.333 10.833 -153.166 32.5 -221.499s54.167 -127.5 97.5 -177.5s97.333 -89.333 162 -118s140.334 -43 227.001 -43c52 0 102.333 5.66699 151 17s98 26.666 148 45.999z" />
    <glyph glyph-name="D" unicode="D" horiz-adv-x="1282" 
d="M184 0c-16 0 -23.998 8.33203 -23.998 24.999v987c0 34 -7.33301 56.5 -22 67.5s-33.667 16.5 -57 16.5c-13.333 0 -28 -1 -44 -3l-6 54c74.667 12.667 150.167 22.834 226.5 30.501s152.833 11.5 229.5 11.5c64 0 126.5 -3.66699 187.5 -11s118.333 -19.666 172 -36.999
s102.834 -40.333 147.501 -69s83.167 -64.334 115.5 -107.001s57.5 -93 75.5 -151s27 -125 27 -201c0 -100.667 -17.833 -190.167 -53.5 -268.5s-85.334 -144.5 -149.001 -198.5s-139.334 -95 -227.001 -123s-183.167 -42 -286.5 -42c-30 0 -56.5 1 -79.5 3
s-45.833 4.16699 -68.5 6.5s-46.834 4.5 -72.501 6.5s-56.167 3 -91.5 3zM346.002 79.999c25.333 -6 50.999 -10.167 76.999 -12.5s53 -3.5 81 -3.5c80 0 151.333 12.167 214 36.5s115.334 59.166 158.001 104.499s75.167 100.333 97.5 165s33.5 137.334 33.5 218.001
c0 76.667 -11.5 146.667 -34.5 210s-56.5 117.833 -100.5 163.5s-98 81 -162 106s-137 37.5 -219 37.5h-51c-30 0 -53.167 -2.5 -69.5 -7.5s-24.5 -18.5 -24.5 -40.5v-977z" />
    <glyph glyph-name="E" unicode="E" horiz-adv-x="975" 
d="M346 155c0 -16 0.500977 -28.498 1.50098 -37.498s3.66699 -16 8 -21s11.5 -8.16699 21.5 -9.5s24 -2 42 -2h129c53.333 0 96.666 1.16699 129.999 3.5s61.666 10 84.999 23s43.833 33.667 61.5 62s37.5 68.5 59.5 120.5l50 -11c0 -4.66699 -1.5 -16.667 -4.5 -36
s-6.83301 -41.833 -11.5 -67.5s-10 -51.834 -16 -78.501s-12 -50 -18 -70c-8.66699 -22.667 -25 -34 -49 -34c-24.667 0 -54 0.166992 -88 0.5s-71.833 0.666016 -113.5 0.999023s-86.334 0.666016 -134.001 0.999023s-97.5 0.5 -149.5 0.5h-166
c-9.33301 0 -15.666 2.83301 -18.999 8.5s-5 11.167 -5 16.5v961c0 34 -7.66699 56.5 -23 67.5s-34.333 16.5 -57 16.5c-14 0 -28.333 -1 -43 -3l-6 55c14 2.66699 34.333 6 61 10l83.5 12c29 4 57 7.33301 84 10s48.167 4 63.5 4h364c22.667 0 46.334 0.166992 71.001 0.5
s52 0.833008 82 1.5c10.667 0 16.667 -5 18 -15c0.666992 -9.33301 1.5 -21.666 2.5 -36.999s1.83301 -32 2.5 -50s1.5 -36.333 2.5 -55s1.83301 -36 2.5 -52s1.16699 -29.667 1.5 -41s0.5 -18.333 0.5 -21l-50 -5c-11.333 47.333 -22.833 84 -34.5 110s-26.5 45 -44.5 57
s-40.833 19.167 -68.5 21.5s-63.5 3.5 -107.5 3.5h-176c-11.333 0 -19.833 -0.333008 -25.5 -1s-9.83398 -2.33398 -12.501 -5.00098s-4.16699 -6.5 -4.5 -11.5s-0.5 -11.833 -0.5 -20.5v-405l150.5 7.5l119 6l81.5 4c20.667 1 33.334 1.5 38.001 1.5
c18.667 0 28 -10 28 -30c0 -12.667 -0.666992 -25.667 -2 -39s-3 -27.666 -5 -42.999l-410 14v-399z" />
    <glyph glyph-name="F" unicode="F" horiz-adv-x="885" 
d="M346 27c0 -16 -8 -25.333 -24 -28c-11.333 -2 -23.833 -3.83301 -37.5 -5.5s-27 -3 -40 -4s-25 -1.66699 -36 -2s-19.167 -0.5 -24.5 -0.5c-16 0 -24 8.33301 -24 25v974c0 34 -7.66699 56.5 -23 67.5s-34.333 16.5 -57 16.5c-14 0 -28.333 -1 -43 -3l-6 55
c14 2.66699 34.333 6 61 10l83.5 12c29 4 57 7.33301 84 10s48.167 4 63.5 4h356c22.667 0 46.334 0.166992 71.001 0.5s52 0.833008 82 1.5c10.667 0 16.667 -5 18 -15c1.33301 -8.66699 2.5 -20.667 3.5 -36s2 -32 3 -50s1.83301 -36.5 2.5 -55.5s1.16699 -36.5 1.5 -52.5
s0.666016 -29.667 0.999023 -41s0.5 -18.333 0.5 -21l-50 -5c-11.333 47.333 -22.833 84 -34.5 110s-26.5 45 -44.5 57s-40.833 19.167 -68.5 21.5s-63.5 3.5 -107.5 3.5h-168c-11.333 0 -19.833 -0.333008 -25.5 -1s-9.83398 -2.33398 -12.501 -5.00098
s-4.16699 -6.5 -4.5 -11.5s-0.5 -11.833 -0.5 -20.5v-447l149 7.5l115.5 6l78 4c19.667 1 31.834 1.5 36.501 1.5c18.667 0 28 -10 28 -30c0 -12.667 -0.666992 -25.667 -2 -39s-3 -27.666 -5 -42.999l-400 14v-485z" />
    <glyph glyph-name="G" unicode="G" horiz-adv-x="1257" 
d="M1118 36c0 -7.33301 -3.66504 -12.6689 -10.998 -16.002c-56.667 -17.333 -114.667 -29.833 -174 -37.5s-119.333 -11.5 -180 -11.5c-99.333 0 -190.333 13.5 -273 40.5s-153.667 66.333 -213 118s-105.5 115.334 -138.5 191.001s-49.5 162.167 -49.5 259.5
c0 100 17.5 188 52.5 264s83.333 139.5 145 190.5s134.5 89.5 218.5 115.5s175.333 39 274 39c56.667 0 110 -3.33301 160 -10s99 -15.334 147 -26.001c7.33301 -1.33301 12.5 -4.16602 15.5 -8.49902s4.83301 -8.83301 5.5 -13.5l2.5 -36
c1 -14.667 1.83301 -30.5 2.5 -47.5s1.5 -34.333 2.5 -52s1.83301 -34 2.5 -49s1.16699 -27.833 1.5 -38.5s0.5 -17.334 0.5 -20.001l-50 -5c-5.33301 42 -18.5 77.333 -39.5 106s-46.833 51.834 -77.5 69.501s-64.667 30.334 -102 38.001s-74.666 11.5 -111.999 11.5
c-73.333 0 -137.833 -11.5 -193.5 -34.5s-102.167 -55.5 -139.5 -97.5s-65.333 -92.333 -84 -151s-28 -123.667 -28 -195c0 -84 11.667 -160.833 35 -230.5s58.166 -129.5 104.499 -179.5s104 -88.833 173 -116.5s149.167 -41.5 240.5 -41.5
c15.333 0 31.166 0.333008 47.499 1s33.166 2 50.499 4v314c0 19.333 -1.33301 35 -4 47s-7.16699 21.167 -13.5 27.5s-14.5 10.666 -24.5 12.999s-22.333 3.5 -37 3.5c-4.66699 0 -9.5 -0.166992 -14.5 -0.5s-10.167 -0.5 -15.5 -0.5l-5 56
c36 2.66699 69.167 4.83398 99.5 6.50098s57 3 80 4s42 1.66699 57 2s24.833 0.5 29.5 0.5c21.333 0 32 -10.667 32 -32v-472z" />
    <glyph glyph-name="H" unicode="H" horiz-adv-x="1275" 
d="M929 1131c0 15.333 7.99902 24.6621 23.999 27.9951c10.667 2 22.834 3.66699 36.501 5s27.167 2.5 40.5 3.5s25.5 1.83301 36.5 2.5s19.167 1 24.5 1c16 0 24 -8.33301 24 -25v-1119c0 -16 -8 -25.333 -24 -28c-11.333 -2 -23.833 -3.83301 -37.5 -5.5s-27 -3 -40 -4
s-25 -1.66699 -36 -2s-19.167 -0.5 -24.5 -0.5c-16 0 -24 8.33301 -24 25v570l-583 -7v-548c0 -16 -8 -25.333 -24 -28c-11.333 -2 -23.833 -3.83301 -37.5 -5.5s-27 -3 -40 -4s-25 -1.66699 -36 -2s-19.167 -0.5 -24.5 -0.5c-16 0 -24 8.33301 -24 25v990
c0 18.667 -1.83301 33.834 -5.5 45.501s-9 20.834 -16 27.501s-15.333 11.334 -25 14.001s-20.5 4 -32.5 4c-14.667 0 -29.334 -1 -44.001 -3l-6 55c36 6.66699 70.167 12.334 102.5 17.001s61 8.33398 86 11.001s45.833 4.66699 62.5 6s27.334 2 32.001 2
c21.333 0 32 -10.667 32 -32v-486h583v468z" />
    <glyph glyph-name="I" unicode="I" horiz-adv-x="506" 
d="M31 1145c36 6.66699 70.167 12.3291 102.5 16.9961s61 8.33398 86 11.001s45.833 4.66699 62.5 6s27.334 2 32.001 2c21.333 0 32 -10.667 32 -32v-1122c0 -16 -8 -25.333 -24 -28c-11.333 -2 -23.833 -3.83301 -37.5 -5.5s-27 -3 -40 -4s-25 -1.66699 -36 -2
s-19.167 -0.5 -24.5 -0.5c-16 0 -24 8.33301 -24 25v990c0 18.667 -1.83301 33.834 -5.5 45.501s-9 20.834 -16 27.501s-15.333 11.334 -25 14.001s-20.5 4 -32.5 4c-14.667 0 -29.334 -1 -44.001 -3z" />
    <glyph glyph-name="J" unicode="J" horiz-adv-x="465" 
d="M11 1145c36 6.66699 70.002 12.3291 102.002 16.9961s60.5 8.33398 85.5 11.001s45.833 4.66699 62.5 6s27.334 2 32.001 2c21.333 0 32 -10.667 32 -32v-978c0 -85.333 -4.83301 -160.333 -14.5 -225s-28.334 -122 -56.001 -172s-66.334 -94.167 -116.001 -132.5
s-114.5 -73.833 -194.5 -106.5l-29 62c56 30 99.333 62.833 130 98.5s53 75.667 67 120s22.167 93.5 24.5 147.5s3.5 114.333 3.5 181v858c0 18.667 -1.83301 33.834 -5.5 45.501s-9 20.834 -16 27.501s-15.333 11.334 -25 14.001s-20.5 4 -32.5 4
c-14.667 0 -29.334 -1 -44.001 -3z" />
    <glyph glyph-name="K" unicode="K" horiz-adv-x="1102" 
d="M31 1145c36 6.66699 70.1699 12.3281 102.503 16.9951s61 8.33398 86 11.001s45.833 4.66699 62.5 6s27.334 2 32.001 2c21.333 0 32 -10.667 32 -32v-534l492 515c13.333 14.667 28.666 24.334 45.999 29.001c9.33301 2.66699 20.333 4.83398 33 6.50098
s25.5 2.83398 38.5 3.50098s25 1.16699 36 1.5s19.5 0.5 25.5 0.5c7.33301 0 12.666 -1.83301 15.999 -5.5s5 -7.83398 5 -12.501c0 -5.33301 -2 -10 -6 -14l-496 -467l531 -642c3.33301 -5.33301 5 -9 5 -11c0 -4.66699 -2 -8.83398 -6 -12.501s-9 -6.16699 -15 -7.5
c-11.333 -2 -25.833 -3.83301 -43.5 -5.5s-35.334 -3 -53.001 -4s-33.667 -1.66699 -48 -2s-23.833 -0.5 -28.5 -0.5c-16 0 -28.333 6 -37 18l-495 609v-587c0 -16 -8 -25.333 -24 -28c-11.333 -2 -23.833 -3.83301 -37.5 -5.5s-27 -3 -40 -4s-25 -1.66699 -36 -2
s-19.167 -0.5 -24.5 -0.5c-16 0 -24 8.33301 -24 25v990c0 18.667 -1.83301 33.834 -5.5 45.501s-9 20.834 -16 27.501s-15.333 11.334 -25 14.001s-20.5 4 -32.5 4c-14.667 0 -29.334 -1 -44.001 -3z" />
    <glyph glyph-name="L" unicode="L" horiz-adv-x="920" 
d="M346 155c0 -16 0.499023 -28.5059 1.49902 -37.5059s3.66699 -16 8 -21s11.5 -8.16699 21.5 -9.5s24 -2 42 -2h99c53.333 0 96.833 1.33301 130.5 4s62.167 11 85.5 25s44 35.333 62 64s38 69 60 121l50 -11c0 -4.66699 -1.66699 -17 -5 -37s-7.5 -43 -12.5 -69
s-10.5 -52.667 -16.5 -80s-12 -51 -18 -71c-8.66699 -22.667 -25 -34 -49 -34c-50 0.666992 -112.167 1.33398 -186.5 2.00098s-163.833 1 -268.5 1h-166c-9.33301 0 -15.666 2.83301 -18.999 8.5s-5 11.167 -5 16.5v977c0 18.667 -1.83301 33.834 -5.5 45.501
s-9 20.834 -16 27.501s-15.333 11.334 -25 14.001s-20.5 4 -32.5 4c-14.667 0 -29.334 -1 -44.001 -3l-6 55c36 6.66699 70.167 12.334 102.5 17.001s61 8.33398 86 11.001s45.833 4.66699 62.5 6s27.334 2 32.001 2c21.333 0 32 -10.667 32 -32v-994z" />
    <glyph glyph-name="M" unicode="M" horiz-adv-x="1535" 
d="M1146 914l-372.999 -910c-2.66699 -7.33301 -8.66699 -11.666 -18 -12.999c-12 -1.33301 -25.5 -2.33301 -40.5 -3s-30.167 -1 -45.5 -1c-10.667 0 -18 5 -22 15l-350 924l-115 -921c-1.33301 -8 -7.33301 -12.333 -18 -13c-12 -1.33301 -26.833 -2.5 -44.5 -3.5
s-36.167 -1.5 -55.5 -1.5c-9.33301 0 -14 3.66699 -14 11c0 4.66699 0.333008 8 1 10l195 1062l-32 88c-1.33301 4 -2 7.33301 -2 10c0 10.667 6.66699 17 20 19c10.667 2 23.167 3.83301 37.5 5.5s28.333 3.16699 42 4.5s26.167 2.33301 37.5 3s19.666 1 24.999 1
c7.33301 0 13 -2 17 -6s7.66699 -9.66699 11 -17l358 -943l367 840l-10 83c-0.666992 0.666992 -1 3.33398 -1 8.00098c0 11.333 6.33301 18.333 19 21c10.667 2 23 3.83301 37 5.5s27.667 3.16699 41 4.5s25.5 2.33301 36.5 3s19.167 1 24.5 1c16.667 0 26 -7.66699 28 -23
l136 -1146c0.666992 -2.66699 1 -4.83398 1 -6.50098v-4.5c0 -12.667 -6.33301 -20 -19 -22c-11.333 -2 -24.333 -3.83301 -39 -5.5s-29 -3 -43 -4s-26.833 -1.66699 -38.5 -2s-20.167 -0.5 -25.5 -0.5c-6 0 -11 1.16699 -15 3.5s-6.33301 6.16602 -7 11.499z" />
    <glyph glyph-name="N" unicode="N" horiz-adv-x="1220" 
d="M254 1198c7.33301 0 12.998 -2.16699 16.998 -6.5s8.66699 -9.83301 14 -16.5l691 -917l-25 897c0 8 5.33301 12.333 16 13c12 2 28 4 48 6s39.333 3 58 3c10.667 0 16 -5 16 -15l-24 -975v-183c0 -8 -5.33301 -12.333 -16 -13c-12 -1.33301 -25.5 -2.33301 -40.5 -3
s-30.167 -1 -45.5 -1c-6 0 -10.667 1.16699 -14 3.5s-6.66602 6.16602 -9.99902 11.499l-696 924l25 -920c0 -8 -5.33301 -12.333 -16 -13c-12 -2 -28.5 -3.66699 -49.5 -5s-39.833 -2 -56.5 -2c-10.667 0 -16 5 -16 15l25 1042l-82 112
c-2.66699 2.66699 -4 6.33398 -4 11.001c0 8.66699 6 14.667 18 18c10.667 2 24.334 3.83301 41.001 5.5s33.5 3.16699 50.5 4.5s32.5 2.33301 46.5 3s23.667 1 29 1z" />
    <glyph glyph-name="O" unicode="O" horiz-adv-x="1350" 
d="M706 1189c86 0 163.667 -13.334 233 -40.001s128.5 -65.167 177.5 -115.5s86.833 -112.166 113.5 -185.499s40 -156.333 40 -249c0 -101.333 -14.833 -191 -44.5 -269s-71.834 -143.5 -126.501 -196.5s-120.5 -93.333 -197.5 -121s-162.833 -41.5 -257.5 -41.5
c-86 0 -163.833 13.833 -233.5 41.5s-129 67.167 -178 118.5s-86.667 114 -113 188s-39.5 157.667 -39.5 251c0 100.667 14.833 189.667 44.5 267s71.834 142 126.501 194s120.5 91.333 197.5 118s162.833 40 257.5 40zM656 1105c-65.333 0 -121.333 -13.333 -168 -40
s-84.834 -62.334 -114.501 -107.001s-51.5 -96 -65.5 -154s-21 -118.333 -21 -181c0 -70 7.5 -139 22.5 -207s38.833 -128.667 71.5 -182s75 -96.5 127 -129.5s114.667 -49.5 188 -49.5c65.333 0 121.333 13.833 168 41.5s84.834 64.334 114.501 110.001s51.5 98 65.5 157
s21 119.833 21 182.5c0 70 -7.5 138.5 -22.5 205.5s-38.833 126.667 -71.5 179s-75 94.5 -127 126.5s-114.667 48 -188 48z" />
    <glyph glyph-name="P" unicode="P" horiz-adv-x="963" 
d="M403 538c53.333 4 100.499 11.999 141.499 23.999s75.5 29.5 103.5 52.5s49.167 52.167 63.5 87.5s21.5 78.333 21.5 129c0 44 -7.33301 83.333 -22 118s-35 63.834 -61 87.501s-57.167 41.667 -93.5 54s-76.166 18.5 -119.499 18.5c-30 0 -52.667 -1.83301 -68 -5.5
s-23 -16.5 -23 -38.5v-1038c0 -16 -8 -25.333 -24 -28c-11.333 -2 -23.833 -3.83301 -37.5 -5.5s-27 -3 -40 -4s-25 -1.66699 -36 -2s-19.167 -0.5 -24.5 -0.5c-16 0 -24 8.33301 -24 25v1001c0 34 -7.33301 56.5 -22 67.5s-33.667 16.5 -57 16.5c-13.333 0 -28 -1 -44 -3
l-6 55c58.667 10 122.334 19.333 191.001 28s146 13 232 13c39.333 0 78.666 -1.83301 117.999 -5.5s76.833 -10.167 112.5 -19.5s69 -21.666 100 -36.999s57.833 -35 80.5 -59s40.5 -52.5 53.5 -85.5s19.5 -71.5 19.5 -115.5c0 -69.333 -14.667 -128 -44 -176
s-68.333 -87.167 -117 -117.5s-104.667 -52.833 -168 -67.5s-129 -23.334 -197 -26.001z" />
    <glyph glyph-name="Q" unicode="Q" horiz-adv-x="1350" 
d="M1296 -438c-12.667 -2.66699 -26.5029 -5.16992 -41.5029 -7.50293s-29.833 -4.16602 -44.5 -5.49902l-39.5 -3.5c-11.667 -1 -20.5 -1.5 -26.5 -1.5c-30 0 -55.333 5 -76 15s-38.834 24.333 -54.501 43s-29.667 41.667 -42 69s-24.833 58.333 -37.5 93l-24 64
c-11.333 30 -25.833 54.333 -43.5 73s-37.5 33.167 -59.5 43.5s-46 17.333 -72 21s-53 5.5 -81 5.5c-86 0 -164.333 13.833 -235 41.5s-131 67.334 -181 119.001s-88.833 114.5 -116.5 188.5s-41.5 157.333 -41.5 250c0 100.667 14.833 189.667 44.5 267
s71.834 142 126.501 194s120.5 91.333 197.5 118s162.833 40 257.5 40c86 0 163.667 -13.333 233 -40s128.5 -65.167 177.5 -115.5s86.833 -112.166 113.5 -185.499s40 -156.333 40 -249c0 -79.333 -10.333 -151.333 -31 -216s-49.5 -121.667 -86.5 -171
s-81.5 -90.833 -133.5 -124.5s-109 -59.167 -171 -76.5v-8c30.667 -3.33301 59.5 -7.83301 86.5 -13.5s51.833 -14.5 74.5 -26.5s43 -28.5 61 -49.5s33 -48.5 45 -82.5l14 -41c12.667 -38 24.334 -68.5 35.001 -91.5s21.834 -40.833 33.501 -53.5s24.834 -21 39.501 -25
s32.667 -6 54 -6zM653.997 1105c-65.333 0 -121.333 -13.332 -168 -39.999s-84.834 -62.334 -114.501 -107.001s-51.5 -96 -65.5 -154s-21 -118.333 -21 -181c0 -69.333 7.5 -138 22.5 -206s39 -128.833 72 -182.5s75.5 -97 127.5 -130s115 -49.5 189 -49.5
c65.333 0 121.333 13.833 168 41.5s84.834 64.5 114.501 110.5s51.5 98.5 65.5 157.5s21 119.833 21 182.5c0 70 -7.5 138.333 -22.5 205s-39 126.167 -72 178.5s-75.5 94.5 -127.5 126.5s-115 48 -189 48z" />
    <glyph glyph-name="R" unicode="R" horiz-adv-x="1077" 
d="M400 600c51.333 3.33301 96.667 10.6699 136 22.0029s72.166 27.833 98.499 49.5s46.333 49.167 60 82.5s20.5 73.666 20.5 120.999c0 39.333 -7.33301 73.666 -22 102.999s-35 53.5 -61 72.5s-56.667 33.167 -92 42.5s-73.333 14 -114 14
c-26.667 0 -46.667 -2.16699 -60 -6.5s-20 -16.5 -20 -36.5v-1037c0 -16 -8 -25.333 -24 -28c-11.333 -2 -23.833 -3.83301 -37.5 -5.5s-27 -3 -40 -4s-25 -1.66699 -36 -2s-19.167 -0.5 -24.5 -0.5c-16 0 -24 8.33301 -24 25v1003c0 33.333 -7.33301 55.5 -22 66.5
s-33.667 16.5 -57 16.5c-13.333 0 -28 -1 -44 -3l-6 55c66.667 11.333 135.834 20.833 207.501 28.5s144.834 11.5 219.501 11.5c32 0 65.667 -1.33301 101 -4s70 -7.66699 104 -15s66.333 -17.5 97 -30.5s57.5 -30 80.5 -51s41.333 -46.333 55 -76
s20.5 -64.834 20.5 -105.501c0 -43.333 -6.5 -81.5 -19.5 -114.5s-31 -62.167 -54 -87.5s-49.833 -47 -80.5 -65s-63.667 -33.333 -99 -46v-6c16.667 -3.33301 34.667 -8.5 54 -15.5s38.166 -17 56.499 -30s35.333 -29.5 51 -49.5s28.167 -44.667 37.5 -74l74 -229
c10 -31.333 19.167 -56.333 27.5 -75s17.166 -32.834 26.499 -42.501s20 -16 32 -19s27 -4.5 45 -4.5l3 -52c-12.667 -2.66699 -26.5 -5.16699 -41.5 -7.5s-29.833 -4.16602 -44.5 -5.49902l-39.5 -3.5c-11.667 -1 -20.5 -1.5 -26.5 -1.5c-21.333 0 -40.333 2.5 -57 7.5
s-31.667 13.667 -45 26s-25.166 28.666 -35.499 48.999s-19.833 45.833 -28.5 76.5l-71 244c-10 34.667 -22 62.334 -36 83.001s-31.5 36.5 -52.5 47.5s-46.333 18.333 -76 22s-65.5 6.16699 -107.5 7.5z" />
    <glyph glyph-name="S" unicode="S" horiz-adv-x="924" 
d="M726 887c-6.66699 36.667 -17.5 68.1699 -32.5 94.5029s-33.5 48.166 -55.5 65.499s-46.833 30.166 -74.5 38.499s-57.5 12.5 -89.5 12.5c-31.333 0 -61.333 -3.83301 -90 -11.5s-54 -19.834 -76 -36.501s-39.5 -38 -52.5 -64s-19.5 -57 -19.5 -93
c0 -32 7.66699 -59.5 23 -82.5s35.833 -43 61.5 -60s55.167 -32.167 88.5 -45.5l104 -40c40 -15.333 80 -31.833 120 -49.5s75.833 -39.167 107.5 -64.5s57.334 -56 77.001 -92s29.5 -80.333 29.5 -133c0 -46 -6.5 -86.667 -19.5 -122s-31 -66.166 -54 -92.499
s-49.833 -48.5 -80.5 -66.5s-63.667 -32.5 -99 -43.5s-72.166 -18.833 -110.499 -23.5s-76.166 -7 -113.499 -7c-44.667 0 -89.167 2.66699 -133.5 8s-88.5 13 -132.5 23c-6 1.33301 -10.833 4.16602 -14.5 8.49902s-5.83398 8.83301 -6.50098 13.5
c-1.33301 14 -2.66602 34.5 -3.99902 61.5s-2.5 54.5 -3.5 82.5s-1.83301 53.333 -2.5 76s-1 36 -1 40l50 5c4.66699 -40 15.167 -74.667 31.5 -104s37 -53.5 62 -72.5s53.667 -33 86 -42s67.166 -13.5 104.499 -13.5c33.333 0 65.666 3.83301 96.999 11.5
s59.166 20 83.499 37s43.833 38.833 58.5 65.5s22 59 22 97c0 31.333 -7.66699 58 -23 80s-35.833 41.5 -61.5 58.5s-55 32.167 -88 45.5l-102.5 41c-40 16 -80 33.167 -120 51.5s-75.833 40.5 -107.5 66.5s-57.334 57.5 -77.001 94.5s-29.5 82.5 -29.5 136.5
c0 65.333 12.833 120 38.5 164s59.334 79.333 101.001 106s89 45.667 142 57s107.167 17 162.5 17c36.667 0 76.667 -2.83301 120 -8.5s84 -13.167 122 -22.5c6 -1.33301 10.833 -4.16602 14.5 -8.49902s5.83398 -8.83301 6.50098 -13.5
c1.33301 -14 2.66602 -33.5 3.99902 -58.5l4 -76c1.33301 -25.667 2.33301 -48.834 3 -69.501s1 -33 1 -37z" />
    <glyph glyph-name="T" unicode="T" horiz-adv-x="1092" 
d="M330 1078c-43.333 0 -79.1641 -1.16699 -107.497 -3.5s-51.833 -10 -70.5 -23s-34.167 -33.5 -46.5 -61.5s-24.166 -67.333 -35.499 -118l-50 5c0 2.66699 0.166992 10 0.5 22s1 26.333 2 43s2 35 3 55s2.16699 39.5 3.5 58.5s2.66602 36.667 3.99902 53
s2.66602 29.166 3.99902 38.499c0.666992 10 6.66699 15 18 15c60.667 -1.33301 118.667 -2.33301 174 -3s106.333 -1 153 -1h333c46.667 0 98 0.333008 154 1s114.333 1.66699 175 3c9.33301 0 14.666 -5 15.999 -15c1.33301 -9.33301 2.5 -22.166 3.5 -38.499s2 -34 3 -53
s1.83301 -38.5 2.5 -58.5s1.16699 -38.333 1.5 -55s0.666016 -31 0.999023 -43s0.5 -19.333 0.5 -22l-50 -5c-11.333 50.667 -22.833 90 -34.5 118s-26.5 48.5 -44.5 61.5s-40.833 20.667 -68.5 23s-63.5 3.5 -107.5 3.5h-128v-1051c0 -16 -8 -25.333 -24 -28
c-11.333 -2 -23.833 -3.83301 -37.5 -5.5s-27 -3 -40 -4s-25 -1.66699 -36 -2s-19.167 -0.5 -24.5 -0.5c-16 0 -24 8.33301 -24 25v1066h-123z" />
    <glyph glyph-name="U" unicode="U" horiz-adv-x="1225" 
d="M336 365c-0.666992 -50 5.66504 -92.1709 18.998 -126.504s32 -62 56 -83s52 -36 84 -45s66.667 -13.5 104 -13.5c48 0 95.167 7.66699 141.5 23s92.5 34.333 138.5 57v954c0 15.333 8 24.666 24 27.999c10.667 2 22.834 3.66699 36.501 5s27.167 2.5 40.5 3.5
s25.5 1.83301 36.5 2.5s19.167 1 24.5 1c16 0 24 -8.33301 24 -25v-1119c0 -16 -8 -25.333 -24 -28c-11.333 -2 -23.5 -3.83301 -36.5 -5.5s-25.667 -3 -38 -4s-23.5 -1.66699 -33.5 -2s-17.667 -0.5 -23 -0.5c-15.333 0 -23.333 8.33301 -24 25l-7 82
c-62.667 -34.667 -128.5 -63.5 -197.5 -86.5s-138.833 -34.5 -209.5 -34.5c-44 0 -85.667 6 -125 18s-73.5 30.333 -102.5 55s-52 56.167 -69 94.5s-25.5 83.5 -25.5 135.5v726c0 18.667 -1.83301 33.834 -5.5 45.501s-9 20.834 -16 27.501s-15.333 11.334 -25 14.001
s-20.5 4 -32.5 4c-13.333 0 -28 -1 -44 -3l-6 55c36 6.66699 70.167 12.334 102.5 17.001s61 8.33398 86 11.001s45.833 4.66699 62.5 6s27.334 2 32.001 2c21.333 0 32 -10.667 32 -32v-784z" />
    <glyph glyph-name="V" unicode="V" horiz-adv-x="1149" 
d="M952 1129c4.66699 14.667 15.6689 24.667 33.002 30c9.33301 2.66699 19.333 4.66699 30 6s21 2.5 31 3.5s19.167 1.66699 27.5 2s14.833 0.5 19.5 0.5c7.33301 0 12.166 -1.16699 14.499 -3.5s3.5 -5.16602 3.5 -8.49902c0 -2.66699 -1.66699 -8.33398 -5 -17.001
l-475 -1135c-5.33301 -11.333 -11 -17.333 -17 -18c-3.33301 -0.666992 -8.83301 -1.33398 -16.5 -2.00098s-15.667 -1.16699 -24 -1.5l-24 -1c-7.66699 -0.333008 -12.834 -0.5 -15.501 -0.5c-4 0 -7.83301 1 -11.5 3s-6.83398 6.33301 -9.50098 13l-394 1015
c-12 31.333 -26.167 52.333 -42.5 63s-35.166 16 -56.499 16c-6.66699 0 -13.5 -0.333008 -20.5 -1s-14.5 -1.66699 -22.5 -3l-6 55c29.333 6 58.666 11.167 87.999 15.5s56.166 8 80.499 11s44.833 5.33301 61.5 7s27.334 2.5 32.001 2.5c10 0 17.333 -3.16699 22 -9.5
s9.33398 -15.166 14.001 -26.499l357 -931h4z" />
    <glyph glyph-name="W" unicode="W" horiz-adv-x="1668" 
d="M1471 1129c4.66699 14.667 15.666 24.667 32.999 30c8.66699 2.66699 18.334 4.83398 29.001 6.50098s21 2.83398 31 3.50098s19.167 1.16699 27.5 1.5s14.833 0.5 19.5 0.5c11.333 0 17 -3 17 -9s-1.33301 -12.667 -4 -20l-410 -1134
c-2.66699 -6.66699 -5.33398 -11.167 -8.00098 -13.5s-5.66699 -3.83301 -9 -4.5c-6 -0.666992 -13.667 -1.33398 -23 -2.00098l-29 -2c-10 -0.666992 -19.667 -1.16699 -29 -1.5s-16.666 -0.5 -21.999 -0.5c-4 0 -8 1 -12 3s-7 6.33301 -9 13l-236 731l-253 -723
c-2.66699 -6.66699 -5.33398 -11.167 -8.00098 -13.5s-5.66699 -3.83301 -9 -4.5c-6 -0.666992 -13.667 -1.33398 -23 -2.00098l-29 -2c-10 -0.666992 -19.667 -1.16699 -29 -1.5s-16.666 -0.5 -21.999 -0.5c-4 0 -8 1 -12 3s-7 6.33301 -9 13l-326 1015
c-10.667 32 -24.5 53.167 -41.5 63.5s-36.167 15.5 -57.5 15.5c-6.66699 0 -13.5 -0.333008 -20.5 -1s-14.5 -1.66699 -22.5 -3l-6 55c29.333 6 58.833 11.167 88.5 15.5s56.834 8 81.501 11s45.667 5.33301 63 7s28.333 2.5 33 2.5c10 0 17.667 -3.16699 23 -9.5
s9.66602 -15.166 12.999 -26.499l295 -922h4l218 661l-81 253c-2.66699 7.33301 -2.16699 13.666 1.5 18.999s8.16699 8.66602 13.5 9.99902c23.333 4.66699 48.5 8.33398 75.5 11.001s49.5 4 67.5 4c9.33301 0 16 -1.83301 20 -5.5s7.33301 -9.5 10 -17.5l304 -944h4z" />
    <glyph glyph-name="X" unicode="X" horiz-adv-x="988" 
d="M-13 1145c29.333 6 58.335 11.1699 87.002 15.5029s54.834 8 78.501 11s43.667 5.33301 60 7s26.833 2.5 31.5 2.5c10 0 17.5 -2.83301 22.5 -8.5s10.833 -14.167 17.5 -25.5l236 -400l243 383c0 0.666992 0.166992 1 0.5 1s0.5 0.333008 0.5 1
c5.33301 7.33301 10.166 13 14.499 17s11.166 7.33301 20.499 10s19.333 4.66699 30 6s21 2.5 31 3.5s19.167 1.66699 27.5 2s14.833 0.5 19.5 0.5c12.667 0 19 -4.33301 19 -13c0 -6 -2 -11.333 -6 -16l-341 -495l365 -617c2.66699 -2.66699 4 -6.66699 4 -12
c0 -10.667 -6.66699 -17 -20 -19c-11.333 -2 -24.833 -3.83301 -40.5 -5.5s-31.167 -3 -46.5 -4s-29.333 -1.66699 -42 -2s-21.667 -0.5 -27 -0.5c-11.333 0 -20.333 5.33301 -27 16l-290 489l-289 -462c-4.66699 -7.33301 -9.5 -13.333 -14.5 -18
s-12.167 -8.33398 -21.5 -11.001s-19.5 -4.83398 -30.5 -6.50098s-21.667 -2.83398 -32 -3.50098s-19.833 -1.16699 -28.5 -1.5s-15.334 -0.5 -20.001 -0.5c-12.667 0 -19 4.33301 -19 13c0 5.33301 2 10.666 6 15.999l389 575l-254 429
c-17.333 28.667 -33.833 47.834 -49.5 57.501s-34.167 14.5 -55.5 14.5c-6.66699 0 -13.5 -0.333008 -20.5 -1s-14.5 -1.66699 -22.5 -3z" />
    <glyph glyph-name="Y" unicode="Y" horiz-adv-x="986" 
d="M217 1181c10 0 17.999 -3 23.999 -9s12 -14.667 18 -26l284 -510l242 493c4 8 8.33301 14.333 13 19s11.667 8.33398 21 11.001s19.333 4.66699 30 6s21 2.5 31 3.5s19.167 1.66699 27.5 2s14.833 0.5 19.5 0.5c12 0 18 -4 18 -12
c0 -2.66699 -0.666992 -5.33398 -2 -8.00098s-2.66602 -5.66699 -3.99902 -9l-359 -602v-513c0 -16 -8 -25.333 -24 -28c-11.333 -2 -23.833 -3.83301 -37.5 -5.5s-27 -3 -40 -4s-25 -1.66699 -36 -2s-19.167 -0.5 -24.5 -0.5c-16 0 -24 8.33301 -24 25v510l-277 494
c-16.667 30 -32.334 50.833 -47.001 62.5s-32.667 17.5 -54 17.5c-5.33301 0 -11.333 -0.5 -18 -1.5l-23 -3.5l-6 55c29.333 6 57.833 11.167 85.5 15.5s52.834 8 75.501 11s41.667 5.16699 57 6.5s25.333 2 30 2z" />
    <glyph glyph-name="Z" unicode="Z" horiz-adv-x="1029" 
d="M365 2l-72.002 0.000976562c-20.667 0 -42.167 -0.166992 -64.5 -0.5s-47.5 -0.833008 -75.5 -1.5s-63 -1.33398 -105 -2.00098c-3.33301 0 -6 2.33301 -8 7c-2.66699 8 -5 17.333 -7 28s-3 18 -3 22c0 3.33301 1.33301 6.33301 4 9l694 1014h-361
c-43.333 0 -79.166 -1.16699 -107.499 -3.5s-51.833 -10 -70.5 -23s-34.167 -33.5 -46.5 -61.5s-24.166 -67.333 -35.499 -118l-50 5c0 2.66699 0.166992 10 0.5 22s1 26.333 2 43s2 35 3 55s2.16699 39.5 3.5 58.5s2.66602 36.667 3.99902 53
s2.66602 29.166 3.99902 38.499c0.666992 10 6 15 16 15c60.667 -1.33301 119 -2.33301 175 -3s107.333 -1 154 -1h234h67.5c19 0 39 0.166992 60 0.5s44.833 0.833008 71.5 1.5s60.334 1.33398 101.001 2.00098c4 0 7 -1.66699 9 -5c2.66699 -7.33301 5 -16 7 -26
s3 -16.667 3 -20c0 2 -0.666992 -0.333008 -2 -7l-703 -1022h389c43.333 0 79.333 1.66699 108 5s52.5 12.166 71.5 26.499s34.833 35.833 47.5 64.5s24.667 68.667 36 120l50 -5c0 -3.33301 -0.333008 -11.166 -1 -23.499l-2.5 -44.5c-1 -17.333 -2.16699 -36.333 -3.5 -57
l-4 -61c-1.33301 -20 -2.83301 -38.333 -4.5 -55s-3.16699 -29.667 -4.5 -39c-0.666992 -4 -2.16699 -7.5 -4.5 -10.5s-6.16602 -4.5 -11.499 -4.5c-60.667 1.33301 -119 2.33301 -175 3s-107.333 1 -154 1h-239z" />
    <glyph glyph-name="bracketleft" unicode="[" horiz-adv-x="643" 
d="M478 -474l-287 10v1782l297 10l-10 -93l-199 3v-1622l209 3z" />
    <glyph glyph-name="backslash" unicode="\" horiz-adv-x="532" 
d="M377 -198l-362 1378l87 17l363 -1378z" />
    <glyph glyph-name="bracketright" unicode="]" horiz-adv-x="643" 
d="M165 1328l287 -10v-1782l-297 -10l10 93l199 -3v1622l-209 -3z" />
    <glyph glyph-name="asciicircum" unicode="^" horiz-adv-x="805" 
d="M357 1180l79 9l295 -607l-81 -28l-252 525l-257 -527l-76 37z" />
    <glyph glyph-name="underscore" unicode="_" horiz-adv-x="600" 
d="M-70 -160h740v-80h-740v80z" />
    <glyph glyph-name="grave" unicode="`" horiz-adv-x="500" 
d="M290 826l-54 -0.000976562l-183 327c-2.66699 4.66699 -4 8.66699 -4 12c0 7.33301 5.33301 12 16 14c8 2 17.667 3.66699 29 5s22.833 2.5 34.5 3.5s22.5 1.66699 32.5 2s17.667 0.5 23 0.5c10 0 17.5 -2.66699 22.5 -8s8.5 -11.666 10.5 -18.999l80 -329z" />
    <glyph glyph-name="a" unicode="a" horiz-adv-x="811" 
d="M107 671c34.667 14 68.8262 26.332 102.493 36.999s65.334 19.5 95.001 26.5s56.667 12.333 81 16s44.5 5.5 60.5 5.5c48 0 88.333 -5.5 121 -16.5s59 -28.5 79 -52.5s34.333 -54.5 43 -91.5s12.667 -81.5 12 -133.5l-5 -326c-0.666992 -20.667 0.666016 -40 3.99902 -58
s7 -35.667 11 -53c0.666992 -0.666992 1 -3.33398 1 -8.00098c0 -10 -6.66699 -16 -20 -18c-8.66699 -2 -18.5 -3.83301 -29.5 -5.5s-22.167 -3 -33.5 -4s-22.666 -1.66699 -33.999 -2s-21.333 -0.5 -30 -0.5c-7.33301 0 -12.833 2 -16.5 6s-6.5 10 -8.5 18l-13 48
c-25.333 -11.333 -51.333 -21.833 -78 -31.5s-52.167 -18 -76.5 -25s-46.5 -12.5 -66.5 -16.5s-36.333 -6 -49 -6c-35.333 0 -66 6.5 -92 19.5s-47.333 29.333 -64 49s-29 41.334 -37 65.001s-12 46.167 -12 67.5c0 38 6.83301 70.167 20.5 96.5s32.167 48.166 55.5 65.499
c20.667 15.333 44.834 28 72.501 38s58.167 17.833 91.5 23.5s69.333 9.83398 108 12.501s79.334 4.66699 122.001 6l1 34c0.666992 30.667 -1.16602 58.167 -5.49902 82.5s-12.166 44.833 -23.499 61.5s-26.666 29.334 -45.999 38.001s-43.666 13 -72.999 13
c-36 0 -73.5 -4 -112.5 -12s-83.5 -20 -133.5 -36zM520.992 354.999l-88.001 -5.5c-27.333 -1.66699 -52.333 -4.16699 -75 -7.5s-42.667 -8.5 -60 -15.5s-31.333 -16.833 -42 -29.5c-8 -9.33301 -14.667 -21 -20 -35s-8 -29.333 -8 -46c0 -14 2.16699 -28.333 6.5 -43
s12 -28.167 23 -40.5s25.833 -22.5 44.5 -30.5s42.334 -12 71.001 -12c4 0 10.5 0.666992 19.5 2s20 3.5 33 6.5s27.5 7.16699 43.5 12.5s32.333 12 49 20z" />
    <glyph glyph-name="b" unicode="b" horiz-adv-x="969" 
d="M318 677l100.003 28.9971c33.333 9.33301 65 17.5 95 24.5s57.167 12.667 81.5 17s44.5 6.5 60.5 6.5c38.667 0 73.667 -10.833 105 -32.5s58 -49.5 80 -83.5s39 -71.833 51 -113.5s18 -82.167 18 -121.5c0 -71.333 -12.833 -133.333 -38.5 -186
s-60.167 -96.667 -103.5 -132s-93.5 -61.666 -150.5 -78.999s-116.833 -26 -179.5 -26c-30.667 0 -61.5 1.83301 -92.5 5.5s-60 8.83398 -87 15.501s-50.833 14.334 -71.5 23.001s-36 18 -46 28v1102c0 35.333 -5.66699 59.5 -17 72.5s-30 19.5 -56 19.5
c-12.667 0 -26.334 -1 -41.001 -3l-6 48c73.333 20 133.666 34.167 180.999 42.5s75.666 12.5 84.999 12.5c21.333 0 32 -12 32 -36v-633zM318.003 181.997c0 -22 5.50098 -40.5 16.501 -55.5s24.833 -27 41.5 -36s35 -15.5 55 -19.5s39.333 -6 58 -6
c162 0 243 83.333 243 250c0 38 -4.5 76.667 -13.5 116s-22.333 75 -40 107s-39.334 58 -65.001 78s-55.167 30 -88.5 30c-12.667 0 -37.667 -3.5 -75 -10.5s-81.333 -18.167 -132 -33.5v-420z" />
    <glyph glyph-name="c" unicode="c" horiz-adv-x="786" 
d="M554 530c0 19.333 -0.998047 37.001 -2.99805 53.001s-7 29.833 -15 41.5s-19.5 20.667 -34.5 27s-35.5 9.5 -61.5 9.5c-37.333 0 -68.833 -6.33301 -94.5 -19s-46.5 -29.667 -62.5 -51s-27.667 -46.333 -35 -75s-11 -59.334 -11 -92.001c0 -45.333 6 -87.5 18 -126.5
s30.167 -73.167 54.5 -102.5s55.166 -52.333 92.499 -69s81.666 -25 132.999 -25c13.333 0 28.333 1 45 3s33.667 4.5 51 7.5s34.333 6.66699 51 11s32 8.83301 46 13.5l23 -56c-31.333 -14 -64.333 -27.167 -99 -39.5s-68.334 -23 -101.001 -32s-63 -16 -91 -21
s-51 -7.5 -69 -7.5c-53.333 0 -100.5 10 -141.5 30s-75.5 46.833 -103.5 80.5s-49.333 72.5 -64 116.5s-22 90 -22 138c0 62 11.667 118.167 35 168.5s55.333 93.333 96 129s88.334 63.167 143.001 82.5s113.334 29 176.001 29c25.333 0 50.5 -2.33301 75.5 -7
s47.5 -12.667 67.5 -24s36.167 -26.333 48.5 -45s18.5 -42 18.5 -70c0 -35.333 -11.667 -60.833 -35 -76.5s-52.333 -23.5 -87 -23.5c-14.667 0 -29.334 1 -44.001 3v19z" />
    <glyph glyph-name="d" unicode="d" horiz-adv-x="956" 
d="M533 1291c73.333 20 133.668 34.1699 181.001 42.5029s75.666 12.5 84.999 12.5c21.333 0 32 -12 32 -36v-1168c0 -22.667 1.5 -43.5 4.5 -62.5s6.5 -37.167 10.5 -54.5l1 -6c0 -10 -6.66699 -16.667 -20 -20c-8.66699 -2 -18.5 -3.83301 -29.5 -5.5s-22.333 -3 -34 -4
s-23.167 -1.66699 -34.5 -2s-21.666 -0.5 -30.999 -0.5c-7.33301 0 -12.833 2 -16.5 6s-6.5 10 -8.5 18l-15 56l-93 -34c-30.667 -10.667 -59.667 -19.834 -87 -27.501s-52.333 -13.834 -75 -18.501s-42 -7 -58 -7c-43.333 0 -82.5 11 -117.5 33s-64.833 50 -89.5 84
s-43.5 71.667 -56.5 113s-19.5 81.666 -19.5 120.999c0 68 12.333 128.167 37 180.5s58.334 96.5 101.001 132.5s92.667 63.333 150 82s118.666 28 183.999 28c40 0 79.667 -3 119 -9v409c0 35.333 -5.66699 59.5 -17 72.5s-30 19.5 -56 19.5
c-12.667 0 -26.334 -1 -41.001 -3zM653.002 552.003c0 22 -5.5 40.5 -16.5 55.5s-24.833 27 -41.5 36s-35 15.5 -55 19.5s-39.333 6 -58 6c-43.333 0 -80.5 -6.5 -111.5 -19.5s-56.167 -31.167 -75.5 -54.5s-33.5 -51.166 -42.5 -83.499s-13.5 -67.5 -13.5 -105.5
c0 -32 3.83301 -66.5 11.5 -103.5s20.167 -71.333 37.5 -103s40 -57.834 68 -78.501s62.333 -31 103 -31c6 0 15 0.666992 27 2s26.5 3.83301 43.5 7.5s36 8.66699 57 15s43.167 14.5 66.5 24.5v413z" />
    <glyph glyph-name="e" unicode="e" horiz-adv-x="801" 
d="M766 85c-32 -15.333 -65.667 -29.5 -101 -42.5s-69.833 -24.167 -103.5 -33.5s-65 -16.5 -94 -21.5s-53.167 -7.5 -72.5 -7.5c-54 0 -101.833 10.167 -143.5 30.5s-76.667 47.333 -105 81s-49.833 72.5 -64.5 116.5s-22 89.667 -22 137
c0 61.333 11.333 117.166 34 167.499s53.5 93.333 92.5 129s84.5 63.334 136.5 83.001s107 29.5 165 29.5c38 0 71.667 -5.83301 101 -17.5s54 -27.667 74 -48s35.333 -44.833 46 -73.5s16 -60 16 -94c0 -29.333 -5.66699 -66 -17 -110l-470 -25
c2.66699 -42 11 -80.333 25 -115s33.833 -64.667 59.5 -90s57 -45 94 -59s79.5 -21 127.5 -21c32 0 66.167 3.83301 102.5 11.5s68.833 17.167 97.5 28.5zM544 469c2 9.33301 3.33398 18.332 4.00098 26.999s1 17.667 1 27c0 18.667 -2.83301 36.334 -8.5 53.001
s-13.834 31.167 -24.501 43.5s-24 22 -40 29s-34 10.5 -54 10.5c-32 0 -59.5 -5.83301 -82.5 -17.5s-42 -27.167 -57 -46.5s-26.167 -41.833 -33.5 -67.5s-11.333 -52.5 -12 -80.5z" />
    <glyph glyph-name="f" unicode="f" horiz-adv-x="551" 
d="M27 707c17.333 1.33301 36.333 2.66504 57 3.99805l61 4v144c0 48.667 3 92.334 9 131.001s14.5 73.334 25.5 104.001s24.333 57.834 40 81.501s33.5 45.5 53.5 65.5c34.667 34 74.5 60.167 119.5 78.5s92.833 27.5 143.5 27.5c22 0 45.167 -2.33301 69.5 -7
s46.666 -12.5 66.999 -23.5s37.166 -25.167 50.499 -42.5s20 -38.333 20 -63c0 -18.667 -3.16699 -34.334 -9.5 -47.001s-14.833 -23 -25.5 -31s-23.167 -13.833 -37.5 -17.5s-29.833 -5.5 -46.5 -5.5c-13.333 0 -27.333 1 -42 3v21c0 18 -1 34.833 -3 50.5
s-6.5 29 -13.5 40s-17.167 19.667 -30.5 26s-31 9.5 -53 9.5c-34 0 -61.5 -7.83301 -82.5 -23.5s-37.167 -36.5 -48.5 -62.5s-18.833 -56 -22.5 -90s-5.5 -69.333 -5.5 -106v-254c44.667 2 85.834 3.5 123.501 4.5s66.834 1.5 87.501 1.5c5.33301 0 10.333 -1.83301 15 -5.5
s6.66699 -9.5 6 -17.5l-4 -62l-228 -1v-617c0 -16 -8 -25.333 -24 -28c-11.333 -2 -23.5 -3.83301 -36.5 -5.5s-25.5 -3 -37.5 -4s-23 -1.66699 -33 -2s-17.667 -0.5 -23 -0.5c-16 0 -24 8.33301 -24 25v631l-115 -3z" />
    <glyph glyph-name="g" unicode="g" horiz-adv-x="894" 
d="M664 654c20.667 -23.333 36.501 -49.1719 47.501 -77.5049s16.5 -58.5 16.5 -90.5c0 -43.333 -8.5 -82.666 -25.5 -117.999s-41 -65.666 -72 -90.999s-67.833 -45 -110.5 -59s-89.667 -21 -141 -21c-42 0 -76.333 4.33301 -103 13l-29.5 -38
c-9.66699 -12.667 -14.5 -25.667 -14.5 -39c0 -16 9.16699 -28.5 27.5 -37.5s40.666 -15.833 66.999 -20.5s54.166 -7.66699 83.499 -9s55.333 -2 78 -2c40.667 0 81.167 -2.66699 121.5 -8s76.5 -15 108.5 -29s58 -33.333 78 -58s30 -56.334 30 -95.001
c0 -36.667 -8.5 -70.5 -25.5 -101.5s-39.167 -59.167 -66.5 -84.5s-58.5 -47.833 -93.5 -67.5s-70.833 -36 -107.5 -49s-72.5 -22.833 -107.5 -29.5s-65.833 -10 -92.5 -10c-31.333 0 -64.666 4.33301 -99.999 13s-67.833 21.667 -97.5 39s-54.334 38.833 -74.001 64.5
s-29.5 55.834 -29.5 90.501c0 20.667 3.5 40.5 10.5 59.5s16.167 37.667 27.5 56s24.666 36.5 39.999 54.5l48 55c-9.33301 4.66699 -18.166 11 -26.499 19s-15.5 16.833 -21.5 26.5s-10.833 19.5 -14.5 29.5s-5.5 19.667 -5.5 29c0 20.667 9.33301 43.834 28 69.501
s49.334 58.5 92.001 98.5c-46 23.333 -81.833 55.666 -107.5 96.999s-38.5 87.333 -38.5 138c0 42 8.5 80.5 25.5 115.5s41 64.833 72 89.5s67.667 43.834 110 57.501s89.166 20.5 140.499 20.5c40 0 77 -5 111 -15s64 -23.667 90 -41
c64.667 16.667 115.334 29.334 152.001 38.001s59.667 13 69 13c18.667 0 28 -10 28 -30c0 -12.667 -0.666992 -25.667 -2 -39s-3 -27.666 -5 -42.999zM224.001 -64.0059c-17.333 -24 -30.668 -45.332 -40.001 -63.999s-14 -39.334 -14 -62.001
c0 -28 8.83301 -51.667 26.5 -71s40 -35 67 -47s56.167 -20.5 87.5 -25.5s61 -7.5 89 -7.5c22.667 0 48 2.33301 76 7s54 12.5 78 23.5s44.167 25.667 60.5 44s24.5 41.5 24.5 69.5c0 24 -7 43.167 -21 57.5s-32.167 25.333 -54.5 33s-47.833 12.667 -76.5 15
s-57.334 3.5 -86.001 3.5c-15.333 0 -32.166 0.333008 -50.499 1s-37.166 2 -56.499 4s-38.5 4.5 -57.5 7.5s-36.5 6.83301 -52.5 11.5zM402.999 278.995c26 0 48.499 4.66699 67.499 14s34.5 21.833 46.5 37.5s21 34 27 55s9 43.167 9 66.5
c0 26.667 -3.16699 53.167 -9.5 79.5s-16.166 50 -29.499 71s-30.5 37.833 -51.5 50.5s-45.833 19 -74.5 19c-26 0 -48.333 -4.83301 -67 -14.5s-34 -22.5 -46 -38.5s-20.833 -34.667 -26.5 -56s-8.5 -43.666 -8.5 -66.999c0 -26 3 -52 9 -78s15.5 -49.333 28.5 -70
s29.833 -37.334 50.5 -50.001s45.667 -19 75 -19z" />
    <glyph glyph-name="h" unicode="h" horiz-adv-x="964" 
d="M20 1291c73.333 20 133.666 34.166 180.999 42.499s75.666 12.5 84.999 12.5c21.333 0 32 -12 32 -36v-639c30.667 11.333 61.5 22 92.5 32s60.5 18.833 88.5 26.5s53.667 13.667 77 18s43 6.5 59 6.5c38 0 70.5 -6 97.5 -18s49.167 -28.667 66.5 -50
s30 -47.166 38 -77.499s12 -63.833 12 -100.5l-5 -481c0 -16 -8 -25.333 -24 -28c-10.667 -2 -22.5 -3.83301 -35.5 -5.5s-25.667 -3 -38 -4s-23.666 -1.66699 -33.999 -2s-17.833 -0.5 -22.5 -0.5c-16 0 -24 8.33301 -24 25l5 398v15c0 36 -2.83301 67.5 -8.5 94.5
s-15.167 49.833 -28.5 68.5s-30.666 32.667 -51.999 42s-48 14 -80 14c-12 0 -34.5 -3.33301 -67.5 -10s-71.833 -19.667 -116.5 -39v-568c0 -16 -8 -25.333 -24 -28c-10.667 -2 -22.5 -3.83301 -35.5 -5.5s-25.667 -3 -38 -4s-23.666 -1.66699 -33.999 -2
s-17.833 -0.5 -22.5 -0.5c-16 0 -24 8.33301 -24 25v1142c0 35.333 -5.66699 59.5 -17 72.5s-30 19.5 -56 19.5c-12.667 0 -26.334 -1 -41.001 -3z" />
    <glyph glyph-name="i" unicode="i" horiz-adv-x="458" 
d="M32 693c36 10 69.332 18.5 99.999 25.5s57.834 12.833 81.501 17.5s43 8 58 10s24.833 3 29.5 3c21.333 0 32 -12 32 -36v-686c0 -16 -8 -25.333 -24 -28c-11.333 -2 -23.5 -3.83301 -36.5 -5.5s-25.5 -3 -37.5 -4s-23 -1.66699 -33 -2s-17.667 -0.5 -23 -0.5
c-16 0 -24 8.33301 -24 25v545c0 35.333 -5.66699 59.5 -17 72.5s-29 19.5 -53 19.5c-7.33301 0 -14.5 -0.166992 -21.5 -0.5s-15.5 -1.5 -25.5 -3.5zM338.999 1060c0 -36 -9.5 -62 -28.5 -78s-46.5 -24 -82.5 -24c-30 0 -53 9 -69 27s-24 43 -24 75
c0 36 9.83301 61.833 29.5 77.5s47.5 23.5 83.5 23.5c30 0 52.667 -8.83301 68 -26.5s23 -42.5 23 -74.5z" />
    <glyph glyph-name="j" unicode="j" horiz-adv-x="458" 
d="M32 693c36 10 69.332 18.5 99.999 25.5s57.834 12.833 81.501 17.5s43 8 58 10s24.833 3 29.5 3c21.333 0 32 -12 32 -36v-565c0 -148 -19.667 -266 -59 -354c-28 -60 -69.833 -111.5 -125.5 -154.5s-123.834 -81.5 -204.501 -115.5l-30 55c33.333 20.667 62 40 86 58
s44.5 37 61.5 57s31.333 42.333 43 67s21.834 54.667 30.501 90c7.33301 30 12.5 67 15.5 111s4.5 97.333 4.5 160v435c0 35.333 -5.66699 59.5 -17 72.5s-29 19.5 -53 19.5c-7.33301 0 -14.5 -0.166992 -21.5 -0.5s-15.5 -1.5 -25.5 -3.5zM338.999 1060
c0 -36 -9.5 -62 -28.5 -78s-46.5 -24 -82.5 -24c-30 0 -53 9 -69 27s-24 43 -24 75c0 36 9.83301 61.833 29.5 77.5s47.5 23.5 83.5 23.5c30 0 52.667 -8.83301 68 -26.5s23 -42.5 23 -74.5z" />
    <glyph glyph-name="k" unicode="k" horiz-adv-x="866" 
d="M20 1291c73.333 20 133.671 34.165 181.004 42.498s75.666 12.5 84.999 12.5c21.333 0 32 -12 32 -36v-906l275 296c6.66699 6.66699 13.167 11.667 19.5 15s14.166 6.33301 23.499 9c14.667 4 30.667 7.5 48 10.5s34.166 5.5 50.499 7.5s31 3.5 44 4.5
s22.167 1.5 27.5 1.5c11.333 0 17 -5.33301 17 -16c0 -3.33301 -2.66699 -7.66602 -8 -12.999l-334 -264l365 -428c3.33301 -5.33301 5 -9.66602 5 -12.999c0 -8 -4.66699 -13 -14 -15c-11.333 -2 -24.833 -3.83301 -40.5 -5.5s-31.167 -3 -46.5 -4s-29.333 -1.66699 -42 -2
s-22 -0.5 -28 -0.5c-8.66699 0 -16.167 1.83301 -22.5 5.5s-13.5 10.167 -21.5 19.5l-318 373v-358c0 -16 -8 -25.333 -24 -28c-11.333 -2 -23.5 -3.83301 -36.5 -5.5s-25.5 -3 -37.5 -4s-23 -1.66699 -33 -2s-17.667 -0.5 -23 -0.5c-16 0 -24 8.33301 -24 25v1142
c0 35.333 -5.66699 59.5 -17 72.5s-30 19.5 -56 19.5c-12.667 0 -26.334 -1 -41.001 -3z" />
    <glyph glyph-name="l" unicode="l" horiz-adv-x="443" 
d="M20 1291c73.333 20 133.669 34.167 181.002 42.5s75.666 12.5 84.999 12.5c21.333 0 32 -12 32 -36v-1283c0 -16 -8 -25.333 -24 -28c-11.333 -2 -23.5 -3.83301 -36.5 -5.5s-25.5 -3 -37.5 -4s-23 -1.66699 -33 -2s-17.667 -0.5 -23 -0.5c-16 0 -24 8.33301 -24 25v1142
c0 35.333 -5.66699 59.5 -17 72.5s-30 19.5 -56 19.5c-12.667 0 -26.334 -1 -41.001 -3z" />
    <glyph glyph-name="m" unicode="m" horiz-adv-x="1480" 
d="M32 693c36 10 69.166 18.5049 99.499 25.5049s57 12.833 80 17.5s41.833 8 56.5 10s24.334 3 29.001 3c20 0 31 -12 33 -36l3 -43c30 12 59.833 23.167 89.5 33.5s58 19.166 85 26.499s52 13.166 75 17.499s42.5 6.5 58.5 6.5c44 0 80.167 -8.16699 108.5 -24.5
s50.166 -39.5 65.499 -69.5c70.667 32 134.5 55.667 191.5 71s104.5 23 142.5 23s70.667 -6 98 -18s49.666 -28.667 66.999 -50s30.166 -47.166 38.499 -77.499s12.5 -63.833 12.5 -100.5l-5 -481c0 -16 -8 -25.333 -24 -28c-10.667 -2 -22.5 -3.83301 -35.5 -5.5
s-25.667 -3 -38 -4s-23.666 -1.66699 -33.999 -2s-17.833 -0.5 -22.5 -0.5c-16 0 -24 8.33301 -24 25l5 398v15c0 36 -2.83301 67.5 -8.5 94.5s-15.167 49.667 -28.5 68s-30.833 32.166 -52.5 41.499s-48.5 14 -80.5 14c-5.33301 0 -13.666 -0.833008 -24.999 -2.5
s-24.833 -4.33398 -40.5 -8.00098s-33.167 -8.83398 -52.5 -15.501s-39.333 -15 -60 -25c6.66699 -24 10 -55.333 10 -94l-5 -471c0 -16 -8 -25.333 -24 -28c-10.667 -2 -22.5 -3.83301 -35.5 -5.5s-25.667 -3 -38 -4s-23.666 -1.66699 -33.999 -2s-17.833 -0.5 -22.5 -0.5
c-16 0 -24 8.33301 -24 25l5 398v15c0 71.333 -12 125.666 -36 162.999s-66 56 -126 56c-11.333 0 -32.833 -3.33301 -64.5 -10s-68.834 -19.667 -111.501 -39v-568c0 -16 -8 -25.333 -24 -28c-10.667 -2 -22.5 -3.83301 -35.5 -5.5s-25.667 -3 -38 -4
s-23.666 -1.66699 -33.999 -2s-17.833 -0.5 -22.5 -0.5c-16 0 -24 8.33301 -24 25v545c0 35.333 -5.66699 59.5 -17 72.5s-29.333 19.5 -54 19.5c-6.66699 0 -13.5 -0.166992 -20.5 -0.5s-15.5 -1.5 -25.5 -3.5z" />
    <glyph glyph-name="n" unicode="n" horiz-adv-x="979" 
d="M32 693c36 10 69.1631 18.499 99.4961 25.499s57 12.833 80 17.5s41.833 8 56.5 10s24.334 3 29.001 3c20 0 31 -12 33 -36l3 -42c30.667 11.333 61.5 22 92.5 32s60.5 18.833 88.5 26.5s53.667 13.667 77 18s43 6.5 59 6.5c38 0 70.5 -6 97.5 -18
s49.167 -28.667 66.5 -50s30 -47.166 38 -77.499s12 -63.833 12 -100.5l-5 -481c0 -16 -8 -25.333 -24 -28c-10.667 -2 -22.5 -3.83301 -35.5 -5.5s-25.667 -3 -38 -4s-23.666 -1.66699 -33.999 -2s-17.833 -0.5 -22.5 -0.5c-16 0 -24 8.33301 -24 25l5 398v15
c0 36 -2.83301 67.5 -8.5 94.5s-15.167 49.833 -28.5 68.5s-30.666 32.667 -51.999 42s-48 14 -80 14c-12 0 -34.5 -3.33301 -67.5 -10s-71.833 -19.667 -116.5 -39v-568c0 -16 -8 -25.333 -24 -28c-10.667 -2 -22.5 -3.83301 -35.5 -5.5s-25.667 -3 -38 -4
s-23.666 -1.66699 -33.999 -2s-17.833 -0.5 -22.5 -0.5c-16 0 -24 8.33301 -24 25v545c0 35.333 -5.66699 59.5 -17 72.5s-29.333 19.5 -54 19.5c-6.66699 0 -13.5 -0.166992 -20.5 -0.5s-15.5 -1.5 -25.5 -3.5z" />
    <glyph glyph-name="o" unicode="o" horiz-adv-x="910" 
d="M434 -20c-55.333 0 -105.5 9.83203 -150.5 29.499s-83.833 46.5 -116.5 80.5s-57.834 74.167 -75.501 120.5s-26.5 96.166 -26.5 149.499c0 58.667 10.167 112.334 30.5 161.001s48.5 90.167 84.5 124.5s79 61 129 80s105 28.5 165 28.5
c55.333 0 105.833 -9.5 151.5 -28.5s84.667 -45.167 117 -78.5s57.5 -72.666 75.5 -117.999s27 -94.333 27 -147c0 -60 -10 -114.833 -30 -164.5s-48.167 -92 -84.5 -127s-79.666 -62.167 -129.999 -81.5s-105.833 -29 -166.5 -29zM481 67.999
c36 0 65.666 7.83105 88.999 23.498s41.666 35.834 54.999 60.501s22.5 52.334 27.5 83.001s7.5 60.667 7.5 90c0 36 -3.83301 74 -11.5 114s-20.5 76.833 -38.5 110.5s-41.667 61.5 -71 83.5s-65.666 33 -108.999 33c-36 0 -65.667 -7.83301 -89 -23.5
s-41.666 -36 -54.999 -61s-22.666 -52.667 -27.999 -83s-8 -60.5 -8 -90.5c0 -36.667 4 -75 12 -115s21 -76.667 39 -110s41.667 -60.833 71 -82.5s65.666 -32.5 108.999 -32.5z" />
    <glyph glyph-name="p" unicode="p" horiz-adv-x="984" 
d="M155 557c0 35.333 -5.66895 59.502 -17.002 72.502s-29.333 19.5 -54 19.5c-6.66699 0 -13.5 -0.166992 -20.5 -0.5s-15.5 -1.5 -25.5 -3.5l-6 48c36 10 69.167 18.5 99.5 25.5s57 12.833 80 17.5s41.833 8 56.5 10s24.334 3 29.001 3c20 0 31 -12 33 -36l3 -43
l97.5 32.5c32.333 10.333 63 19.333 92 27s55.667 13.667 80 18s44.833 6.5 61.5 6.5c40.667 0 77 -10.833 109 -32.5s59.167 -49.5 81.5 -83.5s39.5 -71.833 51.5 -113.5s18 -82.167 18 -121.5c0 -70 -12.833 -131.333 -38.5 -184s-59.834 -96.834 -102.501 -132.501
s-91.667 -62.334 -147 -80.001s-113 -26.5 -173 -26.5c-21.333 0 -42.666 1.16699 -63.999 3.5s-43.333 5.83301 -66 10.5v-417c0 -16 -8 -25.333 -24 -28c-10.667 -2 -22.5 -3.83301 -35.5 -5.5s-25.667 -3 -38 -4s-23.666 -1.66699 -33.999 -2s-17.833 -0.5 -22.5 -0.5
c-16 0 -24 8.33301 -24 25v995zM332.998 177.002c0 -18 4.50098 -34.001 13.501 -48.001s21.167 -25.667 36.5 -35s33.5 -16.5 54.5 -21.5s43.167 -7.5 66.5 -7.5c162 0 243 83.333 243 250c0 38 -4.5 76.667 -13.5 116s-22.333 75 -40 107s-39.834 58 -66.501 78
s-57.667 30 -93 30c-13.333 0 -38 -3.66699 -74 -11s-78.333 -20.666 -127 -39.999v-418z" />
    <glyph glyph-name="q" unicode="q" horiz-adv-x="954" 
d="M682 730c32 6.66699 57.665 11.5 76.998 14.5s32 4.5 38 4.5c21.333 0 32 -12 32 -36v-1136c0 -16 -8 -25.333 -24 -28c-10.667 -2 -22.5 -3.83301 -35.5 -5.5s-25.667 -3 -38 -4s-23.666 -1.66699 -33.999 -2s-17.833 -0.5 -22.5 -0.5c-16 0 -24 8.33301 -24 25v504
c-30 -11.333 -60.167 -22.166 -90.5 -32.499s-59 -19.5 -86 -27.5s-51.833 -14.333 -74.5 -19s-42 -7 -58 -7c-44 0 -83.5 11 -118.5 33s-64.5 50 -88.5 84s-42.5 71.667 -55.5 113s-19.5 81.666 -19.5 120.999c0 66.667 12 126.167 36 178.5s57 96.666 99 132.999
s91.167 64 147.5 83s116.5 28.5 180.5 28.5c28 0 54.833 -2.16699 80.5 -6.5s51.834 -10.166 78.501 -17.499zM650.998 552c0 22 -5.33008 40.499 -15.9971 55.499s-24.334 27 -41.001 36s-34.834 15.5 -54.501 19.5s-38.834 6 -57.501 6c-43.333 0 -80.333 -6.5 -111 -19.5
s-56 -31.167 -76 -54.5s-34.667 -51.166 -44 -83.499s-14 -67.5 -14 -105.5c0 -32.667 3.83301 -67.5 11.5 -104.5s20.167 -71.167 37.5 -102.5s40 -57.333 68 -78s62.333 -31 103 -31c6 0 15 0.666992 27 2s26.5 3.83301 43.5 7.5s36 8.66699 57 15s43.167 14.5 66.5 24.5
v413z" />
    <glyph glyph-name="r" unicode="r" horiz-adv-x="706" 
d="M32 693c36 10 69.3281 18.5029 99.9951 25.5029s57.834 12.833 81.501 17.5s43 8 58 10s24.833 3 29.5 3c21.333 0 32 -12 32 -36v-51c22.667 12.667 46 24.667 70 36s47.5 21.166 70.5 29.499s45 14.833 66 19.5s39.5 7 55.5 7c18 0 33.833 -3.16699 47.5 -9.5
s25.334 -14.833 35.001 -25.5s16.834 -22.667 21.501 -36s7 -27 7 -41c0 -14.667 -2.5 -28.834 -7.5 -42.501s-12.667 -25.834 -23 -36.501s-23.166 -19.167 -38.499 -25.5s-33.333 -9.5 -54 -9.5h-21c-3.33301 0 -7 0.166992 -11 0.5s-7.66699 0.833008 -11 1.5v22
c0 30.667 -6.16699 52.167 -18.5 64.5s-28.166 18.5 -47.499 18.5c-20 0 -42.5 -4.33301 -67.5 -13s-49.5 -19.667 -73.5 -33v-562c0 -16 -8 -25.333 -24 -28c-11.333 -2 -23.5 -3.83301 -36.5 -5.5s-25.5 -3 -37.5 -4s-23 -1.66699 -33 -2s-17.667 -0.5 -23 -0.5
c-16 0 -24 8.33301 -24 25v545c0 35.333 -5.66699 59.5 -17 72.5s-29 19.5 -53 19.5c-7.33301 0 -14.5 -0.166992 -21.5 -0.5s-15.5 -1.5 -25.5 -3.5z" />
    <glyph glyph-name="s" unicode="s" horiz-adv-x="706" 
d="M555 511c-7.33301 24.667 -14.668 46.998 -22.001 66.998s-16.833 37.167 -28.5 51.5s-26.5 25.333 -44.5 33s-41 11.5 -69 11.5c-17.333 0 -34.666 -1.66699 -51.999 -5s-33 -8.66602 -47 -15.999s-25.333 -17 -34 -29s-13 -27 -13 -45s5 -33.667 15 -47
s23.333 -25.166 40 -35.499s36 -19.833 58 -28.5l68 -26c28 -10 55.667 -21.333 83 -34s51.833 -27.667 73.5 -45s39.334 -37.833 53.001 -61.5s20.5 -51.834 20.5 -84.501c0 -42 -10.833 -78 -32.5 -108s-49.5 -54.5 -83.5 -73.5s-71.5 -33 -112.5 -42
s-80.833 -13.5 -119.5 -13.5c-23.333 0 -49.666 2.5 -78.999 7.5s-56.833 13.167 -82.5 24.5s-47.167 26.333 -64.5 45s-26 41.667 -26 69c0 32.667 11 56.334 33 71.001s50 22 84 22c7.33301 0 13.666 -0.166992 18.999 -0.5s11.666 -1.16602 18.999 -2.49902v-17
c0 -44 10.5 -77.833 31.5 -101.5s55.833 -35.5 104.5 -35.5c18 0 35.167 2 51.5 6s30.666 10 42.999 18s22.333 18.167 30 30.5s11.5 26.833 11.5 43.5c0 20.667 -5.16699 38.167 -15.5 52.5s-24 27 -41 38s-36.5 20.833 -58.5 29.5l-68 27
c-27.333 10 -54.666 21 -81.999 33s-51.833 26.5 -73.5 43.5s-39.334 37.5 -53.001 61.5s-20.5 53 -20.5 87c0 41.333 10.833 76.166 32.5 104.499s49 51.333 82 69s68.833 30.334 107.5 38.001s75 11.5 109 11.5c32.667 0 64.334 -2 95.001 -6s61 -10.667 91 -20
c5.33301 -1.33301 8 -4 8 -8c1.33301 -11.333 2.5 -26.833 3.5 -46.5s1.83301 -39.834 2.5 -60.501s1.16699 -40.167 1.5 -58.5s0.5 -31.833 0.5 -40.5z" />
    <glyph glyph-name="t" unicode="t" horiz-adv-x="614" 
d="M20 707c17.333 1.33301 36.332 2.66699 56.999 4l61 4v154c0 14 1.33301 24.167 4 30.5s8.66699 11.166 18 14.499l39.5 14c13.667 4.66699 26.667 8.83398 39 12.501s23.333 6.66699 33 9s17.167 3.5 22.5 3.5c14.667 0 22 -8.33301 22 -25v-204
c44.667 2 85.834 3.5 123.501 4.5s66.834 1.5 87.501 1.5c5.33301 0 10.166 -1.66699 14.499 -5s6.5 -8.66602 6.5 -15.999v-2l-4 -62l-228 -1v-425c0 -44.667 12 -77.167 36 -97.5s55.333 -30.5 94 -30.5c18 0 38.167 2.16699 60.5 6.5s48.5 12.166 78.5 23.499l21 -61
c-25.333 -11.333 -51.166 -21.833 -77.499 -31.5s-51.5 -18.167 -75.5 -25.5s-45.833 -13 -65.5 -17s-34.834 -6 -45.501 -6c-30 0 -57.5 4.66699 -82.5 14s-46.5 23.333 -64.5 42s-32 41.5 -42 68.5s-15 58.167 -15 93.5v445l-115 -3z" />
    <glyph glyph-name="u" unicode="u" horiz-adv-x="983" 
d="M680 557c0 35.333 -5.66504 59.502 -16.998 72.502s-29 19.5 -53 19.5c-7.33301 0 -14.5 -0.166992 -21.5 -0.5s-15.5 -1.5 -25.5 -3.5l-6 48c36 10 69.333 18.5 100 25.5s57.834 12.833 81.501 17.5s43 8 58 10s24.833 3 29.5 3c21.333 0 32 -12 32 -36v-571
c0 -22.667 1.5 -43.5 4.5 -62.5s6.5 -37.167 10.5 -54.5l1 -6c0 -10 -6.66699 -16.667 -20 -20c-8.66699 -1.33301 -18.5 -2.66602 -29.5 -3.99902l-34 -4c-11.667 -1.33301 -23.334 -2.33301 -35.001 -3s-21.834 -1 -30.501 -1c-7.33301 0 -12.833 2 -16.5 6
s-6.5 10 -8.5 18l-15 56c-31.333 -12 -62.5 -23.333 -93.5 -34s-60.5 -19.834 -88.5 -27.501s-53.667 -13.834 -77 -18.501s-43 -7 -59 -7c-37.333 0 -69.5 6 -96.5 18s-49.167 28.667 -66.5 50s-30.166 47.166 -38.499 77.499s-12.5 63.833 -12.5 100.5l5 331
c0.666992 35.333 -4.83301 59.5 -16.5 72.5s-29.5 19.5 -53.5 19.5c-7.33301 0 -14.5 -0.166992 -21.5 -0.5s-15.5 -1.5 -25.5 -3.5l-6 48c36 10 69.333 18.5 100 25.5s57.834 12.833 81.501 17.5s43 8 58 10s24.833 3 29.5 3c21.333 0 32 -12 32 -36l-5 -389v-15
c0 -36 2.83301 -67.5 8.5 -94.5s15.167 -49.667 28.5 -68s30.666 -32.166 51.999 -41.499s47.666 -14 78.999 -14c10 0 22.167 1.16699 36.5 3.5s29.666 5.66602 45.999 9.99902s33 9.5 50 15.5s33.167 12.333 48.5 19v418z" />
    <glyph glyph-name="v" unicode="v" horiz-adv-x="823" 
d="M650 701c3.33301 8.66699 7.33105 15.167 11.998 19.5s11.667 7.83301 21 10.5c10 2.66699 20.333 5 31 7s21 3.66699 31 5s19.167 2.5 27.5 3.5s14.833 1.5 19.5 1.5c12 0 18 -4 18 -12c0 -4.66699 -1.66699 -10.334 -5 -17.001l-340 -712
c-4.66699 -10.667 -10.334 -16.667 -17.001 -18c-7.33301 -1.33301 -17.166 -2.5 -29.499 -3.5s-21.5 -1.5 -27.5 -1.5c-4 0 -7.66699 1 -11 3s-6.66602 6.33301 -9.99902 13l-249 570c-13.333 31.333 -27.333 52.333 -42 63s-32.334 16 -53.001 16
c-6.66699 0 -13.667 -0.333008 -21 -1s-15 -1.66699 -23 -3l-6 48c27.333 8 55 15.333 83 22s54 12.5 78 17.5s44.333 8.83301 61 11.5s27.334 4 32.001 4c10 0 17.333 -3.16699 22 -9.5s9.33398 -15.166 14.001 -26.499l193 -498h4z" />
    <glyph glyph-name="w" unicode="w" horiz-adv-x="1288" 
d="M1107 701c4.66699 14.667 15.668 24.665 33.001 29.998c10 2.66699 20.333 5 31 7s21 3.66699 31 5s19.167 2.5 27.5 3.5s14.833 1.5 19.5 1.5c7.33301 0 12.166 -1.16699 14.499 -3.5s3.5 -5.16602 3.5 -8.49902s-1.66699 -9 -5 -17l-323 -712
c-5.33301 -11.333 -11 -17.333 -17 -18c-7.33301 -1.33301 -17.5 -2.5 -30.5 -3.5s-22.5 -1.5 -28.5 -1.5c-4 0 -7.83301 1 -11.5 3s-6.83398 6.33301 -9.50098 13l-191 504l-195 -497c-2.66699 -6.66699 -5.33398 -11.167 -8.00098 -13.5s-5.66699 -3.83301 -9 -4.5
s-7.83301 -1.33398 -13.5 -2.00098s-11.5 -1.16699 -17.5 -1.5s-11.667 -0.666016 -17 -0.999023s-9.33301 -0.5 -12 -0.5c-4 0 -7.83301 1 -11.5 3s-6.83398 6.33301 -9.50098 13l-232 571c-13.333 30.667 -27.666 51.334 -42.999 62.001s-33.333 16 -54 16
c-6.66699 0 -13.667 -0.333008 -21 -1s-15 -1.66699 -23 -3l-6 48c27.333 8 55 15.333 83 22s54 12.5 78 17.5s44.333 8.83301 61 11.5s27.334 4 32.001 4c10 0 17.5 -3.16699 22.5 -9.5s9.5 -15.166 13.5 -26.499l178 -498h4l183 488c4 10.667 8 17.167 12 19.5
s8.66699 4.16602 14 5.49902c4.66699 0.666992 10.167 1.33398 16.5 2.00098s12.5 1.16699 18.5 1.5s11.5 0.666016 16.5 0.999023s8.83301 0.5 11.5 0.5c4.66699 0 8.83398 -1 12.501 -3s7.16699 -7.66699 10.5 -17l185 -498h4z" />
    <glyph glyph-name="x" unicode="x" horiz-adv-x="788" 
d="M5 697c27.333 8 54.168 15.1689 80.501 21.502s50.166 11.666 71.499 15.999s39.5 7.66602 54.5 9.99902s24.833 3.5 29.5 3.5c10 0 17.833 -1.66699 23.5 -5s12.167 -10 19.5 -20l157 -229l152 206c5.33301 7.33301 10.5 13.333 15.5 18s12.167 8.33398 21.5 11.001
s20 5.16699 32 7.5s23.667 4.33301 35 6s21.666 3 30.999 4s16.333 1.5 21 1.5c12.667 0 19 -4.66699 19 -14c0 -4.66699 -2.33301 -9.66699 -7 -15l-262 -309l257 -375c3.33301 -5.33301 5 -10.333 5 -15c0 -10 -6.66699 -16 -20 -18
c-5.33301 -1.33301 -11.5 -2.33301 -18.5 -3l-21.5 -2l-45 -5c-14.667 -2 -28.167 -3.33301 -40.5 -4s-21.166 -1 -26.499 -1c-10 0 -18 4.33301 -24 13l-194 281l-179 -245c-5.33301 -7.33301 -10.5 -13.333 -15.5 -18s-12.167 -8.33398 -21.5 -11.001
s-20.333 -5.16699 -33 -7.5s-25 -4.5 -37 -6.5s-23 -3.5 -33 -4.5s-17.333 -1.5 -22 -1.5c-12.667 0 -19 4.66699 -19 14c0 4.66699 2.33301 9.66699 7 15l296 346l-151 220c-18.667 26.667 -36.167 45.167 -52.5 55.5s-34.833 15.5 -55.5 15.5
c-6.66699 0 -13.667 -0.333008 -21 -1s-15 -1.66699 -23 -3z" />
    <glyph glyph-name="y" unicode="y" horiz-adv-x="817" 
d="M650 701c3.33301 8.66699 7.33105 15.1689 11.998 19.502s11.667 7.83301 21 10.5c10 2.66699 20.333 5 31 7s21 3.66699 31 5s19.167 2.5 27.5 3.5s14.833 1.5 19.5 1.5c12 0 18 -4 18 -12c0 -4.66699 -1.66699 -10.334 -5 -17.001l-74.5 -149.5l-77.5 -159
l-76.5 -160.5l-71.5 -154l-62.5 -139.5l-49.5 -116.5c-12 -30 -26 -63 -42 -99s-35.5 -69.5 -58.5 -100.5s-50.167 -56.833 -81.5 -77.5s-68.333 -31 -111 -31c-17.333 0 -33 2.66699 -47 8s-26 12.666 -36 21.999s-17.667 20 -23 32s-8 25 -8 39
c0 10.667 1.83301 21.834 5.5 33.501s9.83398 22.167 18.501 31.5c15.333 -8.66699 30 -14.834 44 -18.501s28.667 -5.5 44 -5.5c18.667 0 37 3 55 9s35.667 16.5 53 31.5s34.833 35.167 52.5 60.5s35.5 57.666 53.5 96.999l58 128l-249 570
c-13.333 31.333 -27.333 52.333 -42 63s-32.334 16 -53.001 16c-6.66699 0 -13.667 -0.333008 -21 -1s-15 -1.66699 -23 -3l-6 48c27.333 8 55 15.333 83 22s54 12.5 78 17.5s44.333 8.83301 61 11.5s27.334 4 32.001 4c10 0 17.333 -3.16699 22 -9.5
s9.33398 -15.166 14.001 -26.499l193 -498h4z" />
    <glyph glyph-name="z" unicode="z" horiz-adv-x="818" 
d="M72 507c0 8.66699 0.498047 22.832 1.49805 42.499s2.16699 40.667 3.5 63s2.83301 44 4.5 65s3.16699 37.5 4.5 49.5c1.33301 5.33301 4.66602 8 9.99902 8c44 -0.666992 80.333 -1.16699 109 -1.5s54 -0.5 76 -0.5h261c22 0 47 0.166992 75 0.5
s63.667 0.833008 107 1.5c4 0 7 -1.66699 9 -5c2.66699 -7.33301 5 -16 7 -26s3 -16.667 3 -20c0 2 -0.666992 -0.333008 -2 -7l-459 -602h255c28 0 51 4 69 12s32.833 19.333 44.5 34s21.334 32.334 29.001 53.001s15.167 43.667 22.5 69l49 -4
c0 -9.33301 -0.5 -24.333 -1.5 -45s-2.16699 -43 -3.5 -67s-2.83301 -47.167 -4.5 -69.5s-3.16699 -39.5 -4.5 -51.5c-1.33301 -5.33301 -4.66602 -8 -9.99902 -8c-44.667 0.666992 -81.667 1.16699 -111 1.5s-55.666 0.5 -78.999 0.5h-275
c-22.667 -0 -48.667 -0.166992 -78 -0.5s-66.333 -0.833008 -111 -1.5c-3.33301 0 -6 2.33301 -8 7c-2.66699 8 -5 17.333 -7 28s-3 18 -3 22c0 2 1 4.66699 3 8l451 595h-233c-27.333 0 -49.333 -3.5 -66 -10.5s-30.5 -17 -41.5 -30s-19.833 -29.167 -26.5 -48.5
s-13.667 -41.333 -21 -66z" />
    <glyph glyph-name="braceleft" unicode="{" horiz-adv-x="643" 
d="M120 514l137.001 0.00488281c-2 60 -5.66699 118.667 -11 176s-12.333 114.333 -21 171s-18.667 113.334 -30 170.001s-24 114.667 -38 174c24 2.66699 49.667 7.16699 77 13.5s53.833 16.166 79.5 29.499s49.5 31.166 71.5 53.499s40 51.166 54 86.499h17
c4.66699 -12.667 7.83398 -25.334 9.50098 -38.001s2.5 -25.334 2.5 -38.001c0 -29.333 -4.83301 -57.333 -14.5 -84s-24 -50.667 -43 -72s-43 -39 -72 -53s-62.5 -23 -100.5 -27c28 -111.333 49.167 -220 63.5 -326s21.5 -212 21.5 -318
c0 -104.667 -7.16699 -212 -21.5 -322s-35.5 -220.667 -63.5 -332c38 -4 71.5 -13.167 100.5 -27.5s53 -32 72 -53s33.333 -45 43 -72s14.5 -54.833 14.5 -83.5c0 -12.667 -0.833008 -25.334 -2.5 -38.001s-4.83398 -25.334 -9.50098 -38.001h-17
c-17.333 34.667 -37.333 63.334 -60 86.001s-46.334 40.667 -71.001 54s-50 23.166 -76 29.499s-51 10.833 -75 13.5c28 117.333 50.667 233.333 68 348s28 232.334 32 353.001h-137v164z" />
    <glyph glyph-name="bar" unicode="|" horiz-adv-x="188" 
d="M50 -485v1819l88 7v-1819z" />
    <glyph glyph-name="braceright" unicode="}" horiz-adv-x="623" 
d="M523 350l-136.999 -0.00488281c4 -120.667 14.5 -238.334 31.5 -353.001s39.833 -230.667 68.5 -348c-24 -2.66699 -49 -7.16699 -75 -13.5s-51.5 -16.166 -76.5 -29.499s-48.833 -31.333 -71.5 -54s-42.334 -51.334 -59.001 -86.001h-17
c-4.66699 12.667 -7.83398 25.334 -9.50098 38.001s-2.5 25.334 -2.5 38.001c0 28.667 4.83301 56.5 14.5 83.5s24 51 43 72s43 38.667 72 53s62.5 23.5 100.5 27.5c-28 111.333 -49.167 222 -63.5 332s-21.5 217.333 -21.5 322c0 106 7.16699 212 21.5 318
s35.5 214.667 63.5 326c-38 4 -71.5 13 -100.5 27s-53 31.667 -72 53s-33.333 45.333 -43 72s-14.5 54.667 -14.5 84c0 12.667 0.833008 25.334 2.5 38.001s4.83398 25.334 9.50098 38.001h17c14 -35.333 32 -64.166 54 -86.499s45.833 -40.166 71.5 -53.499
s52.167 -23.166 79.5 -29.499s53 -10.833 77 -13.5c-14 -59.333 -26.667 -117.333 -38 -174s-21.333 -113.334 -30 -170.001s-15.667 -113.667 -21 -171s-9 -116 -11 -176h137v-164z" />
    <glyph glyph-name="asciitilde" unicode="~" horiz-adv-x="805" 
d="M763 444l-6.99414 -74c-30.667 -28 -60.834 -46.5 -90.501 -55.5s-57.834 -13.5 -84.501 -13.5c-32 0 -63.333 5.5 -94 16.5s-61.334 23 -92.001 36s-61.334 25 -92.001 36s-62 16.5 -94 16.5c-25.333 0 -50.333 -5.33301 -75 -16s-52 -28.667 -82 -54h-7l-5 77
c30.667 26.667 60 45.167 88 55.5s56 15.5 84 15.5c33.333 0 65.666 -5.33301 96.999 -16s62.5 -22.5 93.5 -35.5s62.167 -24.833 93.5 -35.5s63.666 -16 96.999 -16c26 0 52.333 4.83301 79 14.5s55 26.5 85 50.5z" />
    <glyph glyph-name="exclamdown" unicode="&#xa1;" horiz-adv-x="468" 
d="M125 -454c-6.66699 0 -12.332 1.66602 -16.999 4.99902s-7 8.33301 -7 15v5l77 813c0.666992 7.33301 2.16699 12.166 4.5 14.499s6.5 3.83301 12.5 4.5l46 3c7.33301 0.666992 12.166 -0.166016 14.499 -2.49902s3.83301 -7.16602 4.5 -14.499l39 -803v-3
c0 -14 -8 -22.333 -24 -25c-12 -2 -25.5 -3.83301 -40.5 -5.5s-29.667 -3 -44 -4s-27.5 -1.66699 -39.5 -2s-20.667 -0.5 -26 -0.5zM115.002 647.999c0 36 10 62.667 30 80s49 26 87 26c30.667 0 54.334 -9.66699 71.001 -29s25 -45 25 -77c0 -38 -10.333 -65.333 -31 -82
s-49.334 -25 -86.001 -25c-32 0 -56 9.33301 -72 28s-24 45 -24 79z" />
    <glyph glyph-name="cent" unicode="&#xa2;" horiz-adv-x="796" 
d="M484 819c8 0.666992 15.833 1.16797 23.5 1.50098s15.5 0.5 23.5 0.5c26 0 51.833 -2.16699 77.5 -6.5s48.667 -11.5 69 -21.5s37 -23.667 50 -41s19.5 -39 19.5 -65c0 -33.333 -11.667 -57.333 -35 -72s-52.333 -22 -87 -22h-16c-1.33301 0 -3.5 0.166992 -6.5 0.5
s-6.16699 0.833008 -9.5 1.5v18c0 17.333 -1.16699 33.166 -3.5 47.499s-7.33301 27 -15 38s-18.667 19.833 -33 26.5s-33.5 11 -57.5 13l-2 -527c10 -1.33301 20.5 -2.33301 31.5 -3s22.5 -1 34.5 -1c13.333 0 28.5 1 45.5 3s34.5 4.66699 52.5 8s35.667 7 53 11
s33 8.33301 47 13l20 -51c-22.667 -10 -46.5 -19.5 -71.5 -28.5s-50 -17.167 -75 -24.5s-49.333 -13.833 -73 -19.5s-45.5 -10.167 -65.5 -13.5v-173l-70 -15l-1 180h-2c-49.333 0 -94.166 8.66699 -134.499 26s-74.833 41.166 -103.5 71.499s-50.834 65.833 -66.501 106.5
s-23.5 84.334 -23.5 131.001c0 51.333 8.33301 98 25 140s39.667 78.833 69 110.5s64 58.167 104 79.5s83.333 37 130 47v181l77 9zM247 498.001c0 -68.667 13 -125.667 39 -171s67.333 -78 124 -98l-2 504c-27.333 -6 -51 -16.167 -71 -30.5s-36.667 -31.833 -50 -52.5
s-23.333 -44 -30 -70s-10 -53.333 -10 -82z" />
    <glyph glyph-name="sterling" unicode="&#xa3;" horiz-adv-x="943" 
d="M62 65c30.667 10 56.165 22.1729 76.498 36.5059s36.666 30.666 48.999 48.999s21 38.5 26 60.5s7.5 45.667 7.5 71c0 23.333 -1.5 47.666 -4.5 72.999l-9.5 78l-115 -3l-3 67c16 1.33301 33.333 2.5 52 3.5s37.334 2.16699 56.001 3.5c-4 32.667 -6 66.334 -6 101.001
c0 59.333 8.83301 113.5 26.5 162.5s43.5 91 77.5 126s75.833 62 125.5 81s106.167 28.5 169.5 28.5c21.333 0 44.666 -2 69.999 -6s49 -11.333 71 -22s40.333 -24.834 55 -42.501s22 -39.834 22 -66.501c0 -18.667 -3.16699 -34.334 -9.5 -47.001s-14.833 -23 -25.5 -31
s-23.167 -13.833 -37.5 -17.5s-29.833 -5.5 -46.5 -5.5h-14c-1.33301 0 -3.16602 0.166992 -5.49902 0.5s-5.16602 0.833008 -8.49902 1.5v31c0 18 -1.83301 34.833 -5.5 50.5s-9.83398 29.167 -18.501 40.5s-20.334 20.166 -35.001 26.499s-33 9.5 -55 9.5
c-38.667 0 -69.834 -5.33301 -93.501 -16s-42.167 -25.334 -55.5 -44.001s-22.333 -41 -27 -67s-7 -54.333 -7 -85c0 -30 1.83301 -61.667 5.5 -95s6.5 -68 8.5 -104l68.5 2l68.5 2c22 0.666992 42 1.16699 60 1.5s32 0.5 42 0.5c5.33301 0 10.333 -1.83301 15 -5.5
s6.66699 -9.5 6 -17.5l-4 -62l-254 -1c-2 -54 -11.5 -105 -28.5 -153s-45.5 -93 -85.5 -135h362c28.667 0 51.667 2 69 6s31.5 11.5 42.5 22.5s20.333 26.167 28 45.5s15.834 44.333 24.501 75l46 -4c0 -6 -0.5 -16.167 -1.5 -30.5l-3.5 -49
c-1.33301 -18.333 -2.66602 -38 -3.99902 -59s-2.83301 -41 -4.5 -60l-4.5 -51.5l-3 -35c-1.33301 -5.33301 -4.66602 -8 -9.99902 -8c-44.667 0.666992 -81.667 1.16699 -111 1.5s-55.666 0.5 -78.999 0.5h-137l-406 -1z" />
    <glyph glyph-name="currency" unicode="&#xa4;" horiz-adv-x="931" 
d="M186 233c-25.333 30.667 -45 64.999 -59 102.999s-21 78.333 -21 121c0 40 6.16699 78.167 18.5 114.5s29.833 69.5 52.5 99.5l-107 107l58 66l111 -111c30.667 24.667 65 43.834 103 57.501s79 20.5 123 20.5c42 0 81.833 -6.5 119.5 -19.5
s71.834 -31.167 102.501 -54.5l106 107l68 -59l-112 -111c24 -30 42.5 -63.167 55.5 -99.5s19.5 -75.5 19.5 -117.5c0 -44 -7.33301 -85 -22 -123s-35 -73 -61 -105l118 -116l-72 -46l-107 106c-30 -21.333 -63.167 -38 -99.5 -50s-74.833 -18 -115.5 -18
c-42 0 -81.833 6.33301 -119.5 19s-71.834 30.667 -102.501 54l-117 -118l-55 60zM211 455.999c0 -36 6.16699 -70 18.5 -102s29.666 -60.167 51.999 -84.5s49.166 -43.5 80.499 -57.5s65.666 -21 102.999 -21c38.667 0 73.667 7 105 21s58.166 33.167 80.499 57.5
s39.666 52.5 51.999 84.5s18.5 66 18.5 102s-6.16699 70.333 -18.5 103s-29.666 61.167 -51.999 85.5s-49.166 43.666 -80.499 57.999s-66.333 21.5 -105 21.5c-37.333 0 -71.666 -7.16699 -102.999 -21.5s-58.166 -33.666 -80.499 -57.999s-39.666 -52.833 -51.999 -85.5
s-18.5 -67 -18.5 -103z" />
    <glyph glyph-name="yen" unicode="&#xa5;" horiz-adv-x="958" 
d="M362 490l-214.001 353.997c-16.667 28 -32 47.667 -46 59s-31 17 -51 17c-17.333 0 -30.333 -1.33301 -39 -4l-6 51c27.333 6 54.333 11.167 81 15.5s50.834 7.83301 72.501 10.5s40 4.66699 55 6s24.5 2 28.5 2c9.33301 0 16.833 -3.16699 22.5 -9.5
s11.5 -14.5 17.5 -24.5l249 -422l205 405c4 7.33301 8 13.333 12 18s10.333 8.33398 19 11.001c9.33301 2.66699 19.5 4.83398 30.5 6.50098s21.667 2.83398 32 3.50098s19.833 1.16699 28.5 1.5s15 0.5 19 0.5c12 0 18 -4.33301 18 -13c0 -4 -1.66699 -8.66699 -5 -14
l-301 -474h231l-15 -72l-238 -2v-112h253l-15 -72l-238 -2v-205c0 -15.333 -7.66699 -24 -23 -26c-10.667 -2 -22.667 -3.83301 -36 -5.5s-26.333 -3 -39 -4s-24.167 -1.66699 -34.5 -2s-17.833 -0.5 -22.5 -0.5c-15.333 0 -23 8 -23 24v218l-240 -1l-5 76h245v111l-240 -1
l-5 76h217z" />
    <glyph glyph-name="brokenbar" unicode="&#xa6;" horiz-adv-x="528" 
d="M220 -30v520l88 7v-520zM220 660v520l88 7v-520z" />
    <glyph glyph-name="section" unicode="&#xa7;" horiz-adv-x="932" 
d="M60 484c0 26.667 3.99609 51.3252 11.9961 73.9922s19 43.334 33 62.001s30.333 35.334 49 50.001s39 27.334 61 38.001c-34 23.333 -61.167 51.666 -81.5 84.999s-30.5 75.333 -30.5 126c0 50 10 92 30 126s46 61.5 78 82.5s68 36 108 45s80 13.5 120 13.5
c24 0 52.333 -1.83301 85 -5.5s63.5 -11 92.5 -22s53.667 -26.667 74 -47s30.5 -46.833 30.5 -79.5c0 -14.667 -3.33301 -27.5 -10 -38.5s-15.334 -20 -26.001 -27s-22.667 -12.333 -36 -16s-27 -5.5 -41 -5.5c-19.333 0 -33.333 1.33301 -42 4v28
c0 23.333 -4 43.666 -12 60.999s-18.833 31.833 -32.5 43.5s-29.334 20.334 -47.001 26.001s-36.5 8.5 -56.5 8.5c-22 0 -43.833 -3 -65.5 -9s-40.834 -15.167 -57.501 -27.5s-30.167 -28.166 -40.5 -47.499s-15.5 -42 -15.5 -68c0 -32.667 7.33301 -60.334 22 -83.001
s34 -42.167 58 -58.5s51.5 -30.666 82.5 -42.999l95.5 -36.5c34.667 -12.667 69.167 -26.334 103.5 -41.001s64.833 -32.334 91.5 -53.001s48.334 -45.5 65.001 -74.5s25 -64.5 25 -106.5c0 -56 -13.667 -103.333 -41 -142s-62 -70 -104 -94c30 -22 54 -48.5 72 -79.5
s27 -69.833 27 -116.5c0 -53.333 -10.667 -98.666 -32 -135.999s-49.166 -67.666 -83.499 -90.999s-73.5 -40.166 -117.5 -50.499s-88.333 -15.5 -133 -15.5c-15.333 0 -33 0.833008 -53 2.5s-40.667 4.83398 -62 9.50098s-42 11.167 -62 19.5s-38 18.833 -54 31.5
s-28.833 28.334 -38.5 47.001s-14.5 40.334 -14.5 65.001c0 15.333 3.16699 28.666 9.5 39.999s14.833 20.833 25.5 28.5s22.834 13.334 36.501 17.001s27.834 5.5 42.501 5.5c14 0 28 -1 42 -3v-30c0 -52.667 14.5 -92.834 43.5 -120.501s68.833 -41.5 119.5 -41.5
c26.667 0 51.834 4.16699 75.501 12.5s44 20.166 61 35.499s30.5 34 40.5 56s15 47 15 75c0 30 -7 55.333 -21 76s-32.5 38.667 -55.5 54s-49.333 28.833 -79 40.5s-60.5 23.167 -92.5 34.5c-35.333 12.667 -70.166 26.334 -104.499 41.001s-65.166 32.834 -92.499 54.501
s-49.5 47.834 -66.5 78.501s-25.5 68 -25.5 112zM193.996 552.991c0 -26.667 4.49902 -50.168 13.499 -70.501s21.333 -38.333 37 -54s34 -29.5 55 -41.5s43.5 -23 67.5 -33c34 -14.667 69.667 -28.5 107 -41.5s73 -28.167 107 -45.5
c20.667 15.333 37.334 34.166 50.001 56.499s19 48.833 19 79.5c0 24 -4.16699 45.333 -12.5 64s-20 35.334 -35 50.001s-32.5 27.667 -52.5 39s-41.667 22 -65 32c-34 14.667 -70 28.834 -108 42.501s-74.333 29.167 -109 46.5c-21.333 -12 -39 -28.167 -53 -48.5
s-21 -45.5 -21 -75.5z" />
    <glyph glyph-name="dieresis" unicode="&#xa8;" horiz-adv-x="500" 
d="M185 1057c0 -34 -9.33203 -59 -27.999 -75s-45 -24 -79 -24c-28.667 0 -50.834 9 -66.501 27s-23.5 42 -23.5 72c0 34 9.66699 58.667 29 74s46 23 80 23c28.667 0 50.5 -8.66699 65.5 -26s22.5 -41 22.5 -71zM512.001 1057c0 -34 -9.33203 -59 -27.999 -75
s-45 -24 -79 -24c-28.667 0 -50.834 9 -66.501 27s-23.5 42 -23.5 72c0 34 9.66699 58.667 29 74s46 23 80 23c28.667 0 50.5 -8.66699 65.5 -26s22.5 -41 22.5 -71z" />
    <glyph glyph-name="copyright" unicode="&#xa9;" horiz-adv-x="1439" 
d="M723 1198c176 0 322.669 -58 440.002 -174s176 -263.333 176 -442c0 -170 -58.667 -312.667 -176 -428c-116.667 -114.667 -264.334 -172 -443.001 -172c-179.333 0 -327.333 57.333 -444 172c-117.333 115.333 -176 259.333 -176 432c0 178 59.333 324.333 178 439
c119.333 115.333 267.666 173 444.999 173zM721.002 1130c-159.333 0 -288.333 -51 -387 -153c-98.667 -100.667 -148 -229.667 -148 -387c0 -158 49.667 -287.667 149 -389c98.667 -100.667 228 -151 388 -151c156 0 283.667 50 383 150
c98.667 100.667 148 230.667 148 390s-50 289 -150 389c-100 100.667 -227.667 151 -383 151zM1005 328c-21.333 -14.667 -44.4961 -27.002 -69.4961 -37.002s-49.5 -18 -73.5 -24s-46.5 -10.333 -67.5 -13s-38.167 -4 -51.5 -4c-56.667 0 -108.167 8.66699 -154.5 26
s-86 41.5 -119 72.5s-58.667 67.833 -77 110.5s-27.5 89 -27.5 139c0 54.667 10.167 103 30.5 145s48.5 77.333 84.5 106s78.5 50.334 127.5 65.001s102.167 22 159.5 22c32.667 0 63.667 -2.5 93 -7.5s58 -11.167 86 -18.5c9.33301 -4 14.666 -10 15.999 -18
c0.666992 -8.66699 1.66699 -23.334 3 -44.001l3 -58c1.33301 -19.333 2.16602 -36.833 2.49902 -52.5s0.5 -25.167 0.5 -28.5l-38 -4c-2 31.333 -8.66699 57.833 -20 79.5s-25.333 39.334 -42 53.001s-35 23.5 -55 29.5s-40 9 -60 9c-40 0 -74.833 -6.33301 -104.5 -19
s-54.334 -30.167 -74.001 -52.5s-34.334 -48.833 -44.001 -79.5s-14.5 -64 -14.5 -100c0 -42 6.16699 -81.167 18.5 -117.5s30.833 -67.833 55.5 -94.5s55.5 -47.5 92.5 -62.5s80.167 -22.5 129.5 -22.5c30 0 58.667 4.33301 86 13s55 20.334 83 35.001z" />
    <glyph glyph-name="ordfeminine" unicode="&#xaa;" horiz-adv-x="645" 
d="M84 1121c27.333 10.667 54.332 20.168 80.999 28.501s51.834 15.5 75.501 21.5s45.167 10.5 64.5 13.5s35.333 4.5 48 4.5c38 0 70.167 -4.16699 96.5 -12.5s47.5 -21.333 63.5 -39s27.333 -40.334 34 -68.001s9.66699 -60.834 9 -99.501l-4 -244
c-0.666992 -15.333 0.333008 -29.5 3 -42.5s5.66699 -26.167 9 -39.5c0.666992 -0.666992 1 -2.66699 1 -6c0 -7.33301 -5.66699 -12 -17 -14c-7.33301 -1.33301 -15.5 -2.5 -24.5 -3.5s-18.5 -2 -28.5 -3s-19.667 -1.66699 -29 -2s-18 -0.5 -26 -0.5
c-11.333 0 -18.333 6 -21 18l-11 36c-20 -8 -40.333 -15.667 -61 -23s-40.167 -13.666 -58.5 -18.999s-35.333 -9.5 -51 -12.5s-28.5 -4.5 -38.5 -4.5c-27.333 0 -51 4.83301 -71 14.5s-36.5 22 -49.5 37s-22.667 31.333 -29 49s-9.5 34.5 -9.5 50.5c0 28 5.33301 52 16 72
s24.667 36.667 42 50c32.667 23.333 75.167 38.833 127.5 46.5s111.833 12.5 178.5 14.5l1 24c1.33301 44 -6.16699 77.833 -22.5 101.5s-46.833 35.5 -91.5 35.5c-28 0 -57.167 -3 -87.5 -9s-64.5 -14.667 -102.5 -26zM402.999 887.001
c-22.667 -1.33301 -43.998 -2.49902 -63.998 -3.49902s-38.167 -2.83301 -54.5 -5.5s-30.833 -6.5 -43.5 -11.5s-23 -11.833 -31 -20.5c-5.33301 -7.33301 -10 -15.833 -14 -25.5s-6 -20.5 -6 -32.5c0 -10 1.5 -20.167 4.5 -30.5s8.5 -20 16.5 -29s18.667 -16.333 32 -22
s30.666 -8.5 51.999 -8.5c5.33301 0 18.166 2.16699 38.499 6.5s42.833 12.166 67.5 23.499z" />
    <glyph glyph-name="guillemotleft" unicode="&#xab;" horiz-adv-x="712" 
d="M90 531c20.667 2.66699 41.667 7.33203 63 13.999s41.5 17 60.5 31s36.833 32.833 53.5 56.5s31 53.834 43 90.501h16c7.33301 -29.333 11 -56.333 11 -81c0 -30 -4.66699 -59.167 -14 -87.5s-23 -53.833 -41 -76.5s-40.667 -41.667 -68 -57s-59 -25 -95 -29v-40
c36 -4.66699 67.667 -14.5 95 -29.5s50 -33.833 68 -56.5s31.667 -48 41 -76s14 -57.333 14 -88c0 -24.667 -3.66699 -51.667 -11 -81h-16c-14 37.333 -29.667 67.833 -47 91.5s-35.5 42.5 -54.5 56.5s-38.5 24.167 -58.5 30.5s-40 10.833 -60 13.5v318zM385 530.998
c20.667 2.66699 41.667 7.33203 63 13.999s41.5 17 60.5 31s36.833 32.833 53.5 56.5s31 53.834 43 90.501h16c7.33301 -29.333 11 -56.333 11 -81c0 -30 -4.66699 -59.167 -14 -87.5s-23 -53.833 -41 -76.5s-40.667 -41.667 -68 -57s-59 -25 -95 -29v-40
c36 -4.66699 67.667 -14.5 95 -29.5s50 -33.833 68 -56.5s31.667 -48 41 -76s14 -57.333 14 -88c0 -24.667 -3.66699 -51.667 -11 -81h-16c-14 37.333 -29.667 67.833 -47 91.5s-35.5 42.5 -54.5 56.5s-38.5 24.167 -58.5 30.5s-40 10.833 -60 13.5v318z" />
    <glyph glyph-name="logicalnot" unicode="&#xac;" horiz-adv-x="805" 
d="M765 429l-3 -400l-71 10l-2 317l-644 -3l-5 76h725z" />
    <glyph glyph-name="registered" unicode="&#xae;" horiz-adv-x="850" 
d="M437 1200c105.333 0 190.668 -30.666 256.001 -91.999c64.667 -60.667 97 -144.334 97 -251.001c0 -108 -33 -194 -99 -258c-65.333 -63.333 -152 -95 -260 -95c-104.667 0 -189.667 31.667 -255 95c-64 64 -96 149 -96 255c0 104 33.667 187.667 101 251
c69.333 63.333 154.666 95 255.999 95zM432.002 1151c-83.333 0 -151.334 -26.333 -204.001 -79c-52 -53.333 -78 -125.666 -78 -216.999c0 -93.333 26 -167 78 -221s120.667 -81 206 -81c43.333 0 82.5 6.5 117.5 19.5s65 32.333 90 58s44.167 57.167 57.5 94.5
s20 80.666 20 129.999c0 91.333 -26.333 163.333 -79 216c-53.333 53.333 -122.666 80 -207.999 80zM399.001 865.001c36 1.33301 60.833 7.33301 74.5 18s20.5 30 20.5 58c0 22.667 -7.16699 39.167 -21.5 49.5s-33.166 15.5 -56.499 15.5c-11.333 0 -19.5 -1 -24.5 -3
s-7.5 -6.66699 -7.5 -14v-296c0 -8 -3.66699 -12.667 -11 -14c-10.667 -1.33301 -22.667 -2.5 -36 -3.5s-22.666 -1.5 -27.999 -1.5c-6.66699 0 -10 3.66699 -10 11v276c0 15.333 -3.33301 25.666 -10 30.999s-15.667 8 -27 8h-10c-5.33301 0 -8.33301 -0.333008 -9 -1
l-3 25c30.667 5.33301 62.167 9.66602 94.5 12.999s64.833 5 97.5 5c16 0 33.167 -0.833008 51.5 -2.5s35 -5.5 50 -11.5s27.5 -14.667 37.5 -26s15 -26.333 15 -45c0 -26.667 -8 -47.667 -24 -63s-38 -27 -66 -35v-3c11.333 -3.33301 20.833 -7.33301 28.5 -12
s14.167 -10.5 19.5 -17.5s9.83301 -15.333 13.5 -25s7.5 -21.167 11.5 -34.5c4.66699 -14.667 8.83398 -26.167 12.501 -34.5s7.66699 -14.666 12 -18.999s9.33301 -7.16602 15 -8.49902s12.5 -2 20.5 -2l1 -25c-11.333 -2 -24.5 -3.66699 -39.5 -5s-25.167 -2 -30.5 -2
c-19.333 0 -34.333 5 -45 15s-19.334 29.333 -26.001 58c-4 16 -7.83301 30.167 -11.5 42.5s-8.33398 22.5 -14.001 30.5s-13.334 14 -23.001 18s-22.5 5.33301 -38.5 4z" />
    <glyph glyph-name="macron" unicode="&#xaf;" horiz-adv-x="500" 
d="M-6 1037h513l-5 -82l-503 -4z" />
    <glyph glyph-name="macron" unicode="&#x2c9;" horiz-adv-x="500" 
d="M-6 1037h513l-5 -82l-503 -4z" />
    <glyph glyph-name="degree" unicode="&#xb0;" horiz-adv-x="570" 
d="M50 780c0 30.667 5.83301 59.334 17.5 86.001s27.5 50 47.5 70s43.667 35.833 71 47.5s57 17.5 89 17.5s61.667 -5.83301 89 -17.5s51 -27.5 71 -47.5s35.833 -43.333 47.5 -70s17.5 -55.334 17.5 -86.001s-5.83301 -59.334 -17.5 -86.001s-27.5 -50 -47.5 -70
s-43.667 -35.833 -71 -47.5s-57 -17.5 -89 -17.5s-61.667 5.83301 -89 17.5s-51 27.5 -71 47.5s-35.833 43.333 -47.5 70s-17.5 55.334 -17.5 86.001zM124 779c0 -21.333 3.66699 -41.5 11 -60.5s17.666 -35.667 30.999 -50s29.166 -25.666 47.499 -33.999
s38.833 -12.5 61.5 -12.5s43.167 4.16699 61.5 12.5s34.166 19.666 47.499 33.999s23.666 31 30.999 50s11 39.167 11 60.5s-3.66699 41.666 -11 60.999s-17.666 36.166 -30.999 50.499s-29.166 25.833 -47.499 34.5s-38.833 13 -61.5 13s-43.167 -4.33301 -61.5 -13
s-34.166 -20.167 -47.499 -34.5s-23.666 -31.166 -30.999 -50.499s-11 -39.666 -11 -60.999z" />
    <glyph glyph-name="plusminus" unicode="&#xb1;" horiz-adv-x="805" 
d="M364 425l-319 -2l-5 76h323l-1 250l78 5l-2 -255h327l-15 -72l-312 -2l-2 -256l-71 10zM45 23l-5 76h725l-15 -72z" />
    <glyph glyph-name="twosuperior" unicode="&#xb2;" horiz-adv-x="663" 
d="M46 502c62 28.667 114.332 57.3311 156.999 85.998s77.167 57 103.5 85s45.5 55 57.5 81s18 50.333 18 73c0 30 -8.5 55.5 -25.5 76.5s-44.167 31.5 -81.5 31.5c-40 0 -73.333 -14.667 -100 -44s-43.667 -72.333 -51 -129l-42 4c0 3.33301 0.166992 12.5 0.5 27.5
s1 32 2 51l3 56.5c1 18.667 2.16699 33.667 3.5 45c1.33301 9.33301 7 15.333 17 18c26.667 8.66699 56.834 16.834 90.501 24.501s69.5 11.5 107.5 11.5c81.333 0 140.833 -12.167 178.5 -36.5s56.5 -55.833 56.5 -94.5c0 -24.667 -6.33301 -51 -19 -79
s-33.167 -56.667 -61.5 -86s-65 -59.5 -110 -90.5s-99.833 -61.833 -164.5 -92.5h209c22.667 0 41 1.66699 55 5s25.333 9.5 34 18.5s16 21.5 22 37.5s12.667 37 20 63l37 -4c0 -7.33301 -0.5 -21.5 -1.5 -42.5s-2.33301 -43.833 -4 -68.5l-5 -70.5
c-1.66699 -22.333 -3.16699 -38.166 -4.5 -47.499c-1.33301 -4 -4 -6 -8 -6c-36 0 -66 0.166992 -90 0.5s-45.333 0.5 -64 0.5h-329z" />
    <glyph glyph-name="threesuperior" unicode="&#xb3;" horiz-adv-x="634" 
d="M156 603c-0.666992 -3.33301 -1.16504 -6.83105 -1.49805 -10.498s-0.5 -7.5 -0.5 -11.5c0 -40.667 11.833 -71.5 35.5 -92.5s56.5 -31.5 98.5 -31.5c44 0 78.5 10.167 103.5 30.5s37.5 46.5 37.5 78.5c0 22.667 -5.33301 41.5 -16 56.5s-25.334 26.833 -44.001 35.5
s-40.834 14.667 -66.501 18s-53.167 5 -82.5 5h-15l-7 53h11c62.667 0 110.167 8.33301 142.5 25s48.5 43.334 48.5 80.001c0 32.667 -12 57.167 -36 73.5s-55 24.5 -93 24.5c-19.333 0 -37.166 -2.5 -53.499 -7.5s-31 -13.167 -44 -24.5s-23.833 -26.833 -32.5 -46.5
s-15 -43.834 -19 -72.501l-41 4c0 3.33301 0.166992 11.666 0.5 24.999s0.833008 28.333 1.5 45s1.5 33.5 2.5 50.5s2.16699 31.167 3.5 42.5c1.33301 8 7 13.667 17 17c25.333 8 55 15 89 21s69.333 9 106 9c32 0 63.333 -2 94 -6s58 -11 82 -21s43.167 -23.333 57.5 -40
s21.5 -38 21.5 -64c0 -14.667 -2.16699 -29 -6.5 -43s-12.333 -27.167 -24 -39.5s-27.334 -23.333 -47.001 -33s-44.5 -17.5 -74.5 -23.5v-3c14.667 -1.33301 32.5 -4.83301 53.5 -10.5s41.167 -14.5 60.5 -26.5s36 -27.5 50 -46.5s21 -42.5 21 -70.5
c0 -31.333 -9 -58.5 -27 -81.5s-41.333 -42 -70 -57s-61.334 -26.167 -98.001 -33.5s-73.334 -11 -110.001 -11c-30.667 0 -61.167 2.83301 -91.5 8.5s-57.666 14.167 -81.999 25.5s-44.166 26 -59.499 44s-23 39.333 -23 64c0 25.333 9.33301 44.166 28 56.499
s40 18.5 64 18.5c16.667 0 28.667 -1.33301 36 -4z" />
    <glyph glyph-name="acute" unicode="&#xb4;" horiz-adv-x="500" 
d="M203 834l77 318c4 16 14.333 25.333 31 28c10.667 2 22.5 3.66699 35.5 5s25.667 2.33301 38 3s23.5 1.16699 33.5 1.5s17.667 0.5 23 0.5c11.333 0 17 -4.66699 17 -14c0 -3.33301 -1.33301 -7.33301 -4 -12l-190 -338h-54z" />
    <glyph glyph-name="mu" unicode="&#xb5;" horiz-adv-x="947" 
d="M822 142c0 -22.667 1.50195 -43.498 4.50195 -62.498s6.5 -37.167 10.5 -54.5c0.666992 -0.666992 1 -3.33398 1 -8.00098c0 -10 -6.66699 -16 -20 -18c-8.66699 -1.33301 -18.5 -2.66602 -29.5 -3.99902l-34 -4c-11.667 -1.33301 -23.334 -2.33301 -35.001 -3
s-21.834 -1 -30.501 -1c-7.33301 0 -12.833 2 -16.5 6s-6.5 10 -8.5 18l-15 56c-36.667 -28 -76.667 -49.5 -120 -64.5s-87.333 -22.5 -132 -22.5c-23.333 0 -46.666 2.33301 -69.999 7s-46 12.334 -68 23.001l34 -453v-3c0 -14 -7.33301 -22.333 -22 -25
c-10.667 -2 -22.5 -3.83301 -35.5 -5.5s-25.667 -3 -38 -4s-23.666 -1.66699 -33.999 -2s-17.833 -0.5 -22.5 -0.5c-16 0 -24 8.33301 -24 25v1160c0 15.333 8 24.666 24 27.999c10.667 2 22.5 3.66699 35.5 5s25.667 2.5 38 3.5s23.5 1.83301 33.5 2.5s17.667 1 23 1
c16 0 24 -8.33301 24 -25v-433c0 -30.667 3.16699 -58.5 9.5 -83.5s16.166 -46.5 29.499 -64.5s30.166 -32 50.499 -42s44.5 -15 72.5 -15c32 0 64.833 5.66699 98.5 17s63.167 25.666 88.5 42.999v563c0 15.333 8 24.666 24 27.999c10.667 2 22.5 3.66699 35.5 5
s25.667 2.5 38 3.5s23.5 1.83301 33.5 2.5s17.667 1 23 1c16 0 24 -8.33301 24 -25v-575z" />
    <glyph glyph-name="mu" unicode="&#x3bc;" horiz-adv-x="947" 
d="M822 142c0 -22.667 1.50195 -43.498 4.50195 -62.498s6.5 -37.167 10.5 -54.5c0.666992 -0.666992 1 -3.33398 1 -8.00098c0 -10 -6.66699 -16 -20 -18c-8.66699 -1.33301 -18.5 -2.66602 -29.5 -3.99902l-34 -4c-11.667 -1.33301 -23.334 -2.33301 -35.001 -3
s-21.834 -1 -30.501 -1c-7.33301 0 -12.833 2 -16.5 6s-6.5 10 -8.5 18l-15 56c-36.667 -28 -76.667 -49.5 -120 -64.5s-87.333 -22.5 -132 -22.5c-23.333 0 -46.666 2.33301 -69.999 7s-46 12.334 -68 23.001l34 -453v-3c0 -14 -7.33301 -22.333 -22 -25
c-10.667 -2 -22.5 -3.83301 -35.5 -5.5s-25.667 -3 -38 -4s-23.666 -1.66699 -33.999 -2s-17.833 -0.5 -22.5 -0.5c-16 0 -24 8.33301 -24 25v1160c0 15.333 8 24.666 24 27.999c10.667 2 22.5 3.66699 35.5 5s25.667 2.5 38 3.5s23.5 1.83301 33.5 2.5s17.667 1 23 1
c16 0 24 -8.33301 24 -25v-433c0 -30.667 3.16699 -58.5 9.5 -83.5s16.166 -46.5 29.499 -64.5s30.166 -32 50.499 -42s44.5 -15 72.5 -15c32 0 64.833 5.66699 98.5 17s63.167 25.666 88.5 42.999v563c0 15.333 8 24.666 24 27.999c10.667 2 22.5 3.66699 35.5 5
s25.667 2.5 38 3.5s23.5 1.83301 33.5 2.5s17.667 1 23 1c16 0 24 -8.33301 24 -25v-575z" />
    <glyph glyph-name="paragraph" unicode="&#xb6;" horiz-adv-x="1031" 
d="M604 -236l-88.001 -12.0029v731c-60 0 -118 6.33301 -174 19s-105.667 33.167 -149 61.5s-78 64.833 -104 109.5s-39 99 -39 163c0 68.667 15.167 125.334 45.5 170.001s70 79.834 119 105.501s104 43.5 165 53.5s122.167 15 183.5 15c62.667 0 122 -3 178 -9
s106 -12.667 150 -20l-6 -55c-3.33301 0.666992 -8.66602 1.33398 -15.999 2.00098s-15.833 1.33398 -25.5 2.00098s-19.834 1.33398 -30.501 2.00098s-20.334 1 -29.001 1v-1315l-88 -12v1331c-17.333 1.33301 -34.666 2.16602 -51.999 2.49902
s-30.666 0.166016 -39.999 -0.500977v-1345z" />
    <glyph glyph-name="periodcentered" unicode="&#xb7;" horiz-adv-x="419" 
d="M319 392c0 -38 -10.5 -65.667 -31.5 -83s-50.5 -26 -88.5 -26c-32 0 -56.5 9.66699 -73.5 29s-25.5 46 -25.5 80c0 38 10.667 65.833 32 83.5s51 26.5 89 26.5c32 0 56.333 -9.83301 73 -29.5s25 -46.5 25 -80.5z" />
    <glyph glyph-name="periodcentered" unicode="&#x2219;" horiz-adv-x="419" 
d="M319 392c0 -38 -10.5 -65.667 -31.5 -83s-50.5 -26 -88.5 -26c-32 0 -56.5 9.66699 -73.5 29s-25.5 46 -25.5 80c0 38 10.667 65.833 32 83.5s51 26.5 89 26.5c32 0 56.333 -9.83301 73 -29.5s25 -46.5 25 -80.5z" />
    <glyph glyph-name="cedilla" unicode="&#xb8;" horiz-adv-x="500" 
d="M232 0h71.999l-65 -109c23.333 -2.66699 43.833 -8.33398 61.5 -17.001s32.5 -19.167 44.5 -31.5s21 -26.5 27 -42.5s9 -32.333 9 -49c0 -34 -8.5 -62.333 -25.5 -85s-38.667 -40.5 -65 -53.5s-55.166 -22.167 -86.499 -27.5s-61.333 -8 -90 -8h-13l-8 61
c17.333 2.66699 35.333 5.66699 54 9s35.667 8.33301 51 15s28 15.834 38 27.501s15 27.167 15 46.5c0 12.667 -3 23.667 -9 33s-13.667 17 -23 23s-19.833 10.5 -31.5 13.5s-23.167 4.5 -34.5 4.5h-6c-5.33301 0 -8.33301 -0.333008 -9 -1l-19 43z" />
    <glyph glyph-name="onesuperior" unicode="&#xb9;" horiz-adv-x="403" 
d="M52 960c62.667 10 113.998 16.832 153.998 20.499s64 5.5 72 5.5c16.667 0 25 -9.66699 25 -29v-527c0 -12.667 -6.33301 -20 -19 -22c-8.66699 -2 -18.167 -3.66699 -28.5 -5s-20.166 -2.33301 -29.499 -3s-18 -1.16699 -26 -1.5s-14 -0.5 -18 -0.5
c-12.667 0 -19 6.66699 -19 20v421c0 32.667 -3.66699 54.834 -11 66.501s-22.666 17.5 -45.999 17.5c-12.667 0 -29 -1 -49 -3z" />
    <glyph glyph-name="ordmasculine" unicode="&#xba;" horiz-adv-x="728" 
d="M347 609c-44 0 -84.167 7.33203 -120.5 21.999s-67.333 34.667 -93 60s-45.667 55.5 -60 90.5s-21.5 72.5 -21.5 112.5c0 44 8 84.167 24 120.5s38.5 67.5 67.5 93.5s63.5 46 103.5 60s84 21 132 21c44.667 0 85.167 -7.16699 121.5 -21.5s67.5 -34 93.5 -59
s46.167 -54.5 60.5 -88.5s21.5 -70.667 21.5 -110c0 -45.333 -8 -86.5 -24 -123.5s-38.5 -68.667 -67.5 -95s-63.667 -46.666 -104 -60.999s-84.833 -21.5 -133.5 -21.5zM382 680.999c28.667 0 52.002 5.66699 70.002 17s32.167 26 42.5 44s17.5 38 21.5 60s6 43.667 6 65
c0 26 -3 53.667 -9 83s-15.667 56.333 -29 81s-31.333 45.167 -54 61.5s-50.334 24.5 -83.001 24.5c-28 0 -51.167 -5.66699 -69.5 -17s-32.833 -26 -43.5 -44s-18 -38.167 -22 -60.5s-6 -44.166 -6 -65.499c0 -27.333 3 -55.5 9 -84.5s15.833 -55.833 29.5 -80.5
s31.667 -44.834 54 -60.501s50.166 -23.5 83.499 -23.5z" />
    <glyph glyph-name="guillemotright" unicode="&#xbb;" horiz-adv-x="712" 
d="M327 213c-21.333 -2.66699 -42.501 -7.33203 -63.501 -13.999s-41.167 -17 -60.5 -31s-37.166 -32.833 -53.499 -56.5s-30.5 -53.834 -42.5 -90.501h-16c-7.33301 29.333 -11 56.333 -11 81c0 30 4.66699 59.167 14 87.5s23 53.833 41 76.5s40.667 41.667 68 57
s59 25 95 29v40c-36 4.66699 -67.667 14.5 -95 29.5s-50 33.833 -68 56.5s-31.667 48 -41 76s-14 57.333 -14 88c0 24.667 3.66699 51.667 11 81h16c14 -37.333 29.5 -67.833 46.5 -91.5s35 -42.5 54 -56.5s38.667 -24.167 59 -30.5s40.5 -10.833 60.5 -13.5v-318z
M621.999 213.002c-21.333 -2.66699 -42.501 -7.33203 -63.501 -13.999s-41.167 -17 -60.5 -31s-37.166 -32.833 -53.499 -56.5s-30.5 -53.834 -42.5 -90.501h-16c-7.33301 29.333 -11 56.333 -11 81c0 30 4.66699 59.167 14 87.5s23 53.833 41 76.5s40.667 41.667 68 57
s59 25 95 29v40c-36 4.66699 -67.667 14.5 -95 29.5s-50 33.833 -68 56.5s-31.667 48 -41 76s-14 57.333 -14 88c0 24.667 3.66699 51.667 11 81h16c14 -37.333 29.5 -67.833 46.5 -91.5s35 -42.5 54 -56.5s38.667 -24.167 59 -30.5s40.5 -10.833 60.5 -13.5v-318z" />
    <glyph glyph-name="onequarter" unicode="&#xbc;" horiz-adv-x="1140" 
d="M52 960c62.667 10 113.998 16.832 153.998 20.499s64 5.5 72 5.5c16.667 0 25 -9.66699 25 -29v-527c0 -12.667 -6.33301 -20 -19 -22c-8.66699 -2 -18.167 -3.66699 -28.5 -5s-20.166 -2.33301 -29.499 -3s-18 -1.16699 -26 -1.5s-14 -0.5 -18 -0.5
c-12.667 0 -19 6.66699 -19 20v421c0 32.667 -3.66699 54.834 -11 66.501s-22.666 17.5 -45.999 17.5c-12.667 0 -29 -1 -49 -3zM112.998 5.99902l701 1008l79 -35l-703 -1009zM992.998 11.999c0 -12.667 -6.33398 -20.3311 -19.001 -22.998
c-9.33301 -1.33301 -19 -2.5 -29 -3.5l-29 -3c-9.33301 -1 -18 -1.66699 -26 -2s-14 -0.5 -18 -0.5c-12.667 0 -19 6.66699 -19 20v126l-302 -2l-8 73c50.667 64.667 103.167 127.5 157.5 188.5l166.5 182.5c3.33301 3.33301 8.33301 6 15 8
c17.333 3.33301 34.833 5.66602 52.5 6.99902s30.834 2 39.501 2c12.667 0 19 -6.66699 19 -20l1 -350c21.333 1.33301 43.5 2.33301 66.5 3s40.167 1 51.5 1c4.66699 0 8.66699 -1.16699 12 -3.5s5 -6.5 5 -12.5v-6c0 -2.66699 -0.333008 -6.33398 -1 -11.001l-4 -58
l-131 -1v-115zM852.997 464.002l-121 -128.5c-38.667 -43 -75 -86.5 -109 -130.5c46 1.33301 86.833 2.33301 122.5 3s71.5 1.66699 107.5 3v253z" />
    <glyph glyph-name="onehalf" unicode="&#xbd;" horiz-adv-x="1273" 
d="M52 960c62.667 10 113.998 16.832 153.998 20.499s64 5.5 72 5.5c16.667 0 25 -9.66699 25 -29v-527c0 -12.667 -6.33301 -20 -19 -22c-8.66699 -2 -18.167 -3.66699 -28.5 -5s-20.166 -2.33301 -29.499 -3s-18 -1.16699 -26 -1.5s-14 -0.5 -18 -0.5
c-12.667 0 -19 6.66699 -19 20v421c0 32.667 -3.66699 54.834 -11 66.501s-22.666 17.5 -45.999 17.5c-12.667 0 -29 -1 -49 -3zM112.998 5.99902l701 1008l79 -35l-703 -1009zM648.998 96.999c62 28.667 114.332 57.3311 156.999 85.998s77.167 57 103.5 85
s45.5 55 57.5 81s18 50.333 18 73c0 30 -8.5 55.5 -25.5 76.5s-44.167 31.5 -81.5 31.5c-40 0 -73.333 -14.667 -100 -44s-43.667 -72.333 -51 -129l-42 4c0 3.33301 0.166992 12.5 0.5 27.5s1 32 2 51l3 56.5c1 18.667 2.16699 33.667 3.5 45
c1.33301 9.33301 7 15.333 17 18c26.667 8.66699 56.834 16.834 90.501 24.501s69.5 11.5 107.5 11.5c81.333 0 140.833 -12.167 178.5 -36.5s56.5 -55.833 56.5 -94.5c0 -24.667 -6.33301 -51 -19 -79s-33.167 -56.667 -61.5 -86s-65 -59.5 -110 -90.5
s-99.833 -61.833 -164.5 -92.5h209c22.667 0 41 1.66699 55 5s25.333 9.5 34 18.5s16 21.5 22 37.5s12.667 37 20 63l37 -4c0 -7.33301 -0.5 -21.5 -1.5 -42.5s-2.33301 -43.833 -4 -68.5l-5 -70.5c-1.66699 -22.333 -3.16699 -38.166 -4.5 -47.499c-1.33301 -4 -4 -6 -8 -6
c-36 0 -66 0.166992 -90 0.5s-45.333 0.5 -64 0.5h-329z" />
    <glyph glyph-name="threequarters" unicode="&#xbe;" horiz-adv-x="1371" 
d="M156 603c-0.666992 -3.33301 -1.16504 -6.83105 -1.49805 -10.498s-0.5 -7.5 -0.5 -11.5c0 -40.667 11.833 -71.5 35.5 -92.5s56.5 -31.5 98.5 -31.5c44 0 78.5 10.167 103.5 30.5s37.5 46.5 37.5 78.5c0 22.667 -5.33301 41.5 -16 56.5s-25.334 26.833 -44.001 35.5
s-40.834 14.667 -66.501 18s-53.167 5 -82.5 5h-15l-7 53h11c62.667 0 110.167 8.33301 142.5 25s48.5 43.334 48.5 80.001c0 32.667 -12 57.167 -36 73.5s-55 24.5 -93 24.5c-19.333 0 -37.166 -2.5 -53.499 -7.5s-31 -13.167 -44 -24.5s-23.833 -26.833 -32.5 -46.5
s-15 -43.834 -19 -72.501l-41 4c0 3.33301 0.166992 11.666 0.5 24.999s0.833008 28.333 1.5 45s1.5 33.5 2.5 50.5s2.16699 31.167 3.5 42.5c1.33301 8 7 13.667 17 17c25.333 8 55 15 89 21s69.333 9 106 9c32 0 63.333 -2 94 -6s58 -11 82 -21s43.167 -23.333 57.5 -40
s21.5 -38 21.5 -64c0 -14.667 -2.16699 -29 -6.5 -43s-12.333 -27.167 -24 -39.5s-27.334 -23.333 -47.001 -33s-44.5 -17.5 -74.5 -23.5v-3c14.667 -1.33301 32.5 -4.83301 53.5 -10.5s41.167 -14.5 60.5 -26.5s36 -27.5 50 -46.5s21 -42.5 21 -70.5
c0 -31.333 -9 -58.5 -27 -81.5s-41.333 -42 -70 -57s-61.334 -26.167 -98.001 -33.5s-73.334 -11 -110.001 -11c-30.667 0 -61.167 2.83301 -91.5 8.5s-57.666 14.167 -81.999 25.5s-44.166 26 -59.499 44s-23 39.333 -23 64c0 25.333 9.33301 44.166 28 56.499
s40 18.5 64 18.5c16.667 0 28.667 -1.33301 36 -4zM344.002 6.00195l701 1008l79 -35l-703 -1009zM1224 12.002c0 -12.667 -6.33398 -20.3311 -19.001 -22.998c-9.33301 -1.33301 -19 -2.5 -29 -3.5l-29 -3c-9.33301 -1 -18 -1.66699 -26 -2s-14 -0.5 -18 -0.5
c-12.667 0 -19 6.66699 -19 20v126l-302 -2l-8 73c50.667 64.667 103.167 127.5 157.5 188.5l166.5 182.5c3.33301 3.33301 8.33301 6 15 8c17.333 3.33301 34.833 5.66602 52.5 6.99902s30.834 2 39.501 2c12.667 0 19 -6.66699 19 -20l1 -350
c21.333 1.33301 43.5 2.33301 66.5 3s40.167 1 51.5 1c4.66699 0 8.66699 -1.16699 12 -3.5s5 -6.5 5 -12.5v-6c0 -2.66699 -0.333008 -6.33398 -1 -11.001l-4 -58l-131 -1v-115zM1084 464.005l-121 -128.5c-38.667 -43 -75 -86.5 -109 -130.5
c46 1.33301 86.833 2.33301 122.5 3s71.5 1.66699 107.5 3v253z" />
    <glyph glyph-name="questiondown" unicode="&#xbf;" horiz-adv-x="742" 
d="M597 -253c22.667 -36.667 33.9971 -69.0049 33.9971 -97.0049c0 -20.667 -5.5 -38 -16.5 -52s-25.5 -25.5 -43.5 -34.5s-38.5 -15.5 -61.5 -19.5s-46.5 -6 -70.5 -6c-46 0 -91.167 5.83301 -135.5 17.5s-83.666 29.334 -117.999 53.001s-62.166 53 -83.499 88
s-32 75.833 -32 122.5c0 30.667 4.83301 57.834 14.5 81.501s22.5 45.334 38.5 65.001s34.667 38 56 55s43.666 33.833 66.999 50.5l58 40c18.667 12.667 35.334 26 50.001 40s26.5 29.167 35.5 45.5s13.5 35.166 13.5 56.499c0 19.333 -4.5 39.5 -13.5 60.5
s-23.167 45.5 -42.5 73.5c15.333 10.667 30.5 19 45.5 25s29.5 9 43.5 9c18.667 0 35.5 -3.33301 50.5 -10s27.5 -15.667 37.5 -27s17.667 -24.666 23 -39.999s8 -31.666 8 -48.999c0 -29.333 -6 -56 -18 -80s-27.5 -46.5 -46.5 -67.5s-40.667 -40.667 -65 -59l-73.5 -53.5
l-67.5 -47.5c-21.667 -15.667 -40.667 -31.667 -57 -48s-29.5 -33.5 -39.5 -51.5s-15 -37 -15 -57c0 -25.333 6 -46.666 18 -63.999s27.833 -31.5 47.5 -42.5s42.334 -19 68.001 -24s52.5 -7.5 80.5 -7.5c84 0 154 18 210 54zM338.997 647.995c0 36 10 62.667 30 80
s49 26 87 26c30.667 0 54.334 -9.66699 71.001 -29s25 -45 25 -77c0 -38 -10.333 -65.333 -31 -82s-49.334 -25 -86.001 -25c-32 0 -56 9.33301 -72 28s-24 45 -24 79z" />
    <glyph glyph-name="Agrave" unicode="&#xc0;" horiz-adv-x="1170" 
d="M296 419l-153.998 -415.001c-2.66699 -7.33301 -8.66699 -11.666 -18 -12.999c-12 -1.33301 -25.667 -2.33301 -41 -3s-32.666 -1 -51.999 -1c-10.667 0 -16 3.33301 -16 10c0 2 0.333008 3.66699 1 5l458 1098l-21 58c-1.33301 5.33301 -2 9 -2 11
c0 10 6.33301 16 19 18c10.667 2 23.167 3.83301 37.5 5.5s28.166 3.16699 41.499 4.5s25.666 2.33301 36.999 3s19.666 1 24.999 1c13.333 0 23 -7.66699 29 -23l446 -1148c2 -5.33301 3 -9 3 -11c0 -11.333 -6.66699 -18 -20 -20c-12 -2 -25.5 -3.83301 -40.5 -5.5
s-29.667 -3 -44 -4s-27.5 -1.66699 -39.5 -2s-20.667 -0.5 -26 -0.5c-11.333 0 -19 5 -23 15l-163 424zM328.002 503.999h375l-190 496zM612.002 1256l-54 -0.00195312l-159 247c-2.66699 4.66699 -4 8.33398 -4 11.001c0 8 5.66699 13 17 15c16 4 34.333 6.66699 55 8
s37 2 49 2c10 0 17.167 -2.66699 21.5 -8s7.5 -11.666 9.5 -18.999l72 -248z" />
    <glyph glyph-name="Aacute" unicode="&#xc1;" horiz-adv-x="1170" 
d="M296 419l-153.998 -415.001c-2.66699 -7.33301 -8.66699 -11.666 -18 -12.999c-12 -1.33301 -25.667 -2.33301 -41 -3s-32.666 -1 -51.999 -1c-10.667 0 -16 3.33301 -16 10c0 2 0.333008 3.66699 1 5l458 1098l-21 58c-1.33301 5.33301 -2 9 -2 11
c0 10 6.33301 16 19 18c10.667 2 23.167 3.83301 37.5 5.5s28.166 3.16699 41.499 4.5s25.666 2.33301 36.999 3s19.666 1 24.999 1c13.333 0 23 -7.66699 29 -23l446 -1148c2 -5.33301 3 -9 3 -11c0 -11.333 -6.66699 -18 -20 -20c-12 -2 -25.5 -3.83301 -40.5 -5.5
s-29.667 -3 -44 -4s-27.5 -1.66699 -39.5 -2s-20.667 -0.5 -26 -0.5c-11.333 0 -19 5 -23 15l-163 424zM328.002 503.999h375l-190 496zM525.002 1264l72.001 248.002c2 7.33301 5.16699 13.666 9.5 18.999s11.5 8 21.5 8c6 0 13.167 -0.166992 21.5 -0.5
s17.166 -0.833008 26.499 -1.5s19 -1.66699 29 -3s19 -3 27 -5c11.333 -2 17 -7 17 -15c0 -2.66699 -1.33301 -6.33398 -4 -11.001l-159 -247h-54z" />
    <glyph glyph-name="Acircumflex" unicode="&#xc2;" horiz-adv-x="1170" 
d="M296 419l-153.998 -415.001c-2.66699 -7.33301 -8.66699 -11.666 -18 -12.999c-12 -1.33301 -25.667 -2.33301 -41 -3s-32.666 -1 -51.999 -1c-10.667 0 -16 3.33301 -16 10c0 2 0.333008 3.66699 1 5l458 1098l-21 58c-1.33301 5.33301 -2 9 -2 11
c0 10 6.33301 16 19 18c10.667 2 23.167 3.83301 37.5 5.5s28.166 3.16699 41.499 4.5s25.666 2.33301 36.999 3s19.666 1 24.999 1c13.333 0 23 -7.66699 29 -23l446 -1148c2 -5.33301 3 -9 3 -11c0 -11.333 -6.66699 -18 -20 -20c-12 -2 -25.5 -3.83301 -40.5 -5.5
s-29.667 -3 -44 -4s-27.5 -1.66699 -39.5 -2s-20.667 -0.5 -26 -0.5c-11.333 0 -19 5 -23 15l-163 424zM328.002 503.999h375l-190 496zM789.002 1256h-61.001l-154 164h-8l-154 -164h-57l-7 8l146 240c4 7.33301 8.66699 13.5 14 18.5s13 8.16699 23 9.5
c21.333 3.33301 38.833 5.33301 52.5 6s23.5 1 29.5 1c10 0 17.333 -2.33301 22 -7s9.33398 -11 14.001 -19l147 -249z" />
    <glyph glyph-name="Atilde" unicode="&#xc3;" horiz-adv-x="1170" 
d="M296 419l-153.998 -415.001c-2.66699 -7.33301 -8.66699 -11.666 -18 -12.999c-12 -1.33301 -25.667 -2.33301 -41 -3s-32.666 -1 -51.999 -1c-10.667 0 -16 3.33301 -16 10c0 2 0.333008 3.66699 1 5l458 1098l-21 58c-1.33301 5.33301 -2 9 -2 11
c0 10 6.33301 16 19 18c10.667 2 23.167 3.83301 37.5 5.5s28.166 3.16699 41.499 4.5s25.666 2.33301 36.999 3s19.666 1 24.999 1c13.333 0 23 -7.66699 29 -23l446 -1148c2 -5.33301 3 -9 3 -11c0 -11.333 -6.66699 -18 -20 -20c-12 -2 -25.5 -3.83301 -40.5 -5.5
s-29.667 -3 -44 -4s-27.5 -1.66699 -39.5 -2s-20.667 -0.5 -26 -0.5c-11.333 0 -19 5 -23 15l-163 424zM328.002 503.999h375l-190 496zM868.002 1462c-36 -66 -70.501 -113.668 -103.501 -143.001s-63.833 -44 -92.5 -44c-16.667 0 -35.167 5.16699 -55.5 15.5
s-40.833 21.5 -61.5 33.5l-52.5 29c-16.333 8.66699 -30.833 13 -43.5 13c-16 0 -34.167 -8.83301 -54.5 -26.5s-41.166 -40.5 -62.499 -68.5l-45 36c40 68 76 115.5 108 142.5s61 40.5 87 40.5c20 0 40.5 -5.16699 61.5 -15.5s41.5 -21.5 61.5 -33.5
c18 -11.333 35 -21.166 51 -29.499s30.333 -12.5 43 -12.5c19.333 0 38.833 9 58.5 27s38.5 38.667 56.5 62z" />
    <glyph glyph-name="Adieresis" unicode="&#xc4;" horiz-adv-x="1170" 
d="M296 419l-153.998 -415.001c-2.66699 -7.33301 -8.66699 -11.666 -18 -12.999c-12 -1.33301 -25.667 -2.33301 -41 -3s-32.666 -1 -51.999 -1c-10.667 0 -16 3.33301 -16 10c0 2 0.333008 3.66699 1 5l458 1098l-21 58c-1.33301 5.33301 -2 9 -2 11
c0 10 6.33301 16 19 18c10.667 2 23.167 3.83301 37.5 5.5s28.166 3.16699 41.499 4.5s25.666 2.33301 36.999 3s19.666 1 24.999 1c13.333 0 23 -7.66699 29 -23l446 -1148c2 -5.33301 3 -9 3 -11c0 -11.333 -6.66699 -18 -20 -20c-12 -2 -25.5 -3.83301 -40.5 -5.5
s-29.667 -3 -44 -4s-27.5 -1.66699 -39.5 -2s-20.667 -0.5 -26 -0.5c-11.333 0 -19 5 -23 15l-163 424zM328.002 503.999h375l-190 496zM507.002 1407c0 -34 -9.33203 -59 -27.999 -75s-45 -24 -79 -24c-28.667 0 -50.834 9 -66.501 27s-23.5 42 -23.5 72
c0 34 9.66699 58.667 29 74s46 23 80 23c28.667 0 50.5 -8.66699 65.5 -26s22.5 -41 22.5 -71zM834.003 1407c0 -34 -9.33203 -59 -27.999 -75s-45 -24 -79 -24c-28.667 0 -50.834 9 -66.501 27s-23.5 42 -23.5 72c0 34 9.66699 58.667 29 74s46 23 80 23
c28.667 0 50.5 -8.66699 65.5 -26s22.5 -41 22.5 -71z" />
    <glyph glyph-name="Aring" unicode="&#xc5;" horiz-adv-x="1170" 
d="M296 419l-153.998 -415.001c-2.66699 -7.33301 -8.66699 -11.666 -18 -12.999c-12 -1.33301 -25.667 -2.33301 -41 -3s-32.666 -1 -51.999 -1c-10.667 0 -16 3.33301 -16 10c0 2 0.333008 3.66699 1 5l458 1098l-21 58c-1.33301 5.33301 -2 9 -2 11
c0 10 6.33301 16 19 18c10.667 2 23.167 3.83301 37.5 5.5s28.166 3.16699 41.499 4.5s25.666 2.33301 36.999 3s19.666 1 24.999 1c13.333 0 23 -7.66699 29 -23l446 -1148c2 -5.33301 3 -9 3 -11c0 -11.333 -6.66699 -18 -20 -20c-12 -2 -25.5 -3.83301 -40.5 -5.5
s-29.667 -3 -44 -4s-27.5 -1.66699 -39.5 -2s-20.667 -0.5 -26 -0.5c-11.333 0 -19 5 -23 15l-163 424zM328.002 503.999h375l-190 496zM778.002 1412c0 -24 -5.00195 -45.832 -15.002 -65.499s-24 -36.834 -42 -51.501s-39.667 -26 -65 -34s-53.333 -12 -84 -12
c-31.333 0 -59.666 3.83301 -84.999 11.5s-47 18.667 -65 33s-31.833 31.5 -41.5 51.5s-14.5 42.333 -14.5 67c0 24 5.33301 46 16 66s25.334 37.167 44.001 51.5s40.5 25.5 65.5 33.5s51.833 12 80.5 12c29.333 0 56.5 -3.83301 81.5 -11.5s46.833 -18.5 65.5 -32.5
s33.167 -31.167 43.5 -51.5s15.5 -42.833 15.5 -67.5zM667 1412c0 34 -7.83301 62 -23.5 84s-39.5 33 -71.5 33c-30.667 0 -54.167 -10.5 -70.5 -31.5s-24.5 -49.5 -24.5 -85.5c0 -34 7.83301 -61.833 23.5 -83.5s39.5 -32.5 71.5 -32.5s55.833 10.833 71.5 32.5
s23.5 49.5 23.5 83.5z" />
    <glyph glyph-name="AE" unicode="&#xc6;" horiz-adv-x="1529" 
d="M920 155c0 -16 0.499023 -28.502 1.49902 -37.502s3.66699 -16 8 -21s11.5 -8.16699 21.5 -9.5s24 -2 42 -2h109c53.333 0 96.666 1.16699 129.999 3.5s61.666 10 84.999 23s43.833 33.667 61.5 62s37.5 68.5 59.5 120.5l50 -11c0 -4.66699 -1.5 -16.667 -4.5 -36
s-6.83301 -41.833 -11.5 -67.5s-10 -51.834 -16 -78.501s-12 -50 -18 -70c-8.66699 -22.667 -25 -34 -49 -34c-50 0.666992 -113.333 1.33398 -190 2.00098s-168.334 1 -275.001 1h-166c-9.33301 0 -15.666 2.83301 -18.999 8.5s-5 11.167 -5 16.5v478
c-125.333 -2 -223 -4 -293 -6l-317 -493c-4.66699 -7.33301 -12 -11.666 -22 -12.999c-11.333 -1.33301 -28.166 -2.33301 -50.499 -3s-43.166 -1 -62.499 -1c-9.33301 0 -14 2.33301 -14 7c0 2 1 4.66699 3 8l736 1049c-7.33301 7.33301 -16.166 12.333 -26.499 15
s-21.5 4 -33.5 4c-7.33301 0 -14.5 -0.333008 -21.5 -1l-21.5 -2l-6 55c14 2.66699 34.333 6 61 10l83.5 12c29 4 57 7.33301 84 10s48.167 4 63.5 4h344c22.667 0 46.334 0.166992 71.001 0.5s52 0.833008 82 1.5c10.667 0 16.667 -5 18 -15
c0.666992 -9.33301 1.5 -21.666 2.5 -36.999s1.83301 -32 2.5 -50s1.5 -36.333 2.5 -55s1.83301 -36 2.5 -52s1.16699 -29.667 1.5 -41s0.5 -18.333 0.5 -21l-50 -5c-11.333 47.333 -22.833 84 -34.5 110s-26.5 45 -44.5 57s-40.833 19.167 -68.5 21.5s-63.5 3.5 -107.5 3.5
h-156c-11.333 0 -19.833 -0.333008 -25.5 -1s-9.83398 -2.33398 -12.501 -5.00098s-4.16699 -6.5 -4.5 -11.5s-0.5 -11.833 -0.5 -20.5v-447c43.333 1.33301 84.5 2.5 123.5 3.5s74.5 2 106.5 3s59.833 1.83301 83.5 2.5s41.834 1 54.501 1v-1h1c18.667 0 28 -10 28 -30
c0 -12.667 -0.666992 -25.667 -2 -39s-3 -27.666 -5 -42.999c-68 4.66699 -133.333 8.5 -196 11.5s-127.334 4.5 -194.001 4.5v-349zM495.999 580.998c28 0.666992 61.667 1.16797 101 1.50098s85 1.16602 137 2.49902v364z" />
    <glyph glyph-name="Ccedilla" unicode="&#xc7;" horiz-adv-x="1181" 
d="M1131 75c-34.667 -19.333 -72.6689 -35.6709 -114.002 -49.0039s-81.833 -24 -121.5 -32s-76.667 -13.833 -111 -17.5s-62.166 -5.5 -83.499 -5.5h-4l-48 -80c23.333 -2.66699 43.833 -8.33398 61.5 -17.001s32.5 -19.167 44.5 -31.5s21 -26.5 27 -42.5s9 -32.333 9 -49
c0 -34 -8.5 -62.333 -25.5 -85s-38.667 -40.5 -65 -53.5s-55.166 -22.167 -86.499 -27.5s-61.333 -8 -90 -8h-13l-8 61c17.333 2.66699 35.333 5.66699 54 9s35.667 8.33301 51 15s28 15.834 38 27.501s15 27.167 15 46.5c0 12.667 -3 23.667 -9 33s-13.667 17 -23 23
s-19.833 10.5 -31.5 13.5s-23.167 4.5 -34.5 4.5h-6.5c-2.33301 0 -5.16602 -0.333008 -8.49902 -1l-19 43l92 124c-81.333 8.66699 -155 30 -221 64s-122.667 77.833 -170 131.5s-83.833 115.834 -109.5 186.501s-38.5 147.334 -38.5 230.001
c0 96.667 17 182.334 51 257.001s81 137.5 141 188.5s131 89.667 213 116s171 39.5 267 39.5c54 0 105.667 -3.5 155 -10.5s97.333 -15.5 144 -25.5c6 -1.33301 10.833 -4.16602 14.5 -8.49902s5.83398 -8.83301 6.50098 -13.5l2.5 -36c1 -14.667 1.83301 -30.5 2.5 -47.5
s1.5 -34.333 2.5 -52s1.83301 -34 2.5 -49s1.16699 -27.833 1.5 -38.5s0.5 -17.334 0.5 -20.001l-50 -5c-4 41.333 -16.167 76.333 -36.5 105s-45.5 51.834 -75.5 69.501s-63.167 30.5 -99.5 38.5s-72.5 12 -108.5 12c-72.667 0 -135.834 -12 -189.501 -36
s-98.334 -57.167 -134.001 -99.5s-62.334 -92.333 -80.001 -150s-26.5 -120.5 -26.5 -188.5c0 -79.333 10.833 -153.166 32.5 -221.499s54.167 -127.5 97.5 -177.5s97.333 -89.333 162 -118s140.334 -43 227.001 -43c52 0 102.333 5.66699 151 17s98 26.666 148 45.999z" />
    <glyph glyph-name="Egrave" unicode="&#xc8;" horiz-adv-x="975" 
d="M346 155c0 -16 0.500977 -28.498 1.50098 -37.498s3.66699 -16 8 -21s11.5 -8.16699 21.5 -9.5s24 -2 42 -2h129c53.333 0 96.666 1.16699 129.999 3.5s61.666 10 84.999 23s43.833 33.667 61.5 62s37.5 68.5 59.5 120.5l50 -11c0 -4.66699 -1.5 -16.667 -4.5 -36
s-6.83301 -41.833 -11.5 -67.5s-10 -51.834 -16 -78.501s-12 -50 -18 -70c-8.66699 -22.667 -25 -34 -49 -34c-24.667 0 -54 0.166992 -88 0.5s-71.833 0.666016 -113.5 0.999023s-86.334 0.666016 -134.001 0.999023s-97.5 0.5 -149.5 0.5h-166
c-9.33301 0 -15.666 2.83301 -18.999 8.5s-5 11.167 -5 16.5v961c0 34 -7.66699 56.5 -23 67.5s-34.333 16.5 -57 16.5c-14 0 -28.333 -1 -43 -3l-6 55c14 2.66699 34.333 6 61 10l83.5 12c29 4 57 7.33301 84 10s48.167 4 63.5 4h364c22.667 0 46.334 0.166992 71.001 0.5
s52 0.833008 82 1.5c10.667 0 16.667 -5 18 -15c0.666992 -9.33301 1.5 -21.666 2.5 -36.999s1.83301 -32 2.5 -50s1.5 -36.333 2.5 -55s1.83301 -36 2.5 -52s1.16699 -29.667 1.5 -41s0.5 -18.333 0.5 -21l-50 -5c-11.333 47.333 -22.833 84 -34.5 110s-26.5 45 -44.5 57
s-40.833 19.167 -68.5 21.5s-63.5 3.5 -107.5 3.5h-176c-11.333 0 -19.833 -0.333008 -25.5 -1s-9.83398 -2.33398 -12.501 -5.00098s-4.16699 -6.5 -4.5 -11.5s-0.5 -11.833 -0.5 -20.5v-405l150.5 7.5l119 6l81.5 4c20.667 1 33.334 1.5 38.001 1.5
c18.667 0 28 -10 28 -30c0 -12.667 -0.666992 -25.667 -2 -39s-3 -27.666 -5 -42.999l-410 14v-399zM550.001 1256l-54 -0.00195312l-159 247c-2.66699 4.66699 -4 8.33398 -4 11.001c0 8 5.66699 13 17 15c16 4 34.333 6.66699 55 8s37 2 49 2
c10 0 17.167 -2.66699 21.5 -8s7.5 -11.666 9.5 -18.999l72 -248z" />
    <glyph glyph-name="Eacute" unicode="&#xc9;" horiz-adv-x="975" 
d="M346 155c0 -16 0.500977 -28.498 1.50098 -37.498s3.66699 -16 8 -21s11.5 -8.16699 21.5 -9.5s24 -2 42 -2h129c53.333 0 96.666 1.16699 129.999 3.5s61.666 10 84.999 23s43.833 33.667 61.5 62s37.5 68.5 59.5 120.5l50 -11c0 -4.66699 -1.5 -16.667 -4.5 -36
s-6.83301 -41.833 -11.5 -67.5s-10 -51.834 -16 -78.501s-12 -50 -18 -70c-8.66699 -22.667 -25 -34 -49 -34c-24.667 0 -54 0.166992 -88 0.5s-71.833 0.666016 -113.5 0.999023s-86.334 0.666016 -134.001 0.999023s-97.5 0.5 -149.5 0.5h-166
c-9.33301 0 -15.666 2.83301 -18.999 8.5s-5 11.167 -5 16.5v961c0 34 -7.66699 56.5 -23 67.5s-34.333 16.5 -57 16.5c-14 0 -28.333 -1 -43 -3l-6 55c14 2.66699 34.333 6 61 10l83.5 12c29 4 57 7.33301 84 10s48.167 4 63.5 4h364c22.667 0 46.334 0.166992 71.001 0.5
s52 0.833008 82 1.5c10.667 0 16.667 -5 18 -15c0.666992 -9.33301 1.5 -21.666 2.5 -36.999s1.83301 -32 2.5 -50s1.5 -36.333 2.5 -55s1.83301 -36 2.5 -52s1.16699 -29.667 1.5 -41s0.5 -18.333 0.5 -21l-50 -5c-11.333 47.333 -22.833 84 -34.5 110s-26.5 45 -44.5 57
s-40.833 19.167 -68.5 21.5s-63.5 3.5 -107.5 3.5h-176c-11.333 0 -19.833 -0.333008 -25.5 -1s-9.83398 -2.33398 -12.501 -5.00098s-4.16699 -6.5 -4.5 -11.5s-0.5 -11.833 -0.5 -20.5v-405l150.5 7.5l119 6l81.5 4c20.667 1 33.334 1.5 38.001 1.5
c18.667 0 28 -10 28 -30c0 -12.667 -0.666992 -25.667 -2 -39s-3 -27.666 -5 -42.999l-410 14v-399zM463.001 1264l72.001 248.002c2 7.33301 5.16699 13.666 9.5 18.999s11.5 8 21.5 8c6 0 13.167 -0.166992 21.5 -0.5s17.166 -0.833008 26.499 -1.5s19 -1.66699 29 -3
s19 -3 27 -5c11.333 -2 17 -7 17 -15c0 -2.66699 -1.33301 -6.33398 -4 -11.001l-159 -247h-54z" />
    <glyph glyph-name="Ecircumflex" unicode="&#xca;" horiz-adv-x="975" 
d="M346 155c0 -16 0.500977 -28.498 1.50098 -37.498s3.66699 -16 8 -21s11.5 -8.16699 21.5 -9.5s24 -2 42 -2h129c53.333 0 96.666 1.16699 129.999 3.5s61.666 10 84.999 23s43.833 33.667 61.5 62s37.5 68.5 59.5 120.5l50 -11c0 -4.66699 -1.5 -16.667 -4.5 -36
s-6.83301 -41.833 -11.5 -67.5s-10 -51.834 -16 -78.501s-12 -50 -18 -70c-8.66699 -22.667 -25 -34 -49 -34c-24.667 0 -54 0.166992 -88 0.5s-71.833 0.666016 -113.5 0.999023s-86.334 0.666016 -134.001 0.999023s-97.5 0.5 -149.5 0.5h-166
c-9.33301 0 -15.666 2.83301 -18.999 8.5s-5 11.167 -5 16.5v961c0 34 -7.66699 56.5 -23 67.5s-34.333 16.5 -57 16.5c-14 0 -28.333 -1 -43 -3l-6 55c14 2.66699 34.333 6 61 10l83.5 12c29 4 57 7.33301 84 10s48.167 4 63.5 4h364c22.667 0 46.334 0.166992 71.001 0.5
s52 0.833008 82 1.5c10.667 0 16.667 -5 18 -15c0.666992 -9.33301 1.5 -21.666 2.5 -36.999s1.83301 -32 2.5 -50s1.5 -36.333 2.5 -55s1.83301 -36 2.5 -52s1.16699 -29.667 1.5 -41s0.5 -18.333 0.5 -21l-50 -5c-11.333 47.333 -22.833 84 -34.5 110s-26.5 45 -44.5 57
s-40.833 19.167 -68.5 21.5s-63.5 3.5 -107.5 3.5h-176c-11.333 0 -19.833 -0.333008 -25.5 -1s-9.83398 -2.33398 -12.501 -5.00098s-4.16699 -6.5 -4.5 -11.5s-0.5 -11.833 -0.5 -20.5v-405l150.5 7.5l119 6l81.5 4c20.667 1 33.334 1.5 38.001 1.5
c18.667 0 28 -10 28 -30c0 -12.667 -0.666992 -25.667 -2 -39s-3 -27.666 -5 -42.999l-410 14v-399zM727.001 1256h-61.001l-154 164h-8l-154 -164h-57l-7 8l146 240c4 7.33301 8.66699 13.5 14 18.5s13 8.16699 23 9.5c21.333 3.33301 38.833 5.33301 52.5 6s23.5 1 29.5 1
c10 0 17.333 -2.33301 22 -7s9.33398 -11 14.001 -19l147 -249z" />
    <glyph glyph-name="Edieresis" unicode="&#xcb;" horiz-adv-x="975" 
d="M346 155c0 -16 0.500977 -28.498 1.50098 -37.498s3.66699 -16 8 -21s11.5 -8.16699 21.5 -9.5s24 -2 42 -2h129c53.333 0 96.666 1.16699 129.999 3.5s61.666 10 84.999 23s43.833 33.667 61.5 62s37.5 68.5 59.5 120.5l50 -11c0 -4.66699 -1.5 -16.667 -4.5 -36
s-6.83301 -41.833 -11.5 -67.5s-10 -51.834 -16 -78.501s-12 -50 -18 -70c-8.66699 -22.667 -25 -34 -49 -34c-24.667 0 -54 0.166992 -88 0.5s-71.833 0.666016 -113.5 0.999023s-86.334 0.666016 -134.001 0.999023s-97.5 0.5 -149.5 0.5h-166
c-9.33301 0 -15.666 2.83301 -18.999 8.5s-5 11.167 -5 16.5v961c0 34 -7.66699 56.5 -23 67.5s-34.333 16.5 -57 16.5c-14 0 -28.333 -1 -43 -3l-6 55c14 2.66699 34.333 6 61 10l83.5 12c29 4 57 7.33301 84 10s48.167 4 63.5 4h364c22.667 0 46.334 0.166992 71.001 0.5
s52 0.833008 82 1.5c10.667 0 16.667 -5 18 -15c0.666992 -9.33301 1.5 -21.666 2.5 -36.999s1.83301 -32 2.5 -50s1.5 -36.333 2.5 -55s1.83301 -36 2.5 -52s1.16699 -29.667 1.5 -41s0.5 -18.333 0.5 -21l-50 -5c-11.333 47.333 -22.833 84 -34.5 110s-26.5 45 -44.5 57
s-40.833 19.167 -68.5 21.5s-63.5 3.5 -107.5 3.5h-176c-11.333 0 -19.833 -0.333008 -25.5 -1s-9.83398 -2.33398 -12.501 -5.00098s-4.16699 -6.5 -4.5 -11.5s-0.5 -11.833 -0.5 -20.5v-405l150.5 7.5l119 6l81.5 4c20.667 1 33.334 1.5 38.001 1.5
c18.667 0 28 -10 28 -30c0 -12.667 -0.666992 -25.667 -2 -39s-3 -27.666 -5 -42.999l-410 14v-399zM445.001 1407c0 -34 -9.33203 -59 -27.999 -75s-45 -24 -79 -24c-28.667 0 -50.834 9 -66.501 27s-23.5 42 -23.5 72c0 34 9.66699 58.667 29 74s46 23 80 23
c28.667 0 50.5 -8.66699 65.5 -26s22.5 -41 22.5 -71zM772.002 1407c0 -34 -9.33203 -59 -27.999 -75s-45 -24 -79 -24c-28.667 0 -50.834 9 -66.501 27s-23.5 42 -23.5 72c0 34 9.66699 58.667 29 74s46 23 80 23c28.667 0 50.5 -8.66699 65.5 -26s22.5 -41 22.5 -71z" />
    <glyph glyph-name="Igrave" unicode="&#xcc;" horiz-adv-x="506" 
d="M31 1145c36 6.66699 70.167 12.3291 102.5 16.9961s61 8.33398 86 11.001s45.833 4.66699 62.5 6s27.334 2 32.001 2c21.333 0 32 -10.667 32 -32v-1122c0 -16 -8 -25.333 -24 -28c-11.333 -2 -23.833 -3.83301 -37.5 -5.5s-27 -3 -40 -4s-25 -1.66699 -36 -2
s-19.167 -0.5 -24.5 -0.5c-16 0 -24 8.33301 -24 25v990c0 18.667 -1.83301 33.834 -5.5 45.501s-9 20.834 -16 27.501s-15.333 11.334 -25 14.001s-20.5 4 -32.5 4c-14.667 0 -29.334 -1 -44.001 -3zM275 1256l-54 -0.00195312l-159 247
c-2.66699 4.66699 -4 8.33398 -4 11.001c0 8 5.66699 13 17 15c16 4 34.333 6.66699 55 8s37 2 49 2c10 0 17.167 -2.66699 21.5 -8s7.5 -11.666 9.5 -18.999l72 -248z" />
    <glyph glyph-name="Iacute" unicode="&#xcd;" horiz-adv-x="506" 
d="M31 1145c36 6.66699 70.167 12.3291 102.5 16.9961s61 8.33398 86 11.001s45.833 4.66699 62.5 6s27.334 2 32.001 2c21.333 0 32 -10.667 32 -32v-1122c0 -16 -8 -25.333 -24 -28c-11.333 -2 -23.833 -3.83301 -37.5 -5.5s-27 -3 -40 -4s-25 -1.66699 -36 -2
s-19.167 -0.5 -24.5 -0.5c-16 0 -24 8.33301 -24 25v990c0 18.667 -1.83301 33.834 -5.5 45.501s-9 20.834 -16 27.501s-15.333 11.334 -25 14.001s-20.5 4 -32.5 4c-14.667 0 -29.334 -1 -44.001 -3zM188 1264l72.001 248.002c2 7.33301 5.16699 13.666 9.5 18.999
s11.5 8 21.5 8c6 0 13.167 -0.166992 21.5 -0.5s17.166 -0.833008 26.499 -1.5s19 -1.66699 29 -3s19 -3 27 -5c11.333 -2 17 -7 17 -15c0 -2.66699 -1.33301 -6.33398 -4 -11.001l-159 -247h-54z" />
    <glyph glyph-name="Icircumflex" unicode="&#xce;" horiz-adv-x="506" 
d="M31 1145c36 6.66699 70.167 12.3291 102.5 16.9961s61 8.33398 86 11.001s45.833 4.66699 62.5 6s27.334 2 32.001 2c21.333 0 32 -10.667 32 -32v-1122c0 -16 -8 -25.333 -24 -28c-11.333 -2 -23.833 -3.83301 -37.5 -5.5s-27 -3 -40 -4s-25 -1.66699 -36 -2
s-19.167 -0.5 -24.5 -0.5c-16 0 -24 8.33301 -24 25v990c0 18.667 -1.83301 33.834 -5.5 45.501s-9 20.834 -16 27.501s-15.333 11.334 -25 14.001s-20.5 4 -32.5 4c-14.667 0 -29.334 -1 -44.001 -3zM452 1256h-61.001l-154 164h-8l-154 -164h-57l-7 8l146 240
c4 7.33301 8.66699 13.5 14 18.5s13 8.16699 23 9.5c21.333 3.33301 38.833 5.33301 52.5 6s23.5 1 29.5 1c10 0 17.333 -2.33301 22 -7s9.33398 -11 14.001 -19l147 -249z" />
    <glyph glyph-name="Idieresis" unicode="&#xcf;" horiz-adv-x="506" 
d="M31 1145c36 6.66699 70.167 12.3291 102.5 16.9961s61 8.33398 86 11.001s45.833 4.66699 62.5 6s27.334 2 32.001 2c21.333 0 32 -10.667 32 -32v-1122c0 -16 -8 -25.333 -24 -28c-11.333 -2 -23.833 -3.83301 -37.5 -5.5s-27 -3 -40 -4s-25 -1.66699 -36 -2
s-19.167 -0.5 -24.5 -0.5c-16 0 -24 8.33301 -24 25v990c0 18.667 -1.83301 33.834 -5.5 45.501s-9 20.834 -16 27.501s-15.333 11.334 -25 14.001s-20.5 4 -32.5 4c-14.667 0 -29.334 -1 -44.001 -3zM170 1407c0 -34 -9.33203 -59 -27.999 -75s-45 -24 -79 -24
c-28.667 0 -50.834 9 -66.501 27s-23.5 42 -23.5 72c0 34 9.66699 58.667 29 74s46 23 80 23c28.667 0 50.5 -8.66699 65.5 -26s22.5 -41 22.5 -71zM497.001 1407c0 -34 -9.33203 -59 -27.999 -75s-45 -24 -79 -24c-28.667 0 -50.834 9 -66.501 27s-23.5 42 -23.5 72
c0 34 9.66699 58.667 29 74s46 23 80 23c28.667 0 50.5 -8.66699 65.5 -26s22.5 -41 22.5 -71z" />
    <glyph glyph-name="Eth" unicode="&#xd0;" horiz-adv-x="1295" 
d="M184 0c-16 0 -23.998 8.33203 -23.998 24.999v547l-113 -1l-5 86h118v355c0 34 -7.33301 56.5 -22 67.5s-33.667 16.5 -57 16.5c-13.333 0 -28 -1 -44 -3l-6 54c74.667 12.667 150.167 22.834 226.5 30.501s152.833 11.5 229.5 11.5c64 0 126.5 -3.66699 187.5 -11
s118.333 -19.666 172 -36.999s102.834 -40.333 147.501 -69s83.167 -64.334 115.5 -107.001s57.5 -93 75.5 -151s27 -125 27 -201c0 -100.667 -17.833 -190.167 -53.5 -268.5s-85.334 -144.5 -149.001 -198.5s-139.334 -95 -227.001 -123s-183.167 -42 -286.5 -42
c-30 0 -56.5 1 -79.5 3s-45.833 4.16699 -68.5 6.5s-46.834 4.5 -72.501 6.5s-56.167 3 -91.5 3zM346.002 656.999h328.999l-5 -82l-324 -2v-493c25.333 -6 51 -10.167 77 -12.5s53 -3.5 81 -3.5c80 0 151.333 12.167 214 36.5s115.334 59.166 158.001 104.499
s75.167 100.333 97.5 165s33.5 137.334 33.5 218.001c0 76.667 -11.5 146.667 -34.5 210s-56.5 117.833 -100.5 163.5s-98 81 -162 106s-137 37.5 -219 37.5h-51c-30 0 -53.167 -2.5 -69.5 -7.5s-24.5 -18.5 -24.5 -40.5v-400z" />
    <glyph glyph-name="Ntilde" unicode="&#xd1;" horiz-adv-x="1220" 
d="M254 1198c7.33301 0 12.998 -2.16699 16.998 -6.5s8.66699 -9.83301 14 -16.5l691 -917l-25 897c0 8 5.33301 12.333 16 13c12 2 28 4 48 6s39.333 3 58 3c10.667 0 16 -5 16 -15l-24 -975v-183c0 -8 -5.33301 -12.333 -16 -13c-12 -1.33301 -25.5 -2.33301 -40.5 -3
s-30.167 -1 -45.5 -1c-6 0 -10.667 1.16699 -14 3.5s-6.66602 6.16602 -9.99902 11.499l-696 924l25 -920c0 -8 -5.33301 -12.333 -16 -13c-12 -2 -28.5 -3.66699 -49.5 -5s-39.833 -2 -56.5 -2c-10.667 0 -16 5 -16 15l25 1042l-82 112
c-2.66699 2.66699 -4 6.33398 -4 11.001c0 8.66699 6 14.667 18 18c10.667 2 24.334 3.83301 41.001 5.5s33.5 3.16699 50.5 4.5s32.5 2.33301 46.5 3s23.667 1 29 1zM915.998 1462c-36 -66 -70.501 -113.668 -103.501 -143.001s-63.833 -44 -92.5 -44
c-16.667 0 -35.167 5.16699 -55.5 15.5s-40.833 21.5 -61.5 33.5l-52.5 29c-16.333 8.66699 -30.833 13 -43.5 13c-16 0 -34.167 -8.83301 -54.5 -26.5s-41.166 -40.5 -62.499 -68.5l-45 36c40 68 76 115.5 108 142.5s61 40.5 87 40.5c20 0 40.5 -5.16699 61.5 -15.5
s41.5 -21.5 61.5 -33.5c18 -11.333 35 -21.166 51 -29.499s30.333 -12.5 43 -12.5c19.333 0 38.833 9 58.5 27s38.5 38.667 56.5 62z" />
    <glyph glyph-name="Ograve" unicode="&#xd2;" horiz-adv-x="1350" 
d="M706 1189c86 0 163.667 -13.334 233 -40.001s128.5 -65.167 177.5 -115.5s86.833 -112.166 113.5 -185.499s40 -156.333 40 -249c0 -101.333 -14.833 -191 -44.5 -269s-71.834 -143.5 -126.501 -196.5s-120.5 -93.333 -197.5 -121s-162.833 -41.5 -257.5 -41.5
c-86 0 -163.833 13.833 -233.5 41.5s-129 67.167 -178 118.5s-86.667 114 -113 188s-39.5 157.667 -39.5 251c0 100.667 14.833 189.667 44.5 267s71.834 142 126.501 194s120.5 91.333 197.5 118s162.833 40 257.5 40zM656 1105c-65.333 0 -121.333 -13.333 -168 -40
s-84.834 -62.334 -114.501 -107.001s-51.5 -96 -65.5 -154s-21 -118.333 -21 -181c0 -70 7.5 -139 22.5 -207s38.833 -128.667 71.5 -182s75 -96.5 127 -129.5s114.667 -49.5 188 -49.5c65.333 0 121.333 13.833 168 41.5s84.834 64.334 114.501 110.001s51.5 98 65.5 157
s21 119.833 21 182.5c0 70 -7.5 138.5 -22.5 205.5s-38.833 126.667 -71.5 179s-75 94.5 -127 126.5s-114.667 48 -188 48zM715 1256l-54 -0.00195312l-159 247c-2.66699 4.66699 -4 8.33398 -4 11.001c0 8 5.66699 13 17 15c16 4 34.333 6.66699 55 8s37 2 49 2
c10 0 17.167 -2.66699 21.5 -8s7.5 -11.666 9.5 -18.999l72 -248z" />
    <glyph glyph-name="Oacute" unicode="&#xd3;" horiz-adv-x="1350" 
d="M706 1189c86 0 163.667 -13.334 233 -40.001s128.5 -65.167 177.5 -115.5s86.833 -112.166 113.5 -185.499s40 -156.333 40 -249c0 -101.333 -14.833 -191 -44.5 -269s-71.834 -143.5 -126.501 -196.5s-120.5 -93.333 -197.5 -121s-162.833 -41.5 -257.5 -41.5
c-86 0 -163.833 13.833 -233.5 41.5s-129 67.167 -178 118.5s-86.667 114 -113 188s-39.5 157.667 -39.5 251c0 100.667 14.833 189.667 44.5 267s71.834 142 126.501 194s120.5 91.333 197.5 118s162.833 40 257.5 40zM656 1105c-65.333 0 -121.333 -13.333 -168 -40
s-84.834 -62.334 -114.501 -107.001s-51.5 -96 -65.5 -154s-21 -118.333 -21 -181c0 -70 7.5 -139 22.5 -207s38.833 -128.667 71.5 -182s75 -96.5 127 -129.5s114.667 -49.5 188 -49.5c65.333 0 121.333 13.833 168 41.5s84.834 64.334 114.501 110.001s51.5 98 65.5 157
s21 119.833 21 182.5c0 70 -7.5 138.5 -22.5 205.5s-38.833 126.667 -71.5 179s-75 94.5 -127 126.5s-114.667 48 -188 48zM628 1264l72.001 248.002c2 7.33301 5.16699 13.666 9.5 18.999s11.5 8 21.5 8c6 0 13.167 -0.166992 21.5 -0.5s17.166 -0.833008 26.499 -1.5
s19 -1.66699 29 -3s19 -3 27 -5c11.333 -2 17 -7 17 -15c0 -2.66699 -1.33301 -6.33398 -4 -11.001l-159 -247h-54z" />
    <glyph glyph-name="Ocircumflex" unicode="&#xd4;" horiz-adv-x="1350" 
d="M706 1189c86 0 163.667 -13.334 233 -40.001s128.5 -65.167 177.5 -115.5s86.833 -112.166 113.5 -185.499s40 -156.333 40 -249c0 -101.333 -14.833 -191 -44.5 -269s-71.834 -143.5 -126.501 -196.5s-120.5 -93.333 -197.5 -121s-162.833 -41.5 -257.5 -41.5
c-86 0 -163.833 13.833 -233.5 41.5s-129 67.167 -178 118.5s-86.667 114 -113 188s-39.5 157.667 -39.5 251c0 100.667 14.833 189.667 44.5 267s71.834 142 126.501 194s120.5 91.333 197.5 118s162.833 40 257.5 40zM656 1105c-65.333 0 -121.333 -13.333 -168 -40
s-84.834 -62.334 -114.501 -107.001s-51.5 -96 -65.5 -154s-21 -118.333 -21 -181c0 -70 7.5 -139 22.5 -207s38.833 -128.667 71.5 -182s75 -96.5 127 -129.5s114.667 -49.5 188 -49.5c65.333 0 121.333 13.833 168 41.5s84.834 64.334 114.501 110.001s51.5 98 65.5 157
s21 119.833 21 182.5c0 70 -7.5 138.5 -22.5 205.5s-38.833 126.667 -71.5 179s-75 94.5 -127 126.5s-114.667 48 -188 48zM892 1256h-61.001l-154 164h-8l-154 -164h-57l-7 8l146 240c4 7.33301 8.66699 13.5 14 18.5s13 8.16699 23 9.5
c21.333 3.33301 38.833 5.33301 52.5 6s23.5 1 29.5 1c10 0 17.333 -2.33301 22 -7s9.33398 -11 14.001 -19l147 -249z" />
    <glyph glyph-name="Otilde" unicode="&#xd5;" horiz-adv-x="1350" 
d="M706 1189c86 0 163.667 -13.334 233 -40.001s128.5 -65.167 177.5 -115.5s86.833 -112.166 113.5 -185.499s40 -156.333 40 -249c0 -101.333 -14.833 -191 -44.5 -269s-71.834 -143.5 -126.501 -196.5s-120.5 -93.333 -197.5 -121s-162.833 -41.5 -257.5 -41.5
c-86 0 -163.833 13.833 -233.5 41.5s-129 67.167 -178 118.5s-86.667 114 -113 188s-39.5 157.667 -39.5 251c0 100.667 14.833 189.667 44.5 267s71.834 142 126.501 194s120.5 91.333 197.5 118s162.833 40 257.5 40zM656 1105c-65.333 0 -121.333 -13.333 -168 -40
s-84.834 -62.334 -114.501 -107.001s-51.5 -96 -65.5 -154s-21 -118.333 -21 -181c0 -70 7.5 -139 22.5 -207s38.833 -128.667 71.5 -182s75 -96.5 127 -129.5s114.667 -49.5 188 -49.5c65.333 0 121.333 13.833 168 41.5s84.834 64.334 114.501 110.001s51.5 98 65.5 157
s21 119.833 21 182.5c0 70 -7.5 138.5 -22.5 205.5s-38.833 126.667 -71.5 179s-75 94.5 -127 126.5s-114.667 48 -188 48zM971 1462c-36 -66 -70.501 -113.668 -103.501 -143.001s-63.833 -44 -92.5 -44c-16.667 0 -35.167 5.16699 -55.5 15.5s-40.833 21.5 -61.5 33.5
l-52.5 29c-16.333 8.66699 -30.833 13 -43.5 13c-16 0 -34.167 -8.83301 -54.5 -26.5s-41.166 -40.5 -62.499 -68.5l-45 36c40 68 76 115.5 108 142.5s61 40.5 87 40.5c20 0 40.5 -5.16699 61.5 -15.5s41.5 -21.5 61.5 -33.5c18 -11.333 35 -21.166 51 -29.499
s30.333 -12.5 43 -12.5c19.333 0 38.833 9 58.5 27s38.5 38.667 56.5 62z" />
    <glyph glyph-name="Odieresis" unicode="&#xd6;" horiz-adv-x="1350" 
d="M706 1189c86 0 163.667 -13.334 233 -40.001s128.5 -65.167 177.5 -115.5s86.833 -112.166 113.5 -185.499s40 -156.333 40 -249c0 -101.333 -14.833 -191 -44.5 -269s-71.834 -143.5 -126.501 -196.5s-120.5 -93.333 -197.5 -121s-162.833 -41.5 -257.5 -41.5
c-86 0 -163.833 13.833 -233.5 41.5s-129 67.167 -178 118.5s-86.667 114 -113 188s-39.5 157.667 -39.5 251c0 100.667 14.833 189.667 44.5 267s71.834 142 126.501 194s120.5 91.333 197.5 118s162.833 40 257.5 40zM656 1105c-65.333 0 -121.333 -13.333 -168 -40
s-84.834 -62.334 -114.501 -107.001s-51.5 -96 -65.5 -154s-21 -118.333 -21 -181c0 -70 7.5 -139 22.5 -207s38.833 -128.667 71.5 -182s75 -96.5 127 -129.5s114.667 -49.5 188 -49.5c65.333 0 121.333 13.833 168 41.5s84.834 64.334 114.501 110.001s51.5 98 65.5 157
s21 119.833 21 182.5c0 70 -7.5 138.5 -22.5 205.5s-38.833 126.667 -71.5 179s-75 94.5 -127 126.5s-114.667 48 -188 48zM610 1407c0 -34 -9.33203 -59 -27.999 -75s-45 -24 -79 -24c-28.667 0 -50.834 9 -66.501 27s-23.5 42 -23.5 72c0 34 9.66699 58.667 29 74
s46 23 80 23c28.667 0 50.5 -8.66699 65.5 -26s22.5 -41 22.5 -71zM937.001 1407c0 -34 -9.33203 -59 -27.999 -75s-45 -24 -79 -24c-28.667 0 -50.834 9 -66.501 27s-23.5 42 -23.5 72c0 34 9.66699 58.667 29 74s46 23 80 23c28.667 0 50.5 -8.66699 65.5 -26
s22.5 -41 22.5 -71z" />
    <glyph glyph-name="multiply" unicode="&#xd7;" horiz-adv-x="805" 
d="M346 392l-286 285l50 57l289 -289l287 289l59 -51l-295 -290l293 -292l-62 -40l-283 280l-291 -285l-41 54z" />
    <glyph glyph-name="Oslash" unicode="&#xd8;" horiz-adv-x="1350" 
d="M706 1189c137.333 0 252.667 -33.667 346 -101l84 99l70 -41l-93 -109c50 -50.667 88.667 -112 116 -184s41 -156.667 41 -254c0 -101.333 -14.833 -191 -44.5 -269s-71.834 -143.5 -126.501 -196.5s-120.5 -93.333 -197.5 -121s-162.833 -41.5 -257.5 -41.5
c-138 0 -253.333 34 -346 102l-84 -99l-70 41l94 111c-50.667 52 -89.667 114.5 -117 187.5s-41 158.5 -41 256.5c0 100.667 14.833 189.667 44.5 267s71.834 142 126.501 194s120.5 91.333 197.5 118s162.833 40 257.5 40zM1066 546c0 62.667 -6 123.833 -18 183.5
s-30.667 114.5 -56 164.5l-589 -696c34 -44 74.667 -79.167 122 -105.5s104.333 -39.5 171 -39.5c65.333 0 121.333 13.833 168 41.5s85 64.5 115 110.5s52 98.5 66 157.5s21 120.167 21 183.5zM656.001 1107c-65.333 0 -121.5 -13.499 -168.5 -40.499
s-85.5 -62.833 -115.5 -107.5s-52.167 -96.167 -66.5 -154.5s-21.5 -118.833 -21.5 -181.5s6 -124.334 18 -185.001s31 -117 57 -169l589 696c-34 44 -74.5 78.667 -121.5 104s-103.833 38 -170.5 38z" />
    <glyph glyph-name="Ugrave" unicode="&#xd9;" horiz-adv-x="1225" 
d="M336 365c-0.666992 -50 5.66504 -92.1709 18.998 -126.504s32 -62 56 -83s52 -36 84 -45s66.667 -13.5 104 -13.5c48 0 95.167 7.66699 141.5 23s92.5 34.333 138.5 57v954c0 15.333 8 24.666 24 27.999c10.667 2 22.834 3.66699 36.501 5s27.167 2.5 40.5 3.5
s25.5 1.83301 36.5 2.5s19.167 1 24.5 1c16 0 24 -8.33301 24 -25v-1119c0 -16 -8 -25.333 -24 -28c-11.333 -2 -23.5 -3.83301 -36.5 -5.5s-25.667 -3 -38 -4s-23.5 -1.66699 -33.5 -2s-17.667 -0.5 -23 -0.5c-15.333 0 -23.333 8.33301 -24 25l-7 82
c-62.667 -34.667 -128.5 -63.5 -197.5 -86.5s-138.833 -34.5 -209.5 -34.5c-44 0 -85.667 6 -125 18s-73.5 30.333 -102.5 55s-52 56.167 -69 94.5s-25.5 83.5 -25.5 135.5v726c0 18.667 -1.83301 33.834 -5.5 45.501s-9 20.834 -16 27.501s-15.333 11.334 -25 14.001
s-20.5 4 -32.5 4c-13.333 0 -28 -1 -44 -3l-6 55c36 6.66699 70.167 12.334 102.5 17.001s61 8.33398 86 11.001s45.833 4.66699 62.5 6s27.334 2 32.001 2c21.333 0 32 -10.667 32 -32v-784zM644.999 1256l-54 -0.00195312l-159 247c-2.66699 4.66699 -4 8.33398 -4 11.001
c0 8 5.66699 13 17 15c16 4 34.333 6.66699 55 8s37 2 49 2c10 0 17.167 -2.66699 21.5 -8s7.5 -11.666 9.5 -18.999l72 -248z" />
    <glyph glyph-name="Uacute" unicode="&#xda;" horiz-adv-x="1225" 
d="M336 365c-0.666992 -50 5.66504 -92.1709 18.998 -126.504s32 -62 56 -83s52 -36 84 -45s66.667 -13.5 104 -13.5c48 0 95.167 7.66699 141.5 23s92.5 34.333 138.5 57v954c0 15.333 8 24.666 24 27.999c10.667 2 22.834 3.66699 36.501 5s27.167 2.5 40.5 3.5
s25.5 1.83301 36.5 2.5s19.167 1 24.5 1c16 0 24 -8.33301 24 -25v-1119c0 -16 -8 -25.333 -24 -28c-11.333 -2 -23.5 -3.83301 -36.5 -5.5s-25.667 -3 -38 -4s-23.5 -1.66699 -33.5 -2s-17.667 -0.5 -23 -0.5c-15.333 0 -23.333 8.33301 -24 25l-7 82
c-62.667 -34.667 -128.5 -63.5 -197.5 -86.5s-138.833 -34.5 -209.5 -34.5c-44 0 -85.667 6 -125 18s-73.5 30.333 -102.5 55s-52 56.167 -69 94.5s-25.5 83.5 -25.5 135.5v726c0 18.667 -1.83301 33.834 -5.5 45.501s-9 20.834 -16 27.501s-15.333 11.334 -25 14.001
s-20.5 4 -32.5 4c-13.333 0 -28 -1 -44 -3l-6 55c36 6.66699 70.167 12.334 102.5 17.001s61 8.33398 86 11.001s45.833 4.66699 62.5 6s27.334 2 32.001 2c21.333 0 32 -10.667 32 -32v-784zM557.999 1264l72.001 248.002c2 7.33301 5.16699 13.666 9.5 18.999
s11.5 8 21.5 8c6 0 13.167 -0.166992 21.5 -0.5s17.166 -0.833008 26.499 -1.5s19 -1.66699 29 -3s19 -3 27 -5c11.333 -2 17 -7 17 -15c0 -2.66699 -1.33301 -6.33398 -4 -11.001l-159 -247h-54z" />
    <glyph glyph-name="Ucircumflex" unicode="&#xdb;" horiz-adv-x="1225" 
d="M336 365c-0.666992 -50 5.66504 -92.1709 18.998 -126.504s32 -62 56 -83s52 -36 84 -45s66.667 -13.5 104 -13.5c48 0 95.167 7.66699 141.5 23s92.5 34.333 138.5 57v954c0 15.333 8 24.666 24 27.999c10.667 2 22.834 3.66699 36.501 5s27.167 2.5 40.5 3.5
s25.5 1.83301 36.5 2.5s19.167 1 24.5 1c16 0 24 -8.33301 24 -25v-1119c0 -16 -8 -25.333 -24 -28c-11.333 -2 -23.5 -3.83301 -36.5 -5.5s-25.667 -3 -38 -4s-23.5 -1.66699 -33.5 -2s-17.667 -0.5 -23 -0.5c-15.333 0 -23.333 8.33301 -24 25l-7 82
c-62.667 -34.667 -128.5 -63.5 -197.5 -86.5s-138.833 -34.5 -209.5 -34.5c-44 0 -85.667 6 -125 18s-73.5 30.333 -102.5 55s-52 56.167 -69 94.5s-25.5 83.5 -25.5 135.5v726c0 18.667 -1.83301 33.834 -5.5 45.501s-9 20.834 -16 27.501s-15.333 11.334 -25 14.001
s-20.5 4 -32.5 4c-13.333 0 -28 -1 -44 -3l-6 55c36 6.66699 70.167 12.334 102.5 17.001s61 8.33398 86 11.001s45.833 4.66699 62.5 6s27.334 2 32.001 2c21.333 0 32 -10.667 32 -32v-784zM821.999 1256h-61.001l-154 164h-8l-154 -164h-57l-7 8l146 240
c4 7.33301 8.66699 13.5 14 18.5s13 8.16699 23 9.5c21.333 3.33301 38.833 5.33301 52.5 6s23.5 1 29.5 1c10 0 17.333 -2.33301 22 -7s9.33398 -11 14.001 -19l147 -249z" />
    <glyph glyph-name="Udieresis" unicode="&#xdc;" horiz-adv-x="1225" 
d="M336 365c-0.666992 -50 5.66504 -92.1709 18.998 -126.504s32 -62 56 -83s52 -36 84 -45s66.667 -13.5 104 -13.5c48 0 95.167 7.66699 141.5 23s92.5 34.333 138.5 57v954c0 15.333 8 24.666 24 27.999c10.667 2 22.834 3.66699 36.501 5s27.167 2.5 40.5 3.5
s25.5 1.83301 36.5 2.5s19.167 1 24.5 1c16 0 24 -8.33301 24 -25v-1119c0 -16 -8 -25.333 -24 -28c-11.333 -2 -23.5 -3.83301 -36.5 -5.5s-25.667 -3 -38 -4s-23.5 -1.66699 -33.5 -2s-17.667 -0.5 -23 -0.5c-15.333 0 -23.333 8.33301 -24 25l-7 82
c-62.667 -34.667 -128.5 -63.5 -197.5 -86.5s-138.833 -34.5 -209.5 -34.5c-44 0 -85.667 6 -125 18s-73.5 30.333 -102.5 55s-52 56.167 -69 94.5s-25.5 83.5 -25.5 135.5v726c0 18.667 -1.83301 33.834 -5.5 45.501s-9 20.834 -16 27.501s-15.333 11.334 -25 14.001
s-20.5 4 -32.5 4c-13.333 0 -28 -1 -44 -3l-6 55c36 6.66699 70.167 12.334 102.5 17.001s61 8.33398 86 11.001s45.833 4.66699 62.5 6s27.334 2 32.001 2c21.333 0 32 -10.667 32 -32v-784zM539.999 1407c0 -34 -9.33203 -59 -27.999 -75s-45 -24 -79 -24
c-28.667 0 -50.834 9 -66.501 27s-23.5 42 -23.5 72c0 34 9.66699 58.667 29 74s46 23 80 23c28.667 0 50.5 -8.66699 65.5 -26s22.5 -41 22.5 -71zM867 1407c0 -34 -9.33203 -59 -27.999 -75s-45 -24 -79 -24c-28.667 0 -50.834 9 -66.501 27s-23.5 42 -23.5 72
c0 34 9.66699 58.667 29 74s46 23 80 23c28.667 0 50.5 -8.66699 65.5 -26s22.5 -41 22.5 -71z" />
    <glyph glyph-name="Yacute" unicode="&#xdd;" horiz-adv-x="986" 
d="M217 1181c10 0 17.999 -3 23.999 -9s12 -14.667 18 -26l284 -510l242 493c4 8 8.33301 14.333 13 19s11.667 8.33398 21 11.001s19.333 4.66699 30 6s21 2.5 31 3.5s19.167 1.66699 27.5 2s14.833 0.5 19.5 0.5c12 0 18 -4 18 -12
c0 -2.66699 -0.666992 -5.33398 -2 -8.00098s-2.66602 -5.66699 -3.99902 -9l-359 -602v-513c0 -16 -8 -25.333 -24 -28c-11.333 -2 -23.833 -3.83301 -37.5 -5.5s-27 -3 -40 -4s-25 -1.66699 -36 -2s-19.167 -0.5 -24.5 -0.5c-16 0 -24 8.33301 -24 25v510l-277 494
c-16.667 30 -32.334 50.833 -47.001 62.5s-32.667 17.5 -54 17.5c-5.33301 0 -11.333 -0.5 -18 -1.5l-23 -3.5l-6 55c29.333 6 57.833 11.167 85.5 15.5s52.834 8 75.501 11s41.667 5.16699 57 6.5s25.333 2 30 2zM457.999 1264l72.001 248.002
c2 7.33301 5.16699 13.666 9.5 18.999s11.5 8 21.5 8c6 0 13.167 -0.166992 21.5 -0.5s17.166 -0.833008 26.499 -1.5s19 -1.66699 29 -3s19 -3 27 -5c11.333 -2 17 -7 17 -15c0 -2.66699 -1.33301 -6.33398 -4 -11.001l-159 -247h-54z" />
    <glyph glyph-name="Thorn" unicode="&#xde;" horiz-adv-x="1003" 
d="M31 1145c36 6.66699 70.1641 12.3271 102.497 16.9941s61 8.33398 86 11.001s45.833 4.66699 62.5 6s27.334 2 32.001 2c21.333 0 32 -10.667 32 -32v-194c16.667 1.33301 33.334 2.33301 50.001 3s33.334 1 50.001 1c40 0 79.833 -1.33301 119.5 -4s77.667 -8 114 -16
s70.333 -19.167 102 -33.5s59 -33 82 -56s41.167 -51 54.5 -84s20 -71.833 20 -116.5c0 -48 -7 -90.667 -21 -128s-33.167 -70.166 -57.5 -98.499s-53.5 -52.666 -87.5 -72.999s-71 -37 -111 -50s-82.333 -22.833 -127 -29.5s-90 -10.667 -136 -12l-10 56
c55.333 3.33301 104.5 10.833 147.5 22.5s79.167 29.167 108.5 52.5s51.5 53.166 66.5 89.499s22.5 80.833 22.5 133.5c0 44 -7.33301 82.833 -22 116.5s-35 61.834 -61 84.501s-57.167 39.667 -93.5 51s-76.166 17 -119.499 17c-30 0 -52.667 -1.83301 -68 -5.5
s-23 -16.5 -23 -38.5v-810c0 -16 -8 -25.333 -24 -28c-11.333 -2 -23.833 -3.83301 -37.5 -5.5s-27 -3 -40 -4s-25 -1.66699 -36 -2s-19.167 -0.5 -24.5 -0.5c-16 0 -24 8.33301 -24 25v990c0 18.667 -1.83301 33.834 -5.5 45.501s-9 20.834 -16 27.501
s-15.333 11.334 -25 14.001s-20.5 4 -32.5 4c-14.667 0 -29.334 -1 -44.001 -3z" />
    <glyph glyph-name="germandbls" unicode="&#xdf;" horiz-adv-x="1061" 
d="M591 199c0 -44 9.83789 -77.8359 29.5049 -101.503s52.5 -35.5 98.5 -35.5c34 0 63.167 9.33301 87.5 28s36.5 47.334 36.5 86.001c0 22.667 -4.66699 42 -14 58s-21.833 30.167 -37.5 42.5s-33.834 23.5 -54.501 33.5l-65 30c-26.667 11.333 -53 24.5 -79 39.5
s-49.5 32.667 -70.5 53s-38 43.833 -51 70.5s-19.5 57.667 -19.5 93c0 38 6.66699 69.833 20 95.5s30.166 48.5 50.499 68.5s42.166 38.667 65.499 56s45.166 36.833 65.499 58.5s37.166 46.834 50.499 75.501s20 64.667 20 108c0 29.333 -4.33301 56.666 -13 81.999
s-21.167 47.333 -37.5 66s-36.166 33.334 -59.499 44.001s-49.333 16 -78 16c-43.333 0 -78.666 -7.5 -105.999 -22.5s-49 -35.5 -65 -61.5s-27 -56.5 -33 -91.5s-9 -72.5 -9 -112.5v-951c0 -16 -8 -25.333 -24 -28c-11.333 -2 -23.5 -3.83301 -36.5 -5.5s-25.5 -3 -37.5 -4
s-23 -1.66699 -33 -2s-17.667 -0.5 -23 -0.5c-16 0 -24 8.33301 -24 25v631c-19.333 0 -37.666 -0.166992 -54.999 -0.5s-37.333 -1.16602 -60 -2.49902l-3 67c17.333 1.33301 36.333 2.66602 57 3.99902l61 4v144c0 74 8.33301 141 25 201s42.5 111.167 77.5 153.5
s79.333 75 133 98s117.167 34.5 190.5 34.5c41.333 0 81.5 -6 120.5 -18s73.5 -29.833 103.5 -53.5s54 -52.834 72 -87.501s27 -74.667 27 -120s-6.83301 -83.333 -20.5 -114s-30.834 -57 -51.501 -79s-43.167 -41.167 -67.5 -57.5s-46.833 -32.666 -67.5 -48.999
s-37.834 -34 -51.501 -53s-20.5 -42.167 -20.5 -69.5c0 -22 5.16699 -41.5 15.5 -58.5s24.166 -32.333 41.499 -46s37 -26 59 -37s44.667 -21.5 68 -31.5l78 -37c26 -12.667 49.333 -27.834 70 -45.501s37.334 -38.667 50.001 -63s19 -53.833 19 -88.5
c0 -46 -10.333 -85.167 -31 -117.5s-47.167 -59 -79.5 -80s-68.333 -36.333 -108 -46s-78.167 -14.5 -115.5 -14.5c-23.333 0 -49.166 2.5 -77.499 7.5s-55 13.167 -80 24.5s-46 26.333 -63 45s-25.5 41.667 -25.5 69c0 32.667 11 56.334 33 71.001s50 22 84 22
c7.33301 0 13.666 -0.166992 18.999 -0.5s11.666 -1.16602 18.999 -2.49902v-17z" />
    <glyph glyph-name="agrave" unicode="&#xe0;" horiz-adv-x="811" 
d="M107 671c34.667 14 68.8262 26.332 102.493 36.999s65.334 19.5 95.001 26.5s56.667 12.333 81 16s44.5 5.5 60.5 5.5c48 0 88.333 -5.5 121 -16.5s59 -28.5 79 -52.5s34.333 -54.5 43 -91.5s12.667 -81.5 12 -133.5l-5 -326c-0.666992 -20.667 0.666016 -40 3.99902 -58
s7 -35.667 11 -53c0.666992 -0.666992 1 -3.33398 1 -8.00098c0 -10 -6.66699 -16 -20 -18c-8.66699 -2 -18.5 -3.83301 -29.5 -5.5s-22.167 -3 -33.5 -4s-22.666 -1.66699 -33.999 -2s-21.333 -0.5 -30 -0.5c-7.33301 0 -12.833 2 -16.5 6s-6.5 10 -8.5 18l-13 48
c-25.333 -11.333 -51.333 -21.833 -78 -31.5s-52.167 -18 -76.5 -25s-46.5 -12.5 -66.5 -16.5s-36.333 -6 -49 -6c-35.333 0 -66 6.5 -92 19.5s-47.333 29.333 -64 49s-29 41.334 -37 65.001s-12 46.167 -12 67.5c0 38 6.83301 70.167 20.5 96.5s32.167 48.166 55.5 65.499
c20.667 15.333 44.834 28 72.501 38s58.167 17.833 91.5 23.5s69.333 9.83398 108 12.501s79.334 4.66699 122.001 6l1 34c0.666992 30.667 -1.16602 58.167 -5.49902 82.5s-12.166 44.833 -23.499 61.5s-26.666 29.334 -45.999 38.001s-43.666 13 -72.999 13
c-36 0 -73.5 -4 -112.5 -12s-83.5 -20 -133.5 -36zM520.992 354.999l-88.001 -5.5c-27.333 -1.66699 -52.333 -4.16699 -75 -7.5s-42.667 -8.5 -60 -15.5s-31.333 -16.833 -42 -29.5c-8 -9.33301 -14.667 -21 -20 -35s-8 -29.333 -8 -46c0 -14 2.16699 -28.333 6.5 -43
s12 -28.167 23 -40.5s25.833 -22.5 44.5 -30.5s42.334 -12 71.001 -12c4 0 10.5 0.666992 19.5 2s20 3.5 33 6.5s27.5 7.16699 43.5 12.5s32.333 12 49 20zM444.991 825.999l-54 -0.000976562l-183 327c-2.66699 4.66699 -4 8.66699 -4 12c0 7.33301 5.33301 12 16 14
c8 2 17.667 3.66699 29 5s22.833 2.5 34.5 3.5s22.5 1.66699 32.5 2s17.667 0.5 23 0.5c10 0 17.5 -2.66699 22.5 -8s8.5 -11.666 10.5 -18.999l80 -329z" />
    <glyph glyph-name="aacute" unicode="&#xe1;" horiz-adv-x="811" 
d="M107 671c34.667 14 68.8262 26.332 102.493 36.999s65.334 19.5 95.001 26.5s56.667 12.333 81 16s44.5 5.5 60.5 5.5c48 0 88.333 -5.5 121 -16.5s59 -28.5 79 -52.5s34.333 -54.5 43 -91.5s12.667 -81.5 12 -133.5l-5 -326c-0.666992 -20.667 0.666016 -40 3.99902 -58
s7 -35.667 11 -53c0.666992 -0.666992 1 -3.33398 1 -8.00098c0 -10 -6.66699 -16 -20 -18c-8.66699 -2 -18.5 -3.83301 -29.5 -5.5s-22.167 -3 -33.5 -4s-22.666 -1.66699 -33.999 -2s-21.333 -0.5 -30 -0.5c-7.33301 0 -12.833 2 -16.5 6s-6.5 10 -8.5 18l-13 48
c-25.333 -11.333 -51.333 -21.833 -78 -31.5s-52.167 -18 -76.5 -25s-46.5 -12.5 -66.5 -16.5s-36.333 -6 -49 -6c-35.333 0 -66 6.5 -92 19.5s-47.333 29.333 -64 49s-29 41.334 -37 65.001s-12 46.167 -12 67.5c0 38 6.83301 70.167 20.5 96.5s32.167 48.166 55.5 65.499
c20.667 15.333 44.834 28 72.501 38s58.167 17.833 91.5 23.5s69.333 9.83398 108 12.501s79.334 4.66699 122.001 6l1 34c0.666992 30.667 -1.16602 58.167 -5.49902 82.5s-12.166 44.833 -23.499 61.5s-26.666 29.334 -45.999 38.001s-43.666 13 -72.999 13
c-36 0 -73.5 -4 -112.5 -12s-83.5 -20 -133.5 -36zM520.992 354.999l-88.001 -5.5c-27.333 -1.66699 -52.333 -4.16699 -75 -7.5s-42.667 -8.5 -60 -15.5s-31.333 -16.833 -42 -29.5c-8 -9.33301 -14.667 -21 -20 -35s-8 -29.333 -8 -46c0 -14 2.16699 -28.333 6.5 -43
s12 -28.167 23 -40.5s25.833 -22.5 44.5 -30.5s42.334 -12 71.001 -12c4 0 10.5 0.666992 19.5 2s20 3.5 33 6.5s27.5 7.16699 43.5 12.5s32.333 12 49 20zM357.991 833.999l77 318c4 16 14.333 25.333 31 28c10.667 2 22.5 3.66699 35.5 5s25.667 2.33301 38 3
s23.5 1.16699 33.5 1.5s17.667 0.5 23 0.5c11.333 0 17 -4.66699 17 -14c0 -3.33301 -1.33301 -7.33301 -4 -12l-190 -338h-54z" />
    <glyph glyph-name="acircumflex" unicode="&#xe2;" horiz-adv-x="811" 
d="M107 671c34.667 14 68.8262 26.332 102.493 36.999s65.334 19.5 95.001 26.5s56.667 12.333 81 16s44.5 5.5 60.5 5.5c48 0 88.333 -5.5 121 -16.5s59 -28.5 79 -52.5s34.333 -54.5 43 -91.5s12.667 -81.5 12 -133.5l-5 -326c-0.666992 -20.667 0.666016 -40 3.99902 -58
s7 -35.667 11 -53c0.666992 -0.666992 1 -3.33398 1 -8.00098c0 -10 -6.66699 -16 -20 -18c-8.66699 -2 -18.5 -3.83301 -29.5 -5.5s-22.167 -3 -33.5 -4s-22.666 -1.66699 -33.999 -2s-21.333 -0.5 -30 -0.5c-7.33301 0 -12.833 2 -16.5 6s-6.5 10 -8.5 18l-13 48
c-25.333 -11.333 -51.333 -21.833 -78 -31.5s-52.167 -18 -76.5 -25s-46.5 -12.5 -66.5 -16.5s-36.333 -6 -49 -6c-35.333 0 -66 6.5 -92 19.5s-47.333 29.333 -64 49s-29 41.334 -37 65.001s-12 46.167 -12 67.5c0 38 6.83301 70.167 20.5 96.5s32.167 48.166 55.5 65.499
c20.667 15.333 44.834 28 72.501 38s58.167 17.833 91.5 23.5s69.333 9.83398 108 12.501s79.334 4.66699 122.001 6l1 34c0.666992 30.667 -1.16602 58.167 -5.49902 82.5s-12.166 44.833 -23.499 61.5s-26.666 29.334 -45.999 38.001s-43.666 13 -72.999 13
c-36 0 -73.5 -4 -112.5 -12s-83.5 -20 -133.5 -36zM520.992 354.999l-88.001 -5.5c-27.333 -1.66699 -52.333 -4.16699 -75 -7.5s-42.667 -8.5 -60 -15.5s-31.333 -16.833 -42 -29.5c-8 -9.33301 -14.667 -21 -20 -35s-8 -29.333 -8 -46c0 -14 2.16699 -28.333 6.5 -43
s12 -28.167 23 -40.5s25.833 -22.5 44.5 -30.5s42.334 -12 71.001 -12c4 0 10.5 0.666992 19.5 2s20 3.5 33 6.5s27.5 7.16699 43.5 12.5s32.333 12 49 20zM651.991 825.999l-61 -0.000976562l-184 224h-8l-184 -224h-57l-7 8l170 317c3.33301 7.33301 7.5 13.5 12.5 18.5
s11.833 8.16699 20.5 9.5c22 3.33301 41.5 6 58.5 8s29.833 3 38.5 3c10 0 17.5 -2.66699 22.5 -8s9.16699 -11.666 12.5 -18.999l173 -329z" />
    <glyph glyph-name="atilde" unicode="&#xe3;" horiz-adv-x="811" 
d="M107 671c34.667 14 68.8262 26.332 102.493 36.999s65.334 19.5 95.001 26.5s56.667 12.333 81 16s44.5 5.5 60.5 5.5c48 0 88.333 -5.5 121 -16.5s59 -28.5 79 -52.5s34.333 -54.5 43 -91.5s12.667 -81.5 12 -133.5l-5 -326c-0.666992 -20.667 0.666016 -40 3.99902 -58
s7 -35.667 11 -53c0.666992 -0.666992 1 -3.33398 1 -8.00098c0 -10 -6.66699 -16 -20 -18c-8.66699 -2 -18.5 -3.83301 -29.5 -5.5s-22.167 -3 -33.5 -4s-22.666 -1.66699 -33.999 -2s-21.333 -0.5 -30 -0.5c-7.33301 0 -12.833 2 -16.5 6s-6.5 10 -8.5 18l-13 48
c-25.333 -11.333 -51.333 -21.833 -78 -31.5s-52.167 -18 -76.5 -25s-46.5 -12.5 -66.5 -16.5s-36.333 -6 -49 -6c-35.333 0 -66 6.5 -92 19.5s-47.333 29.333 -64 49s-29 41.334 -37 65.001s-12 46.167 -12 67.5c0 38 6.83301 70.167 20.5 96.5s32.167 48.166 55.5 65.499
c20.667 15.333 44.834 28 72.501 38s58.167 17.833 91.5 23.5s69.333 9.83398 108 12.501s79.334 4.66699 122.001 6l1 34c0.666992 30.667 -1.16602 58.167 -5.49902 82.5s-12.166 44.833 -23.499 61.5s-26.666 29.334 -45.999 38.001s-43.666 13 -72.999 13
c-36 0 -73.5 -4 -112.5 -12s-83.5 -20 -133.5 -36zM520.992 354.999l-88.001 -5.5c-27.333 -1.66699 -52.333 -4.16699 -75 -7.5s-42.667 -8.5 -60 -15.5s-31.333 -16.833 -42 -29.5c-8 -9.33301 -14.667 -21 -20 -35s-8 -29.333 -8 -46c0 -14 2.16699 -28.333 6.5 -43
s12 -28.167 23 -40.5s25.833 -22.5 44.5 -30.5s42.334 -12 71.001 -12c4 0 10.5 0.666992 19.5 2s20 3.5 33 6.5s27.5 7.16699 43.5 12.5s32.333 12 49 20zM708.991 1104c-36 -64.667 -71 -112 -105 -142s-65.333 -45 -94 -45c-16 0 -34.167 5 -54.5 15
s-40.5 20.667 -60.5 32c-19.333 11.333 -37.5 21.333 -54.5 30s-32.167 13 -45.5 13c-16 0 -34.333 -8.66699 -55 -26s-41.667 -40 -63 -68l-48 36c20.667 34 40.167 62.5 58.5 85.5s35.833 41.833 52.5 56.5s32.5 25.167 47.5 31.5s29.167 9.5 42.5 9.5
c21.333 0 43 -5.5 65 -16.5s43.333 -22.5 64 -34.5c17.333 -10 33.666 -19 48.999 -27s29 -12 41 -12c19.333 0 38.833 8.83301 58.5 26.5s38.834 38.167 57.501 61.5z" />
    <glyph glyph-name="adieresis" unicode="&#xe4;" horiz-adv-x="811" 
d="M107 671c34.667 14 68.8262 26.332 102.493 36.999s65.334 19.5 95.001 26.5s56.667 12.333 81 16s44.5 5.5 60.5 5.5c48 0 88.333 -5.5 121 -16.5s59 -28.5 79 -52.5s34.333 -54.5 43 -91.5s12.667 -81.5 12 -133.5l-5 -326c-0.666992 -20.667 0.666016 -40 3.99902 -58
s7 -35.667 11 -53c0.666992 -0.666992 1 -3.33398 1 -8.00098c0 -10 -6.66699 -16 -20 -18c-8.66699 -2 -18.5 -3.83301 -29.5 -5.5s-22.167 -3 -33.5 -4s-22.666 -1.66699 -33.999 -2s-21.333 -0.5 -30 -0.5c-7.33301 0 -12.833 2 -16.5 6s-6.5 10 -8.5 18l-13 48
c-25.333 -11.333 -51.333 -21.833 -78 -31.5s-52.167 -18 -76.5 -25s-46.5 -12.5 -66.5 -16.5s-36.333 -6 -49 -6c-35.333 0 -66 6.5 -92 19.5s-47.333 29.333 -64 49s-29 41.334 -37 65.001s-12 46.167 -12 67.5c0 38 6.83301 70.167 20.5 96.5s32.167 48.166 55.5 65.499
c20.667 15.333 44.834 28 72.501 38s58.167 17.833 91.5 23.5s69.333 9.83398 108 12.501s79.334 4.66699 122.001 6l1 34c0.666992 30.667 -1.16602 58.167 -5.49902 82.5s-12.166 44.833 -23.499 61.5s-26.666 29.334 -45.999 38.001s-43.666 13 -72.999 13
c-36 0 -73.5 -4 -112.5 -12s-83.5 -20 -133.5 -36zM520.992 354.999l-88.001 -5.5c-27.333 -1.66699 -52.333 -4.16699 -75 -7.5s-42.667 -8.5 -60 -15.5s-31.333 -16.833 -42 -29.5c-8 -9.33301 -14.667 -21 -20 -35s-8 -29.333 -8 -46c0 -14 2.16699 -28.333 6.5 -43
s12 -28.167 23 -40.5s25.833 -22.5 44.5 -30.5s42.334 -12 71.001 -12c4 0 10.5 0.666992 19.5 2s20 3.5 33 6.5s27.5 7.16699 43.5 12.5s32.333 12 49 20zM339.991 1057c0 -34 -9.33203 -59 -27.999 -75s-45 -24 -79 -24c-28.667 0 -50.834 9 -66.501 27s-23.5 42 -23.5 72
c0 34 9.66699 58.667 29 74s46 23 80 23c28.667 0 50.5 -8.66699 65.5 -26s22.5 -41 22.5 -71zM666.992 1057c0 -34 -9.33203 -59 -27.999 -75s-45 -24 -79 -24c-28.667 0 -50.834 9 -66.501 27s-23.5 42 -23.5 72c0 34 9.66699 58.667 29 74s46 23 80 23
c28.667 0 50.5 -8.66699 65.5 -26s22.5 -41 22.5 -71z" />
    <glyph glyph-name="aring" unicode="&#xe5;" horiz-adv-x="811" 
d="M107 671c34.667 14 68.8262 26.332 102.493 36.999s65.334 19.5 95.001 26.5s56.667 12.333 81 16s44.5 5.5 60.5 5.5c48 0 88.333 -5.5 121 -16.5s59 -28.5 79 -52.5s34.333 -54.5 43 -91.5s12.667 -81.5 12 -133.5l-5 -326c-0.666992 -20.667 0.666016 -40 3.99902 -58
s7 -35.667 11 -53c0.666992 -0.666992 1 -3.33398 1 -8.00098c0 -10 -6.66699 -16 -20 -18c-8.66699 -2 -18.5 -3.83301 -29.5 -5.5s-22.167 -3 -33.5 -4s-22.666 -1.66699 -33.999 -2s-21.333 -0.5 -30 -0.5c-7.33301 0 -12.833 2 -16.5 6s-6.5 10 -8.5 18l-13 48
c-25.333 -11.333 -51.333 -21.833 -78 -31.5s-52.167 -18 -76.5 -25s-46.5 -12.5 -66.5 -16.5s-36.333 -6 -49 -6c-35.333 0 -66 6.5 -92 19.5s-47.333 29.333 -64 49s-29 41.334 -37 65.001s-12 46.167 -12 67.5c0 38 6.83301 70.167 20.5 96.5s32.167 48.166 55.5 65.499
c20.667 15.333 44.834 28 72.501 38s58.167 17.833 91.5 23.5s69.333 9.83398 108 12.501s79.334 4.66699 122.001 6l1 34c0.666992 30.667 -1.16602 58.167 -5.49902 82.5s-12.166 44.833 -23.499 61.5s-26.666 29.334 -45.999 38.001s-43.666 13 -72.999 13
c-36 0 -73.5 -4 -112.5 -12s-83.5 -20 -133.5 -36zM520.992 354.999l-88.001 -5.5c-27.333 -1.66699 -52.333 -4.16699 -75 -7.5s-42.667 -8.5 -60 -15.5s-31.333 -16.833 -42 -29.5c-8 -9.33301 -14.667 -21 -20 -35s-8 -29.333 -8 -46c0 -14 2.16699 -28.333 6.5 -43
s12 -28.167 23 -40.5s25.833 -22.5 44.5 -30.5s42.334 -12 71.001 -12c4 0 10.5 0.666992 19.5 2s20 3.5 33 6.5s27.5 7.16699 43.5 12.5s32.333 12 49 20zM622.991 1057c0 -26 -5.16699 -49.8359 -15.5 -71.5029s-24.833 -40.5 -43.5 -56.5s-41 -28.333 -67 -37
s-55 -13 -87 -13s-61.167 4.33301 -87.5 13s-48.833 20.667 -67.5 36s-33 34 -43 56s-15 46.333 -15 73c0 26 5.5 49.833 16.5 71.5s26.167 40.334 45.5 56.001s41.833 27.834 67.5 36.501s53.5 13 83.5 13s58 -4.16699 84 -12.5s48.5 -20.166 67.5 -35.499s34 -34 45 -56
s16.5 -46.333 16.5 -73zM507.991 1057c0 36 -8.33301 66.167 -25 90.5s-41 36.5 -73 36.5s-56.333 -11.167 -73 -33.5s-25 -53.5 -25 -93.5c0 -36 8.33301 -66.167 25 -90.5s41 -36.5 73 -36.5s56.333 11.667 73 35s25 54 25 92z" />
    <glyph glyph-name="ae" unicode="&#xe6;" horiz-adv-x="1249" 
d="M560 151c-17.333 30.667 -29.501 63.5 -36.501 98.5s-10.5 73.5 -10.5 115.5l-84.5 -9c-26.333 -2.66699 -50.5 -6.33398 -72.5 -11.001s-41.5 -10.667 -58.5 -18s-30.833 -17.333 -41.5 -30c-8 -9.33301 -14.667 -21 -20 -35s-8 -29.333 -8 -46
c0 -14 2.16699 -28.333 6.5 -43s11.833 -28.167 22.5 -40.5s25.334 -22.5 44.001 -30.5s42 -12 70 -12c4 0 11.667 1 23 3s25.5 5.33301 42.5 10s36 10.834 57 18.501s43.167 17.5 66.5 29.5zM991.999 469c2 9.33301 3.33398 18.333 4.00098 27s1 17.667 1 27
c0 38 -10.833 70.167 -32.5 96.5s-52.5 39.5 -92.5 39.5c-31.333 0 -58.333 -5.83301 -81 -17.5s-41.334 -27.334 -56.001 -47.001s-25.667 -42.667 -33 -69s-11.333 -54.166 -12 -83.499zM107 671c33.333 14 66.5068 26.3301 99.5068 36.9971s64.167 19.5 93.5 26.5
s56 12.333 80 16s44 5.5 60 5.5c28.667 0 54 -2.16699 76 -6.5s41.5 -11 58.5 -20s31.667 -20.167 44 -33.5s23.5 -28.666 33.5 -45.999c38 32.667 81.5 58.167 130.5 76.5s100.833 27.5 155.5 27.5c37.333 0 70.666 -5.83301 99.999 -17.5s54 -27.667 74 -48
s35.167 -44.833 45.5 -73.5s15.5 -60 15.5 -94c0 -29.333 -5.66699 -66 -17 -110l-465 -30c2.66699 -40.667 11 -78 25 -112s33.667 -63.5 59 -88.5s56.166 -44.5 92.499 -58.5s78.5 -21 126.5 -21c15.333 0 31.666 1 48.999 3s34.666 4.66699 51.999 8s34.333 7.5 51 12.5
s32 10.5 46 16.5l22 -56c-31.333 -15.333 -64.666 -29.333 -99.999 -42s-69.833 -23.667 -103.5 -33s-64.834 -16.666 -93.501 -21.999s-52.334 -8 -71.001 -8c-54 0 -101.333 9.83301 -142 29.5s-75.334 46.5 -104.001 80.5c-28 -13.333 -57.667 -26.666 -89 -39.999
s-62.333 -25.166 -93 -35.499s-60 -18.666 -88 -24.999s-53 -9.5 -75 -9.5c-35.333 0 -65.833 6.5 -91.5 19.5s-46.667 29.333 -63 49s-28.5 41.334 -36.5 65.001s-12 46.167 -12 67.5c0 38 6.83301 70.167 20.5 96.5s31.834 48.166 54.501 65.499
c20 15.333 43.667 28.166 71 38.499s57.5 18.666 90.5 24.999s68.333 11.333 106 15s77.167 6.5 118.5 8.5v27c0 30.667 -2 58.167 -6 82.5s-11.333 44.833 -22 61.5s-25.334 29.334 -44.001 38.001s-42.667 13 -72 13c-34 0 -70.333 -3.83301 -109 -11.5
s-82.334 -19.834 -131.001 -36.501z" />
    <glyph glyph-name="ccedilla" unicode="&#xe7;" horiz-adv-x="786" 
d="M387 -18c-52.667 0.666992 -99.332 11.002 -139.999 31.002s-74.834 46.667 -102.501 80s-48.667 71.666 -63 114.999s-21.5 89 -21.5 137c0 62 11.667 118.167 35 168.5s55.333 93.333 96 129s88.334 63.167 143.001 82.5s113.334 29 176.001 29
c25.333 0 50.5 -2.33301 75.5 -7s47.5 -12.667 67.5 -24s36.167 -26.333 48.5 -45s18.5 -42 18.5 -70c0 -35.333 -11.667 -60.833 -35 -76.5s-52.333 -23.5 -87 -23.5c-14.667 0 -29.334 1 -44.001 3v19c0 19.333 -1 37 -3 53s-7 29.833 -15 41.5s-19.5 20.667 -34.5 27
s-35.5 9.5 -61.5 9.5c-37.333 0 -68.833 -6.33301 -94.5 -19s-46.5 -29.667 -62.5 -51s-27.667 -46.333 -35 -75s-11 -59.334 -11 -92.001c0 -45.333 6 -87.5 18 -126.5s30.167 -73.167 54.5 -102.5s55.166 -52.333 92.499 -69s81.666 -25 132.999 -25
c13.333 0 28.333 1 45 3s33.667 4.5 51 7.5s34.333 6.66699 51 11s32 8.83301 46 13.5l23 -56c-46 -20 -94.333 -38 -145 -54s-97 -28 -139 -36l-58 -99c23.333 -2.66699 43.833 -8.33398 61.5 -17.001s32.5 -19.167 44.5 -31.5s21 -26.5 27 -42.5s9 -32.333 9 -49
c0 -34 -8.5 -62.333 -25.5 -85s-38.667 -40.5 -65 -53.5s-55.166 -22.167 -86.499 -27.5s-61.333 -8 -90 -8h-13l-8 61c17.333 2.66699 35.333 5.66699 54 9s35.667 8.33301 51 15s28 15.834 38 27.501s15 27.167 15 46.5c0 12.667 -3 23.667 -9 33s-13.667 17 -23 23
s-19.833 10.5 -31.5 13.5s-23.167 4.5 -34.5 4.5h-6c-5.33301 0 -8.33301 -0.333008 -9 -1l-19 43z" />
    <glyph glyph-name="egrave" unicode="&#xe8;" horiz-adv-x="801" 
d="M766 85c-32 -15.333 -65.667 -29.5 -101 -42.5s-69.833 -24.167 -103.5 -33.5s-65 -16.5 -94 -21.5s-53.167 -7.5 -72.5 -7.5c-54 0 -101.833 10.167 -143.5 30.5s-76.667 47.333 -105 81s-49.833 72.5 -64.5 116.5s-22 89.667 -22 137
c0 61.333 11.333 117.166 34 167.499s53.5 93.333 92.5 129s84.5 63.334 136.5 83.001s107 29.5 165 29.5c38 0 71.667 -5.83301 101 -17.5s54 -27.667 74 -48s35.333 -44.833 46 -73.5s16 -60 16 -94c0 -29.333 -5.66699 -66 -17 -110l-470 -25
c2.66699 -42 11 -80.333 25 -115s33.833 -64.667 59.5 -90s57 -45 94 -59s79.5 -21 127.5 -21c32 0 66.167 3.83301 102.5 11.5s68.833 17.167 97.5 28.5zM544 469c2 9.33301 3.33398 18.332 4.00098 26.999s1 17.667 1 27c0 18.667 -2.83301 36.334 -8.5 53.001
s-13.834 31.167 -24.501 43.5s-24 22 -40 29s-34 10.5 -54 10.5c-32 0 -59.5 -5.83301 -82.5 -17.5s-42 -27.167 -57 -46.5s-26.167 -41.833 -33.5 -67.5s-11.333 -52.5 -12 -80.5zM465.001 825.999l-54 -0.000976562l-183 327c-2.66699 4.66699 -4 8.66699 -4 12
c0 7.33301 5.33301 12 16 14c8 2 17.667 3.66699 29 5s22.833 2.5 34.5 3.5s22.5 1.66699 32.5 2s17.667 0.5 23 0.5c10 0 17.5 -2.66699 22.5 -8s8.5 -11.666 10.5 -18.999l80 -329z" />
    <glyph glyph-name="eacute" unicode="&#xe9;" horiz-adv-x="801" 
d="M766 85c-32 -15.333 -65.667 -29.5 -101 -42.5s-69.833 -24.167 -103.5 -33.5s-65 -16.5 -94 -21.5s-53.167 -7.5 -72.5 -7.5c-54 0 -101.833 10.167 -143.5 30.5s-76.667 47.333 -105 81s-49.833 72.5 -64.5 116.5s-22 89.667 -22 137
c0 61.333 11.333 117.166 34 167.499s53.5 93.333 92.5 129s84.5 63.334 136.5 83.001s107 29.5 165 29.5c38 0 71.667 -5.83301 101 -17.5s54 -27.667 74 -48s35.333 -44.833 46 -73.5s16 -60 16 -94c0 -29.333 -5.66699 -66 -17 -110l-470 -25
c2.66699 -42 11 -80.333 25 -115s33.833 -64.667 59.5 -90s57 -45 94 -59s79.5 -21 127.5 -21c32 0 66.167 3.83301 102.5 11.5s68.833 17.167 97.5 28.5zM544 469c2 9.33301 3.33398 18.332 4.00098 26.999s1 17.667 1 27c0 18.667 -2.83301 36.334 -8.5 53.001
s-13.834 31.167 -24.501 43.5s-24 22 -40 29s-34 10.5 -54 10.5c-32 0 -59.5 -5.83301 -82.5 -17.5s-42 -27.167 -57 -46.5s-26.167 -41.833 -33.5 -67.5s-11.333 -52.5 -12 -80.5zM378.001 833.999l77 318c4 16 14.333 25.333 31 28c10.667 2 22.5 3.66699 35.5 5
s25.667 2.33301 38 3s23.5 1.16699 33.5 1.5s17.667 0.5 23 0.5c11.333 0 17 -4.66699 17 -14c0 -3.33301 -1.33301 -7.33301 -4 -12l-190 -338h-54z" />
    <glyph glyph-name="ecircumflex" unicode="&#xea;" horiz-adv-x="801" 
d="M766 85c-32 -15.333 -65.667 -29.5 -101 -42.5s-69.833 -24.167 -103.5 -33.5s-65 -16.5 -94 -21.5s-53.167 -7.5 -72.5 -7.5c-54 0 -101.833 10.167 -143.5 30.5s-76.667 47.333 -105 81s-49.833 72.5 -64.5 116.5s-22 89.667 -22 137
c0 61.333 11.333 117.166 34 167.499s53.5 93.333 92.5 129s84.5 63.334 136.5 83.001s107 29.5 165 29.5c38 0 71.667 -5.83301 101 -17.5s54 -27.667 74 -48s35.333 -44.833 46 -73.5s16 -60 16 -94c0 -29.333 -5.66699 -66 -17 -110l-470 -25
c2.66699 -42 11 -80.333 25 -115s33.833 -64.667 59.5 -90s57 -45 94 -59s79.5 -21 127.5 -21c32 0 66.167 3.83301 102.5 11.5s68.833 17.167 97.5 28.5zM544 469c2 9.33301 3.33398 18.332 4.00098 26.999s1 17.667 1 27c0 18.667 -2.83301 36.334 -8.5 53.001
s-13.834 31.167 -24.501 43.5s-24 22 -40 29s-34 10.5 -54 10.5c-32 0 -59.5 -5.83301 -82.5 -17.5s-42 -27.167 -57 -46.5s-26.167 -41.833 -33.5 -67.5s-11.333 -52.5 -12 -80.5zM672.001 825.999l-61 -0.000976562l-184 224h-8l-184 -224h-57l-7 8l170 317
c3.33301 7.33301 7.5 13.5 12.5 18.5s11.833 8.16699 20.5 9.5c22 3.33301 41.5 6 58.5 8s29.833 3 38.5 3c10 0 17.5 -2.66699 22.5 -8s9.16699 -11.666 12.5 -18.999l173 -329z" />
    <glyph glyph-name="edieresis" unicode="&#xeb;" horiz-adv-x="801" 
d="M766 85c-32 -15.333 -65.667 -29.5 -101 -42.5s-69.833 -24.167 -103.5 -33.5s-65 -16.5 -94 -21.5s-53.167 -7.5 -72.5 -7.5c-54 0 -101.833 10.167 -143.5 30.5s-76.667 47.333 -105 81s-49.833 72.5 -64.5 116.5s-22 89.667 -22 137
c0 61.333 11.333 117.166 34 167.499s53.5 93.333 92.5 129s84.5 63.334 136.5 83.001s107 29.5 165 29.5c38 0 71.667 -5.83301 101 -17.5s54 -27.667 74 -48s35.333 -44.833 46 -73.5s16 -60 16 -94c0 -29.333 -5.66699 -66 -17 -110l-470 -25
c2.66699 -42 11 -80.333 25 -115s33.833 -64.667 59.5 -90s57 -45 94 -59s79.5 -21 127.5 -21c32 0 66.167 3.83301 102.5 11.5s68.833 17.167 97.5 28.5zM544 469c2 9.33301 3.33398 18.332 4.00098 26.999s1 17.667 1 27c0 18.667 -2.83301 36.334 -8.5 53.001
s-13.834 31.167 -24.501 43.5s-24 22 -40 29s-34 10.5 -54 10.5c-32 0 -59.5 -5.83301 -82.5 -17.5s-42 -27.167 -57 -46.5s-26.167 -41.833 -33.5 -67.5s-11.333 -52.5 -12 -80.5zM360.001 1057c0 -34 -9.33203 -59 -27.999 -75s-45 -24 -79 -24
c-28.667 0 -50.834 9 -66.501 27s-23.5 42 -23.5 72c0 34 9.66699 58.667 29 74s46 23 80 23c28.667 0 50.5 -8.66699 65.5 -26s22.5 -41 22.5 -71zM687.002 1057c0 -34 -9.33203 -59 -27.999 -75s-45 -24 -79 -24c-28.667 0 -50.834 9 -66.501 27s-23.5 42 -23.5 72
c0 34 9.66699 58.667 29 74s46 23 80 23c28.667 0 50.5 -8.66699 65.5 -26s22.5 -41 22.5 -71z" />
    <glyph glyph-name="igrave" unicode="&#xec;" horiz-adv-x="458" 
d="M32 693c36 10 69.332 18.5 99.999 25.5s57.834 12.833 81.501 17.5s43 8 58 10s24.833 3 29.5 3c21.333 0 32 -12 32 -36v-686c0 -16 -8 -25.333 -24 -28c-11.333 -2 -23.5 -3.83301 -36.5 -5.5s-25.5 -3 -37.5 -4s-23 -1.66699 -33 -2s-17.667 -0.5 -23 -0.5
c-16 0 -24 8.33301 -24 25v545c0 35.333 -5.66699 59.5 -17 72.5s-29 19.5 -53 19.5c-7.33301 0 -14.5 -0.166992 -21.5 -0.5s-15.5 -1.5 -25.5 -3.5zM261.999 826l-54 -0.000976562l-183 327c-2.66699 4.66699 -4 8.66699 -4 12c0 7.33301 5.33301 12 16 14
c8 2 17.667 3.66699 29 5s22.833 2.5 34.5 3.5s22.5 1.66699 32.5 2s17.667 0.5 23 0.5c10 0 17.5 -2.66699 22.5 -8s8.5 -11.666 10.5 -18.999l80 -329z" />
    <glyph glyph-name="iacute" unicode="&#xed;" horiz-adv-x="458" 
d="M32 693c36 10 69.332 18.5 99.999 25.5s57.834 12.833 81.501 17.5s43 8 58 10s24.833 3 29.5 3c21.333 0 32 -12 32 -36v-686c0 -16 -8 -25.333 -24 -28c-11.333 -2 -23.5 -3.83301 -36.5 -5.5s-25.5 -3 -37.5 -4s-23 -1.66699 -33 -2s-17.667 -0.5 -23 -0.5
c-16 0 -24 8.33301 -24 25v545c0 35.333 -5.66699 59.5 -17 72.5s-29 19.5 -53 19.5c-7.33301 0 -14.5 -0.166992 -21.5 -0.5s-15.5 -1.5 -25.5 -3.5zM174.999 834l77 318c4 16 14.333 25.333 31 28c10.667 2 22.5 3.66699 35.5 5s25.667 2.33301 38 3
s23.5 1.16699 33.5 1.5s17.667 0.5 23 0.5c11.333 0 17 -4.66699 17 -14c0 -3.33301 -1.33301 -7.33301 -4 -12l-190 -338h-54z" />
    <glyph glyph-name="icircumflex" unicode="&#xee;" horiz-adv-x="458" 
d="M32 693c36 10 69.332 18.5 99.999 25.5s57.834 12.833 81.501 17.5s43 8 58 10s24.833 3 29.5 3c21.333 0 32 -12 32 -36v-686c0 -16 -8 -25.333 -24 -28c-11.333 -2 -23.5 -3.83301 -36.5 -5.5s-25.5 -3 -37.5 -4s-23 -1.66699 -33 -2s-17.667 -0.5 -23 -0.5
c-16 0 -24 8.33301 -24 25v545c0 35.333 -5.66699 59.5 -17 72.5s-29 19.5 -53 19.5c-7.33301 0 -14.5 -0.166992 -21.5 -0.5s-15.5 -1.5 -25.5 -3.5zM468.999 826l-61 -0.000976562l-184 224h-8l-184 -224h-57l-7 8l170 317c3.33301 7.33301 7.5 13.5 12.5 18.5
s11.833 8.16699 20.5 9.5c22 3.33301 41.5 6 58.5 8s29.833 3 38.5 3c10 0 17.5 -2.66699 22.5 -8s9.16699 -11.666 12.5 -18.999l173 -329z" />
    <glyph glyph-name="idieresis" unicode="&#xef;" horiz-adv-x="458" 
d="M32 693c36 10 69.332 18.5 99.999 25.5s57.834 12.833 81.501 17.5s43 8 58 10s24.833 3 29.5 3c21.333 0 32 -12 32 -36v-686c0 -16 -8 -25.333 -24 -28c-11.333 -2 -23.5 -3.83301 -36.5 -5.5s-25.5 -3 -37.5 -4s-23 -1.66699 -33 -2s-17.667 -0.5 -23 -0.5
c-16 0 -24 8.33301 -24 25v545c0 35.333 -5.66699 59.5 -17 72.5s-29 19.5 -53 19.5c-7.33301 0 -14.5 -0.166992 -21.5 -0.5s-15.5 -1.5 -25.5 -3.5zM156.999 1057c0 -34 -9.33203 -59 -27.999 -75s-45 -24 -79 -24c-28.667 0 -50.834 9 -66.501 27s-23.5 42 -23.5 72
c0 34 9.66699 58.667 29 74s46 23 80 23c28.667 0 50.5 -8.66699 65.5 -26s22.5 -41 22.5 -71zM484 1057c0 -34 -9.33203 -59 -27.999 -75s-45 -24 -79 -24c-28.667 0 -50.834 9 -66.501 27s-23.5 42 -23.5 72c0 34 9.66699 58.667 29 74s46 23 80 23
c28.667 0 50.5 -8.66699 65.5 -26s22.5 -41 22.5 -71z" />
    <glyph glyph-name="eth" unicode="&#xf0;" horiz-adv-x="938" 
d="M261 954l180.998 155.998c-34 34.667 -73.5 65.167 -118.5 91.5s-96.833 50.5 -155.5 72.5l20 70c26.667 -5.33301 56 -13.333 88 -24s63.833 -23 95.5 -37s61.834 -28.833 90.501 -44.5s53.334 -31.5 74.001 -47.5l180 155l48 -70l-165 -139
c85.333 -78.667 149.833 -173.667 193.5 -285s65.5 -236.666 65.5 -375.999c0 -66 -7.66699 -129 -23 -189s-40 -112.667 -74 -158s-78.167 -81.5 -132.5 -108.5s-120.5 -40.5 -198.5 -40.5c-56 0 -106.5 10.333 -151.5 31s-83.333 48.667 -115 84s-56 76.5 -73 123.5
s-25.5 97.167 -25.5 150.5c0 54 10.5 104.5 31.5 151.5s49.833 87.833 86.5 122.5s80 61.834 130 81.501s104 29.5 162 29.5c28 0 55.333 -1.5 82 -4.5s52.667 -7.16699 78 -12.5c-17.333 66.667 -36.833 125.5 -58.5 176.5s-48.5 96.833 -80.5 137.5l-179 -151z
M676.998 385.998c0 42 -1.49902 81.665 -4.49902 118.998s-7.16699 73 -12.5 107c-38.667 20 -72.667 34 -102 42s-59 12 -89 12c-39.333 0 -72.833 -6.83301 -100.5 -20.5s-50.334 -32.334 -68.001 -56.001s-30.667 -51.167 -39 -82.5s-12.5 -64.666 -12.5 -99.999
c0 -39.333 4.33301 -79.166 13 -119.499s22.167 -76.666 40.5 -108.999s41.5 -58.833 69.5 -79.5s61.333 -31 100 -31s71.167 8.33301 97.5 25s47.5 39.5 63.5 68.5s27.333 62.667 34 101s10 79.5 10 123.5z" />
    </font>
</defs>
</svg>
