<?xml version="1.0" encoding="UTF-8" standalone="no"?>
<!-- Created with Inkscape (http://www.inkscape.org/) -->

<svg
   width="12.248797mm"
   height="14.082624mm"
   viewBox="0 0 12.248797 14.082625"
   version="1.1"
   id="svg5079"
   inkscape:version="1.1.2 (0a00cf5339, 2022-02-04)"
   sodipodi:docname="blank.svg"
   xmlns:inkscape="http://www.inkscape.org/namespaces/inkscape"
   xmlns:sodipodi="http://sodipodi.sourceforge.net/DTD/sodipodi-0.dtd"
   xmlns="http://www.w3.org/2000/svg"
   xmlns:svg="http://www.w3.org/2000/svg">
  <sodipodi:namedview
     id="namedview5081"
     pagecolor="#ffffff"
     bordercolor="#666666"
     borderopacity="1.0"
     inkscape:pageshadow="2"
     inkscape:pageopacity="0.0"
     inkscape:pagecheckerboard="0"
     inkscape:document-units="mm"
     showgrid="false"
     fit-margin-top="0"
     fit-margin-left="0"
     fit-margin-right="0"
     fit-margin-bottom="0"
     inkscape:zoom="11.146352"
     inkscape:cx="43.108273"
     inkscape:cy="37.545915"
     inkscape:window-width="1850"
     inkscape:window-height="1016"
     inkscape:window-x="0"
     inkscape:window-y="0"
     inkscape:window-maximized="1"
     inkscape:current-layer="layer1" />
  <defs
     id="defs5076">
    <clipPath
       clipPathUnits="userSpaceOnUse"
       id="clipPath1778">
      <path
         d="m 48.278,398.439 h 35 v 40.198 h -35 z"
         id="path1776" />
    </clipPath>
    <clipPath
       clipPathUnits="userSpaceOnUse"
       id="clipPath1790">
      <path
         d="m 53.218,438.637 -4.94,-8.556 v -25.603 l 10.46,-6.039 h 19.599 l 4.941,8.556 v 25.604 l -10.459,6.038 z"
         id="path1788" />
    </clipPath>
    <clipPath
       clipPathUnits="userSpaceOnUse"
       id="clipPath1802">
      <path
         d="m 48.278,398.439 h 35 v 40.198 h -35 z"
         id="path1800" />
    </clipPath>
    <clipPath
       clipPathUnits="userSpaceOnUse"
       id="clipPath1814">
      <path
         d="m 60.197,412.96 h 11.161 v 11.157 H 60.197 Z"
         id="path1812" />
    </clipPath>
    <clipPath
       clipPathUnits="userSpaceOnUse"
       id="clipPath1918">
      <path
         d="m 103.279,398.439 h 34.999 v 40.198 h -34.999 z"
         id="path1916" />
    </clipPath>
    <clipPath
       clipPathUnits="userSpaceOnUse"
       id="clipPath1930">
      <path
         d="m 108.218,438.637 -4.939,-8.555 v -25.604 l 10.459,-6.039 h 19.599 l 4.941,8.556 v 25.604 l -10.459,6.038 z"
         id="path1928" />
    </clipPath>
    <clipPath
       clipPathUnits="userSpaceOnUse"
       id="clipPath1942">
      <path
         d="m 103.279,398.439 h 34.999 v 40.198 h -34.999 z"
         id="path1940" />
    </clipPath>
    <clipPath
       clipPathUnits="userSpaceOnUse"
       id="clipPath1954">
      <path
         d="M 113.665,411.426 H 127.89 V 425.65 H 113.665 Z"
         id="path1952" />
    </clipPath>
    <clipPath
       clipPathUnits="userSpaceOnUse"
       id="clipPath1830">
      <path
         d="m 158.279,398.439 h 34.999 v 40.198 h -34.999 z"
         id="path1828" />
    </clipPath>
    <clipPath
       clipPathUnits="userSpaceOnUse"
       id="clipPath1842">
      <path
         d="m 163.218,438.637 -4.939,-8.555 v -25.604 l 10.459,-6.039 h 19.599 l 4.941,8.556 v 25.604 l -10.46,6.038 z"
         id="path1840" />
    </clipPath>
    <clipPath
       clipPathUnits="userSpaceOnUse"
       id="clipPath1854">
      <path
         d="m 158.279,398.439 h 34.999 v 40.198 h -34.999 z"
         id="path1852" />
    </clipPath>
    <clipPath
       clipPathUnits="userSpaceOnUse"
       id="clipPath1866">
      <path
         d="m 166.638,409.398 h 18.281 v 18.28 h -18.281 z"
         id="path1864" />
    </clipPath>
    <clipPath
       clipPathUnits="userSpaceOnUse"
       id="clipPath1882">
      <path
         d="m 213.278,398.439 h 34.999 v 40.198 h -34.999 z"
         id="path1880" />
    </clipPath>
    <clipPath
       clipPathUnits="userSpaceOnUse"
       id="clipPath1902">
      <path
         d="m 222.268,410.028 h 17.021 v 17.02 h -17.021 z"
         id="path1900" />
    </clipPath>
  </defs>
  <g
     inkscape:label="Layer 1"
     inkscape:groupmode="layer"
     id="layer1"
     transform="translate(-206.5367,-104.02689)">
    <g
       id="g1876"
       transform="matrix(0.35277777,0,0,-0.35277777,131.24782,258.71915)">
      <g
         id="g1878"
         clip-path="url(#clipPath1882)">
        <g
           id="g1884"
           transform="translate(247.5803,408.8375)">
          <path
             d="M 0,0 -16.802,-9.701 -33.605,0 v 19.402 l 16.803,9.7 L 0,19.402 Z"
             style="fill:#f5f5f5;fill-opacity:1;fill-rule:nonzero;stroke:none"
             id="path1886" />
        </g>
        <g
           id="g1888"
           transform="translate(247.5803,408.8375)">
          <path
             d="m 0,0 0.279,-0.483 -16.802,-9.701 c -0.173,-0.1 -0.386,-0.1 -0.558,0 l -16.803,9.701 c -0.172,0.099 -0.279,0.284 -0.279,0.483 v 19.402 c 0,0.199 0.107,0.384 0.279,0.483 l 16.803,9.701 c 0.172,0.099 0.385,0.099 0.558,0 L 0.279,19.885 C 0.452,19.786 0.558,19.601 0.558,19.402 V 0 c 0,-0.199 -0.106,-0.384 -0.279,-0.483 L 0,0 H -0.558 V 19.08 L -16.802,28.458 -33.047,19.08 V 0.322 L -16.802,-9.056 -0.279,0.483 0,0 H -0.558 0"
             style="fill:#231f20;fill-opacity:1;fill-rule:nonzero;stroke:none"
             id="path1890" />
        </g>
        <g
           id="g1892"
           transform="translate(244.1175,410.8366)">
          <path
             d="M 0,0 -13.34,-7.702 -26.679,0 V 15.404 L -13.34,23.105 0,15.404 Z"
             style="fill:#231f20;fill-opacity:1;fill-rule:nonzero;stroke:none"
             id="path1894" />
        </g>
      </g>
    </g>
    <g
       id="g1896"
       transform="matrix(0.35277777,0,0,-0.35277777,131.24782,258.71915)">
      <g
         id="g1898"
         clip-path="url(#clipPath1902)">
        <g
           id="g1904"
           transform="translate(230.778,427.0486)">
          <path
             d="m 0,0 v 0 c -4.693,0 -8.51,-3.818 -8.51,-8.51 0,-4.693 3.817,-8.51 8.51,-8.51 4.692,0 8.51,3.817 8.51,8.51 C 8.51,-3.818 4.692,0 0,0 m -5.498,-13.022 c -1.01,1.229 -1.617,2.801 -1.617,4.512 0,3.923 3.192,7.115 7.115,7.115 1.711,0 3.282,-0.608 4.511,-1.618 L -5.498,-13.022 M 0,-15.625 c -1.711,0 -3.283,0.607 -4.511,1.617 L 5.498,-3.999 c 1.01,-1.229 1.617,-2.8 1.617,-4.511 0,-3.924 -3.192,-7.115 -7.115,-7.115"
             style="fill:#bdbbbc;fill-opacity:1;fill-rule:nonzero;stroke:none"
             id="path1906" />
        </g>
      </g>
    </g>
  </g>
</svg>
