<?xml version="1.0" encoding="UTF-8" standalone="no"?>
<!-- Created with Inkscape (http://www.inkscape.org/) -->

<svg
   width="12.248797mm"
   height="14.082889mm"
   viewBox="0 0 12.248797 14.082889"
   version="1.1"
   id="svg5079"
   inkscape:version="1.1.2 (0a00cf5339, 2022-02-04)"
   sodipodi:docname="target.svg"
   xmlns:inkscape="http://www.inkscape.org/namespaces/inkscape"
   xmlns:sodipodi="http://sodipodi.sourceforge.net/DTD/sodipodi-0.dtd"
   xmlns="http://www.w3.org/2000/svg"
   xmlns:svg="http://www.w3.org/2000/svg">
  <sodipodi:namedview
     id="namedview5081"
     pagecolor="#ffffff"
     bordercolor="#666666"
     borderopacity="1.0"
     inkscape:pageshadow="2"
     inkscape:pageopacity="0.0"
     inkscape:pagecheckerboard="0"
     inkscape:document-units="mm"
     showgrid="false"
     fit-margin-top="0"
     fit-margin-left="0"
     fit-margin-right="0"
     fit-margin-bottom="0"
     inkscape:zoom="11.146352"
     inkscape:cx="29.56124"
     inkscape:cy="51.810671"
     inkscape:window-width="1850"
     inkscape:window-height="1016"
     inkscape:window-x="0"
     inkscape:window-y="0"
     inkscape:window-maximized="1"
     inkscape:current-layer="layer1" />
  <defs
     id="defs5076">
    <clipPath
       clipPathUnits="userSpaceOnUse"
       id="clipPath1778">
      <path
         d="m 48.278,398.439 h 35 v 40.198 h -35 z"
         id="path1776" />
    </clipPath>
    <clipPath
       clipPathUnits="userSpaceOnUse"
       id="clipPath1790">
      <path
         d="m 53.218,438.637 -4.94,-8.556 v -25.603 l 10.46,-6.039 h 19.599 l 4.941,8.556 v 25.604 l -10.459,6.038 z"
         id="path1788" />
    </clipPath>
    <clipPath
       clipPathUnits="userSpaceOnUse"
       id="clipPath1802">
      <path
         d="m 48.278,398.439 h 35 v 40.198 h -35 z"
         id="path1800" />
    </clipPath>
    <clipPath
       clipPathUnits="userSpaceOnUse"
       id="clipPath1814">
      <path
         d="m 60.197,412.96 h 11.161 v 11.157 H 60.197 Z"
         id="path1812" />
    </clipPath>
    <clipPath
       clipPathUnits="userSpaceOnUse"
       id="clipPath1918">
      <path
         d="m 103.279,398.439 h 34.999 v 40.198 h -34.999 z"
         id="path1916" />
    </clipPath>
    <clipPath
       clipPathUnits="userSpaceOnUse"
       id="clipPath1930">
      <path
         d="m 108.218,438.637 -4.939,-8.555 v -25.604 l 10.459,-6.039 h 19.599 l 4.941,8.556 v 25.604 l -10.459,6.038 z"
         id="path1928" />
    </clipPath>
    <clipPath
       clipPathUnits="userSpaceOnUse"
       id="clipPath1942">
      <path
         d="m 103.279,398.439 h 34.999 v 40.198 h -34.999 z"
         id="path1940" />
    </clipPath>
    <clipPath
       clipPathUnits="userSpaceOnUse"
       id="clipPath1954">
      <path
         d="M 113.665,411.426 H 127.89 V 425.65 H 113.665 Z"
         id="path1952" />
    </clipPath>
  </defs>
  <g
     inkscape:label="Layer 1"
     inkscape:groupmode="layer"
     id="layer1"
     transform="translate(-210.12141,-105.93246)">
    <g
       id="g1912"
       transform="matrix(0.35277777,0,0,-0.35277777,173.63794,260.62491)">
      <g
         id="g1914"
         clip-path="url(#clipPath1918)">
        <g
           id="g1920"
           transform="translate(137.5807,428.2393)">
          <path
             d="m 0,0 v -19.402 l -16.802,-9.701 -16.803,9.701 V 0 l 16.803,9.701 z"
             style="fill:#f5f5f5;fill-opacity:1;fill-rule:nonzero;stroke:none"
             id="path1922" />
        </g>
      </g>
    </g>
    <g
       id="g1924"
       transform="matrix(0.35277777,0,0,-0.35277777,173.63794,260.62491)">
      <g
         id="g1926"
         clip-path="url(#clipPath1930)">
        <g
           id="g1932"
           transform="translate(137.5807,428.2393)">
          <path
             d="m 0,0 h 0.558 v -19.402 c 0,-0.199 -0.107,-0.383 -0.279,-0.483 l -16.803,-9.701 c -0.172,-0.1 -0.385,-0.1 -0.558,0 l -16.802,9.701 c -0.173,0.1 -0.279,0.284 -0.279,0.483 V 0 c 0,0.199 0.106,0.384 0.279,0.483 l 16.802,9.701 c 0.173,0.1 0.386,0.1 0.558,0 L 0.279,0.483 C 0.452,0.384 0.558,0.199 0.558,0 H 0 l -0.279,-0.483 -16.523,9.539 -16.245,-9.378 v -18.757 l 16.245,-9.379 16.244,9.378 V 0 H 0 L -0.279,-0.483 0,0"
             style="fill:#231f20;fill-opacity:1;fill-rule:nonzero;stroke:none"
             id="path1934" />
        </g>
      </g>
    </g>
    <g
       id="g1936"
       transform="matrix(0.35277777,0,0,-0.35277777,173.63794,260.62491)">
      <g
         id="g1938"
         clip-path="url(#clipPath1942)">
        <g
           id="g1944"
           transform="translate(134.1177,426.2399)">
          <path
             d="m 0,0 v -15.403 l -13.34,-7.702 -13.339,7.702 V 0 l 13.339,7.702 z"
             style="fill:#c71e25;fill-opacity:1;fill-rule:nonzero;stroke:none"
             id="path1946" />
        </g>
      </g>
    </g>
    <g
       id="g1948"
       transform="matrix(0.35277777,0,0,-0.35277777,173.63794,260.62491)">
      <g
         id="g1950"
         clip-path="url(#clipPath1954)">
        <g
           id="g1956"
           transform="translate(126.904,425.6506)">
          <path
             d="M 0,0 -6.126,-6.126 -12.252,0 l -0.986,-0.986 6.126,-6.126 -6.126,-6.126 0.986,-0.987 6.126,6.126 6.126,-6.126 0.986,0.987 -6.126,6.126 6.126,6.126 z"
             style="fill:#ebad9b;fill-opacity:1;fill-rule:nonzero;stroke:none"
             id="path1958" />
        </g>
      </g>
    </g>
  </g>
</svg>
