<?xml version="1.0" encoding="UTF-8" standalone="no"?>
<!-- Created with Inkscape (http://www.inkscape.org/) -->

<svg
   width="176.09502mm"
   height="171.29521mm"
   viewBox="0 0 176.09502 171.29521"
   version="1.1"
   id="svg5"
   inkscape:version="1.1.2 (0a00cf5339, 2022-02-04)"
   sodipodi:docname="body.svg"
   xmlns:inkscape="http://www.inkscape.org/namespaces/inkscape"
   xmlns:sodipodi="http://sodipodi.sourceforge.net/DTD/sodipodi-0.dtd"
   xmlns="http://www.w3.org/2000/svg"
   xmlns:svg="http://www.w3.org/2000/svg">
  <sodipodi:namedview
     id="namedview7"
     pagecolor="#ffffff"
     bordercolor="#666666"
     borderopacity="1.0"
     inkscape:pageshadow="2"
     inkscape:pageopacity="0.0"
     inkscape:pagecheckerboard="0"
     inkscape:document-units="mm"
     showgrid="false"
     fit-margin-top="0"
     fit-margin-left="0"
     fit-margin-right="0"
     fit-margin-bottom="0"
     inkscape:zoom="0.69664703"
     inkscape:cx="267.7109"
     inkscape:cy="363.88586"
     inkscape:window-width="1850"
     inkscape:window-height="1016"
     inkscape:window-x="0"
     inkscape:window-y="0"
     inkscape:window-maximized="1"
     inkscape:current-layer="layer1" />
  <defs
     id="defs2">
    <clipPath
       clipPathUnits="userSpaceOnUse"
       id="clipPath854">
      <path
         d="M 0,600 H 600 V 0 H 0 Z"
         id="path852" />
    </clipPath>
  </defs>
  <g
     inkscape:label="Layer 1"
     inkscape:groupmode="layer"
     id="layer1"
     transform="translate(-34.320786,-52.120203)">
    <g
       id="g856"
       transform="matrix(0.35277777,0,0,-0.35277777,210.41581,87.254492)"
       style="fill:#000000">
      <path
         d="m 0,0 c -21.821,-76.375 -80.467,-117.291 -80.467,-117.291 v -231.853 c 0,0 -36.823,-36.824 -169.116,-36.824 -132.293,0 -169.117,36.824 -169.117,36.824 v 231.853 c 0,0 -58.645,40.916 -80.467,117.291 0,0 125.474,98.197 145.932,99.561 20.458,1.363 30.005,-40.916 103.652,-40.916 73.647,0 83.194,42.279 103.652,40.916 C -125.474,98.197 0,0 0,0"
         style="fill:#000000;fill-opacity:1;fill-rule:nonzero;stroke:none"
         id="path858" />
    </g>
    <g
       id="g860"
       transform="matrix(0.35277777,0,0,-0.35277777,81.955098,135.80708)">
      <path
         d="m 0,0 c -8.489,0 -18.233,0.762 -18.233,6.7 0,3.65 2.597,5.924 53.625,25.816 8.755,3.413 16.419,6.401 20.74,8.257 0.756,1.944 1.75,4.539 2.915,7.581 22.788,59.5 25.743,62.271 29.372,62.271 1.185,0 2.792,-0.56 3.714,-3.225 C 95.887,96.546 95.383,32.71 76.634,17.98 62.457,6.84 22.446,0 0.001,0 Z"
         style="fill:#ffffff;fill-opacity:1;fill-rule:nonzero;stroke:none"
         id="path862" />
    </g>
    <g
       id="g864"
       transform="matrix(0.35277777,0,0,-0.35277777,113.14732,95.722887)">
      <path
         d="m 0,0 c -4.562,0 -6.973,-4.097 -9.881,-9.884 -1.957,-3.897 -4.354,-9.253 -7.327,-16.375 -5.274,-12.635 -11.106,-27.862 -14.965,-37.938 -0.956,-2.496 -1.779,-4.644 -2.453,-6.388 -4.411,-1.85 -11.492,-4.61 -19.488,-7.727 -11.332,-4.418 -24.177,-9.425 -34.399,-13.771 -5.682,-2.415 -9.923,-4.357 -12.963,-5.937 -3.643,-1.892 -8.176,-4.246 -8.176,-8.904 0,-2.477 1.152,-6.894 8.864,-8.651 3.055,-0.696 7.216,-1.05 12.369,-1.05 22.393,0 63.228,6.631 78.488,18.621 11.189,8.792 15.598,31.373 17.326,48.768 1.768,17.797 1.389,37.532 -0.846,43.993 C 4.912,-0.511 1.424,0 0,0 m 0,-6 c 4.092,0 5.335,-72.378 -13.638,-87.286 -13.488,-10.598 -52.838,-17.339 -74.781,-17.339 -9.119,0 -15.233,1.165 -15.233,3.701 0,4.091 60.123,25.769 73.706,31.821 C -24.811,-62.052 -4.091,-6 0,-6"
         style="fill:#ffffff;fill-opacity:1;fill-rule:nonzero;stroke:none"
         id="path866" />
    </g>
    <g
       id="g868"
       transform="matrix(0.35277777,0,0,-0.35277777,143.099,167.30785)">
      <path
         d="m 0,0 c -13.936,0 -44.022,3.964 -50.422,13.126 -3.03,4.272 -5.496,8.401 -7.328,13.411 -1.845,-5.019 -4.316,-9.151 -7.35,-13.429 C -71.486,3.964 -101.574,0 -115.509,0 c -3.399,0 -6.136,0.21 -8.134,0.623 -4.361,0.902 -5.276,3.04 -5.276,4.674 0,3.146 2.998,4.641 17.162,11.182 8.76,4.045 19.663,9.081 26.752,13.816 7.196,4.788 11.612,17.502 15.161,27.718 3.58,10.304 5.945,17.112 11.08,17.112 h 2.019 c 5.141,0 7.506,-6.821 11.087,-17.146 3.539,-10.205 7.944,-22.905 15.099,-27.684 C -23.457,25.569 -12.561,20.541 -3.805,16.5 10.402,9.944 13.41,8.446 13.41,5.297 13.41,0.642 6.965,0 0,0"
         style="fill:#ffffff;fill-opacity:1;fill-rule:nonzero;stroke:none"
         id="path870" />
    </g>
    <g
       id="g872"
       transform="matrix(0.35277777,0,0,-0.35277777,123.08059,139.74708)">
      <path
         d="m 0,0 h -2.019 c -5.778,0 -8.623,-5.868 -9.558,-7.796 -1.477,-3.046 -2.811,-6.886 -4.356,-11.332 -3.221,-9.274 -7.633,-21.976 -13.985,-26.202 -6.902,-4.61 -17.686,-9.591 -26.352,-13.593 -4.452,-2.056 -8.296,-3.831 -11.203,-5.348 -3.431,-1.791 -7.701,-4.02 -7.701,-8.557 0,-1.812 0.747,-6.18 7.669,-7.611 2.197,-0.456 5.139,-0.686 8.741,-0.686 8.537,0 19.682,1.266 29.086,3.302 18.897,4.094 22.584,9.372 23.795,11.106 1.822,2.569 3.451,5.091 4.875,7.772 1.427,-2.688 3.064,-5.222 4.897,-7.807 1.186,-1.699 4.874,-6.978 23.771,-11.071 9.403,-2.036 20.548,-3.302 29.085,-3.302 3.602,0 6.542,0.23 8.74,0.686 6.923,1.431 7.67,5.799 7.67,7.611 0,4.54 -4.279,6.772 -7.718,8.566 -2.916,1.521 -6.773,3.3 -11.239,5.361 -8.662,3.997 -19.441,8.971 -26.353,13.571 -6.31,4.214 -10.71,16.903 -13.924,26.168 -1.545,4.454 -2.879,8.301 -4.357,11.352 C 8.629,-5.878 5.783,0 0,0 m 0,-6 c 6.819,0 10.228,-34.778 24.521,-44.325 14.347,-9.548 42.634,-19.776 42.634,-22.503 0,-1.567 -4.223,-2.297 -10.41,-2.297 -15.356,0 -42.829,4.494 -47.962,11.844 -5.456,7.692 -8.401,14.093 -9.765,24.732 -1.418,-10.639 -4.364,-17.04 -9.82,-24.732 -5.133,-7.349 -32.604,-11.844 -47.962,-11.844 -6.189,0 -10.41,0.73 -10.41,2.297 0,2.727 28.287,12.955 42.58,22.503 C -12.246,-40.778 -8.838,-6 -2.019,-6 H 0"
         style="fill:#ffffff;fill-opacity:1;fill-rule:nonzero;stroke:none"
         id="path874" />
    </g>
    <g
       id="g876"
       transform="matrix(0.35277777,0,0,-0.35277777,143.12207,201.06977)">
      <path
         d="m 0,0 c -13.943,0 -44.057,3.959 -50.482,13.11 -3.034,4.276 -5.501,8.406 -7.333,13.416 -1.846,-5.019 -4.316,-9.15 -7.351,-13.427 C -71.582,3.96 -101.696,0 -115.64,0 c -3.381,0 -6.103,0.208 -8.089,0.62 -4.344,0.901 -5.256,3.035 -5.256,4.667 0,3.147 2.998,4.641 17.161,11.182 8.761,4.045 19.664,9.08 26.753,13.815 7.196,4.788 11.613,17.502 15.162,27.718 3.579,10.306 5.945,17.113 11.08,17.113 h 2.018 c 5.141,0 7.506,-6.821 11.087,-17.145 3.539,-10.205 7.945,-22.907 15.1,-27.686 C -23.521,25.559 -12.625,20.53 -3.869,16.49 10.338,9.935 13.345,8.437 13.345,5.287 13.345,0.641 6.931,0 0,0"
         style="fill:#ffffff;fill-opacity:1;fill-rule:nonzero;stroke:none"
         id="path878" />
    </g>
    <g
       id="g880"
       transform="matrix(0.35277777,0,0,-0.35277777,123.08059,173.51243)">
      <path
         d="m 0,0 h -2.019 c -5.778,0 -8.623,-5.868 -9.558,-7.796 -1.477,-3.047 -2.811,-6.886 -4.356,-11.332 -3.221,-9.275 -7.633,-21.976 -13.985,-26.203 -6.902,-4.61 -17.686,-9.591 -26.352,-13.592 -4.452,-2.056 -8.296,-3.831 -11.203,-5.348 -3.431,-1.792 -7.701,-4.02 -7.701,-8.557 0,-1.811 0.745,-6.174 7.647,-7.605 2.186,-0.453 5.112,-0.682 8.698,-0.682 8.524,0 19.679,1.267 29.109,3.307 18.925,4.094 22.616,9.351 23.829,11.079 1.825,2.574 3.457,5.1 4.883,7.784 1.427,-2.688 3.064,-5.222 4.897,-7.808 1.197,-1.704 4.888,-6.962 23.812,-11.056 9.431,-2.04 20.585,-3.306 29.11,-3.306 3.584,0 6.51,0.229 8.697,0.682 6.902,1.431 7.647,5.795 7.647,7.605 0,4.54 -4.279,6.772 -7.718,8.565 -2.916,1.521 -6.773,3.301 -11.239,5.362 -8.662,3.997 -19.441,8.97 -26.353,13.57 -6.31,4.215 -10.71,16.903 -13.924,26.169 -1.545,4.454 -2.879,8.301 -4.357,11.352 C 8.629,-5.878 5.783,0 0,0 m 0,-6 c 6.819,0 10.228,-34.779 24.521,-44.326 14.347,-9.547 42.634,-19.775 42.634,-22.502 0,-1.562 -4.192,-2.287 -10.344,-2.287 -15.345,0 -42.888,4.512 -48.028,11.834 -5.456,7.691 -8.401,14.093 -9.765,24.731 -1.418,-10.638 -4.364,-17.04 -9.82,-24.731 -5.139,-7.321 -32.681,-11.834 -48.027,-11.834 -6.154,0 -10.345,0.725 -10.345,2.287 0,2.727 28.287,12.955 42.58,22.502 C -12.246,-40.779 -8.838,-6 -2.019,-6 H 0"
         style="fill:#ffffff;fill-opacity:1;fill-rule:nonzero;stroke:none"
         id="path882" />
    </g>
    <g
       id="g884"
       transform="matrix(0.35277777,0,0,-0.35277777,163.49396,135.80708)">
      <path
         d="m 0,0 c -22.445,0 -62.457,6.84 -76.635,17.98 -18.748,14.73 -19.253,78.565 -15.499,89.42 0.922,2.665 2.529,3.225 3.714,3.225 3.63,0 6.585,-2.771 29.372,-62.271 1.165,-3.043 2.159,-5.638 2.915,-7.581 4.321,-1.856 11.986,-4.844 20.74,-8.257 C 15.635,12.624 18.232,10.35 18.232,6.7 18.232,0.761 8.488,0 0,0"
         style="fill:#ffffff;fill-opacity:1;fill-rule:nonzero;stroke:none"
         id="path886" />
    </g>
    <g
       id="g888"
       transform="matrix(0.35277777,0,0,-0.35277777,132.30135,95.722887)">
      <path
         d="m 0,0 c -1.424,0 -4.912,-0.511 -6.549,-5.243 -2.235,-6.461 -2.614,-26.196 -0.847,-43.993 1.729,-17.395 6.138,-39.976 17.328,-48.768 15.259,-11.99 56.094,-18.621 78.487,-18.621 5.152,0 9.314,0.354 12.369,1.05 7.712,1.757 8.864,6.174 8.864,8.651 0,4.658 -4.533,7.012 -8.175,8.904 -3.041,1.58 -7.282,3.522 -12.964,5.937 -10.223,4.346 -23.067,9.353 -34.4,13.771 -7.995,3.117 -15.077,5.877 -19.487,7.727 -0.674,1.744 -1.497,3.892 -2.453,6.388 -3.859,10.076 -9.691,25.303 -14.965,37.938 -2.973,7.122 -5.37,12.478 -7.327,16.375 C 6.973,-4.097 4.562,0 0,0 m 0,-6 c 4.092,0 24.812,-56.052 29.946,-69.103 13.583,-6.052 73.706,-27.73 73.706,-31.821 0,-2.536 -6.114,-3.701 -15.233,-3.701 -21.942,0 -61.292,6.741 -74.78,17.339 C -5.335,-78.378 -4.092,-6 0,-6"
         style="fill:#ffffff;fill-opacity:1;fill-rule:nonzero;stroke:none"
         id="path890" />
    </g>
  </g>
</svg>
