<?xml version="1.0" encoding="UTF-8" standalone="no"?>
<!-- Created with Inkscape (http://www.inkscape.org/) -->

<svg
   width="163.26619mm"
   height="169.47794mm"
   viewBox="0 0 163.26619 169.47793"
   version="1.1"
   id="svg5"
   inkscape:version="1.1.2 (0a00cf5339, 2022-02-04)"
   sodipodi:docname="onehand.svg"
   xmlns:inkscape="http://www.inkscape.org/namespaces/inkscape"
   xmlns:sodipodi="http://sodipodi.sourceforge.net/DTD/sodipodi-0.dtd"
   xmlns="http://www.w3.org/2000/svg"
   xmlns:svg="http://www.w3.org/2000/svg">
  <sodipodi:namedview
     id="namedview7"
     pagecolor="#ffffff"
     bordercolor="#666666"
     borderopacity="1.0"
     inkscape:pageshadow="2"
     inkscape:pageopacity="0.0"
     inkscape:pagecheckerboard="0"
     inkscape:document-units="mm"
     showgrid="false"
     fit-margin-top="0"
     fit-margin-left="0"
     fit-margin-right="0"
     fit-margin-bottom="0"
     inkscape:zoom="0.69664703"
     inkscape:cx="195.93854"
     inkscape:cy="521.78505"
     inkscape:window-width="1850"
     inkscape:window-height="1016"
     inkscape:window-x="0"
     inkscape:window-y="0"
     inkscape:window-maximized="1"
     inkscape:current-layer="layer1" />
  <defs
     id="defs2">
    <clipPath
       clipPathUnits="userSpaceOnUse"
       id="clipPath854">
      <path
         d="M 0,600 H 600 V 0 H 0 Z"
         id="path852" />
    </clipPath>
    <clipPath
       clipPathUnits="userSpaceOnUse"
       id="clipPath1156">
      <path
         d="M 0,600 H 600 V 0 H 0 Z"
         id="path1154" />
    </clipPath>
    <clipPath
       clipPathUnits="userSpaceOnUse"
       id="clipPath1328">
      <path
         d="M 0,600 H 600 V 0 H 0 Z"
         id="path1326" />
    </clipPath>
    <clipPath
       clipPathUnits="userSpaceOnUse"
       id="clipPath1584">
      <path
         d="M 0,600 H 600 V 0 H 0 Z"
         id="path1582" />
    </clipPath>
  </defs>
  <g
     inkscape:label="Layer 1"
     inkscape:groupmode="layer"
     id="layer1"
     transform="translate(-53.18439,-10.212292)">
    <g
       id="g1334"
       transform="matrix(0.35277777,0,0,-0.35277777,142.98359,62.039602)">
      <path
         d="m 0,0 c -0.202,-1.281 -0.395,-2.563 -0.598,-3.854 -0.953,-6.108 -1.907,-12.342 -2.881,-18.634 -0.202,-1.281 -0.404,-2.563 -0.616,-3.854 h -84.748 c -7.264,0 -13.171,5.906 -13.171,13.171 0,7.265 5.907,13.171 13.171,13.171 z"
         style="fill:#ffffff;fill-opacity:1;fill-rule:nonzero;stroke:none"
         id="path1336" />
    </g>
    <g
       id="g1338"
       transform="matrix(0.35277777,0,0,-0.35277777,140.52275,77.790388)">
      <path
         d="m 0,0 c -0.174,-1.156 -0.356,-2.313 -0.539,-3.459 -0.974,-6.34 -1.956,-12.583 -2.881,-18.634 -0.222,-1.426 -0.434,-2.842 -0.655,-4.249 h -77.792 c -7.265,0 -13.171,5.916 -13.171,13.171 0,7.265 5.906,13.171 13.171,13.171 z"
         style="fill:#ffffff;fill-opacity:1;fill-rule:nonzero;stroke:none"
         id="path1340" />
    </g>
    <g
       id="g1342"
       transform="matrix(0.35277777,0,0,-0.35277777,138.11293,93.537753)">
      <path
         d="m 0,0 c -0.27,-1.84 -0.54,-3.642 -0.79,-5.405 -1.002,-6.918 -1.859,-13.21 -2.554,-18.634 -0.095,-0.79 -0.202,-1.551 -0.289,-2.303 h -65.584 c -7.264,0 -13.171,5.906 -13.171,13.171 0,7.265 5.907,13.171 13.171,13.171 z"
         style="fill:#ffffff;fill-opacity:1;fill-rule:nonzero;stroke:none"
         id="path1344" />
    </g>
    <g
       id="g1346"
       transform="matrix(0.35277777,0,0,-0.35277777,140.06386,118.57792)">
      <path
         d="m 0,0 h -68.928 c -7.255,0 -13.171,5.906 -13.171,13.17 0,7.256 5.916,13.171 13.171,13.171 h 58.359 c 0.125,-1.185 0.376,-2.476 0.732,-3.854 C -8.479,17.333 -5.713,10.935 -2.052,3.854 -1.396,2.592 -0.713,1.301 0,0"
         style="fill:#ffffff;fill-opacity:1;fill-rule:nonzero;stroke:none"
         id="path1348" />
    </g>
    <path
       d="m 215.48615,96.140819 c -1.29399,1.73179 -5.79014,12.648141 -10.97809,15.240001 -5.19218,2.59609 -33.72485,23.78216 -38.91315,25.94046 -5.18795,2.16182 -22.04649,2.60032 -24.20867,5.19218 -2.16182,2.59221 -39.77675,37.17677 -39.77675,37.17677 0,0 -11.20493,-6.36093 -23.36412,-18.85596 l 7.80768,-10.09897 8.96091,-11.59228 c 0.42227,-0.5394 -0.11748,-1.29011 -0.76624,-1.07103 l -1.12995,0.38699 -26.14788,9.00007 c -5.383745,-7.44396 -10.306053,-16.16639 -13.7855,-26.13589 0,0 43.66683,-25.940461 45.39897,-31.128761 1.73214,-5.187951 2.1583,-18.582571 2.1583,-18.582571 0,0 -3.02225,-15.142277 1.73178,-22.922792 4.75403,-7.779808 18.1603,-15.990358 18.1603,-15.990358 l 5.85293,1.825979 12.46823,4.871154 c 0,0 -14.43108,8.753827 -15.07984,9.40294 -0.64911,0.64911 1.46191,6.763808 4.10104,6.861527 1.29716,0.04798 13.69272,-7.149748 16.95132,-9.146823 15.32608,20.248384 16.23801,33.738603 16.23801,36.334343 0,2.59221 -5.94254,5.923141 -17.51153,8.429631 -8.83568,1.91558 -21.46018,-22.343891 -21.46018,-22.343891 0,0 -8.02252,2.60386 -6.23958,6.1775 9.36343,18.746611 18.13278,24.212191 22.18725,25.999012 4.05024,1.78294 32.5441,-6.184901 32.6457,-14.954602 0.22296,-19.06729 -19.92383,-48.32738 -23.1648,-50.92312 -2.32233,-1.857375 -9.98678,-5.091994 -13.97882,-6.452304 2.20134,-2.205215 2.25002,-2.27048 5.61199,-5.511096 1.68522,-1.622777 3.40537,-3.257196 5.06342,-4.793544 4.24956,-3.944761 8.05745,-7.213599 9.60191,-7.831313 4.32788,-1.7317864 17.30022,2.162175 20.32635,4.32435 3.02224,2.161822 3.89008,18.590682 3.89008,18.590682 0,0 8.2102,-3.030009 10.37625,-1.732492 2.16217,1.298223 12.42518,9.19198 12.86298,11.78419 0.43004,2.595737 -1.62277,15.028333 -1.62277,15.028333 0,0 4.29683,0.535869 6.04837,1.892655 2.35726,1.82174 5.94642,9.777939 6.38069,11.939759 0.4378,2.16606 -4.21111,12.10839 -4.21111,12.10839 0,0 5.8727,3.057531 6.91656,4.214641 2.05246,2.26765 1.89971,5.61446 0.59796,7.34624"
       style="fill:#000000;fill-opacity:1;fill-rule:nonzero;stroke:none;stroke-width:0.352777"
       id="path1588" />
  </g>
</svg>
