<?xml version="1.0" encoding="UTF-8" standalone="no"?>
<!-- Created with Inkscape (http://www.inkscape.org/) -->

<svg
   width="155.54474mm"
   height="169.47792mm"
   viewBox="0 0 155.54474 169.47791"
   version="1.1"
   id="svg5"
   inkscape:version="1.1.2 (0a00cf5339, 2022-02-04)"
   sodipodi:docname="small.svg"
   xmlns:inkscape="http://www.inkscape.org/namespaces/inkscape"
   xmlns:sodipodi="http://sodipodi.sourceforge.net/DTD/sodipodi-0.dtd"
   xmlns="http://www.w3.org/2000/svg"
   xmlns:svg="http://www.w3.org/2000/svg">
  <sodipodi:namedview
     id="namedview7"
     pagecolor="#ffffff"
     bordercolor="#666666"
     borderopacity="1.0"
     inkscape:pageshadow="2"
     inkscape:pageopacity="0.0"
     inkscape:pagecheckerboard="0"
     inkscape:document-units="mm"
     showgrid="false"
     fit-margin-top="0"
     fit-margin-left="0"
     fit-margin-right="0"
     fit-margin-bottom="0"
     inkscape:zoom="0.69664703"
     inkscape:cx="20.813984"
     inkscape:cy="491.64065"
     inkscape:window-width="1846"
     inkscape:window-height="1136"
     inkscape:window-x="0"
     inkscape:window-y="0"
     inkscape:window-maximized="1"
     inkscape:current-layer="layer1" />
  <defs
     id="defs2">
    <clipPath
       clipPathUnits="userSpaceOnUse"
       id="clipPath854">
      <path
         d="M 0,600 H 600 V 0 H 0 Z"
         id="path852" />
    </clipPath>
    <clipPath
       clipPathUnits="userSpaceOnUse"
       id="clipPath1156">
      <path
         d="M 0,600 H 600 V 0 H 0 Z"
         id="path1154" />
    </clipPath>
    <clipPath
       clipPathUnits="userSpaceOnUse"
       id="clipPath1328">
      <path
         d="M 0,600 H 600 V 0 H 0 Z"
         id="path1326" />
    </clipPath>
    <clipPath
       clipPathUnits="userSpaceOnUse"
       id="clipPath1584">
      <path
         d="M 0,600 H 600 V 0 H 0 Z"
         id="path1582" />
    </clipPath>
    <clipPath
       clipPathUnits="userSpaceOnUse"
       id="clipPath1867">
      <path
         d="M 0,600 H 600 V 0 H 0 Z"
         id="path1865" />
    </clipPath>
    <clipPath
       clipPathUnits="userSpaceOnUse"
       id="clipPath2090">
      <path
         d="M 0,600 H 600 V 0 H 0 Z"
         id="path2088" />
    </clipPath>
  </defs>
  <g
     inkscape:label="Layer 1"
     inkscape:groupmode="layer"
     id="layer1"
     transform="translate(-99.518368,-18.091081)">
    <g
       id="g2092"
       transform="matrix(0.35277777,0,0,-0.35277777,128.38826,31.094328)"
       style="fill:#000000">
      <path
         id="path2094"
         style="fill:#000000;fill-opacity:1;fill-rule:nonzero;stroke:none;stroke-width:1.33333"
         d="M 417.60938 0.005859375 C 412.065 -0.10809712 405.93495 1.3275522 399.28516 4.6523438 C 356.72782 25.932343 302.56239 95.573146 285.15039 97.507812 C 276.45039 98.474479 239.9123 93.153588 203.9043 74.294922 C 167.8603 55.417589 132.34057 23.017152 109.11523 49.146484 C 78.783235 83.26915 87.834283 147.80291 149.73828 219.37891 C 103.31028 215.50957 18.19413 209.7074 2.7167969 229.05273 C -12.757869 248.39673 43.343255 308.36636 33.669922 339.31836 C 87.835254 312.23436 105.24514 275.47901 145.86914 285.15234 C 141.99981 314.16968 141.99975 325.77684 112.98242 364.46484 C 83.966423 403.15551 29.801706 575.32415 161.3457 617.88281 C 292.8897 660.44148 302.56306 625.61914 366.40039 625.61914 C 430.23772 625.61914 494.07523 673.98218 555.97656 596.60352 C 617.88056 519.22485 584.99536 348.99001 497.94336 244.52734 C 499.87803 225.18334 579.19331 159.40921 546.30664 103.31055 C 534.69864 87.834547 463.12356 87.83613 445.71289 83.966797 C 460.40314 46.425548 447.54899 0.62122447 417.60938 0.005859375 z M 184.55859 230.98828 C 184.55859 230.98828 240.65845 234.85528 269.67578 238.72461 C 298.69311 242.59394 403.15373 229.0528 436.03906 234.85547 C 468.92573 240.65947 468.92717 275.47845 453.45117 269.67578 C 437.97517 263.87178 347.05457 287.08663 308.36523 292.89062 C 269.6759 298.69329 178.75391 283.21875 178.75391 283.21875 L 184.55859 230.98828 z "
         transform="matrix(0.75000002,0,0,-0.75000002,-81.835916,36.859599)" />
    </g>
    <g
       id="g2096"
       transform="matrix(0.35277777,0,0,-0.35277777,148.34948,79.206477)" />
  </g>
</svg>
