<?xml version="1.0" encoding="UTF-8" standalone="no"?>
<!-- Created with Inkscape (http://www.inkscape.org/) -->

<svg
   width="186.37314mm"
   height="160.97916mm"
   viewBox="0 0 186.37314 160.97915"
   version="1.1"
   id="svg5"
   inkscape:version="1.1.2 (0a00cf5339, 2022-02-04)"
   sodipodi:docname="twohand.svg"
   xmlns:inkscape="http://www.inkscape.org/namespaces/inkscape"
   xmlns:sodipodi="http://sodipodi.sourceforge.net/DTD/sodipodi-0.dtd"
   xmlns="http://www.w3.org/2000/svg"
   xmlns:svg="http://www.w3.org/2000/svg">
  <sodipodi:namedview
     id="namedview7"
     pagecolor="#ffffff"
     bordercolor="#666666"
     borderopacity="1.0"
     inkscape:pageshadow="2"
     inkscape:pageopacity="0.0"
     inkscape:pagecheckerboard="0"
     inkscape:document-units="mm"
     showgrid="false"
     fit-margin-top="0"
     fit-margin-left="0"
     fit-margin-right="0"
     fit-margin-bottom="0"
     inkscape:zoom="0.661049"
     inkscape:cx="289.69108"
     inkscape:cy="539.29437"
     inkscape:window-width="1846"
     inkscape:window-height="1136"
     inkscape:window-x="0"
     inkscape:window-y="0"
     inkscape:window-maximized="1"
     inkscape:current-layer="layer1" />
  <defs
     id="defs2">
    <clipPath
       clipPathUnits="userSpaceOnUse"
       id="clipPath854">
      <path
         d="M 0,600 H 600 V 0 H 0 Z"
         id="path852" />
    </clipPath>
    <clipPath
       clipPathUnits="userSpaceOnUse"
       id="clipPath1156">
      <path
         d="M 0,600 H 600 V 0 H 0 Z"
         id="path1154" />
    </clipPath>
    <clipPath
       clipPathUnits="userSpaceOnUse"
       id="clipPath1328">
      <path
         d="M 0,600 H 600 V 0 H 0 Z"
         id="path1326" />
    </clipPath>
    <clipPath
       clipPathUnits="userSpaceOnUse"
       id="clipPath1584">
      <path
         d="M 0,600 H 600 V 0 H 0 Z"
         id="path1582" />
    </clipPath>
    <clipPath
       clipPathUnits="userSpaceOnUse"
       id="clipPath1867">
      <path
         d="M 0,600 H 600 V 0 H 0 Z"
         id="path1865" />
    </clipPath>
  </defs>
  <g
     inkscape:label="Layer 1"
     inkscape:groupmode="layer"
     id="layer1"
     transform="translate(-63.456464,-13.068509)">
    <g
       id="g1334"
       transform="matrix(0.35277777,0,0,-0.35277777,142.98359,62.039602)">
      <path
         d="m 0,0 c -0.202,-1.281 -0.395,-2.563 -0.598,-3.854 -0.953,-6.108 -1.907,-12.342 -2.881,-18.634 -0.202,-1.281 -0.404,-2.563 -0.616,-3.854 h -84.748 c -7.264,0 -13.171,5.906 -13.171,13.171 0,7.265 5.907,13.171 13.171,13.171 z"
         style="fill:#ffffff;fill-opacity:1;fill-rule:nonzero;stroke:none"
         id="path1336" />
    </g>
    <g
       id="g1338"
       transform="matrix(0.35277777,0,0,-0.35277777,140.52275,77.790388)">
      <path
         d="m 0,0 c -0.174,-1.156 -0.356,-2.313 -0.539,-3.459 -0.974,-6.34 -1.956,-12.583 -2.881,-18.634 -0.222,-1.426 -0.434,-2.842 -0.655,-4.249 h -77.792 c -7.265,0 -13.171,5.916 -13.171,13.171 0,7.265 5.906,13.171 13.171,13.171 z"
         style="fill:#ffffff;fill-opacity:1;fill-rule:nonzero;stroke:none"
         id="path1340" />
    </g>
    <g
       id="g1342"
       transform="matrix(0.35277777,0,0,-0.35277777,138.11293,93.537753)">
      <path
         d="m 0,0 c -0.27,-1.84 -0.54,-3.642 -0.79,-5.405 -1.002,-6.918 -1.859,-13.21 -2.554,-18.634 -0.095,-0.79 -0.202,-1.551 -0.289,-2.303 h -65.584 c -7.264,0 -13.171,5.906 -13.171,13.171 0,7.265 5.907,13.171 13.171,13.171 z"
         style="fill:#ffffff;fill-opacity:1;fill-rule:nonzero;stroke:none"
         id="path1344" />
    </g>
    <g
       id="g1346"
       transform="matrix(0.35277777,0,0,-0.35277777,140.06386,118.57792)">
      <path
         d="m 0,0 h -68.928 c -7.255,0 -13.171,5.906 -13.171,13.17 0,7.256 5.916,13.171 13.171,13.171 h 58.359 c 0.125,-1.185 0.376,-2.476 0.732,-3.854 C -8.479,17.333 -5.713,10.935 -2.052,3.854 -1.396,2.592 -0.713,1.301 0,0"
         style="fill:#ffffff;fill-opacity:1;fill-rule:nonzero;stroke:none"
         id="path1348" />
    </g>
    <g
       id="g1863"
       clip-path="url(#clipPath1867)"
       transform="matrix(0.35277777,0,0,-0.35277777,50.809663,199.39144)"
       style="fill:#000000">
      <g
         id="g1869"
         transform="translate(561.6892,285.5396)"
         style="fill:#000000">
        <path
           d="m 0,0 c -3.311,-4.43 -14.811,-32.35 -28.08,-38.98 -13.28,-6.639 -86.26,-60.83 -99.53,-66.35 -13.27,-5.529 -56.4,-6.65 -61.92,-13.279 -5.531,-6.63 -101.741,-95.09 -101.741,-95.09 0,0 -23.569,13.38 -51.159,39.699 17.39,16.091 36.47,33.83 48.71,45.44 4.74,4.5 7.89,7.54 10.03,9.651 4.99,1.069 13.93,2.279 19.72,3.059 14.56,1.96 27.14,3.651 36.409,7.52 9.061,3.761 25.441,14.95 60.671,39.591 15.1,10.559 35.78,25.019 40.66,27.58 16.72,8.389 27.24,26.489 36.58,44.319 0.68,1.3 1.57,3.01 2.04,3.851 11.13,15.8 9.56,38.54 -3.85,53.38 -0.351,0.389 -0.77,0.849 -1.33,1.41 -0.57,0.559 -1.28,1.22 -2.2,1.979 3.84,11.05 4.679,18.151 3.27,25.14 -1.56,7.79 -6.62,18.4 -8.73,22.601 -7.84,15.66 -13.97,21.509 -17.89,24.549 -0.54,0.42 -1.09,0.821 -1.65,1.201 2.02,17.219 1.179,22.269 0.8,24.54 -1.78,10.549 -8.35,19.49 -24.27,33.03 -7.7,6.559 -17.04,13.619 -21.78,16.47 -0.5,0.299 -1.01,0.589 -1.531,0.87 4.111,3.37 7.381,5.729 9.301,6.5 11.06,4.429 44.24,-5.531 51.98,-11.061 7.74,-5.529 9.96,-47.55 9.96,-47.55 0,0 21,7.75 26.54,4.43 5.52,-3.319 31.78,-23.51 32.9,-30.14 1.1,-6.639 -4.15,-38.44 -4.15,-38.44 0,0 10.99,-1.369 15.469,-4.84 C -18.74,86.42 -9.561,66.07 -8.45,60.54 -7.34,55 -19.22,29.57 -19.22,29.57 c 0,0 15.01,-7.82 17.68,-10.78 C 3.72,12.99 3.32,4.431 0,0"
           style="fill:#000000;fill-opacity:1;fill-rule:nonzero;stroke:none"
           id="path1871" />
      </g>
      <g
         id="g1873"
         transform="translate(354.6794,478.4801)"
         style="fill:#000000">
        <path
           d="M 0,0 C 0.54,-5.87 0.76,-10.03 0.76,-10.03 H 0.77 C 0.77,-10.03 0.55,-5.87 0,0"
           style="fill:#000000;fill-opacity:1;fill-rule:nonzero;stroke:none"
           id="path1875" />
      </g>
      <g
         id="g1877"
         transform="translate(450.9792,308.3805)"
         style="fill:#000000">
        <path
           id="path1879"
           style="fill:#000000;fill-opacity:1;fill-rule:nonzero;stroke:none;stroke-width:1.33333"
           d="M 353.57422 0 C 349.54755 0 346.10687 0.43951044 343.54688 1.4648438 C 328.81221 7.358177 253.61328 84.039062 253.61328 84.039062 L 230.01367 76.666016 C 230.01367 76.666016 184.29341 104.66722 168.08008 131.19922 C 151.86675 157.74588 162.17383 209.37109 162.17383 209.37109 C 162.17383 209.37109 160.71951 255.06581 154.82617 272.75781 C 148.90617 290.45248 0 378.91797 0 378.91797 C 11.853333 412.91797 28.64 442.66607 47 468.05273 L 85.453125 513.65234 C 126.91979 556.26701 165.14453 577.97266 165.14453 577.97266 C 165.14453 577.97266 190.54706 554.61258 219.40039 527.89258 C 242.38706 506.61258 267.54745 483.21383 283.80078 467.8125 C 292.98745 459.10717 299.32044 452.94716 300.78711 451.17383 C 308.16044 442.33383 365.6657 440.83985 383.3457 433.47852 C 401.0377 426.11985 498.3594 353.85172 516.05273 345.01172 C 533.74607 336.15972 549.07919 298.94706 553.50586 293.03906 C 557.93253 287.1324 558.45312 275.70599 551.45312 267.97266 C 547.89313 264.02599 527.86719 253.59961 527.86719 253.59961 C 527.86719 253.59961 543.7199 219.69169 542.22656 212.31836 C 540.75856 204.94636 528.50652 177.8126 520.47852 171.58594 C 514.49318 166.95927 499.83984 165.13281 499.83984 165.13281 C 499.83984 165.13281 506.85243 122.73258 505.37109 113.89258 C 503.87909 105.03791 468.87919 78.119745 461.50586 73.705078 C 460.21253 72.918411 458.26727 72.599609 455.94727 72.599609 C 451.7206 72.599609 446.2392 73.667323 441.14453 74.972656 C 433.17253 77.000656 426.13281 79.613281 426.13281 79.613281 C 426.13281 79.613281 425.84076 74.066281 425.10742 66.238281 C 424.61409 60.879615 423.91932 54.453333 422.97266 48 C 422.90599 47.493333 422.82609 46.97151 422.74609 46.464844 C 422.61276 45.53151 422.46664 44.599349 422.30664 43.666016 C 422.15997 42.732682 421.99951 41.799526 421.82617 40.880859 C 421.66617 39.959526 421.50698 39.052531 421.32031 38.144531 C 421.24031 37.704531 421.14473 37.2525 421.05273 36.8125 C 420.8794 35.919167 420.69414 35.03888 420.49414 34.185547 C 420.30747 33.31888 420.10625 32.47901 419.90625 31.652344 C 418.06625 24.199011 415.75885 18.280552 412.85352 16.199219 C 404.32018 10.107219 372.64088 2.8051634e-16 353.57422 0 z M 319.41016 66.144531 A 13.333333 13.333333 0 0 1 324.25195 68.044922 C 324.25195 68.044922 451.81823 149.40234 509.88477 296.98828 A 13.333333 13.333333 0 0 1 502.35742 314.27734 A 13.333333 13.333333 0 0 1 485.06836 306.75 C 430.66301 168.46956 309.84961 90.488281 309.84961 90.488281 A 13.333333 13.333333 0 0 1 305.83008 72.066406 A 13.333333 13.333333 0 0 1 319.41016 66.144531 z "
           transform="matrix(0.75000002,0,0,-0.75000002,-415.13,219.779)" />
      </g>
      <g
         id="g1881"
         transform="translate(273.6374,468.7096)"
         style="fill:#000000">
        <g
           id="path1883" />
      </g>
    </g>
  </g>
</svg>
