<?xml version="1.0" encoding="UTF-8" standalone="no"?>
<svg
   viewBox="0 0 100 100"
   version="1.1"
   id="svg3"
   sodipodi:docname="fh-resonance.svg"
   inkscape:version="1.1.2 (0a00cf5339, 2022-02-04)"
   xmlns:inkscape="http://www.inkscape.org/namespaces/inkscape"
   xmlns:sodipodi="http://sodipodi.sourceforge.net/DTD/sodipodi-0.dtd"
   xmlns="http://www.w3.org/2000/svg"
   xmlns:svg="http://www.w3.org/2000/svg">
  <defs
     id="defs7" />
  <sodipodi:namedview
     id="namedview5"
     pagecolor="#ffffff"
     bordercolor="#666666"
     borderopacity="1.0"
     inkscape:pageshadow="2"
     inkscape:pageopacity="0.0"
     inkscape:pagecheckerboard="0"
     showgrid="false"
     inkscape:zoom="0.77163028"
     inkscape:cx="-209.29713"
     inkscape:cy="42.118617"
     inkscape:window-width="1846"
     inkscape:window-height="1016"
     inkscape:window-x="0"
     inkscape:window-y="0"
     inkscape:window-maximized="1"
     inkscape:current-layer="svg3" />
  <path
     d="m 99.863,46.482 c -0.13,-0.105 -1.122,-0.903 -2.439,-1.679 -1.406,-0.829 -3.138,-1.229 -3.276,-1.194 -2.096,0.542 -3.679,2.089 -5.132,4.516 -1.453,2.427 -2.646,5.627 -3.86,8.85 -1.213,3.222 -2.437,6.47 -4.242,9.115 -1.805,2.644 -4.47,4.762 -7.971,4.857 -2.222,0.06 -4.236,-0.664 -5.791,-1.908 -1.554,-1.244 -2.679,-2.929 -3.582,-4.818 -1.805,-3.78 -2.781,-8.49 -3.773,-13.117 -0.992,-4.628 -1.998,-9.173 -3.479,-12.317 -0.74,-1.572 -1.586,-2.768 -2.496,-3.523 -0.91,-0.755 -1.85,-1.139 -3.211,-1.139 -3.151,-10e-4 -4.919,1.565 -6.593,4.6 -1.674,3.034 -2.853,7.431 -3.989,11.955 -1.136,4.523 -2.231,9.167 -4.129,12.941 -1.897,3.774 -4.986,6.867 -9.462,7.024 -3.575,0.124 -6.358,-1.96 -8.18,-4.622 C 16.435,63.362 15.231,60.054 14.037,56.777 12.843,53.5 11.672,50.251 10.242,47.85 8.812,45.449 7.1901881,44.010395 5.1281881,43.623395 1.645954,44.974282 1.7542791,45.53491 0.215,46.723 l 0.699,-5.692 c 2.1544819,-1.329036 3.3200105,-1.564402 5.06299,-1.324 3.514,0.661 5.965,3.181 7.701,6.096 1.736,2.915 2.932,6.351 4.117,9.605 1.185,3.254 2.373,6.324 3.764,8.356 1.39,2.031 2.643,2.956 4.738,2.882 2.825,-0.098 4.46,-1.7 6.029,-4.822 1.57,-3.122 2.683,-7.576 3.824,-12.119 1.142,-4.543 2.306,-9.179 4.366,-12.912 2.059,-3.733 5.414,-6.669 10.097,-6.668 2.226,0.001 4.222,0.781 5.764,2.061 1.541,1.279 2.661,2.986 3.561,4.896 1.799,3.821 2.778,8.557 3.769,13.184 0.991,4.626 1.998,9.144 3.473,12.232 0.737,1.544 1.577,2.701 2.472,3.418 0.896,0.717 1.819,1.07 3.182,1.033 2.053,-0.055 3.375,-1.064 4.775,-3.115 1.401,-2.051 2.6,-5.068 3.805,-8.27 1.205,-3.201 2.429,-6.585 4.17,-9.494 1.741,-2.908 4.129,-5.446 7.564,-6.334 2.425,-0.626 5.00289,0.627157 6.67289,1.612157"
     id="path2833"
     sodipodi:nodetypes="cccscccccccsccccccssccccssccccccccccccccccc" />
</svg>
