<?xml version="1.0" encoding="UTF-8" standalone="no"?>
<!-- Created with Inkscape (http://www.inkscape.org/) -->

<svg
   width="96.636063mm"
   height="96.745308mm"
   viewBox="0 0 96.636063 96.745308"
   version="1.1"
   id="svg1798"
   inkscape:version="1.1.2 (0a00cf5339, 2022-02-04)"
   sodipodi:docname="toa-ritualist.svg"
   xmlns:inkscape="http://www.inkscape.org/namespaces/inkscape"
   xmlns:sodipodi="http://sodipodi.sourceforge.net/DTD/sodipodi-0.dtd"
   xmlns="http://www.w3.org/2000/svg"
   xmlns:svg="http://www.w3.org/2000/svg">
  <sodipodi:namedview
     id="namedview1800"
     pagecolor="#ffffff"
     bordercolor="#666666"
     borderopacity="1.0"
     inkscape:pageshadow="2"
     inkscape:pageopacity="0.0"
     inkscape:pagecheckerboard="0"
     inkscape:document-units="mm"
     showgrid="false"
     fit-margin-top="0"
     fit-margin-left="0"
     fit-margin-right="0"
     fit-margin-bottom="0"
     inkscape:zoom="1.6281132"
     inkscape:cx="252.74656"
     inkscape:cy="247.8329"
     inkscape:window-width="1846"
     inkscape:window-height="1136"
     inkscape:window-x="0"
     inkscape:window-y="0"
     inkscape:window-maximized="1"
     inkscape:current-layer="layer1" />
  <defs
     id="defs1795" />
  <g
     inkscape:label="Layer 1"
     inkscape:groupmode="layer"
     id="layer1"
     transform="translate(-58.162181,-186.29156)">
    <path
       style="fill:#000000;stroke-width:0.264583"
       d="m 91.850885,257.51342 -5.820833,-4.10088 -0.152824,-1.50398 c -0.08405,-0.82719 -0.292412,-1.76404 -0.463021,-2.0819 -0.170608,-0.31785 -0.310197,-0.69698 -0.310197,-0.8425 0,-0.14552 1.518047,-2.06575 3.373437,-4.26717 1.855391,-2.20143 3.594725,-4.27902 3.865187,-4.61689 0.471768,-0.58934 0.474268,-0.72465 0.06156,-3.33036 -0.236598,-1.49384 -0.39606,-2.75019 -0.354356,-2.79189 0.04171,-0.0417 0.896009,0.45188 1.898451,1.09687 l 1.822625,1.17269 1.999812,-2.18183 c 1.09989,-1.20001 3.110504,-3.32545 4.468014,-4.72321 l 2.46821,-2.54137 0.18655,-2.618 0.18656,-2.618 1.17844,1.09413 1.17845,1.09413 3.90316,-3.73996 3.90316,-3.73997 0.98697,-2.6226 c 0.88223,-2.34432 1.02262,-2.56891 1.32301,-2.11667 1.14151,1.71857 0.95897,1.72171 2.79105,-0.0481 1.8604,-1.79719 6.51614,-5.97251 8.63404,-7.74308 l 1.37964,-1.1534 -0.71274,1.94715 c -0.39201,1.07092 -1.65229,4.20932 -2.80063,6.97422 -1.14834,2.7649 -2.14786,5.21394 -2.22115,5.44233 -0.10088,0.31434 0.15348,0.47507 1.04677,0.66146 l 1.18002,0.24621 -2.15385,1.87713 -2.15385,1.87713 -2.11666,4.70506 c -1.16417,2.58778 -2.14982,4.78932 -2.19034,4.89232 -0.0405,0.10299 0.40665,0.40385 0.99371,0.66857 1.83443,0.82722 1.78493,1.01139 -0.53556,1.99232 l -2.11497,0.89406 -3.04558,5.93623 c -1.67507,3.26492 -3.01211,5.95859 -2.97121,5.98592 0.0409,0.0273 0.84827,0.63626 1.79416,1.35319 l 1.71979,1.30349 -2.82843,0.5242 -2.82844,0.52419 -1.24535,2.25393 c -0.68494,1.23966 -2.05931,3.64185 -3.05415,5.33819 l -1.8088,3.08427 -0.99658,-0.13153 c -0.56898,-0.0751 -1.507444,0.0473 -2.187214,0.28531 -0.65484,0.22928 -1.25016,0.4107 -1.32292,0.40317 -0.0728,-0.008 -2.751666,-1.85908 -5.953124,-4.11456 z"
       id="path967" />
    <path
       style="fill:#000000;stroke-width:0.264583"
       d="m 100.44593,271.47918 c -0.507174,-0.26892 -2.648534,-1.30792 -4.758587,-2.30888 -5.572691,-2.64355 -11.838506,-7.0975 -17.000164,-12.08427 -2.146808,-2.07407 -3.90298,-3.96153 -3.902604,-4.19435 0.0011,-0.66252 1.539703,-2.62022 2.052865,-2.612 0.253748,0.004 5.283393,3.40018 11.176986,7.54693 15.859114,11.15851 15.729014,11.06363 15.820124,11.5376 0.12644,0.65775 -1.30792,2.58209 -1.93341,2.59387 -0.2932,0.006 -0.94804,-0.20998 -1.45521,-0.4789 z"
       id="path965" />
    <path
       style="fill:#000000;stroke-width:0.264583"
       d="m 76.90874,269.67271 0.65805,-0.61821 c 0.361929,-0.34001 0.658053,-0.75866 0.658053,-0.93032 0,-0.17167 0.297916,-0.63358 0.662035,-1.02647 0.36412,-0.39289 0.828181,-1.03563 1.031246,-1.42832 0.203065,-0.39269 0.619524,-0.94051 0.925465,-1.21738 0.30594,-0.27687 0.556254,-0.65651 0.556254,-0.84365 0,-0.84817 0.779545,-0.47696 4.558409,2.17067 2.222301,1.55704 4.077192,2.85921 4.121978,2.89372 0.15069,0.11611 -1.579589,2.76621 -1.806086,2.76621 -0.123232,0 -0.307676,0.26789 -0.409877,0.59531 -0.16321,0.52288 -0.78646,1.39213 -2.06779,2.88395"
       id="path961" />
  </g>
</svg>
