<?xml version="1.0" encoding="UTF-8" standalone="no"?>
<!-- Created with Inkscape (http://www.inkscape.org/) -->

<svg
   width="96.643356mm"
   height="96.799896mm"
   viewBox="0 0 96.643356 96.799896"
   version="1.1"
   id="svg5"
   inkscape:version="1.1.2 (0a00cf5339, 2022-02-04)"
   sodipodi:docname="toa-reaver.svg"
   xmlns:inkscape="http://www.inkscape.org/namespaces/inkscape"
   xmlns:sodipodi="http://sodipodi.sourceforge.net/DTD/sodipodi-0.dtd"
   xmlns="http://www.w3.org/2000/svg"
   xmlns:svg="http://www.w3.org/2000/svg">
  <sodipodi:namedview
     id="namedview7"
     pagecolor="#ffffff"
     bordercolor="#666666"
     borderopacity="1.0"
     inkscape:pageshadow="2"
     inkscape:pageopacity="0.0"
     inkscape:pagecheckerboard="0"
     inkscape:document-units="mm"
     showgrid="false"
     fit-margin-top="0"
     fit-margin-left="0"
     fit-margin-right="0"
     fit-margin-bottom="0"
     inkscape:zoom="1.2244187"
     inkscape:cx="383.44725"
     inkscape:cy="147.41689"
     inkscape:window-width="1846"
     inkscape:window-height="1136"
     inkscape:window-x="0"
     inkscape:window-y="0"
     inkscape:window-maximized="1"
     inkscape:current-layer="layer1" />
  <defs
     id="defs2" />
  <g
     inkscape:label="Layer 1"
     inkscape:groupmode="layer"
     id="layer1"
     transform="translate(-57.701984,-22.321459)">
    <path
       style="fill:#000000;stroke-width:0.264583"
       d="m 88.46362,102.8552 c -0.443992,-0.088 0.546657,-1.20146 5.323377,-5.983237 5.32583,-5.33148 5.96095,-6.06378 6.863933,-7.91416 0.83647,-1.7141 0.99896,-2.3255 1.01958,-3.83646 0.0405,-2.9693 -0.069,-3.15268 -2.008263,-3.36418 -1.44667,-0.15778 -15.03467,-2.01953 -17.71996,-2.42789 l -0.981425,-0.14925 3.164237,-4.73573 3.164234,-4.73574 v -1.730787 c 0,-2.01628 0.103034,-1.93255 -3.439583,-2.79514 -3.907528,-0.95145 -10.183993,-0.99304 -12.555005,-0.0832 -0.771116,0.2959 1.535106,-2.5797 3.860273,-4.81333 4.608412,-4.427 9.582316,-6.69152 15.928139,-7.25178 2.62653,-0.23189 3.47605,-0.21362 6.28871,0.13521 0.93943,0.11651 0.97746,0.0837 2.42268,-2.08792 l 1.468263,-2.2063 5.22693,-3.3483 c 2.87482,-1.84157 5.27181,-3.30343 5.32666,-3.24859 0.18187,0.18188 -0.45952,8.19568 -0.85492,10.68173 -0.21385,1.3445 -0.38881,2.49907 -0.38881,2.56571 0,0.0666 1.51805,0.62139 3.37344,1.23278 5.54597,1.82751 7.7251,1.54569 9.03927,-1.16904 0.30353,-0.62701 0.55188,-1.58251 0.55188,-2.12332 0,-1.04191 -0.5715,-2.6608 -1.17831,-3.33787 -0.31421,-0.35057 -0.0217,-1.28098 2.12409,-6.75655 1.36866,-3.4925 2.51944,-6.43633 2.55728,-6.54185 0.0792,-0.22084 6.18364,7.3994 7.54866,9.42309 1.96787,2.91746 3.81151,7.19711 4.57177,10.61251 0.80076,3.59733 0.7965,8.68797 -0.0104,12.442757 -0.27283,1.26954 -0.34284,1.35012 -1.53334,1.76509 -0.6861,0.23915 -2.1837,0.58875 -3.32801,0.7769 -1.14431,0.18814 -2.13611,0.48684 -2.20401,0.66378 -0.15626,0.40719 0.57291,4.00618 1.36056,6.71541 l 0.60296,2.07395 -1.68998,2.25177 c -2.99628,3.99232 -7.78779,8.36466 -12.41412,11.32815 l -1.07932,0.69138 -0.90506,-0.51829 c -0.56897,-0.32583 -1.48698,-1.40348 -2.47212,-2.90201 -1.02955,-1.56609 -1.63063,-2.2642 -1.75239,-2.03527 -0.10193,0.19165 -0.38207,1.2484 -0.62253,2.34833 -0.38567,1.76418 -0.684,2.34378 -2.53118,4.91768 l -2.09397,2.917787 -1.93414,0.57412 c -2.73333,0.81135 -6.802373,1.56567 -10.166673,1.8847 -2.7978,0.26531 -6.81703,0.31266 -7.923397,0.0934 z"
       id="path961" />
    <path
       style="fill:#000000;stroke-width:0.264583"
       d="m 69.001338,97.255283 5.079154,-7.62713 c 2.793534,-4.19492 5.116587,-7.67093 5.162333,-7.72446 0.08597,-0.10059 9.414902,0.98066 9.539952,1.10571 0.0387,0.0386 -2.96911,4.59008 -6.683934,10.11429 -3.714824,5.5242 -7.201151,10.760947 -7.201151,10.760947"
       id="path959" />
  </g>
</svg>
