<svg xmlns="http://www.w3.org/2000/svg" viewBox="0 0 44.21 22.48"><defs><style>.cls-1{fill:#fff;}.cls-2{fill:#89a53d;}.cls-3{fill:#e15426;}</style></defs><g id="Layer_2" data-name="Layer 2"><g id="Frame"><path id="Frame-2" data-name="Frame" class="cls-1" d="M40.9,3.28A11.17,11.17,0,0,0,33,0H11.34A11.63,11.63,0,0,0,6.69,1,11.31,11.31,0,0,0,3,3.57a11.26,11.26,0,0,0,8.25,18.91H32.88a11.2,11.2,0,0,0,4.42-.9,11.59,11.59,0,0,0,3.62-2.45,11.2,11.2,0,0,0,0-15.83l0,0"/></g><g id="Earth_Right" data-name="Earth Right"><path id="Background" class="cls-2" d="M24.91,21.8h8A10.56,10.56,0,0,0,33,.68H25.84a.8.8,0,0,0-.78.62L21.4,17.4a3.6,3.6,0,0,0,3.51,4.4"/><path id="Icon" class="cls-1" d="M28.38,15.07a.21.21,0,0,1-.24.19l-.09,0c-1-.63-3.43-3.23-.47-6.51S34.37,7.2,38.21,4.88a.2.2,0,0,1,.27.07l0,.06c.52,2.36.84,7.52-1.57,9.89C34,17.8,31.6,16.52,30.3,16.06a7,7,0,0,0,.38,2.33c.2.66-1.08.85-1.24.73a6.74,6.74,0,0,1,.74-5.32c1.9-2.52,6.52-4.72,6.66-6.5a24.75,24.75,0,0,1-5.16,3.58c-2.73,1.52-3.22,3.42-3.3,4.19"/></g><g id="Fire_Left" data-name="Fire Left"><path id="Background-2" data-name="Background" class="cls-3" d="M19.19.68H11.34a10.56,10.56,0,0,0-.1,21.12h7a.79.79,0,0,0,.78-.62L22.7,5.08A3.6,3.6,0,0,0,19.19.68"/><path id="Icon-2" data-name="Icon" class="cls-1" d="M15.08,8.44A6,6,0,0,1,13.2,2.7,4.69,4.69,0,0,0,9.86,6.28c-1.14,4.08,1.69,5.4,0,6.82-1.9,1.61-3.54-1-3.28-3.3-1.2.94-1.93,4.79-.38,7.12a6,6,0,0,0,4.38,2.86,1.52,1.52,0,0,1-.42-1.8c.3-.86,1.29-1.24,2.22-2a3.92,3.92,0,0,0,1.54-2,4,4,0,0,1,.62,3.64,3.52,3.52,0,0,1-1.37,2A6.11,6.11,0,0,0,18,13.82c0-3-1.51-4.27-2.88-5.38"/></g></g></svg>