<svg xmlns="http://www.w3.org/2000/svg" viewBox="0 0 44.21 22.48"><defs><style>.cls-1{fill:#fff;}.cls-2{fill:#1f2c35;}.cls-3{fill:#eeac1f;}</style></defs><g id="Layer_2" data-name="Layer 2"><g id="Frame"><path id="Frame-2" data-name="Frame" class="cls-1" d="M40.9,3.28A11.17,11.17,0,0,0,33,0H11.34A11.63,11.63,0,0,0,6.69,1,11.31,11.31,0,0,0,3,3.57a11.26,11.26,0,0,0,8.25,18.91H32.88a11.2,11.2,0,0,0,4.42-.9,11.59,11.59,0,0,0,3.62-2.45,11.2,11.2,0,0,0,0-15.83l0,0"/></g><g id="Dark_Right" data-name="Dark Right"><path id="Background" class="cls-2" d="M24.91,21.8h8A10.56,10.56,0,0,0,33,.68H25.84a.8.8,0,0,0-.78.62L21.4,17.4a3.6,3.6,0,0,0,3.51,4.4"/><path id="Icon" class="cls-1" d="M34.2,5a6.29,6.29,0,0,0-1.83.27A6.07,6.07,0,0,0,30.53,5a6.31,6.31,0,0,0,0,12.62,6.4,6.4,0,0,0,1.84-.27A6.31,6.31,0,1,0,34.2,5M32.37,16.81a5.54,5.54,0,0,1-.8.21,6,6,0,0,1-1,.09,5.83,5.83,0,0,1,0-11.66,6,6,0,0,1,1,.09,5.73,5.73,0,0,1,1.5.49,5.83,5.83,0,0,1-.7,10.78m1.83.3a6,6,0,0,1-1-.09c.24-.12.47-.24.7-.38l.21-.14a5.3,5.3,0,0,0,5.28-5.22,5.3,5.3,0,0,0-5.28-5.23l-.21-.14a6.7,6.7,0,0,0-.7-.37,6,6,0,0,1,1-.1,5.84,5.84,0,0,1,0,11.67"/></g><g id="Light_Left" data-name="Light Left"><path id="Background-2" data-name="Background" class="cls-3" d="M19.19.68H11.34a10.56,10.56,0,0,0-.1,21.12h7a.79.79,0,0,0,.78-.62L22.7,5.08A3.6,3.6,0,0,0,19.19.68"/><path id="Icon-2" data-name="Icon" class="cls-1" d="M20.52,11,16.79,9.16l1.31-4A.24.24,0,0,0,18,4.89H17.8l-4,1.32L12,2.48a.24.24,0,0,0-.32-.11.29.29,0,0,0-.11.11L9.67,6.21,5.72,4.89a.25.25,0,0,0-.31.16.38.38,0,0,0,0,.15l1.32,4L3,11a.24.24,0,0,0-.11.32.22.22,0,0,0,.11.1l3.73,1.87-1.32,4a.25.25,0,0,0,.15.31.43.43,0,0,0,.16,0l4-1.32L11.54,20a.25.25,0,0,0,.33.11A.27.27,0,0,0,12,20l1.87-3.73,4,1.32h.08a.24.24,0,0,0,.24-.24.24.24,0,0,0,0-.08l-1.31-4,3.73-1.87a.23.23,0,0,0,.1-.32.24.24,0,0,0-.1-.1m-3.59-5-.72,2.79-1-.51.4-.93-.93.4-.51-1ZM12.86,8.58l-.53-1.33,1.21-.31L14.18,8Zm-2.2,0L9.34,8,10,6.94l1.21.31ZM9.1,10.14l-1.33.53L7.46,9.46l1.08-.64Zm0,2.2-.56,1.32L7.46,13l.31-1.21Zm1.56,1.56.53,1.33L10,15.54l-.64-1.08Zm2.2,0,1.32.56-.64,1.08-1.21-.31Zm1.56-1.56,1.32-.53L16.06,13,15,13.66Zm0-2.2L15,8.82l1.08.64-.32,1.21ZM11.76,3.93l1.47,2.48-1.1.36-.37-.94-.38.94-1.09-.36ZM6.59,6.07l2.79.72-.51,1-.93-.4.4.93-1,.51ZM4.45,11.24,6.93,9.77l.36,1.09-.94.38.94.38-.36,1.09Zm2.14,5.17.72-2.79,1,.51-.4.93.93-.4.52,1Zm5.17,2.14-1.47-2.48,1.09-.36.38.94.37-.94,1.1.36Zm5.17-2.14-2.8-.72.52-1,.93.4-.4-.93,1-.51Zm-.34-3.7-.36-1.09.94-.38-.94-.38.36-1.09,2.48,1.47Z"/></g></g></svg>