<svg xmlns="http://www.w3.org/2000/svg" viewBox="0 0 560 560"><defs><style>.cls-1{fill:#fff;}.cls-2{fill:#1f2c35;}.cls-3{fill:#eeac1f;}.cls-4{fill:#89a53d;}.cls-5{fill:#e15426;}.cls-6{fill:#1ac2ec;}.cls-7{fill:#9ab0b7;}</style></defs><g id="Layer_2" data-name="Layer 2"><g id="Layer_1-2" data-name="Layer 1"><path class="cls-1" d="M280,552A272,272,0,0,1,87.67,87.67,272,272,0,1,1,472.33,472.33,270.19,270.19,0,0,1,280,552"/><path class="cls-1" d="M280,16c145.8,0,264,118.2,264,264S425.8,544,280,544,16,425.8,16,280,134.2,16,280,16m0-16A280.07,280.07,0,0,0,171,538,280.07,280.07,0,0,0,389,22,278.34,278.34,0,0,0,280,0"/><path class="cls-2" d="M280,280S119.86,373.37,51.33,412a263.91,263.91,0,0,1,0-264L280,280"/><path class="cls-3" d="M280,280s.79,185.37,0,264A263.87,263.87,0,0,1,51.37,412L280,280"/><path class="cls-4" d="M280,280s160.93,92,228.67,132A263.89,263.89,0,0,1,280,544Z"/><path class="cls-5" d="M280,280s160.14-93.37,228.67-132a263.91,263.91,0,0,1,0,264L280,280"/><path class="cls-6" d="M280,280s-.79-185.37,0-264A263.87,263.87,0,0,1,508.63,148L280,280"/><path class="cls-7" d="M280,280S119.07,188,51.33,148A263.89,263.89,0,0,1,280,16Z"/></g></g></svg>