<?xml version="1.0" encoding="UTF-8" standalone="no"?>
<!-- Created with Inkscape (http://www.inkscape.org/) -->

<svg
   width="12.774438mm"
   height="8.8386784mm"
   viewBox="0 0 12.774438 8.8386784"
   version="1.1"
   id="svg5"
   inkscape:version="1.1.2 (0a00cf5339, 2022-02-04)"
   sodipodi:docname="logo-transparent.svg"
   xmlns:inkscape="http://www.inkscape.org/namespaces/inkscape"
   xmlns:sodipodi="http://sodipodi.sourceforge.net/DTD/sodipodi-0.dtd"
   xmlns="http://www.w3.org/2000/svg"
   xmlns:svg="http://www.w3.org/2000/svg">
  <sodipodi:namedview
     id="namedview7"
     pagecolor="#ffffff"
     bordercolor="#666666"
     borderopacity="1.0"
     inkscape:pageshadow="2"
     inkscape:pageopacity="0.0"
     inkscape:pagecheckerboard="0"
     inkscape:document-units="mm"
     showgrid="false"
     fit-margin-top="0"
     fit-margin-left="0"
     fit-margin-right="0"
     fit-margin-bottom="0"
     inkscape:zoom="5.4814918"
     inkscape:cx="6.4763392"
     inkscape:cy="20.158746"
     inkscape:window-width="1846"
     inkscape:window-height="1016"
     inkscape:window-x="0"
     inkscape:window-y="0"
     inkscape:window-maximized="1"
     inkscape:current-layer="layer1" />
  <defs
     id="defs2" />
  <g
     inkscape:label="Layer 1"
     inkscape:groupmode="layer"
     id="layer1"
     transform="translate(-62.078973,-86.27428)">
    <g
       aria-label="GHS"
       id="text1354"
       style="font-size:10.5833px;line-height:1.25;font-family:'padmaa-Bold.1.1';-inkscape-font-specification:'padmaa-Bold.1.1';letter-spacing:0px;word-spacing:0px;fill:#936658;stroke:#ffffff;stroke-width:0.265">
      <path
         d="m 64.021217,93.630485 c -0.359832,0 -0.539748,-0.253999 -0.539748,-0.783164 v -5.2599 c 0.05292,-0.0635 0.116416,-0.105833 0.1905,-0.105833 0.09525,0 0.222249,0.296333 0.391582,0.867831 0.158749,0.571498 0.296332,0.857247 0.402165,0.857247 0.02117,0 0.222249,-0.08467 0.592665,-0.264582 l 0.793747,-0.380999 v -0.211666 c -0.232832,0 -0.380999,-0.0635 -0.465665,-0.201083 -0.08467,-0.137583 -0.158749,-0.349249 -0.232833,-0.645581 l -0.190499,-0.740831 c -0.0635,-0.201083 -0.105833,-0.306916 -0.148166,-0.306916 -0.127,0 -0.592665,0.15875 -1.396996,0.455082 -0.80433,0.296332 -1.206496,0.476249 -1.206496,0.518582 v 5.630315 c 0,0.423332 0.105833,0.793748 0.328082,1.09008 0.22225,0.306916 0.423332,0.455082 0.592665,0.455082 0.169333,0 0.645582,-0.148166 1.418162,-0.444499 0.772581,-0.296332 1.164163,-0.476248 1.164163,-0.539748 v -2.370659 c 0,-0.127 -0.07408,-0.253999 -0.211666,-0.402166 -0.148166,-0.148166 -0.285749,-0.253999 -0.433915,-0.317498 l -1.068913,0.603248 v 0.232832 c 0.285749,0.0635 0.433915,0.306916 0.433915,0.730248 v 1.365246 c -0.148166,0.116416 -0.285749,0.169332 -0.412749,0.169332 z"
         style="font-family:'Pirata One';-inkscape-font-specification:'Pirata One'"
         id="path824" />
      <path
         d="m 68.88953,90.275579 h -0.423332 l -0.529165,0.285749 v -3.386655 c 0,-0.127 -0.07408,-0.254 -0.201083,-0.402166 -0.137582,-0.148166 -0.285749,-0.253999 -0.433915,-0.317499 l -1.068913,0.603248 v 0.232833 c 0.285749,0.0635 0.433915,0.306916 0.433915,0.730247 v 5.503316 c 0,0.359832 -0.0635,0.634998 -0.190499,0.804331 -0.148166,0.190499 -0.296333,0.275166 -0.444499,0.275166 l 0.169333,0.338665 2.169576,-0.910163 v -0.328083 c -0.179916,0 -0.296332,-0.05292 -0.349248,-0.169332 -0.0635,-0.105833 -0.08467,-0.296333 -0.08467,-0.560915 v -2.18016 h 0.952497 v 3.090323 c 0,0.127 0.0635,0.264583 0.201083,0.412749 0.126999,0.148166 0.275166,0.243416 0.433915,0.306916 l 1.068913,-0.603248 v -0.232833 c -0.296332,-0.05292 -0.433915,-0.296332 -0.433915,-0.730247 v -2.24366 l 0.529165,-0.264582 v -0.254 h -0.529165 v -2.412992 c 0,-0.359832 0.0635,-0.624415 0.190499,-0.804331 0.137583,-0.179916 0.28575,-0.275166 0.444499,-0.275166 l -0.169333,-0.338665 -2.169576,0.910164 v 0.328082 c 0.169333,0 0.285749,0.0635 0.349249,0.169333 0.05292,0.116416 0.08467,0.306915 0.08467,0.560915 z"
         style="font-family:'Pirata One';-inkscape-font-specification:'Pirata One'"
         id="path826" />
      <path
         d="m 71.86342,91.228076 c 0.04233,0 0.264583,-0.08467 0.656165,-0.253999 0.380999,-0.169333 0.603248,-0.253999 0.666748,-0.253999 0.169332,0 0.264582,0.158749 0.264582,0.476248 v 2.381243 c 0,0.105833 -0.03175,0.179916 -0.09525,0.232832 -0.0635,0.0635 -0.137582,0.08467 -0.201082,0.08467 -0.105833,0 -0.253999,-0.243416 -0.444499,-0.730248 -0.190499,-0.486832 -0.338665,-0.730248 -0.444498,-0.730248 -0.04233,0 -0.285749,0.127 -0.730248,0.370416 -0.190499,0.105833 -0.338666,0.179916 -0.444499,0.222249 v 0.211666 c 0.137583,0 0.243416,0.07408 0.328083,0.22225 0.08467,0.148166 0.169332,0.338665 0.275165,0.560914 0.105833,0.22225 0.1905,0.391582 0.254,0.507999 0.0635,0.126999 0.116416,0.179916 0.169332,0.179916 0.116417,0 0.582082,-0.15875 1.386413,-0.486832 0.80433,-0.328082 1.217079,-0.560915 1.217079,-0.698498 v -2.254243 c 0,-0.423332 -0.07408,-0.761997 -0.201083,-1.037163 C 74.392829,89.958083 74.244663,89.8205 74.07533,89.8205 c -0.08467,0 -0.338666,0.09525 -0.740831,0.275166 -0.412749,0.1905 -0.634998,0.275166 -0.656165,0.275166 -0.126999,0 -0.190499,-0.137583 -0.190499,-0.423332 v -2.360076 c 0,-0.211666 0.0635,-0.317499 0.190499,-0.317499 0.09525,0 0.22225,0.211666 0.380999,0.624415 0.15875,0.423332 0.296332,0.624415 0.402165,0.624415 0.03175,0 0.275166,-0.116417 0.719665,-0.370416 0.190499,-0.09525 0.338665,-0.169333 0.455082,-0.222249 v -0.211666 c -0.148166,0 -0.264583,-0.08467 -0.349249,-0.253999 l -0.169333,-0.296333 c -0.0635,-0.116416 -0.116416,-0.211666 -0.148166,-0.285749 -0.15875,-0.275166 -0.275166,-0.423332 -0.359832,-0.423332 -0.116417,0 -0.539749,0.169333 -1.28058,0.497415 -0.740831,0.328083 -1.111246,0.560915 -1.111246,0.687915 v 2.201326 c 0,0.391582 0.0635,0.719664 0.190499,0.984247 0.127,0.275166 0.275166,0.402165 0.455082,0.402165 z"
         style="font-family:'Pirata One';-inkscape-font-specification:'Pirata One'"
         id="path828" />
    </g>
  </g>
</svg>
