<svg xmlns="http://www.w3.org/2000/svg" height="24px" viewBox="0 -960 960 960" width="24px" fill="#000000"><path d="M342.5-257.5Q360-275 360-300t-17.5-42.5Q325-360 300-360t-42.5 17.5Q240-325 240-300t17.5 42.5Q275-240 300-240t42.5-17.5Zm0-360Q360-635 360-660t-17.5-42.5Q325-720 300-720t-42.5 17.5Q240-685 240-660t17.5 42.5Q275-600 300-600t42.5-17.5Zm180 180Q540-455 540-480t-17.5-42.5Q505-540 480-540t-42.5 17.5Q420-505 420-480t17.5 42.5Q455-420 480-420t42.5-17.5Zm180 180Q720-275 720-300t-17.5-42.5Q685-360 660-360t-42.5 17.5Q600-325 600-300t17.5 42.5Q635-240 660-240t42.5-17.5Zm0-360Q720-635 720-660t-17.5-42.5Q685-720 660-720t-42.5 17.5Q600-685 600-660t17.5 42.5Q635-600 660-600t42.5-17.5ZM200-120q-33 0-56.5-23.5T120-200v-560q0-33 23.5-56.5T200-840h560q33 0 56.5 23.5T840-760v560q0 33-23.5 56.5T760-120H200Zm0-80h560v-560H200v560Zm0-560v560-560Z"/></svg>