<?xml version="1.0" encoding="UTF-8" standalone="no"?>
<svg
   enable-background="new 0 0 24 24"
   height="24px"
   viewBox="0 0 24 24"
   width="24px"
   fill="#000000"
   version="1.1"
   id="svg12"
   sodipodi:docname="sync-settings.svg"
   inkscape:version="1.1.2 (0a00cf5339, 2022-02-04)"
   xmlns:inkscape="http://www.inkscape.org/namespaces/inkscape"
   xmlns:sodipodi="http://sodipodi.sourceforge.net/DTD/sodipodi-0.dtd"
   xmlns="http://www.w3.org/2000/svg"
   xmlns:svg="http://www.w3.org/2000/svg">
  <defs
     id="defs16" />
  <sodipodi:namedview
     id="namedview14"
     pagecolor="#ffffff"
     bordercolor="#666666"
     borderopacity="1.0"
     inkscape:pageshadow="2"
     inkscape:pageopacity="0.0"
     inkscape:pagecheckerboard="0"
     showgrid="false"
     inkscape:snap-global="false"
     inkscape:zoom="4.0729167"
     inkscape:cx="-66.659846"
     inkscape:cy="-24.184143"
     inkscape:window-width="1850"
     inkscape:window-height="1016"
     inkscape:window-x="0"
     inkscape:window-y="0"
     inkscape:window-maximized="1"
     inkscape:current-layer="svg12" />
  <g
     id="g4">
    <rect
       fill="none"
       height="24"
       width="24"
       id="rect2" />
  </g>
  <path
     d="M 10,4.26 V 6.35 C 7.67,7.18 6,9.39 6,12 c 0,1.77 0.78,3.34 2,4.44 V 14 h 2 v 6 H 4 V 18 H 6.73 C 5.06,16.54 4,14.4 4,12 4,8.27 6.55,5.15 10,4.26 Z M 20,6 h -2.73 c 1.43,1.26 2.41,3.01 2.66,5 H 17.91 C 17.68,9.64 16.98,8.45 16,7.56 V 10 H 14 V 4 h 6 z"
     id="path6"
     sodipodi:nodetypes="ccscccccccsccccccccccc" />
  <g
     id="g6"
     transform="matrix(0.55672554,0,0,0.55672554,10.100663,10.46967)">
    <path
       d="M 0,0 H 24 V 24 H 0 Z"
       fill="none"
       id="path2" />
    <path
       d="m 19.14,12.94 c 0.04,-0.3 0.06,-0.61 0.06,-0.94 0,-0.32 -0.02,-0.64 -0.07,-0.94 L 21.16,9.48 C 21.34,9.34 21.39,9.07 21.28,8.87 L 19.36,5.55 C 19.24,5.33 18.99,5.26 18.77,5.33 L 16.38,6.29 C 15.88,5.91 15.35,5.59 14.76,5.35 L 14.4,2.81 C 14.36,2.57 14.16,2.4 13.92,2.4 H 10.08 C 9.84,2.4 9.65,2.57 9.61,2.81 L 9.25,5.35 C 8.66,5.59 8.12,5.92 7.63,6.29 L 5.24,5.33 C 5.02,5.25 4.77,5.33 4.65,5.55 L 2.74,8.87 C 2.62,9.08 2.66,9.34 2.86,9.48 l 2.03,1.58 C 4.84,11.36 4.8,11.69 4.8,12 c 0,0.31 0.02,0.64 0.07,0.94 l -2.03,1.58 c -0.18,0.14 -0.23,0.41 -0.12,0.61 l 1.92,3.32 c 0.12,0.22 0.37,0.29 0.59,0.22 l 2.39,-0.96 c 0.5,0.38 1.03,0.7 1.62,0.94 l 0.36,2.54 c 0.05,0.24 0.24,0.41 0.48,0.41 h 3.84 c 0.24,0 0.44,-0.17 0.47,-0.41 l 0.36,-2.54 c 0.59,-0.24 1.13,-0.56 1.62,-0.94 l 2.39,0.96 c 0.22,0.08 0.47,0 0.59,-0.22 l 1.92,-3.32 c 0.12,-0.22 0.07,-0.47 -0.12,-0.61 z M 12,15.6 c -1.98,0 -3.6,-1.62 -3.6,-3.6 0,-1.98 1.62,-3.6 3.6,-3.6 1.98,0 3.6,1.62 3.6,3.6 0,1.98 -1.62,3.6 -3.6,3.6 z"
       id="path4" />
  </g>
</svg>
