<svg xmlns="http://www.w3.org/2000/svg" xmlns:xlink="http://www.w3.org/1999/xlink" width="21.13" height="15.09" viewBox="0 0 21.13 15.09"><defs><style>.cls-1{fill:none;}.cls-2{clip-path:url(#clip-path);}.cls-3{fill:#fff;}</style><clipPath id="clip-path" transform="translate(0 0)"><rect class="cls-1" width="21.13" height="15.09"/></clipPath></defs><g id="Layer_2" data-name="Layer 2"><g id="Layer_1-2" data-name="Layer 1"><g class="cls-2"><rect width="21.13" height="15.09" rx="1.03"/><path class="cls-3" d="M3.69,5.29a.18.18,0,0,0-.16.1l-.8-.07L2.65,3.65a.35.35,0,0,0,.17-.3c-.12,0-.24-.08-.34-.08s-.24.08-.34.08a.35.35,0,0,0,.17.3L2.23,5.32l-.81.07a.16.16,0,0,0-.15-.1.18.18,0,0,0-.18.18.18.18,0,0,0,.18.17.17.17,0,0,0,.15-.09L2,5.6v5.8l.45.42.44-.42V5.6l.61,0a.19.19,0,0,0,.16.09.18.18,0,0,0,.18-.17.18.18,0,0,0-.18-.18" transform="translate(0 0)"/></g></g></g></svg>