<svg xmlns="http://www.w3.org/2000/svg" viewBox="0 0 246.24 204.92"><defs><style>.cls-1{fill:#fff;}.cls-2{fill:#e26969;}</style></defs><g id="Layer_2" data-name="Layer 2"><g id="Layer_1-2" data-name="Layer 1"><path class="cls-1" d="M110.13,65.81c-2.94,0-6,.13-9.17.4A33.49,33.49,0,0,1,46,28.13,33.58,33.58,0,0,1,74.43,12.29a33.6,33.6,0,0,1,22.92,9.1c4.36-.36,8.65-.54,12.81-.54a117.92,117.92,0,0,1,36.21,5.3V10a10,10,0,0,0-10-10H10A10,10,0,0,0,0,10V194.92a10,10,0,0,0,10,10H136.37a10,10,0,0,0,10-10V76.12c-8.84-6.84-21-10.31-36.24-10.31"/><path class="cls-1" d="M231.24,48.55H182.87a88.9,88.9,0,0,1,11.75,15h36.62V189.92H31.33a15,15,0,0,0,15,15H231.24a15,15,0,0,0,15-15V63.55a15,15,0,0,0-15-15"/><path class="cls-2" d="M201.32,121c-1.8-31.57-13-56.35-32.82-72C146.38,31.44,118,29.05,93.31,31.83a23.5,23.5,0,1,0,1.88,24.92c24.43-3,44.19,1,57.78,11.82C169.58,81.74,175,102.94,176.26,121H157.91l31.17,54,31.16-54Z"/><path d="M36.57,62.9a5.24,5.24,0,0,1-10.48,0c1.66,0,3.3-1.21,5.24-1.21,1.59,0,3.42,1.21,5.24,1.21"/><polygon points="27.55 93.14 35.1 93.14 33.88 66.8 28.77 66.8 27.55 93.14"/><polygon points="48.12 96.32 48.12 94 31.33 92.6 14.54 94 14.54 96.32 31.33 97.71 48.12 96.32"/><path d="M47.12,95.16a2.69,2.69,0,1,1,2.69,2.68,2.68,2.68,0,0,1-2.69-2.68"/><path d="M10.16,95.16a2.69,2.69,0,1,1,2.69,2.68,2.68,2.68,0,0,1-2.69-2.68"/><polygon points="24.54 185.6 31.33 192.05 38.11 185.6 38.11 95.83 31.33 96.64 24.54 95.83 24.54 185.6"/></g></g></svg>