<?xml version="1.0" encoding="UTF-8" standalone="no"?>
<!-- Created with Inkscape (http://www.inkscape.org/) -->

<svg
   width="197.55556mm"
   height="197.55556mm"
   viewBox="0 0 197.55556 197.55556"
   version="1.1"
   id="svg5"
   sodipodi:docname="air.svg"
   inkscape:version="1.1.2 (0a00cf5339, 2022-02-04)"
   xmlns:inkscape="http://www.inkscape.org/namespaces/inkscape"
   xmlns:sodipodi="http://sodipodi.sourceforge.net/DTD/sodipodi-0.dtd"
   xmlns="http://www.w3.org/2000/svg"
   xmlns:svg="http://www.w3.org/2000/svg">
  <sodipodi:namedview
     id="namedview10"
     pagecolor="#ffffff"
     bordercolor="#666666"
     borderopacity="1.0"
     inkscape:pageshadow="2"
     inkscape:pageopacity="0.0"
     inkscape:pagecheckerboard="0"
     inkscape:document-units="mm"
     showgrid="false"
     inkscape:zoom="0.36341385"
     inkscape:cx="39.899415"
     inkscape:cy="617.75301"
     inkscape:window-width="1850"
     inkscape:window-height="1016"
     inkscape:window-x="0"
     inkscape:window-y="0"
     inkscape:window-maximized="1"
     inkscape:current-layer="svg5" />
  <defs
     id="defs2" />
  <path
     style="fill:#97b0b3;fill-opacity:1;fill-rule:nonzero;stroke:none;stroke-width:0.352778"
     d="m 98.77778,194.73334 c -25.630133,0 -49.727889,-9.98114 -67.850468,-28.10509 C 12.803353,148.50567 2.8222222,124.40791 2.8222222,98.777778 2.8222222,73.147648 12.803353,49.04989 30.927312,30.927312 49.049891,12.803354 73.147647,2.8222225 98.77778,2.8222225 c 25.63013,0 49.72789,9.9811305 67.85047,28.1050895 18.12395,18.122579 28.10508,42.220336 28.10508,67.850466 0,25.630132 -9.98113,49.727892 -28.10508,67.850472 -18.12258,18.12395 -42.22034,28.10509 -67.85047,28.10509"
     id="bg" />
  <g
     id="symbol">
    <path
       style="fill:#ffffff;fill-opacity:1;fill-rule:nonzero;stroke:none;stroke-width:0.352778"
       d="m 20.688488,108.37995 c -0.487826,-0.10197 -0.465777,-0.80891 0.02756,-0.87368 4.4111,-0.5898 15.013728,-0.97289 28.807886,5.52594 18.344445,8.64305 47.966756,27.9535 65.510566,26.90481 14.83458,-0.88745 22.05963,-6.46575 21.27277,-13.32287 -0.61736,-5.37986 -6.61458,-8.90764 -11.20069,-7.14375 -4.58611,1.76389 -6.61458,5.90903 -6.26181,9.78958 -3.88055,-2.99861 -2.46944,-8.81944 -1.23472,-10.40694 1.23472,-1.5875 8.00503,-10.8176 19.57917,-2.82222 9.70139,6.70278 5.60035,19.76106 0,24.69444 -3.70417,3.2632 -14.81667,11.46528 -35.80695,6.17361 -20.990276,-5.29166 -43.620421,-24.4588 -55.562499,-30.1625 -10.991233,-5.24895 -15.72617,-6.37893 -25.131284,-8.35642"
       id="path844" />
    <path
       style="fill:#ffffff;fill-opacity:1;fill-rule:nonzero;stroke:none;stroke-width:0.352778"
       d="m 52.230405,106.05382 c -0.343133,-0.18741 -0.126781,-0.70969 0.246669,-0.59531 7.845171,2.39503 27.789516,6.9081 42.202418,3.16397 21.048158,-5.46805 24.870838,-17.991663 45.861108,-28.162962 13.38765,-6.487806 30.86806,-1.823145 35.63056,11.229631 4.7625,13.052781 -7.64398,22.048611 -17.4625,21.519451 -8.10424,-0.43547 -13.57919,-5.06429 -14.64028,-8.82634 -1.17684,-4.16719 0.46991,-9.575991 5.29167,-11.105611 -1.41111,6.35 2.04087,13.292561 9.17222,12.876391 7.05556,-0.41065 13.28704,-9.250771 6.70278,-15.875001 -6.59529,-6.633877 -14.81667,-5.349543 -19.75556,-2.293055 -5.26686,3.260439 -17.63889,15.522226 -28.22222,20.637496 -10.15752,4.90858 -25.033443,10.26501 -40.41648,6.17362 -13.106524,-3.48368 -17.129016,-4.64675 -24.610385,-8.74228"
       id="path846" />
    <path
       style="fill:#ffffff;fill-opacity:1;fill-rule:nonzero;stroke:none;stroke-width:0.352778"
       d="m 32.342558,94.131028 c -0.445107,-0.170869 -0.305926,-0.83646 0.170875,-0.81717 6.042699,0.24529 22.947094,-0.0317 31.82717,-9.914986 10.936111,-12.170834 8.445997,-20.473515 18.168056,-29.280556 6.790972,-6.150183 22.320081,-8.109755 33.249301,1.234722 12.17084,10.406945 5.70233,30.721985 -6.38031,36.98379 -10.23056,5.30131 -23.07663,3.58565 -25.987047,-4.704623 -3.241146,-9.231477 3.439583,-17.374306 10.230556,-17.286111 7.161661,0.0937 6.173611,7.231944 6.173611,7.231944 0,0 -2.11667,-3.701411 -5.027083,-3.263194 -3.689008,0.556725 -6.943934,5.177289 -5.027084,9.789583 2.38125,5.732639 12.621457,8.270981 19.989817,-0.46991 7.58473,-8.995834 5.93935,-21.225923 -6.58426,-25.635646 -11.575522,-4.074858 -18.36236,4.462089 -24.518057,15.877756 -4.850694,8.993078 -10.31875,20.458351 -26.9875,21.418851 -12.219065,0.7028 -16.949868,-0.26321 -19.298045,-1.16445"
       id="path848" />
  </g>
  <g
     id="outline"
     transform="matrix(0.35277777,0,0,-0.35277777,98.777776,0)">
    <path
       d="m 0,0 c -37.793,0 -74.464,-7.405 -108.993,-22.011 -33.345,-14.102 -63.287,-34.29 -88.997,-59.999 -25.709,-25.71 -45.897,-55.652 -59.999,-88.997 C -272.595,-205.536 -280,-242.207 -280,-280 c 0,-37.793 7.405,-74.464 22.011,-108.993 14.102,-33.345 34.29,-63.287 59.999,-88.997 25.71,-25.709 55.652,-45.896 88.997,-59.999 C -74.464,-552.595 -37.793,-560 0,-560 c 37.793,0 74.464,7.405 108.993,22.011 33.345,14.103 63.287,34.29 88.997,59.999 25.709,25.71 45.897,55.652 59.999,88.997 14.606,34.529 22.011,71.2 22.011,108.993 0,37.793 -7.405,74.464 -22.011,108.993 -14.102,33.345 -34.29,63.287 -59.999,88.997 -25.71,25.709 -55.652,45.897 -88.997,59.999 C 74.464,-7.405 37.793,0 0,0 m 0,-16 c 145.803,0 264,-118.196 264,-264 0,-145.803 -118.197,-264 -264,-264 -145.803,0 -264,118.197 -264,264 0,145.804 118.197,264 264,264"
       style="fill:#ffffff;fill-opacity:1;fill-rule:nonzero;stroke:none"
       id="path1852" />
  </g>
</svg>
