<?xml version="1.0" encoding="UTF-8" standalone="no"?>
<!-- Created with Inkscape (http://www.inkscape.org/) -->

<svg
   width="197.55556mm"
   height="197.55556mm"
   viewBox="0 0 197.55556 197.55556"
   version="1.1"
   id="svg5"
   xmlns="http://www.w3.org/2000/svg"
   xmlns:svg="http://www.w3.org/2000/svg">
  <defs
     id="defs2">
    <clipPath
       clipPathUnits="userSpaceOnUse"
       id="clipPath1104">
      <path
         d="M 0,600 H 600 V 0 H 0 Z"
         id="path1102" />
    </clipPath>
    <clipPath
       clipPathUnits="userSpaceOnUse"
       id="clipPath1286">
      <path
         d="M 0,600 H 600 V 0 H 0 Z"
         id="path1284" />
    </clipPath>
    <clipPath
       clipPathUnits="userSpaceOnUse"
       id="clipPath1470">
      <path
         d="M 0,600 H 600 V 0 H 0 Z"
         id="path1468" />
    </clipPath>
    <clipPath
       clipPathUnits="userSpaceOnUse"
       id="clipPath1656">
      <path
         d="M 0,600 H 600 V 0 H 0 Z"
         id="path1654" />
    </clipPath>
    <clipPath
       clipPathUnits="userSpaceOnUse"
       id="clipPath1844">
      <path
         d="M 0,600 H 600 V 0 H 0 Z"
         id="path1842" />
    </clipPath>
    <clipPath
       clipPathUnits="userSpaceOnUse"
       id="clipPath2265">
      <path
         d="M 0,600 H 600 V 0 H 0 Z"
         id="path2263" />
    </clipPath>
  </defs>
  <g
     id="layer1"
     transform="translate(-4.7090502,-8.6345915)">
    <g
       id="g2261"
       clip-path="url(#clipPath2265)"
       transform="matrix(0.35277777,0,0,-0.35277777,-2.3465052,213.2457)">
      <g
         id="g2267"
         transform="translate(300,28)">
        <path
           d="M 0,0 C -72.653,0 -140.959,28.293 -192.333,79.667 -243.707,131.041 -272,199.347 -272,272 c 0,72.654 28.293,140.959 79.667,192.333 C -140.959,515.707 -72.653,544 0,544 72.653,544 140.959,515.707 192.333,464.333 243.707,412.959 272,344.654 272,272 272,199.347 243.707,131.041 192.333,79.667 140.959,28.293 72.653,0 0,0"
           style="fill:#ffffff;fill-opacity:1;fill-rule:nonzero;stroke:none"
           id="path2269" />
      </g>
      <g
         id="g2271"
         transform="translate(300,580)">
        <path
           d="m 0,0 c -37.793,0 -74.463,-7.405 -108.994,-22.01 -33.344,-14.104 -63.286,-34.291 -88.996,-60 -25.709,-25.71 -45.897,-55.652 -59.999,-88.996 C -272.595,-205.537 -280,-242.207 -280,-280 c 0,-37.793 7.405,-74.464 22.011,-108.993 14.102,-33.345 34.29,-63.287 59.999,-88.997 25.71,-25.709 55.652,-45.897 88.996,-59.999 C -74.463,-552.595 -37.793,-560 0,-560 c 37.793,0 74.463,7.405 108.994,22.011 33.344,14.102 63.286,34.29 88.996,59.999 25.709,25.71 45.897,55.652 60,88.997 14.605,34.529 22.01,71.2 22.01,108.993 0,37.793 -7.405,74.463 -22.01,108.994 -14.103,33.344 -34.291,63.286 -60,88.996 -25.71,25.709 -55.652,45.896 -88.996,60 C 74.463,-7.405 37.793,0 0,0 m 0,-16 c 145.803,0 264,-118.197 264,-264 0,-145.803 -118.197,-264 -264,-264 -145.803,0 -264,118.197 -264,264 0,145.803 118.197,264 264,264"
           style="fill:#ffffff;fill-opacity:1;fill-rule:nonzero;stroke:none"
           id="path2273" />
      </g>
      <g
         id="g2275"
         transform="translate(300,300)">
        <path
           d="M 0,0 C 0,0 -160.142,-93.372 -228.669,-132.022 -274.171,-53.04 -277.485,47.382 -228.631,132 -174.504,100.75 0,0 0,0"
           style="fill:#202830;fill-opacity:1;fill-rule:nonzero;stroke:none"
           id="path2277" />
      </g>
      <g
         id="g2279"
         transform="translate(300,300)">
        <path
           d="M 0,0 C 0,0 0.792,-185.372 0.001,-264.044 -91.152,-263.959 -179.776,-216.618 -228.631,-132 -174.504,-100.75 0,0 0,0"
           style="fill:#eca610;fill-opacity:1;fill-rule:nonzero;stroke:none"
           id="path2281" />
      </g>
      <g
         id="g2283"
         transform="translate(300,300)">
        <path
           d="M 0,0 C 0,0 160.934,-92 228.669,-132.021 183.02,-210.919 97.708,-264 0,-264 Z"
           style="fill:#7da82a;fill-opacity:1;fill-rule:nonzero;stroke:none"
           id="path2285" />
      </g>
      <g
         id="g2287"
         transform="translate(300,300)">
        <path
           d="M 0,0 C 0,0 160.141,93.373 228.668,132.022 274.171,53.04 277.485,-47.382 228.631,-132 174.504,-100.75 0,0 0,0"
           style="fill:#e2421f;fill-opacity:1;fill-rule:nonzero;stroke:none"
           id="path2289" />
      </g>
      <g
         id="g2291"
         transform="translate(300,300)">
        <path
           d="M 0,0 C 0,0 -0.792,185.373 -0.001,264.044 91.152,263.959 179.776,216.618 228.631,132 174.504,100.75 0,0 0,0"
           style="fill:#56c8ef;fill-opacity:1;fill-rule:nonzero;stroke:none"
           id="path2293" />
      </g>
      <g
         id="g2295"
         transform="translate(300,300)">
        <path
           d="M 0,0 C 0,0 -160.934,92 -228.669,132.021 -183.02,210.919 -97.708,264 0,264 Z"
           style="fill:#98b0b5;fill-opacity:1;fill-rule:nonzero;stroke:none"
           id="path2297" />
      </g>
    </g>
  </g>
</svg>
