<svg xmlns="http://www.w3.org/2000/svg" xmlns:xlink="http://www.w3.org/1999/xlink" viewBox="0 0 585.5 578.71"><defs><style>.cls-1{fill:none;}.cls-2{fill:#69797d;}.cls-3{fill:#fff;}.cls-4{clip-path:url(#clip-path);}.cls-5{clip-path:url(#clip-path-2);}</style><clipPath id="clip-path" transform="translate(6.82)"><path class="cls-1" d="M289.35,0a19.66,19.66,0,0,0-14,5.77L5.77,275.42a19.75,19.75,0,0,0,0,27.88L275.39,572.92a19.71,19.71,0,0,0,13.11,5.77h1.7a19.44,19.44,0,0,0,13-5.77L572.94,303.3a19.75,19.75,0,0,0,0-27.88L303.23,5.8A19.34,19.34,0,0,0,289.35,0Z"/></clipPath><clipPath id="clip-path-2" transform="translate(6.82)"><path class="cls-1" d="M289.35,0a19.66,19.66,0,0,0-14,5.77L5.77,275.42a19.75,19.75,0,0,0,0,27.88L275.39,572.92a19.66,19.66,0,0,0,14,5.77,19.34,19.34,0,0,0,13.88-5.77L572.94,303.3a19.75,19.75,0,0,0,0-27.88L303.23,5.8A19.34,19.34,0,0,0,289.35,0Z"/></clipPath></defs><g id="Layer_2" data-name="Layer 2"><g id="Disarm"><path class="cls-2" d="M289.34,573.72A14.73,14.73,0,0,1,279,569.43L9.28,299.72a14.71,14.71,0,0,1,0-20.75L279,9.3a14.76,14.76,0,0,1,20.79,0L569.41,279a14.71,14.71,0,0,1,0,20.75L299.74,569.43a14.74,14.74,0,0,1-10.4,4.29" transform="translate(6.82)"/><path class="cls-3" d="M289.34,10a9.41,9.41,0,0,1,6.83,2.85L565.89,282.52a9.67,9.67,0,0,1,0,13.67L296.17,565.9a9.73,9.73,0,0,1-13.66,0L12.8,296.19a9.67,9.67,0,0,1,0-13.67L282.51,12.86A9.44,9.44,0,0,1,289.34,10m0-10a19.56,19.56,0,0,0-13.91,5.77L5.76,275.44a19.69,19.69,0,0,0,0,27.83L275.43,572.94a19.66,19.66,0,0,0,27.83,0L572.93,303.27a19.69,19.69,0,0,0,0-27.83L303.26,5.77A19.57,19.57,0,0,0,289.34,0" transform="translate(6.82)"/><g class="cls-4"><path class="cls-3" d="M433.57,395.79c-.47-2,2.33-22.91,1.52-38.61s-12.13-43.87-10.9-49.89,10.9-58.47,10.4-61.57-12.31-11.75-24.15-5-15.78,30.67-17.09,36.66c-1.53,6.91-4.37,14.42-11,18.11-10.27,5.86-16.25-3.48-22.66-14.55-3.05-5.22-29.78-66.19-34.83-75.18S313.33,173.47,296.78,180c-17.52,6.83,6.83,52.91,9.21,58.63s14.68,35.13,15.82,39.34,1,7.72-1.69,8.95-5.82,2.76-15.62-9.42S271.41,238.3,268,234.35s-22.91-26.3-29-28.3-21.39,5.39-16.68,18.33S250.87,257.6,261.74,271s34.79,34.58,31.77,41.75c-2.75,6.61-17.86-5.39-31.86-14.22s-40.77-28.93-46.54-30.8c-5-1.61-15.57,1.87-14.81,14.55s26.9,26.94,33.94,31.7,43.49,28.38,41.12,36.44c-1.49,5-20.79-2.84-32.25-8s-39.5-16.16-44.51-6.32c-5.85,11.59.09,21,30.93,33.52s37.13,17.44,43.66,22.49,26.73,33,50.87,43.57c15.11,6.66,35.3,13.11,45.61,11.8,8.95,4,27.37,35.93,27.37,35.93s20.24-4.79,36.19-17.82,28.08-33.52,28.08-33.52-27.23-34.32-27.74-36.27m-50,11a5.8,5.8,0,0,1-3.74,1.4,5.65,5.65,0,0,1-4.45-2.16c-20.67-26-17.82-51.77-13.16-65.68,7.13-21.22,16.93-27.75,17.31-28.22,1.49-1.69,3.65-1.78,4.59-.84,3.22,3.22-8.57,7.21-14.13,28.85-4.33,16.71-3.65,33.39,14.3,58.21a6.26,6.26,0,0,1-.72,8.44" transform="translate(6.82)"/></g><g class="cls-5"><path class="cls-3" d="M392.85,69.84l-29.79,117.7c-1.74,6.91-5.64,6.4-5.6-.68l.68-121.43c0-4.88,2.08-9.54,4-9.29l29.11,3.69c2,.26,2.75,5.31,1.57,10" transform="translate(6.82)"/><path class="cls-3" d="M9.44,272.25,151,307.34c8.28,2,7.72,6.23-.8,6L4.39,309.67c-5.85-.13-11.45-2.42-11.2-4.58l4.25-31.4c.29-2.12,6.32-2.84,12-1.44" transform="translate(6.82)"/><path class="cls-3" d="M143.18,431l72.09-28.81c4.24-1.69,6.06,1.28,2.63,4.29l-58.47,51.08c-2.33,2-5.64,2.59-6.57,1.06l-13.62-22.27c-.94-1.49,1.06-4.2,3.94-5.35" transform="translate(6.82)"/><path class="cls-3" d="M243.91,49.08,266,156c1.28,6.23-2.5,7.59-5.43,1.91L210.35,61c-2-3.9-2.12-8.53-.21-9.2l28.13-10c1.9-.68,4.75,3,5.64,7.25" transform="translate(6.82)"/><path class="cls-3" d="M112.11,164.31l72.21,64.45c4.2,3.77,2.16,6.83-2.93,4.37L94,191.46c-3.48-1.65-6-4.92-5-6.45l15.15-22.78c1-1.57,5-.51,7.89,2.08" transform="translate(6.82)"/></g></g></g></svg>