<?xml version="1.0" encoding="UTF-8"?><svg id="a" xmlns="http://www.w3.org/2000/svg" xmlns:xlink="http://www.w3.org/1999/xlink" viewBox="0 0 600 600"><defs><style>.c{fill:#fff;}.d{fill:#d6802b;}.e{clip-path:url(#b);}.f{fill:none;}</style><clipPath id="b"><rect class="f" width="600" height="600"/></clipPath></defs><g class="e"><path class="d" d="M300,585.35c-3.92,0-7.6-1.52-10.37-4.29L19.94,311.37c-5.71-5.71-5.71-15.03,0-20.74L289.63,20.94c2.77-2.77,6.45-4.29,10.37-4.29s7.6,1.52,10.37,4.29l269.69,269.69c5.71,5.71,5.71,15.03,0,20.74l-269.69,269.69c-2.77,2.77-6.45,4.29-10.37,4.29"/><path class="c" d="M300,20.65c2.6,0,5.03,1.01,6.86,2.84l269.66,269.66c1.82,1.82,2.84,4.29,2.84,6.86s-1.01,5.03-2.84,6.86l-269.66,269.66c-1.82,1.82-4.26,2.84-6.86,2.84s-5.03-1.01-6.86-2.84L23.48,306.86c-1.82-1.82-2.84-4.26-2.84-6.86s1.01-5.03,2.84-6.86L293.14,23.48c1.82-1.82,4.26-2.84,6.86-2.84m0-10c-5.03,0-10.06,1.93-13.91,5.77L16.43,286.09c-7.7,7.7-7.7,20.16,0,27.83l269.66,269.66c3.85,3.85,8.88,5.77,13.91,5.77s10.06-1.92,13.91-5.77l269.66-269.66c7.7-7.67,7.7-20.13,0-27.83L313.91,16.43c-3.85-3.85-8.88-5.77-13.91-5.77"/><g><path class="c" d="M349.23,179.83c0,19.33-11.71,35.92-28.43,43.07,5.65,2.42,11.87,3.76,18.4,3.76,25.86,0,46.83-20.97,46.83-46.83s-20.97-46.83-46.83-46.83c-6.53,0-12.75,1.34-18.4,3.76,16.71,7.15,28.43,23.74,28.43,43.07Z"/><path class="c" d="M360.37,246.94s-12.7,3.47-23.15,3.47c-4.31,0-9.01-.59-13.04-1.28l46.15,164.94s-7.14,33.92-51.48,41.46c5.54,.94,11.65,1.47,18.4,1.47,60.86,0,69.88-42.93,69.88-42.93l-46.76-167.13Z"/><path class="c" d="M267.52,133.12c-1.12-.08-2.25-.13-3.39-.13-.67,0-1.33,.01-1.99,.04-3.29,.14-6.5,.61-9.58,1.4h23.16c-2.65-.68-5.38-1.12-8.19-1.32Zm-47.01,63.79c.7,1.76,1.49,3.47,2.37,5.11h82.49c.89-1.64,1.68-3.35,2.37-5.11h-87.24Zm16.8,21.31c3.91,2.73,8.24,4.88,12.9,6.32h27.84c4.65-1.45,8.99-3.59,12.9-6.32h-53.64Zm73.46-42.61h-93.28c-.12,1.28-.18,2.58-.19,3.88h93.66c-.01-1.31-.07-2.61-.19-3.88Zm-7.37-21.3h-78.55c-.57,.87-1.11,1.74-1.6,2.65h81.75c-.5-.91-1.03-1.78-1.6-2.65Zm-11.77,115.29l-.46-1.65h-58.05l-.46,1.65-1.99,7.12h62.97l-1.99-7.12Zm12.6,45.05l-1.14-4.08h-81.9l-1.14,4.08-1.99,7.12h88.17l-1.99-7.12Zm12.6,45.05l-1.83-6.53h-105.72l-1.83,6.53-2.01,7.13h113.39l-2.01-7.13Zm-123.69,57.38c.84,2.42,2.36,6.06,4.95,10.2,.8,1.29,1.71,2.62,2.73,3.98,.78,1.03,1.63,2.09,2.55,3.15h117.56c.93-1.06,1.77-2.11,2.55-3.15,1.02-1.36,1.93-2.69,2.73-3.98,2.59-4.14,4.09-7.78,4.93-10.2H193.15Zm69.02,39.92c27.75,0,44.72-8.92,54.97-18.62h-109.93c10.26,9.7,27.23,18.62,54.97,18.62Zm68.74-47.05l-1.46-5.19-2.51-8.98H197.38l-2.51,8.98-1.46,5.19-.54,1.93h138.58l-.54-1.93Zm-5.96-21.3l-1.79-6.43-2.17-7.76h-117.65l-2.16,7.76-1.8,6.43-.19,.7h125.97l-.19-.7Zm-14.41-51.47l-1.48-5.31h-93.82l-1.48,5.31-1.99,7.13h100.76l-1.99-7.13Zm-12.6-45.05l-.8-2.87h-69.98l-.8,2.87-1.99,7.12h75.57l-1.99-7.12Zm-12.6-45.05l-.04-.15s-.2,.05-.57,.15c-2.56,.66-13.44,3.32-22.58,3.32s-20.35-2.71-22.7-3.32c-.3-.07-.45-.12-.45-.12l-.03,.12-1.99,7.12h50.37l-1.99-7.12Z"/></g></g></svg>