<svg xmlns="http://www.w3.org/2000/svg" viewBox="0 0 578.7 578.7"><defs><style>.cls-1{fill:#d6a529;}.cls-2{fill:#fff;}</style></defs><g id="Layer_2" data-name="Layer 2"><g id="Empower"><path class="cls-1" d="M289.35,573.7A14.59,14.59,0,0,1,279,569.4L9.3,299.73A14.7,14.7,0,0,1,9.3,279L279,9.3a14.68,14.68,0,0,1,20.76,0L569.4,279a14.68,14.68,0,0,1,0,20.76L299.73,569.4a14.59,14.59,0,0,1-10.38,4.3"/><path class="cls-2" d="M289.35,10a9.6,9.6,0,0,1,6.84,2.84L565.86,282.5a9.68,9.68,0,0,1,0,13.69L296.19,565.86a9.67,9.67,0,0,1-13.69,0L12.84,296.19a9.68,9.68,0,0,1,0-13.69L282.5,12.84A9.62,9.62,0,0,1,289.35,10m0-10a19.62,19.62,0,0,0-13.92,5.76L5.77,275.43a19.68,19.68,0,0,0,0,27.84L275.43,572.93a19.68,19.68,0,0,0,27.84,0L572.93,303.27a19.68,19.68,0,0,0,0-27.84L303.27,5.76A19.64,19.64,0,0,0,289.35,0"/><path class="cls-2" d="M289.34,470.72c19.29-102.53,55-159.53,183.59-181.36C344.35,267.51,308.63,210.52,289.34,108c-19.28,102.54-55,159.53-183.58,181.37,128.58,21.84,164.3,78.84,183.58,181.37v0Z"/></g></g></svg>