<svg xmlns="http://www.w3.org/2000/svg" viewBox="0 0 578.7 578.7"><defs><style>.cls-1,.cls-3{fill:#5e3c58;}.cls-1{stroke:#fff;stroke-miterlimit:10;stroke-width:1.25px;}.cls-2{fill:#fff;}</style></defs><g id="Layer_2" data-name="Layer 2"><g id="Enfeeble"><path class="cls-1" d="M289.35,5a14.59,14.59,0,0,1,10.38,4.3L569.4,279a14.7,14.7,0,0,1,0,20.76L299.73,569.4a14.7,14.7,0,0,1-20.76,0L9.3,299.73A14.68,14.68,0,0,1,9.3,279L279,9.3A14.59,14.59,0,0,1,289.35,5"/><path class="cls-2" d="M289.35,568.7a9.62,9.62,0,0,1-6.85-2.84L12.84,296.19a9.68,9.68,0,0,1,0-13.69L282.5,12.84a9.67,9.67,0,0,1,13.69,0L565.86,282.5a9.68,9.68,0,0,1,0,13.69L296.19,565.86a9.6,9.6,0,0,1-6.84,2.84m0,10a19.65,19.65,0,0,0,13.92-5.77L572.93,303.26a19.67,19.67,0,0,0,0-27.83L303.27,5.76a19.7,19.7,0,0,0-27.84,0L5.77,275.43a19.67,19.67,0,0,0,0,27.83L275.43,572.93a19.65,19.65,0,0,0,13.92,5.77"/><path class="cls-2" d="M289.34,470.72c19.29-102.53,55-159.53,183.59-181.37C344.35,267.51,308.63,210.52,289.34,108c-19.28,102.54-55,159.53-183.58,181.37,128.58,21.84,164.3,78.84,183.58,181.37v0Z"/><polygon class="cls-3" points="287.73 236.58 276.07 280.11 346.5 291.15 327.17 327.47 360.92 346.82 336.33 363.52 299.91 342.79 317.98 307.57 247.08 299.24 252.5 258.14 203.34 246.18 246.51 215.25 287.73 236.58"/></g></g></svg>