<?xml version="1.0" encoding="UTF-8" standalone="no"?>
<svg
   viewBox="0 0 578.7 578.7"
   version="1.1"
   id="svg20"
   sodipodi:docname="heal.png"
   inkscape:version="1.1.2 (0a00cf5339, 2022-02-04)"
   xmlns:inkscape="http://www.inkscape.org/namespaces/inkscape"
   xmlns:sodipodi="http://sodipodi.sourceforge.net/DTD/sodipodi-0.dtd"
   xmlns="http://www.w3.org/2000/svg"
   xmlns:svg="http://www.w3.org/2000/svg">
  <sodipodi:namedview
     id="namedview22"
     pagecolor="#ffffff"
     bordercolor="#666666"
     borderopacity="1.0"
     inkscape:pageshadow="2"
     inkscape:pageopacity="0.0"
     inkscape:pagecheckerboard="0"
     showgrid="false"
     inkscape:zoom="0.53335425"
     inkscape:cx="242.80298"
     inkscape:cy="537.16643"
     inkscape:window-width="1846"
     inkscape:window-height="1016"
     inkscape:window-x="0"
     inkscape:window-y="0"
     inkscape:window-maximized="1"
     inkscape:current-layer="svg20" />
  <defs
     id="defs4">
    <style
       id="style2">.cls-1{fill:#9b342f;}.cls-2{fill:#fff;}</style>
  </defs>
  <path
     class="cls-1"
     d="M 289.35,573.7 A 14.56,14.56 0 0 1 279,569.41 L 9.29,299.72 a 14.68,14.68 0 0 1 0,-20.74 L 279,9.29 a 14.68,14.68 0 0 1 20.74,0 L 569.41,279 a 14.68,14.68 0 0 1 0,20.74 L 299.72,569.41 a 14.56,14.56 0 0 1 -10.37,4.29"
     id="path6"
     style="fill:#99282d;fill-opacity:1" />
  <g
     id="g1397">
    <path
       class="cls-2"
       d="m 289.35,10 a 9.62,9.62 0 0 1 6.85,2.83 l 269.66,269.66 a 9.69,9.69 0 0 1 0,13.71 L 296.2,565.86 a 9.69,9.69 0 0 1 -13.71,0 L 12.83,296.2 a 9.71,9.71 0 0 1 0,-13.71 L 282.49,12.83 A 9.66,9.66 0 0 1 289.35,10 m 0,-10 A 19.67,19.67 0 0 0 275.43,5.77 L 5.77,275.43 a 19.67,19.67 0 0 0 0,27.83 l 269.66,269.66 a 19.64,19.64 0 0 0 27.83,0 L 572.92,303.26 a 19.65,19.65 0 0 0 0,-27.83 L 303.26,5.77 A 19.65,19.65 0 0 0 289.35,0"
       id="path8" />
  </g>
  <path
     id="path19"
     style="fill:#ffffff;stroke-width:29.9017"
     class="cls-5"
     d="m 285.4573,50.213906 a 2.3921374,2.3921374 0 0 0 -1.28576,1.402401 330.41399,330.41399 0 0 1 -40.99796,78.316783 c -29.90172,41.56339 -45.14471,61.5811 -45.14471,95.37005 a 89.70516,89.70516 0 0 0 175.84782,0 c 0,-33.78895 -14.36688,-53.80666 -44.26859,-95.37005 A 319.35036,319.35036 0 0 1 288.61014,51.616307 2.3921374,2.3921374 0 0 0 285.45641,50.213906 Z M 268.57929,177.17931 h 35.6249 v 33.46421 h 34.34034 v 32.0041 h -34.34034 v 33.52282 h -35.6249 V 242.64762 H 233.8885 v -32.0041 h 34.69079 z" />
</svg>
