<svg xmlns="http://www.w3.org/2000/svg" xmlns:xlink="http://www.w3.org/1999/xlink" viewBox="0 0 578.7 578.7"><defs><style>.cls-1{fill:none;}.cls-2{clip-path:url(#clip-path);}.cls-3{fill:#c88c4e;}.cls-4{fill:#fff;}</style><clipPath id="clip-path" transform="translate(-10.65 -10.65)"><rect class="cls-1" width="600" height="600"/></clipPath></defs><g id="Layer_2" data-name="Layer 2"><g id="Pierce"><g class="cls-2"><path class="cls-3" d="M300,586.22a14.66,14.66,0,0,1-10.45-4.33L18.11,310.45a14.78,14.78,0,0,1,0-20.9L289.55,18.11a14.77,14.77,0,0,1,20.9,0L581.89,289.55a14.78,14.78,0,0,1,0,20.9L310.45,581.89A14.66,14.66,0,0,1,300,586.22" transform="translate(-10.65 -10.65)"/><path class="cls-4" d="M300,20.66a9.66,9.66,0,0,1,6.84,2.82L576.49,293.14a9.63,9.63,0,0,1,0,13.72L306.84,576.52a9.71,9.71,0,0,1-13.68,0L23.51,306.86a9.68,9.68,0,0,1,0-13.72L293.16,23.48A9.66,9.66,0,0,1,300,20.66m0-10a19.67,19.67,0,0,0-13.93,5.79L16.41,286.09a19.68,19.68,0,0,0,0,27.82L286.07,583.57a19.68,19.68,0,0,0,27.86,0L583.59,313.91a19.68,19.68,0,0,0,0-27.82L313.93,16.44A19.67,19.67,0,0,0,300,10.65" transform="translate(-10.65 -10.65)"/><path class="cls-4" d="M443.65,273l-15.12,15.24H81.21L74,300l7.22,11.82H428.53l15.12,15.24a6.4,6.4,0,0,0,6.79,1.48l72.61-27.44a1.2,1.2,0,0,0,0-2.23l-72.61-27.4a6.4,6.4,0,0,0-6.79,1.48" transform="translate(-10.65 -10.65)"/><path class="cls-4" d="M265.27,252.12l-19.5-37.61,27.52,5,5-55.09,22.59,35.12,51.37-89.15-7.09,91.18,41.66-22.12-22.5,48.84,30.23,2.49-43.1,30a3.37,3.37,0,0,1-4.77-.92,45,45,0,0,0-37.28-21.28c-16.54-.42-32.54,9.88-39.13,14.69a3.36,3.36,0,0,1-5-1.18" transform="translate(-10.65 -10.65)"/><path class="cls-4" d="M335.57,349l20,38.53-28.19-5.14-5.1,56.43-23.14-36L246.5,494.2l7.26-93.4-42.68,22.66,23-50-31-2.55,44.15-30.74a3.46,3.46,0,0,1,4.89.95,46.07,46.07,0,0,0,38.18,21.79c16.95.43,33.34-10.12,40.08-15.05a3.44,3.44,0,0,1,5.1,1.21" transform="translate(-10.65 -10.65)"/></g></g></g></svg>