<svg xmlns="http://www.w3.org/2000/svg" xmlns:xlink="http://www.w3.org/1999/xlink" viewBox="0 0 578.7 578.7"><defs><style>.cls-1{fill:none;}.cls-2{clip-path:url(#clip-path);}.cls-3{fill:#7c7f67;}.cls-4{fill:#fff;}</style><clipPath id="clip-path" transform="translate(-10.65 -10.65)"><rect class="cls-1" width="600" height="600"/></clipPath></defs><g id="Layer_2" data-name="Layer 2"><g id="Poison"><g class="cls-2"><path class="cls-3" d="M300,584.35A14.52,14.52,0,0,1,289.62,580L20,310.38a14.67,14.67,0,0,1,0-20.76L289.62,20a14.65,14.65,0,0,1,20.76,0L580,289.62a14.67,14.67,0,0,1,0,20.76L310.38,580A14.52,14.52,0,0,1,300,584.35" transform="translate(-10.65 -10.65)"/><path class="cls-4" d="M300,20.66a9.68,9.68,0,0,1,6.84,2.82L576.49,293.14a9.68,9.68,0,0,1,0,13.72L306.84,576.52a9.71,9.71,0,0,1-13.68,0L23.51,306.86a9.68,9.68,0,0,1,0-13.72L293.16,23.48A9.68,9.68,0,0,1,300,20.66m0-10a19.67,19.67,0,0,0-13.93,5.79L16.41,286.09a19.68,19.68,0,0,0,0,27.82L286.07,583.57a19.68,19.68,0,0,0,27.86,0L583.59,313.91a19.68,19.68,0,0,0,0-27.82L313.93,16.44A19.67,19.67,0,0,0,300,10.65" transform="translate(-10.65 -10.65)"/><path class="cls-4" d="M469.2,272.1C461.73,239.21,444.25,177,300,177S138.29,239.21,130.78,272.1c-13.34,58.5,12.7,86.41,27.65,96.88,18.4,12.87,62.22,15.07,62.22,15.07s-5.91,40.77,0,47.57c13,14.94,141.45,16,158.72,0,6.63-6.08,0-47.57,0-47.57s43.82-2.2,62.18-15.07c14.94-10.47,41-38.38,27.65-96.88m-205.66,43a10,10,0,0,1,0,13.89,9.59,9.59,0,0,1-13.76,0l-.09-.09-24.57-27.56L201,329.13a10.56,10.56,0,0,1-7.35,2.91,10.4,10.4,0,0,1-7.34-2.91,9.74,9.74,0,0,1,0-14.31l.08-.09,27.86-24.27L186.67,266a10.38,10.38,0,0,1,0-14.1,9.29,9.29,0,0,1,13.67,0l24.74,27.73,24.27-27.82a10.41,10.41,0,0,1,14.44,0,9.94,9.94,0,0,1,0,14.31l-.08.09-27.78,24.27Zm55.68,62c-5.28,2.91-8.83-4.05-17.61-5.78-13.21-2.54-18.87,6.62-22.24,0-3.8-7.39,10.72-42.51,19.58-44.2s14.44,2.57,17.27,16c3.76,17.81,8.31,31,3,34m94.3-62a10,10,0,0,1,0,13.89,9.59,9.59,0,0,1-13.76,0l-.09-.09-24.56-27.56L351,329.13a10.72,10.72,0,0,1-14.69,0,9.85,9.85,0,0,1,0-14.31l.08-.09,27.86-24.27L336.65,266a10.4,10.4,0,0,1,0-14.1,9.24,9.24,0,0,1,6.84-3,9.34,9.34,0,0,1,6.84,3l24.73,27.73,24.28-27.82a10.4,10.4,0,0,1,14.43,0,9.94,9.94,0,0,1,0,14.31l-.08.09-27.78,24.27Z" transform="translate(-10.65 -10.65)"/></g></g></g></svg>