<svg xmlns="http://www.w3.org/2000/svg" viewBox="0 0 578.7 578.7"><defs><style>.cls-1{fill:#c73c96;}.cls-2{fill:#fff;}</style></defs><g id="Layer_2" data-name="Layer 2"><g id="Regenerate"><path class="cls-1" d="M289.35,573.7A14.59,14.59,0,0,1,279,569.4L9.3,299.73A14.7,14.7,0,0,1,9.3,279L279,9.3a14.68,14.68,0,0,1,20.76,0L569.4,279a14.7,14.7,0,0,1,0,20.76L299.73,569.4A14.59,14.59,0,0,1,289.35,573.7Z"/><path class="cls-2" d="M289.35,10a9.62,9.62,0,0,1,6.84,2.84L565.86,282.5a9.7,9.7,0,0,1,0,13.69L296.19,565.86a9.67,9.67,0,0,1-13.69,0L12.84,296.19a9.67,9.67,0,0,1,0-13.69L282.5,12.84A9.62,9.62,0,0,1,289.35,10m0-10a19.62,19.62,0,0,0-13.92,5.76L5.76,275.43a19.69,19.69,0,0,0,0,27.83L275.43,572.93a19.66,19.66,0,0,0,27.83,0L572.93,303.26a19.67,19.67,0,0,0,0-27.83L303.26,5.76A19.62,19.62,0,0,0,289.35,0Z"/><g id="_Hand_" data-name="&lt;Hand&gt;"><path class="cls-2" d="M171.65,211.08h-26.5a19.34,19.34,0,0,1,6.49-7.14h12.27A48.3,48.3,0,0,1,171.65,211.08Z"/><path class="cls-2" d="M190.08,236.54H148.43A64.69,64.69,0,0,1,145,228h39.53C186.67,231.14,188.55,234.09,190.08,236.54Z"/><path class="cls-2" d="M208,262H163.86q-2.61-4-5.73-8.75c-.26-.39-.52-.78-.76-1.16h42.8A99.8,99.8,0,0,0,208,262Z"/><path class="cls-2" d="M221,160.18H189.92a13.84,13.84,0,0,1,1.61-4.39h27.62C219.71,157,220.35,158.51,221,160.18Z"/><path class="cls-2" d="M230.79,185.63H194.13c-.68-1.89-1.32-3.84-1.89-5.77h36.4Z"/><path class="cls-2" d="M240.63,211.07H204.45c-.77-2-1.4-3.56-1.82-4.62-.28-.71-.63-1.56-1-2.52h36.14C238.77,206.56,239.74,209,240.63,211.07Z"/><path class="cls-2" d="M251.31,236.54H213.68c-.92-2.87-1.9-5.74-2.88-8.53h36.7C248.78,231.11,250,234,251.31,236.54Z"/><path class="cls-2" d="M279.32,109.27H262.58C267.87,106.81,274.54,107.38,279.32,109.27Z"/><path class="cls-2" d="M290.13,134.72H253.91c-.06-1-.11-2-.13-3h35.88C289.83,132.71,290,133.72,290.13,134.72Z"/><path class="cls-2" d="M293,160.18H257c-.22-1.46-.45-2.92-.67-4.39h36.28c.08.83.14,1.5.18,2S292.94,159.12,293,160.18Z"/><path class="cls-2" d="M295.23,185.63H260.37c-.12-1.81-.3-3.74-.54-5.77h34.91C294.9,181.74,295.06,183.67,295.23,185.63Z"/><path class="cls-2" d="M297.18,211.08h-33.9c-.32-2.39-.64-4.78-1-7.14h34.36C296.86,206.41,297,208.81,297.18,211.08Z"/><path class="cls-2" d="M265.16,236.54a66.48,66.48,0,0,0-.08-8.53h33.31c.79,6,2.09,7.88,3.65,8.53Z"/><path class="cls-2" d="M350.93,252.08c-.95,4.85-1.49,8.28-1.38,9.51l0,.4H218.88a40.52,40.52,0,0,0-1-9.91Z"/><path class="cls-2" d="M316.14,228h40.08c-.67,2.93-1.33,5.8-2,8.53H311.9a6.7,6.7,0,0,0,2.56-3.28C314.81,232.41,315.4,230.54,316.14,228Z"/><path class="cls-2" d="M322.77,203.94h39.09c-.55,2.35-1.11,4.74-1.68,7.14H320.86C321.5,208.69,322.14,206.28,322.77,203.94Z"/><path class="cls-2" d="M328.69,179.86h38.68c-.37,1.76-.8,3.7-1.27,5.77H327.49C327.8,184.24,328.19,182.26,328.69,179.86Z"/><path class="cls-2" d="M369.92,134.72H345.43a25.47,25.47,0,0,1,2.83-3h18.86A13.88,13.88,0,0,1,369.92,134.72Z"/><path class="cls-2" d="M372.07,155.79c-.26,1.5-.55,3-.84,4.39h-37.6c.45-1.46.91-2.93,1.41-4.39Z"/><path class="cls-2" d="M359.63,287.45H178.79c-1.55-3.14-3.55-6.82-6.19-11.3H350.85C351.83,281.59,354,285.63,359.63,287.45Z"/><path class="cls-2" d="M240.72,440.17c-.14-7.43-.69-14.73-2-19.58H339.62c0,4.94.23,12.26.48,19.58Z"/><path class="cls-2" d="M340.93,461.82a5.51,5.51,0,0,1-3.73,5.46c-8.3,2.82-28.46,9-47.69,9.72-19,.68-37.67-4.83-45.61-7.54a5.5,5.5,0,0,1-3.72-5.53c.25-4.34.59-11.62.59-19.27h99.49C340.5,451.48,340.77,457.88,340.93,461.82Z"/><path class="cls-2" d="M339.8,414.72h-106c-5.51-4-11.23-10.62-16.75-18.2h139.2c-8.17,9.14-15.82,16.7-16.43,18A1.23,1.23,0,0,0,339.8,414.72Z"/><path class="cls-2" d="M374,372.44a70,70,0,0,1-5,8.49c-2,2.73-4.17,5.54-6.47,8.33H212c-2.87-4.28-5.67-8.66-8.3-12.89q-1.2-1.92-2.28-3.93Z"/><path class="cls-2" d="M384.43,348.37c-2,4.95-4.11,10.32-6.35,15.44H197.37a122.73,122.73,0,0,1-5-15.44Z"/><path class="cls-2" d="M399.26,324.3c-2.53,2.17-4.39,3.74-5.24,4.45-1.56,1.29-3.4,4.84-5.47,9.61H190.2c-.94-4.93-1.66-9.68-2.23-14.06Z"/><path class="cls-2" d="M427,300.23c-4.79,4.21-9.83,8.61-14.5,12.67H186.56a69.19,69.19,0,0,0-1.66-10c-.28-.89-.55-1.78-.84-2.69Z"/><path class="cls-2" d="M436.09,262H414.68c4.54-1.78,9.15-2.76,13.48-2.25A24.87,24.87,0,0,1,436.09,262Z"/><path class="cls-2" d="M448.36,280.51c-.4.69-3.08,3.29-7.06,6.94H372.93c4.54-1.39,8.39-4,12.21-6.34,1.49-.91,3.79-2.74,6.68-5h56.41C448.78,278.13,448.79,279.72,448.36,280.51Z"/></g></g></g></svg>