<?xml version="1.0" encoding="UTF-8" standalone="no"?>
<!-- Created with Inkscape (http://www.inkscape.org/) -->

<svg
   width="204.15126mm"
   height="204.15073mm"
   viewBox="0 0 204.15127 204.15072"
   version="1.1"
   id="svg5"
   sodipodi:docname="shield.svg"
   inkscape:version="1.1.2 (0a00cf5339, 2022-02-04)"
   xmlns:inkscape="http://www.inkscape.org/namespaces/inkscape"
   xmlns:sodipodi="http://sodipodi.sourceforge.net/DTD/sodipodi-0.dtd"
   xmlns="http://www.w3.org/2000/svg"
   xmlns:svg="http://www.w3.org/2000/svg">
  <sodipodi:namedview
     id="namedview88"
     pagecolor="#ffffff"
     bordercolor="#666666"
     borderopacity="1.0"
     inkscape:pageshadow="2"
     inkscape:pageopacity="0.0"
     inkscape:pagecheckerboard="0"
     inkscape:document-units="mm"
     showgrid="false"
     inkscape:zoom="1.0134873"
     inkscape:cx="386.28999"
     inkscape:cy="385.79664"
     inkscape:window-width="1850"
     inkscape:window-height="1043"
     inkscape:window-x="0"
     inkscape:window-y="0"
     inkscape:window-maximized="1"
     inkscape:current-layer="svg5" />
  <defs
     id="defs2">
    <clipPath
       clipPathUnits="userSpaceOnUse"
       id="clipPath1104">
      <path
         d="M 0,600 H 600 V 0 H 0 Z"
         id="path1102" />
    </clipPath>
    <clipPath
       clipPathUnits="userSpaceOnUse"
       id="clipPath1286">
      <path
         d="M 0,600 H 600 V 0 H 0 Z"
         id="path1284" />
    </clipPath>
    <clipPath
       clipPathUnits="userSpaceOnUse"
       id="clipPath1470">
      <path
         d="M 0,600 H 600 V 0 H 0 Z"
         id="path1468" />
    </clipPath>
    <clipPath
       clipPathUnits="userSpaceOnUse"
       id="clipPath1656">
      <path
         d="M 0,600 H 600 V 0 H 0 Z"
         id="path1654" />
    </clipPath>
    <clipPath
       clipPathUnits="userSpaceOnUse"
       id="clipPath1844">
      <path
         d="M 0,600 H 600 V 0 H 0 Z"
         id="path1842" />
    </clipPath>
    <clipPath
       clipPathUnits="userSpaceOnUse"
       id="clipPath2265">
      <path
         d="M 0,600 H 600 V 0 H 0 Z"
         id="path2263" />
    </clipPath>
    <clipPath
       clipPathUnits="userSpaceOnUse"
       id="clipPath2512">
      <path
         d="M 0,600 H 600 V 0 H 0 Z"
         id="path2510" />
    </clipPath>
    <clipPath
       clipPathUnits="userSpaceOnUse"
       id="clipPath2740">
      <path
         d="M 0,300 H 300 V 0 H 0 Z"
         id="path2738" />
    </clipPath>
    <clipPath
       clipPathUnits="userSpaceOnUse"
       id="clipPath2946">
      <path
         d="M 0,300 H 300 V 0 H 0 Z"
         id="path2944" />
    </clipPath>
    <clipPath
       clipPathUnits="userSpaceOnUse"
       id="clipPath3139">
      <path
         d="M 0,300 H 300 V 0 H 0 Z"
         id="path3137" />
    </clipPath>
    <clipPath
       clipPathUnits="userSpaceOnUse"
       id="clipPath3322">
      <path
         d="M 0,300 H 300 V 0 H 0 Z"
         id="path3320" />
    </clipPath>
    <clipPath
       clipPathUnits="userSpaceOnUse"
       id="clipPath3754">
      <path
         d="M 0,300 H 300 V 0 H 0 Z"
         id="path3752" />
    </clipPath>
    <clipPath
       clipPathUnits="userSpaceOnUse"
       id="clipPath3928">
      <path
         d="M 0,300 H 300 V 0 H 0 Z"
         id="path3926" />
    </clipPath>
    <clipPath
       clipPathUnits="userSpaceOnUse"
       id="clipPath4106">
      <path
         d="M 0,300 H 300 V 0 H 0 Z"
         id="path4104" />
    </clipPath>
    <clipPath
       clipPathUnits="userSpaceOnUse"
       id="clipPath4300">
      <path
         d="M 0,300 H 300 V 0 H 0 Z"
         id="path4298" />
    </clipPath>
    <clipPath
       clipPathUnits="userSpaceOnUse"
       id="clipPath4493">
      <path
         d="M 0,300 H 300 V 0 H 0 Z"
         id="path4491" />
    </clipPath>
    <clipPath
       clipPathUnits="userSpaceOnUse"
       id="clipPath4688">
      <path
         d="M 0,300 H 300 V 0 H 0 Z"
         id="path4686" />
    </clipPath>
    <clipPath
       clipPathUnits="userSpaceOnUse"
       id="clipPath4913">
      <path
         d="M 0,600 H 600 V 0 H 0 Z"
         id="path4911" />
    </clipPath>
    <clipPath
       clipPathUnits="userSpaceOnUse"
       id="clipPath5244">
      <path
         d="M 0,600 H 600 V 0 H 0 Z"
         id="path5242" />
    </clipPath>
    <clipPath
       clipPathUnits="userSpaceOnUse"
       id="clipPath5260">
      <path
         d="M 286.083,583.583 16.416,313.916 c -7.685,-7.686 -7.685,-20.146 0,-27.833 v 0 L 286.083,16.417 c 7.687,-7.686 20.147,-7.686 27.833,0 v 0 l 269.667,269.666 c 7.686,7.687 7.686,20.147 0,27.833 v 0 L 313.916,583.583 c -3.843,3.843 -8.879,5.765 -13.916,5.765 v 0 c -5.037,0 -10.074,-1.922 -13.917,-5.765"
         id="path5258" />
    </clipPath>
    <clipPath
       clipPathUnits="userSpaceOnUse"
       id="clipPath5462">
      <path
         d="M 0,600 H 600 V 0 H 0 Z"
         id="path5460" />
    </clipPath>
    <clipPath
       clipPathUnits="userSpaceOnUse"
       id="clipPath5478">
      <path
         d="M 286.083,583.583 16.417,313.916 c -7.687,-7.686 -7.687,-20.146 0,-27.833 v 0 L 286.083,16.417 c 7.687,-7.686 20.147,-7.686 27.834,0 v 0 l 269.666,269.666 c 7.686,7.687 7.686,20.147 0,27.833 v 0 L 313.917,583.583 c -3.843,3.843 -8.88,5.765 -13.917,5.765 v 0 c -5.037,0 -10.074,-1.922 -13.917,-5.765"
         id="path5476" />
    </clipPath>
    <clipPath
       clipPathUnits="userSpaceOnUse"
       id="clipPath5490">
      <path
         d="M 0,600 H 600 V 0 H 0 Z"
         id="path5488" />
    </clipPath>
    <clipPath
       clipPathUnits="userSpaceOnUse"
       id="clipPath5808">
      <path
         d="M 0,600 H 600 V 0 H 0 Z"
         id="path5806" />
    </clipPath>
    <clipPath
       clipPathUnits="userSpaceOnUse"
       id="clipPath6067">
      <path
         d="M 0,600 H 600 V 0 H 0 Z"
         id="path6065" />
    </clipPath>
    <clipPath
       clipPathUnits="userSpaceOnUse"
       id="clipPath6304">
      <path
         d="M 0,600 H 600 V 0 H 0 Z"
         id="path6302" />
    </clipPath>
    <clipPath
       clipPathUnits="userSpaceOnUse"
       id="clipPath6531">
      <path
         d="M 0,600 H 600 V 0 H 0 Z"
         id="path6529" />
    </clipPath>
    <clipPath
       clipPathUnits="userSpaceOnUse"
       id="clipPath6760">
      <path
         d="M 0,600 H 600 V 0 H 0 Z"
         id="path6758" />
    </clipPath>
    <clipPath
       clipPathUnits="userSpaceOnUse"
       id="clipPath7051">
      <path
         d="M 0,600 H 600 V 0 H 0 Z"
         id="path7049" />
    </clipPath>
  </defs>
  <g
     id="g7053"
     transform="matrix(0.35277777,0,0,-0.35277777,102.07563,202.38692)">
    <path
       d="m 0,0 c -3.922,0 -7.608,1.527 -10.382,4.3 l -269.666,269.666 c -5.723,5.724 -5.723,15.039 0,20.763 l 269.666,269.667 c 2.774,2.772 6.46,4.299 10.382,4.299 3.922,0 7.608,-1.527 10.382,-4.299 L 280.048,294.729 c 5.723,-5.724 5.723,-15.039 0,-20.763 L 10.382,4.3 C 7.608,1.527 3.922,0 0,0"
       style="fill:#191715;fill-opacity:1;fill-rule:nonzero;stroke:none"
       id="path7055" />
  </g>
  <path
     class="cls-5"
     d="m 129.01578,41.548845 a 14.751579,14.751579 0 0 1 -4.41385,-8.711564 40.015109,40.015109 0 0 1 -12.77698,-1.916489 39.666646,39.666646 0 0 1 -9.23424,-4.820394 39.957033,39.957033 0 0 1 -9.17619,4.878475 40.015109,40.015109 0 0 1 -12.776948,1.85854 15.100042,15.100042 0 0 1 -4.471932,8.711563 50.643215,50.643215 0 0 1 -7.724256,6.388465 c 0,0 1.509967,30.722778 11.615424,42.512428 a 66.846723,66.846723 0 0 0 22.650062,16.958521 66.846723,66.846723 0 0 0 22.65006,-16.958521 c 9.98925,-11.6154 11.61541,-42.512428 11.61541,-42.512428 a 52.269376,52.269376 0 0 1 -7.78232,-6.388596"
     id="path19"
     style="fill:#ffffff;stroke-width:5.80771" />
  <g
     id="g7057"
     transform="matrix(0.35277777,0,0,-0.35277777,102.07563,3.194925e-6)">
    <path
       d="m 0,0 c -5.037,0 -10.073,-1.921 -13.917,-5.765 l -269.666,-269.666 c -7.687,-7.686 -7.687,-20.147 0,-27.834 l 269.666,-269.666 c 3.844,-3.842 8.88,-5.764 13.917,-5.764 5.037,0 10.073,1.922 13.917,5.764 l 269.666,269.666 c 7.687,7.687 7.687,20.148 0,27.834 L 13.917,-5.765 C 10.073,-1.921 5.037,0 0,0 m 0,-10 c 2.586,0 5.017,-1.007 6.846,-2.835 l 269.667,-269.667 c 1.828,-1.828 2.835,-4.26 2.835,-6.846 0,-2.586 -1.007,-5.016 -2.835,-6.845 L 6.846,-565.859 c -1.829,-1.829 -4.26,-2.836 -6.846,-2.836 -2.586,0 -5.017,1.007 -6.846,2.836 l -269.667,269.666 c -1.828,1.829 -2.835,4.259 -2.835,6.845 0,2.586 1.007,5.018 2.835,6.846 L -6.846,-12.835 C -5.017,-11.007 -2.586,-10 0,-10"
       style="fill:#ffffff;fill-opacity:1;fill-rule:nonzero;stroke:none"
       id="path7059" />
  </g>
</svg>
