<svg xmlns="http://www.w3.org/2000/svg" xmlns:xlink="http://www.w3.org/1999/xlink" viewBox="0 0 578.7 578.7"><defs><style>.cls-1{fill:none;}.cls-2{clip-path:url(#clip-path);}.cls-3{fill:#4b97d2;}.cls-4{fill:#fff;}</style><clipPath id="clip-path" transform="translate(-10.65 -10.65)"><rect class="cls-1" width="600" height="600"/></clipPath></defs><g id="Layer_2" data-name="Layer 2"><g id="Strengthen"><g class="cls-2"><path class="cls-3" d="M300,584.35a14.56,14.56,0,0,1-10.37-4.29L19.94,310.37a14.68,14.68,0,0,1,0-20.73L289.63,19.94a14.68,14.68,0,0,1,20.74,0l269.69,269.7a14.68,14.68,0,0,1,0,20.73L310.37,580.06A14.56,14.56,0,0,1,300,584.35" transform="translate(-10.65 -10.65)"/><path class="cls-4" d="M300,20.65a9.66,9.66,0,0,1,6.86,2.83L576.52,293.14a9.73,9.73,0,0,1,0,13.72L306.86,576.52a9.73,9.73,0,0,1-13.72,0L23.48,306.86a9.73,9.73,0,0,1,0-13.72L293.14,23.48A9.66,9.66,0,0,1,300,20.65m0-10a19.61,19.61,0,0,0-13.91,5.78L16.43,286.09a19.64,19.64,0,0,0,0,27.82L286.09,583.57a19.63,19.63,0,0,0,27.82,0L583.57,313.91a19.64,19.64,0,0,0,0-27.82L313.91,16.43A19.61,19.61,0,0,0,300,10.65" transform="translate(-10.65 -10.65)"/><path class="cls-4" d="M431.05,270.09c-43.12-1.76-68.62,16.88-73.92,21.2-15.94-15.94-24.35-20.29-46.34-20.53-25.19-.23-44.2,11-50.92,16.79-1.05-19.9-15.57-45.46-12.36-62.24,1.58-8.31,2.93-20.06,5.33-27.46-5.87-.88-14.22-5.67-11.11-19.69,4.39,15,17.26,12.16,17.26,12.16s2.57,7.4,8.44,8.27c5.07.78,11-4.66,11-4.66a11.24,11.24,0,0,0,10.37,6c7.63-.06,10.74-5.4,10.74-5.4s3.91,7,11,7.67,11.38-7,11.38-7,4.42,4.49,10.4,4.26,9.49-3.38,9.56-11.42-7.43-29.14-10-46.23c-1.55-10.77-5-11.38-14.08-11.38-11.45,0-28.84,4.9-59.57,12.6-50.56,12.66-54.64,33.6-55.65,38-6.32,27.42-19.83,53.22-32.56,83.78-21.88,52.51-9.22,95.47-3.92,103.61,3.21,4.9,29.32,10.6,57.92,18.47,18.88,5.2,37.38,11.11,56.67,14.42,27.89,4.76,52.68,0,79.9-12.36,41.17,19.69,66.93,13,66.93,13s9.73-3.44,9.73-51.4c0-30.93-6-52.24-6.25-80.37M310.79,361.88c-28.94-1.76-45.76-19.66-50.11-29.42,0,0,29.72,23.47,64.3,20.33a56.7,56.7,0,0,0,23.87-7.33c-1.42,6.15-13.47,17.9-38.06,16.42" transform="translate(-10.65 -10.65)"/><path class="cls-4" d="M325.66,216.88c-8.62,2.7-17-3.38-21.11-8.75a18.34,18.34,0,0,0,5.27,1.29,15.69,15.69,0,0,0,1.65.1,17.87,17.87,0,0,0,11.86-4.76,20.28,20.28,0,0,0,7.7,1.92,1.74,1.74,0,0,1,.81.58c.27.37,3,6.75-6.18,9.62" transform="translate(-10.65 -10.65)"/></g></g></g></svg>