<svg xmlns="http://www.w3.org/2000/svg" xmlns:xlink="http://www.w3.org/1999/xlink" viewBox="0 0 578.7 578.66"><defs><style>.cls-1{fill:none;}.cls-2{clip-path:url(#clip-path);}.cls-3{fill:#cf8ab5;}.cls-4{fill:#fff;}</style><clipPath id="clip-path" transform="translate(-10.65 -10.67)"><rect class="cls-1" width="600" height="600"/></clipPath></defs><g id="Layer_2" data-name="Layer 2"><g id="Ward"><g class="cls-2"><path class="cls-3" d="M300,584.34a14.56,14.56,0,0,1-10.38-4.29L20,310.4a14.69,14.69,0,0,1,0-20.77L289.62,20a14.68,14.68,0,0,1,20.76,0L580,289.63a14.69,14.69,0,0,1,0,20.77L310.38,580.05A14.56,14.56,0,0,1,300,584.34" transform="translate(-10.65 -10.67)"/><path class="cls-4" d="M300,20.67a9.62,9.62,0,0,1,6.84,2.82L576.49,293.17a9.68,9.68,0,0,1,0,13.69L306.84,576.51a9.63,9.63,0,0,1-13.68,0L23.51,306.86a9.68,9.68,0,0,1,0-13.69L293.16,23.49A9.62,9.62,0,0,1,300,20.67m0-10a19.65,19.65,0,0,0-13.93,5.78L16.43,286.09a19.64,19.64,0,0,0,0,27.82L286.07,583.59a19.77,19.77,0,0,0,27.86,0L583.57,313.91a19.64,19.64,0,0,0,0-27.82L313.93,16.45A19.65,19.65,0,0,0,300,10.67" transform="translate(-10.65 -10.67)"/><path class="cls-4" d="M302.66,519.87s-13.54-33.49-57.45-61.72S114.13,327.8,146.83,228c23.35,29.4,53.88-4.57,60.69-32.59S220,135.48,248,123.86c-2.07,20.49,25.13,22.8,36.07,16,13.54-8.49,26.2-31.22,15.2-65.19,59.52,34.55,31.7,86.75,58.07,96.38,22,8,22.56-21.22,21.87-27.37,46.56,27.74,68.32,82,64.33,150.09-4.26,72.48-35.62,116-87.26,158.2-41.23,33.73-53.65,67.91-53.65,67.91" transform="translate(-10.65 -10.67)"/><path class="cls-3" d="M376.22,247.18c-11.83-11.83-12.79-25-12.79-25s-20.8.65-36.83-5.4A113.45,113.45,0,0,1,300,202.65a113.6,113.6,0,0,1-26.58,14.17c-16,6.05-36.83,5.4-36.83,5.4s-1,13.13-12.79,25a149.47,149.47,0,0,1-22.42,18.57s4.51,88.61,33.29,122.55,65.33,49,65.33,49,36.55-15.06,65.37-49,33.25-122.55,33.25-122.55a148.49,148.49,0,0,1-22.39-18.57" transform="translate(-10.65 -10.67)"/></g></g></g></svg>