<?xml version="1.0" encoding="UTF-8" standalone="no"?>
<svg
   viewBox="0 0 578.7 578.7"
   version="1.1"
   id="svg19"
   sodipodi:docname="wound_x.svg"
   inkscape:version="1.1.2 (0a00cf5339, 2022-02-04)"
   xmlns:inkscape="http://www.inkscape.org/namespaces/inkscape"
   xmlns:sodipodi="http://sodipodi.sourceforge.net/DTD/sodipodi-0.dtd"
   xmlns="http://www.w3.org/2000/svg"
   xmlns:svg="http://www.w3.org/2000/svg">
  <sodipodi:namedview
     id="namedview21"
     pagecolor="#ffffff"
     bordercolor="#666666"
     borderopacity="1.0"
     inkscape:pageshadow="2"
     inkscape:pageopacity="0.0"
     inkscape:pagecheckerboard="0"
     showgrid="false"
     inkscape:zoom="1.3513046"
     inkscape:cx="288.97999"
     inkscape:cy="288.97999"
     inkscape:window-width="1850"
     inkscape:window-height="1016"
     inkscape:window-x="0"
     inkscape:window-y="0"
     inkscape:window-maximized="1"
     inkscape:current-layer="svg19" />
  <defs
     id="defs7">
    <style
       id="style2">.cls-1{fill:none;}.cls-2{clip-path:url(#clip-path);}.cls-3{fill:#e46225;}.cls-4{fill:#fff;}</style>
    <clipPath
       id="clip-path"
       transform="translate(-10.65 -10.65)">
      <rect
         class="cls-1"
         width="600"
         height="600"
         id="rect4" />
    </clipPath>
  </defs>
  <path
     class="cls-3"
     d="m 289.35,573.7 a 14.56,14.56 0 0 1 -10.37,-4.29 L 9.29,299.72 a 14.68,14.68 0 0 1 0,-20.74 L 278.98,9.29 a 14.68,14.68 0 0 1 20.74,0 l 269.69,269.69 a 14.68,14.68 0 0 1 0,20.74 L 299.72,569.41 a 14.56,14.56 0 0 1 -10.37,4.29"
     id="path9" />
  <path
     class="cls-4"
     d="m 289.35,10 a 9.66,9.66 0 0 1 6.86,2.83 l 269.66,269.66 a 9.72,9.72 0 0 1 0,13.72 L 296.21,565.87 a 9.73,9.73 0 0 1 -13.72,0 L 12.83,296.21 a 9.72,9.72 0 0 1 0,-13.72 L 282.49,12.83 A 9.66,9.66 0 0 1 289.35,10 m 0,-10 A 19.61,19.61 0 0 0 275.44,5.78 L 5.78,275.44 a 19.64,19.64 0 0 0 0,27.82 l 269.66,269.66 a 19.63,19.63 0 0 0 27.82,0 L 572.92,303.26 a 19.64,19.64 0 0 0 0,-27.82 L 303.26,5.78 A 19.61,19.61 0 0 0 289.35,0"
     id="path11" />
  <path
     class="cls-4"
     d="m 422.6863,151.96393 c -99.66805,-31.48892 -179.79611,43.19575 -276.05911,19.80554 3.27229,6.35714 25.34264,20.62555 45.33561,24.47576 5.2794,0.99965 9.57475,3.90488 10.26202,9.46542 2.10863,17.18145 -4.48281,25.58474 -6.93507,36.00295 -3.03799,12.79238 1.74158,24.28834 12.07389,21.86732 15.19777,-3.56125 9.84027,-26.65469 5.98227,-43.83615 -1.89778,-8.51263 -0.33583,-19.52437 7.09906,-19.69619 6.0916,-0.13276 13.15942,0 17.69689,0 22.44523,0 36.76831,11.49596 39.13467,22.52333 4.06888,18.85273 -4.37347,30.56736 -6.43524,33.38668 -12.55027,17.35327 -18.88398,25.77218 -18.88398,40.35299 a 36.924513,36.924513 0 1 0 73.84902,-0.0313 c 0,-14.58081 -6.33372,-22.99971 -18.88398,-40.35299 -2.18673,-3.03018 -7.54422,-10.97271 -8.48921,-20.22726 -1.98367,-19.11826 10.36354,-57.94055 51.87238,-58.81524 0.58573,0 11.08203,-0.0547 15.16654,1.56195 9.3717,3.71744 3.58467,18.4154 2.81932,24.8975 -1.8431,15.32273 13.4562,17.43917 15.90846,3.32694 2.2414,-13.11257 -4.48279,-17.80623 -3.32696,-26.13923 0.92156,-6.66953 5.22473,-8.94216 11.31634,-10.93365 16.48638,-5.3575 26.31886,-11.71463 30.45803,-17.61881 m -113.0774,124.0501 c 17.27518,29.21628 -6.568,45.91353 -16.98621,40.26709 a 1.1870823,1.1870823 0 0 1 0,-2.0774 c 4.95919,-2.63969 18.14987,-8.8953 16.40048,-38.03349 a 0.28115107,0.28115107 0 0 1 0.53106,-0.1562"
     id="path13"
     style="stroke-width:0.780975" />
</svg>
