<svg xmlns="http://www.w3.org/2000/svg" xmlns:xlink="http://www.w3.org/1999/xlink" viewBox="0 0 578.7 578.7"><defs><style>.cls-1{fill:none;}.cls-2{clip-path:url(#clip-path);}.cls-3{fill:#e46225;}.cls-4{fill:#fff;}</style><clipPath id="clip-path" transform="translate(-10.65 -10.65)"><rect class="cls-1" width="600" height="600"/></clipPath></defs><g id="Layer_2" data-name="Layer 2"><g id="Wound"><g class="cls-2"><path class="cls-3" d="M300,584.35a14.56,14.56,0,0,1-10.37-4.29L19.94,310.37a14.68,14.68,0,0,1,0-20.74L289.63,19.94a14.68,14.68,0,0,1,20.74,0L580.06,289.63a14.68,14.68,0,0,1,0,20.74L310.37,580.06A14.56,14.56,0,0,1,300,584.35" transform="translate(-10.65 -10.65)"/><path class="cls-4" d="M300,20.65a9.66,9.66,0,0,1,6.86,2.83L576.52,293.14a9.72,9.72,0,0,1,0,13.72L306.86,576.52a9.73,9.73,0,0,1-13.72,0L23.48,306.86a9.72,9.72,0,0,1,0-13.72L293.14,23.48A9.66,9.66,0,0,1,300,20.65m0-10a19.61,19.61,0,0,0-13.91,5.78L16.43,286.09a19.64,19.64,0,0,0,0,27.82L286.09,583.57a19.63,19.63,0,0,0,27.82,0L583.57,313.91a19.64,19.64,0,0,0,0-27.82L313.91,16.43A19.61,19.61,0,0,0,300,10.65" transform="translate(-10.65 -10.65)"/><path class="cls-4" d="M470.05,226.21c-127.62-40.32-230.22,55.31-353.48,25.36,4.19,8.14,32.45,26.41,58.05,31.34,6.76,1.28,12.26,5,13.14,12.12,2.7,22-5.74,32.76-8.88,46.1-3.89,16.38,2.23,31.1,15.46,28C213.8,364.57,206.94,335,202,313c-2.43-10.9-.43-25,9.09-25.22,7.8-.17,16.85,0,22.66,0,28.74,0,47.08,14.72,50.11,28.84,5.21,24.14-5.6,39.14-8.24,42.75-16.07,22.22-24.18,33-24.18,51.67A47.27,47.27,0,1,0,346,411c0-18.67-8.11-29.45-24.18-51.67-2.8-3.88-9.66-14.05-10.87-25.9-2.54-24.48,13.27-74.19,66.42-75.31.75,0,14.19-.07,19.42,2,12,4.76,4.59,23.58,3.61,31.88-2.36,19.62,17.23,22.33,20.37,4.26,2.87-16.79-5.74-22.8-4.26-33.47,1.18-8.54,6.69-11.45,14.49-14,21.11-6.86,33.7-15,39-22.56M325.21,385.07c22.12,37.41-8.41,58.79-21.75,51.56a1.52,1.52,0,0,1,0-2.66c6.35-3.38,23.24-11.39,21-48.7a.36.36,0,0,1,.68-.2" transform="translate(-10.65 -10.65)"/></g></g></g></svg>