<svg xmlns="http://www.w3.org/2000/svg" xmlns:xlink="http://www.w3.org/1999/xlink" viewBox="0 0 6.89 8.86"><defs><style>.cls-1{fill:none;}.cls-2{clip-path:url(#clip-path);}</style><clipPath id="clip-path" transform="translate(0 -0.11)"><rect class="cls-1" width="7.08" height="9.27"/></clipPath></defs><g id="Layer_2" data-name="Layer 2"><g id="Layer_1-2" data-name="Layer 1"><g class="cls-2"><path d="M5.55,8.58a2.65,2.65,0,0,1-3.12-.25C1,7.22,1.16,6,0,5.71a1.47,1.47,0,0,1,1.34-.37c-.33-1,.17-2-.63-2.71a1.68,1.68,0,0,1,1.13,0C1.67,2,1.91.67,1.18.12,2.6,0,3.32,1.28,3.64,1.85a2,2,0,0,1,.94-.65c0,1.46.68,1.17,1,2.4A1.19,1.19,0,0,1,6.69,3a4.54,4.54,0,0,0,.13,2.78A2.41,2.41,0,0,1,5.55,8.58" transform="translate(0 -0.11)"/></g></g></g></svg>