<svg xmlns="http://www.w3.org/2000/svg" xmlns:xlink="http://www.w3.org/1999/xlink" viewBox="0 0 7.41 8.62"><defs><style>.cls-1{fill:none;}.cls-2{clip-path:url(#clip-path);}</style><clipPath id="clip-path" transform="translate(-0.01 0)"><rect class="cls-1" width="7.44" height="8.63"/></clipPath></defs><g id="Layer_2" data-name="Layer 2"><g id="Layer_1-2" data-name="Layer 1"><g class="cls-2"><path d="M1.64,3.46A3.36,3.36,0,0,1,.09,5.81.15.15,0,0,0,0,6c.09.26.32.91.5,1.33a.09.09,0,0,0,.11.06A2.18,2.18,0,0,1,3.18,8.53a.08.08,0,0,0,.07.05l.17,0,.17,0a.08.08,0,0,0,.09,0,2.16,2.16,0,0,1,2.74-.53.09.09,0,0,0,.13,0c.27-.37.65-.94.8-1.17a.15.15,0,0,0,0-.18A3.37,3.37,0,0,1,6.37,4,2.34,2.34,0,0,1,7.38,2a.09.09,0,0,0,0-.13C7.29,1.63,7,1.17,6.8.88a.09.09,0,0,0-.1,0A2,2,0,0,1,4.64.07L4.58,0H4.45L4.32,0,4.25,0A2,2,0,0,1,2.07.28.1.1,0,0,0,2,.3c-.27.23-.66.61-.82.77a.09.09,0,0,0,0,.13,2.36,2.36,0,0,1,.5,2.26" transform="translate(-0.01 0)"/></g></g></g></svg>