<svg xmlns="http://www.w3.org/2000/svg" xmlns:xlink="http://www.w3.org/1999/xlink" viewBox="0 0 8.73 6.24"><defs><style>.cls-1{fill:none;}.cls-2{clip-path:url(#clip-path);}</style><clipPath id="clip-path" transform="translate(-0.38 -0.08)"><rect class="cls-1" width="9.43" height="6.36"/></clipPath></defs><g id="Layer_2" data-name="Layer 2"><g id="Layer_1-2" data-name="Layer 1"><g class="cls-2"><path d="M8.85,5.07A1.9,1.9,0,0,1,7.19,6.33L.94,4.05C.73,4,0,3.29.63,1.7,1.16.34,1.92,0,2.39.1S4.58,1.23,5.67,1.5A2.92,2.92,0,0,0,7.16.62a.68.68,0,0,1,.78.48c-.05.27-.46.92-.42,1.07s1.23.45,1.28.5a2.64,2.64,0,0,1,0,2.4" transform="translate(-0.38 -0.08)"/></g></g></g></svg>