<svg xmlns="http://www.w3.org/2000/svg" xmlns:xlink="http://www.w3.org/1999/xlink" viewBox="0 0 6.56 8.88"><defs><style>.cls-1{fill:none;}.cls-2{clip-path:url(#clip-path);}</style><clipPath id="clip-path" transform="translate(-0.04 -0.02)"><rect class="cls-1" width="6.59" height="8.97"/></clipPath></defs><g id="Layer_2" data-name="Layer 2"><g id="Layer_1-2" data-name="Layer 1"><g class="cls-2"><path d="M5.17,5.92a4.65,4.65,0,0,0-.91-2.76c.41.15.73.33.93.41a1.21,1.21,0,0,0,1.4-.1C5.92,3.18,5.25,2,4.45,1.63,3.07,1.05,2.79.13,1.87,0h0a1.3,1.3,0,0,0-.62.1h0L1,.22,1,.27A1.87,1.87,0,0,0,0,1.73C0,2.39.86,3.59,2.13,5a7.13,7.13,0,0,0,.05,1.54A3.5,3.5,0,0,1,2,8.3,1.46,1.46,0,0,0,3.28,7,3.43,3.43,0,0,0,5.89,8.89a4.85,4.85,0,0,1-.72-3" transform="translate(-0.04 -0.02)"/></g></g></g></svg>