<svg xmlns="http://www.w3.org/2000/svg" xmlns:xlink="http://www.w3.org/1999/xlink" viewBox="0 0 6.83 8.88"><defs><style>.cls-1{fill:none;}.cls-2{clip-path:url(#clip-path);}</style><clipPath id="clip-path" transform="translate(-0.43 -0.15)"><rect class="cls-1" width="7.26" height="9.02"/></clipPath></defs><g id="Layer_2" data-name="Layer 2"><g id="Layer_1-2" data-name="Layer 1"><g class="cls-2"><path d="M.62,9A2.17,2.17,0,0,1,1,6.67c.89-1.12.14-2.44,1.47-2.86-.3.8.32,1.22.84.48S3,2.67,4.23,2c-.08.68.48.84.84.45C5.75,1.71,5.62,0,7.26.16A1.12,1.12,0,0,0,6.78,1.3a2.74,2.74,0,0,1-.43,2.12c-.67.66-.07,1,.37.76C6.56,5.16,6,5.37,4.91,5.6S4,6.94,4.83,6.66C4,8.59,2.33,6.36.62,9" transform="translate(-0.43 -0.15)"/></g></g></g></svg>