<?xml version="1.0" encoding="UTF-8" standalone="no"?>
<svg
   viewBox="0 0 10 10"
   version="1.1"
   id="svg27"
   sodipodi:docname="unknown.svg"
   width="10"
   height="10"
   inkscape:version="1.1.2 (0a00cf5339, 2022-02-04)"
   xmlns:inkscape="http://www.inkscape.org/namespaces/inkscape"
   xmlns:sodipodi="http://sodipodi.sourceforge.net/DTD/sodipodi-0.dtd"
   xmlns="http://www.w3.org/2000/svg"
   xmlns:svg="http://www.w3.org/2000/svg">
  <sodipodi:namedview
     id="namedview29"
     pagecolor="#ffffff"
     bordercolor="#666666"
     borderopacity="1.0"
     inkscape:pageshadow="2"
     inkscape:pageopacity="0.0"
     inkscape:pagecheckerboard="0"
     showgrid="false"
     inkscape:zoom="15.075668"
     inkscape:cx="7.3960239"
     inkscape:cy="8.0261784"
     inkscape:window-width="1846"
     inkscape:window-height="1043"
     inkscape:window-x="0"
     inkscape:window-y="0"
     inkscape:window-maximized="1"
     inkscape:current-layer="svg27" />
  <defs
     id="defs7">
    <style
       id="style2">.cls-1{fill:none;}.cls-2{clip-path:url(#clip-path);}</style>
    <clipPath
       id="clip-path"
       transform="translate(-0.01 -0.01)">
      <rect
         class="cls-1"
         width="5.29"
         height="9.96"
         id="rect4"
         x="0"
         y="0" />
    </clipPath>
  </defs>
  <path
     style="fill:#000000;stroke-width:0.0426213"
     d="M 4.3348795,8.5951978 C 4.2443237,8.394778 4.2023355,7.7523406 4.2737579,7.6600057 4.3044356,7.6203441 4.4818662,7.5279751 4.6680477,7.4547391 4.9489143,7.3442576 5.0222894,7.3300008 5.0989286,7.3710168 5.2607418,7.4576168 5.3311368,7.6773676 5.3311368,8.095897 V 8.4780965 L 5.060626,8.6059068 c -0.1785269,0.08435 -0.3372684,0.1278103 -0.466835,0.1278103 -0.1802411,0 -0.2014512,-0.011347 -0.2589115,-0.1385193 z M 4.5094828,6.8099827 C 4.2915646,6.6474365 4.2656033,6.5401779 4.2656033,5.8023909 c 0,-0.735076 0.00842,-0.7613768 0.294751,-0.9211773 C 5.1719402,4.5398946 5.7379672,4.1208575 5.8324493,3.9394643 5.9235653,3.764535 5.95361,3.0255953 5.8866821,2.605634 5.8122099,2.1383341 5.6845778,2.0260666 5.4434376,2.2157472 5.3352243,2.3008682 5.3311365,2.3199156 5.3311365,2.7390305 c 0,0.3325596 -0.016309,0.4582302 -0.06928,0.5338574 -0.06962,0.099396 -0.9757319,0.5593761 -1.101912,0.5593761 -0.1019163,0 -0.124327,-0.1122716 -0.053241,-0.266728 0.1355447,-0.2945173 0.160281,-0.4504836 0.1459352,-0.9201412 -0.011285,-0.3694615 -0.00117,-0.4885589 0.044687,-0.5266234 0.067374,-0.055914 0.8581753,-0.4175735 0.913066,-0.4175735 0.019756,0 0.1353144,-0.047952 0.2567952,-0.1065535 C 5.5886678,1.5360434 5.7180362,1.4874816 5.754672,1.4867357 5.791308,1.4859985 5.8585126,1.4572207 5.904016,1.4228067 6.0527968,1.3102744 6.3570718,1.3426207 6.5032238,1.4865077 6.695991,1.6762849 6.7257127,1.7178016 6.8649211,1.9917455 L 6.993369,2.2445148 v 0.8599257 c 0,0.9728406 -8.512e-4,0.9761721 -0.3269712,1.2849757 -0.3532864,0.334524 -1.081875,0.8820056 -1.2606733,0.9473059 -0.1786097,0.065229 -0.053224,0.7560663 0.1490756,0.8213598 0.080513,0.02599 0.1426315,0.1986324 0.097653,0.2714086 C 5.6372294,6.4541267 5.4622185,6.5702914 5.2635407,6.6876416 4.8615736,6.9250657 4.6991029,6.9514268 4.5094831,6.8099881 Z"
     id="path2231" />
</svg>
