<?xml version="1.0" encoding="UTF-8" standalone="no"?>
<!-- Created with Inkscape (http://www.inkscape.org/) -->

<svg
   width="12.248797mm"
   height="14.082624mm"
   viewBox="0 0 12.248797 14.082625"
   version="1.1"
   id="svg5079"
   inkscape:version="1.2.2 (b0a8486541, 2022-12-01)"
   sodipodi:docname="enhance.svg"
   xmlns:inkscape="http://www.inkscape.org/namespaces/inkscape"
   xmlns:sodipodi="http://sodipodi.sourceforge.net/DTD/sodipodi-0.dtd"
   xmlns="http://www.w3.org/2000/svg"
   xmlns:svg="http://www.w3.org/2000/svg">
  <sodipodi:namedview
     id="namedview5081"
     pagecolor="#ffffff"
     bordercolor="#666666"
     borderopacity="1.0"
     inkscape:pageshadow="2"
     inkscape:pageopacity="0.0"
     inkscape:pagecheckerboard="0"
     inkscape:document-units="mm"
     showgrid="false"
     fit-margin-top="0"
     fit-margin-left="0"
     fit-margin-right="0"
     fit-margin-bottom="0"
     inkscape:zoom="11.146352"
     inkscape:cx="-5.4277848"
     inkscape:cy="18.615956"
     inkscape:window-width="1854"
     inkscape:window-height="1011"
     inkscape:window-x="0"
     inkscape:window-y="0"
     inkscape:window-maximized="1"
     inkscape:current-layer="layer1"
     inkscape:showpageshadow="2"
     inkscape:deskcolor="#d1d1d1" />
  <defs
     id="defs5076">
    <clipPath
       clipPathUnits="userSpaceOnUse"
       id="clipPath1778">
      <path
         d="m 48.278,398.439 h 35 v 40.198 h -35 z"
         id="path1776" />
    </clipPath>
    <clipPath
       clipPathUnits="userSpaceOnUse"
       id="clipPath1790">
      <path
         d="m 53.218,438.637 -4.94,-8.556 v -25.603 l 10.46,-6.039 h 19.599 l 4.941,8.556 v 25.604 l -10.459,6.038 z"
         id="path1788" />
    </clipPath>
    <clipPath
       clipPathUnits="userSpaceOnUse"
       id="clipPath1802">
      <path
         d="m 48.278,398.439 h 35 v 40.198 h -35 z"
         id="path1800" />
    </clipPath>
    <clipPath
       clipPathUnits="userSpaceOnUse"
       id="clipPath1814">
      <path
         d="m 60.197,412.96 h 11.161 v 11.157 H 60.197 Z"
         id="path1812" />
    </clipPath>
    <clipPath
       clipPathUnits="userSpaceOnUse"
       id="clipPath1918">
      <path
         d="m 103.279,398.439 h 34.999 v 40.198 h -34.999 z"
         id="path1916" />
    </clipPath>
    <clipPath
       clipPathUnits="userSpaceOnUse"
       id="clipPath1930">
      <path
         d="m 108.218,438.637 -4.939,-8.555 v -25.604 l 10.459,-6.039 h 19.599 l 4.941,8.556 v 25.604 l -10.459,6.038 z"
         id="path1928" />
    </clipPath>
    <clipPath
       clipPathUnits="userSpaceOnUse"
       id="clipPath1942">
      <path
         d="m 103.279,398.439 h 34.999 v 40.198 h -34.999 z"
         id="path1940" />
    </clipPath>
    <clipPath
       clipPathUnits="userSpaceOnUse"
       id="clipPath1954">
      <path
         d="M 113.665,411.426 H 127.89 V 425.65 H 113.665 Z"
         id="path1952" />
    </clipPath>
    <clipPath
       clipPathUnits="userSpaceOnUse"
       id="clipPath1830">
      <path
         d="m 158.279,398.439 h 34.999 v 40.198 h -34.999 z"
         id="path1828" />
    </clipPath>
    <clipPath
       clipPathUnits="userSpaceOnUse"
       id="clipPath1842">
      <path
         d="m 163.218,438.637 -4.939,-8.555 v -25.604 l 10.459,-6.039 h 19.599 l 4.941,8.556 v 25.604 l -10.46,6.038 z"
         id="path1840" />
    </clipPath>
    <clipPath
       clipPathUnits="userSpaceOnUse"
       id="clipPath1854">
      <path
         d="m 158.279,398.439 h 34.999 v 40.198 h -34.999 z"
         id="path1852" />
    </clipPath>
    <clipPath
       clipPathUnits="userSpaceOnUse"
       id="clipPath1866">
      <path
         d="m 166.638,409.398 h 18.281 v 18.28 h -18.281 z"
         id="path1864" />
    </clipPath>
    <clipPath
       clipPathUnits="userSpaceOnUse"
       id="clipPath1882">
      <path
         d="m 213.278,398.439 h 34.999 v 40.198 h -34.999 z"
         id="path1880" />
    </clipPath>
    <clipPath
       clipPathUnits="userSpaceOnUse"
       id="clipPath1902">
      <path
         d="m 222.268,410.028 h 17.021 v 17.02 h -17.021 z"
         id="path1900" />
    </clipPath>
    <clipPath
       id="clip-path"
       transform="translate(-2.36 -1.94)">
      <rect
         class="cls-1"
         width="8.71"
         height="8.4899998"
         id="rect20783"
         x="0"
         y="0" />
    </clipPath>
  </defs>
  <g
     inkscape:label="Layer 1"
     inkscape:groupmode="layer"
     id="layer1"
     transform="translate(-206.5367,-104.02689)">
    <g
       class="cls-2"
       id="g20796"
       transform="matrix(1.0843287,0,0,1.0843287,210.68568,108.65701)"
       style="isolation:isolate">
      <g
         id="Layer_2"
         data-name="Layer 2">
        <g
           id="Layer_1-2"
           data-name="Layer 1">
          <g
             class="cls-4"
             id="g20792"
             style="opacity:0.75">
            <g
               class="cls-5"
               clip-path="url(#clip-path)"
               id="g20790">
              <polygon
                 class="cls-6"
                 points="2.12,0.38 1.99,0.3 1.86,0.38 0.39,1.23 0.26,1.3 0.26,1.45 0.26,3.15 0.26,3.3 0.39,3.38 1.86,4.23 1.99,4.3 2.12,4.23 3.6,3.38 3.73,3.3 3.73,3.15 3.73,1.45 3.73,1.3 3.6,1.23 "
                 id="polygon20788"
                 style="fill:none;stroke:#ffffff;stroke-width:0.52px" />
            </g>
          </g>
        </g>
      </g>
    </g>
  </g>
</svg>
