<?xml version="1.0" encoding="UTF-8" standalone="no"?>
<!-- Created with Inkscape (http://www.inkscape.org/) -->

<svg
   width="197.55556mm"
   height="197.55556mm"
   viewBox="0 0 197.55556 197.55556"
   version="1.1"
   id="svg5"
   xmlns="http://www.w3.org/2000/svg"
   xmlns:svg="http://www.w3.org/2000/svg">
  <defs
     id="defs2">
    <clipPath
       clipPathUnits="userSpaceOnUse"
       id="clipPath1104">
      <path
         d="M 0,600 H 600 V 0 H 0 Z"
         id="path1102" />
    </clipPath>
    <clipPath
       clipPathUnits="userSpaceOnUse"
       id="clipPath1286">
      <path
         d="M 0,600 H 600 V 0 H 0 Z"
         id="path1284" />
    </clipPath>
    <clipPath
       clipPathUnits="userSpaceOnUse"
       id="clipPath1470">
      <path
         d="M 0,600 H 600 V 0 H 0 Z"
         id="path1468" />
    </clipPath>
    <clipPath
       clipPathUnits="userSpaceOnUse"
       id="clipPath1656">
      <path
         d="M 0,600 H 600 V 0 H 0 Z"
         id="path1654" />
    </clipPath>
    <clipPath
       clipPathUnits="userSpaceOnUse"
       id="clipPath1844">
      <path
         d="M 0,600 H 600 V 0 H 0 Z"
         id="path1842" />
    </clipPath>
  </defs>
  <g
     id="layer1"
     transform="translate(-4.7090502,-8.6345915)">
    <g
       id="surface91863"
       transform="matrix(0.35277778,0,0,0.35277778,-2.3465054,1.5790359)">
      <path
         style="fill:#ffffff;fill-opacity:1;fill-rule:nonzero;stroke:none"
         d="M 300,46 C 159.94531,46 46,159.94531 46,300 46,440.05469 159.94531,554 300,554 440.05469,554 554,440.05469 554,300 554,159.94531 440.05469,46 300,46 m 0,529.56641 c -37.1875,0 -73.28125,-7.28907 -107.26953,-21.66797 -32.81641,-13.87891 -62.28516,-33.7461 -87.58594,-59.04297 C 79.84375,469.55469 59.980469,440.08594 46.101562,407.26953 31.722656,373.28125 24.433594,337.19141 24.433594,300 c 0,-37.19141 7.289062,-73.28125 21.667968,-107.26953 C 59.980469,159.91406 79.84375,130.44531 105.14453,105.14453 130.44531,79.84375 159.91406,59.980469 192.73047,46.101562 226.71875,31.722656 262.8125,24.433594 300,24.433594 c 37.1875,0 73.28125,7.289062 107.26953,21.667968 32.81641,13.878907 62.28516,33.742188 87.58594,59.042968 25.30078,25.30078 45.16797,54.76953 59.04687,87.58594 14.375,33.98828 21.66407,70.07812 21.66407,107.26953 0,37.19141 -7.28907,73.28125 -21.66407,107.26953 -13.8789,32.81641 -33.74609,62.28516 -59.04687,87.58594 -25.30078,25.29687 -54.76953,45.16406 -87.58594,59.04297 C 373.28125,568.27734 337.1875,575.56641 300,575.56641"
         id="path2100" />
      <path
         style="fill:#e34c61;fill-opacity:1;fill-rule:nonzero;stroke:none"
         d="m 470.47266,509.74609 c -2.60938,-0.004 -4.23829,-1.08203 -5.14454,-1.99218 L 300,342.42578 134.67187,507.75391 c -0.90625,0.91015 -2.53906,1.99218 -5.14453,1.99218 -9.42578,0 -33.531246,-18.09375 -38.999996,-31.30078 -2.90625,-7.01172 -0.171875,-11.22656 1.71875,-13.11719 L 257.57422,300 92.246094,134.67187 c -2.085938,-2.08203 -5.046875,-6.87109 -1.46875,-15.51562 5.4375,-13.125 23.816406,-30.0625 35.890626,-30.0625 3.17187,0 5.9414,1.089844 8.0039,3.152344 L 300,257.57422 465.32812,92.246094 c 2.0625,-2.0625 4.83204,-3.152344 8.00391,-3.152344 12.07422,0 30.45313,16.9375 35.89063,30.0625 3.57812,8.64453 0.61718,13.43359 -1.46875,15.51562 L 342.42578,300 507.75391,465.32812 c 1.89062,1.89063 4.625,6.10547 1.71875,13.125 -5.47266,13.20313 -29.57032,31.29297 -39,31.29297 z m 0,0"
         id="path2102" />
      <path
         style="fill:#ffffff;fill-opacity:1;fill-rule:nonzero;stroke:none"
         d="M 88.710938,138.20703 250.50391,300 88.710938,461.79297 c -2.230469,2.23047 47.269532,51.72656 49.496092,49.49609 L 300,349.49609 461.79297,511.28906 c 2.22656,2.23047 51.73047,-47.26562 49.49609,-49.49609 L 349.49609,300 511.28906,138.20703 C 513.67969,135.82031 464.8125,85.691406 461.79297,88.710938 L 300,250.50391 138.20703,88.710938 C 135.1875,85.691406 86.320312,135.82031 88.710938,138.20703 M 473.33203,94.09375 c 13.09375,0 39.48438,28.44531 30.88672,37.04297 L 335.35547,300 504.21875,468.86328 c 9.04687,9.04688 -24.84766,35.88281 -33.74609,35.88281 -0.70313,0 -1.25,-0.17187 -1.60938,-0.52734 L 300,335.35547 131.13672,504.21875 c -0.35938,0.35937 -0.90625,0.52734 -1.60938,0.52734 -8.90234,0 -42.792965,-26.83593 -33.74609,-35.88281 L 264.64453,300 95.78125,131.13672 c -8.597656,-8.59766 17.79297,-37.046876 30.88672,-37.04297 1.77344,0 3.30469,0.523438 4.46875,1.6875 L 300,264.64453 468.86328,95.78125 c 1.16406,-1.164062 2.69531,-1.6875 4.46875,-1.6875"
         id="path2104" />
      <path
         style="fill:#e34c61;fill-opacity:1;fill-rule:nonzero;stroke:none"
         d="M 300,20 C 262.20703,20 225.53516,27.40625 191.00781,42.011719 157.66016,56.113281 127.71875,76.300781 102.01172,102.01172 76.300781,127.71875 56.113281,157.66016 42.011719,191.00781 27.40625,225.53516 20,262.20703 20,300 c 0,37.79297 7.40625,74.46484 22.011719,108.99219 14.101562,33.34765 34.289062,63.28906 60.000001,88.99609 25.70703,25.71094 55.64844,45.89844 88.99609,60 C 225.53516,572.59375 262.20703,580 300,580 c 37.79297,0 74.46484,-7.40625 108.99219,-22.01172 33.34765,-14.10156 63.28906,-34.28906 88.99609,-60 25.71094,-25.70703 45.89844,-55.64844 60,-88.99609 C 572.59375,374.46484 580,337.79297 580,300 c 0,-37.79297 -7.40625,-74.46484 -22.01172,-108.99219 -14.10156,-33.34765 -34.28906,-63.28906 -60,-88.99609 C 472.28125,76.300781 442.33984,56.113281 408.99219,42.011719 374.46484,27.40625 337.79297,20 300,20 m 0,16 C 445.80469,36 564,154.19531 564,300 564,445.80469 445.80469,564 300,564 154.19531,564 36,445.80469 36,300 36,154.19531 154.19531,36 300,36"
         id="path2106" />
    </g>
  </g>
</svg>
