<?xml version="1.0" encoding="UTF-8" standalone="no"?>
<!-- Created with Inkscape (http://www.inkscape.org/) -->

<svg
   width="197.55556mm"
   height="197.55556mm"
   viewBox="0 0 197.55556 197.55556"
   version="1.1"
   id="svg5"
   sodipodi:docname="dark.svg"
   inkscape:version="1.1.2 (0a00cf5339, 2022-02-04)"
   xmlns:inkscape="http://www.inkscape.org/namespaces/inkscape"
   xmlns:sodipodi="http://sodipodi.sourceforge.net/DTD/sodipodi-0.dtd"
   xmlns="http://www.w3.org/2000/svg"
   xmlns:svg="http://www.w3.org/2000/svg">
  <sodipodi:namedview
     id="namedview21"
     pagecolor="#ffffff"
     bordercolor="#666666"
     borderopacity="1.0"
     inkscape:pageshadow="2"
     inkscape:pageopacity="0.0"
     inkscape:pagecheckerboard="0"
     inkscape:document-units="mm"
     showgrid="false"
     inkscape:zoom="0.74056808"
     inkscape:cx="401.71864"
     inkscape:cy="211.32426"
     inkscape:window-width="1850"
     inkscape:window-height="1016"
     inkscape:window-x="0"
     inkscape:window-y="0"
     inkscape:window-maximized="1"
     inkscape:current-layer="svg5" />
  <defs
     id="defs2">
    <clipPath
       clipPathUnits="userSpaceOnUse"
       id="clipPath1104">
      <path
         d="M 0,600 H 600 V 0 H 0 Z"
         id="path1102" />
    </clipPath>
    <clipPath
       clipPathUnits="userSpaceOnUse"
       id="clipPath1286">
      <path
         d="M 0,600 H 600 V 0 H 0 Z"
         id="path1284" />
    </clipPath>
    <clipPath
       clipPathUnits="userSpaceOnUse"
       id="clipPath1470">
      <path
         d="M 0,600 H 600 V 0 H 0 Z"
         id="path1468" />
    </clipPath>
    <clipPath
       clipPathUnits="userSpaceOnUse"
       id="clipPath1656">
      <path
         d="M 0,600 H 600 V 0 H 0 Z"
         id="path1654" />
    </clipPath>
    <clipPath
       clipPathUnits="userSpaceOnUse"
       id="clipPath1844">
      <path
         d="M 0,600 H 600 V 0 H 0 Z"
         id="path1842" />
    </clipPath>
  </defs>
  <path
     d="m 98.77778,194.73333 c -25.630363,0 -49.727202,-9.98114 -67.850807,-28.10475 C 12.803368,148.50498 2.8222266,124.40814 2.8222266,98.777777 2.8222266,73.147413 12.803368,49.050575 30.926973,30.92697 49.050578,12.803365 73.147417,2.8222231 98.77778,2.8222231 c 25.63036,0 49.7272,9.9811419 67.85081,28.1047469 18.1236,18.123605 28.10474,42.220443 28.10474,67.850807 0,25.630363 -9.98114,49.727203 -28.10474,67.850803 -18.12361,18.12361 -42.22045,28.10475 -67.85081,28.10475"
     style="fill:#202830;fill-opacity:1;fill-rule:nonzero;stroke:none;stroke-width:0.352778"
     id="bg" />
  <g
     id="outline"
     transform="matrix(0.35277777,0,0,-0.35277777,98.77778,1.9e-6)">
    <path
       d="m 0,0 c -37.793,0 -74.464,-7.405 -108.993,-22.011 -33.345,-14.102 -63.287,-34.29 -88.997,-59.999 -25.709,-25.71 -45.897,-55.652 -59.999,-88.997 C -272.595,-205.536 -280,-242.207 -280,-280 c 0,-37.793 7.405,-74.464 22.011,-108.993 14.102,-33.345 34.29,-63.287 59.999,-88.997 25.71,-25.709 55.652,-45.896 88.997,-59.999 C -74.464,-552.595 -37.793,-560 0,-560 c 37.793,0 74.464,7.405 108.993,22.011 33.345,14.103 63.287,34.29 88.997,59.999 25.709,25.71 45.897,55.652 59.999,88.997 14.606,34.529 22.011,71.2 22.011,108.993 0,37.793 -7.405,74.464 -22.011,108.993 -14.102,33.345 -34.29,63.287 -59.999,88.997 -25.71,25.709 -55.652,45.897 -88.997,59.999 C 74.464,-7.405 37.793,0 0,0 m 0,-16 c 145.803,0 264,-118.196 264,-264 0,-145.803 -118.197,-264 -264,-264 -145.803,0 -264,118.197 -264,264 0,145.804 118.197,264 264,264"
       style="fill:#ffffff;fill-opacity:1;fill-rule:nonzero;stroke:none"
       id="path1852" />
  </g>
  <g
     id="symbol"
     transform="matrix(0.35277777,0,0,-0.35277777,114.94562,150.20756)">
    <path
       d="m 0,0 c -8.87,0 -17.561,0.8 -26,2.32 6.06,2.781 11.92,5.941 17.54,9.441 1.786,1.112 3.539,2.271 5.276,3.453 73.09,1.203 131.963,59.194 131.963,130.566 0,71.385 -58.877,129.378 -131.971,130.577 -1.739,1.181 -3.492,2.34 -5.279,3.454 -5.619,3.5 -11.469,6.659 -17.529,9.439 8.439,1.521 17.13,2.32 26,2.32 80.38,0 145.779,-65.4 145.779,-145.79 C 145.779,65.4 80.38,0 0,0 M -45.83,7.38 C -52.25,5.24 -58.88,3.55 -65.66,2.32 -74.1,0.8 -82.78,0 -91.65,0 c -80.39,0 -145.79,65.4 -145.79,145.78 0,80.39 65.4,145.79 145.79,145.79 8.87,0 17.55,-0.799 25.99,-2.32 6.78,-1.229 13.41,-2.92 19.83,-5.06 6.019,-1.99 11.87,-4.379 17.51,-7.11 48.75,-23.61 82.45,-73.59 82.45,-131.3 0,-57.7 -33.7,-107.679 -82.45,-131.29 -5.64,-2.729 -11.491,-5.12 -17.51,-7.11 M 0,303.57 c -15.93,0 -31.311,-2.37 -45.82,-6.79 -14.51,4.42 -29.901,6.79 -45.83,6.79 -87.01,0 -157.79,-70.78 -157.79,-157.79 0,-87 70.78,-157.78 157.79,-157.78 15.929,0 31.32,2.37 45.83,6.79 C -31.311,-9.63 -15.93,-12 0,-12 87,-12 157.779,58.78 157.779,145.78 157.779,232.79 87,303.57 0,303.57"
       style="fill:#ffffff;fill-opacity:1;fill-rule:nonzero;stroke:none"
       id="path1856" />
  </g>
</svg>
