<?xml version="1.0" encoding="UTF-8" standalone="no"?>
<!-- Created with Inkscape (http://www.inkscape.org/) -->

<svg
   width="197.55556mm"
   height="197.55556mm"
   viewBox="0 0 197.55556 197.55556"
   version="1.1"
   id="svg5"
   sodipodi:docname="light.svg"
   inkscape:version="1.1.2 (0a00cf5339, 2022-02-04)"
   xmlns:inkscape="http://www.inkscape.org/namespaces/inkscape"
   xmlns:sodipodi="http://sodipodi.sourceforge.net/DTD/sodipodi-0.dtd"
   xmlns="http://www.w3.org/2000/svg"
   xmlns:svg="http://www.w3.org/2000/svg">
  <sodipodi:namedview
     id="namedview19"
     pagecolor="#ffffff"
     bordercolor="#666666"
     borderopacity="1.0"
     inkscape:pageshadow="2"
     inkscape:pageopacity="0.0"
     inkscape:pagecheckerboard="0"
     inkscape:document-units="mm"
     showgrid="false"
     inkscape:zoom="1.0473214"
     inkscape:cx="373.81075"
     inkscape:cy="373.81075"
     inkscape:window-width="1850"
     inkscape:window-height="1016"
     inkscape:window-x="0"
     inkscape:window-y="0"
     inkscape:window-maximized="1"
     inkscape:current-layer="svg5" />
  <defs
     id="defs2">
    <clipPath
       clipPathUnits="userSpaceOnUse"
       id="clipPath1104">
      <path
         d="M 0,600 H 600 V 0 H 0 Z"
         id="path1102" />
    </clipPath>
    <clipPath
       clipPathUnits="userSpaceOnUse"
       id="clipPath1286">
      <path
         d="M 0,600 H 600 V 0 H 0 Z"
         id="path1284" />
    </clipPath>
    <clipPath
       clipPathUnits="userSpaceOnUse"
       id="clipPath1470">
      <path
         d="M 0,600 H 600 V 0 H 0 Z"
         id="path1468" />
    </clipPath>
    <clipPath
       clipPathUnits="userSpaceOnUse"
       id="clipPath1656">
      <path
         d="M 0,600 H 600 V 0 H 0 Z"
         id="path1654" />
    </clipPath>
  </defs>
  <path
     d="m 98.77778,194.73333 c -25.630716,0 -49.727202,-9.98114 -67.850807,-28.10475 C 12.803368,148.50498 2.8222266,124.40814 2.8222266,98.777777 2.8222266,73.147413 12.803368,49.050575 30.926973,30.92697 49.050578,12.803365 73.147064,2.8222231 98.77778,2.8222231 c 25.63036,0 49.7272,9.9811419 67.85081,28.1047469 18.1236,18.123605 28.10474,42.220443 28.10474,67.850807 0,25.630363 -9.98114,49.727203 -28.10474,67.850803 -18.12361,18.12361 -42.22045,28.10475 -67.85081,28.10475"
     style="fill:#eca610;fill-opacity:1;fill-rule:nonzero;stroke:none;stroke-width:0.352778"
     id="bg" />
  <g
     id="outline"
     transform="matrix(0.35277777,0,0,-0.35277777,98.77778,1.9e-6)">
    <path
       d="m 0,0 c -37.793,0 -74.464,-7.405 -108.994,-22.011 -33.344,-14.102 -63.286,-34.29 -88.996,-59.999 -25.709,-25.71 -45.897,-55.652 -60,-88.997 -14.605,-34.529 -22.01,-71.2 -22.01,-108.993 0,-37.793 7.405,-74.464 22.01,-108.993 14.103,-33.345 34.291,-63.287 60,-88.997 25.71,-25.709 55.652,-45.896 88.996,-59.999 C -74.464,-552.595 -37.793,-560 0,-560 c 37.792,0 74.463,7.405 108.993,22.011 33.344,14.103 63.287,34.29 88.996,59.999 25.71,25.71 45.897,55.652 60,88.997 14.606,34.529 22.011,71.2 22.011,108.993 0,37.793 -7.405,74.464 -22.011,108.993 -14.103,33.345 -34.29,63.287 -60,88.997 -25.709,25.709 -55.652,45.897 -88.996,59.999 C 74.463,-7.405 37.792,0 0,0 m 0,-16 c 145.803,0 264,-118.196 264,-264 0,-145.803 -118.197,-264 -264,-264 -145.804,0 -264,118.197 -264,264 0,145.804 118.196,264 264,264"
       style="fill:#ffffff;fill-opacity:1;fill-rule:nonzero;stroke:none"
       id="path1664" />
  </g>
  <g
     id="symbol"
     transform="matrix(0.35277777,0,0,-0.35277777,141.35502,111.71516)">
    <path
       d="m 0,0 -9.044,27.255 23.505,9.418 -23.504,9.418 9.042,27.252 61.997,-36.673 z m 8.504,-92.473 -69.776,17.889 12.869,25.65 23.279,-9.961 -9.961,23.28 25.675,12.882 z m -129.142,-53.492 -36.693,61.957 27.222,9.032 9.418,-23.503 9.417,23.503 27.262,-9.045 z m -129.142,53.492 17.848,69.718 25.633,-12.86 -9.96,-23.28 23.279,9.961 12.875,-25.661 z m -53.492,129.143 61.897,36.648 9.034,-27.228 -23.504,-9.417 23.504,-9.417 -9.035,-27.232 z m 53.492,129.142 69.674,-17.875 -12.874,-25.658 -23.279,9.961 9.96,-23.279 -25.634,-12.86 z m 129.142,53.493 36.625,-61.939 -27.26,-9.046 -9.418,23.505 -9.418,-23.505 -27.221,9.033 z m 66.4,-155.106 14.078,32.9 26.922,-15.926 -7.78,-30.284 z m 0,-55.053 33.22,13.311 7.78,-30.287 -26.922,-15.924 z m -38.928,-38.927 32.902,-14.078 -15.909,-26.906 -30.302,7.769 z m -55.052,0 13.31,-33.217 -30.267,-7.766 -15.936,26.909 z m -38.927,38.927 -14.076,-32.895 -26.889,15.92 7.753,30.283 z m 0,55.053 -33.212,-13.307 -7.753,30.281 26.889,15.921 z m 38.927,38.928 -32.893,14.074 15.935,26.906 30.267,-7.764 z m 55.052,0 -13.308,33.213 30.302,7.767 15.908,-26.902 z m 101.67,62.685 -17.913,-69.733 -25.676,12.882 9.961,23.279 -23.279,-9.961 -12.868,25.648 z M 98.306,42.036 5.124,88.788 37.955,187.735 c 0.715,2.155 0.153,4.528 -1.452,6.132 -1.605,1.605 -3.98,2.171 -6.132,1.452 l -98.947,-32.831 -46.752,93.183 c -1.019,2.029 -3.094,3.309 -5.363,3.309 -2.27,0 -4.345,-1.28 -5.364,-3.309 l -46.752,-93.183 -98.947,32.831 c -2.153,0.718 -4.528,0.153 -6.132,-1.452 -1.605,-1.604 -2.167,-3.977 -1.452,-6.132 l 32.83,-98.948 -93.181,-46.751 c -2.03,-1.018 -3.31,-3.094 -3.31,-5.363 0,-2.27 1.28,-4.345 3.31,-5.363 l 93.181,-46.751 -32.83,-98.949 c -0.715,-2.154 -0.153,-4.527 1.452,-6.131 1.605,-1.605 3.978,-2.169 6.132,-1.453 l 98.947,32.831 46.752,-93.182 c 1.019,-2.029 3.094,-3.31 5.364,-3.31 2.269,0 4.344,1.281 5.363,3.31 l 46.751,93.182 98.948,-32.831 c 0.619,-0.206 1.257,-0.305 1.889,-0.305 1.566,0 3.1,0.614 4.243,1.758 1.605,1.604 2.167,3.977 1.452,6.131 L 5.123,-15.442 98.306,31.31 c 2.029,1.018 3.309,3.093 3.309,5.363 0,2.269 -1.28,4.345 -3.309,5.363"
       style="fill:#ffffff;fill-opacity:1;fill-rule:nonzero;stroke:none"
       id="path1668" />
  </g>
</svg>
