<?xml version="1.0" encoding="UTF-8" standalone="no"?>
<!-- Created with Inkscape (http://www.inkscape.org/) -->

<svg
   width="96.690292mm"
   height="96.554626mm"
   viewBox="0 0 96.690293 96.554627"
   version="1.1"
   id="svg1798"
   inkscape:version="1.1.2 (0a00cf5339, 2022-02-04)"
   sodipodi:docname="toa-conquerer.svg"
   xmlns:inkscape="http://www.inkscape.org/namespaces/inkscape"
   xmlns:sodipodi="http://sodipodi.sourceforge.net/DTD/sodipodi-0.dtd"
   xmlns="http://www.w3.org/2000/svg"
   xmlns:svg="http://www.w3.org/2000/svg">
  <sodipodi:namedview
     id="namedview1800"
     pagecolor="#ffffff"
     bordercolor="#666666"
     borderopacity="1.0"
     inkscape:pageshadow="2"
     inkscape:pageopacity="0.0"
     inkscape:pagecheckerboard="0"
     inkscape:document-units="mm"
     showgrid="false"
     fit-margin-top="0"
     fit-margin-left="0"
     fit-margin-right="0"
     fit-margin-bottom="0"
     inkscape:zoom="0.77771465"
     inkscape:cx="162.65606"
     inkscape:cy="498.25473"
     inkscape:window-width="1846"
     inkscape:window-height="1136"
     inkscape:window-x="0"
     inkscape:window-y="0"
     inkscape:window-maximized="1"
     inkscape:current-layer="layer1" />
  <defs
     id="defs1795" />
  <g
     inkscape:label="Layer 1"
     inkscape:groupmode="layer"
     id="layer1"
     transform="translate(-61.867792,-16.542758)">
    <path
       style="fill:#000000;stroke-width:0.264583"
       d="m 107.37613,66.873625 c -2.37173,-0.78606 -4.32126,-1.76563 -5.02708,-2.52596 -1.15444,-1.24358 -0.82477,-3.91105 1.60229,-12.96455 1.77804,-6.63249 6.02831,-19.51112 6.39844,-19.38774 0.92711,0.30904 7.63776,23.03224 8.43949,28.57732 0.46614,3.22396 0.14356,3.87295 -2.53081,5.0917 -3.95826,1.80383 -6.17689,2.10588 -8.88233,1.20923 z"
       id="path1580" />
    <path
       style="fill:#000000;stroke-width:0.264583"
       d="m 116.10738,103.26078 c 0,-0.0744 1.00836,-3.697335 2.24079,-8.050915 l 2.24078,-7.91559 2.75505,-4.06797 2.75505,-4.06798 0.33419,-2.45313 c 0.18381,-1.34922 0.28387,-2.50346 0.22237,-2.56496 -0.0615,-0.0615 -0.92864,0.54316 -1.92696,1.34371 -1.98951,1.59539 -4.18121,2.78307 -7.4916,4.05969 l -2.15755,0.83204 -1.43046,2.30174 c -0.78675,1.26596 -1.85693,2.99923 -2.37818,3.85172 l -0.94772,1.54997 -0.80085,-1.28539 c -0.44047,-0.70696 -1.48842,-2.42495 -2.32877,-3.81775 l -1.52791,-2.53237 -2.82506,-1.12023 c -3.206723,-1.27158 -5.448463,-2.5544 -7.388843,-4.22822 -0.735,-0.63403 -1.39724,-1.09189 -1.47165,-1.01748 -0.0744,0.0744 0.0284,1.25413 0.22847,2.6216 l 0.36376,2.48632 2.72306,4.04713 2.723063,4.04713 2.235,7.81209 c 1.22925,4.29666 2.19433,7.852765 2.14462,7.902485 -0.0497,0.0497 -1.53675,-1.5426 -3.30452,-3.538475 -1.767773,-1.99588 -3.489153,-3.92652 -3.825303,-4.29032 -3.59714,-3.89305 -5.50795,-6.15915 -5.62057,-6.66564 -0.2413,-1.0851 -2.76763,-22.55144 -2.666,-22.65307 0.0541,-0.0541 2.07184,0.90794 4.48391,2.13782 2.41207,1.22989 4.38558,2.15906 4.38558,2.06484 0,-0.0942 -1.13796,-1.09282 -2.52879,-2.21912 -1.85314,-1.50066 -3.23046,-2.3566 -5.15487,-3.20354 -3.34292,-1.47121 -4.9268,-2.40169 -5.31136,-3.12025 -0.19933,-0.37244 -0.25266,-1.35349 -0.15417,-2.83596 l 0.15057,-2.26654 -1.06729,2.17027 -1.0673,2.17028 -1.0985,-0.42967 c -2.510829,-0.98208 -5.065251,-3.37793 -5.882172,-5.517 l -0.445097,-1.16547 1.074817,-1.39233 c 0.591149,-0.76578 1.440201,-1.74203 1.886781,-2.16944 0.44658,-0.42741 0.811964,-0.8852 0.811964,-1.01733 0,-0.26342 -2.022249,0.83947 -3.355785,1.83018 -0.463233,0.34414 -0.894378,0.62571 -0.958101,0.62571 -0.06372,0 -0.190109,-0.56554 -0.28086,-1.25677 -0.232656,-1.77206 0.201751,-4.04317 1.178814,-6.16294 0.831116,-1.80313 0.850718,-1.82194 2.523652,-2.42192 1.89594,-0.67996 2.229587,-1.16083 0.627696,-0.90468 -0.582083,0.0931 -1.058333,0.0692 -1.058333,-0.0531 0,-0.51219 1.7246,-2.76653 3.027124,-3.95696 1.17552,-1.07436 4.70947,-3.23528 5.29095,-3.23528 0.094,0 -0.12132,0.50601 -0.47848,1.12448 -1.81352,3.1403 -2.36684,8.08738 -1.23987,11.08527 0.8103,2.1555 2.31363,3.7294 4.67864,4.89825 1.69865,0.83951 2.3066,0.9972 4.23489,1.09841 1.64451,0.0863 2.72431,-0.01 4.00516,-0.35651 l 1.75364,-0.47469 1.137933,1.29317 c 0.62587,0.71124 1.13793,1.49539 1.13793,1.74254 0,0.24716 -0.23395,1.44105 -0.51988,2.65308 -1.288783,5.46288 -1.253123,7.26689 0.17723,8.96677 1.04998,1.24782 5.46403,3.14679 8.22011,3.53637 1.76443,0.24941 4.46801,-0.31077 7.07063,-1.46504 4.92174,-2.18279 5.32624,-3.40102 3.66417,-11.03537 l -0.70958,-3.25932 1.1923,-1.1923 1.19229,-1.19229 1.53818,0.44716 c 1.10836,0.32221 2.18574,0.4162 3.8556,0.33636 2.01829,-0.0965 2.57481,-0.238 4.3112,-1.09617 3.02843,-1.49673 4.61314,-3.56976 5.19911,-6.80119 0.4959,-2.73472 -0.12076,-6.19448 -1.59196,-8.9317 -0.72828,-1.355 -0.73407,-1.39515 -0.17668,-1.22719 1.15435,0.34785 3.38776,1.77148 4.79076,3.05374 1.33064,1.21614 3.06153,3.47104 3.06153,3.98841 0,0.12229 -0.47625,0.14619 -1.05834,0.0531 -1.59471,-0.255 -1.26909,0.21463 0.64976,0.93714 1.63413,0.6153 1.73738,0.70839 2.49435,2.24896 0.97047,1.9751 1.49332,4.64931 1.23969,6.34067 l -0.18829,1.25562 -0.70869,-0.46932 c -1.83163,-1.21295 -3.59274,-2.19486 -3.71584,-2.07176 -0.0748,0.0748 0.40467,0.69875 1.06543,1.38662 0.66076,0.68787 1.53228,1.69895 1.93671,2.24683 l 0.73533,0.99616 -0.45491,1.19116 c -0.6748,1.76693 -2.72571,3.85475 -4.91852,5.00704 -1.03294,0.5428 -1.91389,0.94605 -1.95766,0.89611 -0.0438,-0.0499 -0.52794,-1.01669 -1.07594,-2.14835 -0.548,-1.13166 -1.04707,-2.00685 -1.10905,-1.94488 -0.062,0.062 0.008,0.98679 0.1565,2.05513 0.39656,2.86168 0.18526,3.1309 -4.13479,5.26818 -2.46378,1.21892 -4.28698,2.35756 -6.14297,3.83646 -1.45164,1.1567 -2.6432,2.20101 -2.64793,2.32069 -0.005,0.11968 1.96447,-0.81437 4.376,-2.07566 2.41152,-1.26129 4.44218,-2.23566 4.51257,-2.16527 0.0704,0.0704 -0.47393,5.08805 -1.20959,11.15035 -0.73567,6.06231 -1.33757,11.18101 -1.33757,11.37489 0,0.19389 -1.57758,2.13196 -3.50573,4.30682 -1.92815,2.17487 -4.84519,5.46971 -6.4823,7.321875 -1.6371,1.85217 -2.97656,3.30669 -2.97656,3.23226 z"
       id="path1578" />
  </g>
</svg>
