<?xml version="1.0" encoding="UTF-8" standalone="no"?>
<!-- Created with Inkscape (http://www.inkscape.org/) -->

<svg
   width="89.293152mm"
   height="68.344368mm"
   viewBox="0 0 89.293152 68.344368"
   version="1.1"
   id="svg5"
   inkscape:version="1.1.2 (0a00cf5339, 2022-02-04)"
   sodipodi:docname="fly.svg"
   xmlns:inkscape="http://www.inkscape.org/namespaces/inkscape"
   xmlns:sodipodi="http://sodipodi.sourceforge.net/DTD/sodipodi-0.dtd"
   xmlns="http://www.w3.org/2000/svg"
   xmlns:svg="http://www.w3.org/2000/svg">
  <sodipodi:namedview
     id="namedview7"
     pagecolor="#ffffff"
     bordercolor="#666666"
     borderopacity="1.0"
     inkscape:pageshadow="2"
     inkscape:pageopacity="0.0"
     inkscape:pagecheckerboard="0"
     inkscape:document-units="mm"
     showgrid="false"
     fit-margin-top="0"
     fit-margin-left="0"
     fit-margin-right="0"
     fit-margin-bottom="0"
     inkscape:zoom="0.69664703"
     inkscape:cx="518.91415"
     inkscape:cy="549.77626"
     inkscape:window-width="1846"
     inkscape:window-height="1043"
     inkscape:window-x="0"
     inkscape:window-y="0"
     inkscape:window-maximized="1"
     inkscape:current-layer="layer1" />
  <defs
     id="defs2">
    <clipPath
       clipPathUnits="userSpaceOnUse"
       id="clipPath934">
      <path
         d="M 0,300 H 300 V 0 H 0 Z"
         id="path932" />
    </clipPath>
  </defs>
  <g
     inkscape:label="Layer 1"
     inkscape:groupmode="layer"
     id="layer1"
     transform="translate(32.113329,-3.0477659)">
    <path
       d="M 30.819735,35.496034 C 35.687706,32.37781 49.534979,22.332066 51.83535,7.6834056 51.908678,7.2163716 51.351223,6.9155806 51.002891,7.2353256 47.699469,10.266855 36.572368,19.413334 20.862237,21.19229 c -0.238954,0.02703 -0.425705,0.217825 -0.443417,0.457712 -0.458956,6.267832 -1.373758,14.941372 -5.537293,26.133107 L 12.568418,46.44757 10.169234,47.832516 C 5.9901621,36.616854 5.0731831,27.927467 4.6132957,21.650002 4.5955841,21.410115 4.4091429,21.219324 4.169877,21.19229 -11.539941,19.413334 -22.667353,10.266855 -25.970775,7.2353256 c -0.348334,-0.319745 -0.905792,-0.01895 -0.832148,0.44808 2.30006,14.6486604 16.147334,24.6944044 21.0153043,27.8126284 0.44373,0.284322 0.205396,0.974153 -0.318814,0.919153 -2.450454,-0.255734 -6.9079453,-1.094098 -12.0605493,-3.808987 -0.390904,-0.205707 -0.836497,0.152881 -0.718419,0.578899 2.544297,9.177552 12.5654943,14.138433 16.297108,15.697699 0.4449715,0.186131 0.3940106,0.832771 -0.074888,0.946188 -1.9287302,0.467346 -5.4114457,1.13356 -8.474047,0.77777 -0.449943,-0.05251 -0.729605,0.460197 -0.447458,0.814124 2.6061333,3.2652 8.6800643,4.970202 13.140974,5.477321 0.02114,0.0025 0.1171459,0.02735 0.2737563,0.07023 l 1.7077986,5.119976 9.0305751,5.213509 9.029952,-5.213509 1.87746,-5.190204 c 4.461219,-0.507119 10.535151,-2.212121 13.140974,-5.477321 0.282146,-0.353927 0.0025,-0.86664 -0.447148,-0.814124 -3.063223,0.35579 -6.545629,-0.310424 -8.474359,-0.77777 -0.468588,-0.113417 -0.519858,-0.760057 -0.07489,-0.946188 3.731924,-1.559266 13.753121,-6.520147 16.297107,-15.697699 0.11808,-0.426018 -0.327204,-0.784606 -0.718107,-0.578899 -5.152604,2.714889 -9.610406,3.553253 -12.060861,3.808987 -0.523898,0.055 -0.762543,-0.634831 -0.318813,-0.919153"
       style="fill:#000000;fill-opacity:1;fill-rule:nonzero;stroke:none;stroke-width:0.310734"
       id="path938" />
  </g>
</svg>
