<svg xmlns="http://www.w3.org/2000/svg" width="865" height="865"><path d="M431 0h2a400 400 0 0 1 176 37l3 1a389 389 0 0 1 124 88l2 2 18 19 2 2c53 63 88 139 101 221v4a391 391 0 0 1 4 72c1 61-14 122-39 178l-1 2c-12 28-29 55-47 79l-1 2-16 20-2 2-7 6c-3-6-5-11-6-18-10-67-10-67-41-127l-2-2c-20-25-58-31-88-38a5893 5893 0 0 1-56-15c-19-5-32-16-42-33-6-11-8-22-5-35l7-13 4-7 1-2a242 242 0 0 0 31-194l-1-2c-9-31-25-58-54-74-31-17-72-20-106-10-17 5-33 12-46 24l-2 2c-28 26-41 74-42 111v17c0 12 0 24 3 36l1 2c8 37 25 71 44 103 3 5 5 8 5 13v3c1 18-9 32-21 45-9 9-21 13-33 16a1905 1905 0 0 0-47 12c-58 13-58 13-101 53l-11 24-1 2c-9 23-13 49-18 73l-1 3-1 7-1 2-2 10c0 4 0 6-2 9l-1 2-1 1-16-17-1-2c-15-18-28-37-39-57l-2-3c-19-33-32-69-42-106l-1-3-8-40v-4a409 409 0 0 1-4-72c-1-61 14-122 39-178l1-2A400 400 0 0 1 160 97a192 192 0 0 1 16-13A438 438 0 0 1 382 2c16-2 33-2 49-2Z"/><path d="M431 445h2a9067 9067 0 0 1 23 150v3l1 15h2a5210 5210 0 0 1 33-6h5l3-1 7 1-3 15-1 2a2742 2742 0 0 1-5 19l-1 7 3 1a321765 321765 0 0 1 83 25l-1 5-6 3-2 1-6 3a2036 2036 0 0 0-58 26l-3 2-6 2-2 1-2 1-4 1 1 2a9416 9416 0 0 1 11 31l1 3a148002340 148002340 0 0 0 2 10h-2v2l-9-3-3-1-2-1-3-1a3787 3787 0 0 1-29-13v2l-7 33a23442 23442 0 0 0-14 55l-1 4-2 9v2l-1 3-1 2-1 5h-2a10800 10800 0 0 1-24-100l-1-3-1-4-1-3v-5l-2 1a8066 8066 0 0 1-30 13l-2 1-3 1-2 1-7 2v-2h-2l4-15 1-3a3531 3531 0 0 1 10-28l-3-1a113 113 0 0 1-12-5l-7-3a12405 12405 0 0 0-29-13l-2-1a85844 85844 0 0 0-11-6l-2-1a1167 1167 0 0 1-14-6l-3-1-4-1-3-5v-2l86-26a515 515 0 0 0-9-34l-1-3 1-7 49 7v-3a311 311 0 0 1 6-42l1-13a22073 22073 0 0 1 15-99l1-3 1-8Z"/></svg>