<svg xmlns="http://www.w3.org/2000/svg" width="915" height="915"><path d="m483 19 2 2 2 1a147 147 0 0 1 32 40l2 3a246 246 0 0 1 14 38c4 11 3 24 3 36a5040 5040 0 0 0 0 69v2c-1 8-3 14-6 21l-5 11c-7 18-20 34-33 48l-7 6c-5 6-10 10-17 15-4 2-7 5-10 9-1 7 1 13 4 20l5 18 2 8c4 2 8 2 12 2h69c6 1 11 2 16 5l13 4a82 82 0 0 1 31 13l8 4 3 2a153 153 0 0 1 65 76c1 7 3 13 6 20s3 13 3 20v3a1838 1838 0 0 1 0 14c0 12-1 23-6 35l-5 13c-4 12-11 24-18 35l-4 7c-4 8-9 15-16 20l-3 4c-9 10-21 18-32 25l-2 1c-12 8-24 15-37 21-3 2-3 3-4 6v10c1 6 2 12 5 17 2 6 2 11 2 17v2a1556 1556 0 0 1 0 11c1 11 0 21-5 32-3 8-3 15-4 23-1 11-3 19-8 28l-5 10c-5 13-12 23-22 32l-2 2a133 133 0 0 1-23 18c-23 16-58 14-85 9a70 70 0 0 1-25-13c-19-14-32-35-39-58v-22a598 598 0 0 0-1-15v-3c0-7 3-12 6-18l2-4 1-2 2-4c3-7 8-12 13-18l3-2c5-5 8-8 15-10l3-1a1362 1362 0 0 1 10-4c9-4 17-3 26 1a252 252 0 0 1 11 4c13 6 23 18 29 31l1 3 5 10c3 6 3 13 1 19l-6 13-3 8-6 12c-3 5-4 7-3 12 6 3 14 2 20 0 14-5 23-15 30-27l2-3 10-24 5-12c2-5 2-10 3-16v-2a560 560 0 0 0 0-39v-3c0-7 0-7-3-13l-18 1h-6c-12 1-22 2-33 7-5 2-10 2-15 2h-11a3066 3066 0 0 1-19 0h-14c-7 0-13-1-20-4l-14-4h-8c-13-1-23-4-34-9l-10-4-17-8-3-1a193 193 0 0 1-89-99l-1-2c-3-7-5-15-6-23 0-7-1-13-6-19-4-6-2-13-2-20v-7c0-14 2-26 6-40l2-11c2-9 4-16 8-24l4-9c6-15 15-27 25-38l2-2a240 240 0 0 1 50-45 220 220 0 0 1 31-23l17-9c14-7 14-7 23-19l-2-14-2-5-1-2-5-15-1-3a5770 5770 0 0 1-4-12l-1-3-1-3-2-9-4-10c-5-9-6-20-7-29-1-8-3-14-6-21l-2-13v-10a2896 2896 0 0 1 0-27c0-10 2-18 5-27l5-15c2-10 5-18 11-26l2-3c10-14 20-26 35-35l5-3c20-12 63-8 81 7Zm-54 70-5 7-1 2c-6 10-6 19-6 31a7587868152 7587868152 0 0 0 0 22c-1 25-1 25 5 49 3 6 4 10 4 17 1 13 5 25 12 36l6 2c7-2 12-9 15-15l5-9 1-2c10-19 5-48 5-69v-5a89 89 0 0 0-9-42l-3-8c-4-9-9-16-18-20-5 0-7 1-11 4Zm-68 297-14 11c-5 4-9 8-12 14l-5 6a121 121 0 0 0-27 40c-6 10-7 22-9 34l-1 10c-3 13 0 25 2 38l2 9c2 20 13 37 26 51l2 2 12 9 11 7 12 6 3 1c7 4 14 6 22 8l14 5c10 3 21 2 31 2h3a4781 4781 0 0 0 63-1l2-1c5-1 9-2 13-5 2-4 2-5 2-9-2-4-4-7-9-9l-9 1a237 237 0 0 1-44 1h-2c-9 0-16-2-24-6l-15-6c-7-2-12-6-17-11l-3-2c-12-12-20-29-27-44l-2-3a43 43 0 0 1-2-15c-2-14-1-28-1-42v-3c0-13 4-23 10-34l3-6a62 62 0 0 1 11-15 732 732 0 0 1 28-29l4-6c0-5-1-7-3-11l-2-9c-2-6-4-10-9-14-13-2-30 18-39 26Zm135 43c0 12 1 23 8 33l3 11c1 7 4 13 6 20a231 231 0 0 1 11 30c2 3 3 7 3 11l5 13 5 17c1 7 3 12 7 19l3 13c2 10 2 10 8 17 4 2 5 2 10 1l3-2 3-1c8-5 14-11 21-18l3-3 13-14 2-2 11-18 1-3c9-17 10-41 5-60-4-9-9-18-15-26l-2-3c-3-4-7-7-12-9l-2-2a141 141 0 0 0-23-13 19198 19198 0 0 0-7-4c-15-8-30-9-46-9a759 759 0 0 1-14 0c-4 0-7 0-10 2Zm-86 46c-3 5-4 11-6 17l-3 9c-2 9 2 18 4 26l2 11c2 8 6 13 11 19l2 2c5 7 12 10 19 14l2 1c10 6 22 5 33 5h3c7 1 7 1 13-3 2-10-4-21-8-30l-6-12a236 236 0 0 0-10-23 258 258 0 0 0-8-19l-6-16-5-10c-3-8-3-8-9-15-13-3-23 14-28 24Z"/><path d="m601 121 7 4 10 4c5 1 8 3 12 7l8 3 11 7 16 11c12 7 22 16 32 26l10 8c8 6 16 13 21 22l8 8a264 264 0 0 1 49 72l11 23 8 16c3 5 3 9 4 14 1 7 2 12 5 18 3 7 4 14 5 22 1 10 2 19 5 28a99 99 0 0 1 4 35 2092 2092 0 0 1 0 31c0 10-1 20-4 29-4 9-4 18-5 28-1 9-2 17-6 26l-5 14c-1 6-4 12-7 18l-3 10-6 12-3 9c-2 6-5 10-8 15l-5 7-20 30-2 3a216 216 0 0 1-35 40 1525 1525 0 0 0-28 27c-3 4-7 6-12 9l-11 7-2 1-9 7c-5 4-10 6-15 8l-8 6c-5 2-10 4-15 3-3-3-5-4-5-8l1-13 2-9c2-13 2-13 7-18a153 153 0 0 1 17-11l2-1c5-4 10-7 14-12l8-6a166 166 0 0 0 29-25c6-7 12-13 16-20l6-8c6-7 12-14 16-23l4-6c7-9 12-19 16-29l4-8c3-5 4-10 5-15l4-8c3-4 3-9 4-14 1-7 2-13 6-19 5-11 4-26 4-38l3-27c1-7 0-15-1-22l-1-24c-1-21-1-21-6-41l-5-18c-1-6-3-11-6-16l-4-11c-2-7-5-12-8-18l-3-8-6-11-5-7-11-17-10-14a163 163 0 0 0-28-34l-10-8-7-7a201 201 0 0 0-33-24c-12-10-27-19-42-24-6-3-11-7-14-13-2-5-3-10-3-16v-2c0-6 0-9 3-14 5-5 13-4 20-1ZM293 139c6 6 7 13 7 20v2c0 6-1 10-4 15-8 8-17 14-26 20-19 12-34 27-49 42l-3 2-15 18-2 3a568 568 0 0 0-37 57l-1 2-7 19c-1 4-2 7-5 11-3 5-4 12-5 18-1 5-2 9-5 14-2 6-3 12-3 19-1 10-2 20-5 30-2 10-2 20-2 30l-1 3c0 11 1 21 4 31 2 11 4 21 4 32 1 7 2 12 5 19l5 18 6 15 5 10 6 13 3 9 7 12 5 8c2 5 5 9 9 14l10 14 14 17 5 6c6 8 14 15 22 21l7 6a165 165 0 0 0 22 17 267 267 0 0 0 40 25c7 3 14 7 17 13 2 6 2 13-1 19s-6 11-12 13c-7 1-13-1-19-4l-3-1-5-3-7-4c-10-4-18-9-27-16l-7-5c-10-6-18-14-26-21l-11-10a211 211 0 0 1-33-34l-7-8c-5-4-8-9-11-14l-9-15a301 301 0 0 1-36-68l-4-16-5-13c-4-7-4-13-5-21-1-11-4-21-7-31a56 56 0 0 1-2-19v-10a6138 6138 0 0 1 0-47c-1-12 1-22 4-33l5-25a72 72 0 0 1 7-26l1-3 3-10 8-20 5-10c4-12 10-23 17-34l4-7a160 160 0 0 1 23-33l5-6 2-3 22-23 1-1 23-21 3-3 3-2 6-5 2-2a846 846 0 0 0 21-15l10-7c9-6 18-12 29-8Z"/></svg>