<?xml version="1.0" encoding="UTF-8" standalone="no"?>
<!-- Created with Inkscape (http://www.inkscape.org/) -->

<svg
   version="1.1"
   id="svg2"
   width="865"
   height="865"
   viewBox="0 0 865 865"
   sodipodi:docname="prism-mode.svg"
   inkscape:version="1.1.2 (0a00cf5339, 2022-02-04)"
   xmlns:inkscape="http://www.inkscape.org/namespaces/inkscape"
   xmlns:sodipodi="http://sodipodi.sourceforge.net/DTD/sodipodi-0.dtd"
   xmlns="http://www.w3.org/2000/svg"
   xmlns:svg="http://www.w3.org/2000/svg">
  <defs
     id="defs6" />
  <sodipodi:namedview
     id="namedview4"
     pagecolor="#ffffff"
     bordercolor="#666666"
     borderopacity="1.0"
     inkscape:pageshadow="2"
     inkscape:pageopacity="0.0"
     inkscape:pagecheckerboard="0"
     showgrid="false"
     inkscape:zoom="0.46506165"
     inkscape:cx="-18.277147"
     inkscape:cy="512.83523"
     inkscape:window-width="1846"
     inkscape:window-height="1016"
     inkscape:window-x="0"
     inkscape:window-y="0"
     inkscape:window-maximized="1"
     inkscape:current-layer="g8"
     lock-margins="true"
     fit-margin-top="100"
     fit-margin-left="100"
     fit-margin-right="100"
     fit-margin-bottom="100" />
  <g
     inkscape:groupmode="layer"
     inkscape:label="Image"
     id="g8"
     transform="translate(99.821711,99.936712)">
    <path
       style="fill:#000000;stroke-width:0.32"
       d="m 320.48,663.46671 c -23.707,-0.93056 -45.91843,-4.00448 -67.84,-9.38854 C 180.19444,636.28511 115.82983,594.44076 69.705599,535.14991 30.982263,485.37263 7.3859288,425.74758 1.4672715,362.71999 0.42569916,351.62831 0.17828864,345.70115 0.17828864,331.83999 0.17828864,307.62184 1.9700575,289.25735 6.5630751,266.4 20.857647,195.26243 57.61237,131.61499 112.48,82.985714 147.83673,51.648982 190.98486,27.626146 236.32,14.037476 280.85512,0.68859996 327.76144,-3.1498265 374.23999,2.7512403 460.8287,13.744821 539.88127,58.995535 593.97439,128.53007 c 38.44669,49.42166 62.00915,108.60366 68.08368,171.0061 1.20083,12.33611 1.44582,17.86062 1.43965,32.46382 -0.007,16.95053 -0.60224,26.73293 -2.5696,42.24 -10.98138,86.55831 -56.25379,165.64915 -125.77821,219.7344 -50.8743,39.57674 -111.97078,63.32298 -176.42992,68.57267 -11.76483,0.95815 -27.57363,1.33834 -38.23999,0.91965 z m 101.00607,-74.03622 c 36.71802,-3.65107 67.73581,-28.92375 78.53722,-63.9905 l 1.03497,-3.36 16.11085,-0.18086 c 15.51616,-0.17418 16.19927,-0.20749 18.50567,-0.90186 8.2686,-2.48937 14.61977,-9.09245 16.50272,-17.15728 0.81952,-3.50998 0.52182,-9.77293 -0.62362,-13.12 -1.14138,-3.33517 -3.16605,-6.55264 -5.6872,-9.03766 -2.45302,-2.41789 -3.80653,-3.36019 -6.78938,-4.72672 -4.3599,-1.99741 -5.20358,-2.07562 -22.39078,-2.07562 h -15.50717 l -1.17952,-3.76 c -3.34246,-10.65478 -9.09833,-21.4792 -16.0376,-30.16 -3.04685,-3.81155 -10.55744,-11.27622 -14.36416,-14.27644 -22.50864,-17.73975 -51.36006,-24.0346 -79.01987,-17.24064 -31.03261,7.6224 -56.03872,31.28518 -65.5166,61.99702 l -1.0616,3.43993 -96.25683,7e-5 c -106.70698,6e-5 -98.23787,-0.17037 -103.14048,2.07568 -2.98286,1.36653 -4.33637,2.30883 -6.78939,4.72672 -2.52115,2.48502 -4.54583,5.70249 -5.68718,9.03766 -1.14544,3.34707 -1.44314,9.61002 -0.62364,13.12 1.88103,8.05661 8.16352,14.59603 16.50274,17.1777 l 2.39478,0.74134 96.8,0.0881 96.8,0.0881 1.48969,4.56826 c 3.41555,10.47408 8.8823,20.6104 15.82186,29.33654 3.02387,3.80237 10.85248,11.49722 14.87971,14.62544 9.97648,7.74944 21.8568,13.55885 33.94896,16.60083 3.98531,1.00256 10.30467,2.10148 14.17977,2.4658 2.88919,0.27164 14.07869,0.2054 17.16608,-0.10157 z m -16.04608,-47.1824 c -16.40838,-2.77786 -29.98582,-14.46205 -35.14934,-30.2481 -1.59888,-4.88809 -2.10208,-8.18208 -2.10208,-13.76 0,-9.21635 2.40166,-17.05881 7.64371,-24.96 2.03072,-3.06089 8.59434,-9.63744 11.59994,-11.62278 11.19385,-7.39424 23.83296,-9.63322 36.21648,-6.41571 16.97641,4.41085 29.78902,18.43398 32.85046,35.9542 0.61927,3.544 0.61629,10.34541 -0.006,14.21396 -2.99417,18.60707 -17.93939,33.62092 -36.62934,36.79763 -3.60048,0.61197 -10.92727,0.6327 -14.42362,0.0408 z M 253.57017,422.40243 c 25.52151,-3.85696 48.45825,-18.42826 62.71609,-39.84244 4.64858,-6.98182 7.94209,-13.76425 10.68308,-22 l 1.78387,-5.36 H 430.7254 c 100.4217,0 102.0097,-0.01 104.43811,-0.63065 7.79581,-1.99386 13.80131,-7.5512 16.43581,-15.20935 0.8129,-2.36304 0.88067,-2.94163 0.88067,-7.52 0,-4.3694 -0.0901,-5.22671 -0.75645,-7.19999 -2.67161,-7.91137 -8.63334,-13.50203 -16.56003,-15.52934 C 532.7351,308.48959 531.1471,308.48 430.7254,308.48 H 328.75321 l -1.78387,-5.36 c -3.4841,-10.46855 -8.59343,-19.97263 -15.18172,-28.24 -2.76054,-3.4641 -9.06967,-9.95524 -12.58762,-12.95077 -10.33243,-8.79802 -23.02203,-15.34164 -36.35419,-18.74669 -8.29978,-2.11977 -12.78714,-2.65707 -22.36581,-2.67798 -5.05312,-0.011 -9.51367,0.14218 -11.36,0.3902 -27.36653,3.67618 -50.47685,18.0093 -65.47519,40.608 -4.58221,6.90424 -9.17572,16.69203 -11.20456,23.87454 l -0.8659,3.06546 -11.06717,0.0989 -11.06718,0.0989 -2.56,0.89816 c -7.05985,2.47691 -12.22246,7.5887 -14.7781,14.63265 -0.80241,2.21162 -0.8679,2.76778 -0.88425,7.50855 -0.0157,4.56262 0.0646,5.36387 0.73763,7.35999 2.07715,6.16032 6.49787,11.27274 12.03101,13.91348 4.27372,2.03964 5.86565,2.24652 17.28682,2.24652 h 10.29073 l 0.87115,3.08407 c 4.82594,17.0848 16.79069,34.48768 31.56501,45.91171 13.02424,10.07078 29.25808,16.72928 45.12,18.50653 1.672,0.18733 3.544,0.39917 4.16,0.47072 3.12229,0.36269 16.03664,-0.12778 20.29017,-0.77059 z M 235.04,376.12483 c -2.71659,-0.4 -7.56938,-1.55146 -9.57401,-2.27172 -14.945,-5.36976 -25.66299,-17.72326 -29.04123,-33.47283 -0.55912,-2.60662 -0.69933,-4.31888 -0.69933,-8.54028 0,-5.91037 0.58816,-9.50317 2.39341,-14.6203 5.20272,-14.74749 17.41018,-25.47519 32.94715,-28.95334 2.82377,-0.63214 4.21551,-0.74567 9.09401,-0.74182 6.14888,0.005 8.68098,0.37245 13.58317,1.97192 15.65997,5.10949 27.44673,18.78871 30.24879,35.10546 0.63049,3.67145 0.63049,10.8047 0,14.47615 -2.73574,15.93053 -13.95656,29.29408 -29.11196,34.6712 -5.04029,1.78829 -7.80311,2.27629 -13.6,2.40221 -2.904,0.0631 -5.712,0.0511 -6.24,-0.0266 z M 419.74255,256.62242 c 18.47005,-1.52171 35.36077,-8.17361 49.85552,-19.63408 3.8497,-3.04382 11.36666,-10.50895 14.36739,-14.26834 6.95031,-8.70749 12.69348,-19.51016 16.03437,-30.16 l 1.17952,-3.76 h 15.50717 c 17.65126,0 18.09904,-0.0474 23.09584,-2.44501 5.33622,-2.56047 9.80326,-7.6436 11.77152,-13.39499 1.14544,-3.34708 1.44314,-9.61002 0.62362,-13.12 -1.88295,-8.06484 -8.23412,-14.66792 -16.50272,-17.15729 -2.3064,-0.69437 -2.98951,-0.72766 -18.50567,-0.90185 L 501.05826,141.6 l -1.03532,-3.36 c -4.37165,-14.18769 -12.0849,-26.93788 -22.745,-37.59796 -14.85903,-14.859056 -33.5015,-23.831356 -54.55795,-26.257827 -6.26876,-0.722387 -17.78307,-0.500934 -24,0.461587 -15.35708,2.377636 -30.18944,8.78394 -42.52873,18.368762 -4.04151,3.139334 -11.87178,10.839528 -14.87248,14.625438 -7.54077,9.51403 -13.76835,21.4259 -16.68573,31.91591 l -0.5551,1.9959 -96.83897,0.0846 -96.83898,0.0846 -2.39478,0.74137 c -8.33922,2.58163 -14.62171,9.12107 -16.50274,17.17768 -0.8195,3.50998 -0.5218,9.77292 0.62364,13.12 1.14135,3.33515 3.16603,6.55262 5.68718,9.03766 2.45302,2.41789 3.80653,3.3602 6.78939,4.72673 4.90261,2.24604 -3.5665,2.0756 103.14048,2.07567 l 96.25683,7e-5 1.0616,3.43993 c 9.88707,32.03781 36.3982,56.10056 69.17839,62.78963 2.552,0.52076 6.224,1.09694 8.16,1.2804 1.936,0.18345 4.024,0.38169 4.64,0.44052 2.60704,0.24898 8.89482,0.18552 12.70256,-0.12819 z m -12.63737,-47.07788 c -7.47267,-0.93736 -15.13805,-4.08615 -21.38183,-8.78327 -2.9886,-2.24828 -7.87584,-7.37799 -9.88336,-10.37369 -7.24272,-10.80787 -9.49708,-23.43759 -6.39936,-35.85163 4.27786,-17.14343 18.65594,-30.26455 36.30295,-33.1293 3.68413,-0.59807 10.39753,-0.56667 14.12003,0.066 18.69814,3.1781 33.63386,18.18244 36.62934,36.79765 0.6225,3.86854 0.62548,10.66994 0.006,14.21396 -1.13344,6.48656 -3.39238,12.12403 -7.04505,17.58187 -9.32797,13.93791 -25.86835,21.54565 -42.34893,19.47837 z"
       id="path827" />
  </g>
</svg>
