<?xml version="1.0" encoding="UTF-8"?>
<svg version="1.1" xmlns="http://www.w3.org/2000/svg" width="69" height="70">
<path d="M0 0 C7.19713915 6.53836211 10.70843292 14.86887505 11.5546875 24.3984375 C11.91551188 34.54161167 8.67380644 42.44760482 2.375 50.375 C-5.30144731 57.94139071 -13.87934875 61.375 -24.625 61.375 C-34.34551164 60.43240493 -42.98529959 56.6366864 -49.625 49.375 C-56.35379533 40.29499343 -58.50635118 31.37143372 -57.41796875 20.26171875 C-55.99886404 11.48198301 -51.00483032 3.96568265 -44.1875 -1.625 C-30.40604114 -11.40539016 -13.22541341 -10.17781814 0 0 Z M-28.625 -6.625 C-28.480625 -5.944375 -28.33625 -5.26375 -28.1875 -4.5625 C-28.001875 -3.593125 -27.81625 -2.62375 -27.625 -1.625 C-27.3775 -0.47 -27.13 0.685 -26.875 1.875 C-26.5839059 5.95031738 -27.44174226 7.05644823 -29.625 10.375 C-29.87696129 13.08453551 -29.87696129 13.08453551 -29.625 15.375 C-30.285 15.375 -30.945 15.375 -31.625 15.375 C-31.625 16.035 -31.625 16.695 -31.625 17.375 C-32.82125 17.21 -34.0175 17.045 -35.25 16.875 C-37.90115232 16.52431848 -40.11928553 16.40407562 -42.8125 16.5625 C-46.4870109 16.31753261 -47.99444526 14.85081623 -50.625 12.375 C-51.285 12.705 -51.945 13.035 -52.625 13.375 C-49.44960444 16.80078949 -49.44960444 16.80078949 -45.625 19.375 C-42.79635939 19.36626963 -39.98193939 19.24359992 -37.15625 19.1171875 C-35.90328125 19.24480469 -35.90328125 19.24480469 -34.625 19.375 C-33.965 20.365 -33.305 21.355 -32.625 22.375 C-33.31464844 22.26800781 -34.00429688 22.16101563 -34.71484375 22.05078125 C-41.4843468 21.1871821 -46.36508234 21.63918413 -52.625 24.375 C-52.295 25.035 -51.965 25.695 -51.625 26.375 C-50.8515625 26.19582031 -50.078125 26.01664063 -49.28125 25.83203125 C-42.20282508 24.38656081 -38.14099661 24.2376683 -31.625 27.375 C-30.965 27.375 -30.305 27.375 -29.625 27.375 C-30.16125 28.220625 -30.6975 29.06625 -31.25 29.9375 C-33.00635603 34.32839008 -32.05156292 35.94514672 -30.625 40.375 C-30.44715634 43.38392249 -30.50212186 46.36448552 -30.625 49.375 C-29.14 48.88 -29.14 48.88 -27.625 48.375 C-26.40630071 45.87052484 -26.40630071 45.87052484 -25.625 43.375 C-22.2747537 47.18734923 -20.45525211 50.70785711 -18.625 55.375 C-17.15773202 51.56010326 -18.19163581 49.08488378 -19.625 45.375 C-18.625 45.375 -18.625 45.375 -16.375 47.375 C-13.385114 49.54946254 -12.21092507 49.78482001 -8.625 49.375 C-8.13 48.385 -8.13 48.385 -7.625 47.375 C-11.585 41.93 -11.585 41.93 -15.625 36.375 C-13.04560485 38.88274529 -10.6485894 41.34467077 -8.4375 44.1875 C-7.839375 44.909375 -7.24125 45.63125 -6.625 46.375 C-5.965 46.375 -5.305 46.375 -4.625 46.375 C-3.21586174 40.73844696 -3.88543964 37.93346884 -6.71484375 32.87890625 C-7.01519531 32.38261719 -7.31554688 31.88632812 -7.625 31.375 C-7.17769531 31.79652344 -6.73039062 32.21804687 -6.26953125 32.65234375 C-1.64100234 36.9127979 -1.64100234 36.9127979 4.375 38.375 C3.67375 37.67375 2.9725 36.9725 2.25 36.25 C-0.70833333 33.29166667 -3.66666667 30.33333333 -6.625 27.375 C-4.315 27.045 -2.005 26.715 0.375 26.375 C-2.08980586 24.73179609 -4.54212802 23.25460352 -7.125 21.8125 C-7.8984375 21.37808594 -8.671875 20.94367187 -9.46875 20.49609375 C-11.70835703 19.25995948 -11.70835703 19.25995948 -14.625 18.375 C-17.2819191 19.25414688 -17.2819191 19.25414688 -19.625 20.375 C-20.05842428 11.80283091 -20.05364933 5.8037021 -15.625 -1.625 C-16.12 -2.615 -16.12 -2.615 -16.625 -3.625 C-21.00004865 2.78371041 -23.3731287 7.56698969 -23.625 15.375 C-24.945 15.045 -26.265 14.715 -27.625 14.375 C-27.191875 13.50488281 -27.191875 13.50488281 -26.75 12.6171875 C-23.67061151 6.28291694 -23.67061151 6.28291694 -23.625 -0.625 C-25.43878992 -3.97252558 -25.43878992 -3.97252558 -27.625 -6.625 C-27.955 -6.625 -28.285 -6.625 -28.625 -6.625 Z " fill="#000000" transform="translate(57.625,8.625)"/>
<path d="M0 0 C4.875 1.75 4.875 1.75 6 4 C3.03 3.505 3.03 3.505 0 3 C0 2.01 0 1.02 0 0 Z " fill="#000000" transform="translate(44,31)"/>
<path d="M0 0 C0.66 0 1.32 0 2 0 C2.33 0.99 2.66 1.98 3 3 C2.34 3.99 1.68 4.98 1 6 C0.67 4.02 0.34 2.04 0 0 Z " fill="#000000" transform="translate(29,43)"/>
<path d="" fill="#000000" transform="translate(0,0)"/>
<path d="" fill="#000000" transform="translate(0,0)"/>
</svg>
