<?xml version="1.0" encoding="UTF-8" standalone="no"?>
<!-- Created with Inkscape (http://www.inkscape.org/) -->

<svg
   version="1.1"
   id="svg2"
   width="545"
   height="589"
   viewBox="0 0 545 589"
   sodipodi:docname="normal.svg"
   inkscape:version="1.1.2 (0a00cf5339, 2022-02-04)"
   xmlns:inkscape="http://www.inkscape.org/namespaces/inkscape"
   xmlns:sodipodi="http://sodipodi.sourceforge.net/DTD/sodipodi-0.dtd"
   xmlns="http://www.w3.org/2000/svg"
   xmlns:svg="http://www.w3.org/2000/svg">
  <defs
     id="defs6" />
  <sodipodi:namedview
     id="namedview4"
     pagecolor="#ffffff"
     bordercolor="#666666"
     borderopacity="1.0"
     inkscape:pageshadow="2"
     inkscape:pageopacity="0.0"
     inkscape:pagecheckerboard="0"
     showgrid="false"
     inkscape:zoom="1.4821732"
     inkscape:cx="272.2354"
     inkscape:cy="294.5"
     inkscape:window-width="1846"
     inkscape:window-height="1136"
     inkscape:window-x="0"
     inkscape:window-y="0"
     inkscape:window-maximized="1"
     inkscape:current-layer="g8" />
  <g
     inkscape:groupmode="layer"
     inkscape:label="Image"
     id="g8">
    <path
       style="fill:#000000"
       d="m 270.31837,588.21792 c -1.84878,-1.17571 -34.85424,-76.01538 -33.9311,-76.93853 0.28746,-0.28745 4.03042,-0.0424 8.31769,0.54464 18.18094,2.48931 40.83321,2.3292 60.5228,-0.42779 l 4.72776,-0.66199 -4.80611,10.88287 c -30.64634,69.39505 -29.68654,67.40374 -32.47084,67.36757 -0.64821,-0.008 -1.71031,-0.35347 -2.3602,-0.76677 z M 135.57143,529.42857 C 134.70714,528.56429 134,527.53736 134,527.14652 c 0,-2.18916 6.16396,-56.64381 6.44339,-56.92324 0.18449,-0.18449 5.10494,2.80802 10.93433,6.65004 5.82938,3.84202 16.16518,9.80316 22.96842,13.24698 l 12.36954,6.2615 -23.60784,17.27677 c -12.98431,9.50223 -24.1382,17.29132 -24.78641,17.3091 -0.64822,0.0178 -1.88572,-0.67481 -2.75,-1.5391 z m 246.28134,-15.55012 c -12.84402,-9.41685 -23.46717,-17.21875 -23.607,-17.33756 -0.13983,-0.11881 5.26017,-2.92968 12,-6.24638 6.73983,-3.3167 17.14149,-9.26503 23.11481,-13.21852 5.97333,-3.95348 10.97423,-7.05042 11.11312,-6.88207 0.13889,0.16834 1.45467,11.55608 2.92396,25.30608 1.46929,13.75 2.91008,26.62617 3.20176,28.6137 0.54957,3.74487 -1.30623,6.8863 -4.06808,6.8863 -0.72919,0 -11.83455,-7.7047 -24.67857,-17.12155 z M 259,477.41019 C 229.44533,473.90622 211.52603,468.82933 189.40504,457.69258 138.38257,432.00546 101.40525,381.72754 91.815177,325 88.841484,307.40991 88.835056,281.37629 91.800116,264 103.08495,197.86693 148.52244,143.87711 212,121.17587 c 38.49241,-13.76589 84.25779,-13.38962 123.5,1.01537 62.50499,22.94428 107.49577,77.51741 118.14556,143.30876 2.43535,15.04488 2.43271,42.98381 -0.005,58 -8.58508,52.87337 -40.13573,99.75543 -85.86281,127.58612 -27.71324,16.86701 -57.26151,25.44327 -90.77727,26.34772 -7.975,0.21522 -16.075,0.20457 -18,-0.0236 z M 18.571429,442.42857 C 17.707143,441.56429 17,440.17426 17,439.33962 17,438.0682 32.006205,417.08684 60.992687,377.82999 l 5.663384,-7.67001 1.29247,3.67001 c 5.002886,14.20586 18.383719,37.99023 29.772234,52.92001 3.461225,4.5375 5.944585,8.25 5.518575,8.25 -0.42601,0 -19.134051,2.025 -41.57342,4.5 -22.439369,2.475 -40.961803,4.5 -41.160963,4.5 -0.19916,0 -1.069253,-0.70714 -1.933538,-1.57143 z M 482.5,439.43191 c -20.9,-2.37576 -38.8294,-4.34484 -39.84312,-4.37574 -1.5045,-0.0459 -1.1028,-0.94039 2.18645,-4.86904 10.03155,-11.98159 24.30107,-36.4256 31.19463,-53.43713 1.28154,-3.1625 2.58476,-5.74693 2.89605,-5.74317 0.3113,0.004 1.56303,1.47154 2.78163,3.26174 1.21861,1.7902 12.121,16.74963 24.22753,33.24317 12.10654,16.49354 22.022,30.74362 22.03436,31.66683 0.032,2.38718 -2.73871,4.8432 -5.29896,4.69717 C 521.48036,443.8074 503.4,441.80768 482.5,439.43191 Z M 32.961639,311.39778 C 2.6341502,297.95595 0.99931895,297.1618 0.39071271,295.5758 -0.59684418,293.00227 1.7968953,290.53467 7.6895901,288.05173 10.885316,286.70518 22.874471,281.45589 34.332158,276.38665 l 20.832158,-9.2168 -0.542407,4.66507 c -1.35895,11.68793 -1.611951,24.66201 -0.704551,36.12993 0.542456,6.85566 0.878201,12.57292 0.746102,12.70502 -0.1321,0.1321 -9.897919,-4.04034 -21.701821,-9.27209 z m 457.393471,7.3235 c 1.22783,-4.8921 1.75016,-29.7572 0.8344,-39.72128 -0.53076,-5.775 -0.83856,-10.63946 -0.68401,-10.80992 0.15456,-0.17046 10.11654,4.02656 22.13775,9.32671 35.72323,15.75035 32.53894,14.04974 32.17547,17.18369 -0.2979,2.56868 -2.04983,3.51541 -26.81872,14.4927 -14.575,6.45948 -26.88628,11.75853 -27.35841,11.77566 -0.47212,0.0171 -0.60104,-0.99426 -0.28648,-2.24756 z M 41.707349,184.53024 C 28.118307,165.99806 17,150.02751 17,149.04013 c 0,-4.59042 0.927602,-4.59393 42.296313,-0.1602 21.562028,2.31093 40.43835,4.44346 41.947387,4.73895 l 2.74369,0.53726 -3.91162,4.67193 c -9.911561,11.83808 -23.339122,35.18474 -32.227583,56.03448 l -1.43349,3.36255 z m 433.330831,25.23787 c -6.54277,-16.05207 -17.44645,-34.80926 -28.27453,-48.63964 -2.8606,-3.65376 -4.55398,-6.6396 -3.96994,-7 0.56015,-0.34566 19.26886,-2.61007 41.5749,-5.03202 42.9127,-4.65939 43.63139,-4.65865 43.63139,0.0453 0,1.6007 -43.0291,61.84286 -47.94625,67.12633 -1.54831,1.66365 -1.84461,1.27967 -5.01557,-6.5 z M 137.64532,91.752016 c -1.56342,-14.988609 -3.04621,-28.016497 -3.2951,-28.950864 -0.24889,-0.934366 0.50176,-2.653133 1.66811,-3.819482 2.5831,-2.583099 -0.0336,-4.129085 29.29499,17.30762 l 21.81333,15.943657 -12.46132,6.241965 c -6.85372,3.433078 -17.11972,9.342848 -22.81332,13.132808 -5.69361,3.78997 -10.57973,7.00458 -10.85806,7.14358 -0.27832,0.139 -1.78521,-12.01068 -3.34863,-26.999284 z M 394,111.90973 c -5.775,-3.83467 -16.01287,-9.75415 -22.75083,-13.154386 -9.76403,-4.927311 -11.99693,-6.433506 -11,-7.420017 C 363.84039,87.781622 405.7051,58 407.10941,58 c 4.21472,0 4.30448,1.810184 1.42662,28.77242 -1.51035,14.15017 -3.03632,27.1635 -3.39106,28.91852 L 404.5,118.88187 Z M 239.8924,67.330153 c 2.64039,-5.956584 10.32017,-23.321731 17.06617,-38.589214 10.57652,-23.936672 12.60593,-27.84451614 14.73808,-28.3796506 1.52651,-0.38313019 2.96818,-0.0926872 3.76774,0.7590614 1.14951,1.2245425 8.35551,17.2534702 28.41712,63.2107192 l 6.03765,13.831068 -3.70958,-0.594771 c -20.30473,-3.255533 -47.11086,-3.255897 -67.41374,-9.15e-4 l -3.70416,0.593856 z"
       id="path845" />
  </g>
</svg>
