<?xml version="1.0" encoding="UTF-8" standalone="no"?>
<!-- Created with Inkscape (http://www.inkscape.org/) -->

<svg
   width="9.7663279mm"
   height="12.407162mm"
   viewBox="0 0 9.7663279 12.407162"
   version="1.1"
   id="svg21270"
   inkscape:version="1.1.2 (0a00cf5339, 2022-02-04)"
   sodipodi:docname="rebuild.svg"
   xmlns:inkscape="http://www.inkscape.org/namespaces/inkscape"
   xmlns:sodipodi="http://sodipodi.sourceforge.net/DTD/sodipodi-0.dtd"
   xmlns="http://www.w3.org/2000/svg"
   xmlns:svg="http://www.w3.org/2000/svg">
  <sodipodi:namedview
     id="namedview21272"
     pagecolor="#ffffff"
     bordercolor="#666666"
     borderopacity="1.0"
     inkscape:pageshadow="2"
     inkscape:pageopacity="0.0"
     inkscape:pagecheckerboard="0"
     inkscape:document-units="mm"
     showgrid="false"
     fit-margin-top="0"
     fit-margin-left="0"
     fit-margin-right="0"
     fit-margin-bottom="0"
     inkscape:zoom="11.146352"
     inkscape:cx="23.998882"
     inkscape:cy="17.180508"
     inkscape:window-width="1846"
     inkscape:window-height="1016"
     inkscape:window-x="0"
     inkscape:window-y="0"
     inkscape:window-maximized="1"
     inkscape:current-layer="layer1" />
  <defs
     id="defs21267" />
  <g
     inkscape:label="Layer 1"
     inkscape:groupmode="layer"
     id="layer1"
     transform="translate(-100.13026,-142.10652)">
    <g
       style="fill:#000000;fill-opacity:1"
       id="g11560"
       transform="matrix(0.35277778,0,0,0.35277778,-10.225755,-51.042831)">
      <g
         id="use11558"
         transform="translate(313.58099,575.89801)"
         style="fill:#000000">
        <path
           style="stroke:none;fill:#000000"
           d="m 22.53125,-17.359375 c -0.359375,2.203125 -2.265625,2.53125 -3.15625,1.8125 C 18.4375,-16.3125 18.90625,-18 19.265625,-19.15625 c 0.3125,-0.96875 1.03125,-3.421875 -1.65625,-5.109375 0.53125,1.046875 -1.765625,2.453125 -3.140625,1.765625 -1.765625,-0.90625 -2.984375,-2.875 -2.015625,-5.578125 -2.59375,1.21875 -3.203125,3.703125 -3.125,5.21875 0.140625,2.265625 2.15625,4 0.78125,5.1875 C 9.75,-17.390625 8.390625,-17.09375 7.53125,-18.6875 7.0625,-19.578125 5.328125,-20.625 3.59375,-19.796875 6.015625,-17.75 5.25,-14.578125 3.53125,-11.953125 1.90625,-9.546875 1.625,-7.0625 1.84375,-5.40625 2.09375,-3.75 2.5625,-2.765625 3.75,-1.375 4.53125,-0.390625 5.1875,0 5.828125,0 c 0.6875,-1.15625 5.015625,-7.734375 16.203125,-2.234375 0,-0.03125 1.265625,-0.9375 0.21875,-5.1875 -0.390625,-1.65625 0.828125,-2.296875 1.40625,-3.734375 1.6875,-4.328125 -1.125,-6.203125 -1.125,-6.203125 z M 22.5,2.203125 c -0.546875,0 -1.078125,0 -1.625,0 0.109375,-0.265625 0.15625,-0.515625 0,-0.734375 -0.21875,-0.3125 -0.71875,-0.28125 -1.1875,-0.25 -0.609375,0 -1.25,0.046875 -1.875,0.078125 -0.0625,0 -0.359375,-0.25 -0.5625,-0.328125 C 16.375,0.6875 15.4375,0.5 14.515625,0.4375 c 0.53125,-0.546875 0.828125,-1.234375 0.25,-1.453125 -0.71875,-0.28125 -2.8125,-0.25 -2.953125,-0.203125 C 10.984375,-1.1875 9.25,0.75 10.296875,1.046875 10.46875,1.109375 10.65625,1.15625 10.875,1.1875 10.65625,1.40625 10.515625,1.625 10.375,1.875 9.859375,1.90625 9.359375,1.90625 8.859375,1.90625 c -0.828125,0 -2.453125,2.125 -1.4375,2.203125 L 10.65625,4.28125 c -0.5,0.5 -0.90625,1.125 -0.46875,1.40625 0.859375,0.546875 1.796875,0.75 2.984375,0.71875 C 13.640625,6.375 14.25,5.875 14.578125,5.515625 c 1.265625,0.09375 2.78125,0.0625 4,-0.65625 0.21875,-0.109375 0.390625,-0.25 0.53125,-0.390625 0.65625,0 1.296875,0 1.953125,0 1,0 2.875,-2.3125 1.4375,-2.265625 z m 0,0"
           id="path21068" />
      </g>
    </g>
  </g>
</svg>
