<?xml version="1.0" encoding="UTF-8" standalone="no"?>
<!-- Created with Inkscape (http://www.inkscape.org/) -->

<svg
   width="87.530258mm"
   height="71.786369mm"
   viewBox="0 0 87.530258 71.786369"
   version="1.1"
   id="svg5"
   inkscape:version="1.1.2 (0a00cf5339, 2022-02-04)"
   sodipodi:docname="return.svg"
   xmlns:inkscape="http://www.inkscape.org/namespaces/inkscape"
   xmlns:sodipodi="http://sodipodi.sourceforge.net/DTD/sodipodi-0.dtd"
   xmlns="http://www.w3.org/2000/svg"
   xmlns:svg="http://www.w3.org/2000/svg">
  <sodipodi:namedview
     id="namedview7"
     pagecolor="#ffffff"
     bordercolor="#666666"
     borderopacity="1.0"
     inkscape:pageshadow="2"
     inkscape:pageopacity="0.0"
     inkscape:pagecheckerboard="0"
     inkscape:document-units="mm"
     showgrid="false"
     fit-margin-top="0"
     fit-margin-left="0"
     fit-margin-right="0"
     fit-margin-bottom="0"
     inkscape:zoom="0.69664703"
     inkscape:cx="160.05236"
     inkscape:cy="320.82244"
     inkscape:window-width="1850"
     inkscape:window-height="1016"
     inkscape:window-x="0"
     inkscape:window-y="0"
     inkscape:window-maximized="1"
     inkscape:current-layer="layer1" />
  <defs
     id="defs2">
    <clipPath
       clipPathUnits="userSpaceOnUse"
       id="clipPath854">
      <path
         d="M 0,0 H 300 V 300 H 0 Z"
         id="path852" />
    </clipPath>
    <clipPath
       clipPathUnits="userSpaceOnUse"
       id="clipPath1120">
      <path
         d="M 0,0 H 299 V 300 H 0 Z"
         id="path1118" />
    </clipPath>
  </defs>
  <g
     inkscape:label="Layer 1"
     inkscape:groupmode="layer"
     id="layer1"
     transform="translate(-62.633956,-63.602827)">
    <g
       id="g1122"
       transform="matrix(0.35277777,0,0,-0.35277777,144.63769,104.3947)"
       style="fill:#000000">
      <path
         d="m 0,0 c -0.267,0 -0.537,0.029 -0.808,0.095 l -7.866,1.882 c -1.861,0.446 -3.01,2.315 -2.565,4.176 0.446,1.862 2.305,3.017 4.177,2.566 L 0.804,6.837 C 2.665,6.39 3.813,4.521 3.369,2.66 2.987,1.069 1.568,0 0,0"
         style="fill:#000000;fill-opacity:1;fill-rule:nonzero;stroke:none"
         id="path1124" />
    </g>
    <g
       id="g1126"
       transform="matrix(0.35277777,0,0,-0.35277777,136.48312,102.44444)"
       style="fill:#000000">
      <path
         d="m 0,0 c -0.266,0 -0.537,0.029 -0.808,0.095 l -15.249,3.646 c -1.861,0.445 -3.009,2.315 -2.565,4.176 0.446,1.862 2.308,3.018 4.177,2.566 L 0.804,6.837 C 2.665,6.392 3.813,4.521 3.369,2.66 2.987,1.069 1.568,0 0,0 m -1.013,-26.784 c -1.18,0 -2.331,0.602 -2.978,1.692 -0.982,1.643 -0.443,3.771 1.202,4.75 l 13.467,8.026 c 1.638,0.979 3.77,0.447 4.75,-1.203 0.981,-1.642 0.442,-3.77 -1.203,-4.75 L 0.759,-26.295 c -0.556,-0.331 -1.167,-0.489 -1.772,-0.489 m -184.914,-11.685 c -1.18,0 -2.331,0.603 -2.979,1.693 -0.981,1.643 -0.442,3.77 1.203,4.75 l 13.466,8.026 c 1.641,0.978 3.771,0.447 4.75,-1.202 0.982,-1.644 0.443,-3.772 -1.202,-4.75 l -13.467,-8.027 c -0.555,-0.333 -1.167,-0.49 -1.771,-0.49 m 157.979,-4.373 c -1.18,0 -2.331,0.603 -2.979,1.691 -0.981,1.645 -0.442,3.772 1.2,4.752 l 13.467,8.028 c 1.648,0.979 3.773,0.445 4.752,-1.2 0.982,-1.645 0.443,-3.773 -1.2,-4.752 l -13.467,-8.029 c -0.557,-0.332 -1.169,-0.49 -1.773,-0.49 m -160.807,-10.523 c -0.266,0 -0.537,0.029 -0.807,0.094 l -7.584,1.815 c -6.183,1.477 -6.851,4.993 -6.851,6.435 0,1.214 0.426,3.005 2.459,4.641 1.492,1.201 3.669,0.964 4.874,-0.527 0.851,-1.059 0.98,-2.465 0.45,-3.62 0.196,-0.063 0.422,-0.126 0.679,-0.187 l 7.584,-1.814 c 1.861,-0.448 3.01,-2.316 2.565,-4.177 -0.381,-1.591 -1.801,-2.66 -3.369,-2.66 m 133.869,-5.531 c -1.18,0 -2.331,0.602 -2.978,1.692 -0.982,1.642 -0.443,3.77 1.202,4.75 l 13.469,8.028 c 1.64,0.98 3.771,0.447 4.75,-1.202 0.981,-1.643 0.442,-3.77 -1.203,-4.75 l -13.468,-8.028 c -0.556,-0.332 -1.167,-0.49 -1.772,-0.49 m -103.373,-1.762 c -0.266,0 -0.537,0.029 -0.807,0.095 l -15.249,3.646 c -1.862,0.444 -3.011,2.315 -2.566,4.177 0.444,1.861 2.31,3.018 4.176,2.565 l 15.249,-3.646 c 1.862,-0.445 3.011,-2.316 2.566,-4.177 -0.381,-1.591 -1.8,-2.66 -3.369,-2.66 m 30.499,-7.295 c -0.267,0 -0.537,0.029 -0.808,0.095 l -15.249,3.648 c -1.862,0.446 -3.011,2.314 -2.566,4.177 0.447,1.859 2.308,3.021 4.177,2.565 l 15.249,-3.648 c 1.861,-0.447 3.01,-2.316 2.565,-4.177 -0.381,-1.591 -1.8,-2.66 -3.368,-2.66 m 45.889,-6.905 c -1.349,0 -2.633,0.792 -3.192,2.112 -0.748,1.763 0.074,3.798 1.836,4.544 0.314,0.134 0.607,0.278 0.869,0.433 l 12.23,7.287 c 1.638,0.979 3.771,0.447 4.75,-1.203 0.982,-1.643 0.44,-3.77 -1.203,-4.75 l -12.241,-7.295 c -0.522,-0.309 -1.085,-0.593 -1.699,-0.853 -0.441,-0.188 -0.899,-0.275 -1.35,-0.275 m -15.391,-0.388 c -0.266,0 -0.537,0.029 -0.808,0.095 l -15.249,3.646 c -1.862,0.444 -3.01,2.315 -2.566,4.177 0.447,1.861 2.313,3.015 4.177,2.565 l 15.249,-3.646 c 1.862,-0.445 3.01,-2.316 2.566,-4.177 -0.381,-1.591 -1.801,-2.66 -3.369,-2.66"
         style="fill:#000000;fill-opacity:1;fill-rule:nonzero;stroke:none"
         id="path1128" />
    </g>
    <g
       id="g1130"
       transform="matrix(0.35277777,0,0,-0.35277777,145.64053,106.20752)"
       style="fill:#000000">
      <path
         d="m 0,0 c -1.058,0 -2.103,0.483 -2.781,1.397 -0.823,1.104 -0.89,2.537 -0.289,3.68 -0.174,0.052 -0.367,0.105 -0.58,0.156 -1.862,0.445 -3.01,2.315 -2.566,4.177 0.446,1.861 2.306,3.019 4.177,2.566 C 3.114,10.743 4.396,8.057 4.703,6.564 4.913,5.542 5.075,2.925 2.067,0.687 1.447,0.224 0.721,0 0,0"
         style="fill:#000000;fill-opacity:1;fill-rule:nonzero;stroke:none"
         id="path1132" />
    </g>
    <g
       id="g1134"
       transform="matrix(0.35277777,0,0,-0.35277777,109.74091,107.37677)"
       style="fill:#000000">
      <path
         d="m 0,0 c -3.689,-2.2 -9.063,-3.416 -14.301,-3.416 -2.354,0 -4.68,0.246 -6.815,0.756 l -101.512,24.279 c -0.724,0.173 -1.385,0.378 -2.019,0.596 V -1.82 c 0,0 0.148,-1.857 2.73,-2.566 2.582,-0.709 102.952,-24.714 102.952,-24.714 0,0 7.701,-2.285 15.467,2.344 7.766,4.629 103.452,61.641 104.704,62.411 0.837,0.514 1.928,1.164 1.928,2.776 v 23.042 z"
         style="fill:#000000;fill-opacity:1;fill-rule:nonzero;stroke:none"
         id="path1136" />
    </g>
    <g
       id="g1138"
       transform="matrix(0.35277777,0,0,-0.35277777,144.6573,80.343127)"
       style="fill:#000000">
      <path
         d="m 0,0 -101.513,24.278 c -4.543,1.086 -10.913,0.369 -14.233,-1.608 l -105.938,-63.147 c -3.319,-1.978 -2.313,-4.46 2.23,-5.545 l 101.513,-24.28 c 4.544,-1.086 10.915,-0.369 14.234,1.61 L 2.229,-5.547 C 5.55,-3.567 4.544,-1.087 0,0"
         style="fill:#000000;fill-opacity:1;fill-rule:nonzero;stroke:none"
         id="path1140" />
    </g>
  </g>
</svg>
