<svg xmlns="http://www.w3.org/2000/svg" width="360" height="360"><path d="M180 59c3.4 1.6 4.8 2.7 6.7 6l1.5 2.4a5746533941.8 5746533941.8 0 0 1 5.1 8.5l1.8 3 9.3 15 15.5 25 1.8 2.9 1.7 2.7 1.4 2.4c1.2 2.1 1.2 2.1 2.2 5.1 4.4-3.3 8.7-6.7 12.8-10.4l2-1.7 4-3.6 1.8-1.7 1.7-1.5c1.7-1.1 1.7-1.1 5.7-1.1a1891 1891 0 0 1 19 34 1695 1695 0 0 0 26 46.4l1.7 3.1 3.5 6.3 8.8 15.7a501830.2 501830.2 0 0 1 5.3 9.4l7 12.5a41535.6 41535.6 0 0 0 30.5 54c3.2 5.4 3.2 5.4 3.2 7.6H0c2.2-5.5 4.7-10.7 7.4-16l1.6-3.2c4-8 8.3-15.9 12.6-23.8a533 533 0 0 0 10.8-20.7c5.4-11 11.1-21.7 16.9-32.4 8.3-15.5 16.5-31 24.4-46.7l1.2-2.4 2.2-4.3c1.9-3.6 3.8-7 5.9-10.5 7.5 3.2 13 10.9 18.2 17 1.6 1.8 3.1 3.2 5 4.6l2.8 2.4c16.2-23.9 32.2-47.8 48-71.9 7.5-11.4 15.2-22.8 23-34.1Zm0 11c-1.4 1.6-1.4 1.6-2.7 3.7l-1.7 2.5-1.8 2.7-1.9 2.8a3252 3252 0 0 0-23.7 35.5l-10.9 16.3c-14.3 21.6-28.8 43-43.3 64.5a64.1 64.1 0 0 1-7.3-40.4c.3-2.8 0-4.9-.7-7.6-3.1 2.7-4.6 5.8-6.4 9.4l-1 2-3.2 6.1a5057 5057 0 0 1-38.3 73.9A8120.9 8120.9 0 0 0 9 296h229c-1.5-4.4-3-8.3-4.9-12.4l-.8-1.8a1622 1622 0 0 0-4.3-9.3c-2.4-5.2-4.8-10.3-7.7-15.1-3-5.2-4-10.6-5-16.3a3163.2 3163.2 0 0 0-1.8-8.9c-.4-2.2-.4-2.2-1.5-4.2a51.6 51.6 0 0 0-13.8 7.5L196 237c-2.8-2.8-1.3-11-1.3-14.8 0-7.3 1-13 3.2-20 2.8-9.6 3.1-20.2 4.1-30.2a132 132 0 0 0-20.5 4l-3.4 1-8.1 2c.6-5.8 2.2-10.7 4.3-16.1l.8-2.3 1-2.4.8-2.5 2.4-5.7c3.4-8 4.4-14.6 4-23.3v-3.8l-.2-10.5-.3-10.5L182 70h-2Zm64.3 56.8c-4 3.4-8.1 6.9-12.3 10.2.6 4.2 2 7 4.3 10.6l2 3.2a7921341983 7921341983 0 0 0 4.2 6.6c4 6.4 4 6.4 8.5 12.6l3-9 9 4c-.9-3.6-2.2-6.2-4-9.4a44.8 44.8 0 0 1-5-26.7c0-3.5 0-5-2-7.9-2.5 0-5.8 4-7.8 5.8Z"/></svg>