<?xml version="1.0" encoding="UTF-8"?>
<svg version="1.1" xmlns="http://www.w3.org/2000/svg" width="58" height="67">
<path d="M0 0 C3 1.5 3 1.5 6 3 C6 3.66 6 4.32 6 5 C6.56976562 5.26296875 7.13953125 5.5259375 7.7265625 5.796875 C10.15404764 7.08152349 12.18676577 8.59202048 14.375 10.25 C22.42579747 15.96308443 31.52347615 19.43519748 41 22 C40.60442996 28.19726403 38.52510982 32.88255086 35 38 C31.66755192 39.66622404 28.42677906 37.73754963 25.0625 36.625 C24.33353516 36.39039063 23.60457031 36.15578125 22.85351562 35.9140625 C19.89654888 34.9600274 16.9476032 33.9825344 14 33 C16.71965299 36.5532631 20.59059113 37.42132182 24.6875 38.6875 C25.38939453 38.91244141 26.09128906 39.13738281 26.81445312 39.36914062 C28.54036743 39.92096357 30.26985433 40.46159058 32 41 C30.59155282 44.21524305 28.89655214 46.32183868 26.375 48.75 C25.74335937 49.36359375 25.11171875 49.9771875 24.4609375 50.609375 C23.73777344 51.29773437 23.73777344 51.29773437 23 52 C7.90750932 47.65803864 -3.5453627 40.94174309 -15 30 C-13.68 25.71 -12.36 21.42 -11 17 C-9 18 -7 19 -5 20 C-6.32 17.69 -7.64 15.38 -9 13 C-8.06398754 11.58235006 -7.1261208 10.16592432 -6.1875 8.75 C-5.40439453 7.56664062 -5.40439453 7.56664062 -4.60546875 6.359375 C-3.12865878 4.18907519 -1.59310127 2.08586232 0 0 Z M2 7 C-2.0449982 12.89895571 -1.27748976 19.07303328 -1 26 C-5.95 26.495 -5.95 26.495 -11 27 C-11 27.99 -11 28.98 -11 30 C-4.59784929 31.7494618 -4.59784929 31.7494618 2 32 C2.20625 32.66 2.4125 33.32 2.625 34 C4.48917829 38.06729809 6.86400944 41.78898574 10 45 C12.10192799 45.77464163 12.10192799 45.77464163 14 46 C13.71601983 39.32646591 10.92194468 35.28922815 7 30 C8.093125 29.9175 9.18625 29.835 10.3125 29.75 C15.74746757 29.06819403 21.11511304 27.48966119 26 25 C26.495 23.515 26.495 23.515 27 22 C21.49884663 20.55095802 17.8084205 21.64389743 12.625 23.4375 C8.850625 24.7059375 8.850625 24.7059375 5 26 C4.505 16.595 4.505 16.595 4 7 C3.34 7 2.68 7 2 7 Z " fill="#000000" transform="translate(15,9)"/>
<path d="M0 0 C11.92346447 0.39744882 20.58595118 6.07588952 29.234375 13.94921875 C31 16 31 16 31 19 C18.68720373 16.94786729 8.40795203 11.30083189 0 2 C0 1.34 0 0.68 0 0 Z " fill="#000000" transform="translate(27,0)"/>
<path d="M0 0 C1.46067199 0.45082469 2.91848032 0.91093537 4.375 1.375 C5.18710937 1.63023438 5.99921875 1.88546875 6.8359375 2.1484375 C9 3 9 3 11 5 C8.8125 7.5625 8.8125 7.5625 6 10 C2.56336468 9.91617963 -0.02139604 8.65477998 -3 7 C-1.125 1.125 -1.125 1.125 0 0 Z " fill="#000000" transform="translate(17,56)"/>
<path d="M0 0 C3.5786304 1.65167557 6.74820188 3.78286492 10 6 C9.01 8.31 8.02 10.62 7 13 C0.66438356 10.7739726 0.66438356 10.7739726 -1 8 C-0.9398132 5.23687884 -0.49362014 2.73734805 0 0 Z " fill="#000000" transform="translate(5,48)"/>
<path d="M0 0 C1.4589426 0.47730838 2.91713496 0.95691042 4.375 1.4375 C5.18710937 1.70433594 5.99921875 1.97117187 6.8359375 2.24609375 C9 3 9 3 11 4 C10.67 5.98 10.34 7.96 10 10 C5.22423661 9.5317879 1.95523655 8.75668002 -2 6 C-1.49396008 3.83125748 -1.00016187 2.00032373 0 0 Z " fill="#000000" transform="translate(40,16)"/>
<path d="M0 0 C3.5786304 1.65167557 6.74820188 3.78286492 10 6 C9.01 7.98 8.02 9.96 7 12 C3.59244728 10.07119658 0.25852365 8.1723491 -3 6 C-2.42655063 3.13275314 -2.1385485 2.1385485 0 0 Z " fill="#000000" transform="translate(28,8)"/>
<path d="M0 0 C0.66 1.32 1.32 2.64 2 4 C0.68 5.32 -0.64 6.64 -2 8 C-3.32 7.34 -4.64 6.68 -6 6 C-5.6875 4.125 -5.6875 4.125 -5 2 C-2 0 -2 0 0 0 Z " fill="#000000" transform="translate(25,2)"/>
<path d="M0 0 C1.32 0 2.64 0 4 0 C4 2.31 4 4.62 4 7 C1.50907189 8.24546405 0.58919267 7.7767578 -2 7 C-1.34 4.69 -0.68 2.38 0 0 Z " fill="#000000" transform="translate(54,21)"/>
<path d="M0 0 C-1 3 -1 3 -4 5 C-6.1875 4.625 -6.1875 4.625 -8 4 C-4.5 0 -4.5 0 0 0 Z " fill="#000000" transform="translate(34,62)"/>
<path d="M0 0 C1.485 0.99 1.485 0.99 3 2 C2.67 4.64 2.34 7.28 2 10 C1.34 9.67 0.68 9.34 0 9 C0 6.03 0 3.06 0 0 Z " fill="#000000" transform="translate(0,43)"/>
</svg>
