<svg xmlns="http://www.w3.org/2000/svg" width="166" height="166"><path d="M136.68 19.16c16.5 14.23 27.83 34.1 29.49 56.07 1.2 24.34-5.53 45.46-21.54 64.02-11.7 12.49-25.35 20.1-41.63 24.75l-2.5.75c-19.79 4.96-42.3.32-59.76-9.6C21.1 142.53 8.36 125.32 2 103l-.75-2.5c-4.96-19.79-.32-42.3 9.6-59.76C23.47 21.1 40.68 8.36 63 2l2.5-.75C90.43-5 117.23 3.49 136.69 19.16ZM95 26c-1.16 2.32-1.03 3.68-1.06 6.25-.41 4.04-1.42 5.8-4.56 8.38-2.73 2.03-4.06 2.38-7.5 2.3-6.1-1.46-11.57-4.2-17.23-6.87-3.72-1.68-6.82-3-10.91-3.32-4.26 1.96-6.33 5.24-8.99 9.01l-3.42 4.66-1.7 2.35a371.03 371.03 0 0 1-7.13 9.37l-2.4 3.13c-1.27 1.65-2.55 3.3-3.86 4.92-2.73 3.47-2.73 3.47-3.05 7.76L24 76l3.69.31 2.07.18c3.37-.74 5.03-3.02 7.24-5.49l3.52-3.7 3.85-4.11 1.93-2.04c3.84-4.1 7.54-8.28 11.08-12.65C59 47 59 47 62.68 46.62 68.49 48.02 73.82 51.17 79 54a265.79 265.79 0 0 1-5.96 24.52C69.92 90 71.06 97.64 75.05 108.8c.7 1.96 1.37 3.93 2.04 5.9 2.02 5.78 3.8 10.64 7.91 15.31l3-1c.2-6.1-.74-11.57-2.02-17.5-1.97-10.02.61-18.02 4.08-27.44l2.23-6.15c.32-.9.65-1.8 1-2.71.81-2.13.81-2.13.71-4.2 6.06 2.39 11.5 5.51 17.06 8.88l2.65 1.56c2.46 1.48 4.88 3 7.29 4.56l1.96 1.27c1.67 1.2 1.67 1.2 4.04 3.73.4 3.13.4 3.13-.06 6.56l-.43 3.71L126 105c-.25 2.23-.48 4.46-.69 6.69l-.32 2.88c-.21 2.7-.21 2.7 2.01 5.43 4.73.86 9.8.41 14-2 3.36-5.04 2.37-10.9 2.38-16.81l.07-3.86.01-3.72.03-3.4c-.8-5.23-3.2-8.17-7.26-11.43l-3.18-2.06-1.72-1.13A422.38 422.38 0 0 1 102 56c.35-4.2.91-7.06 3.06-10.69 2.77-5.14 2.64-10.6 1.94-16.31-.93-2.28-.93-2.28-2-4-5.08-.11-5.08-.11-10 1ZM31 99c-1.34 4.5-.54 8.05.69 12.44l.49 1.94c2.23 8.25 6.13 12.41 13.26 16.56l1.98 1.24c3.04 1.8 4.98 2.87 8.55 2.57L58 133l1-3a39.93 39.93 0 0 0-8.63-7.25c-4.36-3.03-5.15-6.77-6.37-11.75a413.9 413.9 0 0 0-1.5-5.44l-.66-2.5c-.76-2.41-.76-2.41-3.84-4.06a97.81 97.81 0 0 0-7 0Z"/></svg>