<?xml version="1.0" encoding="UTF-8"?>
<svg version="1.1" xmlns="http://www.w3.org/2000/svg" width="152" height="134">
<path d="M0 0 C4.0055333 3.56121089 5.81721837 6.28312881 7.25 11.4375 C7.56453125 12.52933594 7.8790625 13.62117187 8.203125 14.74609375 C8.9505677 17.79815144 9.4834175 20.900505 10 24 C11.32 18.72 12.64 13.44 14 8 C15.07528341 10.15056681 16.14547188 12.30390661 17.18359375 14.47265625 C17.59738281 15.32730469 18.01117188 16.18195312 18.4375 17.0625 C18.84871094 17.91972656 19.25992188 18.77695312 19.68359375 19.66015625 C20.92640708 21.86919241 22.2129759 23.24423579 24 25 C24 25.66 24 26.32 24 27 C26.63904371 28.41377341 29.07120629 29.37240135 32 30 C31.835 28.88625 31.67 27.7725 31.5 26.625 C29.88620227 13.04019519 29.88620227 13.04019519 33 8.375 C33.66 7.59125 34.32 6.8075 35 6 C35.99 6.495 35.99 6.495 37 7 C36.9175 7.99 36.835 8.98 36.75 10 C36.79508506 15.59054777 39.02895525 19.81093901 42.73046875 23.921875 C48.64035254 29.44248501 55.06068086 32.58176786 63 34 C62.96519531 33.04480469 62.93039063 32.08960938 62.89453125 31.10546875 C62.66005765 19.90656296 63.79838643 10.62319347 70 1 C70.33 1 70.66 1 71 1 C71.08636719 2.11117188 71.17273438 3.22234375 71.26171875 4.3671875 C72.14717786 17.05059614 72.14717786 17.05059614 78 28 C80.48130375 28.94556639 80.48130375 28.94556639 83 29 C86.9914501 26.18250581 88.30246439 22.41359259 90 18 C92.51433482 20.51433482 93.12053578 22.77818191 94.3125 26.125 C97.20268074 34.09912623 97.20268074 34.09912623 102 41 C103.99001679 41.85741001 103.99001679 41.85741001 106 42 C108.48615558 40.15840327 109.00156904 38.99529289 110 36 C110.66 36 111.32 36 112 36 C114.35584341 40.56444661 114.62058738 44.97234282 114 50 C113.505 50.94875 113.01 51.8975 112.5 52.875 C109.51062706 59.10286029 110.71228329 66.01966177 112 72.625 C114.13141454 83.56008328 112.95824792 93.20442392 107.234375 103.03125 C95.33857692 120.07877166 77.18263228 128.33733676 57.41015625 132.8125 C32.46162324 137.00455222 4.24594271 133.5071415 -17 119 C-24.57674976 113.01238128 -30.76185535 106.818315 -35 98 C-35.33644531 97.36964844 -35.67289063 96.73929687 -36.01953125 96.08984375 C-39.70619553 88.16099043 -39.10103021 78.30856071 -36.375 70.1875 C-34.92643844 66.66369421 -33.19396078 63.66968303 -31 60.5625 C-22.811456 48.94138453 -21.92714902 33.76084339 -21 20 C-15.59881629 26.20135908 -11.87111214 33.00524812 -10 41 C-1.88557189 27.89611771 -0.52246559 15.04340573 0 0 Z M-16 62 C-22.32013729 69.73671979 -26.64218015 77.46428192 -26.30078125 87.65234375 C-25.39484854 94.85882914 -25.39484854 94.85882914 -22 101 C-16.85267126 101.46793898 -15.75839731 100.85503839 -11 98 C-10.67 102.29 -10.34 106.58 -10 111 C-3.36527029 110.58973737 -3.36527029 110.58973737 2 107 C2.66 106.01 3.32 105.02 4 104 C3.88140625 105.04800781 3.7628125 106.09601563 3.640625 107.17578125 C3.50931059 108.55458261 3.37916296 109.93349544 3.25 111.3125 C3.16878906 112.00279297 3.08757813 112.69308594 3.00390625 113.40429688 C2.76021614 115.68213554 2.76021614 115.68213554 3 119 C4.69032809 121.10408087 4.69032809 121.10408087 7 122 C9.60265575 121.8477341 9.60265575 121.8477341 12 120 C14.63107856 116.56559494 16.63165458 113.10503626 18 109 C18.07476562 109.85722656 18.14953125 110.71445313 18.2265625 111.59765625 C19.22487112 120.62014981 19.22487112 120.62014981 24.16015625 127.94921875 C27.14814034 129.65573196 29.52530097 129.3889924 32.82421875 128.70703125 C37.6781996 127.12970534 40.69551293 124.86040651 43.25 120.5 C43.8275 119.345 44.405 118.19 45 117 C45.66666667 115.66666667 46.33333333 114.33333333 47 113 C47.45439453 114.03060547 47.45439453 114.03060547 47.91796875 115.08203125 C50.46159835 120.61466384 50.46159835 120.61466384 54.375 125.1875 C58.19615324 126.37023791 60.16688806 126.2556746 64 125 C67.67256687 122.12169858 70.46642624 119.04589228 71.66015625 114.46875 C71.90483117 112.29079857 72.03548684 110.19004474 72 108 C75.24299151 110.38957269 77.50902342 112.2047869 79 116 C79.66 116 80.32 116 81 116 C82.88989379 111.12929813 83.4014447 106.77608662 83.625 101.625 C83.66367188 100.88894531 83.70234375 100.15289062 83.7421875 99.39453125 C83.83557998 97.59672594 83.9188371 95.79839892 84 94 C84.66 94 85.32 94 86 94 C86.103125 95.2375 86.20625 96.475 86.3125 97.75 C86.73801682 101.2792866 87.48112592 103.37160966 90 106 C92.3852733 106.12815365 92.3852733 106.12815365 95 105 C99.85832568 97.64310683 101.84875401 88.62813828 100.5 79.875 C97.57532117 68.26942733 89.71473544 60.2484372 80 53.875 C51.67081491 37.09215326 8.4134651 38.12905635 -16 62 Z " fill="#000000" transform="translate(38,0)"/>
</svg>
