<svg xmlns="http://www.w3.org/2000/svg" width="148" height="149"><path d="M86 28h1l.44 3.31c.44 3.62.44 3.62 1.56 6.69v3h3l-1 6c3.37-2.72 4.44-6.07 6-10h1l.18 2.7.26 3.55.24 3.52c.31 3.7.31 3.7 1.32 7.23l3 1 2-1 .31 2.31c.78 3.04 1.3 3.74 3.69 5.69 1.95.92 3.93 1.77 5.94 2.56 5.89 2.35 5.89 2.35 8.08 3.55 2.59 1.16 4.91 1.31 7.73 1.52l2.98.22L136 70c-3 2-3 2-5 2.94-2.04.95-2.04.95-3.44 2.56C126 77 126 77 123.67 77.59c-4.04 2.14-5.14 5.48-6.98 9.53l-1.09 2.29c-.88 1.86-1.74 3.72-2.6 5.59h-1l-1-7-6 11-3-3c-4.8 2.57-6.1 7.19-8 12l-2-4h-6l-1 2c-2 .04-4 .04-6 0l-1-1-.99 1.86-1.32 2.45-1.3 2.43A18.93 18.93 0 0 1 70 117c-2-.31-2-.31-4-1h-3l-2 4c-1.1-3.29-.8-4.71 0-8h-2v-6l-2 1-1-6a19.36 19.36 0 0 0-4.06 7.19C51 111 51 111 49 112l.07-2.89.05-3.8.08-3.76c-.2-3.4-.54-5.6-2.2-8.55l-3-1v2h-2v-5h-2l-1-4-3 1c-2.78-.96-2.78-.96-5.94-2.38C23.7 80.44 23.7 80.44 17 81c-2 .04-4 .04-6 0v-2l3.25-1.25a15.25 15.25 0 0 0 5.81-3.81c2.42-2.42 4.68-3.05 7.94-3.94l.19-2.38C29.3 62.66 31.6 58.48 34 54l2 1-1 6h2l1-4h2l.38-2.88C41 51 41 51 43 49l1 3c4.85-3.54 7.89-7 9-13l2 1v3h6l1-2c2.7-.57 5.24-1 8-1 1.6-2.25 1.6-2.25 3.13-5l1.63-2.81L76 30l8 1 2-3Z"/><path d="M122 17a75.99 75.99 0 0 1 26 46c1.77 21-1.75 40.41-14.94 57.38-1.33 1.55-2.69 3.1-4.06 4.62-.6.7-1.2 1.4-1.83 2.1-12.53 13.6-32.48 21.48-50.75 22.23-20.62.44-40.65-7.87-55.6-21.96C5.04 110.83-.72 91.2-.32 68.75.36 51.8 7.74 36.48 19 24c.6-.7 1.2-1.4 1.83-2.1C47.44-6.97 92.35-5.8 122 17ZM24.06 31.6C10.76 47.08 7.61 65.25 9 85c1.81 12.54 7.81 23.54 16 33l1.77 2.06c11.4 12.31 27.48 18.95 44.05 20.14 19.53.34 36.22-6.68 50.37-19.95 13.89-14.63 18.35-31.22 18.1-50.86C138.74 54.1 131.9 41.32 122 30l-1.61-1.9c-10.9-11.93-27.37-18.16-43.2-19.3-20.93-.36-38.77 7.78-53.13 22.8Z"/></svg>