<svg xmlns="http://www.w3.org/2000/svg" width="137" height="137"><path d="M76.81 7.13c7.46 6.23 11.08 14.37 12.69 23.8-1.39 8.5-8.88 13.07-15.4 17.8-14.32 10.52-22.58 22.8-25.35 40.46-.26 1.93-.52 3.87-.75 5.81l.88-2.24C54.73 78.28 63.75 58.57 79.12 52c4.36-1.89 6.42-4.9 9.15-8.68C91.16 39.45 94.6 35.2 99 33l1.19-2.69A23.01 23.01 0 0 1 109 21l6-1v13l3.06.13c4.83.7 7.8 3.25 10.94 6.87 3.87 6.09 5.15 11.44 5.19 18.63l.04 3.47C134 65 134 65 132 67a39.1 39.1 0 0 1-15.88-1.31c-2.11-.64-2.11-.64-4.12-.69-3.1 2.19-3.1 2.19-5 5 1.22 4.46 2.4 7.08 6 10 3 .87 3 .87 6.19 1.19 5.74.74 5.74.74 6.81 1.81.04 2 .04 4 0 6-4.8 2.82-9.58 2.5-15 2-3.55-.96-6.45-2.63-9.5-4.69-5.7-2.99-11.91-1.08-17.78.65-5.78 2.2-10.13 5.45-13.22 10.85-1.92 4.36-1.89 8.51-1.5 13.19l.41-1.69C71.21 102.95 73.8 98.2 79 94c6.25-3.35 12.93-5.13 20-4 4.65 1.67 7.51 3.7 10 8 1.08 7.06-1.21 12.07-5 18a97.74 97.74 0 0 1-5.64 6.4c-1.58 1.5-1.58 1.5-1.36 3.6l2.48.73 3.27 1.02 3.23.98A15.65 15.65 0 0 1 113 134v2c-2.63 1.31-4.6 1.14-7.54 1.16l-3.53.03-3.83.01-3.94.02-8.29.02c-3.5 0-7.01.03-10.52.06-3.37.02-6.75.02-10.12.03l-3.77.04c-17.02-.05-31.13-5.5-43.46-17.37C8.09 108.58 3.57 98.66 3.73 83.57c.78-10.25 6.13-17.13 13.7-23.67 3.73-3.03 7.5-5.88 11.5-8.52 3.43-2.66 4.78-4.26 6.07-8.38a18.6 18.6 0 0 0-2.56-10.81c-6.22-5.58-14.74-6.23-22.75-6.75l-3.8-.26L3 25C19.19 4 53.33-9.43 76.81 7.12ZM119 43l-2 2c.32 2.6.32 2.6 1 5 1.9.68 1.9.68 4 1 2.29-1.84 2.29-1.84 2.13-4.63L124 44c-2.4-.68-2.4-.68-5-1Z"/></svg>