<?xml version="1.0" encoding="UTF-8" standalone="no"?>
<!-- Created with Inkscape (http://www.inkscape.org/) -->

<svg
   width="197.26411mm"
   height="197.26411mm"
   viewBox="0 0 197.26412 197.26412"
   version="1.1"
   id="svg5"
   sodipodi:docname="cs-cultivate.svg"
   inkscape:version="1.1.2 (0a00cf5339, 2022-02-04)"
   xmlns:inkscape="http://www.inkscape.org/namespaces/inkscape"
   xmlns:sodipodi="http://sodipodi.sourceforge.net/DTD/sodipodi-0.dtd"
   xmlns="http://www.w3.org/2000/svg"
   xmlns:svg="http://www.w3.org/2000/svg">
  <sodipodi:namedview
     id="namedview10"
     pagecolor="#ffffff"
     bordercolor="#666666"
     borderopacity="1.0"
     inkscape:pageshadow="2"
     inkscape:pageopacity="0.0"
     inkscape:pagecheckerboard="0"
     inkscape:document-units="mm"
     showgrid="false"
     inkscape:zoom="0.7268277"
     inkscape:cx="258.65828"
     inkscape:cy="431.32643"
     inkscape:window-width="1846"
     inkscape:window-height="1016"
     inkscape:window-x="0"
     inkscape:window-y="0"
     inkscape:window-maximized="1"
     inkscape:current-layer="svg5"
     fit-margin-top="0"
     fit-margin-left="0"
     fit-margin-right="0"
     fit-margin-bottom="0" />
  <defs
     id="defs2" />
  <path
     style="fill:none;fill-opacity:1;fill-rule:nonzero;stroke:#000000;stroke-width:5.353;stroke-miterlimit:4;stroke-dasharray:none;stroke-opacity:1"
     d="m 98.632058,194.58762 c -25.630133,0 -49.727889,-9.98114 -67.850468,-28.10509 C 12.657631,148.35995 2.6765001,124.26219 2.6765001,98.632056 2.6765001,73.001926 12.657631,48.904168 30.78159,30.78159 48.904169,12.657632 73.001925,2.6765001 98.632058,2.6765001 c 25.630132,0 49.727892,9.9811309 67.850472,28.1050899 18.12395,18.122579 28.10508,42.220336 28.10508,67.850466 0,25.630134 -9.98113,49.727894 -28.10508,67.850474 -18.12258,18.12395 -42.22034,28.10509 -67.850472,28.10509"
     id="bg" />
  <g
     id="Layer_2_1_"
     style="fill:#000000;fill-opacity:1"
     transform="matrix(1.5502921,0,0,1.5502921,6.0121926,4.1333696)">
    <g
       id="Logo_Hiveguardian_Image"
       style="fill:#000000;fill-opacity:1">
      <path
         class="st0"
         d="m 69.3,15.1 c 10.2,1.8 17,7.9 22.4,15.7 5.6,8.1 9.5,17.2 11.6,26.8 1.5,6.8 2.6,13.7 3.9,20.6 0.2,0.8 0.1,1.7 0.2,3 -1.3,-0.6 -2.5,-1.3 -3.7,-2 C 99,75.9 94.2,72.8 89.9,69.2 85.2,65.4 80.8,61.2 76.6,56.9 71.9,51.8 68.3,45.8 65.9,39.3 c -0.4,-1.4 -0.5,-3 -0.2,-4.4 0.9,-5.8 1.9,-11.6 2.9,-17.4 0.2,-0.9 0.4,-1.7 0.7,-2.4 z"
         id="path4"
         style="fill:#000000;fill-opacity:1" />
      <path
         class="st0"
         d="m 51.2,15.1 c 0.7,4.6 1.5,9.1 2.3,13.4 0.1,1.4 0.4,2.9 0.7,4.3 0.9,3.4 0.4,7 -1.5,10 -4,8.4 -9.8,15.9 -17,21.8 -5.6,4.6 -10.7,9.8 -17.2,13.3 -1.8,1.1 -3.7,2.1 -6,3.3 0.2,-1.9 0.4,-3.3 0.5,-4.8 1.4,-13.7 5.2,-27 11.4,-39.3 2.6,-5.1 6,-9.7 10.2,-13.7 4.5,-4.4 10.3,-7.3 16.6,-8.3 z"
         id="path6"
         style="fill:#000000;fill-opacity:1" />
      <path
         class="st0"
         d="m 64.3,45 c 6.6,12.1 16.3,22.3 28.1,29.4 0.9,4.8 -0.2,21.3 -1.7,25.5 -4.8,-3.1 -9.1,-7 -12.5,-11.5 -6.6,-8.4 -11.7,-17.9 -15,-28 -0.3,-0.9 -0.4,-1.8 -0.3,-2.7 0.5,-4.2 0.9,-8.2 1.4,-12.7 z"
         id="path8"
         style="fill:#000000;fill-opacity:1" />
      <path
         class="st0"
         d="m 79.1,92.5 c -4.2,7 -8.6,13.3 -16.9,16.1 v -40 c 4.2,8.9 9.9,17 16.9,23.9 z"
         id="path10"
         style="fill:#000000;fill-opacity:1" />
      <path
         class="st0"
         d="M 58,108.7 C 49.5,105.8 45.1,99.5 41.1,92.6 48.1,85.7 53.8,77.5 58,68.6 Z"
         id="path12"
         style="fill:#000000;fill-opacity:1" />
      <path
         class="st0"
         d="M 60,81.6 C 58.5,60.7 57,35 55.5,13.8 c 3.2,-3.4 6.2,-3.2 9.1,0.4 -1.5,21.2 -3,46.6 -4.6,67.4 z"
         id="path14"
         style="fill:#000000;fill-opacity:1" />
      <path
         class="st0"
         d="m 55.8,45.1 c -6.7,12.1 -16.4,22.3 -28.2,29.4 -0.9,4.9 0.2,21.3 1.7,25.5 4.8,-3.1 9.1,-7 12.6,-11.5 6.6,-8.4 11.7,-17.9 15,-28 0.3,-0.9 0.4,-1.8 0.3,-2.7 -0.4,-4.2 -0.9,-8.2 -1.4,-12.7 z"
         id="path16"
         style="fill:#000000;fill-opacity:1" />
    </g>
  </g>
</svg>
