<?xml version="1.0" encoding="UTF-8" standalone="no"?>
<!-- Created with Inkscape (http://www.inkscape.org/) -->

<svg
   width="197.26411mm"
   height="197.26411mm"
   viewBox="0 0 197.26412 197.26412"
   version="1.1"
   id="svg5"
   sodipodi:docname="cs-ladder.svg"
   inkscape:version="1.1.2 (0a00cf5339, 2022-02-04)"
   xmlns:inkscape="http://www.inkscape.org/namespaces/inkscape"
   xmlns:sodipodi="http://sodipodi.sourceforge.net/DTD/sodipodi-0.dtd"
   xmlns="http://www.w3.org/2000/svg"
   xmlns:svg="http://www.w3.org/2000/svg">
  <sodipodi:namedview
     id="namedview10"
     pagecolor="#ffffff"
     bordercolor="#666666"
     borderopacity="1.0"
     inkscape:pageshadow="2"
     inkscape:pageopacity="0.0"
     inkscape:pagecheckerboard="0"
     inkscape:document-units="mm"
     showgrid="false"
     inkscape:zoom="0.36341385"
     inkscape:cx="788.35741"
     inkscape:cy="-232.51728"
     inkscape:window-width="1846"
     inkscape:window-height="1016"
     inkscape:window-x="0"
     inkscape:window-y="0"
     inkscape:window-maximized="1"
     inkscape:current-layer="svg5"
     fit-margin-top="0"
     fit-margin-left="0"
     fit-margin-right="0"
     fit-margin-bottom="0" />
  <defs
     id="defs2" />
  <path
     style="fill:none;fill-opacity:1;fill-rule:nonzero;stroke:#000000;stroke-width:5.353;stroke-miterlimit:4;stroke-dasharray:none;stroke-opacity:1"
     d="m 98.632058,194.58762 c -25.630133,0 -49.727889,-9.98114 -67.850468,-28.10509 C 12.657631,148.35995 2.6765001,124.26219 2.6765001,98.632056 2.6765001,73.001926 12.657631,48.904168 30.78159,30.78159 48.904169,12.657632 73.001925,2.6765001 98.632058,2.6765001 c 25.630132,0 49.727892,9.9811309 67.850472,28.1050899 18.12395,18.122579 28.10508,42.220336 28.10508,67.850466 0,25.630134 -9.98113,49.727894 -28.10508,67.850474 -18.12258,18.12395 -42.22034,28.10509 -67.850472,28.10509"
     id="bg" />
  <path
     d="m 28.445446,162.92877 c 2.687613,-5.97089 9.283658,-18.531 11.986153,-24.63212 13.35457,6.16987 62.703951,26.73128 62.703951,26.73128 L 90.093115,194.0146 106.08147,193.21047 172.17375,56.365433 c -4.82895,-2.293244 -9.28222,-4.411625 -14.95777,-7.144588 -0.8729,3.25034 -4.60823,12.847283 -5.51611,16.172781 C 129.36886,55.137271 108.1649,45.405501 86.414911,35.373894 c 1.464304,-2.65513 5.971142,-11.84731 7.275465,-14.256932 -5.034281,-2.343105 -9.562687,-4.496447 -14.31648,-6.7547 C 59.216149,58.45818 37.099472,106.14291 16.961781,150.29388 c 4.484444,3.22988 6.999242,9.40503 11.483665,12.63489 z M 80.201789,50.490918 C 101.54109,60.422821 122.71007,70.229725 143.63357,79.87665 139.22784,90.030037 135.8512,97.87424 131.08089,108.90921 109.6664,98.94234 88.532406,89.060273 67.643915,79.338213 72.014656,69.259963 75.391283,61.415765 80.201789,50.490918 Z M 60.409332,94.3912 c 21.113899,9.82699 42.227818,19.65397 63.416878,29.51593 -4.62074,10.41897 -7.82253,17.88747 -12.65309,28.75725 -21.414485,-9.96686 -42.583443,-19.77376 -63.321684,-29.42588 4.425823,-10.09836 7.697526,-17.71712 12.557896,-28.8473 z"
     id="path1186"
     style="fill:#000000;fill-opacity:1;stroke-width:0.586037"
     sodipodi:nodetypes="ccccccccccccccccccccccc" />
</svg>
