<?xml version="1.0" encoding="UTF-8" standalone="no"?>
<svg
   viewBox="0 0 103 103"
   version="1.1"
   id="svg7"
   sodipodi:docname="fh-infusion.svg"
   width="103"
   height="103"
   inkscape:version="1.1.2 (0a00cf5339, 2022-02-04)"
   xmlns:inkscape="http://www.inkscape.org/namespaces/inkscape"
   xmlns:sodipodi="http://sodipodi.sourceforge.net/DTD/sodipodi-0.dtd"
   xmlns="http://www.w3.org/2000/svg"
   xmlns:svg="http://www.w3.org/2000/svg">
  <defs
     id="defs11" />
  <sodipodi:namedview
     id="namedview9"
     pagecolor="#ffffff"
     bordercolor="#666666"
     borderopacity="1.0"
     inkscape:pageshadow="2"
     inkscape:pageopacity="0.0"
     inkscape:pagecheckerboard="0"
     showgrid="false"
     fit-margin-top="0"
     fit-margin-left="0"
     fit-margin-right="0"
     fit-margin-bottom="0"
     inkscape:zoom="8.73"
     inkscape:cx="51.603666"
     inkscape:cy="51.489118"
     inkscape:window-width="1846"
     inkscape:window-height="1136"
     inkscape:window-x="0"
     inkscape:window-y="0"
     inkscape:window-maximized="1"
     inkscape:current-layer="svg7" />
  <path
     id="path4"
     style="fill:#000000;stroke:#000000;stroke-width:0.1;stroke-miterlimit:4;stroke-dasharray:none;stroke-opacity:1"
     d="M 51.5,10.5 C 43.90749,10.5 37.284608,14.759788 33.898438,21.013672 26.789606,20.819533 19.788299,24.424941 15.992188,31 c -3.796327,6.575431 -3.416494,14.440502 0.30664,20.5 -3.723099,6.05949 -4.102954,13.924592 -0.30664,20.5 3.796112,6.57506 10.797416,10.178516 17.90625,9.984375 C 37.284357,88.239092 43.906872,92.5 51.5,92.5 59.093128,92.5 65.715643,88.239092 69.101562,81.984375 76.210367,82.178485 83.211714,78.575035 87.007812,72 90.804418,65.424086 90.425071,57.557724 86.701172,51.498047 90.422955,45.438867 90.801694,37.574578 87.005859,31 83.209762,24.424967 76.210366,20.819563 69.101562,21.013672 65.715392,14.759788 59.09251,10.5 51.5,10.5 Z m 0,4 c 5.56504,0 10.449667,2.816959 13.314453,7.107422 -1.757824,0.440192 -3.48408,1.122625 -5.128906,2.072266 C 55.940246,25.842038 53.164738,29.045307 51.5,32.714844 49.835262,29.045307 47.057801,25.842038 43.3125,23.679688 41.668247,22.730378 39.942736,22.047634 38.185547,21.607422 41.050333,17.316959 45.93496,14.5 51.5,14.5 Z M 32.269531,25.021484 C 31.771794,26.763971 31.5,28.600633 31.5,30.5 c 0,4.324453 1.387124,8.331051 3.732422,11.607422 -4.010319,-0.393091 -8.174583,0.409893 -11.919922,2.572266 -1.64436,0.949371 -3.097536,2.102527 -4.357422,3.404296 C 16.672311,43.457961 16.67471,37.819122 19.457031,33 c 2.782528,-4.81948 7.664441,-7.642783 12.8125,-7.978516 z m 38.460938,0.002 c 5.147341,0.336319 10.030324,3.157692 12.8125,7.976562 2.781863,4.818329 2.783592,10.456436 0.501953,15.082031 C 82.785144,46.780464 81.329701,45.62894 79.685547,44.679688 75.940208,42.517315 71.777897,41.714331 67.767578,42.107422 70.112876,38.831051 71.5,34.824453 71.5,30.5 c 0,-1.898711 -0.272125,-3.734611 -0.769531,-5.476562 z m -34.363281,0.265624 c 1.693644,0.331999 3.363584,0.940305 4.945312,1.853516 6.767465,3.907198 9.595929,11.954903 7.130859,19.064453 C 41.054741,44.786309 35.5,38.313711 35.5,30.5 c 0,-1.82629 0.307961,-3.578299 0.867188,-5.210938 z m 30.265624,0 C 67.192039,26.921701 67.5,28.67371 67.5,30.5 c 0,7.814376 -5.555753,14.287047 -12.945312,15.707031 -2.464984,-7.109516 0.363439,-15.157281 7.130859,-19.064453 1.581963,-0.913347 3.253361,-1.521552 4.947265,-1.853516 z M 33.662109,45.990234 C 38.090407,46.085957 42.38159,48.028428 45.386719,51.5 40.461983,57.188059 32.079222,58.762238 25.3125,54.855469 23.730838,53.942296 22.368688,52.800673 21.234375,51.5 c 1.134214,-1.300432 2.496698,-2.444385 4.078125,-3.357422 2.637656,-1.522852 5.521109,-2.213485 8.349609,-2.152344 z m 35.673829,0 c 2.828499,-0.06114 5.711953,0.629493 8.349609,2.152344 1.582088,0.913419 2.945584,2.056312 4.080078,3.357422 -1.134381,1.300836 -2.498257,2.442204 -4.080078,3.355469 C 70.918086,58.762664 62.535846,57.189581 57.611328,51.5 c 3.005168,-3.472167 7.295909,-5.414034 11.72461,-5.509766 z m -50.38086,8.923828 c 1.26,1.301983 2.712844,2.456753 4.357422,3.40625 3.745371,2.162391 7.909572,2.963428 11.919922,2.570313 C 32.886562,64.167233 31.5,68.174978 31.5,72.5 c 0,1.898711 0.272125,3.734611 0.769531,5.476562 C 27.121472,77.64083 22.23956,74.81948 19.457031,70 16.674382,65.180311 16.671503,59.540392 18.955078,54.914062 Z m 65.089844,0 C 86.32838,59.540348 86.325571,65.180392 83.542969,70 80.760475,74.81942 75.878457,77.640772 70.730469,77.976562 71.227875,76.234611 71.5,74.398711 71.5,72.5 c 0,-4.324453 -1.387124,-8.331051 -3.732422,-11.607422 4.010319,0.393091 8.17263,-0.409893 11.917969,-2.572266 1.644984,-0.949732 3.099162,-2.103871 4.359375,-3.40625 z m -35.601563,1.878907 c 2.464984,7.109516 -0.363439,15.155328 -7.130859,19.0625 -1.581728,0.913211 -3.251668,1.52347 -4.945312,1.855469 C 35.807961,76.078299 35.5,74.32629 35.5,72.5 c 0,-7.813711 5.554741,-14.286309 12.943359,-15.707031 z m 6.111329,0 C 61.944247,58.212953 67.5,64.685624 67.5,72.5 c 0,1.82629 -0.307961,3.578299 -0.867188,5.210938 -1.693697,-0.331992 -3.36549,-0.942231 -4.947265,-1.855469 -6.766992,-3.906925 -9.595018,-11.953314 -7.130859,-19.0625 z M 51.5,70.283203 c 1.664738,3.669537 4.440246,6.874759 8.185547,9.037109 1.645121,0.949812 3.372708,1.630131 5.130859,2.070313 C 61.951825,85.682346 57.066007,88.5 51.5,88.5 c -5.56504,0 -10.449667,-2.816959 -13.314453,-7.107422 1.757189,-0.440212 3.4827,-1.122956 5.126953,-2.072266 3.745545,-2.162491 6.522799,-5.367272 8.1875,-9.037109 z M 101.5,51.5 c 0,27.614237 -22.385763,50 -50,50 -27.614237,0 -50,-22.385763 -50,-50 0,-27.614237 22.385763,-50 50,-50 27.614237,0 50,22.385763 50,50 z"
     sodipodi:nodetypes="scscscscscscsscscscscscscsccscscscccscsccsscscsscscsssscscscscscsccscscsccscsccscsccscscscsssss" />
</svg>
