<?xml version="1.0" standalone="no"?>
<!DOCTYPE svg PUBLIC "-//W3C//DTD SVG 1.1//EN" "http://www.w3.org/Graphics/SVG/1.1/DTD/svg11.dtd" >
<svg xmlns="http://www.w3.org/2000/svg" xmlns:xlink="http://www.w3.org/1999/xlink" version="1.1" viewBox="-10 0 912 1000">
  <g transform="matrix(1 0 0 -1 0 800)">
   <path fill="currentColor"
d="M852 445q2 -38 -44 -75l2 -34q1 -2 -1 -4t-5 -1l-35 10q-48 -36 -60 -68q-20 -55 -53 -73q-2 -1 -3.5 -0.5t-2.5 2.5q-2 13 -7 25.5t-15.5 28.5t-29.5 28t-44 16q44 -46 40 -137q-5 -96 -47.5 -165t-113.5 -103q-46 -22 -88 -26t-67 7.5t-25 34.5q48 5 90 37.5t67 101.5
q16 50 12.5 83.5t-2.5 70.5t16 61q-6 -7 -12 -12t-13 -8t-11 -5.5t-11.5 -3t-10.5 -1t-11.5 0.5t-10 1t-12 2t-11.5 3q1 -21 -14.5 -41t-44.5 -25q1 -26 -18.5 -52.5t-44.5 -30.5q4 -36 -10.5 -59t-52.5 -37q9 -32 -0.5 -65.5t-31.5 -45.5q-30 24 -46.5 55t-18.5 66.5
t1 62.5t11 62q14 60 55.5 137.5t98.5 138.5q47 49 93.5 81.5t101.5 42.5q66 11 111 -24q-3 16 -18 32q-1 2 -0.5 3.5t1.5 1.5q15 5 41 16l5 47q0 3 3 4t6 -1l36 -30q18 5 41 11q32 7 66 7q8 13 22 34q2 3 5 2.5t4 -3.5l13 -39q48 -13 74.5 -52t29.5 -96z" />
  </g>

</svg>
