<?xml version="1.0" encoding="UTF-8" standalone="no"?>
<!-- Created with Inkscape (http://www.inkscape.org/) -->

<svg
   version="1.1"
   id="svg2"
   width="590.40002"
   height="402.56"
   viewBox="0 0 590.40002 402.56"
   sodipodi:docname="fh-sled.svg"
   inkscape:version="1.1.2 (0a00cf5339, 2022-02-04)"
   xmlns:inkscape="http://www.inkscape.org/namespaces/inkscape"
   xmlns:sodipodi="http://sodipodi.sourceforge.net/DTD/sodipodi-0.dtd"
   xmlns="http://www.w3.org/2000/svg"
   xmlns:svg="http://www.w3.org/2000/svg">
  <defs
     id="defs6" />
  <sodipodi:namedview
     id="namedview4"
     pagecolor="#ffffff"
     bordercolor="#666666"
     borderopacity="1.0"
     inkscape:pageshadow="2"
     inkscape:pageopacity="0.0"
     inkscape:pagecheckerboard="0"
     showgrid="false"
     inkscape:zoom="2.1686208"
     inkscape:cx="295.349"
     inkscape:cy="201.28"
     inkscape:window-width="1846"
     inkscape:window-height="1136"
     inkscape:window-x="0"
     inkscape:window-y="0"
     inkscape:window-maximized="1"
     inkscape:current-layer="g8" />
  <g
     inkscape:groupmode="layer"
     inkscape:label="Image"
     id="g8">
    <path
       style="fill:#000000;stroke-width:0.32"
       d="M 70.720002,402.34381 C 53.094821,400.5209 36.212638,391.98915 25.281065,379.38038 20.472672,373.83424 3.2346916,351.27222 2.1010779,349.04115 -4.422275,336.20243 5.1923391,320.62672 19.681947,320.56006 c 1.430588,-0.007 3.38339,0.16746 4.339561,0.38672 2.761368,0.63328 6.762903,2.70676 8.778154,4.54858 1.004717,0.91827 6.095815,7.21238 11.313549,13.98694 5.217735,6.77456 10.256637,13.15264 11.197562,14.17354 3.392647,3.68099 7.980829,6.48291 13.399041,8.18262 l 2.810188,0.88154 39.272068,0.0873 39.27206,0.0873 0.17218,-0.72733 c 1.29856,-5.4856 14.8837,-63.73246 14.8837,-63.81451 0,-0.062 -12.28587,-0.11282 -27.30193,-0.11282 -29.92155,0 -29.13159,0.0472 -31.82431,-1.90335 -0.72104,-0.52232 -1.67199,-1.56774 -2.11323,-2.32316 C 103.43931,293.25807 95.87904,271.328 87.079955,245.28 78.28087,219.232 57.970504,159.1226 41.945809,111.70357 25.921115,64.284528 12.644316,24.644971 12.441812,23.615661 12.233275,22.55569 12.145676,20.464113 12.23979,18.792094 12.513103,13.936497 14.446663,9.676079 18.016012,6.0647341 20.295966,3.7579546 22.731919,2.2477865 26.083072,1.0635625 L 28.640001,0.16 59.840002,0.06039434 C 91.300729,-0.0400437 101.34223,0.17148672 110.72,1.1322129 162.73852,6.4613622 214.73184,30.230987 253.60001,66.452214 c 11.9156,11.104141 22.14514,23.238663 31.38344,37.227786 8.3535,12.64932 13.92585,23.15013 21.73577,40.96 10.51409,23.97651 24.75279,39.96311 44.78396,50.2815 14.38435,7.40962 29.93539,11.2335 50.57683,12.43644 22.8201,1.32991 45.0017,0.39441 61.44001,-2.59121 19.39152,-3.52199 34.73328,-10.86812 42.46419,-20.33324 2.58646,-3.16668 7.69254,-10.95546 9.54051,-14.55306 3.7441,-7.28901 3.44371,-10.43981 -2.22061,-23.29174 -4.25942,-9.66437 -5.46409,-14.04133 -5.46409,-19.85285 0,-8.61552 4.08985,-15.47934 14.28681,-23.97683 3.48176,-2.901477 5.7801,-4.332348 8.60717,-5.358524 9.70189,-3.521587 19.00765,2.42025 32.13658,20.519514 4.42608,6.10174 19.31242,27.71465 21.29046,30.91089 2.26628,3.66192 4.12637,7.40501 5.18871,10.44127 0.79197,2.26356 0.87072,2.90613 0.87366,7.12784 0.003,4.62284 -0.003,4.65462 -1.35078,8.595 -2.86186,8.35925 -7.56688,16.55213 -22.6953,39.5195 -17.96822,27.27868 -29.51674,41.83262 -47.27686,59.58037 -10.02528,10.01831 -14.05402,13.12353 -21.95565,16.92273 -6.71143,3.22694 -14.32608,5.29884 -23.6648,6.43903 -3.12855,0.38197 -8.188,0.57396 -18.34448,0.69612 l -14.02449,0.16867 0.21133,0.83929 c 0.11626,0.46161 3.44048,14.64305 7.38717,31.5143 3.94672,16.87126 7.26365,31.02483 7.37095,31.45235 l 0.1951,0.77734 25.96221,-0.10182 c 25.5496,-0.10022 25.99779,-0.11283 28.20221,-0.79286 1.232,-0.38007 3.09321,-1.06916 4.13603,-1.53127 4.48102,-1.98579 5.94058,-3.2624 22.10397,-19.3336 8.624,-8.57481 16.256,-16.02976 16.96,-16.56656 3.29315,-2.5111 7.67117,-3.99353 11.8615,-4.01638 3.3041,-0.0179 5.41354,0.47635 8.6945,2.03776 4.73123,2.25155 8.40822,6.46352 10.22349,11.71094 0.71987,2.0809 0.86189,3.0401 0.86611,5.84909 0.006,3.84755 -0.50704,5.96 -2.29181,9.44 -1.03046,2.00922 -2.78317,3.8833 -17.01129,18.18934 -8.72439,8.77213 -17.22353,17.09258 -18.88698,18.48992 -9.39975,7.89588 -20.13091,12.9034 -32.97552,15.38746 l -3.68,0.71171 -219.20001,0.0406 c -120.56,0.0224 -219.704008,-0.0115 -220.320008,-0.0752 z M 415.04001,362.15648 c 0,-0.39795 -3.312,-14.87936 -7.36,-32.18093 -4.048,-17.30154 -7.36,-31.51995 -7.36,-31.59645 0,-0.0765 -43.776,-0.1391 -97.28,-0.1391 -53.504,0 -97.28,0.0735 -97.28,0.16324 0,0.0898 -3.312,14.32564 -7.36,31.63526 -4.048,17.3096 -7.36,31.78012 -7.36,32.15673 V 362.88 h 112 112 z"
       id="path827" />
  </g>
</svg>
