<?xml version="1.0" encoding="UTF-8" standalone="no"?>
<svg
   viewBox="0 0 100 100"
   version="1.1"
   id="svg305"
   sodipodi:docname="fh-switch-melee.svg"
   inkscape:version="1.2.2 (b0a8486541, 2022-12-01)"
   xmlns:inkscape="http://www.inkscape.org/namespaces/inkscape"
   xmlns:sodipodi="http://sodipodi.sourceforge.net/DTD/sodipodi-0.dtd"
   xmlns="http://www.w3.org/2000/svg"
   xmlns:svg="http://www.w3.org/2000/svg">
  <defs
     id="defs309" />
  <sodipodi:namedview
     id="namedview307"
     pagecolor="#ffffff"
     bordercolor="#000000"
     borderopacity="0.25"
     inkscape:showpageshadow="2"
     inkscape:pageopacity="0.0"
     inkscape:pagecheckerboard="0"
     inkscape:deskcolor="#d1d1d1"
     showgrid="false"
     inkscape:zoom="3.925"
     inkscape:cx="72.101911"
     inkscape:cy="54.140127"
     inkscape:window-width="1854"
     inkscape:window-height="1011"
     inkscape:window-x="0"
     inkscape:window-y="0"
     inkscape:window-maximized="1"
     inkscape:current-layer="svg305" />
  <path
     id="path615"
     style="fill:#000000;stroke-width:0.244764"
     d="m 72.475802,35.024993 -5.361837,0.159283 -6.595211,0.123616 0.0014,3.968449 c 9.22e-4,2.565991 -0.08942,3.97 -0.2556,3.972876 -0.141341,0.0024 -1.056033,-0.494343 -2.032643,-1.103974 -0.9766,-0.609642 -2.720668,-1.608932 -3.875699,-2.220658 -1.155029,-0.611734 -2.903012,-1.556036 -3.884408,-2.098459 -0.981406,-0.542414 -1.889998,-0.984386 -2.019121,-0.982152 -0.129103,0.0022 -0.397736,-0.153387 -0.596948,-0.345812 -0.330727,-0.319477 -1.061893,-0.742656 -4.946902,-2.863079 -4.128418,-2.253277 -5.102411,-2.873584 -5.051833,-3.217396 0.06516,-0.442933 2.080208,-1.884242 4.407341,-3.152417 0.933676,-0.508815 2.023777,-1.173774 2.422436,-1.477691 0.719062,-0.548169 2.543262,-1.699621 4.613207,-2.911906 0.592236,-0.346845 2.354458,-1.423866 3.916052,-2.39336 3.871252,-2.403443 3.762169,-2.336464 4.307621,-2.644947 0.266672,-0.150811 0.757424,-0.437814 1.090566,-0.637773 1.394824,-0.837201 1.437102,-0.74563 1.583118,3.42888 l 0.133447,3.814269 6.961678,-0.153019 5.190056,-0.0872 M 32.234914,69.377479 c 0,0.627 -3.253303,7.244445 -4.035978,8.1746 -0.869217,1.033012 -1.691615,1.021209 -3.927212,-0.05644 l 2.4e-5,1.1e-5 C 23.329412,77.041401 22.117828,76.471314 21.57935,76.228773 18.487657,74.836185 13.793676,71.41781 10.54412,68.192419 8.3239508,65.988757 7.1824898,64.585669 5.1248372,61.531014 3.3068431,58.832149 3.5421263,59.241355 2.2570318,56.543231 0.99906733,53.902055 0.91399913,53.161454 1.6058938,50.874375 c 0.2553909,-0.844203 0.7127978,-2.360994 1.016459,-3.370649 2.004312,-6.66419 6.6626374,-15.76204 10.8146842,-21.121396 3.097933,-3.998741 5.014585,-6.238473 5.612324,-6.55837 0.780759,-0.417855 2.018986,-0.318287 4.674733,0.375893 1.314232,0.343523 2.660658,0.624594 2.992072,0.624594 0.410473,0 0.714051,0.215584 0.952272,0.676262 0.322885,0.624382 0.274882,0.901354 -0.625622,3.610266 -1.405438,4.227821 -1.768582,6.722776 -1.424586,9.787404 0.310645,2.767461 1.09184,5.488814 2.310158,8.047565 0.456451,0.958645 1.126134,2.458933 1.488169,3.333959 0.362045,0.875035 0.742627,1.701115 0.845748,1.835735 0.442555,0.577739 2.009338,5.829785 2.409579,8.077213 l 0.435894,2.447638 m -5.602813,14.367825 c 0.486654,-0.309287 1.532434,-2.918298 2.070505,-5.165467 0.427948,-1.787269 0.484813,-2.620326 0.377568,-5.530896 -0.06947,-1.884683 -0.300703,-4.225084 -0.51389,-5.20089 -0.389723,-1.783809 -2.007478,-6.825591 -2.336608,-7.282077 -0.09706,-0.13462 -0.371813,-0.773304 -0.610551,-1.419287 -0.369602,-1.000061 -0.636464,-1.288746 -1.79652,-1.943434 -2.137399,-1.206284 -4.941299,-4.118022 -6.51981,-6.770577 -0.753067,-1.265461 -1.369212,-2.594032 -1.369212,-2.952385 0,-1.635841 2.451431,-4.761636 4.589975,-5.852644 0.552206,-0.281709 1.06121,-0.706808 1.131129,-0.94465 0.247471,-0.841787 0.450687,-2.268169 0.323144,-2.268169 -0.07114,0 -0.622042,0.211199 -1.224249,0.469337 -3.580127,1.534626 -6.888611,5.17974 -8.699064,9.58417 -1.439054,3.500911 -1.829042,5.569048 -1.917439,10.168348 -0.04428,2.304396 -0.197189,4.727566 -0.339778,5.384807 -0.142589,0.65725 -0.317561,1.48333 -0.388829,1.835725 -0.17331,0.856978 0.479342,2.073308 1.757558,3.275503 0.6291,0.591681 1.319843,1.608532 1.745815,2.570018 2.232153,5.038331 4.554825,8.375455 6.907191,9.923966 2.23136,1.468864 5.994256,2.638975 6.813065,2.118602 z m -6.904677,-8.836299 c -1.237163,-0.544788 -2.150036,-2.242601 -1.902376,-3.538146 0.177923,-0.930745 0.607093,-0.801546 1.508952,0.454257 0.908108,1.264528 1.482534,1.383115 2.211388,0.456524 0.712099,-0.905285 0.677787,-2.772501 -0.08085,-4.401867 -0.47188,-1.013439 -0.871806,-1.434523 -2.092225,-2.202876 -6.2049,-3.906518 -6.368858,-4.10435 -6.365848,-7.680942 0.0018,-2.056785 0.09051,-2.797701 0.608543,-5.078859 0.06879,-0.302894 0.229284,-0.550717 0.356663,-0.550717 0.12738,0 0.730976,0.743469 1.341326,1.65216 0.61035,0.908681 1.300238,1.927514 1.533083,2.264062 0.34927,0.504832 2.366663,2.993367 4.266109,5.262426 1.78813,2.136084 2.251666,2.805361 2.935791,4.238819 1.121443,2.349773 1.239188,4.550132 0.344393,6.436045 -0.89549,1.887392 -1.793393,2.697763 -3.116526,2.812696 -0.582373,0.0506 -1.279144,-0.0046 -1.548382,-0.123582 z M 72.281242,77.78848 c -0.472147,-0.345237 -0.658785,0.09849 2.260504,-5.374482 1.408666,-2.640927 2.6109,-5.786816 3.48646,-9.122995 0.512379,-1.952361 0.575912,-2.717811 0.558655,-6.73101 -0.01745,-4.073626 -0.08659,-4.79838 -0.688168,-7.220541 -0.593495,-2.38956 -0.89867,-3.352933 -1.628278,-5.140045 -0.254164,-0.622568 -2.856273,-6.612579 -3.296149,-7.587682 -1.275166,-2.826778 -1.713911,-8.304038 -0.971384,-12.126844 0.53593,-2.759144 0.859984,-3.155148 2.629077,-3.212745 1.68272,-0.05477 2.425808,-0.121704 5.935526,-0.534583 2.798892,-0.329267 2.98562,-0.323051 3.966332,0.131909 0.620163,0.287704 1.69776,1.22474 2.711573,2.357895 3.303056,3.691859 5.312015,6.665736 7.388155,10.93673 2.876801,5.918094 4.343246,11.680523 4.453636,17.500632 0.0457,2.409375 -6.4e-4,2.684766 -0.742158,4.405752 -0.826786,1.918994 -2.421209,4.711514 -3.15345,5.523024 -0.235277,0.260748 -0.716491,0.859504 -1.069379,1.330562 -0.352875,0.471066 -1.53692,1.779608 -2.631212,2.907871 -1.094283,1.128269 -1.989605,2.099893 -1.989605,2.159173 0,0.197128 -0.695887,0.807097 -0.920783,0.807097 -0.121795,0 -0.597782,0.375608 -1.057726,0.834685 -1.746604,1.743271 -6.399462,4.787055 -9.892555,6.471474 -1.480824,0.714069 -3.004226,1.455041 -3.385334,1.646591 -0.856252,0.430371 -1.411982,0.440992 -1.963737,0.03756 z m 7.925822,-7.944676 c 3.719745,-2.599872 6.65999,-6.491523 8.198009,-10.850706 0.194477,-0.551226 0.796406,-1.505283 1.337613,-2.120137 1.248293,-1.41813 1.683856,-2.745831 1.25414,-3.822889 -0.169726,-0.425394 -0.401171,-2.645894 -0.514335,-4.934434 -0.23062,-4.664492 -0.642333,-7.130816 -1.572495,-9.419957 -0.347848,-0.856044 -0.632443,-1.685593 -0.632443,-1.843442 0,-0.373201 -1.806776,-3.166499 -2.796764,-4.323817 -1.070914,-1.251946 -3.653626,-3.276762 -5.117315,-4.011932 -1.404404,-0.705383 -4.360403,-1.572943 -5.359452,-1.572943 -0.665514,0 -0.678017,0.02711 -0.678017,1.468583 v 1.468585 h 0.841481 c 1.284565,0 4.007548,0.696558 5.412745,1.384614 0.692411,0.339036 1.865384,1.213314 2.606626,1.942832 3.468335,3.413546 4.709057,9.136926 3.735731,17.232734 -0.514615,4.28043 -0.515516,4.560725 -0.01616,5.112413 0.215676,0.238331 0.392149,0.562327 0.392149,0.720009 0,0.486533 -1.433277,0.321996 -1.982911,-0.227638 -0.467681,-0.46768 -0.500438,-0.695188 -0.361283,-2.508833 0.471418,-6.144251 0.450705,-8.451052 -0.09615,-10.708093 -1.177585,-4.860251 -4.13036,-8.101617 -7.717576,-8.471858 -1.577114,-0.162771 -1.75519,0.05485 -1.244127,1.520538 0.313468,0.898958 0.429985,0.991931 1.424255,1.136375 2.315054,0.336326 4.481631,2.156926 5.05578,4.24843 0.486797,1.773301 0.339656,3.947907 -0.374861,5.540055 -0.639433,1.424855 -0.643003,1.464524 -0.332737,3.702072 0.425679,3.06992 0.375857,8.400664 -0.101205,10.828533 -0.612618,3.117728 -1.075347,4.587274 -2.214783,7.033754 -0.856586,1.83914 -0.513235,2.432881 0.85417,1.477152 z" />
</svg>
