<?xml version="1.0" encoding="UTF-8" standalone="no"?>
<!-- Created with Inkscape (http://www.inkscape.org/) -->

<svg
   width="10.26424mm"
   height="10.384515mm"
   viewBox="0 0 10.264241 10.384515"
   version="1.1"
   id="svg1633"
   xml:space="preserve"
   inkscape:version="1.2.2 (b0a8486541, 2022-12-01)"
   sodipodi:docname="gh2e-prescription.svg"
   xmlns:inkscape="http://www.inkscape.org/namespaces/inkscape"
   xmlns:sodipodi="http://sodipodi.sourceforge.net/DTD/sodipodi-0.dtd"
   xmlns="http://www.w3.org/2000/svg"
   xmlns:svg="http://www.w3.org/2000/svg"><sodipodi:namedview
     id="namedview1635"
     pagecolor="#ffffff"
     bordercolor="#000000"
     borderopacity="0.25"
     inkscape:showpageshadow="2"
     inkscape:pageopacity="0.0"
     inkscape:pagecheckerboard="0"
     inkscape:deskcolor="#d1d1d1"
     inkscape:document-units="mm"
     showgrid="false"
     inkscape:zoom="9.6458861"
     inkscape:cx="-1.6587382"
     inkscape:cy="34.677996"
     inkscape:window-width="1854"
     inkscape:window-height="1011"
     inkscape:window-x="0"
     inkscape:window-y="0"
     inkscape:window-maximized="1"
     inkscape:current-layer="layer1" /><defs
     id="defs1630" /><g
     inkscape:label="Layer 1"
     inkscape:groupmode="layer"
     id="layer1"
     transform="translate(-162.41469,-160.13657)"><path
       style="fill:#000000;stroke-width:0.264583"
       d="m 166.55629,170.43402 c -1.46465,-0.24533 -2.78363,-1.27484 -3.52468,-2.75111 -1.08343,-2.15835 -0.73411,-4.2404 1.00285,-5.97737 2.15829,-2.15829 5.15167,-2.08338 7.37755,0.18463 1.10551,1.12644 1.14242,1.21941 1.23837,3.11949 0.0825,1.63454 0.004,2.12652 -0.4723,2.97475 -1.05593,1.87876 -3.27004,2.84353 -5.62179,2.44961 z m 2.81093,-1.46129 c 0.58727,-0.58728 0.51596,-1.30048 -0.17954,-1.79541 -0.32743,-0.23301 -0.399,-0.35847 -0.15905,-0.27882 0.63965,0.21235 0.78045,-0.22359 0.34395,-1.06494 -0.5431,-1.04683 -0.47583,-1.89453 0.20033,-2.52447 0.57987,-0.54023 0.58705,-0.54039 1.10271,-0.0247 0.43237,0.43238 0.46204,0.58771 0.17768,0.93034 -0.46703,0.56274 -1.13473,0.52848 -1.00784,-0.0517 0.0557,-0.25466 0.25186,-0.43031 0.43594,-0.39032 0.18407,0.04 0.26249,-0.0441 0.17425,-0.18688 -0.28131,-0.45517 -0.93724,0.0149 -0.93724,0.67165 0,0.90128 1.21599,0.89274 1.62796,-0.0114 0.57987,-1.27268 0.16036,-1.59673 -3.06471,-2.36732 -1.94576,-0.46492 -2.6572,-0.2901 -2.00711,0.49321 0.29107,0.35072 0.2772,0.38862 -0.0906,0.24748 -0.34525,-0.13248 -0.4343,0.002 -0.4343,0.65541 0,0.45213 0.11158,0.82205 0.24795,0.82205 0.13637,0 0.17977,0.42015 0.0964,0.93366 -0.14859,0.91567 -0.12517,0.94478 1.21636,1.51157 0.92635,0.39137 1.41568,0.76837 1.51597,1.16797 0.18593,0.74078 -0.0568,1.1493 -0.68277,1.1493 -0.49028,0 -0.90372,-0.60828 -0.61183,-0.90017 0.31195,-0.31194 0.65275,-0.15035 0.50345,0.23872 -0.0838,0.21828 -0.037,0.39687 0.10399,0.39687 0.14095,0 0.25628,-0.0498 0.25628,-0.11065 0,-0.0609 0.0652,-0.28063 0.14495,-0.48839 0.10006,-0.26076 -0.22121,-0.51757 -1.0375,-0.82931 -0.65034,-0.24837 -1.32546,-0.62391 -1.50026,-0.83453 -0.46784,-0.56371 -1.84158,-0.50382 -1.83648,0.0801 0.006,0.67584 0.28175,0.99412 1.31887,1.52184 0.50932,0.25917 1.20999,0.6925 1.55704,0.96296 0.77093,0.60082 1.96436,0.63673 2.5251,0.076 z"
       id="path1768" /></g></svg>
