<?xml version="1.0" encoding="UTF-8" standalone="no"?>
<!-- Created with Inkscape (http://www.inkscape.org/) -->

<svg
   width="10.913074mm"
   height="10.86523mm"
   viewBox="0 0 10.913073 10.865229"
   version="1.1"
   id="svg1096"
   xml:space="preserve"
   inkscape:version="1.2.2 (b0a8486541, 2022-12-01)"
   sodipodi:docname="gh2e-song.svg"
   xmlns:inkscape="http://www.inkscape.org/namespaces/inkscape"
   xmlns:sodipodi="http://sodipodi.sourceforge.net/DTD/sodipodi-0.dtd"
   xmlns="http://www.w3.org/2000/svg"
   xmlns:svg="http://www.w3.org/2000/svg"><sodipodi:namedview
     id="namedview1098"
     pagecolor="#ffffff"
     bordercolor="#000000"
     borderopacity="0.25"
     inkscape:showpageshadow="2"
     inkscape:pageopacity="0.0"
     inkscape:pagecheckerboard="0"
     inkscape:deskcolor="#d1d1d1"
     inkscape:document-units="mm"
     showgrid="false"
     inkscape:zoom="10.10297"
     inkscape:cx="-5.245982"
     inkscape:cy="5.8893572"
     inkscape:window-width="1854"
     inkscape:window-height="1011"
     inkscape:window-x="0"
     inkscape:window-y="0"
     inkscape:window-maximized="1"
     inkscape:current-layer="layer1" /><defs
     id="defs1093" /><g
     inkscape:label="Layer 1"
     inkscape:groupmode="layer"
     id="layer1"
     transform="translate(-18.282791,-101.26904)"><path
       style="fill:#000000;stroke-width:0.264583"
       d="m 25.114884,109.46716 v -0.13229 h 0.132291 0.132292 v 0.13229 0.1323 h -0.132292 -0.132291 z"
       id="path1377" /><path
       style="fill:#000000;stroke-width:0.264583"
       d="m 24.850256,106.09769 -0.966298,-0.99219 0.461104,-0.096 0.461105,-0.096 0.607311,0.70604 0.60731,0.70604 v 0.38212 0.38212 H 25.91867 25.816553 Z"
       id="path1375" /><path
       style="fill:#000000;stroke-width:0.264583"
       d="m 26.549955,108.01591 v -0.13229 h 0.132292 0.132291 v 0.13229 0.1323 h -0.132291 -0.132292 z"
       id="path1373" /><path
       style="fill:#000000;stroke-width:0.264583"
       d="m 26.137387,108.44183 v -0.13229 h 0.132292 0.132292 v 0.13229 0.13229 h -0.132292 -0.132292 z"
       id="path1371" /><path
       style="fill:#000000;stroke-width:0.264583"
       d="m 25.583824,108.97744 v -0.13229 h 0.132291 0.132292 v 0.13229 0.1323 h -0.132292 -0.132291 z"
       id="path1369" /><path
       style="fill:#000000;stroke-width:0.264583"
       d="m 22.505555,106.51033 0.07565,0.18257 v 0.24237 l 0.979738,1.00334 0.979739,1.00335 h -0.462599 -0.462598 l -0.667566,-0.66757 -0.667567,-0.66757 -0.149747,-0.46377 0.253157,-0.6042"
       id="path1367" /><path
       style="fill:#000000;stroke-width:0.264583"
       d="m 21.026281,104.85042 -1.420272,-1.48813 0.174899,-0.1749 0.174899,-0.1749 2.68993,2.68993 2.689931,2.68993 -0.192154,0.19216 -0.192153,0.19215 -1.185078,-1.16306 -1.185078,-1.16307"
       id="path1365" /><path
       style="fill:#000000;stroke-width:0.264583"
       d="m 20.731541,102.07117 0.435929,-0.27699 1.3163,-0.52514 1.437818,0.004 1.437819,0.004 1.046028,0.59248 1.046028,0.59248 0.872201,1.14353 0.872201,1.14353 v 1.80161 1.80162 l -0.859896,1.28536 -0.859896,1.28537 -1.058333,0.50667 -1.058333,0.50668 -1.322917,0.0989 -1.322916,0.099 -1.060681,-0.49594 -1.060603,-0.49664 -0.829618,-0.94488 -0.829617,-0.94488 -0.325132,-0.98516 -0.325132,-0.98516 0.151469,-1.27892 0.151468,-1.27892 0.301613,-0.56357 0.301613,-0.56356 0.735718,0.70486 0.735718,0.70486 c 0,0 0.08723,1.17957 0.13085,1.76936 0.04362,0.58979 -0.04705,1.20535 0.130849,1.76936 0.116929,0.37071 0.397877,0.66791 0.596815,1.00186 0.198938,0.33395 0.313827,0.73537 0.596814,1.00186 0.204559,0.19264 0.499181,0.25813 0.74877,0.3872 0.249591,0.12907 0.475745,0.32079 0.748771,0.38721 0.265597,0.0646 0.546685,0 0.820028,0 h 0.820029 l 0.741335,-0.38336 0.741335,-0.38336 0.797775,-0.90862 0.797775,-0.90861 0.176917,-0.94305 0.176916,-0.94304 -0.3822,-0.91474 -0.382199,-0.91473 -1.214571,-0.71178 -1.214571,-0.71179 -1.653749,-0.14064 -1.65375,-0.14063 -0.594269,-0.54089 -0.594269,-0.54088"
       id="path1382" /><path
       style="fill:#000000;stroke-width:0.264583"
       d="m 23.241412,104.99324 2.50827,2.49351 0.0033,0.39215 0.0033,0.39214 -2.778125,-2.76867 -2.850441,-2.83665 c 0,0 0.127678,-0.14677 0.19004,-0.22141 0.05758,-0.0689 0.169969,-0.209 0.169969,-0.209"
       id="path1238" /></g></svg>
