<?xml version="1.0" encoding="UTF-8" standalone="no"?>
<!-- Created with Inkscape (http://www.inkscape.org/) -->

<svg
   width="8.966361mm"
   height="9.1341238mm"
   viewBox="0 0 8.9663613 9.1341241"
   version="1.1"
   id="svg5"
   xml:space="preserve"
   inkscape:version="1.2.2 (b0a8486541, 2022-12-01)"
   sodipodi:docname="gh2e-bear-summon.svg"
   xmlns:inkscape="http://www.inkscape.org/namespaces/inkscape"
   xmlns:sodipodi="http://sodipodi.sourceforge.net/DTD/sodipodi-0.dtd"
   xmlns="http://www.w3.org/2000/svg"
   xmlns:svg="http://www.w3.org/2000/svg"><sodipodi:namedview
     id="namedview7"
     pagecolor="#ffffff"
     bordercolor="#000000"
     borderopacity="0.25"
     inkscape:showpageshadow="2"
     inkscape:pageopacity="0.0"
     inkscape:pagecheckerboard="0"
     inkscape:deskcolor="#d1d1d1"
     inkscape:document-units="mm"
     showgrid="false"
     inkscape:zoom="8.7868272"
     inkscape:cx="-10.868542"
     inkscape:cy="25.777223"
     inkscape:window-width="1854"
     inkscape:window-height="1011"
     inkscape:window-x="0"
     inkscape:window-y="0"
     inkscape:window-maximized="1"
     inkscape:current-layer="layer1" /><defs
     id="defs2" /><g
     inkscape:label="Layer 1"
     inkscape:groupmode="layer"
     id="layer1"
     transform="translate(-156.69133,-140.09122)"><path
       id="path748"
       style="fill:#000000;stroke-width:0.264583"
       d="m 161.12825,140.09122 c -0.0757,0 -0.34974,0.48942 -0.60875,1.08727 -0.43081,0.99449 -0.43564,1.14087 -0.0563,1.71979 0.22804,0.34803 0.51645,0.63252 0.64079,0.63252 0.33575,0 0.75701,-0.58934 0.85111,-1.19062 0.0811,-0.51812 -0.55517,-2.24896 -0.82683,-2.24896 z m -2.73833,0.96428 c -0.0805,-0.003 -0.13679,0.0956 -0.20981,0.28061 -0.32634,0.82664 -0.23921,1.87795 0.19121,2.30838 0.52476,0.52477 1.06986,0.53259 1.2671,0.0186 0.18776,-0.48929 -0.0283,-1.0981 -0.73174,-2.06241 -0.27014,-0.37034 -0.41328,-0.54152 -0.51676,-0.54519 z m 5.5764,0.0413 c -0.12185,5.5e-4 -0.30091,0.19422 -0.61856,0.62477 -0.61046,0.82743 -0.81488,1.80098 -0.45372,2.16214 0.85086,0.85086 1.80645,-1.13231 1.24747,-2.58899 -0.0496,-0.12923 -0.10207,-0.19824 -0.17519,-0.19792 z m 1.69137,2.03709 -0.67644,0.91157 c -0.37189,0.50121 -0.67593,1.13426 -0.67593,1.40715 0,0.36322 0.15953,0.47376 0.59531,0.41186 0.5135,-0.0729 0.60623,-0.26656 0.67593,-1.40767 z m -8.72608,0.0765 -0.17983,0.95653 c -0.11748,0.62624 -0.063,1.09746 0.15709,1.36271 0.40578,0.48893 1.14322,0.39756 1.24954,-0.15451 0.0422,-0.2191 -0.2167,-0.79572 -0.57516,-1.28158 z m 4.15013,1.11879 c -0.64537,0.01 -1.26564,0.14458 -1.5844,0.43305 -0.2661,0.24083 -0.48369,0.55905 -0.48369,0.70694 0,0.14789 -0.18634,0.47455 -0.41392,0.72605 -0.64553,0.71329 -0.57067,2.09758 0.14469,2.67684 0.41442,0.33557 0.78489,0.42892 1.16582,0.29352 0.30714,-0.10912 0.97534,-0.17473 1.48466,-0.14573 0.50933,0.029 1.21725,0.0671 1.57303,0.0848 1.29283,0.0641 1.78407,-1.75974 0.80822,-3.00033 -0.29104,-0.37 -0.52916,-0.79858 -0.52916,-0.9524 0,-0.50135 -1.02662,-0.8118 -2.03605,-0.82269 -0.0432,-4.6e-4 -0.0862,-6.3e-4 -0.1292,0 z" /></g></svg>
