<svg xmlns="http://www.w3.org/2000/svg" width="915" height="915"><path d="M353 238a24954 24954 0 0 0 39 0 123 123 0 0 1 50 8l11 3 17 6 9 5c5 1 9 4 13 6l9 5 16 12 11 6 13 10 2 2a692 692 0 0 1 10 11c8 7 13 13 18 22l5 8 13 23 4 6c4 4 4 9 5 15l5 12c4 6 4 14 5 21a119 119 0 0 0 7 30l1 3c2 7 1 14 1 21a459762325 459762325 0 0 0 1 24c0 18 0 34-6 51-3 8-4 17-5 25-1 6-2 11-5 16l-5 16c-1 5-3 9-6 13l-6 12-5 9-3 7c-2 6-5 10-9 14l-7 10-1 2-3 5a195 195 0 0 1-26 33 683 683 0 0 1-17 18l-1 2-4 4-14 14-9 8-14 13-2 1c-9 8-19 16-29 22l-13 9a192 192 0 0 1-31 21 466 466 0 0 1-66 36 576 576 0 0 0-25 12l-12 4-2 1-10 5c-8 4-16 7-25 9-4 1-7 2-10 5-5 3-11 3-17 4l-17 7c-4 2-9 2-14 2h-2c-6 0-11-1-15-5l-1-8c4-9 13-13 22-17l10-5 9-5a325 325 0 0 0 40-24c3-3 8-5 12-7l16-10 9-6 10-7 11-7 15-11 8-6 15-12c4-5 9-8 14-11 10-7 18-15 27-23l6-5a525 525 0 0 0 78-94 399 399 0 0 1 17-31l3-6c4-5 6-12 8-18l2-4c3-7 4-14 5-22l7-28c5-18 5-48-2-65l-5-23c-1-9-3-16-7-24l-4-7a103 103 0 0 0-15-23c-14-19-29-33-50-45l-2-1a160 160 0 0 0-37-16c-11-5-24-3-35-3h-9c-17-1-17-1-33 4-5 4-9 5-14 6-22 4-44 21-56 39-4 6-7 12-9 19l-7 16c-3 7-2 16-2 23v4c0 17 0 17 5 34l1 2c5 10 5 10 12 19l4 6c8 13 24 23 39 28l16 1c2-3 1-7 1-10v-8l1-42v-3c2-11 7-17 15-25l2-3c11-12 22-20 39-20h10a55 55 0 0 1 56 47v2c2 19 1 38-10 53l-2 3-14 18-2 2c-8 9-20 16-30 23l-5 3c-10 6-21 9-32 12l-10 3c-10 4-21 2-31-1l-7-2-4-1-8-2c-17-3-35-13-48-25l-8-5-9-8-6-5c-12-11-22-27-29-42l-1-2c-3-5-4-9-5-15l-7-19c-2-5-2-9-2-14v-10a3615 3615 0 0 1 0-31c0-11 1-21 5-31l4-11a122 122 0 0 1 16-36 116 116 0 0 1 18-24 110 110 0 0 1 24-23l5-4 2-2a49 49 0 0 1 11-6l6-3 2-1a291 291 0 0 1 54-20c11-4 25-3 37-3Z"/><path d="M424 98a17480 17480 0 0 0 84 0h4c10 1 19 2 29 5 6 3 13 4 20 5s13 3 20 7l11 4c6 2 11 4 16 8l11 5 7 4 10 4c8 2 14 7 20 13a143 143 0 0 0 16 10l22 18 9 8c11 9 21 19 29 30l6 6c5 4 8 9 11 14l10 14 14 22c3 6 6 11 11 16 3 4 4 8 5 13s3 8 6 12l4 13 4 9c3 6 4 12 5 19 2 6 3 11 7 16 2 3 2 6 2 10v2l1 3v8c1 30 1 30 8 58 2 7 1 14-1 21-5 17-6 35-7 53-1 9-2 16-6 24-3 5-3 10-4 15-1 10-4 18-9 27l-3 8-8 17a12525 12525 0 0 0-20 37l-11 16-9 12c-7 12-16 22-26 32l-3 3-15 14-3 3a362 362 0 0 1-42 32l-6 4a157 157 0 0 1-42 22l-17 8-9 3-10 3-12 5c-7 3-14 5-22 6-10 1-18 2-27 6-9 3-21 4-30 1l-5-5c-1-5 1-8 4-12a81 81 0 0 1 10-8l1-2 14-12c7-7 15-9 24-10 6-2 11-3 16-6l12-3a156 156 0 0 0 31-12l12-6 8-3 15-10 9-6 16-11 2-2 15-13 11-10a196 196 0 0 0 36-38l7-11 5-7c5-8 10-15 13-23l4-7c4-4 5-9 7-14l4-10c3-5 5-10 6-16l4-9 3-15c1-6 2-10 5-15a42 42 0 0 0 4-18 274 274 0 0 0 1-43 3863 3863 0 0 1 0-58v-2l-5-17-5-19-6-19-5-14c-2-5-3-10-6-14l-3-9a100 100 0 0 0-11-19 1022 1022 0 0 0-17-24l-5-8-12-15-2-3-17-19-2-2c-7-7-15-13-23-18a322 322 0 0 1-22-18l-9-5-12-7c-15-9-31-18-49-22l-11-5-17-4c-9-1-17-3-25-7l-21-3h-3a816 816 0 0 0-73 0h-2c-8 1-14 2-21 5l-21 5c-7 1-13 4-20 6l-14 5-17 7-8 3c-6 2-12 6-18 10a13709 13709 0 0 1-32 21c-18 11-36 29-50 45l-2 3h-2l-1 2-6 8a184 184 0 0 0-27 43l-5 8-7 10-3 6c-3 5-4 10-5 14l-4 10c-3 7-4 12-5 19l-4 9c-4 7-4 13-5 21l-1 12v2l-4 18c-6 22-3 47 2 70l3 27c1 9 4 16 7 24l4 13c1 6 3 10 6 15l4 10c1 5 3 9 6 13l3 8c2 6 5 10 8 15l5 7c5 10 12 19 20 28l10 12c8 11 18 22 29 30l7 7a161 161 0 0 0 24 18l28 18c13 7 13 7 15 12 0 3-1 5-4 8l-7 5-3 2c-8 6-14 8-25 7-9-2-16-7-23-12l-9-6c-13-8-24-18-34-29l-10-10-10-9-13-14c-7-7-13-13-17-21l-11-16a225 225 0 0 1-26-47c-3-4-4-9-6-14l-3-7c-3-5-4-10-5-15l-5-14c-4-7-5-14-5-22-1-11-4-22-7-33-2-5-2-11-2-17v-3a2500 2500 0 0 1 0-57c0-12 1-23 5-34 3-8 4-15 4-23 1-7 2-12 5-18l6-17a123 123 0 0 1 11-28 290 290 0 0 1 29-54c5-11 13-19 21-29 4-3 6-7 9-11 5-7 12-13 19-19l6-6 18-16 11-9c7-6 14-11 23-16l16-10 14-8 5-3 8-4c4-1 7-2 9-4 4-3 8-5 13-6l11-4 25-7 18-6 18-3h31Z"/><path d="m720 334 4 3 2 2c11 10 19 24 20 38-1 12-8 25-16 34-10 9-24 16-38 15-12-1-26-9-34-18-10-13-11-29-10-45 2-9 8-15 14-22l2-2c14-13 40-17 56-5ZM723 482c11 8 20 23 23 36 1 9 0 15-5 23l-4 8c-5 9-12 16-21 19-14 4-32 3-45-2-10-6-18-15-22-26-3-12-2-28 3-39a49 49 0 0 1 6-7c15-16 45-24 65-12Z"/></svg>