<svg xmlns="http://www.w3.org/2000/svg" xmlns:xlink="http://www.w3.org/1999/xlink" viewBox="0 0 578.7 578.66"><defs><style>.cls-1{fill:none;}.cls-2{fill:#2595a0;}.cls-3{fill:#fff;}.cls-4{clip-path:url(#clip-path);}</style><clipPath id="clip-path" transform="translate(0 0)"><path class="cls-1" d="M289.34,0a19.54,19.54,0,0,0-13.89,5.78L5.77,275.42a19.73,19.73,0,0,0,0,27.85L275.45,572.92a19.64,19.64,0,0,0,27.82,0L573,303.27a19.76,19.76,0,0,0,0-27.85L303.27,5.78A19.61,19.61,0,0,0,289.34,0Z"/></clipPath></defs><g id="Layer_2" data-name="Layer 2"><g id="Brittle"><path class="cls-2" d="M289.35,573.68a14.57,14.57,0,0,1-10.39-4.3L9.32,299.74a14.69,14.69,0,0,1,0-20.77L279,9.29a14.69,14.69,0,0,1,20.77,0L569.38,279a14.69,14.69,0,0,1,0,20.77L299.73,569.38a14.53,14.53,0,0,1-10.38,4.3" transform="translate(0 0)"/><path class="cls-3" d="M289.35,10a9.62,9.62,0,0,1,6.84,2.82L565.84,282.51a9.67,9.67,0,0,1,0,13.68L296.19,565.84a9.63,9.63,0,0,1-13.68,0L12.86,296.19a9.67,9.67,0,0,1,0-13.68L282.51,12.83A9.62,9.62,0,0,1,289.35,10m0-10a19.68,19.68,0,0,0-13.93,5.78L5.78,275.43a19.61,19.61,0,0,0,0,27.81L275.42,572.92a19.74,19.74,0,0,0,27.85,0L572.92,303.24a19.63,19.63,0,0,0,0-27.81L303.27,5.78A19.65,19.65,0,0,0,289.35,0" transform="translate(0 0)"/><g class="cls-4"><path class="cls-3" d="M290.28,190.14,280,197.43,255.45,182,241.77,126.8l27.57,7,17.3,18.91Zm91.14,166.79h28.95l3-40.34-46.94-12.75-14.92,20L355,348Zm-98.19,87.48,22.56-13.89-5.23-21.66-18.7-26.41L265,393.15,247.23,435.3ZM300.54,58.68,311.27,110l-4.13,32.8L328.8,169.4,378,147.32l20.07-36.43L333.32,46.13ZM201.32,90.21l59.57,13.59,24.87,20.28-4.13-62.89L305.2,18l-2.41-2.42a19,19,0,0,0-26.86,0ZM501.65,214.44,473.24,186,450.48,200.4l6.6,11.83Zm-264,247.3-14.42,48.65,52.7,52.7a19,19,0,0,0,26.86,0l38.55-38.55c-12-18.45-35.78-55.75-35.78-55.75Zm155-286,1.58,35.76-26.88,25.54,5,6.36,48.75-30.53,33.85-45.19-32.19-32.19Zm-20.29-6.38-44.67,40.33,1.62,19.6L345.43,238l29.85-34.28Zm48.3,216.44-71.76-9.56-18-14.82-17.53,34.18,14.34,20.05-7.29,42.6,39,48.27L443.86,422ZM208.27,437.33l31.22-66.74-36-50.82H165.22l-9.56,53.09-39.47,30.51,89.11,89.1ZM184.13,178.75l26.2,28,31.22,10L257,200.17l-19.36-16-14.82-69.94-38.19-7.41-28,28Zm343.78,61.94L452.05,228l-37.14,11.17-47.62,34.63,2.51,14.34,50.58,15.71L461,284.46l60.14,3.65,46.29-5.59a19.18,19.18,0,0,0-4.27-6.62Zm-42.82,75.9L430,315.46l2.27,49.68,27.93,40.58,93-93ZM133.78,355.77l5.47-29.36L98.92,340.5,64.5,321.59,40,327.21,97.3,384.48Zm46.47-147.86L142,234.56l-44.22,8.91V284l19.39,23.48,28.47-7.08L206.9,292l20.52-34.29L211,229.58l-24.86-5.26Zm-74.74,8.9,29.15-5,34-26.2L140.51,151,88.67,202.84ZM49.71,295l29.16.89-7.54-27.78s-3.14-26-5.1-42.8L16.1,275.4Z" transform="translate(0 0)"/></g><path class="cls-3" d="M303.48,264.4a132.6,132.6,0,0,1-16.71-32,1,1,0,0,0-1.82,0,134.67,134.67,0,0,1-16.75,32c-12.24,17-18.46,25.21-18.46,39.48a36.11,36.11,0,0,0,72.21,0c0-14.27-6.19-22.53-18.47-39.48" transform="translate(0 0)"/></g></g></svg>