<svg xmlns="http://www.w3.org/2000/svg" xmlns:xlink="http://www.w3.org/1999/xlink" viewBox="0 0 578.7 578.66"><defs><style>.cls-1{fill:none;}.cls-2{clip-path:url(#clip-path);}.cls-3{fill:#80394b;}.cls-4{fill:#fff;}</style><clipPath id="clip-path" transform="translate(-10.65 -10.67)"><rect id="_Clipping_Path_" data-name="&lt;Clipping Path&gt;" class="cls-1" width="600" height="600"/></clipPath></defs><g id="Layer_2" data-name="Layer 2"><g id="Injure"><g class="cls-2"><path class="cls-3" d="M300,584.34a14.56,14.56,0,0,1-10.38-4.29L20,310.4a14.69,14.69,0,0,1,0-20.77L289.62,20a14.7,14.7,0,0,1,20.76,0L580,289.63a14.69,14.69,0,0,1,0,20.77L310.38,580.05A14.56,14.56,0,0,1,300,584.34" transform="translate(-10.65 -10.67)"/><path class="cls-4" d="M300,20.68a9.61,9.61,0,0,1,6.84,2.81L576.49,293.17a9.68,9.68,0,0,1,0,13.69L306.84,576.51a9.63,9.63,0,0,1-13.68,0L23.51,306.86a9.68,9.68,0,0,1,0-13.69L293.16,23.49A9.61,9.61,0,0,1,300,20.68m0-10a19.65,19.65,0,0,0-13.93,5.78L16.43,286.09a19.64,19.64,0,0,0,0,27.82L286.07,583.59a19.77,19.77,0,0,0,27.86,0L583.57,313.91a19.64,19.64,0,0,0,0-27.82L313.93,16.45A19.65,19.65,0,0,0,300,10.67" transform="translate(-10.65 -10.67)"/><path class="cls-4" d="M389.32,249.67a13.89,13.89,0,0,1,0-16.44c9.05-12.34,29.13-39.06,25.38-58.83a11.34,11.34,0,0,0-9.15-9.11c-11.65-2-26.92,7.49-38.44.13,8-20.45-1.79-51.26-21.35-41.46s-44.46,41.77-52.47,42.67c-4,.45-20.81-2-37.38-10.66S223,132.38,212.31,144.42c-14,15.68-10.22,43.91,18.25,76.85-21.35-1.79-56-1.14-64.12,14-5.4,10-.24,33.8,11.17,42.57,19.12-19,35.76-29.37,54.43-24.9-3.88,18-12.89,29-21.45,42.23-19.71,30.57-25.86,83.9,14.92,131.28,13.34,15.54,28.92,39.89,28.71,51.47,13.89-20-5.36-61.44-9-68-2.75-4.92-3.54-10.31-.1-14.92,5.91-8,35.38-35.32,46.62-28.58,13.24,7.91,10,33.39,31,45.46,6.16-9.7,22.9-30.46,39.2-27.34,16.75,3.2,13.62,37.42,25.76,45.32-2.51-18.87,17.64-34.66,30.05-69.49s3.68-67.39-28.47-110.68m-20.05-6.19c-26.3,2.34-38,13.13-65.36,13-18-.07-58.91-5-58.91-5s-3.78-13,1.31-25c6.64-.31,26.58,2.58,39.82,5.16,32.46,6.26,53.05-6.46,81-1.31,2.86,6.4,2.86,10.18,2.1,13.21" transform="translate(-10.65 -10.67)"/><path class="cls-3" d="M335.63,357a9.66,9.66,0,0,1-6.33-2.38l-1.07-.93a9.56,9.56,0,0,1-1.06-13.34l.1-.13,18.16-19.74-19.91-19.74-.14-.17a9.44,9.44,0,0,1-1.31-10.73l.52-1a9.5,9.5,0,0,1,8.53-5.19,9.69,9.69,0,0,1,7,3l18.09,20.19,14.23-18.71.28-.27a9.62,9.62,0,0,1,6.84-2.82,9.51,9.51,0,0,1,7.39,3.51l1.55,1.85a9.56,9.56,0,0,1-.62,12.86l-17.05,17.26,15.74,17.68a9.56,9.56,0,0,1,.86,11.62l-.55.86A9.59,9.59,0,0,1,371.94,352l-.21-.2-13.48-17.13-15.33,18.92-.07.06a9.56,9.56,0,0,1-7.22,3.31" transform="translate(-10.65 -10.67)"/></g></g></g></svg>