<svg xmlns="http://www.w3.org/2000/svg" xmlns:xlink="http://www.w3.org/1999/xlink" viewBox="0 0 578.7 578.7"><defs><style>.cls-1{fill:none;}.cls-2{clip-path:url(#clip-path);}.cls-3{fill:#705844;}.cls-4{fill:#fff;}</style><clipPath id="clip-path" transform="translate(-10.65 -10.65)"><rect class="cls-1" width="600" height="600"/></clipPath></defs><g id="Layer_2" data-name="Layer 2"><g id="Muddle"><g class="cls-2"><path class="cls-3" d="M300,584.35A14.52,14.52,0,0,1,289.62,580L20,310.38a14.67,14.67,0,0,1,0-20.76L289.62,20a14.65,14.65,0,0,1,20.76,0L580,289.62a14.67,14.67,0,0,1,0,20.76L310.38,580A14.52,14.52,0,0,1,300,584.35" transform="translate(-10.65 -10.65)"/><path class="cls-4" d="M300,20.66a9.66,9.66,0,0,1,6.84,2.82L576.49,293.14a9.63,9.63,0,0,1,0,13.72L306.84,576.52a9.71,9.71,0,0,1-13.68,0L23.51,306.86a9.63,9.63,0,0,1,0-13.72L293.16,23.48A9.66,9.66,0,0,1,300,20.66m0-10a19.67,19.67,0,0,0-13.93,5.79L16.41,286.09a19.68,19.68,0,0,0,0,27.82L286.07,583.57a19.68,19.68,0,0,0,27.86,0L583.59,313.91a19.68,19.68,0,0,0,0-27.82L313.93,16.44A19.67,19.67,0,0,0,300,10.65" transform="translate(-10.65 -10.65)"/><path class="cls-4" d="M284.11,175.35l3.38,32c.59,6,0,10.3-1.86,12.83A24.37,24.37,0,0,1,278,227l-38.62,23.76-6-4.9q9.38-12.84,8-26.12l-4.64-44.58q-.26-2.34,39.21-23.43t46.73-21.87c4.81-.5,12,4.65,21.57,15.37s14.65,19.21,15.28,25.45l7.05,67.63c.72,6.8-4.68,16.55-16.12,29.34a297.79,297.79,0,0,1-34.66,33.26L298.25,315l1.14,10.93c.85,8.11,2.87,14.27,6.08,18.53s6.29,6.55,9.2,6.76l4,.38.89,8.61q-35.58,26.2-38.33,26.51c-1.81.17-6.25-2.24-13.21-7.35s-10.77-10.3-11.32-15.79l-5.48-52.76c-.3-2.87,7.51-10.34,23.51-22.42s27.56-21.82,34.7-29.29,10.47-13.55,10-18.24l-4.73-45.33q-1.77-17.24-5.82-23.69a11.36,11.36,0,0,0-11.65-5.7c-5.07.51-9.46,3.59-13.09,9.25M265,446.44l-2.49-23.85c-.09-.76,5.06-3.76,15.49-8.91s16.42-7.85,18.11-8,4.39,1.78,8.1,5.87a22.87,22.87,0,0,1,6.33,13.17l3,28.54c.08.8-4.86,3.71-14.86,8.86s-16.17,7.81-18.53,8.06-5.28-1.77-8.74-6S265.75,454,265,446.44" transform="translate(-10.65 -10.65)"/></g></g></g></svg>