<svg xmlns="http://www.w3.org/2000/svg" xmlns:xlink="http://www.w3.org/1999/xlink" viewBox="0 0 578.7 578.7"><defs><style>.cls-1{fill:none;}.cls-2{clip-path:url(#clip-path);}.cls-3{fill:#b62025;}.cls-4{fill:#fff;}</style><clipPath id="clip-path" transform="translate(-10.65 -10.65)"><rect class="cls-1" width="600" height="600"/></clipPath></defs><g id="Layer_2" data-name="Layer 2"><g id="Provoke"><g class="cls-2"><path class="cls-3" d="M300,584.35a14.59,14.59,0,0,1-10.38-4.3L20,310.38a14.68,14.68,0,0,1,0-20.76L289.62,20a14.68,14.68,0,0,1,20.76,0L580.05,289.62a14.68,14.68,0,0,1,0,20.76L310.38,580.05a14.59,14.59,0,0,1-10.38,4.3" transform="translate(-10.65 -10.65)"/><path class="cls-4" d="M300,20.65a9.62,9.62,0,0,1,6.85,2.84L576.51,293.15a9.69,9.69,0,0,1,0,13.7L306.85,576.51a9.68,9.68,0,0,1-13.7,0L23.49,306.85a9.69,9.69,0,0,1,0-13.7L293.15,23.49A9.62,9.62,0,0,1,300,20.65m0-10a19.61,19.61,0,0,0-13.92,5.77L16.42,286.08a19.68,19.68,0,0,0,0,27.84L286.08,583.58a19.68,19.68,0,0,0,27.84,0L583.58,313.92a19.68,19.68,0,0,0,0-27.84L313.92,16.42A19.61,19.61,0,0,0,300,10.65" transform="translate(-10.65 -10.65)"/><path class="cls-4" d="M244.64,152.78l27.92-14.57c7.36,12.77,13.87,25.35,21.56,37.17,21.54,33.09,43.37,37.64,76.59,15.93,10.67-7,20.45-15.3,32-24,6.75,7.8,13.64,15.76,20.48,23.68C349.55,263.76,286,252,244.64,152.78Z" transform="translate(-10.65 -10.65)"/><path class="cls-4" d="M447.11,244.64l14.66,27.63c-13.67,8-27,15-39.48,23.3-30.23,20.31-34.65,41.31-15.16,72.31,7.49,11.92,16.6,22.82,25.62,35.06l-23.59,19.85C334.79,348.78,349.64,284.48,447.11,244.64Z" transform="translate(-10.65 -10.65)"/><path class="cls-4" d="M197.6,433.13l-20.09-23.7C254.37,330,316,353.32,355.9,446.73l-28.33,15.06c-4.75-8.55-9.24-16.63-13.75-24.7-27.55-49.3-52.81-54.31-97.51-19.29C210.36,422.46,204.62,427.37,197.6,433.13Z" transform="translate(-10.65 -10.65)"/><path class="cls-4" d="M153.18,355.69c-4.93-9.41-9.51-18.16-15-28.52,5.59-3.07,10.82-5.9,16-8.81,6.19-3.48,12.5-6.79,18.5-10.58,36.67-23.14,41.4-45.56,16.84-81.5-6.64-9.72-14.33-18.73-22.26-29l23.58-20.15C259.46,244.8,257.93,310.92,153.18,355.69Z" transform="translate(-10.65 -10.65)"/></g></g></g></svg>