<svg class="svg_icon" version="1.2" xmlns="http://www.w3.org/2000/svg" viewBox="0 0 580 580">
<defs>
<clipPath clipPathUnits="userSpaceOnUse" id="cp1">
<path d="m-10-10h600v600h-600z"/>
</clipPath>
</defs>
<style>
.a{fill:#dfa431}.b{fill:#fff}.c{fill:none;stroke:#fff;stroke-width:16}</style>
<g clip-path="url(#cp1)">
<path class="a" d="m290 574.3c-3.9 0-7.6-1.5-10.4-4.3l-269.6-269.6c-5.8-5.8-5.8-15 0-20.8l269.6-269.6c2.8-2.8 6.5-4.3 10.4-4.3 3.9 0 7.6 1.5 10.4 4.3l269.6 269.6c2.8 2.8 4.3 6.5 4.3 10.4 0 3.9-1.5 7.6-4.3 10.4l-269.6 269.6c-2.8 2.8-6.5 4.3-10.4 4.3z"/>
<path fill-rule="evenodd" class="b" d="m303.9 6.4l269.7 269.7c7.7 7.7 7.7 20.1 0 27.8l-269.7 269.7c-3.8 3.8-8.9 5.7-13.9 5.7-5 0-10.1-1.9-13.9-5.7l-269.7-269.7c-7.7-7.7-7.7-20.1 0-27.8l269.7-269.7c3.8-3.8 8.9-5.7 13.9-5.7 5 0 10.1 1.9 13.9 5.7zm-20.7 7.1l-269.7 269.6c-3.8 3.8-3.8 10 0 13.8l269.7 269.6c1.8 1.8 4.2 2.8 6.8 2.8 2.6 0 5-1 6.8-2.8l269.7-269.6c3.8-3.8 3.8-10 0-13.8l-269.7-269.6c-1.8-1.8-4.2-2.8-6.8-2.8-2.6 0-5 1-6.8 2.8z"/>
<path class="b" d="m289 207.4l35.8 62 35.9 62h-71.7-71.6l35.8-62z"/>
<ellipse class="b" cx="289" cy="148.4" rx="27" ry="27"/>
<path class="b" d="m392.9 385.8c-12.6-8-16.4-24.6-8.4-37.2 8-12.6 24.6-16.4 37.3-8.4 12.6 7.9 16.3 24.6 8.4 37.2-8 12.6-24.7 16.4-37.3 8.4z"/>
<path class="b" d="m157.7 343.6c12.4-8.3 29.1-5 37.4 7.4 8.3 12.4 4.9 29.2-7.4 37.5-12.4 8.3-29.2 4.9-37.5-7.5-8.3-12.4-4.9-29.2 7.5-37.4z"/>
<circle class="c" cx="289" cy="288.3" r="140.3"/>
<circle class="c" cx="289" cy="288.3" r="76.6"/>
</g>
</svg>

