<svg xmlns="http://www.w3.org/2000/svg" viewBox="0 0 578.7 578.7"><defs><style>.cls-1{fill:#d6a529;}.cls-2{fill:#fff;}.cls-3{fill:none;stroke:#fff;stroke-miterlimit:10;stroke-width:16px;}</style></defs><g id="Layer_2" data-name="Layer 2"><g id="Bless"><path class="cls-1" d="M289.35,573.69a14.59,14.59,0,0,1-10.39-4.3L9.31,299.73a14.68,14.68,0,0,1,0-20.77L279,9.31a14.67,14.67,0,0,1,20.77,0L569.39,279a14.69,14.69,0,0,1,0,20.77L299.73,569.39a14.57,14.57,0,0,1-10.38,4.3"/><path class="cls-2" d="M289.35,10a9.69,9.69,0,0,1,6.84,2.83L565.84,282.49a9.68,9.68,0,0,1,0,13.72L296.19,565.86a9.68,9.68,0,0,1-13.68,0L12.85,296.21a9.68,9.68,0,0,1,0-13.72L282.51,12.83A9.65,9.65,0,0,1,289.35,10m0-10a19.69,19.69,0,0,0-13.93,5.78L5.76,275.44a19.68,19.68,0,0,0,0,27.82L275.42,572.91a19.65,19.65,0,0,0,27.86,0L572.93,303.26a19.66,19.66,0,0,0,0-27.82L303.28,5.78A19.7,19.7,0,0,0,289.35,0"/><polygon class="cls-2" points="288.37 206.71 324.16 268.72 360 330.77 288.37 330.77 216.73 330.77 252.57 268.72 288.37 206.71"/><path class="cls-2" d="M315.37,147.74a27,27,0,1,1-27-27,27,27,0,0,1,27,27"/><path class="cls-2" d="M392.27,385.18a27,27,0,1,1,37.23-8.45,27,27,0,0,1-37.23,8.45"/><path class="cls-2" d="M157,342.92a27,27,0,1,1-7.47,37.44A27,27,0,0,1,157,342.92"/><path class="cls-3" d="M428.66,287.66A140.3,140.3,0,1,1,288.34,147.34,140.27,140.27,0,0,1,428.66,287.66Z"/><circle class="cls-3" cx="288.37" cy="287.66" r="76.57" transform="translate(-88.13 132.25) rotate(-22.5)"/></g></g></svg>