<svg class="svg_icon" version="1.2" xmlns="http://www.w3.org/2000/svg" viewBox="0 0 580 580">
<defs>
<clipPath clipPathUnits="userSpaceOnUse" id="cp1">
<path d="m590 588.05h-600v-596.1h600z"/>
</clipPath>
</defs>
<style>
.a{fill:#2ba2c5}.b{fill:#fff}</style>
<g clip-path="url(#cp1)">
<path class="a" d="m290 574.3c-3.9 0-7.6-1.5-10.4-4.3l-269.7-269.6c-5.7-5.7-5.7-15.1 0-20.8l269.7-269.6c2.8-2.8 6.5-4.3 10.4-4.3 3.9 0 7.6 1.5 10.4 4.3l269.6 269.6c2.8 2.8 4.3 6.5 4.3 10.4 0 3.9-1.5 7.6-4.3 10.4l-269.6 269.6c-2.8 2.8-6.5 4.3-10.4 4.3z"/>
<path fill-rule="evenodd" class="b" d="m303.9 6.4l269.7 269.7c7.7 7.7 7.7 20.1 0 27.8l-269.7 269.7c-3.8 3.8-8.9 5.7-13.9 5.7-5 0-10.1-1.9-13.9-5.7l-269.7-269.7c-7.7-7.7-7.7-20.1 0-27.8l269.7-269.7c3.8-3.8 8.9-5.7 13.9-5.7 5 0 10.1 1.9 13.9 5.7zm-20.7 7.1l-269.7 269.7c-3.8 3.7-3.8 9.9 0 13.6l269.7 269.7c1.8 1.8 4.2 2.8 6.8 2.8 2.6 0 5-1 6.8-2.8l269.7-269.7c3.8-3.7 3.8-9.9 0-13.6l-269.7-269.7c-1.8-1.8-4.2-2.8-6.8-2.8-2.6 0-5 1-6.8 2.8z"/>
<path class="b" d="m183 282.7c2.5-59.2 52.6-105.1 111.8-102.5 59.3 2.6 105.2 52.7 102.6 111.9-2.6 59.2-52.7 105.1-111.9 102.5-59.2-2.6-105.1-52.7-102.5-111.9z"/>
<path class="a" d="m286.5 370.3c-45.7-2-81.2-40.8-79.2-86.5 2-45.8 40.7-81.3 86.5-79.3 45.8 2 81.3 40.7 79.3 86.5-2 45.8-40.8 81.3-86.6 79.3z"/>
<path class="b" d="m231.1 377l55.1-80-12.2 96.5-57.4 85.1z"/>
<path class="b" d="m318.7 390.9l-12.3-66.5 41.5 53.5 13.7 70.1z"/>
<path class="b" d="m393.7 258.8l-66.5 12.3 53.4-41.5 70.2-13.6z"/>
<path class="b" d="m261.6 183.9l12.3 66.5-41.5-53.5-13.6-70.2z"/>
<path class="b" d="m186.7 315.9l66.5-12.2-53.5 41.5-70.2 13.6z"/>
<path class="b" d="m379.8 346.4l-80-55.1 96.5 12.2 85.1 57.5z"/>
<path class="b" d="m349.2 197.8l-55.1 79.9 12.2-96.4 57.4-85.1z"/>
<path class="b" d="m200.5 228.3l80 55.1-96.4-12.1-85.1-57.5z"/>
</g>
</svg>

