<svg class="svg_icon" version="1.2" xmlns="http://www.w3.org/2000/svg" viewBox="0 0 580 580">
<defs><clipPath clipPathUnits="userSpaceOnUse" id="cp1"><path d="m-10-10h600v600h-600z"/></clipPath><clipPath clipPathUnits="userSpaceOnUse" id="cp2"><path d="m303.94 6.44l269.66 269.65c3.63 3.63 5.53 8.32 5.74 13.04v1.69c-0.21 4.77-2.11 9.46-5.74 13.09l-269.66 269.66c-3.71 3.71-8.53 5.61-13.38 5.78h-1.14c-4.85-0.17-9.67-2.07-13.34-5.78l-269.66-269.66c-7.68-7.68-7.68-20.14 0-27.82l269.66-269.65c3.84-3.85 8.91-5.79 13.89-5.79 5.06 0 10.13 1.94 13.97 5.79z"/></clipPath></defs><style>.a{fill:#6b54ab}.b{fill:#fff}</style><g clip-path="url(#cp1)"><path class="a" d="m290 574.3c-3.9 0-7.6-1.5-10.4-4.3l-269.6-269.6c-5.8-5.8-5.8-15 0-20.8l269.6-269.6c2.8-2.8 6.5-4.4 10.4-4.4 3.9 0 7.6 1.6 10.4 4.4l269.6 269.6c2.8 2.8 4.3 6.5 4.3 10.4 0 3.9-1.5 7.6-4.3 10.4l-269.6 269.6c-2.8 2.8-6.5 4.3-10.4 4.3z"/><path fill-rule="evenodd" class="b" d="m303.9 6.4l269.7 269.7c7.7 7.7 7.7 20.1 0 27.8l-269.7 269.7c-3.8 3.8-8.9 5.7-13.9 5.7-5 0-10.1-1.9-13.9-5.7l-269.7-269.7c-7.7-7.7-7.7-20.1 0-27.8l269.7-269.7c3.8-3.8 8.9-5.7 13.9-5.7 5 0 10.1 1.9 13.9 5.7zm-20.7 7.1l-269.7 269.6c-3.8 3.8-3.8 10 0 13.8l269.7 269.6c1.8 1.8 4.2 2.8 6.8 2.8 2.6 0 5-1 6.8-2.8l269.7-269.6c3.8-3.8 3.8-10 0-13.8l-269.7-269.6c-1.8-1.8-4.2-2.8-6.8-2.8-2.6 0-5 1-6.8 2.8z"/><g clip-path="url(#cp2)"><path class="b" d="m208.5 3.8c0.9-2 2.9-3.1 5.1-3.1h95.5c1.7 0 3.4 0.8 4.5 2.2q43.2 57.9 42.6 59.7l-46.8 132.5c-1.5 4.3 2.3 8.5 6.7 7.5l71-16.7c4.3-0.9 8.1 3.1 6.7 7.4l-94.4 296.9c-1.9 6.1-10.8 5-11.1-1.4l-11-200.2c-0.2-3.8-4-6.4-7.6-5.2l-53.3 18.4c-3.3 1.1-6.9-1-7.5-4.4l-46.4-213.4q-0.2-1.2 46-80.2z"/></g></g></svg>
