<svg class="svg_icon" version="1.2" xmlns="http://www.w3.org/2000/svg" viewBox="0 0 580 580">
<defs><clipPath clipPathUnits="userSpaceOnUse" id="cp1"><path d="m-10-10h600v600h-600z"/></clipPath></defs><style>.a{fill:#a5322b}.b{fill:#fff}</style><g clip-path="url(#cp1)"><path class="a" d="m290 574.4c-3.9 0-7.6-1.6-10.4-4.3l-269.7-269.7c-2.7-2.8-4.3-6.5-4.3-10.4 0-3.9 1.6-7.6 4.3-10.4l269.7-269.7c2.8-2.7 6.5-4.2 10.4-4.2 3.9 0 7.6 1.5 10.4 4.2l269.7 269.7c2.7 2.8 4.3 6.5 4.3 10.4 0 3.9-1.6 7.6-4.3 10.4l-269.7 269.7c-2.8 2.7-6.5 4.3-10.4 4.3z"/><path fill-rule="evenodd" class="b" d="m303.9 6.4l269.7 269.7c7.7 7.7 7.7 20.1 0 27.8l-269.7 269.7c-3.8 3.8-8.9 5.7-13.9 5.7-5 0-10.1-1.9-13.9-5.7l-269.7-269.7c-7.7-7.7-7.7-20.1 0-27.8l269.7-269.7c3.8-3.8 8.9-5.7 13.9-5.7 5 0 10.1 1.9 13.9 5.7zm-20.8 7.1l-269.6 269.6c-3.8 3.8-3.8 10 0 13.8l269.6 269.6c1.9 1.8 4.3 2.9 6.9 2.9 2.6 0 5-1.1 6.9-2.9l269.6-269.6c3.8-3.8 3.8-10 0-13.8l-269.6-269.6c-1.9-1.8-4.3-2.9-6.9-2.9-2.6 0-5 1.1-6.9 2.9z"/><path class="b" d="m249.9 377.6c-2.4-0.4-4.7-1.9-5.9-4.2l-88.6-173.2c-2-3.9 0.8-6.3 4.7-8.4 3.9-2 7.5-2.8 9.5 1.1l88.6 173.2c2 3.9 0.5 8.7-3.4 10.7-1.6 0.8-3.3 1-4.9 0.8z"/><path class="b" d="m224.6 250.5q-1.5 11.2-1.8 23.6-32.5-64.5-36.6-72.7c8.3-5.9 10.2-19 12.4-29.8 7.8 4.4 9.4 25.5 14.8 34.4 1.5 2.4 4.1 2.8 6.3-2 7.4 10.5 6.8 32.5 4.9 46.5z"/><path class="b" d="m135.1 248c5.1 1.1 6.3-1.2 5.2-3.9-4.1-9.6-20.3-23-19.4-32 10 4.4 21.8 10.5 31.4 7.2q4.4 8 38.1 72-10.3-7-20.3-12.3c-12.5-6.6-30.8-18.8-35-31z"/><path class="b" d="m173.5 399.4c-7.6-14.1-1.5-36.8 9.8-45.4q5.7 0.6 29.6 3.2c22.1-9 51.6-14.5 58.5-18.7 6.9-17.5 21.3-32.4 21.3-58.6l30.1-2.8c5.3-0.3 9.4-4.8 9.1-10.1-0.1-3.2-1.8-5.9-4.3-7.6-1.6-1.1-3.6-1.7-5.8-1.5l-27.9 2.6c-0.1-9.1-1.3-20.6-3-32.4l31.5-2.8c5.3-0.3 9.4-4.8 9.2-10.1-0.2-3.2-1.9-5.9-4.3-7.6-1.7-1.1-3.7-1.7-5.9-1.6l-33.8 2.9c-2.7-13.5-5.8-25.7-8.6-32.6-0.6-1.7 0.1-3.5 1.7-4.3 27.7-13.2 64.1-17 104.3-10.1 1.4 0.2 2.3 1.6 1.9 3q-1.3 4.5-3.8 10.8 19.9 4.4 34.4 12.7c1.3 0.7 1.7 2.3 1 3.6-4.2 7.3-16.6 29.1-17.2 31.5-0.8 2.8-11.5 65.5-10.5 79 0.3 3.5 16.1 61.5 17.4 73.5 0.9 9.3-1.5 32.5-2 36.2-0.1 1.1-0.8 2-1.7 2.6-6.7 4-33.2 6.4-46.7 10.1-6-5.2-14.5-8.4-19.7-8.7-11.7-0.7-25.7 1.6-42.8 11.3-59.2 1-108.7-19.6-121.8-28.1z"/></g></svg>
