<svg class="svg_icon" version="1.2" xmlns="http://www.w3.org/2000/svg" viewBox="0 0 580 580">
<defs><clipPath clipPathUnits="userSpaceOnUse" id="cp1"><path d="m-10-10h600v600h-600z"/></clipPath></defs><style>.a{fill:#6e5541}.b{fill:#fff}</style><g clip-path="url(#cp1)"><path class="a" d="m290 574.3c-3.9 0-7.6-1.5-10.4-4.3l-269.6-269.6c-5.8-5.8-5.8-15 0-20.8l269.6-269.6c2.8-2.8 6.5-4.3 10.4-4.3 3.9 0 7.6 1.5 10.4 4.3l269.6 269.6c5.8 5.8 5.8 15 0 20.8l-269.6 269.6c-2.8 2.8-6.5 4.3-10.4 4.3z"/><path fill-rule="evenodd" class="b" d="m303.9 6.4l269.7 269.7c7.7 7.7 7.7 20.1 0 27.8l-269.7 269.7c-3.8 3.8-8.9 5.7-13.9 5.7-5 0-10.1-1.9-13.9-5.7l-269.7-269.7c-7.7-7.7-7.7-20.1 0-27.8l269.7-269.7c3.8-3.8 8.9-5.7 13.9-5.7 5 0 10.1 1.9 13.9 5.7zm-20.7 7.1l-269.7 269.6c-1.9 1.9-2.9 4.3-2.9 6.9 0 2.6 1 5 2.9 6.9l269.7 269.6c1.8 1.8 4.2 2.8 6.8 2.8 2.6 0 5-1 6.8-2.8l269.7-269.6c1.9-1.9 2.9-4.3 2.9-6.9 0-2.6-1-5-2.9-6.9l-269.7-269.6c-1.8-1.8-4.2-2.8-6.8-2.8-2.6 0-5 1-6.8 2.8z"/><path class="b" d="m274.1 165.3l3.4 32.1c0.6 6 0 10.3-1.9 12.8q-2.7 3.9-7.6 6.8l-38.6 23.7-6-4.9q9.3-12.8 7.9-26.1l-4.6-44.6q-0.2-2.3 39.2-23.4 39.5-21.1 46.8-21.9c4.8-0.5 11.9 4.7 21.5 15.4q14.3 16.1 15.3 25.5l7.1 67.6c0.7 6.8-4.7 16.5-16.2 29.3-11.4 12.8-23 23.9-34.6 33.3l-17.5 14 1.1 11q1.3 12.1 6.1 18.5c3.2 4.3 6.3 6.6 9.2 6.8l4 0.3 0.9 8.7q-35.6 26.2-38.4 26.5c-1.8 0.1-6.2-2.3-13.2-7.4-6.9-5-10.7-10.3-11.3-15.8l-5.5-52.7c-0.3-2.9 7.5-10.4 23.5-22.4q24-18.1 34.7-29.3 10.8-11.3 10-18.3l-4.7-45.3q-1.8-17.2-5.9-23.7-4-6.5-11.6-5.7c-5.1 0.5-9.5 3.6-13.1 9.2zm-19.2 271.1l-2.4-23.8c-0.1-0.8 5-3.8 15.4-8.9q15.6-7.8 18.2-8 2.5-0.3 8.1 5.8c3.7 4.1 5.8 8.5 6.3 13.2l2.9 28.5c0.1 0.8-4.8 3.8-14.8 8.9q-15 7.7-18.5 8.1c-2.4 0.2-5.3-1.8-8.8-6q-5.2-6.4-6.4-17.8z"/></g></svg>
