<svg class="svg_icon" version="1.2" xmlns="http://www.w3.org/2000/svg" viewBox="0 0 580 580">
<defs><clipPath clipPathUnits="userSpaceOnUse" id="cp1"><path d="m-10-10h600v600h-600z"/></clipPath></defs><style>.a{fill:#758166}.b{fill:#fff}</style><g clip-path="url(#cp1)"><path class="a" d="m290 574.3c-3.9 0-7.6-1.5-10.4-4.3l-269.6-269.6c-5.8-5.8-5.8-15 0-20.8l269.6-269.6c2.8-2.8 6.5-4.3 10.4-4.3 3.9 0 7.6 1.5 10.4 4.3l269.6 269.6c5.8 5.8 5.8 15 0 20.8l-269.6 269.6c-2.8 2.8-6.5 4.3-10.4 4.3z"/><path fill-rule="evenodd" class="b" d="m303.9 6.4l269.7 269.7c7.7 7.7 7.7 20.1 0 27.8l-269.7 269.7c-3.8 3.8-8.9 5.7-13.9 5.7-5 0-10.1-1.9-13.9-5.7l-269.7-269.7c-7.7-7.7-7.7-20.1 0-27.8l269.7-269.7c3.8-3.8 8.9-5.7 13.9-5.7 5 0 10.1 1.9 13.9 5.7zm-20.7 7.1l-269.7 269.6c-3.8 3.8-3.8 10 0 13.8l269.7 269.6c1.8 1.8 4.2 2.8 6.8 2.8 2.6 0 5-1 6.8-2.8l269.7-269.6c3.8-3.8 3.8-10 0-13.8l-269.7-269.6c-1.8-1.8-4.2-2.8-6.8-2.8-2.6 0-5 1-6.8 2.8z"/><path fill-rule="evenodd" class="b" d="m431.5 359q-18.3 12.9-62.1 15 6.6 41.5 0 47.6c-17.3 16-145.8 15-158.8 0q-5.9-6.8 0-47.6-43.8-2.1-62.2-15c-14.9-10.5-41-38.4-27.6-96.9 7.5-32.9 24.9-95.1 169.2-95.1 144.3 0 161.7 62.2 169.2 95.1 13.4 58.5-12.7 86.4-27.7 96.9zm-205.6-78.5l27.8-24.3 0.1-0.1c2-1.9 3-4.5 3-7.2 0-2.7-1-5.2-3-7.1-4-3.9-10.5-3.9-14.4 0l-24.3 27.8-24.8-27.7c-1.8-2-4.2-3-6.8-3-2.6 0-5 1-6.8 3-3.7 3.9-3.7 10.2 0 14.1l27.5 24.5-27.8 24.2-0.1 0.1c-2 1.9-3.1 4.4-3.1 7.2 0 2.7 1.1 5.2 3.1 7.1 1.9 1.9 4.5 2.9 7.3 2.9 2.8 0 5.4-1 7.4-2.9l24.1-27.8 24.6 27.6 0.1 0.1c1.8 1.8 4.2 2.9 6.9 2.9 2.6 0 5-1.1 6.8-2.9 3.8-3.9 3.8-10.1 0-13.9zm80.3 52.6c-2.8-13.5-8.3-17.7-17.2-16-8.9 1.7-23.4 36.8-19.6 44.2 3.4 6.6 9-2.6 22.2 0 8.8 1.7 12.3 8.7 17.6 5.7 5.3-2.9 0.8-16.1-3-33.9zm69.7-52.6l27.8-24.3 0.1-0.1c2-1.9 3-4.5 3-7.2 0-2.7-1-5.2-3-7.1-4-3.9-10.5-3.9-14.5 0l-24.2 27.8-24.8-27.7c-1.8-2-4.2-3-6.8-3-2.6 0-5 1-6.8 3-3.7 3.9-3.7 10.2 0 14.1l27.5 24.5-27.8 24.2-0.1 0.1c-2 1.9-3.1 4.5-3.1 7.2 0 2.7 1.1 5.2 3.1 7.1 2 1.9 4.5 2.9 7.3 2.9 2.8 0 5.4-1 7.4-2.9l24.1-27.8 24.6 27.6 0.1 0.1c1.8 1.8 4.2 2.9 6.8 2.9 2.7 0 5.1-1.1 6.9-2.9 3.8-3.9 3.8-10.1 0-13.9z"/></g></svg>
