<svg class="svg_icon" version="1.2" xmlns="http://www.w3.org/2000/svg" viewBox="0 0 580 580">
<defs><clipPath clipPathUnits="userSpaceOnUse" id="cp1"><path d="m-10-10h600v600h-600z"/></clipPath></defs><style>.a{fill:#c6271a}.b{fill:#fff}</style><g clip-path="url(#cp1)"><path class="a" d="m290 574.3c-3.9 0-7.6-1.5-10.4-4.3l-269.6-269.6c-2.8-2.8-4.3-6.5-4.3-10.4 0-3.9 1.5-7.6 4.3-10.4l269.6-269.6c2.8-2.8 6.5-4.3 10.4-4.3 3.9 0 7.6 1.5 10.4 4.3l269.6 269.6c2.8 2.8 4.3 6.5 4.3 10.4 0 3.9-1.5 7.6-4.3 10.4l-269.6 269.6c-2.8 2.8-6.5 4.3-10.4 4.3z"/><path fill-rule="evenodd" class="b" d="m303.9 6.4l269.7 269.7c7.7 7.7 7.7 20.1 0 27.8l-269.7 269.7c-3.8 3.8-8.9 5.7-13.9 5.7-5 0-10.1-1.9-13.9-5.7l-269.7-269.7c-7.7-7.7-7.7-20.1 0-27.8l269.7-269.7c3.8-3.8 8.9-5.7 13.9-5.7 5 0 10.1 1.9 13.9 5.7zm-20.7 7.1l-269.7 269.7c-3.8 3.7-3.8 9.9 0 13.6l269.7 269.7c1.8 1.8 4.2 2.8 6.8 2.8 2.6 0 5-1 6.8-2.8l269.7-269.7c3.8-3.7 3.8-9.9 0-13.6l-269.7-269.7c-1.8-1.8-4.2-2.8-6.8-2.8-2.6 0-5 1-6.8 2.8z"/><path class="b" d="m413.2 181c-6.9-8-13.8-15.9-20.5-23.7-11.5 8.7-21.3 17-32 24-33.2 21.7-55 17.2-76.6-15.9-7.7-11.8-14.2-24.4-21.5-37.2-9.6 5-18.3 9.6-28 14.6 41.4 99.1 104.9 111 178.6 38.2z"/><path class="b" d="m399.2 412.8c7.7-6.6 15.6-13.2 23.6-19.9-9.1-12.2-18.2-23.1-25.7-35-19.5-31-15-52 15.2-72.3 12.4-8.4 25.8-15.3 39.5-23.3-5.2-9.7-9.9-18.7-14.7-27.7-97.5 39.9-112.3 104.2-37.9 178.2z"/><path class="b" d="m187.6 423.1c-7.4-8.7-13.7-16.2-20.1-23.7 76.9-79.4 138.5-56.1 178.4 37.3-8.8 4.7-17.8 9.5-28.3 15.1-4.8-8.6-9.3-16.6-13.8-24.7-27.5-49.3-52.8-54.3-97.5-19.3-5.9 4.7-11.7 9.6-18.7 15.3z"/><path class="b" d="m180.9 167.1c-7.7 6.6-15.5 13.3-23.6 20.2 8 10.3 15.6 19.3 22.3 29 24.5 35.9 19.8 58.3-16.9 81.5-6 3.8-12.3 7.1-18.5 10.6-5.1 2.9-10.4 5.7-16 8.8 5.5 10.3 10 19.1 15 28.5 104.7-44.8 106.3-110.9 37.7-178.6z"/></g></svg>
