<svg class="svg_icon" version="1.2" xmlns="http://www.w3.org/2000/svg" viewBox="0 0 580 580">
<defs><clipPath clipPathUnits="userSpaceOnUse" id="cp1"><path d="m-10-10h600v600h-600z"/></clipPath></defs><style>.a{fill:#474e4e}.b{fill:#fff}</style><g clip-path="url(#cp1)"><path class="a" d="m574.3 290c0 3.9-1.5 7.6-4.3 10.4l-269.6 269.6c-5.8 5.8-15 5.8-20.8 0l-269.6-269.6c-2.8-2.8-4.3-6.5-4.3-10.4 0-3.9 1.5-7.6 4.3-10.4l269.6-269.6c5.8-5.8 15-5.8 20.8 0l269.6 269.6c2.8 2.8 4.3 6.5 4.3 10.4z"/><path fill-rule="evenodd" class="b" d="m6.4 276.1l269.7-269.7c7.7-7.7 20.1-7.7 27.8 0l269.7 269.7c3.8 3.8 5.7 8.9 5.7 13.9 0 5-1.9 10.1-5.7 13.9l-269.7 269.7c-7.7 7.7-20.1 7.7-27.8 0l-269.7-269.7c-3.8-3.8-5.7-8.9-5.7-13.9 0-5 1.9-10.1 5.7-13.9zm7.1 20.7l269.6 269.7c1.9 1.9 4.3 2.9 6.9 2.9 2.6 0 5-1 6.9-2.9l269.6-269.7c1.8-1.8 2.8-4.2 2.8-6.8 0-2.6-1-5-2.8-6.8l-269.6-269.7c-1.9-1.9-4.3-2.9-6.9-2.9-2.6 0-5 1-6.9 2.9l-269.6 269.7c-1.8 1.8-2.8 4.2-2.8 6.8 0 2.6 1 5 2.8 6.8z"/><path class="b" d="m247.9 293.4c6.7-6.6 20.2-16.3 42.1-16.3 22 0 35.4 9.7 42.1 16.3 3.2 3.2 5.2 7.6 5.5 12.2l4.2 65.7c0.3 5.1-4.3 8.1-7.9 5.1-9.2-7.6-24.8-17.5-43.9-17.5-19.2 0-34.7 9.9-43.9 17.5-3.6 3-8.2 0-7.9-5.1l4.2-65.7c0.3-4.6 2.3-9 5.5-12.2z"/><path class="b" d="m240 429.5c8.1-9.3 24.1-22.8 50-22.8 25.9 0 41.9 13.5 50 22.8 3.8 4.5 6.2 10.7 6.6 17.2l1.2 18.5c0.4 6.3-4.7 10-8.8 6.2-10.3-9.4-27.7-21.6-49-21.6-21.3 0-38.7 12.2-49 21.6-4.1 3.8-9.2 0.1-8.8-6.2l1.2-18.5c0.4-6.5 2.8-12.7 6.6-17.2z"/><path class="b" d="m292.9 62.9l81 83c2 1.9 0.7 4.7-2.1 4.7h-44.1l6.5 101.9c0.2 3.6-3.7 5.8-6.8 3.6-7.8-5.4-21-12.7-37.4-12.7-16.4 0-29.6 7.3-37.4 12.7-3.1 2.2-7.1 0-6.8-3.6l6.5-101.9h-44.1c-2.8 0-4.1-2.8-2.1-4.7l81-83c1.4-1.4 4.4-1.4 5.8 0z"/><path class="b" d="m245.9 159.9l-1.4 22h-22c-3.2 0-6.2-1.8-7.7-4.8l-8.6-17.2z"/><path class="b" d="m374.6 159.9l-8.6 17.2c-1.4 3-4.4 4.8-7.6 4.8h-22.1l-1.3-22z"/></g></svg>
