<svg xmlns="http://www.w3.org/2000/svg" xmlns:xlink="http://www.w3.org/1999/xlink" viewBox="0 0 578.7 578.7"><defs><style>.cls-1,.cls-5{fill:none;}.cls-2{clip-path:url(#clip-path);}.cls-3{fill:#5b9977;}.cls-4{fill:#fff;}.cls-5{stroke:#fff;stroke-linecap:round;stroke-miterlimit:10;stroke-width:21.05px;stroke-dasharray:66.32 52.63;}</style><clipPath id="clip-path" transform="translate(-10.65 -10.65)"><rect class="cls-1" width="600" height="600"/></clipPath></defs><g id="Layer_2" data-name="Layer 2"><g id="Safeguard"><g class="cls-2"><path class="cls-3" d="M300,584.35a14.59,14.59,0,0,1-10.38-4.3L20,310.38a14.7,14.7,0,0,1,0-20.76L289.62,20a14.68,14.68,0,0,1,20.76,0L580.05,289.62a14.68,14.68,0,0,1,0,20.76L310.38,580.05a14.59,14.59,0,0,1-10.38,4.3" transform="translate(-10.65 -10.65)"/><path class="cls-4" d="M300,20.65a9.62,9.62,0,0,1,6.85,2.84L576.51,293.15a9.69,9.69,0,0,1,0,13.7L306.85,576.51a9.68,9.68,0,0,1-13.7,0L23.49,306.85a9.69,9.69,0,0,1,0-13.7L293.15,23.49A9.62,9.62,0,0,1,300,20.65m0-10a19.61,19.61,0,0,0-13.92,5.77L16.42,286.08a19.68,19.68,0,0,0,0,27.84L286.08,583.58a19.68,19.68,0,0,0,27.84,0L583.58,313.92a19.68,19.68,0,0,0,0-27.84L313.92,16.42A19.61,19.61,0,0,0,300,10.65" transform="translate(-10.65 -10.65)"/><path class="cls-5" d="M300,455.11a40.56,40.56,0,0,1-21.94-6.43c-47.12-30.17-79.88-58.23-103.08-88.3-20.65-26.76-25-52.88-25-70.08a103.49,103.49,0,0,1,150-92.37A103.49,103.49,0,0,1,450,290.3c0,17.2-4.33,43.32-25,70.07-23.21,30.07-56,58.12-103.06,88.29A40.61,40.61,0,0,1,300,455.11Z" transform="translate(-10.65 -10.65)"/><path class="cls-4" d="M344.26,228.59A63,63,0,0,0,300,246.67a63.23,63.23,0,0,0-107.5,45.16c0,11.27,2.94,27.7,16.44,45.2,22.5,29.15,54.62,53.72,89.09,75.8a3.65,3.65,0,0,0,3.94,0c34.48-22.08,66.6-46.65,89.1-75.8,13.5-17.5,16.43-33.93,16.43-45.2a63.24,63.24,0,0,0-63.24-63.24" transform="translate(-10.65 -10.65)"/></g></g></g></svg>