<svg class="svg_icon" version="1.2" xmlns="http://www.w3.org/2000/svg" viewBox="0 0 580 580">
<defs><clipPath clipPathUnits="userSpaceOnUse" id="cp1"><path d="m-10-10h600v600h-600z"/></clipPath></defs><style>.a{fill:#224169}.b{fill:#fff}</style><g clip-path="url(#cp1)"><path class="a" d="m290 574.4c-3.9 0-7.6-1.6-10.4-4.3l-269.7-269.7c-5.7-5.7-5.7-15.1 0-20.8l269.7-269.7c2.8-2.7 6.5-4.2 10.4-4.2 3.9 0 7.6 1.5 10.4 4.2l269.7 269.7c5.7 5.7 5.7 15.1 0 20.8l-269.7 269.7c-2.8 2.7-6.5 4.3-10.4 4.3z"/><path fill-rule="evenodd" class="b" d="m303.9 6.4l269.7 269.7c7.7 7.7 7.7 20.1 0 27.8l-269.7 269.7c-3.8 3.8-8.9 5.7-13.9 5.7-5 0-10.1-1.9-13.9-5.7l-269.7-269.7c-7.7-7.7-7.7-20.1 0-27.8l269.7-269.7c3.8-3.8 8.9-5.7 13.9-5.7 5 0 10.1 1.9 13.9 5.7zm-20.8 7.1l-269.6 269.6c-3.8 3.8-3.8 10 0 13.8l269.6 269.6c1.9 1.8 4.3 2.9 6.9 2.9 2.6 0 5-1.1 6.9-2.9l269.6-269.6c1.8-1.9 2.9-4.3 2.9-6.9 0-2.6-1.1-5-2.9-6.9l-269.6-269.6c-1.9-1.8-4.3-2.9-6.9-2.9-2.6 0-5 1.1-6.9 2.9z"/><path class="b" d="m404.2 399.6l-69.1-30.5-41 120.5-46-118.7-67.7 33.3 30.5-69.1-120.5-41 118.7-46-33.3-67.7 69.1 30.5 41-120.5 46 118.7 67.7-33.3-30.5 69.1 120.5 41-118.7 46z"/><path class="a" d="m267.7 338.1l-31.4 7.9 9.3-32.3-67.4-21.4 66.1-24.6-10.3-31.4 32.5 7.5 21.2-65.6 24.6 64.2 31.5-8.4-9.4 32.3 67.4 21.4-66.1 24.6 10.3 31.4-32.5-7-21.2 65.1z"/><path class="b" d="m290 244.9l12 33.1 33.1 12-33.1 12-12 33.1-12-33.1-33.1-12 33.1-12z"/></g></svg>
