<svg xmlns="http://www.w3.org/2000/svg" xmlns:xlink="http://www.w3.org/1999/xlink" viewBox="0 0 578.7 578.66"><defs><style>.cls-1{fill:none;}.cls-2{clip-path:url(#clip-path);}.cls-3{fill:#4f504f;}.cls-4{fill:#fff;}</style><clipPath id="clip-path" transform="translate(-10.65 -10.67)"><rect id="_Cllpping_Path_" data-name="&lt;Cllpping Path&gt;" class="cls-1" width="600" height="600"/></clipPath></defs><g id="Layer_2" data-name="Layer 2"><g id="Swing"><g class="cls-2"><path class="cls-3" d="M300,584.35a14.57,14.57,0,0,1-10.38-4.3L20,310.4a14.68,14.68,0,0,1,0-20.77L289.62,20a14.68,14.68,0,0,1,20.76,0L580,289.63a14.68,14.68,0,0,1,0,20.77L310.38,580.05a14.57,14.57,0,0,1-10.38,4.3" transform="translate(-10.65 -10.67)"/><path class="cls-4" d="M300,20.67a9.62,9.62,0,0,1,6.84,2.82L576.49,293.17a9.65,9.65,0,0,1,0,13.69L306.84,576.51a9.63,9.63,0,0,1-13.68,0L23.51,306.86a9.65,9.65,0,0,1,0-13.69L293.16,23.49A9.62,9.62,0,0,1,300,20.67m0-10a19.65,19.65,0,0,0-13.93,5.78L16.43,286.09a19.64,19.64,0,0,0,0,27.82L286.07,583.59a19.77,19.77,0,0,0,27.86,0L583.57,313.91a19.64,19.64,0,0,0,0-27.82L313.93,16.45A19.65,19.65,0,0,0,300,10.67" transform="translate(-10.65 -10.67)"/><path class="cls-4" d="M236,212.27l49.56-48.42a1.63,1.63,0,0,1,2.84,1.3v97.73a1.63,1.63,0,0,1-2.84,1.29L236,215.76a2.61,2.61,0,0,1,0-3.49Z" transform="translate(-10.65 -10.67)"/><path class="cls-4" d="M307.09,173.68v11.44q-3.54-.08-7.09-.07-3,0-6,0V164l10.27,5.12A5.14,5.14,0,0,1,307.09,173.68Z" transform="translate(-10.65 -10.67)"/><path class="cls-4" d="M307.09,243.22v11.64a5.16,5.16,0,0,1-2.86,4.61L294,264.58V243.21q3,0,6,0C302.37,243.17,304.74,243.18,307.09,243.22Z" transform="translate(-10.65 -10.67)"/><path class="cls-4" d="M300,189c14.08,0,30.92.91,44.26,2.21a3,3,0,0,1,2.74,3l-1.66,7.19a65.93,65.93,0,0,0,0,29.61l1.68,7.36a3,3,0,0,1-3.32,3c-13.1-1.22-29.73-2.11-43.68-2.11q-5.85,0-11.6.16l-2,0V189.16l2,0C292.25,189,296.11,189,300,189Z" transform="translate(-10.65 -10.67)"/><path class="cls-4" d="M372.27,195.15a297.45,297.45,0,0,1,43.22,11.15,3,3,0,0,1,2,3.52l-1.71,8.08a66,66,0,0,0-.16,26.56l1.44,7.24a3,3,0,0,1-3.86,3.5,316.65,316.65,0,0,0-41.74-10.06,3.06,3.06,0,0,1-2.51-2.41l-2.06-10.39a66.32,66.32,0,0,1,.11-26.22l1.78-8.57A3,3,0,0,1,372.27,195.15Z" transform="translate(-10.65 -10.67)"/><path class="cls-4" d="M471.67,246.53c0,4.73-6.14,14-21.48,23.91a111.48,111.48,0,0,0-15.54-7.5,3,3,0,0,1-1.88-2.25l-2-10.17a66.12,66.12,0,0,1,.24-27c.52-2.39,1-4.7,1.4-6.51a3,3,0,0,1,4.23-2.15C465,227.66,471.67,240.28,471.67,246.53Z" transform="translate(-10.65 -10.67)"/><path class="cls-4" d="M490.44,246.54v73.68c0,22.29-21.2,42.48-55.5,57.11V303.65q8.13-3.47,15.25-7.34a121,121,0,0,0,19.43-12.93C482.94,272.33,490.44,259.81,490.44,246.54Z" transform="translate(-10.65 -10.67)"/><path class="cls-4" d="M290.63,332.65v-37.1c0-2.42,2.74-4.21,4.72-3.09l88.13,68.44a4.42,4.42,0,0,1,0,7l-88.13,68.44c-2,1.12-4.72-.69-4.72-3.08V332.65Z" transform="translate(-10.65 -10.67)"/><path class="cls-4" d="M307.35,292.12l19.59,3.68a14.2,14.2,0,0,1,6.14,2.76L413.9,360.9a4.45,4.45,0,0,1,0,7l-80.82,62.34a14.2,14.2,0,0,1-6.14,2.76l-19.59,3.68,87.42-68.8a4.44,4.44,0,0,0,0-7Z" transform="translate(-10.65 -10.67)"/><path class="cls-4" d="M293.65,327.43v73.68a475.07,475.07,0,0,1-72.53-7.26,3.06,3.06,0,0,1-2.49-3.44l1.7-12a152.06,152.06,0,0,0,.17-41.7l-1.73-12.9a3,3,0,0,1,3.55-3.41A474.69,474.69,0,0,0,293.65,327.43Z" transform="translate(-10.65 -10.67)"/><path class="cls-4" d="M213.39,198.12v50c-24.85,5.4-46.54,13.07-63.58,22.35h0c-15.33-9.87-21.47-19.2-21.47-23.92,0-6.51,11.69-21.8,43.07-35.14A250.37,250.37,0,0,1,213.39,198.12Z" transform="translate(-10.65 -10.67)"/><path class="cls-4" d="M149.8,296.31c2.45,1.33,1.8,1.07,3.13,1.69a3.05,3.05,0,0,1,1.73,2.37l2.17,16.81a152.33,152.33,0,0,1-.4,41.79l-1.38,9.32a3.06,3.06,0,0,1-4.37,2.29c-28.38-14-41.12-30.16-41.12-50.36V246.53c0,13.28,7.51,25.8,20.82,36.85A122.19,122.19,0,0,0,149.8,296.31Z" transform="translate(-10.65 -10.67)"/><path class="cls-4" d="M175.24,307.59c7.56,2.74,15.6,5.53,24.06,7.68a3.06,3.06,0,0,1,2.28,2.55l2,15.3a152.16,152.16,0,0,1-.21,41.66l-1.62,11.32a3.06,3.06,0,0,1-3.8,2.52c-8.86-2.34-17.27-5.34-25.13-8.22a3,3,0,0,1-2-3.3l1.68-11.48a152.72,152.72,0,0,0,.32-41.79l-1.7-13A3,3,0,0,1,175.24,307.59Z" transform="translate(-10.65 -10.67)"/></g></g></g></svg>