<?xml version="1.0" encoding="UTF-8" standalone="no"?>
<svg
   viewBox="0 0 8.11 5.8"
   version="1.1"
   id="svg1619"
   sodipodi:docname="minus1.svg"
   inkscape:version="1.2.2 (b0a8486541, 2022-12-01)"
   xmlns:inkscape="http://www.inkscape.org/namespaces/inkscape"
   xmlns:sodipodi="http://sodipodi.sourceforge.net/DTD/sodipodi-0.dtd"
   xmlns="http://www.w3.org/2000/svg"
   xmlns:svg="http://www.w3.org/2000/svg">
  <sodipodi:namedview
     id="namedview1621"
     pagecolor="#ffffff"
     bordercolor="#000000"
     borderopacity="0.25"
     inkscape:showpageshadow="2"
     inkscape:pageopacity="0.0"
     inkscape:pagecheckerboard="0"
     inkscape:deskcolor="#d1d1d1"
     showgrid="false"
     inkscape:zoom="135.34482"
     inkscape:cx="3.7349046"
     inkscape:cy="2.9073886"
     inkscape:window-width="1854"
     inkscape:window-height="1011"
     inkscape:window-x="0"
     inkscape:window-y="0"
     inkscape:window-maximized="1"
     inkscape:current-layer="svg1619" />
  <path
     id="path2518"
     clip-path="url(#clipPath2491)"
     d="M 3.87,2.89 V 3.01 L 3.59,3.27 H 2.35 V 3.16 L 2.64,2.89 Z"
     style="fill:#e34e61;fill-opacity:1" />
  <path
     d="M 4.86,1.43 V 4 a 0.3,0.3 0 0 0 0,0.18 A 0.16,0.16 0 0 0 5,4.24 V 4.37 L 4,4.79 V 4.6 a 0.16,0.16 0 0 0 0.1,0 L 4.19,4.53 A 0.56,0.56 0 0 0 4.29,4.18 V 1.81 A 0.26,0.26 0 0 0 4.22,1.64 0.42,0.42 0 0 0 4.1,1.56 L 4,1.53 V 1.42 L 4.62,1.11 A 0.49,0.49 0 0 1 4.81,1.25 0.26,0.26 0 0 1 4.9,1.43"
     id="path2512"
     clip-path="url(#clipPath2485)"
     style="fill:#e34e61;fill-opacity:1" />
</svg>
