<?xml version="1.0" encoding="UTF-8" standalone="no"?>
<!-- Created with Inkscape (http://www.inkscape.org/) -->

<svg
   width="69.28466mm"
   height="57.656429mm"
   viewBox="0 0 69.28466 57.656429"
   version="1.1"
   id="svg920"
   inkscape:version="1.1.2 (0a00cf5339, 2022-02-04)"
   sodipodi:docname="refresh.svg"
   xmlns:inkscape="http://www.inkscape.org/namespaces/inkscape"
   xmlns:sodipodi="http://sodipodi.sourceforge.net/DTD/sodipodi-0.dtd"
   xmlns="http://www.w3.org/2000/svg"
   xmlns:svg="http://www.w3.org/2000/svg">
  <sodipodi:namedview
     id="namedview922"
     pagecolor="#ffffff"
     bordercolor="#666666"
     borderopacity="1.0"
     inkscape:pageshadow="2"
     inkscape:pageopacity="0.0"
     inkscape:pagecheckerboard="0"
     inkscape:document-units="mm"
     showgrid="false"
     fit-margin-top="0"
     fit-margin-left="0"
     fit-margin-right="0"
     fit-margin-bottom="0"
     inkscape:zoom="1.3932941"
     inkscape:cx="128.83138"
     inkscape:cy="46.29317"
     inkscape:window-width="1846"
     inkscape:window-height="1136"
     inkscape:window-x="0"
     inkscape:window-y="0"
     inkscape:window-maximized="1"
     inkscape:current-layer="layer1" />
  <defs
     id="defs917">
    <clipPath
       clipPathUnits="userSpaceOnUse"
       id="clipPath1011">
      <path
         d="M 0,300 H 300 V 0 H 0 Z"
         id="path1009" />
    </clipPath>
  </defs>
  <g
     inkscape:label="Layer 1"
     inkscape:groupmode="layer"
     id="layer1"
     transform="translate(51.626675,-5.80667)">
    <g
       id="g1013"
       transform="matrix(0.28136617,0,0,-0.28136617,13.437669,19.466251)"
       style="fill:#000000" />
    <g
       id="g1025"
       transform="matrix(0.28136617,0,0,-0.28136617,-20.706284,15.404308)">
      <path
         d="m 0,0 c 31.615,-0.191 56.937,-10.168 73.598,-29.119 18.642,-21.204 22.467,-49.389 20.947,-74.222 7.58,-5.033 11.858,-14.251 10.135,-23.772 -2.313,-12.769 -14.542,-21.247 -27.311,-18.936 -12.767,2.313 -21.247,14.542 -18.934,27.311 1.261,6.968 5.481,12.654 11.128,16.01 1.702,24.548 -3.293,44.081 -14.74,57.101 C 40.822,-29.703 19.38,-25.35 1.271,-25.019 l 0.931,-18.329 -55.481,28.387 52.319,33.862 z"
         style="fill:#e34e61;fill-opacity:1;fill-rule:nonzero;stroke:none"
         id="path1027" />
    </g>
    <g
       id="g1029"
       transform="matrix(0.28136617,0,0,-0.28136617,-41.337515,23.505403)"
       style="fill:#ffffff" />
    <g
       id="g1033"
       transform="matrix(0.28136617,0,0,-0.28136617,-43.873384,32.013438)"
       style="fill:#ffffff" />
    <g
       id="g1037"
       transform="matrix(0.28136617,0,0,-0.28136617,-38.088074,32.907253)"
       style="fill:#ffffff" />
    <g
       id="g1041"
       transform="matrix(0.28136617,0,0,-0.28136617,-38.369159,32.580559)"
       style="fill:#ffffff" />
    <g
       id="g1045"
       transform="matrix(0.28136617,0,0,-0.28136617,-48.767608,32.580559)"
       style="fill:#ffffff" />
    <g
       id="g1049"
       transform="matrix(0.28136617,0,0,-0.28136617,-44.721591,58.029089)"
       style="fill:#ffffff" />
  </g>
</svg>
