<?xml version="1.0" encoding="UTF-8" standalone="no"?>
<!-- Created with Inkscape (http://www.inkscape.org/) -->

<svg
   version="1.1"
   id="svg2"
   width="584"
   height="584"
   viewBox="0 0 584 584"
   sodipodi:docname="damaged.svg"
   inkscape:version="1.1.2 (0a00cf5339, 2022-02-04)"
   xmlns:inkscape="http://www.inkscape.org/namespaces/inkscape"
   xmlns:sodipodi="http://sodipodi.sourceforge.net/DTD/sodipodi-0.dtd"
   xmlns="http://www.w3.org/2000/svg"
   xmlns:svg="http://www.w3.org/2000/svg">
  <defs
     id="defs6" />
  <sodipodi:namedview
     id="namedview4"
     pagecolor="#ffffff"
     bordercolor="#666666"
     borderopacity="1.0"
     inkscape:pageshadow="2"
     inkscape:pageopacity="0.0"
     inkscape:pagecheckerboard="0"
     showgrid="false"
     inkscape:zoom="1.494863"
     inkscape:cx="292"
     inkscape:cy="292"
     inkscape:window-width="1846"
     inkscape:window-height="1136"
     inkscape:window-x="0"
     inkscape:window-y="0"
     inkscape:window-maximized="1"
     inkscape:current-layer="g8" />
  <g
     inkscape:groupmode="layer"
     inkscape:label="Image"
     id="g8">
    <path
       style="fill:#000000"
       d="m 103,583.33634 c -1.375,-0.21521 -5.586407,-0.87784 -9.358683,-1.4725 C 86.283972,580.70402 83,578.53181 83,574.82503 c 0,-1.50741 8.245289,-10.48495 26.86424,-29.25 28.98803,-29.21549 29.14205,-29.42967 27.55904,-38.32503 -0.57804,-3.24813 -4.43179,-7.52244 -28.79531,-31.93778 C 84.252027,450.88445 79.999782,447.03461 76.75,446.45093 67.906195,444.86255 67.586004,445.09168 39,473.46534 24.425,487.93208 11.504498,500.07051 10.287773,500.43965 6.9867483,501.44112 4.1917976,499.4266 3.0640522,495.23299 -0.22023154,483.02014 -0.81912902,465.60053 1.544237,451.02747 c 7.9447615,-48.98925 45.8363,-86.59048 95.16147,-94.43239 12.564043,-1.99748 23.138203,-2.0178 35.163503,-0.0675 7.61576,1.23511 9.67035,1.28114 10.97827,0.24598 0.88497,-0.70043 18.71883,-16.55124 39.63078,-35.22402 42.8605,-38.27115 93.96026,-88.55902 123.58693,-121.62334 10.13914,-11.31562 25.98833,-28.97338 35.22042,-39.23948 l 16.78561,-18.66562 -1.53242,-8.76053 C 350.39936,98.162484 362.1183,60.636379 387.32623,34.673755 412.27521,8.977837 449.70168,-3.9723901 484.5,1.049896 498.47685,3.067112 502.00919,5.1142954 500.43965,10.287773 500.07051,11.504498 487.93208,24.425 473.46534,39 c -28.37366,28.586004 -28.60279,28.906195 -27.01441,37.75 0.58368,3.249782 4.43352,7.502027 28.86129,31.87797 24.41534,24.36352 28.68965,28.21727 31.93778,28.79531 8.89536,1.58301 9.10954,1.42899 38.32503,-27.55904 C 564.34008,91.245289 573.31762,83 574.82503,83 c 3.54123,0 5.83331,3.283655 7.06424,10.120305 6.55924,36.430325 -4.27692,73.235605 -29.38112,99.793725 -25.43553,26.90863 -62.51953,39.88973 -98.84402,34.59993 l -11.83587,-1.72361 -2.66413,2.42583 C 437.69886,229.55039 427.5,238.69169 416.5,248.53019 c -11,9.83851 -24.5,21.91717 -30,26.84149 -35.95163,32.18857 -80.2011,76.47653 -111.03172,111.12832 -12.88184,14.47842 -23.37143,26.21187 -37.79192,42.27331 l -11.82365,13.1691 1.57365,9.89812 c 9.90479,62.30056 -33.43839,121.22153 -96.12288,130.67 -9.07167,1.36737 -22.36531,1.75524 -28.30348,0.82581 z"
       id="path827" />
  </g>
</svg>
