<?xml version="1.0" encoding="UTF-8" standalone="no"?>
<!-- Created with Inkscape (http://www.inkscape.org/) -->

<svg
   version="1.1"
   id="svg2"
   width="567"
   height="594"
   viewBox="0 0 567 594"
   sodipodi:docname="downtime.svg"
   inkscape:version="1.1.2 (0a00cf5339, 2022-02-04)"
   xmlns:inkscape="http://www.inkscape.org/namespaces/inkscape"
   xmlns:sodipodi="http://sodipodi.sourceforge.net/DTD/sodipodi-0.dtd"
   xmlns="http://www.w3.org/2000/svg"
   xmlns:svg="http://www.w3.org/2000/svg">
  <defs
     id="defs6" />
  <sodipodi:namedview
     id="namedview4"
     pagecolor="#ffffff"
     bordercolor="#666666"
     borderopacity="1.0"
     inkscape:pageshadow="2"
     inkscape:pageopacity="0.0"
     inkscape:pagecheckerboard="0"
     showgrid="false"
     inkscape:zoom="1.3602694"
     inkscape:cx="283.39975"
     inkscape:cy="297"
     inkscape:window-width="1850"
     inkscape:window-height="1043"
     inkscape:window-x="0"
     inkscape:window-y="0"
     inkscape:window-maximized="1"
     inkscape:current-layer="g8" />
  <g
     inkscape:groupmode="layer"
     inkscape:label="Image"
     id="g8">
    <path
       style="fill:#000000"
       d="M 269.91127,593.02326 C 245.66131,590.67052 215.97224,583.8594 193,575.37864 163.20084,564.37757 128.53787,544.32163 106.94284,525.58614 73.494788,496.56714 50.65005,467.93702 32.461352,432.24237 17.36873,402.62364 8.6148902,374.75252 2.8614491,338 0.9454812,325.76095 0.5887309,319.52385 0.57352643,298 0.55018741,264.96068 3.3075051,244.34324 11.673711,215 34.345052,135.48361 90.469175,68.255081 165.5,30.738506 205.50677,10.734499 254.43849,-0.40671102 299.29801,0.2741797 L 314.17586,0.5 l 2.41207,2.8057637 c 5.12009,5.9557851 2.83383,9.6876793 -10.20206,16.6529303 -54.32511,29.026635 -96.75458,83.009526 -112.881,143.618166 -7.07473,26.58928 -9.35793,59.89846 -6.05832,88.38382 6.3304,54.65015 32.8302,106.25275 73.93673,143.97568 26.71326,24.51442 61.92946,43.59989 96.8598,52.49331 21.24203,5.40831 30.57543,6.70787 52.38754,7.29427 28.48629,0.76584 49.77829,-1.87662 74.44092,-9.23854 20.01207,-5.97371 42.76296,-16.61509 60.36624,-28.2354 7.1391,-4.71268 11.97506,-7.25 13.81798,-7.25 3.38698,0 7.74424,3.97344 7.74424,7.06206 0,3.30957 -13.57585,29.02217 -22.22543,42.0949 -11.67497,17.64518 -22.53675,30.80962 -38.67589,46.87503 -17.22418,17.1455 -26.47367,24.73093 -46.17843,37.87058 -36.27827,24.19129 -75.39178,39.07158 -121.42025,46.19294 -14.66343,2.26868 -53.75134,3.36728 -68.58873,1.92775 z"
       id="path827" />
  </g>
</svg>
