<?xml version="1.0" encoding="UTF-8" standalone="no"?>
<svg
   viewBox="0 0 10.000001 10"
   version="1.1"
   id="svg15"
   sodipodi:docname="prosperity.svg"
   width="10"
   height="10"
   inkscape:version="1.1.2 (0a00cf5339, 2022-02-04)"
   xmlns:inkscape="http://www.inkscape.org/namespaces/inkscape"
   xmlns:sodipodi="http://sodipodi.sourceforge.net/DTD/sodipodi-0.dtd"
   xmlns="http://www.w3.org/2000/svg"
   xmlns:svg="http://www.w3.org/2000/svg">
  <sodipodi:namedview
     id="namedview17"
     pagecolor="#ffffff"
     bordercolor="#666666"
     borderopacity="1.0"
     inkscape:pageshadow="2"
     inkscape:pageopacity="0.0"
     inkscape:pagecheckerboard="0"
     showgrid="false"
     width="8.1px"
     inkscape:zoom="48.826753"
     inkscape:cx="1.0547496"
     inkscape:cy="1.3824388"
     inkscape:window-width="1846"
     inkscape:window-height="1136"
     inkscape:window-x="0"
     inkscape:window-y="0"
     inkscape:window-maximized="1"
     inkscape:current-layer="svg15" />
  <defs
     id="defs7">
    <style
       id="style2">.cls-1{fill:none;}.cls-2{clip-path:url(#clip-path);}</style>
    <clipPath
       id="clip-path"
       transform="translate(-0.38 -0.08)">
      <rect
         class="cls-1"
         width="9.4300003"
         height="6.3600001"
         id="rect4"
         x="0"
         y="0" />
    </clipPath>
    <clipPath
       id="clip-path-7"
       transform="translate(-1.92 -0.76)">
      <rect
         class="cls-1"
         width="9.0900002"
         height="9.1899996"
         id="rect4-5"
         x="0"
         y="0" />
    </clipPath>
    <clipPath
       id="clip-path-3"
       transform="translate(-1.92 -0.76)">
      <rect
         class="cls-1"
         width="9.0900002"
         height="9.1899996"
         id="rect4-56"
         x="0"
         y="0" />
    </clipPath>
  </defs>
  <path
     d="m 7.5582174,7.4110838 c -0.22,0.13 -1.76,1.14 -2.37,1.53 a 0.08,0.08 0 0 1 -0.09,0 c -0.58,-0.39 -2.16,-1.4 -2.38,-1.53 v 0 c 0,-0.31 -0.1,-3.22 -0.21,-6.07 a 0.1,0.1 0 0 1 0.05,-0.11 v 0 c 0.89,0 1.31,0.24 2.56,0.24 1.25,0 1.57,-0.22 2.56,-0.24 a 0.09,0.09 0 0 1 0.1,0.1 v 0 c -0.15,2.86 -0.22,5.77 -0.22,6.08 v 0"
     id="path9-2" />
  <path
     class="cls-3"
     d="m 6.1982174,4.4010838 c 0,0 -0.41,-0.13 -1.09,-1 -0.68,0.92 -1.09,1 -1.09,1 0,0 -0.21,0 -0.63,-0.41 0.13,0.63 0.22,1.16 0.25,1.37 a 0.15,0.15 0 0 0 0.1,0.14 3.61,3.61 0 0 0 2.74,-0.03 0.15,0.15 0 0 0 0.08,-0.11 11.65,11.65 0 0 1 0.25,-1.37 c -0.42,0.43 -0.63,0.41 -0.63,0.41"
     id="path11-7"
     style="fill:#ffffff" />
</svg>
