<?xml version="1.0" encoding="UTF-8" standalone="no"?>
<!-- Created with Inkscape (http://www.inkscape.org/) -->

<svg
   width="205.94313mm"
   height="205.97595mm"
   viewBox="0 0 205.94314 205.97595"
   version="1.1"
   id="svg5"
   sodipodi:docname="pierce.svg"
   inkscape:version="1.1.2 (0a00cf5339, 2022-02-04)"
   xmlns:inkscape="http://www.inkscape.org/namespaces/inkscape"
   xmlns:sodipodi="http://sodipodi.sourceforge.net/DTD/sodipodi-0.dtd"
   xmlns="http://www.w3.org/2000/svg"
   xmlns:svg="http://www.w3.org/2000/svg">
  <sodipodi:namedview
     id="namedview78"
     pagecolor="#ffffff"
     bordercolor="#666666"
     borderopacity="1.0"
     inkscape:pageshadow="2"
     inkscape:pageopacity="0.0"
     inkscape:pagecheckerboard="0"
     inkscape:document-units="mm"
     showgrid="false"
     fit-margin-top="0"
     fit-margin-left="0"
     fit-margin-right="0"
     fit-margin-bottom="0"
     inkscape:zoom="1.0134873"
     inkscape:cx="49.827955"
     inkscape:cy="388.26338"
     inkscape:window-width="1850"
     inkscape:window-height="1016"
     inkscape:window-x="0"
     inkscape:window-y="0"
     inkscape:window-maximized="1"
     inkscape:current-layer="svg5" />
  <defs
     id="defs2">
    <clipPath
       clipPathUnits="userSpaceOnUse"
       id="clipPath1104">
      <path
         d="M 0,600 H 600 V 0 H 0 Z"
         id="path1102" />
    </clipPath>
    <clipPath
       clipPathUnits="userSpaceOnUse"
       id="clipPath1286">
      <path
         d="M 0,600 H 600 V 0 H 0 Z"
         id="path1284" />
    </clipPath>
    <clipPath
       clipPathUnits="userSpaceOnUse"
       id="clipPath1470">
      <path
         d="M 0,600 H 600 V 0 H 0 Z"
         id="path1468" />
    </clipPath>
    <clipPath
       clipPathUnits="userSpaceOnUse"
       id="clipPath1656">
      <path
         d="M 0,600 H 600 V 0 H 0 Z"
         id="path1654" />
    </clipPath>
    <clipPath
       clipPathUnits="userSpaceOnUse"
       id="clipPath1844">
      <path
         d="M 0,600 H 600 V 0 H 0 Z"
         id="path1842" />
    </clipPath>
    <clipPath
       clipPathUnits="userSpaceOnUse"
       id="clipPath2265">
      <path
         d="M 0,600 H 600 V 0 H 0 Z"
         id="path2263" />
    </clipPath>
    <clipPath
       clipPathUnits="userSpaceOnUse"
       id="clipPath2512">
      <path
         d="M 0,600 H 600 V 0 H 0 Z"
         id="path2510" />
    </clipPath>
    <clipPath
       clipPathUnits="userSpaceOnUse"
       id="clipPath2740">
      <path
         d="M 0,300 H 300 V 0 H 0 Z"
         id="path2738" />
    </clipPath>
    <clipPath
       clipPathUnits="userSpaceOnUse"
       id="clipPath2946">
      <path
         d="M 0,300 H 300 V 0 H 0 Z"
         id="path2944" />
    </clipPath>
    <clipPath
       clipPathUnits="userSpaceOnUse"
       id="clipPath3139">
      <path
         d="M 0,300 H 300 V 0 H 0 Z"
         id="path3137" />
    </clipPath>
    <clipPath
       clipPathUnits="userSpaceOnUse"
       id="clipPath3322">
      <path
         d="M 0,300 H 300 V 0 H 0 Z"
         id="path3320" />
    </clipPath>
    <clipPath
       clipPathUnits="userSpaceOnUse"
       id="clipPath3754">
      <path
         d="M 0,300 H 300 V 0 H 0 Z"
         id="path3752" />
    </clipPath>
    <clipPath
       clipPathUnits="userSpaceOnUse"
       id="clipPath3928">
      <path
         d="M 0,300 H 300 V 0 H 0 Z"
         id="path3926" />
    </clipPath>
    <clipPath
       clipPathUnits="userSpaceOnUse"
       id="clipPath4106">
      <path
         d="M 0,300 H 300 V 0 H 0 Z"
         id="path4104" />
    </clipPath>
    <clipPath
       clipPathUnits="userSpaceOnUse"
       id="clipPath4300">
      <path
         d="M 0,300 H 300 V 0 H 0 Z"
         id="path4298" />
    </clipPath>
    <clipPath
       clipPathUnits="userSpaceOnUse"
       id="clipPath4493">
      <path
         d="M 0,300 H 300 V 0 H 0 Z"
         id="path4491" />
    </clipPath>
    <clipPath
       clipPathUnits="userSpaceOnUse"
       id="clipPath4688">
      <path
         d="M 0,300 H 300 V 0 H 0 Z"
         id="path4686" />
    </clipPath>
    <clipPath
       clipPathUnits="userSpaceOnUse"
       id="clipPath4913">
      <path
         d="M 0,600 H 600 V 0 H 0 Z"
         id="path4911" />
    </clipPath>
    <clipPath
       clipPathUnits="userSpaceOnUse"
       id="clipPath5244">
      <path
         d="M 0,600 H 600 V 0 H 0 Z"
         id="path5242" />
    </clipPath>
    <clipPath
       clipPathUnits="userSpaceOnUse"
       id="clipPath5260">
      <path
         d="M 286.083,583.583 16.416,313.916 c -7.685,-7.686 -7.685,-20.146 0,-27.833 v 0 L 286.083,16.417 c 7.687,-7.686 20.147,-7.686 27.833,0 v 0 l 269.667,269.666 c 7.686,7.687 7.686,20.147 0,27.833 v 0 L 313.916,583.583 c -3.843,3.843 -8.879,5.765 -13.916,5.765 v 0 c -5.037,0 -10.074,-1.922 -13.917,-5.765"
         id="path5258" />
    </clipPath>
    <clipPath
       clipPathUnits="userSpaceOnUse"
       id="clipPath5462">
      <path
         d="M 0,600 H 600 V 0 H 0 Z"
         id="path5460" />
    </clipPath>
    <clipPath
       clipPathUnits="userSpaceOnUse"
       id="clipPath5478">
      <path
         d="M 286.083,583.583 16.417,313.916 c -7.687,-7.686 -7.687,-20.146 0,-27.833 v 0 L 286.083,16.417 c 7.687,-7.686 20.147,-7.686 27.834,0 v 0 l 269.666,269.666 c 7.686,7.687 7.686,20.147 0,27.833 v 0 L 313.917,583.583 c -3.843,3.843 -8.88,5.765 -13.917,5.765 v 0 c -5.037,0 -10.074,-1.922 -13.917,-5.765"
         id="path5476" />
    </clipPath>
    <clipPath
       clipPathUnits="userSpaceOnUse"
       id="clipPath5490">
      <path
         d="M 0,600 H 600 V 0 H 0 Z"
         id="path5488" />
    </clipPath>
    <clipPath
       clipPathUnits="userSpaceOnUse"
       id="clipPath5808">
      <path
         d="M 0,600 H 600 V 0 H 0 Z"
         id="path5806" />
    </clipPath>
    <clipPath
       clipPathUnits="userSpaceOnUse"
       id="clipPath6067">
      <path
         d="M 0,600 H 600 V 0 H 0 Z"
         id="path6065" />
    </clipPath>
    <clipPath
       clipPathUnits="userSpaceOnUse"
       id="clipPath6304">
      <path
         d="M 0,600 H 600 V 0 H 0 Z"
         id="path6302" />
    </clipPath>
    <clipPath
       clipPathUnits="userSpaceOnUse"
       id="clipPath6531">
      <path
         d="M 0,600 H 600 V 0 H 0 Z"
         id="path6529" />
    </clipPath>
    <clipPath
       clipPathUnits="userSpaceOnUse"
       id="clipPath6760">
      <path
         d="M 0,600 H 600 V 0 H 0 Z"
         id="path6758" />
    </clipPath>
    <clipPath
       clipPathUnits="userSpaceOnUse"
       id="clipPath7051">
      <path
         d="M 0,600 H 600 V 0 H 0 Z"
         id="path7049" />
    </clipPath>
    <clipPath
       clipPathUnits="userSpaceOnUse"
       id="clipPath7392">
      <path
         d="M 0,600 H 600 V 0 H 0 Z"
         id="path7390" />
    </clipPath>
    <clipPath
       clipPathUnits="userSpaceOnUse"
       id="clipPath7627">
      <path
         d="M 0,600 H 600 V 0 H 0 Z"
         id="path7625" />
    </clipPath>
  </defs>
  <path
     d="m 102.97156,203.29945 c -1.38359,0 -2.68393,-0.53869 -3.662538,-1.51694 L 4.1768518,106.65034 c -2.0189472,-2.0193 -2.0189472,-5.30543 0,-7.324725 L 99.309022,4.1930917 c 0.978608,-0.9779 2.278948,-1.5165916 3.662538,-1.5165916 1.38359,0 2.68393,0.5386916 3.66254,1.5165916 l 95.13217,95.1325233 c 2.01895,2.019295 2.01895,5.305425 0,7.324725 l -95.13217,95.13217 c -0.97861,0.97825 -2.27895,1.51694 -3.66254,1.51694"
     style="fill:none;fill-opacity:1;fill-rule:nonzero;stroke:#000000;stroke-width:5.353;stroke-miterlimit:4;stroke-dasharray:none;stroke-opacity:1"
     id="path7631" />
  <g
     id="g7637"
     transform="matrix(0.35277777,0,0,-0.35277777,154.68003,92.404605)"
     style="fill:#000000">
    <path
       d="m 0,0 -18.052,-18.182 h -347.302 l -7.221,-11.818 7.221,-11.818 H -18.052 L 0,-60 79.425,-30 Z"
       style="fill:#000000;fill-opacity:1;fill-rule:nonzero;stroke:none"
       id="path7639" />
  </g>
  <g
     id="g7641"
     transform="matrix(0.35277777,0,0,-0.35277777,123.0661,91.866831)"
     style="fill:#000000">
    <path
       d="M 0,0 30.093,23.392 H 3.461 L 30.093,69.554 -12.518,36.707 V 154.775 L -48.915,59.788 -71.996,105.063 V 56.682 l -25.633,9.321 23.939,-40.728 c 0.875,-1.488 2.817,-1.963 4.262,-1.022 5.714,3.725 20.408,11.101 38.452,3.368 C -17.294,21.758 -8.077,7.328 -4.522,0.917 -3.618,-0.715 -1.473,-1.145 0,0"
       style="fill:#000000;fill-opacity:1;fill-rule:nonzero;stroke:none"
       id="path7643" />
  </g>
  <g
     id="g7645"
     transform="matrix(0.35277777,0,0,-0.35277777,123.0661,114.88487)"
     style="fill:#000000">
    <path
       d="M 0,0 30.093,-23.392 H 3.461 l 26.632,-46.162 -42.611,32.846 v -118.068 l -36.397,94.987 -23.081,-45.274 v 48.381 l -25.633,-9.321 23.939,40.728 c 0.875,1.487 2.817,1.963 4.262,1.021 5.714,-3.724 20.408,-11.1 38.452,-3.367 13.682,5.863 22.899,20.293 26.454,26.704 C -3.618,0.715 -1.473,1.145 0,0"
       style="fill:#000000;fill-opacity:1;fill-rule:nonzero;stroke:none"
       id="path7647" />
  </g>
</svg>
