<?xml version="1.0" encoding="UTF-8" standalone="no"?>
<!-- Created with Inkscape (http://www.inkscape.org/) -->

<svg
   version="1.1"
   id="svg2"
   width="424.64001"
   height="131.84"
   viewBox="0 0 424.64001 131.84"
   sodipodi:docname="forced-linked.svg"
   inkscape:version="1.1.2 (0a00cf5339, 2022-02-04)"
   xmlns:inkscape="http://www.inkscape.org/namespaces/inkscape"
   xmlns:sodipodi="http://sodipodi.sourceforge.net/DTD/sodipodi-0.dtd"
   xmlns="http://www.w3.org/2000/svg"
   xmlns:svg="http://www.w3.org/2000/svg">
  <defs
     id="defs6" />
  <sodipodi:namedview
     id="namedview4"
     pagecolor="#ffffff"
     bordercolor="#666666"
     borderopacity="1.0"
     inkscape:pageshadow="2"
     inkscape:pageopacity="0.0"
     inkscape:pagecheckerboard="0"
     showgrid="false"
     inkscape:zoom="0.55700643"
     inkscape:cx="343.80214"
     inkscape:cy="306.1006"
     inkscape:window-width="1850"
     inkscape:window-height="1016"
     inkscape:window-x="0"
     inkscape:window-y="0"
     inkscape:window-maximized="1"
     inkscape:current-layer="g8" />
  <g
     inkscape:groupmode="layer"
     inkscape:label="Image"
     id="g8">
    <path
       id="path1282"
       style="fill:#000000;stroke-width:0.32"
       d="m 143.84,118.19772 c -7.57647,-0.91698 -12.44346,-2.59768 -17.7544,-6.13107 -4.66201,-3.10165 -8.98471,-7.6644 -11.79022,-12.444967 -1.11437,-1.898867 -2.78117,-5.603619 -3.10513,-6.901683 l -0.21963,-0.88 h 72.99469 c 40.14709,0 72.9947,0.04555 72.9947,0.101229 0,0.698269 -0.8225,4.365113 -1.34108,5.978771 -3.06449,9.53576 -10.68602,16.71018 -20.67105,19.45841 l -3.10787,0.8554 -43.52001,0.04 c -23.936,0.022 -43.952,-0.0122 -44.48,-0.0761 z m 158.72001,-0.1533 c -9.59298,-1.22237 -18.25049,-7.38799 -22.64126,-16.12442 -1.02959,-2.048589 -2.38621,-6.348621 -2.66429,-8.444851 l -0.21598,-1.628189 56.92076,-0.08348 56.92077,-0.08348 1.6,-0.848125 c 2.1639,-1.147037 3.91747,-2.953293 4.9239,-5.071875 L 398.24001,84 V 64 44 l -0.88954,-1.811373 c -1.06678,-2.172339 -2.87436,-3.882368 -5.31206,-5.025373 l -1.7984,-0.843254 -56.56,-0.08349 c -53.48859,-0.07896 -56.5597,-0.113712 -56.55445,-0.64 0.0122,-1.223981 0.95543,-4.929801 1.77814,-6.986263 3.49095,-8.726011 10.66715,-15.170474 19.81631,-17.795691 l 2.56,-0.734555 h 45.6 c 51.0073,0 47.72861,-0.1395302 53.92,2.29466 12.05542,4.739666 20.60506,14.89177 23.1793,27.523785 0.62755,3.079401 0.6607,4.285216 0.6607,24.029904 0,16.848864 -0.0891,21.298729 -0.47021,23.484157 -2.31206,13.258373 -12.10813,24.677453 -24.7944,28.902373 -5.97277,1.98911 -3.06073,1.87757 -50.89539,1.94939 -24.15603,0.0363 -44.68123,-0.062 -45.92,-0.21985 z M 15.991319,82.221395 C 8.33999,81.094202 2.0509955,75.198707 0.47934452,67.68 -0.10948508,64.863066 -0.1093955,63.455955 0.47979252,60.64 1.8226856,54.221802 6.6724477,48.700806 12.776919,46.64088 c 2.033289,-0.686125 2.598815,-0.713005 17.041273,-0.809962 l 14.93819,-0.100284 0.189094,1.374684 c 0.104,0.756074 0.976125,8.646682 1.938051,17.534682 0.961927,8.888 1.81905,16.556 1.904717,17.04 l 0.155757,0.88 -15.592,-0.03902 C 24.776401,82.49951 16.964094,82.364705 15.991319,82.221396 Z M 86.879634,80.89145 C 86.994335,79.961152 87.91245,71.712 88.91989,62.56 l 1.831709,-16.64 30.167291,-0.08163 c 33.26589,-0.09002 32.16023,-0.148119 36.43594,1.914528 3.10957,1.500083 6.67471,5.107779 8.16907,8.266569 1.4289,3.020407 1.91714,5.152551 1.90335,8.311815 -0.0345,7.91048 -5.32324,14.751603 -13.50725,17.472115 -1.65082,0.548765 -3.79121,0.591088 -34.50445,0.682282 l -32.74446,0.09723 z M 199.16868,82.243523 C 193.07119,81.339875 187.82292,77.449101 185.13535,71.84 180.8209,62.835517 184.6121,52.044048 193.6,47.745718 c 1.496,-0.71544 3.584,-1.461622 4.64,-1.658188 1.38594,-0.257978 20.83485,-0.330983 69.92001,-0.262458 l 68,0.09493 1.99129,0.746435 c 5.57232,2.088794 10.00349,6.648909 11.69975,12.040275 1.03389,3.286016 0.96438,8.138215 -0.15946,11.130586 -2.27065,6.046067 -6.56093,10.087869 -12.74608,12.007933 -1.61456,0.5012 -6.78733,0.545536 -68.9455,0.590957 -36.96,0.02701 -67.9341,-0.05969 -68.83133,-0.192663 z M 111.04,35.873155 c 0,-0.639894 1.94237,-4.998458 3.23204,-7.252515 5.05459,-8.834285 13.57,-15.200737 23.8234,-17.811306 L 140.96,10.08 h 45.76 c 43.74275,0 45.85756,0.02645 47.97298,0.599993 10.52555,2.853745 18.64542,10.771395 21.27759,20.747686 0.33845,1.282775 0.70606,2.872321 0.8169,3.532321 l 0.20154,1.2 H 184.0145 c -42.81291,0 -72.9745,-0.118557 -72.9745,-0.286845 z" />
    <path
       id="path845"
       style="fill:#ee2b37;stroke-width:0.32;fill-opacity:1"
       d="m 65.440002,131.49876 c -9.976429,-0.88471 -15.991953,-8.28719 -14.869326,-18.29764 0.985152,-8.78461 7.423575,-14.01152 17.240513,-13.99639 8.123939,0.01251 13.911408,3.58332 16.32976,10.07527 0.905917,2.43188 1.222352,7.01758 0.677562,9.81901 -1.645018,8.45904 -9.212528,13.30127 -19.378509,12.39975 z M 60.160001,84.932845 c 0,-0.278938 -1.944,-18.184109 -4.32,-39.789271 -2.376,-21.605161 -4.32,-40.2965903 -4.32,-41.5365087 V 1.352668 l 1.36,-0.1928204 c 5.455578,-0.77349006 28.049316,-1.26131683 30.454881,-0.65755854 0.781062,0.19603452 0.82512,0.31826195 0.82512,2.28914314 0,1.8479486 -8.422762,80.1297138 -8.815143,81.9285678 l -0.157049,0.72 h -7.513904 c -6.644509,0 -7.513905,-0.05868 -7.513905,-0.507155 z" />
  </g>
</svg>
