<?xml version="1.0" encoding="UTF-8" standalone="no"?>
<!-- Created with Inkscape (http://www.inkscape.org/) -->

<svg
   version="1.1"
   id="svg2"
   width="315.51999"
   height="108.48"
   viewBox="0 0 315.51999 108.48"
   sodipodi:docname="linked.svg"
   inkscape:version="1.1.2 (0a00cf5339, 2022-02-04)"
   xmlns:inkscape="http://www.inkscape.org/namespaces/inkscape"
   xmlns:sodipodi="http://sodipodi.sourceforge.net/DTD/sodipodi-0.dtd"
   xmlns="http://www.w3.org/2000/svg"
   xmlns:svg="http://www.w3.org/2000/svg">
  <defs
     id="defs6" />
  <sodipodi:namedview
     id="namedview4"
     pagecolor="#ffffff"
     bordercolor="#666666"
     borderopacity="1.0"
     inkscape:pageshadow="2"
     inkscape:pageopacity="0.0"
     inkscape:pagecheckerboard="0"
     showgrid="false"
     inkscape:zoom="2.1203094"
     inkscape:cx="151.15718"
     inkscape:cy="61.547621"
     inkscape:window-width="1850"
     inkscape:window-height="1016"
     inkscape:window-x="0"
     inkscape:window-y="0"
     inkscape:window-maximized="1"
     inkscape:current-layer="g8" />
  <g
     inkscape:groupmode="layer"
     inkscape:label="Image"
     id="g8">
    <path
       style="fill:#000000;stroke-width:0.32"
       d="M 31.230084,107.96949 C 23.22003,106.51107 16.669031,103.09695 11.04,97.447219 5.8643806,92.25257 2.549702,86.201136 0.86978535,78.88 0.25006768,76.179248 0.20086405,74.795053 0.07922536,56.64 -0.06040344,35.79985 0.08862471,32.632806 1.4479127,27.553588 4.5873608,15.82249 13.898585,5.9441488 25.48191,2.0557543 31.308395,0.09986752 28.492647,0.20971152 75.999998,0.08501432 106.67645,0.00449483 120.32272,0.07567304 122.24,0.32619981 125.92438,0.80763107 130.4311,2.3516017 133.45255,4.1675424 141.1775,8.8103789 145.7359,15.548472 147.68123,25.2 l 0.20962,1.04 -54.985426,0.0063 c -34.809378,0.004 -55.795019,0.123363 -57.191793,0.325265 -4.016822,0.580623 -7.170776,3.032745 -8.512202,6.618028 -0.644329,1.722125 -0.657805,2.233318 -0.570671,21.647072 l 0.08924,19.883296 0.862299,1.634432 c 1.072529,2.032906 3.617201,4.358666 5.619557,5.136118 1.451258,0.563479 4.010704,0.593165 58.091825,0.673799 l 56.573681,0.08435 -0.20527,1.195651 c -1.66739,9.712025 -7.39899,17.599909 -15.89191,21.870589 -1.35839,0.68308 -3.73439,1.63866 -5.28,2.12351 L 123.68,108.32 78.719998,108.3751 c -37.912838,0.0464 -45.356546,-0.0172 -47.489914,-0.40557 z m 162.049906,0.30617 c -6.44296,-1.0125 -11.66754,-3.53626 -16.11646,-7.78513 -2.89691,-2.766655 -4.74307,-5.240412 -6.43923,-8.628184 -1.08949,-2.176058 -2.72431,-7.588256 -2.72431,-9.019031 0,-0.576934 1.68256,-0.597133 56.56682,-0.678969 l 56.56681,-0.08435 2.13975,-1.05344 c 2.32715,-1.145693 3.95253,-2.782902 5.12509,-5.162378 L 289.11999,74.4 v -20 -20 l -0.84843,-1.809722 c -1.57289,-3.354992 -4.52394,-5.494675 -8.33919,-6.0464 -1.1447,-0.165534 -25.70969,-0.293784 -56.97238,-0.297444 -52.81683,-0.0062 -54.96,-0.02902 -54.96,-0.585509 0,-1.478209 1.46605,-6.25783 2.71789,-8.860925 3.81696,-7.9369949 10.70906,-13.5833901 19.42039,-15.91028138 l 2.66172,-0.71097539 43.04,-0.10419985 c 44.63146,-0.10805278 46.90508,-0.05453991 51.9033,1.22161842 7.84848,2.0038948 15.48137,7.17617 20.51834,13.9038382 2.4288,3.244054 5.10072,8.75513 6.22315,12.835824 l 0.87033,3.164176 0.003,22.88 c 0.003,22.68871 -0.004,22.903651 -0.71839,25.708771 -3.62664,14.232064 -13.84881,24.242739 -28.55917,27.968299 -1.87642,0.47522 -6.4805,0.53253 -47.04,0.58554 -24.728,0.0323 -45.31999,0.002 -45.75999,-0.0669 z M 88.064544,71.995139 C 81.509911,70.271674 76.432023,65.162035 74.712897,58.56 73.997319,55.811936 74.200967,51.16737 75.153914,48.501709 77.21803,42.727802 81.775322,38.448224 87.839997,36.588701 89.678621,36.02495 92.64888,36 157.91999,36 h 68.16 l 2.24,0.709734 c 8.3117,2.63352 13.92854,10.741152 13.16119,18.99753 -0.68333,7.352326 -5.67276,13.68168 -12.65811,16.057459 l -2.10308,0.715277 -68.16,0.06461 C 92.272595,72.60745 90.335834,72.59235 88.064544,71.995141 Z"
       id="path935" />
  </g>
</svg>
