<?xml version="1.0" encoding="UTF-8" standalone="no"?>
<svg
   viewBox="0 0 6.85 7.03"
   version="1.1"
   id="svg12"
   sodipodi:docname="treasure.svg"
   inkscape:version="1.1.2 (0a00cf5339, 2022-02-04)"
   xmlns:inkscape="http://www.inkscape.org/namespaces/inkscape"
   xmlns:sodipodi="http://sodipodi.sourceforge.net/DTD/sodipodi-0.dtd"
   xmlns="http://www.w3.org/2000/svg"
   xmlns:svg="http://www.w3.org/2000/svg">
  <defs
     id="defs16" />
  <sodipodi:namedview
     id="namedview14"
     pagecolor="#ffffff"
     bordercolor="#666666"
     borderopacity="1.0"
     inkscape:pageshadow="2"
     inkscape:pageopacity="0.0"
     inkscape:pagecheckerboard="0"
     showgrid="false"
     inkscape:zoom="111.23755"
     inkscape:cx="3.4206075"
     inkscape:cy="3.5105052"
     inkscape:window-width="1846"
     inkscape:window-height="1016"
     inkscape:window-x="0"
     inkscape:window-y="0"
     inkscape:window-maximized="1"
     inkscape:current-layer="svg12" />
  <g
     id="Layer_2"
     data-name="Layer 2"
     style="fill:#000000">
    <g
       id="Layer_1-2"
       data-name="Layer 1"
       style="fill:#000000">
      <path
         d="M5.81,0H1c-.71,0-1,1-1,1l.8,1.87H1l0-.25a.05.05,0,0,1,0-.05l.23-.17.23-.16a.07.07,0,0,1,.06,0l.21,0,.31-.36a.16.16,0,0,1,.1,0h1a.12.12,0,0,1,.11,0l.22.24.22-.06h.06l.24.17,0,0,.27-.15a.08.08,0,0,1,.08,0l.33.12.33.11a.12.12,0,0,1,.06.06l.06.15.27,0a.09.09,0,0,1,0,0l.17.25H6L6.77,1s-.26-1-1-1"
         id="path2"
         style="fill:#000000" />
      <path
         d="M.25,5.05H.12A.09.09,0,0,1,0,5l0-.71a.07.07,0,0,1,.07-.07H.25Z"
         id="path4"
         style="fill:#000000" />
      <path
         d="M6.59,5.05h.14A.08.08,0,0,0,6.8,5l0-.71a.08.08,0,0,0-.08-.07H6.59Z"
         id="path6"
         style="fill:#000000" />
      <path
         d="M.25,3.35V6.89A.14.14,0,0,0,.39,7H6.45a.14.14,0,0,0,.14-.14V3.35Zm3.61,2.7H3c-.05,0-.08,0-.06-.08l.31-.85a.47.47,0,1,1,.65-.5.48.48,0,0,1-.29.5L3.92,6a.06.06,0,0,1-.06.08"
         id="path8"
         style="fill:#000000" />
    </g>
  </g>
</svg>
