<?xml version="1.0" encoding="UTF-8"?>
<!-- Generator: Adobe Illustrator 26.5.2, SVG Export Plug-In . SVG Version: 6.00 Build 0)  -->
<svg version="1.1" id="Layer_1" xmlns="http://www.w3.org/2000/svg" xmlns:xlink="http://www.w3.org/1999/xlink" x="0px" y="0px" viewBox="0 0 42.92 42.98" style="enable-background:new 0 0 42.92 42.98;" xml:space="preserve">
<style type="text/css">
	.st0{fill:#DE7519;}
</style>
<polygon class="st0" points="34.23,5.86 26.46,12.78 22.77,12.59 28.83,3.87 "/>
<polygon class="st0" points="24.34,19.17 28.84,17.47 28.84,17.47 27.19,15.05 27.19,15.05 24.34,19.17 "/>
<polygon class="st0" points="28.98,24.48 29.17,21.92 38.27,18.23 38.36,24.19 38.36,24.19 28.98,24.48 "/>
<polygon class="st0" points="42.24,9.46 36.22,13.44 36.22,13.44 31.01,13.34 31.01,13.34 37.74,5.1 37.74,5.1 38.12,9.98   38.12,9.98 41.24,9.56 "/>
<polygon class="st0" points="37.45,14.67 41.53,14.96 34.33,17.7 "/>
<polygon class="st0" points="41.11,28.6 40.63,31.63 35.33,28.5 35.8,25.66 35.8,25.66 41.11,28.6 "/>
<polygon class="st0" points="38.31,32.86 41.43,35.7 40.2,38.64 39.82,39.02 38.5,36.27 "/>
<polyline class="st0" points="24.53,3.31 24.86,1.79 27.23,1.5 25.62,3.78 25.39,3.73 24.53,3.31 "/>
<path class="st0" d="M8.96,38.89"/>
<path class="st0" d="M22.86,30.02l-20.6,0.33l0,0c0.58,1.42,0.95,2.23,1.84,3.46l0,0h10.23l0.28,1.42l0,0l-9.66-0.06l0,0  c1.14,1.42,2.18,2.05,3.69,3.09l0,0l10.99-0.28l0,0v1.42l-8.34,0.47l0,0c2.84,1.63,5.18,2.46,8.72,2.46c6.8,0,12.78-3.47,16.17-8.7  l-0.26-0.3l-4.93-3.69l1.04-2.46h-0.28l-5.02,0.57l-0.57-6.35l-6.73,4.17l3.41-8.05l0,0l-5.59-2.46L25,5.72l0,0  c-1.71-0.49-3.1-0.81-4.98-0.81c-4.29,0-8.26,1.38-11.45,3.72l0,0l7.06,0.64l0,0l0.27,1.75l0,0L4.9,11.86l0,0  c-1.58,1.88-2.42,3.88-3.22,6.25l0,0l16.26-0.22l0,0l-0.03,1.29l0,0L1.36,19.6l0,0c-0.14,1.07-0.23,1.21-0.28,2.32l0,0l9.85-0.05  l-0.03-0.53l0.08,2.24l0,0l-10.1,0.05l0,0c0,0.15,0-0.15,0,0c0,1.94,0.29,3.22,0.85,4.97l0,0l21.03-0.09l0,0l-0.09,2.08"/>
</svg>