<?xml version="1.0" encoding="UTF-8" standalone="no"?>
<!-- Created with Inkscape (http://www.inkscape.org/) -->

<svg
   version="1.1"
   id="svg2"
   width="307.6821"
   height="305"
   viewBox="0 0 307.68209 305"
   sodipodi:docname="cc-woebound.svg"
   inkscape:version="1.1.2 (0a00cf5339, 2022-02-04)"
   xmlns:inkscape="http://www.inkscape.org/namespaces/inkscape"
   xmlns:sodipodi="http://sodipodi.sourceforge.net/DTD/sodipodi-0.dtd"
   xmlns="http://www.w3.org/2000/svg"
   xmlns:svg="http://www.w3.org/2000/svg">
  <defs
     id="defs6" />
  <sodipodi:namedview
     id="namedview4"
     pagecolor="#ffffff"
     bordercolor="#666666"
     borderopacity="1.0"
     inkscape:pageshadow="2"
     inkscape:pageopacity="0.0"
     inkscape:pagecheckerboard="0"
     showgrid="false"
     fit-margin-top="0"
     fit-margin-left="0"
     fit-margin-right="0"
     fit-margin-bottom="0"
     inkscape:zoom="1.9472111"
     inkscape:cx="120.42865"
     inkscape:cy="177.43325"
     inkscape:window-width="1850"
     inkscape:window-height="1016"
     inkscape:window-x="0"
     inkscape:window-y="0"
     inkscape:window-maximized="1"
     inkscape:current-layer="g8" />
  <g
     inkscape:groupmode="layer"
     inkscape:label="Image"
     id="g8"
     transform="translate(-10.921675,-23.082086)">
    <path
       style="fill:#544169;fill-opacity:1;stroke-width:0.920848"
       d="m 157.96552,313.01336 c -1.10644,-0.44579 -2.45318,-1.63544 -2.99276,-2.64364 l -0.98104,-1.8331 v -27.18967 -27.18968 l 2.01533,-1.87756 2.01533,-1.87757 h 4.82419 4.82419 l 1.94653,2.4746 1.94651,2.4746 -0.26819,27.53538 -0.26821,27.53538 -2.17392,1.75926 -2.17393,1.75927 -3.35115,-0.0584 c -1.84315,-0.0321 -4.25644,-0.42311 -5.36288,-0.8689 z M 65.590332,271.84015 c 0,-0.31453 3.10826,-6.039 6.907245,-12.72105 7.539823,-13.26184 13.44673,-25.38894 15.34699,-31.50794 0.668454,-2.15248 1.425265,-3.90991 1.681801,-3.90541 0.256535,0.005 1.539448,2.18002 2.850916,4.83445 1.311468,2.65445 2.918054,4.82626 3.570191,4.82626 0.652138,0 3.639644,-2.95887 6.638905,-6.57526 l 5.4532,-6.57526 -3.6214,-5.60301 c -4.602699,-7.12126 -8.193126,-16.0671 -10.213267,-25.44716 l -1.586551,-7.36678 -4.53575,-0.60996 c -2.494662,-0.33549 -7.332824,-0.64627 -10.751471,-0.69064 l -6.215722,-0.0807 0.03007,1.61149 c 0.01654,0.88631 0.753118,3.70279 1.636852,6.25883 l 1.606791,4.64736 -6.010878,-2.93693 c -7.201363,-3.51859 -22.814915,-8.57401 -35.478008,-11.48721 -5.064662,-1.16515 -9.533103,-2.38695 -9.929869,-2.71512 -0.396765,-0.32817 1.675142,-1.12437 4.604239,-1.76934 8.762869,-1.92952 31.525804,-9.18649 39.166781,-12.48662 3.925113,-1.69525 7.13657,-2.75161 7.13657,-2.34746 0,0.40414 -0.621572,2.49653 -1.381272,4.64974 -1.735595,4.9192 -1.733423,6.11376 0.01234,6.78368 1.29153,0.4956 12.632771,-0.60132 17.958343,-1.73694 l 2.316267,-0.49392 1.688602,-7.57128 c 3.35688,-15.05144 9.435493,-25.92213 20.532463,-36.71924 10.06458,-9.79263 22.01398,-16.1939 34.59812,-18.53417 l 5.49178,-1.0213 0.7064,-1.89245 c 0.38851,-1.04085 0.99927,-6.096762 1.35725,-11.235377 l 0.65087,-9.34293 -0.75765,-0.447219 c -0.4167,-0.245977 -2.9949,0.132629 -5.72932,0.841332 -2.73443,0.708703 -5.1205,1.139734 -5.3024,0.957838 -0.18189,-0.181885 1.08742,-3.400653 2.8207,-7.152813 3.18144,-6.887112 8.17726,-22.924568 11.23271,-36.059015 0.91309,-3.925114 1.89844,-7.13657 2.18964,-7.13657 0.29121,0 1.29762,3.004266 2.23647,6.676146 0.93885,3.67188 2.26588,8.540862 2.94893,10.819961 0.68307,2.279098 2.33167,7.873247 3.66356,12.431444 1.33189,4.558196 3.82608,11.163427 5.54265,14.678294 1.71657,3.514866 3.12103,6.51578 3.12103,6.668687 0,0.152916 -1.55393,-0.304874 -3.45318,-1.017307 -1.89924,-0.712432 -4.5486,-1.534666 -5.88745,-1.827173 l -2.43428,-0.531836 -0.56566,2.253793 c -0.52143,2.077516 1.6102,19.538325 2.49304,20.421155 0.21327,0.21326 2.79434,0.77945 5.7357,1.25816 10.55849,1.71844 21.26895,5.96968 29.13663,11.56501 l 4.30572,3.06214 3.52148,-2.55164 c 1.93682,-1.40341 4.89373,-3.9243 6.57091,-5.60198 l 3.04943,-3.05034 -0.74864,-0.74864 c -0.41175,-0.41175 -2.95354,-1.95439 -5.64841,-3.42809 l -4.89977,-2.67946 4.90111,-1.581982 c 6.28772,-2.029549 24.34471,-11.114568 35.03372,-17.626536 4.57255,-2.785684 8.42497,-4.944243 8.56093,-4.796788 0.13595,0.147456 -1.41227,3.168766 -3.44049,6.71403 -6.68857,11.691405 -17.0818,32.164676 -18.23122,35.913066 -0.62122,2.02586 -1.48023,4.06347 -1.90891,4.52801 l -0.77941,0.84461 -0.65356,-1.76546 c -0.35945,-0.971 -1.64992,-3.3646 -2.8677,-5.3191 l -2.21414,-3.55364 -2.77954,2.63279 c -1.52873,1.44804 -3.9821,4.36616 -5.45193,6.48474 l -2.67241,3.85195 4.96323,7.41514 c 5.72887,8.55899 9.15385,16.55647 11.11166,25.94617 0.75929,3.6416 1.52571,6.76624 1.70314,6.94368 0.85949,0.85949 10.79933,2.17731 16.42266,2.17731 h 6.32025 v -1.72592 c 0,-0.94925 -0.626,-3.50019 -1.39111,-5.66873 -0.7651,-2.16855 -1.26803,-4.06587 -1.11762,-4.21628 0.15041,-0.15041 2.74471,0.90309 5.76512,2.34112 6.28739,2.99347 21.71451,7.96929 34.49836,11.12701 4.81143,1.18847 9.08679,2.445 9.50079,2.7923 0.41401,0.34729 -4.14419,1.95933 -10.12932,3.58231 -15.78686,4.28086 -24.71197,7.24421 -32.43773,10.7701 -3.75216,1.71241 -6.96803,2.96754 -7.1464,2.78917 -0.17837,-0.17836 0.3017,-2.09856 1.0668,-4.26711 0.76511,-2.16854 1.39111,-4.78197 1.39111,-5.80761 v -1.86481 l -8.51784,0.56776 c -4.68482,0.31227 -9.84214,0.83645 -11.4607,1.16486 l -2.94285,0.5971 -1.4678,6.57102 c -2.27789,10.19772 -5.66915,18.22808 -11.16577,26.4401 l -5.04282,7.53402 4.51691,5.17583 c 2.48429,2.84671 5.13528,5.29813 5.89108,5.44762 l 1.37418,0.2718 2.6371,-5.03679 c 1.4504,-2.77024 2.91037,-4.8679 3.24437,-4.66147 0.334,0.20641 1.09842,2.32586 1.69873,4.70988 1.32856,5.27619 6.82656,16.3366 15.58865,31.35988 3.61218,6.19337 6.5676,11.47227 6.5676,11.73088 0,0.25861 -2.61122,-1.12805 -5.80274,-3.08147 -10.33766,-6.32735 -28.84018,-15.76932 -36.05888,-18.40112 l -7.04036,-2.56677 3.50171,-1.58624 c 1.92594,-0.87243 4.41176,-2.29195 5.52404,-3.15449 l 2.02234,-1.56825 -1.10149,-1.38496 c -1.41709,-1.78178 -10.38964,-9.20479 -11.12627,-9.20479 -0.30838,0 -2.5653,1.44016 -5.01536,3.20035 -8.66813,6.22742 -25.53602,12.39996 -33.995,12.43992 l -2.99276,0.0141 v -4.99137 -4.99136 l 6.21573,-0.64762 c 20.73367,-2.16023 40.48486,-17.38255 48.3914,-37.29544 3.48281,-8.77158 4.45371,-14.06219 4.4009,-23.98135 l -0.0471,-8.82908 -2.33078,-8.04303 c -2.81403,-9.71067 -4.47962,-13.09331 -10.18264,-20.68 l -4.37227,-5.8164 -6.5343,-4.87685 c -7.94842,-5.93227 -11.90218,-7.96616 -20.6521,-10.62387 l -6.72872,-2.04378 -11.21667,0.42488 -11.21667,0.42489 -5.98551,2.06726 c -7.23869,2.50008 -15.60609,7.44496 -21.09358,12.4657 -5.18434,4.74339 -11.13605,12.22385 -11.13605,13.9965 v 1.37034 l 3.91361,-3.36214 c 5.3354,-4.58361 15.3224,-9.18373 24.09334,-11.09766 l 7.28788,-1.59032 7.44568,0.54712 c 15.55698,1.14315 27.92852,6.24833 38.04276,15.69855 l 5.78341,5.40372 3.23853,6.5673 c 1.78119,3.61201 3.72321,9.18804 4.31561,12.39118 l 1.07707,5.82387 -1.04398,6.09477 -1.04399,6.09476 -3.29336,6.66367 -3.29336,6.66366 -6.16809,5.65193 -6.1681,5.65193 -6.48928,3.12123 c -7.24181,3.48317 -16.42827,5.92909 -22.34598,5.94967 l -3.9136,0.0136 v 12.89186 c 0,7.09053 -0.31079,12.88124 -0.69064,12.86823 -0.37984,-0.013 -4.04733,-0.78306 -8.14998,-1.71124 -8.90304,-2.01421 -19.57533,-6.96637 -26.06049,-12.0926 l -4.71192,-3.72455 -2.03929,1.09139 c -1.12161,0.60027 -4.23103,3.16426 -6.90983,5.69775 l -4.87055,4.60636 1.62325,1.79498 c 0.89279,0.98724 3.23107,2.61557 5.19619,3.6185 l 3.57294,1.82352 -6.0646,2.11914 c -6.76824,2.36501 -23.832355,11.18912 -34.84019,18.0164 -3.970347,2.46249 -7.218813,4.21991 -7.218813,3.90539 z"
       id="path957" />
  </g>
</svg>
