<?xml version="1.0" encoding="UTF-8" standalone="no"?>
<svg
   version="1.1"
   id="svg2"
   width="250"
   height="250"
   viewBox="0 0 250 250"
   sodipodi:docname="ccug-vimthreader.svg"
   inkscape:version="1.2.2 (b0a8486541, 2022-12-01)"
   xmlns:inkscape="http://www.inkscape.org/namespaces/inkscape"
   xmlns:sodipodi="http://sodipodi.sourceforge.net/DTD/sodipodi-0.dtd"
   xmlns="http://www.w3.org/2000/svg"
   xmlns:svg="http://www.w3.org/2000/svg">
  <sodipodi:namedview
     id="namedview1678"
     pagecolor="#ffffff"
     bordercolor="#000000"
     borderopacity="0.25"
     inkscape:showpageshadow="2"
     inkscape:pageopacity="0.0"
     inkscape:pagecheckerboard="0"
     inkscape:deskcolor="#d1d1d1"
     showgrid="false"
     inkscape:zoom="3.14"
     inkscape:cx="125"
     inkscape:cy="125.31847"
     inkscape:window-width="1854"
     inkscape:window-height="1011"
     inkscape:window-x="0"
     inkscape:window-y="0"
     inkscape:window-maximized="1"
     inkscape:current-layer="g8" />
  <defs
     id="defs6">
    <filter
       id="colorize"
       x="-0.1"
       y="-0.1"
       width="1.2"
       height="1.2">
      <feColorMatrix
         type="saturate"
         values="0"
         result="gray"
         id="feColorMatrix1669" />
      <feColorMatrix
         in="gray"
         type="matrix"
         values="0 0 0 0 0.5176470588235295 0 0 0 0 0.21176470588235294 0 0 0 0 0.21176470588235294 0 0 0 1 0"
         id="feColorMatrix1671" />
    </filter>
  </defs>
  <g
     id="g8"
     filter="url(#colorize)">
    <path
       style="fill:#000000"
       d="m 124.07895,243.41667 c 0.048,-1.16495 0.28494,-1.4019 0.60416,-0.60417 0.28887,0.72187 0.25335,1.58437 -0.0789,1.91667 -0.3323,0.33229 -0.56864,-0.25834 -0.52522,-1.3125 z M 123.17802,224.5 c -0.66281,-9.35 -1.19902,-18.09094 -1.19157,-19.42431 l 0.0135,-2.42432 2.5436,2.38959 2.5436,2.38959 -0.65749,13.53472 c -1.06055,21.832 -1.89065,22.73435 -3.25169,3.53473 z M 138,213.20363 c -9.76116,-7.41904 -24.22183,-21.29023 -29.22842,-28.03692 -5.50522,-7.41863 -8.06878,-13.53709 -7.24443,-17.29033 1.42369,-6.48201 12.23013,-14.44664 14.57636,-10.74315 1.89417,2.98995 0.96267,5.44106 -2.55059,6.71147 -6.49185,2.34749 -5.90176,7.62081 2.18438,19.52052 6.01904,8.85771 13.96612,18.35559 24.16854,28.88478 3.59729,3.7125 6.32759,6.72841 6.06734,6.70203 -0.26025,-0.0264 -3.84818,-2.61316 -7.97318,-5.7484 z m -41.5,-8.18018 c -8.74487,-1.3318 -17.815175,-4.00398 -24,-7.07057 -5.208215,-2.58236 -5.538125,-2.90075 -2.5,-2.41269 14.483541,2.3267 29.512005,3.53396 37.04181,2.97562 7.47114,-0.55399 8.74461,-0.40666 10.15975,1.1754 0.88986,0.99484 1.77105,2.70879 1.95819,3.80879 0.3179,1.86865 -0.25082,2.00936 -8.65975,2.14247 -4.95,0.0784 -11.25,-0.2002 -14,-0.61902 z m 35.55932,-5.4603 c -3.45225,-3.67476 -1.65531,-5.36692 9.68644,-9.1216 14.59785,-4.83261 22.46154,-8.66967 27.74108,-13.53619 5.59222,-5.15472 7.51316,-8.58388 7.51316,-13.41209 0,-3.03335 -0.81433,-4.38681 -5.12759,-8.52232 l -5.12759,-4.91629 3.01196,-3.43043 c 1.65657,-1.88673 3.22414,-4.03653 3.48347,-4.77733 0.64567,-1.84433 7.33399,3.53491 11.21367,9.01886 2.35447,3.32807 3.03777,5.49232 3.36714,10.66491 1.05934,16.63667 -11.06335,27.67893 -40.32106,36.72745 -12.88918,3.98623 -12.91942,3.98878 -15.44068,1.30503 z m -7.80709,-8.69519 c -3.56822,-4.64267 -3.59795,-4.83204 -5.23872,-33.36796 -0.60086,-10.45 -1.56332,-24.77389 -2.1388,-31.83086 -0.57548,-7.05697 -0.87123,-13.00596 -0.65721,-13.21997 0.21401,-0.21402 3.9272,3.16983 8.25152,7.51967 l 7.8624,7.90878 -1.20152,17.81119 c -2.47269,36.6547 -3.35194,48.81741 -3.54473,49.03443 -0.10907,0.12278 -1.60889,-1.6121 -3.33294,-3.85528 z m 8.56985,-33.46966 c 0.35594,-3.04887 0.97745,-3.824 4.0492,-5.04998 8.25175,-3.2934 16.40062,-7.88275 18.566,-10.45615 8.04189,-9.55725 4.03794,-35.45826 -9.95417,-64.39217 -5.61178,-11.604462 -17.26958,-31.680065 -23.14738,-39.861533 -3.70785,-5.161061 -3.94721,-8.806105 -0.66108,-10.067111 2.19605,-0.842705 3.43484,0.494747 13.36431,14.428644 33.50996,47.024129 46.1441,87.99738 31.89927,103.45119 -4.25443,4.61551 -12.71876,9.23282 -23.89173,13.033 -10.07353,3.42622 -10.74288,3.35513 -10.22442,-1.08589 z m 13.31717,-21.36207 C 124.51985,118.04438 101.56,94.300018 87.764582,75.666965 79.178774,64.070377 70.582938,46.782705 68.883412,37.693757 66.434901,24.599294 70.508703,15.105192 80.845278,9.8163173 90.893715,4.6748723 102.81136,5.1831421 110.98153,11.101583 c 4.66921,3.382358 4.9291,4.694297 1.55738,7.861861 l -2.46109,2.312071 -3.45803,-3.036195 c -1.97297,-1.732286 -5.16222,-3.324117 -7.426291,-3.706629 -7.800961,-1.317964 -17.296163,3.094122 -19.883595,9.239206 -3.809199,9.046749 3.627816,29.504481 17.350635,47.728103 10.874261,14.440795 44.397911,47.02241 58.661301,57.01287 1.8119,1.26911 1.86746,1.73938 0.69865,5.91393 -2.01475,7.196 -2.97947,7.35313 -9.88124,1.60943 z M 123.7313,97.770078 c -6.56088,-6.23453 -9.75139,-9.98408 -9.74331,-11.450527 0.008,-1.462866 -0.68878,-2.285613 -2.1174,-2.5 -1.17118,-0.175753 -4.20868,-2.758072 -6.75,-5.738487 -4.13645,-4.85114 -4.35864,-5.348788 -2.12059,-4.749465 1.375,0.368209 4.22717,0.958086 6.33815,1.310839 3.61504,0.604088 3.81849,0.502928 3.5,-1.740319 -0.20545,-1.447044 -1.12301,-2.515293 -2.33815,-2.722144 -1.93263,-0.328989 -6.25119,-4.58415 -12.648479,-12.462795 l -3.071567,-3.78282 6.860026,2.63878 c 11.2475,4.326472 10.3909,4.697331 8.62095,-3.732366 -2.56033,-12.19409 -2.24745,-20.350043 1.0373,-27.039021 6.38278,-12.997746 19.97638,-13.282309 26.52575,-0.555281 2.48395,4.826913 4.39502,18.795434 2.56039,18.714528 C 138.63096,43.883676 133,35.027213 133,32.34676 133,28.591764 128.45376,24 124.73599,24 121.3188,24 116,28.801331 116,31.886057 c 0,1.121946 0.96145,4.419061 2.13655,7.326923 1.1751,2.907861 3.15492,8.4279 4.39959,12.266752 l 2.26305,6.979733 1.188,-4.411883 1.18799,-4.411883 2.72662,4.432151 c 7.6076,12.36624 9.16173,15.693795 7.60819,16.289945 C 136.67949,70.676484 136,71.851354 136,72.968615 136,74.533524 136.65204,75 138.83948,75 c 2.12092,0 3.15371,0.689628 4.08113,2.725101 1.10378,2.422541 0.99828,2.922162 -0.95027,4.5 C 140.76479,83.201295 138.74659,84 137.48545,84 c -2.20703,0 -2.31803,0.402996 -2.9609,10.75 -0.36735,5.9125 -0.75117,11.09654 -0.85292,11.52008 -0.10176,0.42354 -4.57491,-3.40146 -9.94033,-8.500002 z M 68.56413,82.398522 C 61.999402,81.644878 56.235579,80.635579 55.755635,80.155635 54.349377,78.749377 45.095656,62.57101 45.478552,62.188114 c 0.312972,-0.312972 40.428016,20.404642 41.438115,21.40092 0.68549,0.676111 -5.702692,0.261716 -18.352537,-1.190512 z M 163.55,83.12773 c 1.66238,-1.526365 39.69212,-21.218948 40.1306,-20.780459 0.53751,0.537508 -9.35764,17.335093 -10.70078,18.165203 -0.86929,0.53725 -24.85035,3.41172 -28.92982,3.467647 -0.88405,0.01212 -1.0792,-0.320578 -0.5,-0.852391 z M 39.323913,76.127143 C 21.647862,69.974098 5.0920008,53.441044 5.021962,41.872445 5.0098829,39.877289 5.6437486,37.710626 6.4305525,37.057636 7.6193304,36.071038 8.7601339,37.613668 13.180553,46.185192 18.346458,56.20227 18.658754,56.571884 24,58.990398 40.13864,66.29797 43.139396,68.292047 46.210751,73.75 c 1.624884,2.8875 2.579691,5.24398 2.121792,5.236622 -0.457899,-0.0074 -4.511782,-1.294124 -9.00863,-2.859479 z m 120.634877,1.323196 c -1.09376,-1.317895 2.46795,-4.379822 17.22634,-14.809137 l 6.68514,-4.724183 7.95117,0.291491 7.95116,0.29149 -19.38239,10.107171 c -15.0668,7.856755 -19.61597,9.825734 -20.43142,8.843168 z m 43.64829,-4.362232 c 3.44272,-5.779302 3.59278,-5.887068 15.51636,-11.142515 l 12.04002,-5.306772 5.27155,-10.508159 5.27154,-10.508158 1.73122,2.642179 c 1.61913,2.471098 1.6261,3.003783 0.10774,8.226782 -1.30515,4.489545 -3.00256,7.036401 -8.65649,12.988517 -9.67235,10.182474 -20.41301,16.580619 -31.57364,18.808232 l -3.18463,0.635637 z M 67.639923,67.944826 C 58.36688,63.08742 50.52938,58.862713 50.223256,58.556589 49.917132,58.250465 53.241536,58 57.610822,58 c 7.902747,0 7.979114,0.02517 14.65129,4.828735 5.702118,4.105182 13.608142,12.697849 12.56154,13.652516 -0.178009,0.162372 -7.910687,-3.679019 -17.183729,-8.536425 z M 96.424151,66.234687 C 95.09208,65.325029 90,57.818903 90,56.764985 c 0,-0.711289 4.748153,4.3893 7.898726,8.485015 1.36025,1.768313 0.507154,2.337991 -1.474575,0.984687 z M 153,64.672062 c 0,-0.751324 0.94915,-2.447397 2.10921,-3.769052 1.16007,-1.321656 3.38079,-3.932513 4.93493,-5.801907 2.53423,-3.048291 3.78658,-3.586726 12.14078,-5.219788 12.51123,-2.445669 12.17804,-2.483888 10.28358,1.179596 -2.22207,4.297004 -9.14672,8.866498 -17.40342,11.484308 C 154.1018,66.021156 153,66.215382 153,64.672062 Z M 29.248616,56.387987 C 22.06875,52.984007 21.957685,52.871446 17.987456,44.97505 15.502959,40.033633 14.457412,37.005093 15.238839,37.01339 15.932478,37.020755 19.875,38.102848 24,39.418042 l 7.5,2.391262 2.092845,6.867442 c 1.151064,3.777093 2.629397,7.87 3.285183,9.095348 1.517185,2.834885 1.116016,2.762106 -7.629412,-1.384107 z m 183.102634,2.377022 c 0.29036,-0.695755 1.70734,-4.977509 3.14885,-9.515009 1.80521,-5.682313 3.1059,-8.25 4.17914,-8.25 0.85702,0 4.42198,-0.982814 7.92212,-2.184031 3.50015,-1.201217 6.62561,-1.922335 6.94546,-1.602484 0.42732,0.427322 -5.63577,13.926627 -6.96236,15.501498 -0.99719,1.18382 -15.62729,6.994315 -15.23321,6.050026 z m -63.89237,-0.83154 c -0.75792,-1.226347 -0.83368,-1.152808 2.79112,-2.709549 3.15056,-1.353072 3.60473,-0.307412 0.92126,2.121092 -2.13801,1.93487 -2.81402,2.042026 -3.71238,0.588457 z M 70.749978,55.919889 C 69.171453,55.000483 66,50.03059 66,48.476336 c 0,-0.342641 0.699165,-0.477488 1.5537,-0.29966 1.153646,0.240073 6.258899,8.960979 5.147408,8.792915 -0.110609,-0.01672 -0.988618,-0.489091 -1.95113,-1.049702 z M 39.556687,51.75 c -0.209299,-0.6875 -0.872204,-2.785471 -1.473124,-4.662158 -0.60092,-1.876686 -0.889416,-3.615323 -0.641103,-3.863635 0.412728,-0.412728 16.910251,2.263137 20.655783,3.350326 C 59.423611,46.959238 62,50.902984 62,52.547053 62,52.796174 57.035877,53 50.968615,53 43.01313,53 39.831123,52.65146 39.556687,51.75 Z m 149.150723,-2 c 1.69536,-2.912965 2.61231,-3.37576 8.84205,-4.462697 3.8228,-0.666983 8.68819,-1.520016 10.81198,-1.895628 l 3.86144,-0.682932 -0.72975,3.395629 C 210.00746,53.017357 210.04175,53 197.87276,53 H 186.8159 Z"
       id="path2667" />
  </g>
</svg>
