<?xml version="1.0" encoding="UTF-8" standalone="no"?>
<svg
   version="1.1"
   id="svg2"
   width="200"
   height="192"
   viewBox="0 0 200 192"
   sodipodi:docname="ccug-lightracer.svg"
   inkscape:version="1.2.2 (b0a8486541, 2022-12-01)"
   xmlns:inkscape="http://www.inkscape.org/namespaces/inkscape"
   xmlns:sodipodi="http://sodipodi.sourceforge.net/DTD/sodipodi-0.dtd"
   xmlns="http://www.w3.org/2000/svg"
   xmlns:svg="http://www.w3.org/2000/svg">
  <sodipodi:namedview
     id="namedview1294"
     pagecolor="#ffffff"
     bordercolor="#000000"
     borderopacity="0.25"
     inkscape:showpageshadow="2"
     inkscape:pageopacity="0.0"
     inkscape:pagecheckerboard="0"
     inkscape:deskcolor="#d1d1d1"
     showgrid="false"
     inkscape:zoom="4.0885417"
     inkscape:cx="100.15796"
     inkscape:cy="96.244586"
     inkscape:window-width="1854"
     inkscape:window-height="1011"
     inkscape:window-x="0"
     inkscape:window-y="0"
     inkscape:window-maximized="1"
     inkscape:current-layer="g8" />
  <defs
     id="defs6">
    <filter
       id="colorize"
       x="-0.1"
       y="-0.1"
       width="1.2"
       height="1.2">
      <feColorMatrix
         type="saturate"
         values="0"
         result="gray"
         id="feColorMatrix1285" />
      <feColorMatrix
         in="gray"
         type="matrix"
         values="0 0 0 0 0.8627450980392157 0 0 0 0 0.396078431372549 0 0 0 0 0.396078431372549 0 0 0 1 0"
         id="feColorMatrix1287" />
    </filter>
  </defs>
  <g
     id="g8"
     filter="url(#colorize)">
    <path
       style="fill:#000000"
       d="m 107.30638,181.95444 c -3.36023,-1.03366 -8.498871,-5.48583 -11.939156,-10.34421 l -2.046283,-2.88976 -16.910471,1.67821 c -9.300758,0.92302 -18.37297,1.936 -20.16047,2.25106 -1.7875,0.31506 -3.25,0.14653 -3.25,-0.37451 0,-0.52105 4.6125,-2.16961 10.25,-3.66348 C 80.48969,164.04345 90,160.77892 90,159.42949 90,156.81686 87.630292,148 86.928097,148 c -0.400623,0 -13.119339,2.025 -28.263813,4.5 -30.771408,5.02885 -28.963776,4.7936 -28.275348,3.67971 0.278834,-0.45117 13.130391,-4.14188 28.559017,-8.2016 L 87,140.59682 v -5.79841 c 0,-7.04099 1.835536,-6.79487 -24.599066,-3.29844 -20.777765,2.74821 -25.339944,3.03904 -23.819337,1.51843 0.789599,-0.7896 45.196302,-12.00353 47.579582,-12.01517 0.363649,-0.002 0.813649,-2.72803 1,-6.05833 L 87.5,108.88979 72,109.57631 c -8.525,0.37758 -15.185453,0.35033 -14.801006,-0.0606 0.384447,-0.41089 7.494964,-2.38252 15.80115,-4.38141 L 88.102299,101.5 90.955142,93 c 1.569063,-4.675 2.682837,-8.675709 2.475052,-8.890465 -0.331183,-0.342294 -28.22636,1.885612 -44.829479,3.580399 C 42.029909,88.360658 41.271511,86.657192 47.72562,85.72435 49.801529,85.424309 58.925,83.809997 68,82.136991 77.075,80.463985 87.129813,78.73625 90.344028,78.297581 L 96.188056,77.5 98.593101,71.582406 c 1.322774,-3.254677 2.215839,-6.106803 1.984579,-6.338059 -0.23126,-0.231256 -7.408795,-0.04334 -15.950087,0.417594 C 76.0863,66.122874 69.413427,66.226624 69.798985,65.892498 70.184543,65.558372 77.475,63.846882 86,62.089186 c 8.525,-1.757695 16.22173,-3.406268 17.10384,-3.663495 1.63488,-0.476739 5.68184,-6.978897 4.8523,-7.7961 -0.5158,-0.508132 -12.668443,0.348521 -47.45614,3.345235 -36.700663,3.161501 -37.260615,3.194835 -35,2.08358 1.929035,-0.94826 41.656027,-7.559347 73.351296,-12.206607 l 15.351294,-2.250855 2.60805,-3.550472 c 1.43443,-1.95276 5.05584,-6.39593 8.04757,-9.873712 l 5.43952,-6.32324 -3.39887,0.53416 C 125.02949,22.681468 115.175,23.63159 105,24.499063 94.825,25.366536 69.205556,27.627178 48.067902,29.522711 13.515324,32.621238 4.0068507,33.149234 11.132001,31.573725 13.313602,31.091331 35.319587,27.580867 102,17.078176 c 60.57933,-9.5417222 65.94365,-9.8720699 72.69363,-4.476646 28.03068,22.405599 18.12591,99.4843 -18.74641,145.88423 -6.65818,8.37862 -16.9682,17.10008 -24.96374,21.11735 -4.23993,2.1303 -7.18434,2.82072 -12.98348,3.04442 -4.125,0.15912 -8.93713,-0.15277 -10.69362,-0.69309 z m 21.59307,-15.59162 c 10.53503,-5.24983 20.83031,-17.62826 30.08286,-36.16983 C 180.07806,87.918369 182.07214,36.547756 163,26.691183 158.45514,24.34238 151.30746,25.043734 145.5795,28.400541 140.41012,31.429998 129.83335,42.507974 124.66821,50.302762 109.04345,73.882314 98.70095,110.69557 100.31105,137 c 1.59263,26.0191 12.60363,37.32836 28.5884,29.36282 z"
       id="path2697" />
  </g>
</svg>
