<?xml version="1.0" encoding="UTF-8" standalone="no"?>
<svg
   version="1.1"
   id="svg2"
   width="240"
   height="246"
   viewBox="0 0 240 246"
   sodipodi:docname="ccug-wildborn.svg"
   inkscape:version="1.2.2 (b0a8486541, 2022-12-01)"
   xmlns:inkscape="http://www.inkscape.org/namespaces/inkscape"
   xmlns:sodipodi="http://sodipodi.sourceforge.net/DTD/sodipodi-0.dtd"
   xmlns="http://www.w3.org/2000/svg"
   xmlns:svg="http://www.w3.org/2000/svg">
  <sodipodi:namedview
     id="namedview1806"
     pagecolor="#ffffff"
     bordercolor="#000000"
     borderopacity="0.25"
     inkscape:showpageshadow="2"
     inkscape:pageopacity="0.0"
     inkscape:pagecheckerboard="0"
     inkscape:deskcolor="#d1d1d1"
     showgrid="false"
     inkscape:zoom="3.1910569"
     inkscape:cx="120.17962"
     inkscape:cy="123.31338"
     inkscape:window-width="1854"
     inkscape:window-height="1011"
     inkscape:window-x="0"
     inkscape:window-y="0"
     inkscape:window-maximized="1"
     inkscape:current-layer="g8" />
  <defs
     id="defs6">
    <filter
       id="colorize"
       x="-0.1"
       y="-0.1"
       width="1.2"
       height="1.2">
      <feColorMatrix
         type="saturate"
         values="0"
         result="gray"
         id="feColorMatrix1797" />
      <feColorMatrix
         in="gray"
         type="matrix"
         values="0 0 0 0 0.6941176470588235 0 0 0 0 0.5529411764705883 0 0 0 0 0.7411764705882353 0 0 0 1 0"
         id="feColorMatrix1799" />
    </filter>
  </defs>
  <g
     id="g8"
     filter="url(#colorize)">
    <path
       style="fill:#000000"
       d="M 141.5,245.01013 C 119.84872,242.64648 97.635075,230.99798 84.199702,214.96273 77.039037,206.41641 73.87204,198.889 73.241725,188.91751 72.0501,170.06617 80.939527,154.58718 97.720118,146.29376 c 6.656512,-3.28983 8.547022,-3.75602 16.644662,-4.10451 15.15166,-0.65208 24.30473,3.36434 37.16477,16.30813 8.46186,8.51697 16.47402,12.82581 26.9658,14.50188 22.99636,3.67368 44.88276,-11.15706 50.97346,-34.54081 0.84215,-3.23326 1.53733,-7.9216 1.54484,-10.41855 0.0283,-9.42081 1.11846,-9.85607 3.53299,-1.41064 4.01532,14.04455 4.87237,19.67532 4.77486,31.37074 -0.27771,33.31105 -18.87749,63.19584 -48.64804,78.16418 -14.18365,7.1314 -33.32959,10.57562 -49.17346,8.84595 z M 70.540996,215.4706 C 36.075541,206.43696 13.342454,185.06536 3.3267545,152.28184 0.96278545,144.54406 0.63656424,141.77611 0.58284043,129 0.51101868,111.92001 1.8836752,105.4604 8.6577798,91 20.941823,64.777767 43.691563,46.99775 72.301375,41.259467 c 6.738798,-1.351603 9.165394,-1.418963 15.113185,-0.419529 15.04687,2.528394 26.96281,11.464324 33.47738,25.105146 C 124.35948,73.20576 124.5,73.928415 124.5,84.5 c 0,10.301984 -0.20315,11.428869 -3.20145,17.75853 -6.31202,13.32518 -17.02183,21.60428 -33.29855,25.74106 -10.681174,2.71466 -16.803707,6.02151 -23.445234,12.66304 -10.016741,10.01674 -15.141368,25.60278 -12.726778,38.70723 2.5434,13.80352 8.191823,22.38827 20.868398,31.7168 C 77.263374,214.44744 81,217.37781 81,217.59859 c 0,0.58002 -0.569059,0.46424 -10.459004,-2.12799 z M 172.26797,145.63441 c -21.96205,-8.35066 -33.61863,-32.83121 -26.07152,-54.754138 3.18199,-9.243089 3.15979,-25.071342 -0.0465,-33.120734 -7.87391,-19.767707 -29.21281,-32.20417 -49.44818,-28.818752 -3.189005,0.533526 -9.826505,2.747678 -14.75,4.920337 C 77.028314,36.033782 73,37.48188 73,37.07912 73,36.098413 87.469744,22.214698 92.5,18.368876 99.1301,13.299912 108.9583,8.3031439 119,4.8959743 c 8.58034,-2.9113249 10.9037,-3.2631945 24,-3.6347606 12.97392,-0.36809407 15.49984,-0.1523459 24,2.0499305 17.46897,4.5259742 30.31362,12.0545378 42.61107,24.9753838 17.65214,18.546985 25.1223,38.681435 24.1649,65.132069 -0.4096,11.316263 -0.90362,14.351903 -3.66117,22.497073 -4.90647,14.49257 -12.202,22.997 -24.68467,28.77499 -5.0719,2.34769 -7.44973,2.78608 -16.43013,3.02915 -9.05771,0.24517 -11.35604,-0.0413 -16.73203,-2.0854 z"
       id="path2677" />
  </g>
</svg>
