<?xml version="1.0" encoding="UTF-8"?>
<svg version="1.1" xmlns="http://www.w3.org/2000/svg" width="142" height="142">
<path d="M0 0 C1.89453125 0.02734375 1.89453125 0.02734375 4 1 C5.82421875 3.37890625 5.82421875 3.37890625 7.6875 6.5625 C8.02201172 7.12735107 8.35652344 7.69220215 8.70117188 8.27416992 C9.81777114 10.17346826 10.91115112 12.0846643 12 14 C12.61609131 15.07991211 12.61609131 15.07991211 13.24462891 16.18164062 C15.8573193 20.77261096 18.43820098 25.38045965 21 30 C22.60540659 29.21085079 24.20928016 28.41858235 25.8125 27.625 C26.70582031 27.18414062 27.59914062 26.74328125 28.51953125 26.2890625 C31.14556381 24.98133095 31.14556381 24.98133095 34 23 C36.6875 23.375 36.6875 23.375 39 24 C40.08512539 27.23284451 39.96507384 28.87315805 38.59375 31.9765625 C38.26117188 32.73066406 37.92859375 33.48476562 37.5859375 34.26171875 C37.22757813 35.04160156 36.86921875 35.82148437 36.5 36.625 C36.17257813 37.38167969 35.84515625 38.13835937 35.5078125 38.91796875 C34.42231155 41.32973966 33.22807053 43.65782051 32 46 C31.5771875 46.91531494 31.154375 47.83062988 30.71875 48.77368164 C29.05984529 51.80177674 27.67079479 53.79643131 25 56 C20.3267724 57.26561065 16.00228897 57.40347171 11.18457031 57.2487793 C8.99975204 57.18749304 6.83319065 57.22785327 4.6484375 57.27929688 C-5.34855789 57.29205253 -5.34855789 57.29205253 -9.48828125 54.05322266 C-11.30009995 51.7701623 -12.69371682 49.60078569 -14 47 C-14.38027344 46.2989917 -14.76054688 45.5979834 -15.15234375 44.87573242 C-16.23782964 42.47371973 -16.21127108 40.6056767 -16 38 C-15 37 -15 37 -12.93359375 36.90234375 C-11.69802734 36.91974609 -11.69802734 36.91974609 -10.4375 36.9375 C-9.61121094 36.94652344 -8.78492188 36.95554688 -7.93359375 36.96484375 C-7.29550781 36.97644531 -6.65742187 36.98804688 -6 37 C-5.96261719 36.14921875 -5.92523438 35.2984375 -5.88671875 34.421875 C-5.46324799 26.61672764 -4.68449848 18.92474556 -3.5625 11.1875 C-3.44028076 10.3099707 -3.31806152 9.43244141 -3.19213867 8.52832031 C-3.06814697 7.7081543 -2.94415527 6.88798828 -2.81640625 6.04296875 C-2.65313843 4.94505005 -2.65313843 4.94505005 -2.48657227 3.82495117 C-2 2 -2 2 0 0 Z M5 30 C3.36890633 31.63109367 3.75127717 33.44187222 3.6875 35.6875 C3.73841566 40.7572449 4.50682079 43.31275527 8 47 C9.32 47 10.64 47 12 47 C12.62549694 39.07749772 12.62549694 39.07749772 10.1875 31.75 C8.07646007 29.68765248 8.07646007 29.68765248 5 30 Z M16.5625 45.3125 C15.7890625 46.6428125 15.7890625 46.6428125 15 48 C15.33 48.99 15.66 49.98 16 51 C19.18609925 50.64598897 20.79066678 50.16972964 23.3125 48.125 C25.31094107 46.06070069 25.31094107 46.06070069 25 43 C20.97733468 42.54287894 19.57319483 42.45619978 16.5625 45.3125 Z M-2 47 C-2 48.32 -2 49.64 -2 51 C0.97 51.495 0.97 51.495 4 52 C4.33 51.01 4.66 50.02 5 49 C3.16116119 46.71271266 3.16116119 46.71271266 0.375 46.875 C-0.800625 46.936875 -0.800625 46.936875 -2 47 Z " fill="#CA6C2C" transform="translate(59,75)"/>
<path d="M0 0 C4.08835873 1.30955496 4.85998439 2.94556477 6.95874023 6.64306641 C7.29332748 7.22271149 7.62791473 7.80235657 7.97264099 8.39956665 C9.02663583 10.24616401 10.0455605 12.1084736 11.05639648 13.97900391 C11.37811829 14.56854858 11.69984009 15.15809326 12.03131104 15.76550293 C14.2918678 19.92899467 16.4655788 24.13428153 18.61889648 28.35400391 C19.27730317 29.63673958 19.93575078 30.91945425 20.59423828 32.20214844 C35.57283926 61.45769803 35.57283926 61.45769803 35.05639648 69.97900391 C33.07639648 70.96900391 33.07639648 70.96900391 31.05639648 71.97900391 C25.92144637 66.48650912 22.60098353 60.80538591 19.24389648 54.10400391 C18.2014202 52.06338767 17.15844635 50.02302554 16.11499023 47.98291016 C15.60307129 46.97502441 15.09115234 45.96713867 14.5637207 44.92871094 C12.35627975 40.6089342 10.08563632 36.32371209 7.80639648 32.04150391 C7.07197755 30.65741263 6.33759769 29.27330063 5.60327148 27.88916016 C5.09280273 26.92880859 4.58233398 25.96845703 4.05639648 24.97900391 C4.03657715 25.80924072 4.01675781 26.63947754 3.99633789 27.49487305 C3.00230265 67.07779563 3.00230265 67.07779563 -0.94360352 73.97900391 C-2.59360352 73.64900391 -4.24360352 73.31900391 -5.94360352 72.97900391 C-9.70782606 59.04292158 -7.96014751 43.04353617 -7.56860352 28.72900391 C-7.54727356 27.91932159 -7.5259436 27.10963928 -7.50396729 26.27542114 C-6.99739272 7.69231888 -6.99739272 7.69231888 -5.94360352 1.97900391 C-2.94360352 -0.02099609 -2.94360352 -0.02099609 0 0 Z " fill="#CA6C2C" transform="translate(44.943603515625,9.02099609375)"/>
<path d="M0 0 C2.1640625 1.23828125 2.1640625 1.23828125 3.1640625 2.23828125 C2.80509401 7.55101487 1.49605235 10.93374884 -1.3984375 15.36328125 C-2.11128906 16.47316406 -2.82414062 17.58304688 -3.55859375 18.7265625 C-3.93129395 19.29842285 -4.30399414 19.8702832 -4.68798828 20.45947266 C-6.62287596 23.45768441 -8.4749843 26.50635114 -10.3359375 29.55078125 C-11.50260417 31.44661458 -12.66927083 33.34244792 -13.8359375 35.23828125 C-13.21549561 35.2225708 -12.59505371 35.20686035 -11.95581055 35.19067383 C-9.14511222 35.12831911 -6.33455938 35.08928977 -3.5234375 35.05078125 C-2.54697266 35.02564453 -1.57050781 35.00050781 -0.56445312 34.97460938 C0.37333984 34.96494141 1.31113281 34.95527344 2.27734375 34.9453125 C3.14141846 34.92960205 4.00549316 34.9138916 4.89575195 34.89770508 C7.1640625 35.23828125 7.1640625 35.23828125 8.97021484 36.5715332 C10.1640625 38.23828125 10.1640625 38.23828125 10.15234375 41.19921875 C8.60319338 45.96300921 5.52761407 47.16994888 1.36328125 49.625 C-4.26963228 52.46552905 -10.44832838 55.23828125 -16.8359375 55.23828125 C-16.36391264 50.99005751 -13.86938232 49.03838416 -10.8359375 46.23828125 C-12.28226563 46.30789062 -12.28226563 46.30789062 -13.7578125 46.37890625 C-15.02109375 46.415 -16.284375 46.45109375 -17.5859375 46.48828125 C-18.83890625 46.5346875 -20.091875 46.58109375 -21.3828125 46.62890625 C-24.8359375 46.23828125 -24.8359375 46.23828125 -27.3515625 44.53515625 C-28.8359375 42.23828125 -28.8359375 42.23828125 -28.90234375 40.0390625 C-27.32101426 35.88590042 -25.08126922 32.21291087 -22.7734375 28.42578125 C-22.30099609 27.63751953 -21.82855469 26.84925781 -21.34179688 26.03710938 C-20.17962435 24.10015517 -19.01089333 22.1674983 -17.8359375 20.23828125 C-20.15626216 20.23828125 -21.47672768 20.82963863 -23.609375 21.734375 C-24.351875 22.04568359 -25.094375 22.35699219 -25.859375 22.67773438 C-26.63539062 23.00708984 -27.41140625 23.33644531 -28.2109375 23.67578125 C-29.7384752 24.32293439 -31.26708957 24.96755326 -32.796875 25.609375 C-33.81467041 26.04141235 -33.81467041 26.04141235 -34.85302734 26.48217773 C-36.82823161 27.23534292 -38.77658783 27.76904413 -40.8359375 28.23828125 C-41.1659375 26.91828125 -41.4959375 25.59828125 -41.8359375 24.23828125 C-34.2494616 16.68750641 -26.1486466 11.38379761 -16.8359375 6.23828125 C-16.18915039 5.87331543 -15.54236328 5.50834961 -14.87597656 5.13232422 C-12.99936224 4.08151474 -11.10967233 3.06097306 -9.2109375 2.05078125 C-8.10492188 1.45910156 -6.99890625 0.86742188 -5.859375 0.2578125 C-2.8359375 -0.76171875 -2.8359375 -0.76171875 0 0 Z " fill="#CA6C2C" transform="translate(131.8359375,63.76171875)"/>
<path d="M0 0 C5.35011317 0.53168827 9.17015633 2.3767594 13.75 5 C14.45012207 5.39646729 15.15024414 5.79293457 15.87158203 6.20141602 C21.98250464 9.77468057 27.02339604 13.94864019 32 19 C32.66 19.66 33.32 20.32 34 21 C34.125 23.625 34.125 23.625 34 26 C28.1955587 25.38900618 23.34192958 23.23783536 18 21 C21.465 26.94 21.465 26.94 25 33 C24.34 33.66 23.68 34.32 23 35 C12.31237758 28.64938378 0.73699379 18.83228464 -3.8046875 6.8828125 C-4 5 -4 5 -2.0625 2.25 C-1.381875 1.5075 -0.70125 0.765 0 0 Z " fill="#CA6C2C" transform="translate(4,67)"/>
<path d="M0 0 C0 1.32 0 2.64 0 4 C-2 5.75 -2 5.75 -4 7 C-1.03 7.99 1.94 8.98 5 10 C5 10.99 5 11.98 5 13 C-1.27200672 15.58893643 -7.22047441 16.32367602 -13.9375 16.375 C-14.68314209 16.38853516 -15.42878418 16.40207031 -16.19702148 16.41601562 C-21.45872836 16.37285248 -21.45872836 16.37285248 -23.99609375 14.625 C-25 13 -25 13 -25.125 10.625 C-23.10742553 5.91732624 -19.1212767 3.85190472 -14.55859375 2.01953125 C-9.56841752 0.39677165 -5.23240018 -0.34124349 0 0 Z " fill="#CA6C2C" transform="translate(25,115)"/>
<path d="M0 0 C1.06831055 -0.00809692 1.06831055 -0.00809692 2.15820312 -0.01635742 C6.87636443 0.04661711 10.83010274 0.83794992 15.3125 2.3125 C15.3125 3.3025 15.3125 4.2925 15.3125 5.3125 C8.99913291 10.23620754 -0.49053637 10.61327468 -8.23046875 10.05859375 C-12.69932683 9.36730876 -15.89242161 8.84255226 -19.6875 6.3125 C-18.6875 3.3125 -18.6875 3.3125 -17 2.36328125 C-11.29591532 0.54221368 -5.94534097 0.02776386 0 0 Z " fill="#CA6C2C" transform="translate(124.6875,121.6875)"/>
<path d="M0 0 C0.99 0.33 1.98 0.66 3 1 C2.2011339 13.18270804 -2.21139281 25.21139281 -11 34 C-11.99 34 -12.98 34 -14 34 C-14.90296748 22.26142273 -9.85016354 12.26599848 -3 3 C-2.02695192 1.97375567 -1.03711207 0.96145648 0 0 Z " fill="#CA6C2C" transform="translate(99,51)"/>
<path d="M0 0 C12.66970387 -0.55353075 12.66970387 -0.55353075 18 3 C18 3.66 18 4.32 18 5 C13.47586788 7.40344519 9.83523457 7.19906019 5 6 C2 4.625 2 4.625 0 3 C0 2.01 0 1.02 0 0 Z " fill="#CA6C2C" transform="translate(10,105)"/>
<path d="M0 0 C3.88602985 0.57570813 6.11172864 2.41575721 9 5 C11.29013653 8.4352048 11.17842973 9.985331 11 14 C6.67998734 13.51999859 4.72677809 12.38496591 2 9 C0.3005881 5.6011762 0 3.89635934 0 0 Z " fill="#CA6C2C" transform="translate(23,61)"/>
<path d="M0 0 C0.99 0 1.98 0 3 0 C5.21390807 5.20919546 4.99577807 8.56848326 4 14 C3.67 14.66 3.34 15.32 3 16 C1.0625 15.1875 1.0625 15.1875 -1 14 C-2.41933513 9.74199462 -2.72651677 5.77088462 -1 1.5625 C-0.67 1.046875 -0.34 0.53125 0 0 Z " fill="#CA6C2C" transform="translate(83,46)"/>
<path d="M0 0 C5.46428571 0.60714286 5.46428571 0.60714286 7.875 2.375 C9 4 9 4 9 7 C3.53571429 6.39285714 3.53571429 6.39285714 1.125 4.625 C0 3 0 3 0 0 Z " fill="#CA6C2C" transform="translate(35,122)"/>
<path d="M0 0 C-0.37392721 2.71097227 -0.81357627 3.82000467 -2.8125 5.75 C-5 7 -5 7 -9 7 C-7.53563715 2.36285097 -7.53563715 2.36285097 -5.0625 0.6875 C-3 0 -3 0 0 0 Z " fill="#CA6C2C" transform="translate(100,121)"/>
</svg>
