<?xml version="1.0" encoding="UTF-8" standalone="no"?>
<svg
   version="1.1"
   id="svg2"
   width="80"
   height="79.360001"
   viewBox="0 0 80 79.360001"
   sodipodi:docname="ccug-veilpiercer.svg"
   inkscape:version="1.2.2 (b0a8486541, 2022-12-01)"
   xmlns:inkscape="http://www.inkscape.org/namespaces/inkscape"
   xmlns:sodipodi="http://sodipodi.sourceforge.net/DTD/sodipodi-0.dtd"
   xmlns="http://www.w3.org/2000/svg"
   xmlns:svg="http://www.w3.org/2000/svg">
  <sodipodi:namedview
     id="namedview1550"
     pagecolor="#ffffff"
     bordercolor="#000000"
     borderopacity="0.25"
     inkscape:showpageshadow="2"
     inkscape:pageopacity="0.0"
     inkscape:pagecheckerboard="0"
     inkscape:deskcolor="#d1d1d1"
     showgrid="false"
     inkscape:zoom="9.891633"
     inkscape:cx="40.084382"
     inkscape:cy="39.781096"
     inkscape:window-width="1854"
     inkscape:window-height="1011"
     inkscape:window-x="0"
     inkscape:window-y="0"
     inkscape:window-maximized="1"
     inkscape:current-layer="g8" />
  <defs
     id="defs6">
    <filter
       id="colorize"
       x="-0.1"
       y="-0.1"
       width="1.2"
       height="1.2">
      <feColorMatrix
         type="saturate"
         values="0"
         result="gray"
         id="feColorMatrix1541" />
      <feColorMatrix
         in="gray"
         type="matrix"
         values="0 0 0 0 0.7372549019607844 0 0 0 0 0.6823529411764706 0 0 0 0 0.5764705882352941 0 0 0 1 0"
         id="feColorMatrix1543" />
    </filter>
  </defs>
  <g
     id="g8"
     filter="url(#colorize)">
    <path
       style="fill:#000000;stroke-width:0.32"
       d="M 17.616489,73.353342 C 9.708392,61.390785 5.6474195,51.975479 4.1277971,42.080001 3.5664442,38.42458 3.6432723,31.167645 4.2819421,27.52 5.3822947,21.23554 8.3007974,13.869066 11.933057,8.2081303 l 1.406383,-2.1918701 0.221448,4.4125748 c 0.283295,5.644936 1.778131,14.89532 3.212139,19.877453 3.030342,10.528231 7.938341,20.524605 13.679955,27.86267 l 1.571895,2.008956 -2.065429,2.311044 c -1.135985,1.271075 -2.410511,2.726067 -2.832281,3.233318 l -0.766854,0.922275 -1.836321,-2.439897 C 21.009369,59.534814 16.9625,52.385719 14.591864,46.65881 13.660804,44.409585 11.971933,38.693399 11.395401,35.84 c -0.0889,-0.44 -0.09596,0.424 -0.01567,1.92 0.48126,8.967927 5.199266,20.886382 11.314086,28.581239 l 1.908231,2.401306 -2.589228,3.38873 c -1.424075,1.863798 -2.675535,3.385731 -2.781022,3.382067 -0.105487,-0.0036 -0.832375,-0.975661 -1.615306,-2.16 z M 36.198771,54.160001 C 38.591558,48.30794 39.68,44.826285 39.68,43.024404 c 0,-1.669469 0.03693,-1.739063 1.431987,-2.69889 4.59424,-3.160922 7.208013,-7.81935 7.208013,-12.846573 0,-1.004628 0.08754,-2.054731 0.194541,-2.333562 0.106998,-0.278831 1.422707,-1.082504 2.923798,-1.785939 5.098455,-2.389216 9.23176,-5.517005 18.113338,-13.7068709 C 75.336771,4.3180273 76.524573,3.369705 74.88,5.3985188 65.075811,17.493384 61.264384,26.028611 63.881741,30.027765 c 0.269168,0.41127 0.441891,0.779547 0.383827,0.818392 -0.05806,0.03884 -1.089174,0.545089 -2.29136,1.124985 -3.137363,1.513364 -5.247146,3.755553 -7.160416,7.609793 -0.857043,1.726486 -1.793168,3.751066 -2.080282,4.499066 -0.443948,1.156588 -0.657494,1.360038 -1.427766,1.360252 -1.249917,3.2e-4 -4.394531,1.550663 -6.505744,3.207376 -0.968,0.759607 -3.508061,3.01264 -5.644576,5.00674 -2.136518,1.994096 -3.962829,3.625632 -4.058467,3.625632 -0.09564,0 0.400176,-1.404 1.101814,-3.12 z"
       id="path2657" />
  </g>
</svg>
