<?xml version="1.0" encoding="UTF-8"?>
<svg version="1.1" xmlns="http://www.w3.org/2000/svg" width="133" height="133">
<path d="M0 0 C8.13526155 6.80705558 14.97431897 14.03018897 21.61914062 22.30273438 C23.14836947 24.18236643 24.70463728 26.03729045 26.265625 27.890625 C32.39801287 35.19482849 38.30520967 42.58452601 43.8125 50.375 C44.32208252 51.09445801 44.83166504 51.81391602 45.35668945 52.55517578 C47.34136458 55.40786762 48.89253999 57.67761997 50 61 C48.74511261 63.71534313 47.4271434 66.2283736 45.9375 68.8125 C45.49140381 69.59931152 45.04530762 70.38612305 44.58569336 71.19677734 C32.86416678 91.60541459 19.86778399 111.72039244 5 130 C4.4946875 130.63292969 3.989375 131.26585937 3.46875 131.91796875 C2 133 2 133 0.046875 132.92578125 C-7.47345561 129.52441035 -12.51618804 119.55102343 -16.79394531 112.87011719 C-18.13524756 110.79028414 -19.49999002 108.72696178 -20.8671875 106.6640625 C-48.11398113 65.39093847 -48.11398113 65.39093847 -47.921875 59.67578125 C-46.66661824 56.0323453 -44.56054385 53.21973914 -42.25 50.1875 C-41.7648291 49.5387793 -41.2796582 48.89005859 -40.77978516 48.22167969 C-35.52982656 41.26285873 -30.01969618 34.51473919 -24.47216797 27.79248047 C-23.16901313 26.2057868 -21.88208945 24.60579286 -20.59765625 23.00390625 C-14.15575291 14.97773735 -7.2794781 7.2794781 0 0 Z M0 14 C-3.62506136 18.66775374 -6.90918934 23.6519096 -10 28.6875 C-10.61875 29.68330078 -10.61875 29.68330078 -11.25 30.69921875 C-12.37343284 34.14558304 -11.86243941 36.50128294 -11 40 C-9.12950681 43.33398149 -9.12950681 43.33398149 -6.6875 46.375 C-5.90761719 47.41398437 -5.12773438 48.45296875 -4.32421875 49.5234375 C-2.08135506 51.91331242 -1.19474019 52.72219651 2 53 C9.00369415 45.68322978 9.00369415 45.68322978 14 37 C12.89072514 28.86531769 6.58041269 19.89929341 1 14 C0.67 14 0.34 14 0 14 Z M-24 41 C-24.11681812 44.54138618 -24.187455 48.0822724 -24.25 51.625 C-24.28351562 52.62402344 -24.31703125 53.62304688 -24.3515625 54.65234375 C-24.43113704 60.66022187 -24.14511393 64.30509783 -20 69 C-18.66394197 70.33092921 -17.31007571 71.64426393 -15.9375 72.9375 C-11.0724599 78.32508145 -10.27287618 83.92233887 -9.29003906 90.95458984 C-8.79547739 94.44233201 -8.18784562 97.90862337 -7.5625 101.375 C-7.44310059 102.04474854 -7.32370117 102.71449707 -7.20068359 103.40454102 C-6.18688798 108.74523755 -4.4910219 113.18975081 -2 118 C-1.67 118 -1.34 118 -1 118 C-1.04425884 111.8613753 -1.11420501 105.72376874 -1.20751953 99.58569336 C-1.23566962 97.49951296 -1.2569137 95.41322708 -1.27099609 93.3269043 C-1.29250802 90.32025385 -1.33920124 87.31486359 -1.390625 84.30859375 C-1.39185364 83.38227646 -1.39308228 82.45595917 -1.39434814 81.50157166 C-1.52958716 75.46350886 -2.58168634 71.9942303 -6 67 C-6.62418823 66.0114502 -6.62418823 66.0114502 -7.26098633 65.00292969 C-7.61443115 64.48118164 -7.96787598 63.95943359 -8.33203125 63.421875 C-8.73494385 62.82318604 -9.13785645 62.22449707 -9.55297852 61.60766602 C-9.96862061 60.99463623 -10.3842627 60.38160645 -10.8125 59.75 C-14.55914829 54.18944853 -18.19482304 48.58154487 -21.72265625 42.87890625 C-22.14417969 42.25886719 -22.56570312 41.63882813 -23 41 C-23.33 41 -23.66 41 -24 41 Z M24 41 C22.8216431 42.49859559 22.8216431 42.49859559 21.71484375 44.48046875 C21.27060059 45.22659424 20.82635742 45.97271973 20.36865234 46.74145508 C19.89637207 47.5486499 19.4240918 48.35584473 18.9375 49.1875 C14.8045927 56.13492953 10.46474 62.7873201 5.6796875 69.30078125 C2.35770094 74.6391364 2.86623257 80.36290823 2.90234375 86.45703125 C2.9037587 87.35999435 2.90517365 88.26295746 2.90663147 89.19328308 C2.91221177 92.06638963 2.92476066 94.93941716 2.9375 97.8125 C2.94251755 99.76497283 2.94708001 101.71744689 2.95117188 103.66992188 C2.96217475 108.44664485 2.97942582 113.22330904 3 118 C8.61137287 109.58294069 9.69055931 98.81723863 10.87280273 88.98071289 C11.85006888 81.38349832 14.06064734 76.65309663 19.5625 71.1875 C27.64114955 62.33508369 26.25056557 52.34505216 26 41 C25.34 41 24.68 41 24 41 Z M-29 67 C-30.22318432 80.1492314 -23.07223368 91.82832315 -15.125 101.6875 C-14.42375 102.450625 -13.7225 103.21375 -13 104 C-12.67 104 -12.34 104 -12 104 C-12.91524722 87.68335126 -17.27393209 78.51238103 -29 67 Z M30 67 C28.53181462 68.53370278 27.1007771 70.10305677 25.6875 71.6875 C24.51767578 72.99267578 24.51767578 72.99267578 23.32421875 74.32421875 C22.55722656 75.20722656 21.79023437 76.09023437 21 77 C20.278125 77.80695313 19.55625 78.61390625 18.8125 79.4453125 C13.89464918 86.37693844 13.54355171 96.69677903 13 105 C24.16113922 94.46987925 29.57084272 82.14906717 31 67 C30.67 67 30.34 67 30 67 Z " fill="#699199" transform="translate(65,0)"/>
</svg>
