<?xml version="1.0" encoding="UTF-8" standalone="no"?>
<!-- Generator: Adobe Illustrator 26.0.3, SVG Export Plug-In . SVG Version: 6.00 Build 0)  -->

<svg
   version="1.1"
   id="Artificer_xA0_Image_1_"
   x="0px"
   y="0px"
   viewBox="0 0 120 120"
   style="enable-background:new 0 0 120 120;"
   xml:space="preserve"
   sodipodi:docname="cs-ruinmaw.svg"
   inkscape:version="1.1.2 (0a00cf5339, 2022-02-04)"
   xmlns:inkscape="http://www.inkscape.org/namespaces/inkscape"
   xmlns:sodipodi="http://sodipodi.sourceforge.net/DTD/sodipodi-0.dtd"
   xmlns="http://www.w3.org/2000/svg"
   xmlns:svg="http://www.w3.org/2000/svg"><defs
   id="defs1548" /><sodipodi:namedview
   id="namedview1546"
   pagecolor="#ffffff"
   bordercolor="#666666"
   borderopacity="1.0"
   inkscape:pageshadow="2"
   inkscape:pageopacity="0.0"
   inkscape:pagecheckerboard="0"
   showgrid="false"
   inkscape:zoom="3.2583333"
   inkscape:cx="56.010231"
   inkscape:cy="84.092072"
   inkscape:window-width="1850"
   inkscape:window-height="1043"
   inkscape:window-x="0"
   inkscape:window-y="0"
   inkscape:window-maximized="1"
   inkscape:current-layer="Artificer_xA0_Image_1_" />
<style
   type="text/css"
   id="style1541">
	.st0{fill:#231F20;}
</style>
<path
   class="st0"
   d="M58.3,53.1c3.3,5.5,3.5,12.4,0.4,18.1c-1.3,2.6-3,5.1-4.9,7.3c-3.4,3.7-5.3,8.5-5.4,13.5  c-0.3,6.1,2.3,12,7.1,15.9c6,4.3,14,4.4,20.1,0.2c4.6-3.4,7.6-8.5,8.3-14.1c1.5-8.4-0.5-17-5.7-23.8c-4.4-6.3-10-11.6-16.6-15.4  C60.5,54.1,59.4,53.6,58.3,53.1z M61.4,73.2c1.9,5.7,0.7,12-3.2,16.6c-0.7,0.6-1.5,1-2.4,1.2c-1.5,0.4-2.4-0.4-2.4-2  c0-0.4,0-0.8,0-1.2c0.5-2.7,1.9-5.3,3.9-7.2C59.4,78.7,60.9,76.1,61.4,73.2z M100.2,56.3c-0.1,1.5-0.4,3.1-0.9,4.5  c-1.5,2.5-2.8,5.2-3.6,8c-1,5.7,1.4,8.3,2,11.4c0.1,0.1,0.1,0.3,0,0.5l-0.2,0.5c-1.3,2.6-3,5-4.9,7.1c-0.8,1-1.7,1.9-2.7,2.7  c-0.5,0-1.7,0.6-3.3,1c1.1-8.4-1.2-17-6.3-23.8c-4.6-6.5-10.5-12-17.4-16.1l-2.4-1.2l-1.1-0.5l-7.2-3.5l4.2,6.9c3,4.9,3.2,11,0.4,16  c-0.2,0.6-0.5,1.2-0.9,1.7l-1.2-0.6h-0.7c-1-0.3-2.1-0.3-3.2,0c-2.7,0.8-7,2.5-7.8,2.7c-1.3,0.1-2.5,0.1-3.8,0  c-2.5-0.2-4.9-0.7-7.3-1.3c-1.7-0.6-3.3-1.4-4.8-2.5c-1.2-0.8-2.2-1.8-3.2-2.9c-0.8-1.3-1.5-2.7-2.1-4.2c-0.2-0.7-0.4-1.4-0.5-2.2  c0-0.5,0-1,0-1.4s0.1-0.3,0.5-0.3l2.4,1.5c1.6,1.1,3.2,1.9,4.9,2.7c2.3,0.9,4.7,1.5,7.1,1.7c1.6-0.1,3.3-0.5,4.8-1  c0.1,0,0.2-0.1,0.2-0.2c0-0.1-0.1-0.2-0.2-0.2c-8.3-1.8-15.2-5.2-18.2-10c-2.6-3.6-3.8-8-3.4-12.5c0.1-1.3,0.5-2.6,1-3.7  c0.4-0.9,0.8-1.8,0.9-2l0,0c0,0,1.5-2.4,2.2-3.5c0.1-0.1,0.2-0.1,0.3-0.1c0,0,0.1,0,0.1,0.1c0.4,4.8,0.5,6.9,0.8,8.3  c0.5,2.5,1.6,4.8,3.2,6.9c1.9,2.1,4.2,3.9,6.8,5.2c1.3,0.6,2.7,1,4.2,1.3h4.2c1.4-0.2,2.8-0.6,4.2-1.1l0,0l0,0  c-0.6-0.4-4.2-1.5-5.1-2c-1.7-0.7-3.4-1.7-4.9-2.9c-10.5-8.2-8.5-31,1.8-38.4c0.1-0.1,0.3,0,0.4,0.1c0,0,0,0.1,0,0.1  c-1.7,6.6-1.7,13.6,0,20.2c1.2,4.4,4,8.1,7.8,10.6c1.6,1.1,3.5,1.9,5.5,2.2h0.5c0,0,0.3,0,0.2-0.3c-6.6-9.6-5.7-15.4-5.5-17.8  c0.3-2.8,0.9-5.6,1.9-8.3c1.9-5,3.7-6.1,4.5-6.5h0.3c2.6,28,11.8,27.7,18.8,36.1l0,0l3.6,0.6l0,0c0.7-0.4,6.5-4.2,7.6-5  c2-1.5,3.5-3.7,4.2-6.2c-0.1-1.5-0.5-3-1.1-4.4c-0.7-1.4-1.4-2.8-2.2-4.2c-1.5-2.3-5.6-8.6-4.7-9.5c0.9-0.9,9.3,1.9,9.8,2.1  c0.3,0.2,0.7,0.4,1,0.6c2.8,2.3,5.3,5,7.4,7.9c0.4,0.8,0.8,1.5,1,2.4c0.3,1.3,0.6,2.6,0.7,3.9C100.6,44.5,100.8,51.1,100.2,56.3z"
   id="path1543"
   style="fill:#c12729;fill-opacity:1" />
</svg>
