<?xml version="1.0" encoding="UTF-8" standalone="no"?>
<!-- Generator: Adobe Illustrator 25.2.0, SVG Export Plug-In . SVG Version: 6.00 Build 0)  -->

<svg
   version="1.1"
   id="Layer_1"
   x="0px"
   y="0px"
   viewBox="0 0 512 512"
   style="enable-background:new 0 0 512 512;"
   xml:space="preserve"
   sodipodi:docname="cs-brightspark.svg"
   inkscape:version="1.1.2 (0a00cf5339, 2022-02-04)"
   xmlns:inkscape="http://www.inkscape.org/namespaces/inkscape"
   xmlns:sodipodi="http://sodipodi.sourceforge.net/DTD/sodipodi-0.dtd"
   xmlns="http://www.w3.org/2000/svg"
   xmlns:svg="http://www.w3.org/2000/svg"><defs
   id="defs987" /><sodipodi:namedview
   id="namedview985"
   pagecolor="#ffffff"
   bordercolor="#666666"
   borderopacity="1.0"
   inkscape:pageshadow="2"
   inkscape:pageopacity="0.0"
   inkscape:pagecheckerboard="0"
   showgrid="false"
   inkscape:zoom="1.5273438"
   inkscape:cx="-194.7826"
   inkscape:cy="255.99999"
   inkscape:window-width="1850"
   inkscape:window-height="1043"
   inkscape:window-x="0"
   inkscape:window-y="0"
   inkscape:window-maximized="1"
   inkscape:current-layer="Layer_1" />
<style
   type="text/css"
   id="style978">
	.st0{fill:#231F20;}
</style>
<g
   transform="translate(0,0)"
   id="g982"
   style="fill:#caad2e;fill-opacity:1">
	<path
   class="st0"
   d="M196.3,18.5l39.5,92.6c15.4,5.2,30.5,5,46.1,0l34.2-92.6H196.3L196.3,18.5z M163.7,35.1l4.6,12.5   c8.3,22.7,21.6,45.9,29,67.7s9.1,40.4-3.1,57.6c-13.7,19.3-38.6,39-60.6,62.4S91.9,287,91.9,323.5c0,91,73.9,165.6,164.9,165.6   s165.6-74.6,165.6-165.6c0-36.4-18.6-65-40.3-88.7c-21.7-23.8-46.8-43.6-62.2-62.3c-9.2-11.2-8.1-34.1-0.9-58.9s19.3-50,25.9-65.3   l5.7-13.1H330l-33,89.2c-4.6,22-4.8,43.9,8.4,60c17.5,21.3,42.6,40.9,62.9,63.1s35.5,46.1,35.5,76.1c0,80.9-66.1,146.9-146.9,146.9   c-80.9,0-146.2-66-146.2-146.9c0-29.9,15.8-53.3,36.5-75.3s46-41.6,62.3-64.4c16.1-22.7,14-48.6,6.3-72.3l-24.3-56.9   c-0.1-0.3-0.2-0.5-0.4-0.8l0,0l-8-18.7L163.7,35.1L163.7,35.1z M257,237.4c-29.5,0-56.2,4.6-74.8,11.5c-9.3,3.5-16.4,7.6-20.7,11.4   c-3.9,3.5-5.3,6.2-5.5,8.4h-0.3c0,15.3,7.8,30,20.9,41.9c-0.5-0.2-1-0.4-1.5-0.6c-10.7-4.8-19.7-10.4-26.4-17   c-2.2-2.2-4.2-4.5-5.9-7c-7.5,12.1-12.4,25.6-12.4,41.1c0,69.8,56.7,127.1,126.5,127.1S384,396.8,384,327.1   c0-15.7-4.9-29.5-12.4-41.9c-1.8,2.8-4,5.4-6.5,7.8c-6.7,6.6-15.7,12.2-26.4,17c-0.4,0.2-0.9,0.4-1.4,0.6   c13.1-11.9,20.8-26.5,20.8-41.8h-0.4c-0.2-2.2-1.5-4.9-5.5-8.4c-4.3-3.8-11.5-7.9-20.7-11.4C313.2,241.9,286.5,237.4,257,237.4   L257,237.4z"
   id="path980"
   style="fill:#caad2e;fill-opacity:1" />
</g>
</svg>
