<?xml version="1.0" encoding="UTF-8" standalone="no"?>
<!-- Generator: Adobe Illustrator 25.2.0, SVG Export Plug-In . SVG Version: 6.00 Build 0)  -->

<svg
   version="1.1"
   id="Layer_1"
   x="0px"
   y="0px"
   viewBox="0 0 600 600"
   style="enable-background:new 0 0 600 600;"
   xml:space="preserve"
   sodipodi:docname="cs-hierophant.svg"
   inkscape:version="1.1.2 (0a00cf5339, 2022-02-04)"
   xmlns:inkscape="http://www.inkscape.org/namespaces/inkscape"
   xmlns:sodipodi="http://sodipodi.sourceforge.net/DTD/sodipodi-0.dtd"
   xmlns="http://www.w3.org/2000/svg"
   xmlns:svg="http://www.w3.org/2000/svg"><defs
   id="defs1265" /><sodipodi:namedview
   id="namedview1263"
   pagecolor="#ffffff"
   bordercolor="#666666"
   borderopacity="1.0"
   inkscape:pageshadow="2"
   inkscape:pageopacity="0.0"
   inkscape:pagecheckerboard="0"
   showgrid="false"
   inkscape:zoom="1.3033333"
   inkscape:cx="-228.26088"
   inkscape:cy="299.23274"
   inkscape:window-width="1850"
   inkscape:window-height="1043"
   inkscape:window-x="0"
   inkscape:window-y="0"
   inkscape:window-maximized="1"
   inkscape:current-layer="Layer_1" />
<path
   d="M274.4,204c1.8-6.1,3.5-11.6,5.6-17.7c-5.2-3.1-8.7-9-8.7-15.5c0-10.1,8.2-18.3,18.3-18.3c1.4,0,2.7,0.1,4,0.4  c0.1,0,0.3,0.1,0.5,0.1c-0.4,2.3-0.8,4.6-1.1,7c-0.5,3.8,0.7,6.8,1.5,8.7l0,0c0,0,0.1,0.1,0.1,0.3c0.1,0.3,0.3,0.4,0.3,0.7  c0.8,2.5,1.6,5,2.6,7.5c1,2.9,1.9,5.6,2.9,8.3c-3,2.2-6.7,3.4-10.6,3.4c-0.7,0-1.5,0-2.2-0.1c-2.5,7.1-4.4,13.4-6.4,20.6  C278.8,207.6,276.7,205.8,274.4,204z M311.8,129.7c0.4,0.3,1.5,1.1,2.6,2.2c0.3,0.3,0.5,0.5,1,0.8c1.1-1.6,2.2-3.1,3.3-4.6  c2.3,1.1,4.9,1.6,7.8,1.6c4.5,0,8.6-1.6,11.9-4.4l0,0c1.2-1.1,2.3-2.3,3.3-3.5c0-0.4,0.1-0.8,0.1-1.4c0.3-2.2,0.7-4.2,1.1-6.3  c-10.5-2.7-19.1-10.2-23.5-19.9c-6.7,2.7-11.5,9.4-11.5,17.1c0,4.6,1.6,8.9,4.5,12.1c-1.1,1.4-2,2.9-3.1,4.5L311.8,129.7z   M251.8,308.8c2,0.7,4.2,1.2,6.3,1.8c2.6,0.7,5.2,1.4,7.8,1.9c1.6,0.3,3.3,0.7,4.9,0.8c0.4,0,0.7,0.1,1.1,0.1c0.8,0,1.2-0.1,1.2-0.3  c0.1-0.1,0.4-1.1-0.1-2.9c-1.1-4-3.1-7.5-5.3-9.5c-0.7-0.5-1.2-1.1-1.9-1.6c-2.3-2-4.8-4.2-7.2-6.3c-2.7-2.3-5.5-4.6-8.3-7  c-4.1,3.4-6.7,8.5-6.7,14c0,2.3,0.4,4.6,1.2,6.7l0.4,0.1C247.4,307.4,249.6,308.1,251.8,308.8z M242,420.6c0-2.6-0.5-4.9-1.6-7.1  c2.2-2,4.5-4.2,6.7-6.8c-1.4-2.5-2.7-4.8-4.1-7.2c-2.5,3-5,5.6-7.5,7.9c-2.9-2.2-6.4-3.5-10.2-3.5c-9.3,0-16.8,7.5-16.8,16.6  c0,2,0.4,4,1,5.7c-5.7,3.1-12.8,6.3-20.7,8.2c-2.3-7-8.9-12-16.5-12c-6.8,0-12.8,4-15.7,9.8c-5.6-2.3-10.1-5.5-13.6-8.5  c1.6-2.3,2.6-5.2,2.6-8.3c0-8-6.5-14.5-14.5-14.5c-1,0-1.8,0.1-2.6,0.3c-1.6-4.1-3.3-9.1-4.9-15.1c4.4-2.5,7.2-7.1,7.2-12.4  c0-7.2-5.3-13.1-12.3-14c-0.7-6.1-1-12-1.1-16.9c5.5-1.6,9.4-6.7,9.4-12.7c0-5.6-3.5-10.5-8.5-12.3c0.5-5.7,1.5-13.4,3-22.6  c6.8-0.7,12-6.4,12-13.4c0-5-2.7-9.5-7-11.9c2.7-10.9,5.6-20.3,8-27.3c0.3,0,0.5,0,0.8,0c7.5,0,13.5-6,13.5-13.5  c0-4.4-2.2-8.3-5.5-10.8c2.6-6.4,6.7-15,12.3-25.4c1.2,0.3,2.5,0.5,3.7,0.5c8,0,14.5-6.5,14.5-14.5c0-3.8-1.5-7.2-3.8-9.8  c4.8-7.5,8.6-13.4,11.6-17.9c1.5,0.5,3.1,0.8,4.9,0.8c8,0,14.5-6.5,14.5-14.5c0-3.4-1.2-6.5-3.1-9c4.2-5.2,10-11.9,17.2-19  c2.2,1.4,4.9,2.2,7.8,2.2c8,0,14.5-6.5,14.5-14.5c0-1.9-0.4-3.7-1.1-5.3c6.8-4.6,13-7.8,18.1-10c2.7,4.2,7.6,7.1,13.1,7.1  c8.6,0,15.5-7,15.5-15.5c0-0.3,0-0.5,0-0.7c5.9-1.6,13-3.3,20.6-4.5c1.9,5.5,6.7,9.5,12.4,10.6c0-4.4,0.8-8.6,2.3-12.4  c0.3-0.8,0.7-1.5,1-2.3c2.6-5.5,6.5-10.2,11.3-13.8c-3-2.9-7-4.5-11.5-4.5c-8.5,0-15.5,6.4-16.5,14.6c-8.2,1.4-15.8,3.1-22,4.9  c-2.7-4.5-7.6-7.4-13.2-7.4c-8.6,0-15.5,7-15.5,15.5c0,0.3,0,0.7,0,1.1c-5.7,2.5-12.7,6-20.3,11.2c-2.5-1.9-5.5-3-8.7-3  c-8,0-14.5,6.5-14.5,14.5c0,2.3,0.5,4.6,1.6,6.5c-7.8,7.5-13.9,14.6-18.3,20.1c-1.6-0.5-3.3-1-5-1c-8,0-14.5,6.5-14.5,14.5  c0,3.4,1.2,6.7,3.3,9.1c-3.1,4.5-7.1,10.5-12,18.3c-1.2-0.4-2.7-0.5-4.1-0.5c-8,0-14.5,6.5-14.5,14.5c0,4,1.5,7.5,4.1,10.1  c-6,10.9-10.2,19.9-13,26.6c-0.3,0-0.5,0-0.8,0c-7.5,0-13.5,6-13.5,13.5c0,4.4,2,8.3,5.3,10.8c-2.5,7.1-5.5,16.9-8.3,28.2  c-7,0.5-12.5,6.3-12.5,13.5c0,5.3,3,9.8,7.4,12c-1.6,9.7-2.6,17.6-3.1,23.5c-5.9,1.4-10.2,6.5-10.2,12.8c0,5.9,4,10.9,9.3,12.5l0,0  c0.1,5.2,0.4,11.6,1.1,18.1c-4.9,2.2-8.3,7.1-8.3,13c0,7.6,6,13.8,13.5,14.2c1.8,6.7,3.7,12.3,5.5,16.8c-3,2.6-4.8,6.5-4.8,10.8  c0,8,6.5,14.5,14.5,14.5c2,0,4-0.4,5.7-1.2c4.4,4,10.4,8.2,18,11.2c0,9.5,7.8,17.2,17.3,17.2c8.7,0,16.1-6.5,17.2-15l0,0  c9.4-2,17.7-5.9,24.3-9.5c3,2.9,7,4.5,11.5,4.5C234.5,437.3,242,429.8,242,420.6z M500,238.1c-29.9,12.1-29.9,11.6-32.3,2.2  c-5.9,4.6-11.6,9.7-17.6,13.4c-10.5,6.4-21.1,12.7-32.2,16.9c-4.8,1.9-12.4,1.8-15-1.4c-4.1-5,0.5-12.8,4.9-18.1  c8.5-10.1,17.3-19.8,26.2-29.6c5.9-6.5,12.3-12.4,18.8-19.2c-6-4.9-2.6-10.2,0-15.4c2.3-4.5,5.9-7.9,5-14.2c-0.5-4.5,3.1-10.4,5-16  c-7.4,2-13.6,14.6-22.4,7c-7,8.2-16,12.1-25.8,12.1c-12.3,0-19.9-7.2-19.2-20.5c0.4-10.2,3.7-20.6,5.7-31c0.5-2.7,1.8-5.3,2.9-8.6  c-5.5,0.3-12.4,8.7-15.1-0.3v-0.1c11.7-2.7,20.6-13.4,20.6-25.9c0-14.7-12-26.7-26.7-26.7s-26.7,12-26.7,26.7  c0,8.7,4.2,16.5,10.8,21.4c-2.5,7.4-8.3,6.8-16.5-1.4c-0.8,4.4-1.6,8-2,11.7c-1.2,10-2.9,19.9-13.5,24.4c-10.9,4.5-19.4,0-27-7  c-0.7-0.7-1.4-1.1-1.5-1.2c-1.2,7.5-2.7,15.7-4,24c-0.3,1.6,1.1,3.4,1.6,5.2c3.8,11.5,8.2,22.9,10.5,35.1c1.6,8.5,1.4,18.8-7.5,24.8  c-8.6,5.7-16.6,1.2-23.5-3.3c-8.6-5.9-16.4-13.1-24.6-19.6c-1.5-1.2-3-2.6-4.8-4c-2.2,9.7-5.2,11.5-14.6,8.6  c-4.2-1.4-8.3-3.4-13.5-5.6c2.9,5.7,5.3,10.2,7.4,15.1c1.9,4.5,2,8.5-4.8,7.6c3.7,5.9,8.2,10.9,10.2,17.1c2.6,7.4-1.8,13.1-7.6,15.8  c14.2,11.7,28.9,23.2,42.7,35.6c4,3.4,6.7,8.9,8.2,14.2c2.6,9.4-3.1,16.4-12.7,15c-9.7-1.4-18.8-4.6-26.7-6.8  c-10.8,6.8-18.1-2.6-26.6-2.3c-0.3,9.5,5.3,15.7,10.9,22.1c2.3,2.6,3,6.8,4.4,10.2c-0.5,0.4-1.2,0.8-1.8,1.2c2.2,0.7,4.4,1.4,6.5,2  c5.7,1.6,11,3.1,16,5.3c2.3,1.1,4.5,2.3,7,4c4.1,2.5,7.9,5.6,11.5,8.7c1.8,1.5,1.1,5.7,1.5,8.6c-2.9,0.7-5.9,2.3-8.3,1.9  c-8.3-1.4-16.4-3.5-25.6-5.9c12,20.2,23.1,39.8,34,59.7c1.1,2,2.5,4.1,4.2,5.7c0,0,0.1,0.1,0.3,0.1c0.5,0.3,1,0.7,1.2,1  c0.1,0.1,0.3,0.3,0.4,0.4l0,0c1.4,1.5,1.9,3.7-1,9.3c-0.8,1.6-1.6,3.1-2.5,4.8c-2.3,4.6-4.6,9-7.1,13.2  c-10.2,17.2-21.1,34.2-32.6,51.2c-5.3,7.8-10.6,15.5-16.2,23.2c-0.8,1.1-1.5,2.3-2,3.1c-1,1.6-1.9,3.3-2.9,4.9c0.8,1,1.6,2,2.6,3  c0.5,0.7,1.1,1.2,1.5,1.9c1.6,0,3.4,0,5,0c1.2-0.4,2.6-0.7,3.8-1.1c1.6-0.7,4.8-2.3,6.1-3.1c4-2.6,6.4-4,9.5-8.3  c9.3-13.1,17.7-26.9,25.6-40.2c1.9-3.1,3.7-6.1,5.5-9.3c6.8-11.6,13.1-23.5,19.1-34.8c1.4-2.7,2.7-5.5,4.1-8.2l0.1-0.1h0.1l0.4-0.8  c58.7-116.5,73.9-256.8,73.9-256.8l7.1-16.4c0,0-0.5,48.4-6.1,86.1c-5.6,37-23.6,117.9-49.1,177.9c3.5-1.4,7.2-2.5,10.8-3.4  c0,0,0,0,0.1,0c6.8-1.9,14.2-3.3,22.5-4.1c3.3-0.4,6.5-1.1,10.1-1.8c0.8-0.1,1.6-0.4,2.5-0.5c-2.5-2.5-4.9-4.1-6.1-6.4  c-1.8-3.3-4.4-7.4-3.4-10.9c0.8-2.6,7-6.5,10.4-7l0,0c0.5-0.3,1.1-0.5,1.4-0.5c12.7-1.6,25.5-2.6,38.6-3.8c1.6-0.1,3.7,0.3,5.7,0.7  c1.2,0.3,2.5,0.4,3.7,0.7c0.1,0,0.4,0,0.5,0c2.3-10.2,14.9-20.7,31.1-27.1c1.1-0.4,2.2-1,3.3-1.4c0.3-0.4,0.5-1,1-1.4  c-4.8-0.4-9.7-0.7-14.5-1.2c-4.1-0.5-6.8-2.3-2.9-8c-8.6,0.3-16.9,1.4-24.7,0.4c-7.1-0.8-13.8-3-19.9-5.7c-2.6-1.2-5.2-5.2-4.9-8.3  c0.3-2.3,4.8-6.5,7.8-7.8c5.5-2.2,10.9-4.5,16.5-6.7c1.1-0.4,2.2-0.8,3.3-1.4c6.5-2.6,13.2-5.2,19.9-7.2c7.1-2.3,14.2-3.5,21.7-5  c3.5-0.7,7.1-1.4,10.6-2.2c1.8-0.4,3.4-1,5.5-1.5c0.3-0.1,0.7-0.3,1.1-0.3c-0.7-1.2-1-1.8-1.4-2.2c-11.3-10.4-10.6-16.1,3.1-30.4  c4.4-4.6,9.3-8.7,14-13.4c-1.8-0.7-3.5-1.4-6.7-2.6C489.3,258.2,494.7,248.2,500,238.1z M343.9,107.3l2-11.9l5.3,5.2  c-1.2-3.5-1.9-7.4-1.9-11.3c0-14.3,9-26.5,21.6-31.4c-5-4.5-11.7-7.2-19.1-7.2c-16,0-28.8,12.8-28.8,28.8  C322.8,92.9,331.7,103.9,343.9,107.3z"
   id="path1260"
   style="fill:#ddde8b;fill-opacity:1" />
</svg>
