<?xml version="1.0" encoding="UTF-8" standalone="no"?>
<!-- Generator: Adobe Illustrator 25.2.0, SVG Export Plug-In . SVG Version: 6.00 Build 0)  -->

<svg
   version="1.1"
   id="Layer_1"
   x="0px"
   y="0px"
   viewBox="0 0 512 512"
   style="enable-background:new 0 0 512 512;"
   xml:space="preserve"
   sodipodi:docname="cs-chieftain.svg"
   inkscape:version="1.1.2 (0a00cf5339, 2022-02-04)"
   xmlns:inkscape="http://www.inkscape.org/namespaces/inkscape"
   xmlns:sodipodi="http://sodipodi.sourceforge.net/DTD/sodipodi-0.dtd"
   xmlns="http://www.w3.org/2000/svg"
   xmlns:svg="http://www.w3.org/2000/svg"><defs
   id="defs1127" /><sodipodi:namedview
   id="namedview1125"
   pagecolor="#ffffff"
   bordercolor="#666666"
   borderopacity="1.0"
   inkscape:pageshadow="2"
   inkscape:pageopacity="0.0"
   inkscape:pagecheckerboard="0"
   showgrid="false"
   inkscape:zoom="1.5273438"
   inkscape:cx="-194.7826"
   inkscape:cy="255.99999"
   inkscape:window-width="1850"
   inkscape:window-height="1043"
   inkscape:window-x="0"
   inkscape:window-y="0"
   inkscape:window-maximized="1"
   inkscape:current-layer="Layer_1" />
<style
   type="text/css"
   id="style1118">
	.st0{fill:#231F20;}
</style>
<g
   transform="translate(0,0)"
   id="g1122"
   style="fill:#76c6c4;fill-opacity:1">
	<path
   class="st0"
   d="M58.3,24.8L44.2,90.3L27,50.9c-3.5,13.5-3.6,28.8-2.3,42.4c7.4,74.8,70.8,162.6,154.8,236.2   c15.4-15.9,30.4-32.2,44.8-48.7c6.8-7.8,13.5-15.7,20-23.6C185.2,184,140.2,108.8,128.7,42.7c-4-11.1-15.6-14.9-25.6-17.4   l11.5,19.9L83.4,22.7C75,22.5,65.8,23.3,58.3,24.8L58.3,24.8z M428.4,22.7c-2.9,13.8-5.7,27.7-15,41.5c-0.2-13.9-2.1-27-7.9-38.1   c-8.5,2.6-20.5,7.5-22.3,16.5c-13.4,76.8-72,165.9-145.3,249.9C172.8,367.1,96,437.3,27.6,489.4c80.9-12,184.6-63.9,272.6-133.1   c27.8-21.9,54.1-45.5,77.6-70c-6.7,1.1-13.6,1.6-20.3,1.8l58.4-45.3c40-50.4,66.7-102.5,71.3-149.4c0.9-9.2,1.4-22.7-0.6-34.8   s-6.5-21.9-13.3-26.4c-8.7-5.7-24-9.2-39.6-9.5C432,22.6,430.2,22.6,428.4,22.7L428.4,22.7z M331.3,354.1   c-6.6,5.5-13.3,10.9-20,16.3c-12.8,10-25.8,19.7-39.1,29c22.9,14.9,46.3,28.4,69.5,40.2c19.3,2.3,38.6,4.7,57.9,7   c-5.5,5.3-11.9,8.9-18.9,11.3c36.5,15.7,71.9,26.6,103.7,31.3C435.2,451.9,381.7,405.2,331.3,354.1L331.3,354.1z"
   id="path1120"
   style="fill:#76c6c4;fill-opacity:1" />
</g>
</svg>
