<?xml version="1.0" encoding="UTF-8" standalone="no"?>
<svg
   viewBox="0 0 40 40.000001"
   version="1.1"
   id="svg15"
   sodipodi:docname="fh-astral.svg"
   inkscape:version="1.2.2 (b0a8486541, 2022-12-01)"
   width="40"
   height="40"
   xmlns:inkscape="http://www.inkscape.org/namespaces/inkscape"
   xmlns:sodipodi="http://sodipodi.sourceforge.net/DTD/sodipodi-0.dtd"
   xmlns="http://www.w3.org/2000/svg"
   xmlns:svg="http://www.w3.org/2000/svg">
  <sodipodi:namedview
     id="namedview17"
     pagecolor="#ffffff"
     bordercolor="#666666"
     borderopacity="1.0"
     inkscape:pageshadow="2"
     inkscape:pageopacity="0.0"
     inkscape:pagecheckerboard="0"
     showgrid="false"
     inkscape:zoom="7.5265874"
     inkscape:cx="-24.712395"
     inkscape:cy="9.3667948"
     inkscape:window-width="1854"
     inkscape:window-height="1011"
     inkscape:window-x="0"
     inkscape:window-y="0"
     inkscape:window-maximized="1"
     inkscape:current-layer="svg15"
     fit-margin-left="3"
     fit-margin-top="3"
     fit-margin-right="3"
     fit-margin-bottom="3"
     lock-margins="true"
     inkscape:showpageshadow="2"
     inkscape:deskcolor="#d1d1d1" />
  <defs
     id="defs7">
    <style
       id="style2">.cls-1{fill:none;}.cls-2{clip-path:url(#clip-path);}</style>
    <clipPath
       id="clip-path"
       transform="translate(0 0)">
      <rect
         class="cls-1"
         width="28.76"
         height="33.119999"
         id="rect4"
         x="0"
         y="0" />
    </clipPath>
  </defs>
  <path
     d="m 30.7346,21.698261 3.033612,-1.333455 a 0.21113052,0.21113052 0 0 0 0,-0.388925 L 30.7346,18.631313 36.112872,11.275081 a 0.28891545,0.28891545 0 0 0 -0.255579,-0.455597 l -9.0675,0.944531 0.355588,-3.3336393 A 0.21113052,0.21113052 0 0 0 26.812017,8.2414694 L 24.133993,10.274989 20.455877,1.9297782 a 0.28891545,0.28891545 0 0 0 -0.52227,0 L 16.255491,10.274989 13.577467,8.3192543 a 0.21113052,0.21113052 0 0 0 -0.333364,0.1889063 l 0.355589,3.3336394 -9.0675,-1.022316 a 0.28891545,0.28891545 0 0 0 -0.2555791,0.455597 l 5.3893842,7.356232 -3.0336121,1.344568 a 0.21113052,0.21113052 0 0 0 0,0.388925 l 3.0336121,1.333455 -5.3893842,7.356232 a 0.28891545,0.28891545 0 0 0 0.2555791,0.488934 l 9.0675,-0.98898 -0.355589,3.33364 a 0.21113052,0.21113052 0 0 0 0.333364,0.188906 l 2.678024,-1.955735 3.678116,8.311875 a 0.28891545,0.28891545 0 0 0 0.52227,0 l 3.678116,-8.345211 2.678024,1.955735 a 0.21113052,0.21113052 0 0 0 0.333364,-0.188906 l -0.355588,-3.33364 9.0675,0.98898 a 0.28891545,0.28891545 0 0 0 0.255579,-0.455598 z m -17.557169,0.211131 a 1.7446048,1.7446048 0 1 1 1.744604,-1.744605 1.7334927,1.7334927 0 0 1 -1.744604,1.744605 m 14.245753,4.444853 a 7.3006711,7.3006711 0 1 1 0,-12.356691 6.5005975,6.5005975 0 0 0 0,12.356691"
     id="path9"
     style="fill:#6fb54e;fill-opacity:1;stroke-width:1.11121" />
</svg>
