<?xml version="1.0" encoding="UTF-8" standalone="no"?>
<svg
   viewBox="0 0 9 9.0000008"
   version="1.1"
   id="svg15"
   sodipodi:docname="fh-blinkblade-fast.svg"
   width="9"
   height="9"
   inkscape:version="1.1.2 (0a00cf5339, 2022-02-04)"
   xmlns:inkscape="http://www.inkscape.org/namespaces/inkscape"
   xmlns:sodipodi="http://sodipodi.sourceforge.net/DTD/sodipodi-0.dtd"
   xmlns="http://www.w3.org/2000/svg"
   xmlns:svg="http://www.w3.org/2000/svg">
  <sodipodi:namedview
     id="namedview17"
     pagecolor="#ffffff"
     bordercolor="#666666"
     borderopacity="1.0"
     inkscape:pageshadow="2"
     inkscape:pageopacity="0.0"
     inkscape:pagecheckerboard="0"
     showgrid="false"
     fit-margin-top="2"
     lock-margins="true"
     fit-margin-left="2"
     fit-margin-right="2"
     fit-margin-bottom="2"
     inkscape:zoom="47.705119"
     inkscape:cx="6.5925839"
     inkscape:cy="4.7793613"
     inkscape:window-width="1846"
     inkscape:window-height="1043"
     inkscape:window-x="0"
     inkscape:window-y="0"
     inkscape:window-maximized="1"
     inkscape:current-layer="svg15" />
  <defs
     id="defs7">
    <style
       id="style2">.cls-1{fill:none;}.cls-2{clip-path:url(#clip-path);}.cls-3{fill:#7ac144;}</style>
    <clipPath
       id="clip-path"
       transform="translate(-0.01 -0.01)">
      <rect
         class="cls-1"
         width="7.1300001"
         height="6.5"
         id="rect4"
         x="0"
         y="0" />
    </clipPath>
  </defs>
  <g
     id="Layer_2"
     data-name="Layer 2"
     transform="translate(0.94526191,1.1398984)">
    <g
       id="Layer_1-2"
       data-name="Layer 1">
      <g
         class="cls-2"
         clip-path="url(#clip-path)"
         id="g11">
        <path
           class="cls-3"
           d="M 7.08,3.36 A 14.4,14.4 0 0 1 3.94,6.48 c 0,0 0,0 0,-0.06 A 10.31,10.31 0 0 0 4.37,4.32 11.84,11.84 0 0 1 2,6.48 c 0,0 0,0 0,-0.06 A 10.55,10.55 0 0 0 2.43,4.28 11.69,11.69 0 0 1 0.05,6.48 c 0,0 0,0 0,-0.06 A 10.52,10.52 0 0 0 0,0.09 C 0,0.09 0,0 0.05,0 A 12.05,12.05 0 0 1 2.41,2.2 10.32,10.32 0 0 0 2,0.09 C 2,0.09 2,0 2,0 A 12.08,12.08 0 0 1 4.34,2.19 10,10 0 0 0 3.91,0.09 c 0,0 0,-0.09 0,-0.07 a 14.4,14.4 0 0 1 3.17,3.12 0.18,0.18 0 0 1 0,0.22"
           transform="translate(-0.01,-0.01)"
           id="path9" />
      </g>
    </g>
  </g>
</svg>
