<?xml version="1.0" encoding="UTF-8" standalone="no"?>
<!-- Created with Inkscape (http://www.inkscape.org/) -->

<svg
   width="100mm"
   height="100mm"
   viewBox="0 0 100 100"
   version="1.1"
   id="svg2355"
   inkscape:version="1.1.2 (0a00cf5339, 2022-02-04)"
   sodipodi:docname="fh-blinkblade.svg"
   xmlns:inkscape="http://www.inkscape.org/namespaces/inkscape"
   xmlns:sodipodi="http://sodipodi.sourceforge.net/DTD/sodipodi-0.dtd"
   xmlns="http://www.w3.org/2000/svg"
   xmlns:svg="http://www.w3.org/2000/svg">
  <sodipodi:namedview
     id="namedview2357"
     pagecolor="#ffffff"
     bordercolor="#666666"
     borderopacity="1.0"
     inkscape:pageshadow="2"
     inkscape:pageopacity="0.0"
     inkscape:pagecheckerboard="0"
     inkscape:document-units="mm"
     showgrid="false"
     inkscape:zoom="0.64765011"
     inkscape:cx="-133.55977"
     inkscape:cy="559.7158"
     inkscape:window-width="1846"
     inkscape:window-height="1016"
     inkscape:window-x="0"
     inkscape:window-y="0"
     inkscape:window-maximized="1"
     inkscape:current-layer="layer1" />
  <defs
     id="defs2352">
    <clipPath
       clipPathUnits="userSpaceOnUse"
       id="clipPath780">
      <path
         d="m 160.965,232.848 h 9.535 v 7.555 h -9.535 z"
         id="path778" />
    </clipPath>
  </defs>
  <g
     inkscape:label="Layer 1"
     inkscape:groupmode="layer"
     id="layer1">
    <g
       id="g774"
       transform="matrix(8.7285885,0,0,-8.7285885,-1395.6033,2115.3308)"
       style="fill:#01b0db;fill-opacity:1">
      <g
         id="g776"
         clip-path="url(#clipPath780)"
         style="fill:#01b0db;fill-opacity:1">
        <g
           id="g782"
           transform="translate(169.8112,238.7307)"
           style="fill:#01b0db;fill-opacity:1">
          <path
             d="m 0,0 c -0.072,0.01 -0.145,0.004 -0.213,-0.009 -0.125,-0.023 -0.244,-0.073 -0.351,-0.142 l -1.519,-0.971 -0.55,0.86 2.217,1.417 c 0.068,0.043 0.144,0.063 0.203,0.051 C -0.101,1.184 0.073,1.119 0.165,0.931 0.304,0.649 0.312,0.311 0.06,0.021 0.045,0.004 0.022,-0.003 0,0"
             style="fill:#01b0db;fill-opacity:1;fill-rule:nonzero;stroke:none"
             id="path784" />
        </g>
        <g
           id="g786"
           transform="translate(167.8485,236.721)"
           style="fill:#01b0db;fill-opacity:1">
          <path
             d="M 0,0 V 0 C 0.075,0.046 0.097,0.144 0.05,0.218 L -1.229,2.216 C -1.274,2.287 -1.368,2.308 -1.439,2.264 -1.512,2.219 -1.535,2.123 -1.488,2.05 L -0.213,0.049 C -0.168,-0.023 -0.073,-0.044 0,0"
             style="fill:#01b0db;fill-opacity:1;fill-rule:nonzero;stroke:none"
             id="path788" />
        </g>
        <g
           id="g790"
           transform="translate(165.6713,236.1991)"
           style="fill:#01b0db;fill-opacity:1">
          <path
             d="m 0,0 -0.942,0.274 -0.074,0.648 -3.247,-2.143 c -0.01,-0.006 -0.016,-0.017 -0.015,-0.028 v -1.826 c 0,-0.013 0.015,-0.021 0.027,-0.014 l 4.28,2.822 z"
             style="fill:#01b0db;fill-opacity:1;fill-rule:nonzero;stroke:none"
             id="path792" />
        </g>
        <g
           id="g794"
           transform="translate(166.6557,236.5619)"
           style="fill:#01b0db;fill-opacity:1">
          <path
             d="M 0,0 0.564,0.37 -0.274,1.699 -1.156,1.116 -1.031,0.506 Z"
             style="fill:#01b0db;fill-opacity:1;fill-rule:nonzero;stroke:none"
             id="path796" />
        </g>
        <g
           id="g798"
           transform="translate(165.3005,238.5041)"
           style="fill:#01b0db;fill-opacity:1">
          <path
             d="m 0,0 0.106,-1.579 1,-0.327 0.014,-1.116 C 1.117,-3.035 1.135,-3.04 1.139,-3.027 L 1.46,-1.866 0.404,-1.39 0.02,0.005 C 0.016,0.017 -0.002,0.013 0,0"
             style="fill:#01b0db;fill-opacity:1;fill-rule:nonzero;stroke:none"
             id="path800" />
        </g>
        <g
           id="g802"
           transform="translate(164.6393,238.1376)"
           style="fill:#01b0db;fill-opacity:1">
          <path
             d="m 0,0 0.017,-1.751 0.968,-0.268 0.094,-1.03 c 0,-0.013 0.019,-0.015 0.02,-0.002 L 1.28,-1.804 0.358,-1.51 0.02,0.001 C 0.019,0.014 0,0.013 0,0"
             style="fill:#01b0db;fill-opacity:1;fill-rule:nonzero;stroke:none"
             id="path804" />
        </g>
        <g
           id="g806"
           transform="translate(166.494,234.8496)"
           style="fill:#01b0db;fill-opacity:1">
          <path
             d="M 0,0 C -0.1,-0.144 0.413,-0.657 0.585,-0.822 0.592,-0.829 0.609,-0.805 0.604,-0.795 0.49,-0.546 0.132,0.191 0,0"
             style="fill:#01b0db;fill-opacity:1;fill-rule:nonzero;stroke:none"
             id="path808" />
        </g>
        <g
           id="g810"
           transform="translate(166.9908,235.3911)"
           style="fill:#01b0db;fill-opacity:1">
          <path
             d="m 0,0 c -0.002,-0.175 0.711,-0.312 0.946,-0.352 0.009,-0.002 0.01,0.027 0,0.033 C 0.712,-0.177 0.002,0.233 0,0"
             style="fill:#01b0db;fill-opacity:1;fill-rule:nonzero;stroke:none"
             id="path812" />
        </g>
        <g
           id="g814"
           transform="translate(165.854,234.6074)"
           style="fill:#01b0db;fill-opacity:1">
          <path
             d="m 0,0 c -0.171,-0.039 -0.139,-0.764 -0.124,-1.002 0.001,-0.009 0.03,-0.003 0.033,0.008 C -0.008,-0.734 0.227,0.051 0,0"
             style="fill:#01b0db;fill-opacity:1;fill-rule:nonzero;stroke:none"
             id="path816" />
        </g>
        <g
           id="g818"
           transform="translate(164.623,238.9088)"
           style="fill:#01b0db;fill-opacity:1">
          <path
             d="M 0,0 C 0.103,0.142 -0.401,0.665 -0.57,0.833 -0.576,0.84 -0.593,0.816 -0.589,0.806 -0.479,0.555 -0.136,-0.189 0,0"
             style="fill:#01b0db;fill-opacity:1;fill-rule:nonzero;stroke:none"
             id="path820" />
        </g>
        <g
           id="g822"
           transform="translate(164.116,238.377)"
           style="fill:#01b0db;fill-opacity:1">
          <path
             d="M 0,0 C 0.005,0.175 -0.705,0.325 -0.939,0.37 -0.948,0.372 -0.949,0.343 -0.94,0.337 -0.708,0.191 -0.007,-0.232 0,0"
             style="fill:#01b0db;fill-opacity:1;fill-rule:nonzero;stroke:none"
             id="path824" />
        </g>
        <g
           id="g826"
           transform="translate(165.2676,239.1388)"
           style="fill:#01b0db;fill-opacity:1">
          <path
             d="M 0,0 C 0.172,0.036 0.153,0.761 0.143,0.999 0.142,1.009 0.114,1.003 0.11,0.992 0.022,0.733 -0.228,-0.047 0,0"
             style="fill:#01b0db;fill-opacity:1;fill-rule:nonzero;stroke:none"
             id="path828" />
        </g>
      </g>
    </g>
  </g>
</svg>
