<?xml version="1.0" encoding="UTF-8" standalone="no"?>
<!-- Created with Inkscape (http://www.inkscape.org/) -->

<svg
   width="120"
   height="120"
   viewBox="0 0 120 120"
   version="1.1"
   id="svg5"
   xml:space="preserve"
   inkscape:version="1.1.2 (0a00cf5339, 2022-02-04)"
   sodipodi:docname="fh-drill-high.svg"
   xmlns:inkscape="http://www.inkscape.org/namespaces/inkscape"
   xmlns:sodipodi="http://sodipodi.sourceforge.net/DTD/sodipodi-0.dtd"
   xmlns="http://www.w3.org/2000/svg"
   xmlns:svg="http://www.w3.org/2000/svg"><sodipodi:namedview
     id="namedview7"
     pagecolor="#ffffff"
     bordercolor="#000000"
     borderopacity="0.25"
     inkscape:showpageshadow="2"
     inkscape:pageopacity="0.0"
     inkscape:pagecheckerboard="true"
     inkscape:deskcolor="#d1d1d1"
     inkscape:document-units="mm"
     showgrid="false"
     inkscape:zoom="4.07"
     inkscape:cx="-18.304668"
     inkscape:cy="45.331695"
     inkscape:window-width="1846"
     inkscape:window-height="1016"
     inkscape:window-x="0"
     inkscape:window-y="0"
     inkscape:window-maximized="1"
     inkscape:current-layer="layer1"
     inkscape:pageshadow="2"
     fit-margin-top="10"
     lock-margins="true"
     fit-margin-left="10"
     fit-margin-right="10"
     fit-margin-bottom="10" /><defs
     id="defs2" /><g
     inkscape:label="Слой 1"
     inkscape:groupmode="layer"
     id="layer1"
     transform="translate(10,10)"><path
       style="color:#000000;fill:#ffffff;fill-opacity:1;stroke:none;-inkscape-stroke:none"
       d="M 50,0 C 22.40951,0 0,22.409507 0,50 0,77.590493 22.40951,100 50,100 77.59049,100 100,77.590493 100,50 100,22.409507 77.59049,0 50,0 Z"
       id="path234" /><path
       style="fill:#0000ff;stroke:none;-inkscape-stroke:none"
       d="M 38.466797,62.470703 C 35.108255,59.361914 33,54.920249 33,50 c 0,-1.133668 0.112889,-2.241969 0.326172,-3.314453 L 5.6738281,37.699219 C 4.59142,41.61538 4,45.736708 4,50 4,64.595895 10.785698,77.582399 21.369141,86.005859 Z"
       id="path851" /><path
       style="fill:#ff0000"
       d="M 66.671875,46.683594 C 66.885444,47.756767 67,48.865552 67,50 c 0,4.920755 -2.109606,9.361869 -5.46875,12.470703 L 78.630859,86.005859 C 89.214302,77.582399 96,64.595895 96,50 96,45.736708 95.40858,41.61538 94.326172,37.699219 Z"
       id="path849" /><path
       style="color:#000000;fill:#ffff00;fill-opacity:1;stroke:none;-inkscape-stroke:none"
       d="m 52,33.123047 c 5.964726,0.704387 10.996376,4.513536 13.429688,9.761719 L 93.101562,33.892578 C 86.802247,17.016247 70.887977,4.8573252 52,4.0507812 Z"
       id="path847" /><path
       style="fill:#00ff00"
       d="M 48,4.0507812 C 29.112023,4.8573252 13.197754,17.016247 6.8984375,33.892578 L 34.570312,42.884766 C 37.003624,37.636583 42.035274,33.827434 48,33.123047 Z"
       id="path771" /><path
       id="path3654"
       style="fill:#000000;stroke:#ffffff;stroke-width:1"
       d="M 50,18 44.330078,48.078125 C 44.115989,48.696465 44.004491,49.345662 44,50 c 0,3.313708 2.686292,6 6,6 3.313708,0 6,-2.686292 6,-6 -6.73e-4,-0.677957 -0.116242,-1.350897 -0.341797,-1.990234 z"
       transform="rotate(36,50,50)" /><circle
       style="fill:none;stroke:#ffff00;stroke-width:4"
       id="path3737"
       cx="50"
       cy="50"
       r="48" /><rect
       style="fill:#ffffff;fill-opacity:1"
       id="rect3713"
       width="4"
       height="5"
       x="48"
       y="0" /><rect
       style="fill:#ffffff;fill-opacity:1"
       id="rect3713-7"
       width="4"
       height="5"
       x="48"
       y="0"
       transform="rotate(72,50,50)" /></g></svg>
