<?xml version="1.0" encoding="UTF-8" standalone="no"?>
<svg
   width="600"
   height="600"
   viewBox="0 0 600 600"
   version="1.1"
   id="svg958"
   sodipodi:docname="fh-drill-high.svg"
   inkscape:version="1.1.2 (0a00cf5339, 2022-02-04)"
   xmlns:inkscape="http://www.inkscape.org/namespaces/inkscape"
   xmlns:sodipodi="http://sodipodi.sourceforge.net/DTD/sodipodi-0.dtd"
   xmlns="http://www.w3.org/2000/svg"
   xmlns:svg="http://www.w3.org/2000/svg">
  <sodipodi:namedview
     id="namedview960"
     pagecolor="#ffffff"
     bordercolor="#666666"
     borderopacity="1.0"
     inkscape:pageshadow="2"
     inkscape:pageopacity="0.0"
     inkscape:pagecheckerboard="0"
     showgrid="false"
     inkscape:zoom="0.65166667"
     inkscape:cx="137.34015"
     inkscape:cy="275.44757"
     inkscape:window-width="1850"
     inkscape:window-height="1016"
     inkscape:window-x="0"
     inkscape:window-y="0"
     inkscape:window-maximized="1"
     inkscape:current-layer="svg958" />
  <defs
     id="defs934">
    <style
       id="style932">.cls-1{fill:#fefefe;}.cls-2{fill:#ecb633;}.cls-3{fill:#7ac144;}.cls-4{fill:#01a5ce;}.cls-5{fill:#ee2846;}.cls-6{fill:#231f20;}</style>
  </defs>
  <path
     id="path1796"
     style="fill:#ffffff;stroke-width:3.77953;stroke-linecap:round;stroke-linejoin:round"
     d="M 299.68376,598.62058 C 133.12723,598.62821 -0.11063866,466.38182 -0.12599866,300.89975 -0.14136866,135.41768 132.44735,1.584903 299.00387,1.562003 465.56039,1.539109 599.99532,132.9642 600.02592,299.76467 c -2e-4,166.80047 -133.78564,298.84828 -300.34216,298.85591 z"
     sodipodi:nodetypes="ssscs" />
  <path
     class="cls-2"
     d="M 70,186.69 57.17,217.2 c -0.39,1.1 -0.82,2.18 -1.17,3.28 a 255.1,255.1 0 0 0 -9.14,120.64 c 7.82,48.48 28.11,91.11 60.44,128 a 240.9,240.9 0 0 0 55.31,47.75 c 30,19.07 62.53,32 97.7,36.67 91.16,12.23 168.49,-15.28 231.32,-82.76 a 14.39,14.39 0 0 0 1.14,-1.63 254.69,254.69 0 0 0 50.17,-86.6 c 12,-35.09 15.61,-71.14 12.23,-108 A 244.44,244.44 0 0 0 542.89,217.3 l 40.78,-17.15 c 3.22,11.94 6.94,23.07 9.14,34.5 2.75,14.27 4.24,28.79 6.31,43.19 A 9.57,9.57 0 0 0 600,280 v 41 a 14.82,14.82 0 0 0 -0.94,3.14 277,277 0 0 1 -14.3,70.63 c -24.48,71.13 -69,126.15 -133.8,164.46 a 288.34,288.34 0 0 1 -117.4,38.88 c -4.53,0.48 -9,1.25 -13.56,1.89 h -41 a 16.22,16.22 0 0 0 -2.64,-0.92 c -16,-2.57 -32.39,-3.92 -48.09,-7.86 C 155.38,572.94 97.13,532.8 53.85,471.35 a 290.1,290.1 0 0 1 -51,-130 C 2.11,335.55 1,329.79 0,324 v -48 a 19.05,19.05 0 0 0 1,-3 C 3.22,259.4 4.58,245.61 7.72,232.23 23.9,163.27 60.05,106.81 115.66,63.12 A 291.41,291.41 0 0 1 256.66,2.9 C 262.11,2.11 267.54,1 273,0 h 11 q -0.15,18.78 -0.32,37.55 c 0,2.13 -0.28,4.25 -0.42,6.38 -6.42,0.65 -12.86,1.21 -19.27,2 -25.09,3 -48.91,10.46 -71.81,21 -37.42,17.23 -68.55,42.46 -94.05,74.62 C 87.07,155.49 77.23,170.3 70,186.69 Z"
     id="path938" />
  <path
     class="cls-2"
     d="m 326,0 c 6,1 11.9,2.09 17.88,3 52.33,7.65 99.26,27.94 140.88,60.45 a 297.44,297.44 0 0 1 83.71,102.34 c 0.59,1.18 1.09,2.4 1.89,4.16 l -169.23,70.11 c -2.25,-3.34 -4.74,-6.32 -6.34,-9.72 -0.72,-1.55 -0.19,-4.15 0.61,-5.89 14.52,-31.37 29.28,-62.64 43.64,-94.08 A 40.46,40.46 0 0 0 443,114.29 c 0.05,-8.52 -5.39,-14.16 -13.26,-16.91 -8.12,-2.84 -15.63,-1 -21.46,5.3 -25.18,27 -50.16,54.27 -75.35,81.3 a 7.48,7.48 0 0 1 -5.47,1.74 c -3.44,-0.3 -6.81,-1.37 -10.8,-2.26 -0.1,-1.9 -0.33,-4 -0.33,-6.06 q 0,-85.72 0,-171.44 c 0,-2 -0.19,-4 -0.29,-6 z"
     id="path940" />
  <path
     class="cls-3"
     d="m 70,186.69 c 7.22,-16.39 17.06,-31.2 28.12,-45.14 25.5,-32.16 56.63,-57.39 94.05,-74.62 22.9,-10.55 46.72,-18 71.81,-21 6.41,-0.78 12.85,-1.34 19.27,-2 a 37.29,37.29 0 0 1 0.4,3.94 q 0,65.7 0,131.4 c 0,1.31 -0.15,2.62 -0.26,4.3 -17.5,2.83 -33.71,8.75 -48.42,18.62 a 118.62,118.62 0 0 0 -36,37.88 z"
     id="path948" />
  <path
     class="cls-4"
     d="M 107.3,469.15 C 75,432.23 54.68,389.6 46.86,341.12 A 255.1,255.1 0 0 1 56,220.48 c 0.35,-1.1 0.78,-2.18 1.17,-3.28 q 62.76,26 125.51,51.9 c 2,0.85 3.81,1.49 3.14,4.55 -7.69,35.07 -0.72,67.16 20.24,96.78 z"
     id="path950" />
  <path
     class="cls-5"
     d="m 542.89,217.32 a 244.44,244.44 0 0 1 12.28,57.25 c 3.38,36.87 -0.23,72.92 -12.23,108 a 254.69,254.69 0 0 1 -50.17,86.6 l -97.68,-97.83 c 5.54,-11.85 11.7,-23 16.09,-34.88 7.44,-20.13 7.64,-41 3.34,-61.91 -0.47,-2.28 -1,-3.87 1.91,-5.06 q 63.27,-25.98 126.46,-52.17 z"
     id="path952" />
  <path
     class="cls-6"
     d="m 262,301.05 c 0.5,-10.78 3.32,-19.2 9.64,-26 q 63.83,-69.1 127.8,-138.09 c 6.55,-7.08 13,-14.3 19.7,-21.19 1.32,-1.35 4.28,-2.57 5.76,-2 3.12,1.23 1.77,4 0.66,6.32 q -33.53,71.79 -67,143.6 -12.07,25.89 -24.18,51.76 C 327.6,329.81 313,338.7 298,337.75 A 37.79,37.79 0 0 1 263.8,310.3 85.57,85.57 0 0 1 262,301.05 Z"
     id="path954" />
</svg>
