<?xml version="1.0" encoding="UTF-8" standalone="no"?>
<svg
   width="600"
   height="600"
   viewBox="0 0 600 600"
   version="1.1"
   id="svg26"
   sodipodi:docname="fh-drill-low.svg"
   inkscape:version="1.1.2 (0a00cf5339, 2022-02-04)"
   xmlns:inkscape="http://www.inkscape.org/namespaces/inkscape"
   xmlns:sodipodi="http://sodipodi.sourceforge.net/DTD/sodipodi-0.dtd"
   xmlns="http://www.w3.org/2000/svg"
   xmlns:svg="http://www.w3.org/2000/svg">
  <sodipodi:namedview
     id="namedview28"
     pagecolor="#ffffff"
     bordercolor="#666666"
     borderopacity="1.0"
     inkscape:pageshadow="2"
     inkscape:pageopacity="0.0"
     inkscape:pagecheckerboard="0"
     showgrid="false"
     inkscape:zoom="1.4142136"
     inkscape:cx="298.04551"
     inkscape:cy="368.75618"
     inkscape:window-width="1850"
     inkscape:window-height="1016"
     inkscape:window-x="0"
     inkscape:window-y="0"
     inkscape:window-maximized="1"
     inkscape:current-layer="svg26" />
  <defs
     id="defs4">
    <style
       id="style2">.cls-1{fill:#fefefe;}.cls-2{fill:#01a6ce;}.cls-3{fill:#ebb633;}.cls-4{fill:#7ac044;}.cls-5{fill:#ed2746;}.cls-6{fill:#231f20;}</style>
  </defs>
  <path
     id="path1796"
     style="stroke-width:3.77953;stroke-linecap:round;stroke-linejoin:round;fill:#ffffff"
     d="M 299.68327,598.62053 C 133.12674,598.62816 -0.11113086,466.38177 -0.12649444,300.8997 -0.14185775,135.41763 132.44686,1.5848487 299.00338,1.5619493 465.5599,1.5390546 599.99485,132.96415 600.02541,299.76462 600.02523,466.56509 466.23979,598.6129 299.68327,598.62053 Z"
     sodipodi:nodetypes="ssscs" />
  <path
     class="cls-2"
     d="m 69.69,186.7 -40.6,-16.8 c 5.37,-9.54 10.1,-18.82 15.62,-27.6 Q 100.21,54 198.07,17.73 A 286,286 0 0 1 275,1 6.47,6.47 0 0 0 277,0 h 46 a 7.78,7.78 0 0 0 2,1 c 13.93,2.12 28.06,3.32 41.75,6.44 a 295.38,295.38 0 0 1 126.08,62.73 298.7,298.7 0 0 1 82.17,109.47 286,286 0 0 1 23.16,86.45 c 0.37,3.66 1.25,7.27 1.89,10.91 v 47 a 7.68,7.68 0 0 0 -1,2 c -2.12,13.58 -3.37,27.36 -6.43,40.73 a 295.45,295.45 0 0 1 -62.77,126.09 298.48,298.48 0 0 1 -109.95,82.29 287,287 0 0 1 -86,23 c -3.66,0.39 -7.27,1.26 -10.91,1.9 H 276 c -3.14,-0.62 -6.25,-1.49 -9.42,-1.84 -53.82,-5.88 -102.27,-25.4 -145.76,-57.45 -6,-4.44 -11.69,-9.33 -17.5,-14 -1.16,-0.93 -2.21,-2 -3.09,-2.8 10.3,-10.29 20.41,-20.4 29.92,-29.89 13.33,9.18 26.31,19.07 40.2,27.47 a 240.92,240.92 0 0 0 81.37,30.63 273.16,273.16 0 0 0 40.55,4.3 c 41,1.44 80,-6.79 117.14,-24.14 31.29,-14.61 58.24,-35.07 81.44,-60.57 0.66,-0.73 1.19,-1.58 1.78,-2.38 A 247.83,247.83 0 0 0 528,417.65 252.51,252.51 0 0 0 555.8,320.27 c 1.72,-21.61 1.06,-43.28 -3.13,-64.58 -2.55,-13 -6.61,-25.61 -10,-38.4 L 530.06,186.9 A 34.41,34.41 0 0 0 528.78,183.7 257.13,257.13 0 0 0 434.15,81.26 253,253 0 0 0 338.07,46.18 c -7.2,-1.09 -14.53,-1.28 -21.79,-1.89 a 134.7,134.7 0 0 0 -32.54,-0.15 220.9,220.9 0 0 0 -40.29,5.66 c -44.8,10 -83.89,30.87 -117.61,61.86 A 256.37,256.37 0 0 0 69.69,186.7 Z"
     id="path8" />
  <path
     class="cls-2"
     d="m 0,276 c 0.66,-3.63 1.53,-7.25 1.94,-10.91 a 298.77,298.77 0 0 1 14.81,-64.54 l 169.45,70.18 c -0.89,4.86 -1.73,9.4 -2.66,14.47 -7.42,2.82 -15.1,5.78 -22.82,8.65 -27.14,10.09 -54.28,20.22 -81.47,30.19 -8.63,3.16 -14.5,8.35 -15.72,17.94 -1.42,11.19 7.13,22.16 18.41,22.12 15,-0.05 29.9,-1 44.85,-1.63 7.81,-0.33 15.6,-0.89 23.4,-1.24 10.13,-0.46 20.27,-0.79 30.41,-1.23 6,-0.26 11.92,-0.65 17.83,-1 l 7.42,11.14 L 75.72,500.26 C 67.8,489.79 59.38,479.51 51.89,468.59 A 287.84,287.84 0 0 1 4.94,354.07 C 3.32,344.76 2.32,335.35 1,326 a 7.21,7.21 0 0 0 -1,-2 z"
     id="path10" />
  <path
     class="cls-3"
     d="m 316.28,44.29 c 7.26,0.61 14.59,0.8 21.79,1.89 a 253,253 0 0 1 96.08,35.08 257.13,257.13 0 0 1 94.63,102.44 34.41,34.41 0 0 1 1.28,3.2 L 401.12,240.27 C 381.36,208.85 353.3,189.79 316.28,183.76 Z"
     id="path16" />
  <path
     class="cls-4"
     d="m 69.69,186.7 a 256.37,256.37 0 0 1 56.15,-75 c 33.72,-31 72.81,-51.85 117.61,-61.86 a 220.9,220.9 0 0 1 40.29,-5.66 v 139.53 c -36.52,6 -64.79,24.71 -84.78,56.54 L 177,231.2 71.49,187.57 c -0.62,-0.26 -1.2,-0.57 -1.8,-0.87 z"
     id="path18" />
  <path
     class="cls-5"
     d="m 542.69,217.29 c 3.39,12.79 7.45,25.44 10,38.4 4.19,21.3 4.85,43 3.13,64.58 A 252.51,252.51 0 0 1 528,417.65 247.83,247.83 0 0 1 492.61,469.29 l -90.42,-90.53 c -2.71,-2.7 -5.47,-5.35 -8.38,-8.2 21.78,-30.2 28,-63.4 19.93,-99.76 z"
     id="path20" />
  <path
     class="cls-6"
     d="m 299.72,261.54 c 19.77,0.53 36.51,15.64 38.07,35.58 1.49,19 -11.8,37.24 -31.3,39.85 -10.33,1.39 -20.85,1.43 -31.29,1.95 q -30.85,1.56 -61.73,3 c -17.93,0.81 -35.87,1.43 -53.8,2.29 -23.71,1.15 -47.42,2.44 -71.14,3.66 -0.83,0 -1.67,0 -2.49,0 -2.68,0.25 -5.33,0 -5.87,-3.14 -0.54,-3.14 2.2,-3.93 4.59,-4.82 q 84.27,-31.4 168.52,-62.83 c 11.15,-4.15 22.27,-8.39 33.5,-12.33 4.22,-1.46 8.62,-2.16 12.94,-3.21 z"
     id="path22" />
</svg>
