<svg xmlns="http://www.w3.org/2000/svg" xmlns:xlink="http://www.w3.org/1999/xlink" viewBox="0 0 25.6 35.91"><defs><style>.cls-1{fill:none;}.cls-2{clip-path:url(#clip-path);}</style><clipPath id="clip-path" transform="translate(0 0)"><rect class="cls-1" width="25.6" height="35.91"/></clipPath></defs><g id="Layer_2" data-name="Layer 2"><g id="Layer_1-2" data-name="Layer 1"><g class="cls-2"><path d="M25.44,0c-2.09,1.22-4.18,5-5.36,4.71-.49-.1-.33-.88,0-2A.1.1,0,0,0,20,2.61c-2,1-6.31,10.49-7.9,10.65-.75.07-.39-.82-.13-2a.11.11,0,0,0-.16-.12c-1,.63-2.38,2.74-3.74,5.91-.54,1.26-1.73.27-1.4-1.21a.11.11,0,0,0-.17-.11c-1.87,1.47-2.38,5-3.3,5.21-.55.1-.52-.59-.33-1.54a.1.1,0,0,0-.18-.09c-2.39,2.4-5,11.4,1.19,15.1,7.38,4.42,13.29-1.79,14-4.29a.11.11,0,0,0-.16-.12c-.61.37-1.54,1-1.69.47-.29-1.17,2.89-3.54,3.25-6.43A.11.11,0,0,0,19,23.9c-1.06,1-1.79.74-1.71-.06.14-1.25,3.64-4.8,4.56-8.67a.11.11,0,0,0-.18-.1c-.89.85-1.54,1.06-1.78.47-.44-1.08,5.7-8.92,5.58-11a.13.13,0,0,0-.21-.09c-1,.86-1.5.43-1.52.08,0-.77.91-2.81,1.84-4.32A.11.11,0,0,0,25.44,0M14.3,25.54c.91,2.23-.26,4.15-1.5,5.78A3.84,3.84,0,0,1,8.54,33a17.47,17.47,0,0,1-2.93-.61C4.5,32,2.29,30.34,2.68,28.31c.34-1.71.08-2.66.62-3.47,1.34-2,3.72-3.55,4.89-3.64a6.57,6.57,0,0,1,3.83.55c1.41.73,1.87,2.81,2.28,3.79" transform="translate(0 0)"/></g></g></g></svg>