<svg xmlns="http://www.w3.org/2000/svg" viewBox="0 0 22.41 36.39"><g id="Layer_2" data-name="Layer 2"><g id="Layer_1-2" data-name="Layer 1"><polygon points="4.48 26.16 7.7 31.76 6.46 27.04 4.48 26.16"/><polygon points="14.7 31.76 17.93 26.16 15.95 27.04 14.7 31.76"/><path d="M8.79,20l2.41-4,2.41,4-2.41,4Zm-3.52-.69L11.2,9.53l5.94,9.82-1.72.3L11.2,12.58,7,19.65Zm-3.5-.68L11.2,3.05l9.44,15.62L18.92,19,11.2,6,3.48,19ZM11.2,0,0,18.36l3.79,6.26,3.74,1.63,1.76,8.28,1.07,1.86h1.69l1.07-1.86,1.76-8.28,3.73-1.63,3.8-6.26Z"/></g></g></svg>