<svg xmlns="http://www.w3.org/2000/svg" xmlns:xlink="http://www.w3.org/1999/xlink" viewBox="0 0 32.41 32.41"><defs><style>.cls-1{fill:none;}.cls-2{clip-path:url(#clip-path);}</style><clipPath id="clip-path" transform="translate(0 0)"><rect class="cls-1" width="32.41" height="32.41"/></clipPath></defs><g id="Layer_2" data-name="Layer 2"><g id="Layer_1-2" data-name="Layer 1"><g class="cls-2"><path d="M17,6.19C16.69,1,16.52,0,16.21,0s-.49,1-.78,6.19c-.06,1.11-.33,5.57-.34,10s.26,8.92.31,10c.28,5.24.49,6.19.81,6.19s.53-.95.8-6.19c0-1.08.32-5.53.31-10S17,7.3,17,6.19" transform="translate(0 0)"/><path d="M6.19,15.43C1,15.72,0,15.89,0,16.21s1,.48,6.19.77c1.12.06,5.57.34,10,.34s8.93-.26,10-.31c5.24-.27,6.19-.49,6.19-.8s-.95-.53-6.19-.81c-1.08-.05-5.53-.31-10-.31s-8.93.28-10,.34" transform="translate(0 0)"/><path d="M8.58,22.74c-3.5,3.91-4,4.7-3.83,4.93s1-.33,4.92-3.83c.84-.75,4.18-3.7,7.33-6.85s6.13-6.49,6.86-7.3c3.51-3.9,4-4.72,3.81-4.94s-1.05.29-5,3.81c-.8.72-4.14,3.68-7.29,6.84s-6.11,6.51-6.85,7.34" transform="translate(0 0)"/><path d="M9.67,8.57C5.76,5.07,5,4.52,4.75,4.75s.32,1,3.82,4.92c.75.83,3.7,4.17,6.85,7.32s6.49,6.14,7.3,6.86c3.9,3.52,4.72,4,5,3.81s-.3-1-3.81-4.94c-.73-.81-3.69-4.14-6.85-7.29S10.5,9.32,9.67,8.57" transform="translate(0 0)"/><path d="M12.36,29.21c.28.28,2.51-1.56,3.85-2.8,1.2,1.13,3.51,3.14,3.85,2.8.5-.51-3.43-4.51-3.85-4.91-.27.25-4.32,4.44-3.85,4.91" transform="translate(0 0)"/><path d="M20.06,3.2c-.29-.28-2.52,1.56-3.85,2.8C15,4.87,12.7,2.86,12.36,3.2c-.51.51,3.42,4.51,3.85,4.91.26-.25,4.31-4.44,3.85-4.91" transform="translate(0 0)"/><path d="M22.68,28.12c.4,0,.68-2.88.74-4.7,1.65-.05,4.7-.26,4.7-.74,0-.72-5.61-.77-6.19-.75,0,.36.09,6.19.75,6.19" transform="translate(0 0)"/><path d="M9.74,4.29C9.33,4.29,9.06,7.17,9,9c-1.65,0-4.7.26-4.7.74,0,.72,5.61.77,6.19.75,0-.36-.09-6.19-.74-6.19" transform="translate(0 0)"/><path d="M29.21,20.06c.29-.29-1.56-2.52-2.8-3.85,1.13-1.21,3.14-3.51,2.8-3.85-.5-.51-4.51,3.42-4.91,3.85.26.26,4.44,4.31,4.91,3.85" transform="translate(0 0)"/><path d="M3.2,12.35c-.28.29,1.56,2.52,2.8,3.85-1.13,1.21-3.14,3.52-2.8,3.86.51.5,4.51-3.43,4.91-3.86-.25-.26-4.44-4.31-4.91-3.85" transform="translate(0 0)"/><path d="M28.12,9.73c0-.4-2.88-.68-4.69-.74-.06-1.65-.27-4.7-.75-4.7-.71,0-.77,5.61-.75,6.19.37,0,6.19-.09,6.19-.75" transform="translate(0 0)"/><path d="M4.29,22.68c0,.4,2.88.68,4.7.74,0,1.65.26,4.7.74,4.7.72,0,.77-5.61.75-6.19-.36,0-6.19.09-6.19.75" transform="translate(0 0)"/></g></g></g></svg>