<?xml version="1.0" encoding="UTF-8" standalone="no"?>
<svg
   viewBox="0 0 40.227976 38.16894"
   version="1.1"
   id="svg31"
   sodipodi:docname="fh-shackles.svg"
   inkscape:version="1.1.2 (0a00cf5339, 2022-02-04)"
   width="40.227978"
   height="38.168938"
   xmlns:inkscape="http://www.inkscape.org/namespaces/inkscape"
   xmlns:sodipodi="http://sodipodi.sourceforge.net/DTD/sodipodi-0.dtd"
   xmlns="http://www.w3.org/2000/svg"
   xmlns:svg="http://www.w3.org/2000/svg">
  <sodipodi:namedview
     id="namedview33"
     pagecolor="#ffffff"
     bordercolor="#666666"
     borderopacity="1.0"
     inkscape:pageshadow="2"
     inkscape:pageopacity="0.0"
     inkscape:pagecheckerboard="0"
     showgrid="false"
     inkscape:zoom="27.137086"
     inkscape:cx="20.101642"
     inkscape:cy="19.032994"
     inkscape:window-width="1846"
     inkscape:window-height="1016"
     inkscape:window-x="0"
     inkscape:window-y="0"
     inkscape:window-maximized="1"
     inkscape:current-layer="svg31"
     lock-margins="true"
     fit-margin-top="3"
     fit-margin-left="3"
     fit-margin-right="3"
     fit-margin-bottom="3" />
  <defs
     id="defs7">
    <style
       id="style2">.cls-1{fill:none;}.cls-2{clip-path:url(#clip-path);}</style>
    <clipPath
       id="clip-path"
       transform="translate(0 0)">
      <rect
         class="cls-1"
         width="34.240002"
         height="32.169998"
         id="rect4"
         x="0"
         y="0" />
    </clipPath>
  </defs>
  <g
     id="Layer_2"
     data-name="Layer 2"
     style="fill:#7476a7;fill-opacity:1"
     transform="translate(3,3)">
    <g
       id="Layer_1-2"
       data-name="Layer 1"
       style="fill:#7476a7;fill-opacity:1">
      <g
         class="cls-2"
         clip-path="url(#clip-path)"
         id="g27"
         style="fill:#7476a7;fill-opacity:1">
        <path
           d="M 15.08,2.8 12.81,0.53 12.69,0.41 v 0 A 1.84,1.84 0 0 0 11.3,0 C 9.4,0.12 6.53,2.05 4,4.91 c -2.68,3 -4.18,6.17 -4,8 v 0 a 1.81,1.81 0 0 0 0.54,1.16 v 0 L 3,16.47 a 1.7,1.7 0 0 0 1.2,0.41 C 6,16.88 9,15 11.65,12 v 0 C 15,8.13 16.54,4.1 15.08,2.8 M 8.75,9.44 C 7.15,11.37 3.42,14.59 1.17,13.89 0.69,13.74 0.65,13.49 0.64,13.34 A 4.5,4.5 0 0 0 3.58,12.92 19.49,19.49 0 0 1 7,7.71 a 18,18 0 0 1 4.83,-4.09 4,4 0 0 0 0.37,-3 c 0.17,0 0.34,0.31 0.39,0.46 C 13.47,3.56 10.81,7 8.75,9.44"
           id="path9"
           style="fill:#7476a7;fill-opacity:1" />
        <path
           d="M 9.53,21.18 A 2.76,2.76 0 0 1 7.06,19.65 L 5.77,17.06 A 2.76,2.76 0 0 1 5.64,15 2.71,2.71 0 0 1 7,13.36 a 2.76,2.76 0 0 1 2.11,-0.13 2.66,2.66 0 0 1 1.58,1.38 l 1.31,2.6 a 2.75,2.75 0 0 1 -2.47,4 m -1.29,-6.6 a 1.17,1.17 0 0 0 -0.55,0.13 1.23,1.23 0 0 0 -0.64,0.72 1.28,1.28 0 0 0 0.07,1 L 8.4,19 a 1.27,1.27 0 0 0 1.69,0.57 1.26,1.26 0 0 0 0.63,-0.73 1.28,1.28 0 0 0 -0.06,-1 L 9.37,15.28 A 1.23,1.23 0 0 0 8.65,14.64 1.45,1.45 0 0 0 8.24,14.58"
           id="path11"
           style="fill:#7476a7;fill-opacity:1" />
        <path
           d="M 19.07,23.6 18,21.37 A 3.31,3.31 0 0 0 15.85,19.6 c -2.61,-0.62 -3.79,2.4 -3,3.85 a 5.05,5.05 0 0 1 0.56,2.5 0.32,0.32 0 0 0 0.3,0.33 0.91,0.91 0 0 0 1,-0.72 7,7 0 0 0 -0.54,-2.78 1.37,1.37 0 0 1 0.57,-1.68 1.26,1.26 0 0 1 1.69,0.57 l 1.28,2.59 a 1.23,1.23 0 0 1 0.06,1 1.26,1.26 0 0 1 -0.48,0.65 1,1 0 0 0 0.83,1.09 0.4,0.4 0 0 0 0.29,-0.1 2.74,2.74 0 0 0 0.8,-1.2 2.69,2.69 0 0 0 -0.14,-2.1"
           id="path13"
           style="fill:#7476a7;fill-opacity:1" />
        <path
           d="M 15.39,22.8 A 0.75,0.75 0 0 1 15.01,22.7 L 9.19,19.29 A 0.76161014,0.76161014 0 1 1 10,18 l 5.82,3.4 a 0.75,0.75 0 0 1 -0.38,1.4"
           id="path15"
           style="fill:#7476a7;fill-opacity:1" />
        <path
           d="m 21.3,21.85 a 2.77,2.77 0 0 1 -1,-2.74 l 0.6,-2.83 a 2.71,2.71 0 0 1 1.19,-1.74 2.76,2.76 0 0 1 2.07,-0.39 2.76,2.76 0 0 1 2.13,3.26 l -0.59,2.83 a 2.76,2.76 0 0 1 -3.27,2.13 2.79,2.79 0 0 1 -1.13,-0.52 m 3.07,-6 a 1.2,1.2 0 0 0 -0.51,-0.24 1.27,1.27 0 0 0 -0.95,0.18 1.3,1.3 0 0 0 -0.55,0.79 l -0.59,2.84 a 1.21,1.21 0 0 0 0.18,0.94 1.23,1.23 0 0 0 0.79,0.55 1.27,1.27 0 0 0 1,-0.18 1.24,1.24 0 0 0 0.54,-0.79 l 0.6,-2.84 A 1.25,1.25 0 0 0 24.7,16.16 1.38,1.38 0 0 0 24.42,15.85"
           id="path17"
           style="fill:#7476a7;fill-opacity:1" />
        <path
           d="m 24.05,24.16 a 2.76,2.76 0 0 0 -2.84,2.67 l -0.1,2.89 a 2.42,2.42 0 0 0 1.45,2.42 1,1 0 0 0 0.73,-0.1 1.05,1.05 0 0 0 0.43,-0.82 0.08,0.08 0 0 0 0,-0.07 1.51,1.51 0 0 1 -0.72,-0.48 1.24,1.24 0 0 1 -0.34,-0.9 l 0.09,-2.89 a 1.27,1.27 0 0 1 1.25,-1.22 1.25,1.25 0 0 1 0.55,0.15 1.08,1.08 0 0 1 0.67,1.19 6,6 0 0 0 0.41,3 0.43,0.43 0 0 0 0.17,0.24 0.88,0.88 0 0 0 0.61,0.13 2,2 0 0 0 0.42,-0.1 0.35,0.35 0 0 0 0.24,-0.39 A 7.57,7.57 0 0 1 26.71,27 2.72,2.72 0 0 0 24.05,24.15"
           id="path19"
           style="fill:#7476a7;fill-opacity:1" />
        <path
           d="M 23.59,27 A 0.78,0.78 0 0 1 23.41,26.65 L 22.12,20 a 0.74330344,0.74330344 0 0 1 1.46,-0.28 l 1.3,6.62 a 0.75,0.75 0 0 1 -1.29,0.64"
           id="path21"
           style="fill:#7476a7;fill-opacity:1" />
        <polyline
           points="0.02 12.93 0.02 12.93 0.02 12.92 0.02 12.93"
           id="polyline23"
           style="fill:#7476a7;fill-opacity:1" />
        <path
           d="M 32.39,16.92 34,14.14 a 1.09,1.09 0 0 0 0.08,-0.15 v 0 a 1.85,1.85 0 0 0 0,-1.45 C 33.47,10.74 30.87,8.46 27.44,6.75 23.86,5 20.43,4.32 18.7,5 v 0 a 1.8,1.8 0 0 0 -1,0.82 v 0 L 16,8.75 A 1.72,1.72 0 0 0 16,10 c 0.48,1.78 3.05,4.15 6.68,6 v 0 c 4.58,2.28 8.86,2.69 9.74,0.94 m -8,-4.39 c -2.29,-1 -6.36,-3.81 -6.27,-6.16 0,-0.51 0.25,-0.61 0.39,-0.66 a 4.55,4.55 0 0 0 1.17,2.73 19.51,19.51 0 0 1 5.92,1.94 18.11,18.11 0 0 1 5.2,3.6 4,4 0 0 0 3,-0.42 c 0,0.16 -0.2,0.41 -0.34,0.5 -2.16,1.5 -6.14,-0.18 -9.06,-1.53"
           id="path25"
           style="fill:#7476a7;fill-opacity:1" />
      </g>
    </g>
  </g>
</svg>
