<?xml version="1.0" encoding="UTF-8" standalone="no"?>
<svg
   viewBox="0 0 37.75 36.517146"
   version="1.1"
   id="svg15"
   sodipodi:docname="fh-trap.svg"
   inkscape:version="1.1.2 (0a00cf5339, 2022-02-04)"
   width="37.75"
   height="36.517147"
   xmlns:inkscape="http://www.inkscape.org/namespaces/inkscape"
   xmlns:sodipodi="http://sodipodi.sourceforge.net/DTD/sodipodi-0.dtd"
   xmlns="http://www.w3.org/2000/svg"
   xmlns:svg="http://www.w3.org/2000/svg">
  <sodipodi:namedview
     id="namedview17"
     pagecolor="#ffffff"
     bordercolor="#666666"
     borderopacity="1.0"
     inkscape:pageshadow="2"
     inkscape:pageopacity="0.0"
     inkscape:pagecheckerboard="0"
     showgrid="false"
     inkscape:zoom="28.594824"
     inkscape:cx="18.867051"
     inkscape:cy="18.272538"
     inkscape:window-width="1846"
     inkscape:window-height="1016"
     inkscape:window-x="0"
     inkscape:window-y="0"
     inkscape:window-maximized="1"
     inkscape:current-layer="svg15"
     fit-margin-left="3"
     lock-margins="true"
     fit-margin-top="3"
     fit-margin-right="3"
     fit-margin-bottom="3" />
  <defs
     id="defs7">
    <style
       id="style2">.cls-1{fill:none;}.cls-2{clip-path:url(#clip-path);}</style>
    <clipPath
       id="clip-path"
       transform="translate(0 0)">
      <rect
         class="cls-1"
         width="31.75"
         height="30.530001"
         id="rect4"
         x="0"
         y="0" />
    </clipPath>
  </defs>
  <g
     id="Layer_2"
     data-name="Layer 2"
     style="fill:#ddb586;fill-opacity:1"
     transform="translate(3,3)">
    <g
       id="Layer_1-2"
       data-name="Layer 1"
       style="fill:#ddb586;fill-opacity:1">
      <g
         class="cls-2"
         clip-path="url(#clip-path)"
         id="g11"
         style="fill:#ddb586;fill-opacity:1">
        <path
           d="m 26.66,3.78 -0.3,-0.26 c -0.28,0.69 -0.47,1.1 -0.47,1.1 L 17.37,0 16.81,2.08 9.33,1.23 8.33,4.8 2.92,6.73 3.55,11 0,14.2 2.59,19.49 0.83,22 5.55,25.68 5.08,27.21 c 0,0 4.95,2.59 7.85,3.05 C 17.11,30.93 26.87,30.93 30.39,22 33.74,13.49 30.31,7.06 26.66,3.77 m 2.39,11.78 -7.5,-1 a 4.8,4.8 0 0 1 0.46,2 4.64,4.64 0 0 1 -1.28,3.22 l 5.94,0.82 0.92,2.2 L 23.2,25 22.14,28 A 18.07,18.07 0 0 1 17,29.1 l 0.33,-1.91 0.39,-0.17 a 0.64,0.64 0 0 0 0.34,-0.84 0.6,0.6 0 0 0 -0.5,-0.37 l 0.3,-1.73 0.43,-0.18 a 0.64,0.64 0 0 0 0.34,-0.84 0.63,0.63 0 0 0 -0.53,-0.38 l 0.25,-1.46 a 5.2,5.2 0 0 1 -1.05,0.12 4.65,4.65 0 0 1 -2.88,-1 l -0.19,1.09 -0.4,0.17 A 0.64,0.64 0 0 0 14,22.82 l -0.28,1.64 -0.26,0.11 a 0.64,0.64 0 0 0 -0.34,0.83 0.67,0.67 0 0 0 0.37,0.35 l -0.31,1.82 -0.29,0.12 a 0.62,0.62 0 0 0 -0.36,0.75 C 4.51,25.21 4.67,18 4.67,18 l 8.58,1 a 4.59,4.59 0 0 1 -0.61,-2.3 4.65,4.65 0 0 1 1.11,-3 L 5.29,12.52 a 8.41,8.41 0 0 1 1,-2.47 13.91,13.91 0 0 1 11.06,-6.56 L 16.86,6.33 16.54,6.47 A 0.64,0.64 0 0 0 16.2,7.3 0.66,0.66 0 0 0 16.63,7.67 l -0.29,1.68 -0.18,0.08 a 0.64,0.64 0 0 0 -0.34,0.83 0.61,0.61 0 0 0 0.31,0.32 l -0.28,1.62 a 4.78,4.78 0 0 1 1.48,-0.2 4.63,4.63 0 0 1 2.5,0.72 l 0.11,-0.6 0.49,-0.21 a 0.64,0.64 0 0 0 0.34,-0.84 0.63,0.63 0 0 0 -0.59,-0.38 L 20.47,9 21,8.75 A 0.64,0.64 0 0 0 21.34,7.92 0.63,0.63 0 0 0 20.72,7.54 L 21,6 21.41,5.83 A 0.64,0.64 0 0 0 21.24,4.61 l 0.1,-0.57 a 19,19 0 0 1 7.79,5.16 l -1.77,3.33 z"
           id="path9"
           style="fill:#ddb586;fill-opacity:1" />
      </g>
    </g>
  </g>
</svg>
