<?xml version="1.0" encoding="UTF-8" standalone="no"?>
<svg
   version="1.0"
   width="100mm"
   height="100mm"
   viewBox="0 0 283.46456 283.46456"
   preserveAspectRatio="xMidYMid meet"
   id="svg12"
   sodipodi:docname="gh-brute.svg"
   inkscape:version="1.1.2 (0a00cf5339, 2022-02-04)"
   xmlns:inkscape="http://www.inkscape.org/namespaces/inkscape"
   xmlns:sodipodi="http://sodipodi.sourceforge.net/DTD/sodipodi-0.dtd"
   xmlns="http://www.w3.org/2000/svg"
   xmlns:svg="http://www.w3.org/2000/svg">
  <defs
     id="defs16" />
  <sodipodi:namedview
     id="namedview14"
     pagecolor="#ffffff"
     bordercolor="#666666"
     borderopacity="1.0"
     inkscape:pageshadow="2"
     inkscape:pageopacity="0.0"
     inkscape:pagecheckerboard="0"
     inkscape:document-units="pt"
     showgrid="false"
     units="mm"
     inkscape:zoom="1.5510344"
     inkscape:cx="45.453537"
     inkscape:cy="214.69543"
     inkscape:window-width="1850"
     inkscape:window-height="1043"
     inkscape:window-x="0"
     inkscape:window-y="0"
     inkscape:window-maximized="1"
     inkscape:current-layer="svg12" />
  <metadata
     id="metadata2">
Created by potrace 1.16, written by Peter Selinger 2001-2019
</metadata>
  <g
     transform="matrix(0.0107,0,0,-0.0107,22.096247,247.34571)"
     fill="#000000"
     stroke="none"
     id="g10"
     style="fill:#35acd5;fill-opacity:1">
    <path
       d="m 11131,19716 c -21,-25 -45,-167 -210,-1241 C 9778,11055 9112,5708 8979,2890 c -24,-511 -12,-1366 22,-1492 9,-36 12,-38 96,-63 110,-34 196,-77 298,-150 123,-88 195,-154 657,-595 213,-204 289,-268 429,-360 125,-82 230,-134 358,-178 105,-35 107,-35 311,-40 233,-5 303,7 474,75 226,89 360,192 806,618 146,139 303,287 350,329 152,137 358,261 506,305 85,25 77,3 101,275 55,639 -19,2083 -202,3921 -312,3126 -882,7363 -1744,12970 -171,1113 -183,1179 -208,1207 -20,22 -85,24 -102,4 z"
       id="path4"
       style="fill:#35acd5;fill-opacity:1" />
    <path
       d="m 325,16415 c -14,-13 -25,-31 -25,-40 0,-9 15,-87 34,-173 86,-395 106,-641 106,-1312 0,-422 -7,-656 -40,-1425 -70,-1639 -34,-2452 136,-3037 202,-695 680,-1224 1683,-1862 85,-54 434,-263 775,-464 1028,-605 1264,-759 1621,-1057 142,-118 366,-339 452,-446 248,-306 405,-672 512,-1189 142,-689 165,-1494 90,-3055 -25,-514 -37,-1504 -21,-1646 17,-141 24,-154 87,-178 141,-53 405,-74 580,-47 107,16 271,60 293,78 7,6 31,49 53,95 123,258 513,472 1184,650 116,30 211,56 213,58 1,1 14,166 27,366 80,1168 175,2227 385,4272 39,373 70,723 70,779 0,296 -146,880 -314,1258 -113,252 -204,378 -456,631 -248,248 -469,425 -830,664 -585,387 -1140,669 -2380,1210 -1336,583 -1736,794 -2002,1057 -203,203 -255,339 -533,1398 -201,766 -310,1137 -434,1479 -296,810 -629,1386 -1066,1840 -122,126 -155,142 -200,96 z"
       id="path6"
       style="fill:#35acd5;fill-opacity:1" />
    <path
       d="m 21955,16421 c -16,-10 -69,-59 -116,-107 -387,-399 -703,-918 -979,-1610 -159,-397 -296,-845 -515,-1689 -273,-1048 -340,-1222 -552,-1426 -276,-265 -603,-438 -1893,-1004 -896,-393 -1231,-548 -1670,-777 -908,-471 -1688,-1077 -1959,-1521 -177,-291 -314,-687 -408,-1181 -51,-269 -50,-319 25,-1031 180,-1703 306,-3094 397,-4405 9,-124 18,-246 21,-271 l 6,-45 92,-18 c 126,-25 365,-95 521,-151 271,-98 458,-194 584,-298 90,-73 198,-208 215,-267 17,-58 39,-71 191,-110 115,-30 128,-31 325,-32 175,0 216,3 282,20 119,32 177,60 186,91 4,14 7,352 6,751 0,536 -5,808 -17,1045 -52,994 -56,1843 -12,2320 85,906 282,1499 637,1920 148,174 396,404 624,576 311,236 546,384 1414,894 1089,639 1559,972 1893,1340 512,564 678,1047 738,2145 17,313 6,1181 -25,1910 -36,861 -46,1178 -46,1453 0,533 43,994 124,1325 27,110 24,141 -13,161 -28,15 -42,14 -76,-8 z"
       id="path8"
       style="fill:#35acd5;fill-opacity:1" />
  </g>
</svg>
