<?xml version="1.0" encoding="UTF-8" standalone="no"?>
<svg
   version="1.0"
   width="100mm"
   height="100mm"
   viewBox="0 0 283.46456 283.46458"
   preserveAspectRatio="xMidYMid meet"
   id="svg10"
   sodipodi:docname="gh-circles.svg"
   inkscape:version="1.1.2 (0a00cf5339, 2022-02-04)"
   xmlns:inkscape="http://www.inkscape.org/namespaces/inkscape"
   xmlns:sodipodi="http://sodipodi.sourceforge.net/DTD/sodipodi-0.dtd"
   xmlns="http://www.w3.org/2000/svg"
   xmlns:svg="http://www.w3.org/2000/svg">
  <defs
     id="defs14" />
  <sodipodi:namedview
     id="namedview12"
     pagecolor="#ffffff"
     bordercolor="#666666"
     borderopacity="1.0"
     inkscape:pageshadow="2"
     inkscape:pageopacity="0.0"
     inkscape:pagecheckerboard="0"
     inkscape:document-units="pt"
     showgrid="false"
     units="mm"
     width="100mm"
     inkscape:zoom="0.24527665"
     inkscape:cx="-1327.0729"
     inkscape:cy="1479.9615"
     inkscape:window-width="1850"
     inkscape:window-height="1043"
     inkscape:window-x="0"
     inkscape:window-y="0"
     inkscape:window-maximized="1"
     inkscape:current-layer="svg10" />
  <metadata
     id="metadata2">
Created by potrace 1.16, written by Peter Selinger 2001-2019
</metadata>
  <g
     transform="matrix(0.012,0,0,-0.012,8.4863037,275.10001)"
     fill="#000000"
     stroke="none"
     id="g8"
     style="fill:#e570b3;fill-opacity:1">
    <path
       d="m 10575,22219 c -1065,-56 -2044,-240 -3027,-570 -1384,-463 -2663,-1200 -3793,-2184 -190,-166 -826,-797 -981,-975 -365,-417 -649,-786 -949,-1235 C 867,15823 261,14196 46,12480 6,12162 0,11997 0,11095 0,10193 6,10028 46,9710 363,7180 1548,4827 3393,3061 5195,1338 7487,275 9960,19 10116,3 11193,-3 11775,9 c 458,9 529,13 695,36 1349,187 2440,518 3570,1081 1174,586 2184,1330 3084,2272 1595,1669 2604,3699 2965,5967 81,507 99,712 112,1295 16,690 3,1240 -37,1620 -158,1496 -639,2989 -1384,4295 -510,894 -1088,1653 -1815,2381 -540,542 -1050,963 -1660,1373 -1575,1059 -3240,1655 -5165,1851 -335,34 -1239,57 -1565,39 z m 1031,-1159 c 1085,-47 2254,-310 3294,-742 952,-395 1881,-965 2665,-1636 279,-239 730,-682 981,-963 716,-803 1306,-1732 1729,-2724 634,-1487 893,-3099 759,-4725 -215,-2623 -1456,-5034 -3481,-6768 -824,-706 -1799,-1293 -2803,-1687 -970,-382 -1935,-599 -3005,-677 -273,-20 -1101,-17 -1375,5 -743,60 -1387,176 -2060,372 -2653,773 -4878,2624 -6124,5095 -594,1177 -921,2336 -1042,3695 -21,240 -30,1015 -15,1311 76,1501 509,3010 1238,4314 600,1071 1326,1955 2283,2776 1136,975 2547,1702 4015,2068 529,132 964,207 1525,262 318,31 991,42 1416,24 z"
       id="path4"
       style="fill:#e570b3;fill-opacity:1" />
    <path
       d="m 10810,20013 c -158,-5 -434,-24 -625,-44 -1786,-185 -3426,-878 -4816,-2036 -185,-153 -507,-460 -761,-724 -231,-241 -273,-288 -428,-479 -1002,-1239 -1660,-2708 -1894,-4230 -83,-536 -101,-785 -101,-1400 0,-526 5,-634 46,-1005 C 2459,8037 3434,6070 4929,4654 6319,3338 7974,2534 9845,2266 c 511,-74 1010,-98 1597,-78 446,16 690,40 1155,118 2128,353 4078,1506 5459,3224 1037,1289 1702,2879 1893,4525 45,383 55,564 55,1020 1,450 -7,620 -45,975 -197,1837 -942,3527 -2172,4933 -266,304 -690,717 -1012,983 -1118,926 -2449,1569 -3845,1859 -685,142 -1443,209 -2120,188 z m 990,-1182 c 530,-46 1202,-187 1747,-369 2166,-723 3922,-2389 4768,-4522 298,-751 468,-1514 525,-2365 15,-210 15,-765 0,-980 -92,-1392 -547,-2709 -1338,-3870 -175,-258 -421,-574 -588,-755 -532,-580 -944,-942 -1498,-1315 -766,-517 -1571,-873 -2490,-1101 -220,-54 -262,-62 -216,-41 545,251 791,383 1157,623 957,627 1759,1484 2343,2504 100,176 297,575 376,765 300,721 470,1412 535,2175 17,201 23,930 10,1125 -106,1537 -688,2979 -1682,4165 -343,410 -789,833 -1214,1150 -363,271 -688,471 -1105,678 -335,167 -518,247 -773,339 -1541,552 -3218,574 -4757,63 -857,-285 -1682,-748 -2385,-1338 -171,-143 -490,-449 -658,-632 -89,-96 -182,-195 -206,-220 l -43,-45 27,50 c 51,92 217,358 308,495 805,1205 1971,2190 3292,2778 788,351 1594,560 2500,648 161,15 1166,12 1365,-5 z m -1434,-2541 c 520,-24 1229,-188 1784,-413 859,-348 1563,-837 2222,-1544 626,-670 1099,-1504 1362,-2396 51,-172 138,-524 151,-612 6,-38 5,-39 -10,-20 -9,11 -50,83 -92,160 -275,504 -520,838 -898,1224 -303,309 -551,516 -885,736 -207,137 -352,221 -549,319 -617,309 -1318,502 -1951,537 -265,15 -847,6 -1025,-15 -983,-119 -1923,-512 -2685,-1121 -1039,-831 -1718,-1991 -1939,-3310 -54,-322 -72,-724 -52,-1155 34,-737 252,-1523 602,-2166 271,-497 565,-893 948,-1274 383,-381 768,-665 1289,-950 83,-46 151,-84 150,-86 -4,-3 -260,51 -378,81 -284,71 -621,184 -890,297 -188,80 -589,283 -755,383 -1218,734 -2124,1826 -2614,3147 -140,379 -255,833 -310,1230 -70,501 -79,1043 -26,1528 317,2850 2584,5108 5430,5410 105,11 213,21 240,24 74,5 650,-4 881,-14 z m 1044,-3160 c 865,-58 1748,-427 2396,-1001 145,-129 420,-411 516,-530 937,-1166 1180,-2731 637,-4114 -175,-446 -434,-870 -755,-1235 -547,-623 -1262,-1064 -2066,-1275 -262,-68 -580,-123 -564,-97 4,7 66,51 139,99 191,127 362,267 527,432 456,458 763,1020 903,1651 131,590 85,1274 -122,1832 -306,822 -891,1474 -1678,1867 -340,169 -796,295 -1177,322 -163,12 -540,6 -691,-11 -348,-40 -759,-169 -1115,-351 -306,-156 -566,-345 -816,-594 -211,-210 -347,-380 -494,-617 -38,-62 -74,-120 -79,-128 -8,-12 -10,-11 -10,7 -2,45 31,253 69,444 305,1523 1491,2776 3005,3174 217,58 394,90 680,124 99,12 523,13 695,1 z M 10260,9906 c 178,-28 413,-107 604,-203 227,-113 348,-203 557,-412 170,-171 218,-229 303,-370 235,-387 336,-738 336,-1164 0,-343 -63,-620 -209,-922 -125,-258 -227,-402 -430,-606 -195,-195 -384,-331 -614,-439 -176,-83 -405,-154 -577,-180 -122,-18 -453,-24 -581,-11 -316,33 -663,156 -939,336 -781,505 -1159,1445 -939,2334 73,294 203,569 380,803 80,105 260,291 364,375 309,250 728,432 1088,473 112,13 547,4 657,-14 z"
       id="path6"
       style="fill:#e570b3;fill-opacity:1" />
  </g>
</svg>
