<?xml version="1.0" encoding="UTF-8" standalone="no"?>
<svg
   version="1.0"
   width="100mm"
   height="100mm"
   viewBox="0 0 283.46457 283.46458"
   preserveAspectRatio="xMidYMid meet"
   id="svg12"
   sodipodi:docname="gh-lightning.svg"
   inkscape:version="1.1.2 (0a00cf5339, 2022-02-04)"
   xmlns:inkscape="http://www.inkscape.org/namespaces/inkscape"
   xmlns:sodipodi="http://sodipodi.sourceforge.net/DTD/sodipodi-0.dtd"
   xmlns="http://www.w3.org/2000/svg"
   xmlns:svg="http://www.w3.org/2000/svg">
  <defs
     id="defs16" />
  <sodipodi:namedview
     id="namedview14"
     pagecolor="#ffffff"
     bordercolor="#666666"
     borderopacity="1.0"
     inkscape:pageshadow="2"
     inkscape:pageopacity="0.0"
     inkscape:pagecheckerboard="0"
     inkscape:document-units="pt"
     showgrid="false"
     units="mm"
     width="100mm"
     inkscape:zoom="0.24527665"
     inkscape:cx="-230.35214"
     inkscape:cy="1479.9615"
     inkscape:window-width="1850"
     inkscape:window-height="1043"
     inkscape:window-x="0"
     inkscape:window-y="0"
     inkscape:window-maximized="1"
     inkscape:current-layer="svg12" />
  <metadata
     id="metadata2">
Created by potrace 1.16, written by Peter Selinger 2001-2019
</metadata>
  <g
     transform="matrix(0.0105,0,0,-0.0105,49.146662,258.38968)"
     fill="#000000"
     stroke="none"
     id="g10"
     style="fill:#f07c4e;fill-opacity:1">
    <path
       d="m 14308,22133 c -70,-62 -327,-326 -4083,-4188 C 8866,16548 6844,14469 5731,13325 4618,12181 3696,11231 3683,11213 c -13,-17 -27,-47 -30,-66 -7,-43 2,-47 137,-58 52,-5 1424,-13 3048,-19 l 2953,-10 24,-28 c 13,-15 25,-33 25,-40 0,-7 -669,-1370 -1486,-3030 C 5999,3182 4861,867 4584,292 c -46,-96 -84,-187 -84,-202 0,-57 82,-80 135,-38 31,24 749,786 4655,4943 2820,3000 7696,8190 7782,8282 41,44 48,58 48,92 0,31 -5,44 -22,55 -44,27 -289,46 -2513,196 -2529,170 -3751,255 -4024,279 -79,7 -98,12 -112,30 -17,21 -17,24 1,65 60,142 397,821 1875,3786 1654,3316 2129,4276 2141,4324 5,20 0,32 -24,56 -17,16 -39,30 -49,30 -11,0 -49,-26 -85,-57 z"
       id="path4"
       style="fill:#f07c4e;fill-opacity:1" />
    <path
       d="M 2405,13287 C 2361,13220 2133,12463 751,7795 -46,5103 5,5281 28,5251 c 10,-13 26,-27 37,-31 19,-7 280,34 1100,175 798,137 914,156 1075,180 91,14 177,25 191,25 63,0 59,13 204,-670 911,-4297 864,-4079 888,-4103 14,-14 27,-17 50,-13 54,11 75,32 81,78 3,24 46,664 96,1423 50,759 115,1756 145,2215 70,1069 129,1994 155,2425 11,187 23,386 26,443 7,118 -3,142 -61,142 -40,0 -616,-84 -1404,-205 -343,-52 -650,-98 -682,-102 -78,-8 -99,9 -99,78 0,94 58,594 289,2504 307,2531 413,3438 405,3460 -7,16 -49,35 -79,35 -15,0 -31,-9 -40,-23 z"
       id="path6"
       style="fill:#f07c4e;fill-opacity:1" />
    <path
       d="m 17225,8259 c -1321,-617 -5605,-2651 -5980,-2839 -161,-81 -170,-87 -173,-116 -6,-57 18,-78 633,-549 819,-627 805,-616 805,-664 0,-11 -10,-31 -22,-45 -26,-29 -59,-50 -3118,-2038 C 6333,35 6599,211 6584,173 c -15,-34 -11,-57 14,-85 21,-25 50,-22 136,12 487,193 8173,3540 8908,3878 97,45 119,69 94,107 -27,40 -186,152 -806,565 -333,221 -658,441 -722,487 -150,107 -151,111 -40,210 133,120 1054,904 2062,1757 626,529 1167,991 1273,1084 112,99 119,107 113,136 -8,38 -43,76 -70,75 -12,0 -156,-63 -321,-140 z"
       id="path8"
       style="fill:#f07c4e;fill-opacity:1" />
  </g>
</svg>
