<?xml version="1.0" encoding="UTF-8" standalone="no"?>
<svg
   version="1.0"
   width="100mm"
   height="100mm"
   viewBox="0 0 283.46456 283.46456"
   preserveAspectRatio="xMidYMid meet"
   id="svg8"
   sodipodi:docname="gh-mindthief.svg"
   inkscape:version="1.1.2 (0a00cf5339, 2022-02-04)"
   xmlns:inkscape="http://www.inkscape.org/namespaces/inkscape"
   xmlns:sodipodi="http://sodipodi.sourceforge.net/DTD/sodipodi-0.dtd"
   xmlns="http://www.w3.org/2000/svg"
   xmlns:svg="http://www.w3.org/2000/svg">
  <defs
     id="defs12" />
  <sodipodi:namedview
     id="namedview10"
     pagecolor="#ffffff"
     bordercolor="#666666"
     borderopacity="1.0"
     inkscape:pageshadow="2"
     inkscape:pageopacity="0.0"
     inkscape:pagecheckerboard="0"
     inkscape:document-units="pt"
     showgrid="false"
     units="mm"
     width="100mm"
     inkscape:zoom="0.28295278"
     inkscape:cx="273.89729"
     inkscape:cy="1286.4337"
     inkscape:window-width="1850"
     inkscape:window-height="1043"
     inkscape:window-x="0"
     inkscape:window-y="0"
     inkscape:window-maximized="1"
     inkscape:current-layer="svg8" />
  <metadata
     id="metadata2">
Created by potrace 1.16, written by Peter Selinger 2001-2019
</metadata>
  <g
     transform="matrix(0.012,0,0,-0.012,8.43816,256.01058)"
     fill="#000000"
     stroke="none"
     id="g6"
     style="fill:#6279a5;fill-opacity:1">
    <path
       d="m 10320,19035 c -258,-32 -517,-95 -829,-200 l -165,-55 -170,35 c -250,50 -394,66 -647,72 -444,11 -780,-40 -1244,-190 -110,-35 -240,-72 -290,-81 -431,-80 -624,-128 -900,-221 -633,-213 -1019,-476 -1291,-881 -56,-83 -83,-115 -107,-125 -116,-46 -406,-183 -539,-255 -827,-444 -1438,-999 -1812,-1648 -82,-142 -122,-224 -183,-375 -98,-245 -149,-453 -182,-744 l -19,-168 -164,-167 c -193,-198 -305,-334 -437,-532 -205,-308 -343,-638 -386,-920 -21,-134 -19,-425 3,-561 l 18,-106 -59,-64 c -204,-223 -328,-401 -442,-634 -157,-320 -216,-602 -194,-928 19,-277 103,-472 303,-698 l 84,-96 -16,-104 c -23,-155 -23,-541 2,-674 87,-472 334,-841 741,-1107 232,-152 566,-264 890,-298 55,-6 103,-14 108,-19 5,-5 -24,-35 -65,-67 -176,-140 -344,-333 -425,-489 -90,-174 -123,-316 -123,-525 0,-160 16,-261 66,-410 82,-249 237,-518 439,-767 113,-138 405,-430 560,-559 864,-718 2018,-1273 3085,-1483 311,-61 482,-79 828,-88 l 262,-6 V 2601 C 7020,2039 6956,1534 6814,965 6739,667 6659,436 6539,178 6477,43 6462,0 6477,0 c 41,0 572,381 863,619 489,401 954,886 1243,1299 124,176 196,297 297,497 241,475 387,875 471,1290 40,198 58,482 41,652 -8,86 -8,119 0,124 6,4 54,12 107,19 475,59 856,282 1102,646 97,144 172,328 220,542 13,56 26,102 30,102 3,0 26,-15 50,-34 316,-241 755,-414 1135,-447 149,-13 376,-6 514,17 117,18 332,89 448,147 l 87,43 65,-38 c 300,-177 891,-244 1397,-158 594,101 1061,365 1312,740 73,110 223,410 276,553 85,233 115,395 115,632 0,262 -28,393 -138,645 -28,63 -49,116 -47,118 2,2 47,-4 99,-13 112,-19 344,-21 438,-5 101,18 238,57 383,110 l 135,49 119,-54 c 407,-186 829,-303 1281,-356 132,-15 566,-15 725,0 530,51 1030,257 1469,607 268,213 494,473 661,757 158,272 246,537 280,847 20,186 28,217 70,287 75,125 154,370 191,598 22,135 31,633 15,833 -49,604 -275,1327 -566,1806 -233,385 -491,639 -824,811 -86,44 -91,49 -102,88 -49,187 -165,372 -376,598 -391,421 -907,801 -1448,1066 -331,162 -593,243 -867,268 l -77,7 -79,122 c -218,330 -522,635 -847,848 -348,228 -703,348 -1135,384 l -85,7 -95,90 c -249,236 -518,422 -849,587 -752,375 -1712,533 -2601,429 -106,-13 -76,-20 -317,80 -184,76 -396,133 -623,167 -149,22 -569,28 -720,9 z"
       id="path4"
       style="fill:#6279a5;fill-opacity:1" />
  </g>
</svg>
