<?xml version="1.0" encoding="UTF-8" standalone="no"?>
<svg
   version="1.0"
   width="100mm"
   height="100mm"
   viewBox="0 0 283.46457 283.46458"
   preserveAspectRatio="xMidYMid meet"
   id="svg10"
   sodipodi:docname="gh-sun.svg"
   inkscape:version="1.1.2 (0a00cf5339, 2022-02-04)"
   xmlns:inkscape="http://www.inkscape.org/namespaces/inkscape"
   xmlns:sodipodi="http://sodipodi.sourceforge.net/DTD/sodipodi-0.dtd"
   xmlns="http://www.w3.org/2000/svg"
   xmlns:svg="http://www.w3.org/2000/svg">
  <defs
     id="defs14" />
  <sodipodi:namedview
     id="namedview12"
     pagecolor="#ffffff"
     bordercolor="#666666"
     borderopacity="1.0"
     inkscape:pageshadow="2"
     inkscape:pageopacity="0.0"
     inkscape:pagecheckerboard="0"
     inkscape:document-units="pt"
     showgrid="false"
     units="mm"
     width="100mm"
     inkscape:zoom="0.24527665"
     inkscape:cx="-1322.9959"
     inkscape:cy="1479.9615"
     inkscape:window-width="1850"
     inkscape:window-height="1043"
     inkscape:window-x="0"
     inkscape:window-y="0"
     inkscape:window-maximized="1"
     inkscape:current-layer="svg10" />
  <metadata
     id="metadata2">
Created by potrace 1.16, written by Peter Selinger 2001-2019
</metadata>
  <g
     transform="matrix(0.012,0,0,-0.012,8.1609754,275.05927)"
     fill="#000000"
     stroke="none"
     id="g8"
     style="fill:#fce434;fill-opacity:1">
    <path
       d="m 11115,22175 c -75,-179 -325,-790 -911,-2231 -375,-925 -725,-1783 -776,-1907 l -92,-225 -30,21 c -62,44 -582,447 -1611,1248 -1811,1409 -2108,1636 -2113,1615 -2,-8 6,-85 18,-173 32,-243 285,-2078 430,-3118 177,-1274 192,-1386 187,-1391 -3,-3 -283,33 -623,80 -1140,157 -3228,447 -3758,522 -175,25 -323,43 -328,42 -10,-4 202,-278 1473,-1908 972,-1246 1424,-1834 1424,-1852 0,-12 -50,-33 -2060,-850 C 452,11279 38,11110 27,11100 c -10,-9 626,-270 3605,-1475 434,-176 788,-323 788,-327 0,-4 -217,-285 -482,-625 -521,-668 -2210,-2839 -2347,-3016 -46,-60 -81,-111 -78,-114 3,-3 61,3 129,12 144,19 2056,283 3258,450 1001,138 1176,162 1258,171 l 63,7 -6,-39 c -3,-22 -26,-190 -51,-374 -24,-184 -123,-900 -219,-1590 -214,-1539 -352,-2544 -361,-2629 -6,-53 -5,-63 7,-56 93,56 528,392 2059,1584 448,349 986,767 1195,930 209,162 402,312 429,333 27,21 52,38 56,38 9,0 39,-72 735,-1785 777,-1912 1044,-2558 1064,-2578 14,-14 191,413 1059,2548 444,1093 677,1661 726,1777 9,21 20,38 24,38 4,0 563,-433 1242,-961 1922,-1496 2495,-1937 2505,-1927 6,5 -31,279 -324,2393 -282,2035 -315,2284 -307,2292 8,8 230,-21 1426,-187 3117,-433 3269,-454 3276,-447 5,5 -21,39 -1386,1792 -1552,1994 -1527,1962 -1519,1968 5,5 188,79 1779,725 1567,636 2278,928 2560,1049 l 45,20 -30,15 c -55,28 -813,340 -1950,801 -824,335 -1958,796 -2193,892 -145,60 -210,91 -204,99 275,365 728,951 1975,2551 514,660 931,1201 927,1203 -4,2 -313,-40 -686,-92 -742,-104 -1497,-209 -2234,-311 -261,-36 -585,-81 -720,-100 -543,-76 -1063,-146 -1069,-143 -8,4 -2,52 294,2188 308,2221 346,2503 341,2508 -10,9 -741,-554 -2613,-2015 -623,-486 -1136,-883 -1140,-883 -5,0 -13,12 -19,28 -22,56 -918,2267 -1211,2987 -369,908 -552,1355 -563,1375 -6,10 -12,4 -25,-25 z m 541,-5599 c 548,-59 1038,-178 1524,-371 188,-74 588,-271 760,-375 758,-456 1399,-1084 1865,-1828 721,-1154 986,-2548 739,-3892 -261,-1419 -1057,-2667 -2234,-3502 -737,-522 -1598,-857 -2490,-968 -487,-60 -1051,-53 -1522,20 -1000,155 -1914,570 -2708,1230 -159,132 -536,509 -666,665 -572,689 -953,1451 -1150,2300 -231,996 -180,2043 147,3002 148,433 374,898 613,1262 411,623 1040,1241 1655,1625 604,379 1231,627 1906,755 249,47 414,69 735,95 110,9 694,-4 826,-18 z"
       id="path4"
       style="fill:#fce434;fill-opacity:1" />
    <path
       d="m 10885,14550 c -724,-59 -1363,-313 -1939,-774 -133,-106 -399,-373 -510,-511 -217,-270 -431,-646 -546,-957 -392,-1063 -243,-2252 399,-3178 484,-699 1182,-1179 2019,-1389 327,-82 368,-86 817,-86 465,0 512,5 850,90 255,64 433,129 670,245 380,186 630,364 930,665 454,453 760,992 913,1610 65,258 79,364 92,687 12,279 1,504 -35,711 -155,918 -652,1711 -1413,2256 -484,346 -1050,558 -1657,621 -144,15 -462,20 -590,10 z"
       id="path6"
       style="fill:#fce434;fill-opacity:1" />
  </g>
</svg>
