<?xml version="1.0" encoding="UTF-8" standalone="no"?>
<svg
   version="1.0"
   width="100mm"
   height="100mm"
   viewBox="0 0 283.46458 283.46458"
   preserveAspectRatio="xMidYMid meet"
   id="svg10"
   sodipodi:docname="gh-tinkerer.svg"
   inkscape:version="1.1.2 (0a00cf5339, 2022-02-04)"
   xmlns:inkscape="http://www.inkscape.org/namespaces/inkscape"
   xmlns:sodipodi="http://sodipodi.sourceforge.net/DTD/sodipodi-0.dtd"
   xmlns="http://www.w3.org/2000/svg"
   xmlns:svg="http://www.w3.org/2000/svg">
  <defs
     id="defs14" />
  <sodipodi:namedview
     id="namedview12"
     pagecolor="#ffffff"
     bordercolor="#666666"
     borderopacity="1.0"
     inkscape:pageshadow="2"
     inkscape:pageopacity="0.0"
     inkscape:pagecheckerboard="0"
     inkscape:document-units="pt"
     showgrid="false"
     units="mm"
     width="100mm"
     inkscape:zoom="1.5837047"
     inkscape:cx="-50.198752"
     inkscape:cy="197.63786"
     inkscape:window-width="1850"
     inkscape:window-height="1043"
     inkscape:window-x="0"
     inkscape:window-y="0"
     inkscape:window-maximized="1"
     inkscape:current-layer="svg10" />
  <metadata
     id="metadata2">
Created by potrace 1.16, written by Peter Selinger 2001-2019
</metadata>
  <g
     transform="matrix(0.0115,0,0,-0.0115,13.679783,269.31458)"
     fill="#000000"
     stroke="none"
     id="g8"
     style="fill:#d1c3a2;fill-opacity:1">
    <path
       d="m 12622,22170 c -101,-9 -190,-49 -250,-114 -62,-67 -112,-169 -799,-1641 -234,-500 -428,-914 -432,-918 -5,-4 -158,-17 -342,-27 -506,-30 -669,-47 -1123,-121 -137,-22 -252,-37 -256,-32 -5,4 -242,321 -527,703 -851,1140 -1115,1491 -1147,1523 -86,86 -303,120 -462,72 -59,-18 -1165,-606 -2184,-1163 -674,-368 -682,-373 -760,-494 -49,-76 -80,-167 -80,-238 0,-73 84,-318 555,-1615 382,-1052 387,-1066 373,-1084 -13,-17 -100,-114 -272,-305 -244,-270 -457,-539 -675,-853 -62,-90 -116,-163 -120,-163 -5,0 -291,41 -637,90 -2246,322 -2161,312 -2259,266 -74,-34 -150,-99 -206,-174 -42,-58 -57,-91 -104,-237 -88,-275 -207,-667 -541,-1779 l -316,-1050 4,-145 c 3,-140 4,-149 34,-211 55,-114 84,-145 185,-196 189,-94 810,-389 1619,-766 459,-214 837,-394 840,-399 3,-5 12,-120 18,-256 27,-534 51,-766 118,-1166 25,-148 44,-274 41,-281 -3,-7 -411,-316 -908,-687 C 1512,8338 1016,7968 906,7885 695,7727 657,7688 619,7593 c -19,-48 -23,-78 -23,-173 -1,-147 6,-170 146,-435 363,-688 1235,-2288 1369,-2511 94,-157 235,-244 394,-244 102,0 152,17 1789,612 l 908,330 31,-29 c 18,-15 81,-75 142,-133 299,-285 656,-572 1048,-844 90,-63 97,-70 97,-101 0,-47 -38,-327 -200,-1455 -178,-1244 -185,-1311 -159,-1391 33,-97 143,-220 244,-272 59,-30 585,-193 1855,-576 C 9449,14 9501,0 9626,20 c 130,21 258,86 307,158 15,20 124,244 243,497 321,684 915,1955 932,1997 18,45 16,45 287,53 372,11 793,54 1181,120 113,19 220,35 237,35 31,0 45,-16 258,-303 1390,-1859 1435,-1918 1495,-1957 74,-47 156,-63 285,-58 l 112,5 161,83 c 332,171 2050,1091 2506,1341 148,81 235,154 296,246 80,120 95,223 54,368 -29,104 -192,559 -594,1664 l -326,893 27,33 c 16,18 88,98 162,177 292,312 486,552 771,953 62,88 116,163 120,168 3,4 161,-16 351,-43 709,-104 2091,-300 2266,-321 179,-22 184,-22 240,-5 119,38 236,142 292,259 40,84 179,533 582,1876 l 341,1133 -4,137 c -3,136 -3,138 -41,214 -21,43 -55,95 -76,117 -51,54 -263,157 -1776,863 l -800,374 -2,79 c -15,527 -60,1006 -134,1409 -16,88 -29,174 -29,192 0,34 -8,28 1806,1381 l 430,321 43,90 43,91 -4,133 c -3,123 -6,137 -35,198 -39,84 -236,456 -601,1134 -764,1422 -897,1655 -990,1737 -20,17 -70,47 -111,67 -71,34 -82,36 -171,35 -119,0 -91,9 -1425,-476 -1352,-492 -1264,-461 -1289,-444 -12,7 -83,73 -159,145 -332,314 -814,696 -1154,916 -2,1 53,388 122,861 140,966 226,1582 250,1789 19,160 14,207 -34,290 -84,145 -160,195 -425,280 -380,121 -1939,592 -2454,740 -375,107 -425,117 -570,105 z m -1157,-4060 c 408,-13 686,-47 1090,-130 1203,-249 2347,-823 3246,-1631 1319,-1184 2143,-2794 2323,-4539 53,-513 46,-1101 -19,-1606 -177,-1368 -765,-2682 -1653,-3697 -154,-176 -462,-487 -647,-653 -297,-266 -597,-492 -917,-693 C 13297,4165 11423,3836 9615,4236 8041,4584 6643,5458 5637,6723 4593,8034 4036,9725 4108,11363 c 40,899 208,1646 559,2487 135,323 406,829 608,1135 477,724 1199,1447 1951,1952 747,501 1634,871 2514,1047 282,56 471,83 910,129 76,8 521,6 815,-3 z"
       id="path4"
       style="fill:#d1c3a2;fill-opacity:1" />
    <path
       d="m 10830,17024 c -25,-2 -101,-8 -170,-14 -576,-48 -1142,-180 -1690,-393 -1025,-399 -1929,-1087 -2592,-1972 -502,-671 -855,-1447 -1042,-2290 -206,-930 -175,-1922 89,-2859 162,-576 437,-1175 770,-1681 383,-581 895,-1115 1465,-1527 815,-589 1802,-971 2795,-1082 334,-37 765,-47 1073,-26 1894,135 3598,1147 4612,2740 498,782 792,1634 897,2600 22,208 25,879 5,1090 -123,1255 -582,2356 -1388,3325 -140,169 -543,572 -709,709 -949,786 -2028,1235 -3265,1360 -136,14 -752,29 -850,20 z m 404,-1964 c 320,-12 421,-23 636,-66 943,-187 1725,-650 2330,-1379 415,-499 720,-1162 841,-1823 39,-215 50,-338 56,-599 10,-447 -34,-790 -152,-1198 -185,-635 -511,-1194 -975,-1668 -677,-693 -1567,-1110 -2537,-1188 -181,-14 -611,-6 -770,15 -594,79 -1151,277 -1643,584 -255,160 -441,312 -710,581 -260,261 -408,449 -579,736 -693,1163 -755,2566 -167,3776 408,842 1112,1520 1968,1898 170,75 405,159 558,199 255,68 631,129 870,140 14,1 137,-3 274,-8 z"
       id="path6"
       style="fill:#d1c3a2;fill-opacity:1" />
  </g>
</svg>
