<?xml version="1.0" encoding="UTF-8" standalone="no"?>
<svg
   viewBox="0 0 37.75 36.517146"
   version="1.1"
   id="svg15"
   sodipodi:docname="ir-antlers.svg"
   inkscape:version="1.1.2 (0a00cf5339, 2022-02-04)"
   width="37.75"
   height="36.517147"
   xmlns:inkscape="http://www.inkscape.org/namespaces/inkscape"
   xmlns:sodipodi="http://sodipodi.sourceforge.net/DTD/sodipodi-0.dtd"
   xmlns="http://www.w3.org/2000/svg"
   xmlns:svg="http://www.w3.org/2000/svg">
  <sodipodi:namedview
     id="namedview17"
     pagecolor="#ffffff"
     bordercolor="#666666"
     borderopacity="1.0"
     inkscape:pageshadow="2"
     inkscape:pageopacity="0.0"
     inkscape:pagecheckerboard="0"
     showgrid="false"
     inkscape:zoom="10.109797"
     inkscape:cx="26.855139"
     inkscape:cy="37.735674"
     inkscape:window-width="1850"
     inkscape:window-height="1016"
     inkscape:window-x="0"
     inkscape:window-y="0"
     inkscape:window-maximized="1"
     inkscape:current-layer="svg15"
     fit-margin-left="3"
     lock-margins="true"
     fit-margin-top="3"
     fit-margin-right="3"
     fit-margin-bottom="3" />
  <defs
     id="defs7">
    <style
       id="style2">.cls-1{fill:none;}.cls-2{clip-path:url(#clip-path);}</style>
    <clipPath
       id="clip-path"
       transform="translate(0 0)">
      <rect
         class="cls-1"
         width="31.75"
         height="30.530001"
         id="rect4"
         x="0"
         y="0" />
    </clipPath>
  </defs>
  <path
     style="fill:#d7c36e;fill-opacity:1;stroke-width:0.141884"
     d="m 21.681303,33.215102 c -0.601743,-0.280155 -0.881209,-0.330501 -1.456489,-0.262363 -0.88827,0.105196 -1.275056,-0.173962 -1.275056,-0.920273 0,-0.405041 0.107895,-0.587836 0.594215,-1.006673 1.527049,-1.315158 2.119596,-1.946734 2.451693,-2.613171 0.313142,-0.628396 0.35932,-0.905094 0.35932,-2.153177 0,-2.213531 0.511867,-3.811507 1.580884,-4.935269 0.301359,-0.316799 0.581022,-0.542889 0.621478,-0.502436 0.04044,0.04044 -0.15121,0.790432 -0.425921,1.666622 -0.640201,2.041882 -0.656578,2.846882 -0.05792,2.846882 0.643839,0 3.100536,-4.210572 3.93515,-6.744522 0.565577,-1.717151 0.653652,-2.611998 0.384565,-3.907346 C 28.05044,13.033272 27.497704,12.079917 25.87925,10.347278 24.251969,8.6051852 23.387605,7.3591336 22.929664,6.0952147 22.618666,5.2368783 22.578443,4.3815218 22.851582,4.4351271 c 0.07803,0.015401 0.462902,0.6006549 0.855256,1.3007592 1.591683,2.8401679 3.409201,4.4782917 4.187363,3.7740644 C 28.379179,9.0710526 28.268212,8.1199536 27.570565,6.7359718 27.048384,5.700086 26.963275,5.4017399 26.926482,4.4782249 26.860501,2.8217557 27.323007,2.520106 27.537504,4.0797165 c 0.21091,1.5334679 1.101781,2.0625985 2.115869,1.256701 0.299353,-0.2378985 0.567429,-0.4325383 0.595716,-0.4325383 0.02831,0 0.05143,0.1392003 0.05143,0.3093226 0,0.1852397 -0.26366,0.5548542 -0.657275,0.9214073 -0.644064,0.5997811 -0.654891,0.6242173 -0.538562,1.2159343 0.06529,0.3321199 0.121637,1.5934968 0.125201,2.8030596 0.0066,2.222514 0.07314,2.563873 0.582551,2.986643 0.206502,0.171386 0.271095,0.154238 0.504339,-0.133802 0.334426,-0.412999 0.339686,-0.913449 0.03818,-3.633207 -0.219472,-1.9798035 -0.219574,-2.1668985 -0.0016,-2.6821176 0.128973,-0.3046208 0.269786,-0.5185538 0.312926,-0.4754128 0.04318,0.043124 0.137851,0.7063841 0.210459,1.4738735 0.217019,2.2938259 0.943288,3.9111679 1.636805,3.6450409 0.355511,-0.136414 1.054067,-1.285256 1.43316,-2.3569523 0.280699,-0.7935263 0.378325,-1.3987721 0.434825,-2.6956759 0.04714,-1.082384 0.125754,-1.6547732 0.222783,-1.6224269 0.263662,0.087892 0.390034,0.8430959 0.397017,2.3725803 0.01332,2.9345766 -0.677147,4.5990678 -2.736092,6.5951748 -1.515069,1.468838 -2.014056,2.203049 -2.412346,3.549567 -0.161574,0.546252 -0.579022,1.902991 -0.927641,3.014966 -0.699944,2.232532 -0.709997,2.677806 -0.07024,3.109734 0.277416,0.187294 0.651595,0.257737 1.374386,0.258729 0.867107,0.0011 1.123283,-0.06519 2.017907,-0.522946 0.56359,-0.288379 1.451656,-0.847533 1.973488,-1.242567 0.521825,-0.395032 0.975874,-0.691136 1.008999,-0.658019 0.100407,0.100418 -0.46819,1.252841 -0.921364,1.867402 -0.544032,0.73777 -1.713898,1.513996 -2.880661,1.91136 -0.811292,0.276302 -1.105016,0.302253 -2.600492,0.229761 -1.963248,-0.09517 -2.077765,-0.05647 -3.152757,1.065781 -0.736751,0.769137 -2.823979,3.344745 -3.137317,3.871408 -0.270388,0.454456 -0.21319,0.869743 0.184938,1.342892 0.429416,0.510335 0.851783,0.553277 1.691217,0.171923 0.492347,-0.223672 0.80622,-0.520099 1.670858,-1.578024 0.144479,-0.176763 0.179457,-0.138837 0.21581,0.233908 0.09894,1.014554 -0.769662,2.269057 -1.99505,2.881391 -1.041941,0.520662 -1.639067,0.538986 -2.623843,0.0805 z M 12.620598,32.961534 C 11.759879,32.382842 11.13262,31.391846 11.052719,30.484473 l -0.05986,-0.67987 0.249296,0.354712 c 0.904008,1.286265 1.904541,1.872259 2.809076,1.645235 0.391612,-0.09829 0.783878,-0.733534 0.783878,-1.26942 0,-0.552189 -3.157402,-4.522326 -4.114645,-5.173769 C 10.249677,25.040968 10.148163,25.028318 8.7674751,25.118013 6.9824498,25.233955 6.0252267,25.058893 4.7194905,24.377592 3.4772322,23.72943 2.481876,22.63234 2.1448605,21.539831 c -0.1513137,-0.490518 0.1506214,-0.393907 0.9140424,0.292485 0.3742105,0.336448 1.1742243,0.862381 1.7778021,1.168744 0.9123553,0.46309 1.2705484,0.565761 2.1241397,0.608867 0.9661248,0.04879 1.0537709,0.02766 1.4851075,-0.357727 C 9.0470835,22.715096 9.0377846,22.281684 8.3841291,20.369286 8.1040595,19.549903 7.752243,18.388972 7.6023047,17.789436 7.1756705,16.083508 6.7250318,15.353031 5.0227238,13.607978 3.3833188,11.927415 2.8757468,11.093944 2.4870313,9.4441782 2.2418214,8.4034989 2.249683,5.5329177 2.4993176,4.9748205 2.6762443,4.5791866 2.6959943,4.665401 2.7792912,6.1970936 2.8819782,8.0853646 3.2783701,9.5357761 3.9698825,10.553549 4.7774049,11.742064 5.1418278,11.717337 5.7879582,10.430183 6.0694442,9.8694419 6.2202663,9.2671617 6.3368907,8.2381596 6.5362063,6.4794966 6.5657283,6.3677245 6.7754787,6.5774767 6.966874,6.7688719 6.9454124,9.111276 6.7424439,10.181488 c -0.2303692,1.214745 -0.1740522,2.448331 0.1288519,2.822404 0.2558794,0.316004 0.2786881,0.319136 0.632911,0.08704 0.5724051,-0.375052 0.720097,-1.165978 0.521086,-2.790586 C 7.8830811,9.1394518 7.8916298,8.8126409 8.0835575,8.0719742 8.4066634,6.8250659 8.3812131,6.7002841 7.687893,6.132157 7.3465706,5.8524674 7.0333056,5.4936165 6.9917514,5.3346957 6.8921101,4.9536757 6.9848294,4.971254 7.7268128,5.4739998 8.4968027,5.995755 8.653926,5.9990965 9.1487617,5.504249 9.4341844,5.2188314 9.5936399,4.8495163 9.7320042,4.1533974 c 0.107653,-0.5415866 0.255957,-0.936428 0.3411678,-0.908311 0.0829,0.027342 0.169743,0.4810265 0.192966,1.0081669 0.03894,0.8838143 -0.0079,1.0659219 -0.6030098,2.3387754 -0.9183869,1.9646703 -0.8792234,3.1376575 0.104645,3.1344067 0.9232358,-0.00328 2.5120978,-1.6522217 3.7498538,-3.892169 0.838169,-1.5168346 1.115627,-1.712305 0.9954,-0.7012689 -0.176387,1.4832632 -1.044614,2.9165914 -3.074215,5.0751135 -1.5229038,1.619645 -1.9648591,2.283154 -2.4244899,3.639899 -0.2657737,0.784521 -0.300845,1.131827 -0.2429935,2.406615 0.08038,1.771197 0.3829716,2.702621 1.7630404,5.426834 1.270685,2.508297 2.429814,4.004146 2.884871,3.722906 0.280101,-0.173114 0.139183,-1.625756 -0.286705,-2.955271 -0.234107,-0.730836 -0.422789,-1.417969 -0.419293,-1.526951 0.01298,-0.406863 1.275084,1.235877 1.639405,2.133962 0.320874,0.790971 0.392289,1.232296 0.474147,2.930131 0.12733,2.640966 0.189283,2.749918 2.906017,5.110742 0.407377,0.354017 0.507566,0.542413 0.507566,0.954452 0,0.700737 -0.467363,1.014087 -1.321491,0.886003 -0.459287,-0.06887 -0.770027,-0.02044 -1.241745,0.193562 -0.407226,0.184739 -0.936319,0.286527 -1.499909,0.288543 -0.749921,0.0025 -0.965905,-0.06086 -1.55659,-0.458012 z"
     id="path1184"
     sodipodi:nodetypes="cssssssssssssscssssssssssssssccsssssssssscssssssssssssscccscsssssssssssssssssssssssssssssssssccsssssssscssssssscc" />
</svg>
