<?xml version="1.0" encoding="UTF-8" standalone="no"?>
<svg
   viewBox="0 0 38 37.999999"
   version="1.1"
   id="svg15"
   sodipodi:docname="ir-dynamite.svg"
   inkscape:version="1.2.2 (b0a8486541, 2022-12-01)"
   width="38"
   height="38"
   xmlns:inkscape="http://www.inkscape.org/namespaces/inkscape"
   xmlns:sodipodi="http://sodipodi.sourceforge.net/DTD/sodipodi-0.dtd"
   xmlns="http://www.w3.org/2000/svg"
   xmlns:svg="http://www.w3.org/2000/svg">
  <sodipodi:namedview
     id="namedview17"
     pagecolor="#ffffff"
     bordercolor="#666666"
     borderopacity="1.0"
     inkscape:pageshadow="2"
     inkscape:pageopacity="0.0"
     inkscape:pagecheckerboard="0"
     showgrid="false"
     inkscape:zoom="7.148706"
     inkscape:cx="-13.708775"
     inkscape:cy="8.4630701"
     inkscape:window-width="1854"
     inkscape:window-height="1011"
     inkscape:window-x="0"
     inkscape:window-y="0"
     inkscape:window-maximized="1"
     inkscape:current-layer="svg15"
     fit-margin-left="3"
     lock-margins="true"
     fit-margin-top="3"
     fit-margin-right="3"
     fit-margin-bottom="3"
     inkscape:showpageshadow="2"
     inkscape:deskcolor="#d1d1d1" />
  <defs
     id="defs7">
    <style
       id="style2">.cls-1{fill:none;}.cls-2{clip-path:url(#clip-path);}</style>
    <clipPath
       id="clip-path"
       transform="translate(0 0)">
      <rect
         class="cls-1"
         width="31.75"
         height="30.530001"
         id="rect4"
         x="0"
         y="0" />
    </clipPath>
  </defs>
  <path
     style="fill:#d9d9d9;fill-opacity:1;stroke-width:0.210498"
     d="m 12.013887,31.612823 c -1.230874,-0.47336 -3.0220144,-1.944683 -3.0220144,-2.482415 0,-0.297217 5.0697594,-9.911728 7.1123644,-13.488196 l 0.578088,-1.012195 0.79761,0.80725 c 0.910054,0.921049 2.601298,1.814271 3.863623,2.04055 l 0.86051,0.154253 -3.756201,6.914981 c -2.06591,3.80324 -3.866208,7.047528 -4.000657,7.209531 -0.332828,0.40103 -1.140843,0.353295 -2.433323,-0.143759 z m 8.765832,-14.699035 c -1.439746,-0.45268 -2.873548,-1.442553 -3.482869,-2.404517 -0.321218,-0.507124 -0.333084,-0.626875 -0.07894,-0.796706 0.334586,-0.223589 1.719081,-0.07447 2.326424,0.250572 0.355465,0.19024 0.366464,0.270114 0.107761,0.782661 -0.579421,1.147989 0.17971,1.531497 0.870835,0.439938 l 0.41605,-0.657107 0.880548,0.880547 c 0.493769,0.49377 0.850988,1.036667 0.813254,1.235973 -0.07582,0.400485 -1.005217,0.535219 -1.853068,0.268639 z m -1.052486,-1.661225 c 0,-0.589917 2.483925,-3.759384 3.579984,-4.568032 1.353817,-0.9988153 1.263819,-0.519869 -0.155458,0.82731 -0.78364,0.743833 -1.803697,1.925268 -2.266791,2.625411 -0.775835,1.172969 -1.157735,1.540875 -1.157735,1.115311 z m 7.106346,-4.011527 c -0.602673,-0.718878 -0.74305,-0.715332 -1.581944,0.03996 l -0.474769,0.427454 0.135005,-0.985011 0.135005,-0.9850113 -0.923227,-0.0085 -0.923224,-0.0085 0.724317,-0.619203 0.724316,-0.6192035 -0.429881,-0.4773526 C 23.43242,7.1319001 23.457342,7.0470404 24.467246,7.1608713 l 0.943413,0.1063365 0.0057,-0.921989 0.0057,-0.9219888 0.609923,0.7357505 0.609925,0.7357505 0.50309,-0.472629 c 0.69625,-0.6540907 0.834706,-0.596021 0.755208,0.3167357 L 27.831455,7.5282024 28.778692,7.6334512 29.72593,7.7387 29.041813,8.2266524 c -0.376264,0.2683738 -0.684116,0.5689585 -0.684116,0.6679657 0,0.099008 0.235297,0.4596466 0.522879,0.8014196 l 0.5229,0.6214063 -0.930505,-0.104878 -0.930506,-0.104878 -0.06599,0.910687 -0.06599,0.910689 z m 0.471555,-1.015104 c 0,-0.4888523 0.06045,-0.5280443 0.636632,-0.4128073 0.578186,0.11563 0.616732,0.09014 0.419863,-0.27771 -0.119224,-0.22277 -0.310276,-0.4628272 -0.424561,-0.5334592 -0.11428,-0.070632 0.05199,-0.3570855 0.369502,-0.6365629 l 0.577293,-0.5081409 -0.708007,-0.00666 c -0.665844,-0.00625 -0.702488,-0.044258 -0.615323,-0.6381439 0.10648,-0.7254893 0.03247,-0.7667591 -0.504151,-0.2811254 -0.3633,0.3287818 -0.419436,0.3200373 -0.911189,-0.1419412 L 25.621156,6.2970819 v 0.6944964 c 0,0.6593976 -0.03192,0.6881136 -0.631491,0.5681982 -0.723596,-0.144719 -0.78287,-0.021497 -0.264952,0.550797 0.350108,0.3868638 0.345389,0.4221528 -0.105241,0.7870561 -0.625613,0.5065911 -0.595302,0.6302951 0.154439,0.6302951 0.593319,0 0.619092,0.0357 0.490392,0.6791943 l -0.135841,0.679192 0.602782,-0.394959 c 0.593488,-0.388869 0.607836,-0.388337 0.930465,0.03447 0.402566,0.52756 0.643429,0.415297 0.643429,-0.29989 z"
     id="path1399" />
</svg>
