<?xml version="1.0" encoding="UTF-8" standalone="no"?>
<svg
   version="1.0"
   width="100mm"
   height="100mm"
   viewBox="0 0 283.46456 283.46457"
   preserveAspectRatio="xMidYMid meet"
   id="svg30"
   sodipodi:docname="jotl-demolitionist.svg"
   inkscape:version="1.1.2 (0a00cf5339, 2022-02-04)"
   xmlns:inkscape="http://www.inkscape.org/namespaces/inkscape"
   xmlns:sodipodi="http://sodipodi.sourceforge.net/DTD/sodipodi-0.dtd"
   xmlns="http://www.w3.org/2000/svg"
   xmlns:svg="http://www.w3.org/2000/svg">
  <defs
     id="defs34" />
  <sodipodi:namedview
     id="namedview32"
     pagecolor="#ffffff"
     bordercolor="#666666"
     borderopacity="1.0"
     inkscape:pageshadow="2"
     inkscape:pageopacity="0.0"
     inkscape:pagecheckerboard="0"
     inkscape:document-units="pt"
     showgrid="false"
     units="mm"
     width="100mm"
     inkscape:zoom="1.6373874"
     inkscape:cx="263.52957"
     inkscape:cy="219.86245"
     inkscape:window-width="1850"
     inkscape:window-height="1043"
     inkscape:window-x="0"
     inkscape:window-y="0"
     inkscape:window-maximized="1"
     inkscape:current-layer="svg30" />
  <metadata
     id="metadata2">
Created by potrace 1.16, written by Peter Selinger 2001-2019
</metadata>
  <g
     transform="matrix(0.08199988,0,0,-0.08199988,44.194383,278.27333)"
     fill="#000000"
     stroke="none"
     id="g28"
     style="fill:#e5a26f;fill-opacity:1">
    <path
       d="m 1426,3315 c -8,-21 -8,-118 0,-139 8,-22 41,-20 53,3 7,13 5,37 -7,81 -17,64 -34,84 -46,55 z"
       id="path4"
       style="fill:#e5a26f;fill-opacity:1" />
    <path
       d="m 1627,3212 c -49,-50 -58,-76 -31,-86 24,-9 43,6 79,65 53,84 26,96 -48,21 z"
       id="path6"
       style="fill:#e5a26f;fill-opacity:1" />
    <path
       d="m 1420,3071 c -35,-11 -69,-33 -75,-49 -3,-7 5,-32 17,-55 11,-23 24,-53 27,-65 l 7,-24 24,20 c 23,19 25,27 25,101 0,45 0,81 0,80 0,0 -11,-4 -25,-8 z"
       id="path8"
       style="fill:#e5a26f;fill-opacity:1" />
    <path
       d="m 1483,3058 c -5,-8 -7,-39 -3,-73 l 6,-60 22,45 c 28,58 29,100 3,100 -10,0 -23,-6 -28,-12 z"
       id="path10"
       style="fill:#e5a26f;fill-opacity:1" />
    <path
       d="m 1650,3037 c -30,-15 -34,-51 -5,-55 34,-4 140,33 140,49 0,19 -101,24 -135,6 z"
       id="path12"
       style="fill:#e5a26f;fill-opacity:1" />
    <path
       d="m 1273,3006 c -50,-42 -49,-60 13,-121 53,-54 54,-54 69,-32 22,31 19,55 -11,94 -14,19 -29,46 -33,60 l -7,25 z"
       id="path14"
       style="fill:#e5a26f;fill-opacity:1" />
    <path
       d="m 1177,2927 c -27,-42 -31,-76 -12,-97 10,-11 23,-20 30,-20 6,0 33,-11 58,-24 51,-25 57,-24 57,10 0,38 -11,53 -57,85 -24,17 -48,40 -52,51 -7,19 -8,19 -24,-5 z"
       id="path16"
       style="fill:#e5a26f;fill-opacity:1" />
    <path
       d="m 1560,2884 c -11,-12 -11,-17 1,-28 26,-25 126,-64 140,-55 15,9 15,10 -49,63 -48,39 -72,45 -92,20 z"
       id="path18"
       style="fill:#e5a26f;fill-opacity:1" />
    <path
       d="m 1105,2808 c -10,-31 -8,-89 3,-100 6,-6 35,-10 66,-9 30,0 67,-4 81,-9 34,-13 42,7 21,48 -13,25 -25,32 -72,42 -31,7 -64,20 -74,30 -19,19 -19,18 -25,-2 z"
       id="path20"
       style="fill:#e5a26f;fill-opacity:1" />
    <path
       d="m 1090,2653 c 0,-24 42,-36 107,-30 70,5 83,11 64,30 -17,17 -171,17 -171,0 z"
       id="path22"
       style="fill:#e5a26f;fill-opacity:1" />
    <path
       d="m 1025,2549 c -74,-11 -113,-26 -125,-50 -6,-10 -10,-50 -10,-89 v -72 l 28,6 c 171,35 373,35 545,0 l 27,-6 v 70 c 0,85 -5,99 -39,117 -61,31 -288,44 -426,24 z"
       id="path24"
       style="fill:#e5a26f;fill-opacity:1" />
    <path
       d="M 985,2284 C 608,2216 295,1990 128,1663 36,1485 5,1350 6,1140 7,1008 11,971 33,887 114,579 298,334 565,175 1190,-197 2004,55 2286,709 c 19,44 47,124 61,178 23,86 26,118 26,258 0,113 -5,181 -16,231 -109,478 -479,824 -971,909 -109,18 -294,18 -401,-1 z m -44,-585 c 22,-11 86,-65 144,-121 l 105,-101 105,101 c 135,130 181,154 296,154 94,-1 144,-26 245,-124 115,-111 139,-157 138,-273 0,-132 1,-132 -403,-538 -283,-284 -361,-357 -381,-357 -20,0 -98,73 -381,358 -390,391 -398,402 -406,521 -8,105 20,166 125,273 47,49 105,97 129,109 84,41 202,40 284,-2 z"
       id="path26"
       style="fill:#e5a26f;fill-opacity:1" />
  </g>
</svg>
