<?xml version="1.0" encoding="UTF-8" standalone="no"?>
<svg
   version="1.0"
   width="100mm"
   height="100mm"
   viewBox="0 0 283.46456 283.46458"
   preserveAspectRatio="xMidYMid meet"
   id="svg18"
   sodipodi:docname="jotl-red-guard.svg"
   inkscape:version="1.1.2 (0a00cf5339, 2022-02-04)"
   xmlns:inkscape="http://www.inkscape.org/namespaces/inkscape"
   xmlns:sodipodi="http://sodipodi.sourceforge.net/DTD/sodipodi-0.dtd"
   xmlns="http://www.w3.org/2000/svg"
   xmlns:svg="http://www.w3.org/2000/svg">
  <defs
     id="defs22" />
  <sodipodi:namedview
     id="namedview20"
     pagecolor="#ffffff"
     bordercolor="#666666"
     borderopacity="1.0"
     inkscape:pageshadow="2"
     inkscape:pageopacity="0.0"
     inkscape:pagecheckerboard="0"
     inkscape:document-units="pt"
     showgrid="false"
     units="mm"
     width="100mm"
     inkscape:zoom="1.6674312"
     inkscape:cx="167.62311"
     inkscape:cy="218.29986"
     inkscape:window-width="1850"
     inkscape:window-height="1043"
     inkscape:window-x="0"
     inkscape:window-y="0"
     inkscape:window-maximized="1"
     inkscape:current-layer="svg18" />
  <metadata
     id="metadata2">
Created by potrace 1.16, written by Peter Selinger 2001-2019
</metadata>
  <g
     transform="matrix(0.08099998,0,0,-0.08099998,29.803721,274.16725)"
     fill="#000000"
     stroke="none"
     id="g16"
     style="fill:#d8585d;fill-opacity:1">
    <path
       d="m 1009,3251 c -13,-10 -32,-41 -42,-69 -18,-49 -34,-62 -80,-62 -10,0 -29,13 -43,29 -28,34 -73,47 -104,31 -45,-24 -255,-192 -267,-213 -16,-29 -16,-46 2,-81 23,-44 6,-58 -65,-50 -88,10 -101,-7 -145,-183 -19,-78 -35,-157 -35,-176 0,-40 30,-75 71,-84 27,-5 29,-9 29,-47 0,-38 -3,-44 -32,-57 -52,-23 -64,-54 -48,-128 l 13,-63 41,49 c 22,26 67,76 99,110 34,36 54,64 48,68 -16,9 -14,45 2,45 32,0 55,49 91,192 20,81 36,158 36,171 0,20 4,23 29,19 37,-5 51,3 185,106 123,95 135,107 136,140 0,26 3,27 33,8 12,-8 87,-38 166,-66 140,-50 159,-53 219,-35 20,7 22,4 22,-25 0,-19 15,-60 35,-97 l 36,-63 h 50 51 l -21,36 c -12,20 -21,37 -19,38 2,1 15,7 30,14 32,13 46,55 28,77 -7,9 -10,18 -7,21 7,8 48,-49 92,-129 26,-48 44,-68 61,-72 13,-3 35,-7 49,-10 18,-4 25,-1 25,9 0,18 -135,252 -162,282 -27,31 -60,34 -109,13 -52,-24 -58,-24 -85,2 -19,18 -22,28 -17,68 8,70 -8,83 -182,146 -82,30 -160,55 -171,55 -12,0 -32,-8 -45,-19 z m 155,-106 c 39,-14 77,-28 85,-31 11,-3 9,-9 -7,-25 -26,-24 -28,-46 -5,-78 12,-18 13,-22 2,-18 -8,3 -44,16 -81,28 l -66,22 24,19 c 39,31 26,82 -26,101 -8,3 -11,6 -6,6 5,1 41,-10 80,-24 z m -431,-98 c -5,-27 21,-54 57,-59 22,-3 18,-8 -43,-55 -73,-58 -83,-63 -67,-32 15,27 -10,66 -45,71 -24,3 -21,7 37,51 34,26 63,47 64,47 1,0 -1,-10 -3,-23 z M 416,2650 c 11,0 30,8 43,17 24,16 24,16 18,-8 -4,-13 -12,-48 -18,-76 -13,-56 -19,-62 -39,-38 -20,24 -56,18 -81,-12 -16,-22 -20,-23 -16,-8 4,11 14,51 23,88 15,63 18,67 34,52 9,-8 25,-15 36,-15 z"
       id="path4"
       style="fill:#d8585d;fill-opacity:1" />
    <path
       d="m 1580,2735 c -10,-12 -9,-15 6,-15 11,0 30,-3 43,-7 21,-5 22,-4 12,16 -14,24 -43,28 -61,6 z"
       id="path6"
       style="fill:#d8585d;fill-opacity:1" />
    <path
       d="M 1297,2639 C 795,2566 370,2239 115,1730 48,1596 -1,1480 6,1469 c 3,-5 26,7 52,27 26,19 48,31 50,26 1,-5 -11,-60 -27,-124 -32,-123 -67,-336 -57,-346 4,-3 28,19 55,49 l 48,54 6,-175 c 6,-177 13,-230 27,-230 5,0 12,10 15,23 4,12 18,41 32,65 l 24,43 48,-73 c 84,-126 248,-298 285,-298 8,0 25,24 39,53 15,28 45,72 69,96 43,44 146,101 183,101 11,0 27,5 35,10 13,8 13,12 1,32 -97,152 -138,242 -173,372 -19,68 -22,108 -23,246 0,150 2,174 28,264 88,315 307,589 584,729 132,67 330,128 513,158 l 75,12 -55,19 c -129,44 -379,61 -543,37 z"
       id="path8"
       style="fill:#d8585d;fill-opacity:1" />
    <path
       d="m 1720,2484 c -36,-8 -89,-21 -118,-30 l -54,-15 7,-137 c 3,-75 11,-152 16,-169 12,-37 43,-63 75,-63 23,0 43,-42 23,-48 -5,-2 -23,-15 -39,-29 -47,-39 -41,-73 37,-226 37,-73 77,-142 90,-154 24,-25 62,-29 95,-12 17,9 24,8 34,-6 11,-15 11,-21 -1,-39 -16,-21 -19,-63 -9,-90 3,-9 60,-65 127,-126 108,-99 124,-110 157,-110 22,0 48,8 63,21 21,15 31,18 46,10 15,-9 18,-18 14,-48 -4,-28 0,-45 15,-63 24,-31 290,-170 325,-170 35,0 60,25 101,104 42,80 44,106 14,140 -30,32 -287,166 -320,166 -14,0 -37,-9 -52,-21 -29,-23 -50,-17 -41,11 13,40 -9,71 -127,177 -128,116 -156,132 -194,114 -23,-10 -35,1 -14,14 6,3 10,23 10,43 0,27 -22,77 -78,181 -69,129 -81,146 -112,157 -19,7 -28,13 -19,13 24,1 61,46 62,78 4,60 -15,308 -24,325 -11,21 -21,21 -109,2 z m 40,-171 c 0,-38 3,-79 6,-93 5,-22 3,-21 -15,8 -23,35 -59,43 -84,17 -13,-12 -15,-10 -21,17 -3,17 -6,48 -6,69 0,38 0,38 26,24 20,-10 32,-11 50,-3 13,6 24,15 24,20 0,4 5,8 10,8 6,0 10,-29 10,-67 z m 120,-515 c 0,-3 -9,-4 -19,-1 -44,11 -82,-37 -61,-77 6,-11 8,-20 5,-20 -2,0 -23,35 -44,78 -40,79 -40,79 -15,74 32,-6 64,23 64,57 1,21 8,13 35,-39 19,-36 34,-68 35,-72 z m 260,-308 c 58,-54 70,-69 54,-70 -33,0 -58,-34 -49,-67 l 7,-28 -29,25 c -15,13 -42,38 -60,54 l -32,29 25,19 c 28,22 31,54 8,86 -28,40 0,23 76,-48 z m 509,-314 c 11,-13 11,-22 1,-46 -22,-54 -41,-55 -127,-11 -50,26 -70,40 -56,41 33,0 56,40 44,74 l -11,26 68,-34 c 38,-19 74,-41 81,-50 z"
       id="path10"
       style="fill:#d8585d;fill-opacity:1" />
    <path
       d="m 771,1587 c -6,-35 -11,-83 -11,-107 0,-42 1,-43 19,-26 14,13 28,16 50,11 26,-6 31,-11 31,-36 0,-31 38,-79 62,-79 7,0 69,-7 138,-15 176,-21 196,-20 226,10 26,27 68,27 58,1 -12,-32 26,-79 144,-175 114,-93 135,-106 168,-102 23,3 25,-32 3,-55 -12,-13 -22,-36 -22,-51 0,-29 97,-301 114,-317 17,-18 9,-26 -24,-26 -21,0 -41,-8 -51,-19 -10,-11 -44,-85 -75,-165 -32,-81 -61,-150 -64,-153 -4,-3 -75,19 -160,48 l -154,53 -40,-18 -41,-18 -78,46 c -87,51 -112,56 -139,26 -33,-36 -11,-66 90,-124 l 90,-52 -3,-46 c -5,-71 17,-88 191,-147 82,-28 157,-51 166,-51 35,0 69,39 90,103 29,86 43,93 125,62 76,-29 117,-21 141,24 31,60 115,289 115,313 0,15 -12,38 -31,56 -42,41 -35,60 28,84 54,20 93,57 93,88 0,31 -111,314 -131,335 -14,14 -32,20 -63,19 -37,-1 -46,3 -55,23 -16,34 -14,41 14,75 28,33 32,73 10,105 -17,25 -219,194 -252,212 -34,18 -60,13 -95,-18 -33,-28 -34,-28 -81,-14 -42,12 -47,16 -41,37 7,31 -20,84 -49,95 -12,5 -93,16 -180,26 -148,16 -160,16 -184,0 -14,-9 -28,-26 -30,-36 -7,-24 -40,-25 -47,-1 -4,11 -17,29 -30,41 l -24,22 z m 342,-53 c 54,-6 57,-7 37,-21 -25,-17 -26,-59 -2,-86 17,-19 16,-19 -13,-14 -16,3 -58,9 -93,13 -59,6 -62,7 -48,23 21,23 20,60 -1,84 -18,19 -17,19 22,14 22,-4 66,-9 98,-13 z m 491,-193 c 68,-56 118,-105 88,-87 -24,14 -63,-3 -76,-35 l -13,-30 -76,63 -76,63 29,8 c 32,8 55,40 46,63 -9,23 2,17 78,-45 z m 278,-475 19,-49 -22,6 c -30,8 -58,-8 -70,-41 -11,-27 -11,-27 -30,23 -33,86 -34,92 -16,77 26,-22 60,-10 77,25 8,17 17,26 19,20 2,-7 12,-34 23,-61 z M 1724,486 c -14,-38 38,-76 76,-56 24,13 24,13 4,-36 -9,-22 -21,-50 -26,-64 l -9,-24 -13,24 c -10,21 -19,25 -53,24 l -41,-1 20,51 c 11,28 24,61 29,74 5,12 11,22 13,22 3,0 3,-6 0,-14 z M 1346,250 c 32,-11 65,-23 73,-25 11,-4 9,-10 -7,-26 -27,-24 -28,-55 -4,-82 16,-20 16,-20 -3,-13 -11,5 -51,19 -90,32 -38,13 -77,27 -85,30 -11,4 -5,10 18,19 30,13 37,26 33,68 -3,21 -6,21 65,-3 z"
       id="path12"
       style="fill:#d8585d;fill-opacity:1" />
    <path
       d="M 779,662 C 558,547 621,215 869,193 c 59,-6 116,7 159,35 23,15 23,15 -43,54 -38,22 -80,38 -98,38 -135,2 -160,197 -30,238 37,12 46,11 86,-6 35,-15 49,-29 63,-61 14,-32 31,-49 72,-73 29,-16 56,-27 60,-23 4,4 6,31 6,60 -5,179 -203,292 -365,207 z"
       id="path14"
       style="fill:#d8585d;fill-opacity:1" />
  </g>
</svg>
