<?xml version="1.0" encoding="UTF-8" standalone="no"?>
<!-- Generator: Adobe Illustrator 27.0.1, SVG Export Plug-In . SVG Version: 6.00 Build 0)  -->

<svg
   version="1.1"
   id="Layer_1"
   x="0px"
   y="0px"
   viewBox="0 0 600 600"
   style="enable-background:new 0 0 600 600;"
   xml:space="preserve"
   sodipodi:docname="toa-envv.svg"
   inkscape:version="1.1.2 (0a00cf5339, 2022-02-04)"
   xmlns:inkscape="http://www.inkscape.org/namespaces/inkscape"
   xmlns:sodipodi="http://sodipodi.sourceforge.net/DTD/sodipodi-0.dtd"
   xmlns:xlink="http://www.w3.org/1999/xlink"
   xmlns="http://www.w3.org/2000/svg"
   xmlns:svg="http://www.w3.org/2000/svg"><defs
   id="defs11"><linearGradient
     inkscape:collect="always"
     id="linearGradient1115"><stop
       style="stop-color:#d3423e;stop-opacity:1"
       offset="0"
       id="stop1111" /><stop
       style="stop-color:#e4e4e4;stop-opacity:1"
       offset="1"
       id="stop1113" /></linearGradient><linearGradient
     inkscape:collect="always"
     xlink:href="#linearGradient1115"
     id="linearGradient1654"
     x1="114.247"
     y1="200.13084"
     x2="224.22687"
     y2="386.6178"
     gradientUnits="userSpaceOnUse" /><linearGradient
     inkscape:collect="always"
     xlink:href="#linearGradient1115"
     id="linearGradient2462"
     gradientUnits="userSpaceOnUse"
     x1="512.58289"
     y1="180.26195"
     x2="378.55161"
     y2="325.95511" /></defs><sodipodi:namedview
   id="namedview9"
   pagecolor="#ffffff"
   bordercolor="#666666"
   borderopacity="1.0"
   inkscape:pageshadow="2"
   inkscape:pageopacity="0.0"
   inkscape:pagecheckerboard="0"
   showgrid="false"
   inkscape:zoom="1.3033333"
   inkscape:cx="300.38363"
   inkscape:cy="300.38363"
   inkscape:window-width="1846"
   inkscape:window-height="1016"
   inkscape:window-x="0"
   inkscape:window-y="0"
   inkscape:window-maximized="1"
   inkscape:current-layer="Layer_1" />
<style
   type="text/css"
   id="style2">
	.st0{fill:#231F20;}
</style>
<path
   class="st0"
   d="M545.6,87.5c-0.1,4.7-0.3,9.5-0.6,14.4c0,0,0,0.1,0,0.1c-1.8,32.6-6.8,68.2-14.9,100.3  c-3.7,14.7-8.1,28.7-13.1,41.3c0,0,0,0,0,0c-2.8-7.6-7.2-21.1-9.4-26.8c0,0,0,0,0-0.1c-0.1-0.4-0.3-0.7-0.4-1  c-0.1,0.6-0.1,1.1-0.2,1.7c-0.2,1.2-0.3,2.4-0.6,3.6c-0.2,1.3-0.5,2.6-0.8,4c-0.1,0.7-0.3,1.4-0.5,2c-0.6,2.7-1.4,5.5-2.2,8.5  c-11.5,40.3-42.2,101-56.7,118.1c-0.1-0.8-0.3-1.8-0.4-2.7c-0.1-0.6-0.2-1.2-0.3-1.9c0-0.1,0-0.2,0-0.3c-1.1-6.8-2.8-16.2-5.3-22  c-0.2-0.5-0.4-1-0.7-1.4c-0.1-0.3-0.3-0.5-0.4-0.8c-4.5,31.8-20.3,50.2-25.2,55.2c-9.6,9.1-19.7,17.9-30.3,26.2  c5.9,12,11.8,24,17.7,36c-17.9,7-34.1,16.6-48.1,28.2l-36.1-79.9l-5-11.1c3.1-6.9,6-13.1,8.3-18.3c16.1-10,31.6-21.7,46.6-34.6  c39.1-33.9,73.9-76.2,102-117.9c44.8-66.5,72.5-131.5,73.6-158.4c0,0,0,0.1,0,0.1c1.4,7,2.3,14.8,2.7,22.7c0,0.7,0.1,1.4,0.1,2.1  c0,1.4,0.1,2.8,0.1,4.2C545.7,81.9,545.7,84.7,545.6,87.5z"
   id="path4"
   style="fill-opacity:1;fill:url(#linearGradient2462)" />
<path
   class="st0"
   d="M339.7,493.5c-10.1,13-20.3,26.1-30.5,39.1c-3.1,4-6.2,7.9-9.2,11.8c-1.4,1.9-2.9,3.7-4.3,5.5  c-1.2-5.9-2.9-11.7-4.9-17.4c-6-16.8-15.4-32.2-27.5-45.8c-16.9-19.1-39.2-34.5-64.8-44.6c0,0,0-0.1,0.1-0.2  c5.9-11.9,11.8-23.9,17.7-36c-10.6-8.3-20.7-17.1-30.3-26.2c-4.9-5-20.7-23.3-25.2-55.2c-3.9,6.8-6,22-7.1,29.1  C136.5,333.5,96.6,252,92.8,215.8c-2,4.9-6.9,19.8-9.8,27.9C65.3,199.4,55.8,138.3,54.4,87.5c-0.2-12.5,0.6-26,2.9-37.4  c0,0,0-0.1,0-0.1c2.1,50.3,96.8,233.1,222.1,310.9c5.1,11.2,12.5,27.6,20.5,45.2c13.3,29.2,28.1,61.8,36.7,80.7  C337.8,489.3,338.8,491.6,339.7,493.5z"
   id="path6"
   style="fill-opacity:1;fill:url(#linearGradient1654)" />
</svg>
