<?xml version="1.0" encoding="UTF-8" standalone="no"?>
<!-- Generator: Adobe Illustrator 27.0.1, SVG Export Plug-In . SVG Version: 6.00 Build 0)  -->

<svg
   version="1.1"
   id="Layer_1"
   x="0px"
   y="0px"
   viewBox="0 0 600 600"
   style="enable-background:new 0 0 600 600;"
   xml:space="preserve"
   sodipodi:docname="toa-spiked-ring.svg"
   inkscape:version="1.1.2 (0a00cf5339, 2022-02-04)"
   xmlns:inkscape="http://www.inkscape.org/namespaces/inkscape"
   xmlns:sodipodi="http://sodipodi.sourceforge.net/DTD/sodipodi-0.dtd"
   xmlns="http://www.w3.org/2000/svg"
   xmlns:svg="http://www.w3.org/2000/svg"><defs
   id="defs9" /><sodipodi:namedview
   id="namedview7"
   pagecolor="#ffffff"
   bordercolor="#666666"
   borderopacity="1.0"
   inkscape:pageshadow="2"
   inkscape:pageopacity="0.0"
   inkscape:pagecheckerboard="0"
   showgrid="false"
   inkscape:zoom="1.3033333"
   inkscape:cx="300.38363"
   inkscape:cy="300"
   inkscape:window-width="1846"
   inkscape:window-height="1043"
   inkscape:window-x="0"
   inkscape:window-y="0"
   inkscape:window-maximized="1"
   inkscape:current-layer="Layer_1" />
<style
   type="text/css"
   id="style2">
	.st0{fill:#231F20;}
</style>
<path
   class="st0"
   d="M201.6,505.5c2.7-18-5.2-29.4-16.3-38.8c-2.4-2-5.4-3.2-8.2-4.7c-19.4-10.6-32.6-27.4-42.8-47  c-8.3-16-13.6-33.2-16-51.7c-10.3,26.2-7.8,50.7,2.5,74.4c-11.9-10.2-20.1-23.1-24.5-38.6c-3.7-12.9-4.5-26.4-2.4-40.2  c0.7-4.4-0.5-6.1-4-7.8c-12.8-6.1-24.5-13.8-33.3-25.3c-1.7-2.2-3-4.8-5-8c2.6,0.3,4.1,0.4,5.7,0.6c16.6,1.8,33-0.3,49-8  c2.1-1,4.2-3.2,5.4-5.3c10.2-18.4,22.2-35.5,36.5-51c2.5-2.7,3.1-4.5,1.2-7.8c-7.4-12.9-13.5-26.6-16.7-41.7  c-1-4.6-1.2-9.4-0.9-14.5c2.9,2.8,5.7,5.9,8.9,8.4c13.7,10.5,29.7,15.4,47.3,16c1.5,0,3.3-0.4,4.6-1.2c38.9-23.2,80-37.4,123.4-41.5  c0.6-0.1,1.2,0.4,1.6,0c-6.2-5.6-21.4-9-39.7-9.5c2.7-26.4,13.5-49.5,30.3-70.6c2.2,19.5,3.4,39,11.1,56.5  c11.1-2.3,21.8-5.1,32.6-6.5c13.1-1.7,26.3-2.4,39.5-3.4c2.5-0.2,4-0.9,5.6-3.1c6.6-9.7,9.8-19.9,8.6-31.9c2.6,2.2,5.4,4.3,7.8,6.7  c8.2,8.1,14.5,17.6,18,29c0.9,2.8,2.2,3.9,4.9,4.6c21.9,5.7,41.2,15.7,55.5,33.6c3,3.8,4.8,9.5,8.6,11.7c3.9,2.3,9.7,1.2,14.6,2  c12.9,2.1,25.1,5.9,36.8,13.4c-1.9,0.3-2.9,0.6-4,0.6c-12.8,0.9-24.6,5.6-35.2,13.9c-1.4,1.1-2.8,3.6-2.7,5.2  c1.6,26.1-5.7,50.6-18.1,74.2c-4.8,9.2-10.6,17.9-16.2,26.6c-1.6,2.5-1.6,4.1-0.3,6.5c6.1,12,9.8,25,11.1,38.8  c0.3,3.6,0.2,7.2,0.2,11c-4.8-4-8.9-8.1-13.6-11.5c-7.3-5.2-15.8-7.6-25-7.5c-2.1,0-4.8,1.1-6.3,2.6c-14.9,14.7-31.1,27.7-48,39.6  c-1.9,1.3-3.6,3.5-4.5,5.7c-5.5,12.5-5.8,25.3-4.8,38.1c0.6,7.4,1.9,14.7,2.9,22c0.2,1.3,0.8,2.5,1.2,3.7c-0.6,0.3-1.1,0.6-1.7,0.9  c-4.9-4.9-10.1-9.5-14.5-14.9c-6.8-8.2-13.2-16.8-19.3-25.6c-2.1-3-3.7-3.6-7.4-1.8c-35.3,17.5-71.9,29.4-110,33.1  c-6.3,0.6-9.4,2.3-11.9,8.9C219.1,486.2,211.7,496.3,201.6,505.5z M448.6,277.9c10.3-15.8,17.3-32.2,18.8-50.5  c0.4-0.2,0.8-0.3,1.2-0.5c6.4,7.6,12.8,15.2,19.4,23.1c-1.5-25.5-11.2-45.8-30.5-60.1c-20.7-15.4-45.3-19.3-71.2-18.2  c-37.3,1.5-73,13.2-107.7,29.6c-3.1,1.5-4.8,3.4-5.9,6.7c-5.8,17.6-6,34.9-2.3,52.1c0.3,1.3,0.5,2.6,0.9,4.8  c-18.1-7.6-28.1-22.3-38-37.4c-0.9,0.5-1.6,0.8-2.2,1.3c-25.1,17.1-48,36.8-67,61.2c-12.6,16.2-23,33.6-26.7,53.9  c-1.1,6-1.1,12.1-1.6,18.5c17.2-5.4,33.3-9.8,49.7-5.7c-5.8,5.4-11.5,9.9-16.3,15.2c-4.9,5.3-8.9,11.3-13.5,17  c-2.9,3.6-2.3,6.1,1.4,7.8c6,2.8,11.7,6.2,18,8.2c24.6,7.8,50.3,5.6,76.2,0.6c5.4-1.1,10.8-2,16-3c0-21.6-2-41.9,7.8-62.2  c0.7,0.9,0.9,1.1,1,1.4c4.2,19.3,15.3,33,31,43c1.7,1.1,4.9,1.2,6.8,0.3c37.4-16.6,71.9-38.6,102.2-67.7c2.6-2.5,3.8-5,2.7-8.1  c-2.7-7.8-5-15.8-8.5-23.1c-4.4-9-11.1-16.1-19-22.2C412.4,261.6,430.2,269.9,448.6,277.9z"
   id="path4"
   style="fill:#fbff96;fill-opacity:1" />
</svg>
