<?xml version="1.0" encoding="UTF-8" standalone="no"?>
<!-- Created with Inkscape (http://www.inkscape.org/) -->

<svg
   width="83.284103mm"
   height="81.550583mm"
   viewBox="0 0 83.284106 81.550582"
   version="1.1"
   id="svg5"
   sodipodi:docname="escort.svg"
   inkscape:version="1.1.2 (0a00cf5339, 2022-02-04)"
   xmlns:inkscape="http://www.inkscape.org/namespaces/inkscape"
   xmlns:sodipodi="http://sodipodi.sourceforge.net/DTD/sodipodi-0.dtd"
   xmlns="http://www.w3.org/2000/svg"
   xmlns:svg="http://www.w3.org/2000/svg">
  <sodipodi:namedview
     id="namedview30"
     pagecolor="#ffffff"
     bordercolor="#666666"
     borderopacity="1.0"
     inkscape:pageshadow="2"
     inkscape:pageopacity="0.0"
     inkscape:pagecheckerboard="0"
     inkscape:document-units="mm"
     showgrid="false"
     inkscape:zoom="1.7940196"
     inkscape:cx="171.40281"
     inkscape:cy="137.67966"
     inkscape:window-width="1850"
     inkscape:window-height="1043"
     inkscape:window-x="0"
     inkscape:window-y="0"
     inkscape:window-maximized="1"
     inkscape:current-layer="svg5" />
  <defs
     id="defs2">
    <clipPath
       clipPathUnits="userSpaceOnUse"
       id="clipPath1104">
      <path
         d="M 0,600 H 600 V 0 H 0 Z"
         id="path1102" />
    </clipPath>
    <clipPath
       clipPathUnits="userSpaceOnUse"
       id="clipPath1286">
      <path
         d="M 0,600 H 600 V 0 H 0 Z"
         id="path1284" />
    </clipPath>
    <clipPath
       clipPathUnits="userSpaceOnUse"
       id="clipPath1470">
      <path
         d="M 0,600 H 600 V 0 H 0 Z"
         id="path1468" />
    </clipPath>
    <clipPath
       clipPathUnits="userSpaceOnUse"
       id="clipPath1656">
      <path
         d="M 0,600 H 600 V 0 H 0 Z"
         id="path1654" />
    </clipPath>
    <clipPath
       clipPathUnits="userSpaceOnUse"
       id="clipPath1844">
      <path
         d="M 0,600 H 600 V 0 H 0 Z"
         id="path1842" />
    </clipPath>
    <clipPath
       clipPathUnits="userSpaceOnUse"
       id="clipPath2265">
      <path
         d="M 0,600 H 600 V 0 H 0 Z"
         id="path2263" />
    </clipPath>
    <clipPath
       clipPathUnits="userSpaceOnUse"
       id="clipPath2512">
      <path
         d="M 0,600 H 600 V 0 H 0 Z"
         id="path2510" />
    </clipPath>
    <clipPath
       clipPathUnits="userSpaceOnUse"
       id="clipPath2740">
      <path
         d="M 0,300 H 300 V 0 H 0 Z"
         id="path2738" />
    </clipPath>
    <clipPath
       clipPathUnits="userSpaceOnUse"
       id="clipPath2946">
      <path
         d="M 0,300 H 300 V 0 H 0 Z"
         id="path2944" />
    </clipPath>
    <clipPath
       clipPathUnits="userSpaceOnUse"
       id="clipPath3139">
      <path
         d="M 0,300 H 300 V 0 H 0 Z"
         id="path3137" />
    </clipPath>
    <clipPath
       clipPathUnits="userSpaceOnUse"
       id="clipPath3322">
      <path
         d="M 0,300 H 300 V 0 H 0 Z"
         id="path3320" />
    </clipPath>
    <clipPath
       clipPathUnits="userSpaceOnUse"
       id="clipPath3754">
      <path
         d="M 0,300 H 300 V 0 H 0 Z"
         id="path3752" />
    </clipPath>
  </defs>
  <g
     id="g2213"
     transform="matrix(0.79701342,0,0,0.79701342,7.5785513,8.7077007)">
    <g
       id="layer1"
       transform="translate(-172.92224,119.40352)"
       style="fill:#e2421f;fill-opacity:1">
      <path
         d="m 253.46651,-110.9753 c 0.17286,-0.68968 -0.23601,-1.39065 -0.9204,-1.58292 -9.85873,-2.76895 -31.11182,-3.46674 -37.98182,-6.8453 -6.86999,3.37856 -28.12309,4.07635 -37.98181,6.8453 -0.68439,0.19227 -1.09326,0.89324 -0.9204,1.58292 5.11845,20.409253 -4.70923,30.959778 -2.3749,45.791259 2.64689,16.819388 32.64711,19.416183 41.27711,27.331106 8.62965,-7.914923 38.63023,-10.511718 41.27712,-27.331106 2.33433,-14.831481 -7.49371,-25.382006 -2.3749,-45.791259"
         style="fill:#e2421f;fill-opacity:1;fill-rule:nonzero;stroke:none;stroke-width:0.352777"
         id="path3758" />
    </g>
    <path
       id="path1209"
       style="stroke-width:11.1696"
       d="m 157.43359,146.46094 c -10.82662,0 -25.56698,1.98354 -39.95507,5.91797 l 32.62695,72.26953 h 14.10547 l 32.67773,-72.38282 c -14.22947,-3.84435 -28.75352,-5.80468 -39.45508,-5.80468 z m 63.16016,14.42578 -26.52734,63.76172 h 52.72461 v -33.50782 c 0,-12.85011 -11.14484,-22.93751 -26.19727,-30.2539 z m -126.779297,0.2207 c -14.821019,7.29775 -25.738281,17.31304 -25.738281,30.0332 v 33.50782 H 120.25 Z"
       transform="scale(0.26458333)" />
    <path
       style="stroke-width:2.9553"
       d="m 41.65441,12.153581 c -6.53121,0 -11.821195,5.289983 -11.821195,11.821205 0,6.531211 5.289985,11.821195 11.821195,11.821195 6.531211,0 11.821195,-5.289984 11.821195,-11.821195 0,-6.531222 -5.289984,-11.821205 -11.821195,-11.821205 z"
       id="path1207" />
  </g>
</svg>
