<?xml version="1.0" encoding="UTF-8" standalone="no"?>
<!-- Created with Inkscape (http://www.inkscape.org/) -->

<svg
   width="204.15126mm"
   height="204.15073mm"
   viewBox="0 0 204.15127 204.15072"
   version="1.1"
   id="svg5"
   xmlns="http://www.w3.org/2000/svg"
   xmlns:svg="http://www.w3.org/2000/svg">
  <defs
     id="defs2">
    <clipPath
       clipPathUnits="userSpaceOnUse"
       id="clipPath1104">
      <path
         d="M 0,600 H 600 V 0 H 0 Z"
         id="path1102" />
    </clipPath>
    <clipPath
       clipPathUnits="userSpaceOnUse"
       id="clipPath1286">
      <path
         d="M 0,600 H 600 V 0 H 0 Z"
         id="path1284" />
    </clipPath>
    <clipPath
       clipPathUnits="userSpaceOnUse"
       id="clipPath1470">
      <path
         d="M 0,600 H 600 V 0 H 0 Z"
         id="path1468" />
    </clipPath>
    <clipPath
       clipPathUnits="userSpaceOnUse"
       id="clipPath1656">
      <path
         d="M 0,600 H 600 V 0 H 0 Z"
         id="path1654" />
    </clipPath>
    <clipPath
       clipPathUnits="userSpaceOnUse"
       id="clipPath1844">
      <path
         d="M 0,600 H 600 V 0 H 0 Z"
         id="path1842" />
    </clipPath>
    <clipPath
       clipPathUnits="userSpaceOnUse"
       id="clipPath2265">
      <path
         d="M 0,600 H 600 V 0 H 0 Z"
         id="path2263" />
    </clipPath>
    <clipPath
       clipPathUnits="userSpaceOnUse"
       id="clipPath2512">
      <path
         d="M 0,600 H 600 V 0 H 0 Z"
         id="path2510" />
    </clipPath>
    <clipPath
       clipPathUnits="userSpaceOnUse"
       id="clipPath2740">
      <path
         d="M 0,300 H 300 V 0 H 0 Z"
         id="path2738" />
    </clipPath>
    <clipPath
       clipPathUnits="userSpaceOnUse"
       id="clipPath2946">
      <path
         d="M 0,300 H 300 V 0 H 0 Z"
         id="path2944" />
    </clipPath>
    <clipPath
       clipPathUnits="userSpaceOnUse"
       id="clipPath3139">
      <path
         d="M 0,300 H 300 V 0 H 0 Z"
         id="path3137" />
    </clipPath>
    <clipPath
       clipPathUnits="userSpaceOnUse"
       id="clipPath3322">
      <path
         d="M 0,300 H 300 V 0 H 0 Z"
         id="path3320" />
    </clipPath>
    <clipPath
       clipPathUnits="userSpaceOnUse"
       id="clipPath3754">
      <path
         d="M 0,300 H 300 V 0 H 0 Z"
         id="path3752" />
    </clipPath>
    <clipPath
       clipPathUnits="userSpaceOnUse"
       id="clipPath3928">
      <path
         d="M 0,300 H 300 V 0 H 0 Z"
         id="path3926" />
    </clipPath>
    <clipPath
       clipPathUnits="userSpaceOnUse"
       id="clipPath4106">
      <path
         d="M 0,300 H 300 V 0 H 0 Z"
         id="path4104" />
    </clipPath>
    <clipPath
       clipPathUnits="userSpaceOnUse"
       id="clipPath4300">
      <path
         d="M 0,300 H 300 V 0 H 0 Z"
         id="path4298" />
    </clipPath>
    <clipPath
       clipPathUnits="userSpaceOnUse"
       id="clipPath4493">
      <path
         d="M 0,300 H 300 V 0 H 0 Z"
         id="path4491" />
    </clipPath>
    <clipPath
       clipPathUnits="userSpaceOnUse"
       id="clipPath4688">
      <path
         d="M 0,300 H 300 V 0 H 0 Z"
         id="path4686" />
    </clipPath>
    <clipPath
       clipPathUnits="userSpaceOnUse"
       id="clipPath4913">
      <path
         d="M 0,600 H 600 V 0 H 0 Z"
         id="path4911" />
    </clipPath>
  </defs>
  <g
     id="layer1"
     transform="translate(138.03788,185.77732)">
    <g
       id="g4909"
       clip-path="url(#clipPath4913)"
       transform="matrix(0.35277777,0,0,-0.35277777,-141.79558,22.131451)">
      <g
         id="g4915"
         transform="translate(300,15.6523)">
        <path
           d="m 0,0 c -3.921,0 -7.608,1.527 -10.381,4.3 l -269.667,269.666 c -5.724,5.724 -5.724,15.038 0,20.763 l 269.667,269.667 c 2.773,2.772 6.46,4.299 10.381,4.299 3.922,0 7.608,-1.527 10.382,-4.299 L 280.048,294.729 c 2.772,-2.773 4.3,-6.46 4.3,-10.381 0,-3.922 -1.528,-7.609 -4.3,-10.382 L 10.382,4.3 C 7.608,1.527 3.922,0 0,0"
           style="fill:#d1a016;fill-opacity:1;fill-rule:nonzero;stroke:none"
           id="path4917" />
      </g>
      <g
         id="g4919"
         transform="translate(300,589.3477)">
        <path
           d="m 0,0 c -5.037,0 -10.074,-1.921 -13.917,-5.764 l -269.666,-269.667 c -7.687,-7.686 -7.687,-20.147 0,-27.834 l 269.666,-269.666 c 3.843,-3.843 8.88,-5.764 13.917,-5.764 5.037,0 10.073,1.921 13.917,5.764 l 269.666,269.666 c 7.687,7.687 7.687,20.148 0,27.834 L 13.917,-5.764 C 10.073,-1.921 5.037,0 0,0 m 0,-10 c 2.586,0 5.018,-1.007 6.846,-2.835 l 269.666,-269.667 c 3.775,-3.775 3.775,-9.917 0,-13.691 L 6.846,-565.859 c -1.828,-1.829 -4.26,-2.836 -6.846,-2.836 -2.586,0 -5.017,1.007 -6.846,2.836 l -269.666,269.666 c -3.775,3.774 -3.775,9.916 0,13.691 L -6.846,-12.835 C -5.017,-11.007 -2.586,-10 0,-10"
           style="fill:#ffffff;fill-opacity:1;fill-rule:nonzero;stroke:none"
           id="path4921" />
      </g>
      <g
         id="g4923"
         transform="translate(299.0156,382.6372)">
        <path
           d="m 0,0 35.813,-62.031 35.814,-62.031 H 0 -71.627 l 35.814,62.031 z"
           style="fill:#ffffff;fill-opacity:1;fill-rule:nonzero;stroke:none"
           id="path4925" />
      </g>
      <g
         id="g4927"
         transform="translate(326.0186,441.6064)">
        <path
           d="m 0,0 c 0,-14.914 -12.09,-27.003 -27.003,-27.003 -14.913,0 -27.002,12.089 -27.002,27.003 0,14.913 12.089,27.002 27.002,27.002 C -12.09,27.002 0,14.913 0,0"
           style="fill:#ffffff;fill-opacity:1;fill-rule:nonzero;stroke:none"
           id="path4929" />
      </g>
      <g
         id="g4931"
         transform="translate(402.9258,204.1699)">
        <path
           d="m 0,0 c -12.611,7.96 -16.382,24.636 -8.422,37.247 7.96,12.611 24.636,16.382 37.247,8.422 C 41.437,37.71 45.207,21.033 37.247,8.422 29.287,-4.189 12.611,-7.96 0,0"
           style="fill:#ffffff;fill-opacity:1;fill-rule:nonzero;stroke:none"
           id="path4933" />
      </g>
      <g
         id="g4935"
         transform="translate(167.6636,246.4287)">
        <path
           d="m 0,0 c 12.401,8.283 29.169,4.944 37.452,-7.457 8.283,-12.401 4.944,-29.17 -7.457,-37.452 -12.402,-8.283 -29.17,-4.945 -37.453,7.457 C -15.74,-25.051 -12.401,-8.282 0,0"
           style="fill:#ffffff;fill-opacity:1;fill-rule:nonzero;stroke:none"
           id="path4937" />
      </g>
      <g
         id="g4939"
         transform="translate(439.3105,301.686)">
        <path
           d="m 0,0 c 0,-77.483 -62.812,-140.295 -140.295,-140.295 -77.483,0 -140.295,62.812 -140.295,140.295 0,77.483 62.812,140.295 140.295,140.295 C -62.812,140.295 0,77.483 0,0 Z"
           style="fill:none;stroke:#ffffff;stroke-width:16;stroke-linecap:butt;stroke-linejoin:miter;stroke-miterlimit:10;stroke-dasharray:none;stroke-opacity:1"
           id="path4941" />
      </g>
      <g
         id="g4943"
         transform="translate(375.5986,301.686)">
        <path
           d="m 0,0 c 0,-42.295 -34.287,-76.583 -76.583,-76.583 -42.296,0 -76.583,34.288 -76.583,76.583 0,42.296 34.287,76.583 76.583,76.583 C -34.287,76.583 0,42.296 0,0 Z"
           style="fill:none;stroke:#ffffff;stroke-width:16;stroke-linecap:butt;stroke-linejoin:miter;stroke-miterlimit:10;stroke-dasharray:none;stroke-opacity:1"
           id="path4945" />
      </g>
    </g>
  </g>
</svg>
