<?xml version="1.0" encoding="UTF-8" standalone="no"?>
<!-- Created with Inkscape (http://www.inkscape.org/) -->

<svg
   width="64.560051mm"
   height="66.199867mm"
   viewBox="0 0 64.56005 66.199867"
   version="1.1"
   id="svg868"
   inkscape:version="1.1.2 (0a00cf5339, 2022-02-04)"
   sodipodi:docname="level.svg"
   xmlns:inkscape="http://www.inkscape.org/namespaces/inkscape"
   xmlns:sodipodi="http://sodipodi.sourceforge.net/DTD/sodipodi-0.dtd"
   xmlns="http://www.w3.org/2000/svg"
   xmlns:svg="http://www.w3.org/2000/svg">
  <sodipodi:namedview
     id="namedview870"
     pagecolor="#ffffff"
     bordercolor="#666666"
     borderopacity="1.0"
     inkscape:pageshadow="2"
     inkscape:pageopacity="0.0"
     inkscape:pagecheckerboard="0"
     inkscape:document-units="mm"
     showgrid="false"
     fit-margin-top="0"
     fit-margin-left="0"
     fit-margin-right="0"
     fit-margin-bottom="0"
     inkscape:zoom="1.4096412"
     inkscape:cx="271.34564"
     inkscape:cy="104.63656"
     inkscape:window-width="1850"
     inkscape:window-height="1016"
     inkscape:window-x="0"
     inkscape:window-y="0"
     inkscape:window-maximized="1"
     inkscape:current-layer="layer1"
     width="64.56005mm"
     height="66.19987mm" />
  <defs
     id="defs865">
    <clipPath
       clipPathUnits="userSpaceOnUse"
       id="clipPath3139">
      <path
         d="M 0,0.028 H 595.247 V 841.889 H 0 Z"
         clip-rule="evenodd"
         id="path3137" />
    </clipPath>
  </defs>
  <g
     inkscape:label="Layer 1"
     inkscape:groupmode="layer"
     id="layer1"
     transform="translate(7.84782,28.500768)">
    <g
       id="g3135"
       clip-path="url(#clipPath3139)"
       transform="matrix(0.16885999,0,0,-0.16885999,-27.479534,108.81253)"
       style="fill:#ffffff;stroke:none;stroke-opacity:1">
      <path
         d="m 306.765,682.497 -49.237,-31.521 49.237,53.518 48.756,-53.518 z m 105.137,-61.172 c 9.1,6.69 31.55,22.933 31.55,22.933 l -3.827,-25.314 c 0,0 -8.589,4.762 -27.723,2.381 z m -237.515,-4.308 -3.826,25.341 c 0,0 22.45,-16.724 31.549,-22.932 -18.652,2.381 -27.723,-2.409 -27.723,-2.409 z m 227.963,16.27 c 0,0 -35.83,11.452 -95.585,91.758 -60.208,-80.306 -96.066,-91.758 -96.066,-91.758 0,0 -17.688,-2.409 -54.964,36.312 15.308,-72.652 15.761,-129.033 15.761,-129.033 0,0 59.273,-28.686 135.269,-28.686 75.515,0 134.788,28.686 134.788,28.686 0,0 0.482,56.381 16.242,129.033 -37.757,-38.721 -55.445,-36.312 -55.445,-36.312 z"
         style="fill:#ffffff;fill-opacity:1;fill-rule:evenodd;stroke:none;stroke-opacity:1"
         id="path3143" />
    </g>
  </g>
</svg>
