<?xml version="1.0" encoding="UTF-8" standalone="no"?>
<!-- Created with Inkscape (http://www.inkscape.org/) -->

<svg
   width="349.61893mm"
   height="495.0488mm"
   viewBox="0 0 349.61892 495.04879"
   version="1.1"
   id="svg5"
   inkscape:version="1.1.2 (0a00cf5339, 2022-02-04)"
   sodipodi:docname="dead.svg"
   xmlns:inkscape="http://www.inkscape.org/namespaces/inkscape"
   xmlns:sodipodi="http://sodipodi.sourceforge.net/DTD/sodipodi-0.dtd"
   xmlns="http://www.w3.org/2000/svg"
   xmlns:svg="http://www.w3.org/2000/svg">
  <sodipodi:namedview
     id="namedview7"
     pagecolor="#ffffff"
     bordercolor="#666666"
     borderopacity="1.0"
     inkscape:pageshadow="2"
     inkscape:pageopacity="0.0"
     inkscape:pagecheckerboard="0"
     inkscape:document-units="mm"
     showgrid="false"
     fit-margin-top="0"
     fit-margin-left="0"
     fit-margin-right="0"
     fit-margin-bottom="0"
     inkscape:zoom="0.17416176"
     inkscape:cx="1007.6839"
     inkscape:cy="1604.8299"
     inkscape:window-width="1850"
     inkscape:window-height="1016"
     inkscape:window-x="0"
     inkscape:window-y="0"
     inkscape:window-maximized="1"
     inkscape:current-layer="layer1" />
  <defs
     id="defs2" />
  <g
     inkscape:label="Layer 1"
     inkscape:groupmode="layer"
     id="layer1"
     transform="translate(56.194828,72.184744)">
    <path
       style="fill:#ffffff;stroke:#000000;stroke-width:4;stroke-miterlimit:4;stroke-dasharray:none;stroke-opacity:1"
       d="m 3.2260105,420.4689 c -3.96631996,-1.06754 -8.40861,-3.99497 -13.02556,-8.58374 -2.8839795,-2.86636 -7.2067395,-7.91411 -8.6665695,-10.12005 -0.656373,-0.99184 -0.657923,-0.99245 -2.539843,-0.99507 -2.85803,-0.004 -9.21995,-0.49527 -12.32509,-0.95184 -4.6024,-0.6767 -8.5778,-1.82597 -11.86734,-3.4308 -2.48266,-1.21118 -3.3236,-1.78689 -4.91757,-3.36653 -3.17593,-3.14738 -4.29048,-6.21834 -4.05244,-11.16592 0.37877,-7.87302 4.52849,-13.62734 12.53207,-17.37797 7.57147,-3.54811 24.522593,-7.32181 48.3830925,-10.77121 l 6.9816305,-1.00928 4.84233,-3.17873 c 17.39519,-11.41897 37.05478,-22.66733 59.605849,-34.10387 l 10.04893,-5.09621 -1.84685,-0.83733 C 49.781141,292.88748 19.763271,282.45089 -3.3944995,278.26811 l -2.73048,-0.49318 -2.82577,2.14839 c -8.0818095,6.14447 -15.1197825,9.83168 -21.3904625,11.20651 -2.74066,0.60087 -8.66431,0.58938 -11.57338,-0.0225 -5.94313,-1.24997 -9.64041,-4.12404 -11.01514,-8.56261 -0.63813,-2.06036 -0.75916,-5.24951 -0.2578,-6.79325 1.28863,-3.9678 5.84795,-10.98659 12.48955,-19.22688 1.13644,-1.40999 2.06625,-2.75643 2.06625,-2.99204 0,-0.23564 -0.34752,-1.82044 -0.77227,-3.52179 -1.7623,-7.05903 -2.4041,-11.41272 -2.39925,-16.27555 0.0114,-11.40484 4.91108,-17.55508 14.41436,-18.09324 4.88122,-0.27644 9.022913,0.99639 15.233153,4.68138 8.8560095,5.25492 21.6131095,16.41142 34.61295,30.27013 l 2.9519,3.1469 5.21968,1.78636 c 23.88657,8.17489 50.528119,19.08144 81.384349,33.31724 l 8.16676,3.7678 4.49861,-2.16975 c 12.91173,-6.22744 32.07142,-14.40629 56.82309,-24.25647 15.77628,-6.27832 27.08187,-10.75071 29.36875,-11.61798 1.81096,-0.68678 2.37852,-1.1117 6.49496,-4.86283 21.13799,-19.26193 35.09994,-29.61839 43.90816,-32.56939 2.64311,-0.88551 6.08746,-0.83603 8.96147,0.12874 3.44696,1.15711 5.42147,2.84663 6.8113,5.82825 1.47375,3.16163 1.69015,4.52215 1.68529,10.59587 -0.005,5.6901 -0.25845,8.34467 -1.56808,16.3947 l -0.60111,3.69466 2.43684,2.91992 c 4.63968,5.55948 7.75192,10.10706 10.05417,14.69109 2.22636,4.43299 2.7428,8.04675 1.7209,12.04233 -1.49746,5.85504 -5.48857,8.83364 -12.93421,9.65295 -3.35113,0.36875 -5.64356,0.0694 -9.35143,-1.22126 -2.34059,-0.81471 -3.47052,-1.29926 -8.27347,-3.54801 -2.39218,-1.12001 -9.70238,-5.03439 -14.61381,-7.82521 l -4.82426,-2.7413 -3.34864,0.6663 c -16.84756,3.35225 -37.82899,10.47652 -65.45183,22.22426 -7.81617,3.32415 -21.19014,9.30156 -21.4984,9.60856 -0.19876,0.19796 3.14814,2.08394 13.69319,7.71615 12.23052,6.53243 23.57099,12.93265 40.21666,22.69704 13.05674,7.65913 24.74172,14.0747 25.6349,14.0747 2.06915,0 15.62582,1.99813 21.72552,3.20217 22.46392,4.43415 35.2752,11.18772 38.9564,20.53622 0.62331,1.58289 0.70784,2.16886 0.71875,4.98173 0.0124,3.17341 0.008,3.19709 -1.0023,5.24174 -2.15167,4.35549 -6.57278,7.55409 -14.31496,10.35664 -3.1355,1.13501 -9.90407,2.82628 -14.39543,3.59701 l -3.53126,0.606 -4.80311,4.79608 c -12.4138,12.39565 -20.83313,15.55779 -28.27367,10.61902 -5.52868,-3.66972 -11.91807,-13.70666 -16.78416,-26.36578 -0.64328,-1.67349 -1.84936,-4.64399 -2.6802,-6.60109 l -1.51061,-3.55838 -6.08764,-4.53655 c -23.01187,-17.14854 -45.52463,-31.8158 -66.14806,-43.09602 -4.63888,-2.5373 -14.03487,-7.29541 -14.40646,-7.29541 -0.15303,0 -2.86777,1.3883 -6.03276,3.08512 -26.9838,14.46649 -51.901619,31.07336 -75.885259,50.57484 l -5.30694,4.31517 -0.61122,3.35775 c -3.95096,21.7048 -11.48459,32.39913 -22.7624305,32.31221 -1.24273,-0.01 -2.89024,-0.18719 -3.66114,-0.39468 z M 112.18076,229.40505 c -0.50932,-0.0536 -2.21519,-0.33761 -3.79081,-0.63103 -10.529752,-1.96099 -18.94556,-7.65569 -24.88699,-16.8402 -1.14387,-1.76826 -1.92638,-2.45086 -11.72346,-10.22697 l -10.497779,-8.33223 -4.2944,-15.56157 c -2.36192,-8.55886 -4.23937,-15.61661 -4.17209,-15.68388 0.25911,-0.25912 12.14602,-2.87132 12.29806,-2.70255 0.0884,0.0981 0.90331,1.96427 1.811,4.14708 5.794399,13.93438 13.271209,23.10965 21.598219,26.50453 6.689088,2.72711 14.94095,3.81347 28.94992,3.81124 15.24265,-0.003 24.71489,-1.19779 31.42808,-3.96607 7.7602,-3.20006 14.1868,-11.27167 20.30405,-25.50125 1.36646,-3.1786 2.31939,-5.07074 2.54447,-5.05231 1.31104,0.10739 11.68574,2.65209 11.77647,2.88854 0.14372,0.37451 -8.29601,31.13071 -8.59697,31.32928 -0.12386,0.0817 -4.79751,3.80908 -10.38596,8.28308 l -10.16077,8.13456 -1.91611,2.89197 c -6.11129,9.2238 -14.95218,14.6399 -26.60029,16.29582 -2.47351,0.35163 -11.0906,0.48509 -13.68464,0.21196 z m -2.91041,-54.59567 c -5.09494,-0.27507 -10.430542,-0.84298 -15.081252,-1.6052 -3.489088,-0.57183 -9.704098,-1.96925 -10.236488,-2.30162 -0.17304,-0.10803 -1.81697,-3.70622 -3.65318,-7.99597 -1.83621,-4.28976 -3.48058,-7.92851 -3.65414,-8.08612 -0.17356,-0.1576 -1.14901,-0.64703 -2.16765,-1.08761 -5.569189,-2.40875 -45.789179,-20.02606 -45.877099,-20.09525 -0.0573,-0.0451 -1.15913,-6.36526 -2.44852,-14.04482 -1.68046,-10.00876 -2.57324,-14.65067 -3.15263,-16.39175 -1.53828,-4.622568 -6.97716,-14.952598 -12.79107,-24.294008 -1.2679805,-2.03729 -2.8915705,-4.91717 -3.6080005,-6.39974 -5.43084,-11.23853 -8.25401,-28.98511 -7.85324,-49.366017 0.23493,-11.94757 1.73570004,-20.4010097 5.38923,-30.3561197 2.27033,-6.1861823 7.2028005,-14.9479993 11.6559505,-20.7051023 8.48935,-10.975168 20.66036,-20.725778 34.74059,-27.831854 14.09142,-7.111727 28.933719,-11.332374 46.963537,-13.354835 13.497132,-1.514016 31.454222,-1.419683 44.979162,0.236285 26.9756,3.302839 50.1214,13.052699 67.60105,28.47603 22.17536,19.566652 31.46406,44.5906163 28.42262,76.571143 -1.84793,19.43066 -8.45986,38.22916 -20.33288,57.80862 -2.95683,4.876 -3.49586,6.970328 -6.64017,25.799718 -1.25148,7.49432 -2.35749,13.70224 -2.45779,13.79536 -0.10033,0.0931 -5.00444,2.29086 -10.89803,4.88385 -5.8936,2.59299 -16.65306,7.33882 -23.90995,10.5463 l -13.19429,5.83178 -3.25552,7.67292 c -1.79054,4.2201 -3.37029,7.85799 -3.51051,8.0842 -0.71197,1.14831 -11.84246,3.22054 -21.21723,3.95012 -5.03163,0.39159 -18.62393,0.53982 -23.8125,0.25969 z m 4.71148,-33.35664 c 0.6829,-0.16106 2.14686,-0.7074 3.25324,-1.21408 l 2.01159,-0.92125 1.58144,0.79831 c 2.27998,1.15093 4.42276,1.63044 7.26585,1.62594 5.42326,-0.009 9.33182,-1.83234 10.9216,-5.09613 0.37031,-0.76023 0.81415,-2.29548 0.98631,-3.41166 0.28834,-1.86918 0.26673,-2.17048 -0.27353,-3.8162 -0.69363,-2.11296 -2.73521,-5.31283 -5.08703,-7.97318 -0.92991,-1.0519 -2.77297,-3.13549 -4.09568,-4.63021 -3.0314,-3.42561 -6.51022,-7.92396 -9.23522,-11.94178 -2.07514,-3.05965 -2.12269,-3.10723 -2.51354,-2.51546 -3.38014,5.1178 -9.24675,12.71103 -12.79211,16.55699 -5.90766,6.40856 -8.134082,10.46683 -7.699672,14.03478 0.2557,2.1001 1.01311,4.01367 2.083732,5.26445 1.08455,1.26705 3.48287,2.59777 5.60972,3.11256 1.88858,0.45713 6.28671,0.52705 7.9833,0.12692 z M 78.28612,105.39417 c 11.7251,-2.9869 17.929208,-11.323268 19.373958,-26.032458 0.40192,-4.09205 0.1474,-10.27428 -0.56154,-13.63973 -2.63935,-12.5293 -11.629078,-18.69724 -27.251107,-18.69724 -19.83384,0 -29.65172,9.73217 -29.62742,29.36875 0.0193,15.57532 6.16141,25.447018 17.85346,28.694238 3.51934,0.97743 5.67371,1.17955 11.64167,1.09221 5.261749,-0.077 6.084979,-0.15247 8.570979,-0.78577 z m 101.29241,0.13681 c 10.92578,-2.76996 16.70486,-9.264358 19.17924,-21.553168 0.52261,-2.59546 0.59452,-3.75717 0.59246,-9.56869 -0.003,-5.85414 -0.0682,-6.89385 -0.57539,-9.0437 -0.67807,-2.87435 -1.65547,-5.40795 -2.93648,-7.61186 -1.15422,-1.98579 -4.70651,-5.53967 -6.71285,-6.71583 -4.65614,-2.72953 -10.32978,-4.00697 -17.81037,-4.01007 -7.6889,-0.003 -14.11735,1.57785 -18.78674,4.62048 -2.3314,1.51918 -5.36348,4.73335 -6.7232,7.12702 -3.10247,5.4616 -4.48852,13.50323 -3.74353,21.71937 1.41253,15.57821 8.47608,23.482618 22.90347,25.629968 0.43656,0.065 3.41312,0.0823 6.61458,0.0384 4.84656,-0.0664 6.18538,-0.17217 7.99881,-0.63192 z"
       id="path900" />
  </g>
</svg>
