<?xml version="1.0" encoding="UTF-8" standalone="no"?>
<!-- Created with Inkscape (http://www.inkscape.org/) -->

<svg
   version="1.1"
   id="svg2"
   width="426"
   height="598"
   viewBox="0 0 426 598"
   sodipodi:docname="event.svg"
   inkscape:version="1.1.2 (0a00cf5339, 2022-02-04)"
   xmlns:inkscape="http://www.inkscape.org/namespaces/inkscape"
   xmlns:sodipodi="http://sodipodi.sourceforge.net/DTD/sodipodi-0.dtd"
   xmlns="http://www.w3.org/2000/svg"
   xmlns:svg="http://www.w3.org/2000/svg">
  <defs
     id="defs6" />
  <sodipodi:namedview
     id="namedview4"
     pagecolor="#ffffff"
     bordercolor="#666666"
     borderopacity="1.0"
     inkscape:pageshadow="2"
     inkscape:pageopacity="0.0"
     inkscape:pagecheckerboard="0"
     showgrid="false"
     inkscape:zoom="1.4598662"
     inkscape:cx="212.69072"
     inkscape:cy="299.3425"
     inkscape:window-width="1846"
     inkscape:window-height="1043"
     inkscape:window-x="0"
     inkscape:window-y="0"
     inkscape:window-maximized="1"
     inkscape:current-layer="g8" />
  <g
     inkscape:groupmode="layer"
     inkscape:label="Image"
     id="g8">
    <path
       style="fill:#000000"
       d="M 21.167559,597.01098 C 15.396651,595.63927 7.7619049,589.55989 3.9859856,583.32967 L 0.5,577.57784 V 299.53892 C 0.5,30.164349 0.55819913,21.375351 2.3676097,17.5 4.9247063,12.023274 10.515723,6.3515481 16.5,3.163602 L 21.5,0.5 H 213 404.5 l 5,2.663602 C 415.48428,6.3515481 421.07529,12.023274 423.63239,17.5 425.4418,21.375351 425.5,30.164349 425.5,299.53892 v 278.03892 l -3.48599,5.75183 c -3.47938,5.74094 -10.82973,11.89237 -16.04472,13.42766 -3.38083,0.99531 -380.635279,1.24398 -384.801731,0.25365 z M 351.67682,522.40634 c 1.55275,-1.15152 3.36028,-3.62652 4.01674,-5.5 1.89809,-5.41702 1.77285,-351.61022 -0.13238,-365.91916 C 351.11712,117.61062 330.42822,89.232342 300.43743,75.375742 296.41894,73.519084 292.65159,72 292.06554,72 291.34829,72 291,78.308584 291,91.3 c 0,13.67778 -0.34957,19.64957 -1.2,20.5 -1.7371,1.7371 -151.8629,1.7371 -153.6,0 -0.85043,-0.85043 -1.2,-6.82222 -1.2,-20.5 0,-12.991416 -0.34829,-19.3 -1.06554,-19.3 -0.58605,0 -4.3534,1.519084 -8.37189,3.375742 -24.18534,11.174316 -42.420828,31.899608 -51.479112,58.507868 -5.12474,15.05367 -5.125487,15.0854 -4.844405,205.72327 0.249787,169.41218 0.339019,177.10051 2.086424,179.76725 3.83995,5.86021 -3.701589,5.57816 142.851343,5.34247 L 348.85364,524.5 Z M 113.06166,422.17273 c -6.83894,-3.66776 -9.13689,-14.16768 -4.47307,-20.4386 C 113.05696,395.72603 108.06822,396 213,396 c 85.43348,0 96.29153,0.17314 99.21607,1.58204 9.85434,4.74735 10.28651,19.46133 0.72227,24.59069 C 309.70597,423.90627 304.57971,424 213,424 c -91.57971,0 -96.70597,-0.0937 -99.93834,-1.82727 z m 2.67886,-80.59176 c -4.90073,-1.76218 -6.75487,-3.37414 -8.39542,-7.29885 -3.04657,-7.28832 -0.22363,-15.08728 6.69056,-18.48409 3.18872,-1.56656 11.06234,-1.70197 98.96434,-1.70197 106.36149,0 99.85465,-0.42265 104.71434,6.80182 4.27986,6.36249 2.0447,15.6401 -4.71434,19.5681 -3.44529,2.00222 -4.98508,2.0374 -98.5,2.25041 -77.71213,0.17702 -95.68414,-0.0296 -98.75948,-1.13542 z m -0.61851,-81.94747 c -13.42479,-4.88739 -11.09204,-25.08236 3.13274,-27.1207 2.33489,-0.33458 46.62492,-0.47433 98.4223,-0.31056 93.44486,0.29545 94.19899,0.31386 97,2.36884 8.61395,6.31971 7.92035,19.69329 -1.26698,24.42892 -2.51952,1.29869 -15.7267,1.52438 -98.41007,1.68164 -73.44478,0.1397 -96.28013,-0.10237 -98.87799,-1.04814 z"
       id="path827" />
  </g>
</svg>
