<svg xmlns="http://www.w3.org/2000/svg" viewBox="0 0 44.21 22.48"><defs><style>.cls-1{fill:#fff;}.cls-2{fill:#1f2c35;}.cls-3{fill:#9ab0b7;}</style></defs><g id="Layer_2" data-name="Layer 2"><g id="Frame"><path id="Frame-2" data-name="Frame" class="cls-1" d="M40.9,3.28A11.17,11.17,0,0,0,33,0H11.34A11.63,11.63,0,0,0,6.69,1,11.31,11.31,0,0,0,3,3.57a11.26,11.26,0,0,0,8.25,18.91H32.88a11.2,11.2,0,0,0,4.42-.9,11.59,11.59,0,0,0,3.62-2.45,11.2,11.2,0,0,0,0-15.83l0,0"/></g><g id="Dark_Right" data-name="Dark Right"><path id="Background" class="cls-2" d="M24.91,21.8h8A10.56,10.56,0,0,0,33,.68H25.84a.8.8,0,0,0-.78.62L21.4,17.4a3.6,3.6,0,0,0,3.51,4.4"/><path id="Icon" class="cls-1" d="M34.2,5a6.29,6.29,0,0,0-1.83.27A6.07,6.07,0,0,0,30.53,5a6.31,6.31,0,0,0,0,12.62,6.4,6.4,0,0,0,1.84-.27A6.31,6.31,0,1,0,34.2,5M32.37,16.81a5.54,5.54,0,0,1-.8.21,6,6,0,0,1-1,.09,5.83,5.83,0,0,1,0-11.66,6,6,0,0,1,1,.09,5.73,5.73,0,0,1,1.5.49,5.83,5.83,0,0,1-.7,10.78m1.83.3a6,6,0,0,1-1-.09c.24-.12.47-.24.7-.38l.21-.14a5.3,5.3,0,0,0,5.28-5.22,5.3,5.3,0,0,0-5.28-5.23l-.21-.14a6.7,6.7,0,0,0-.7-.37,6,6,0,0,1,1-.1,5.84,5.84,0,0,1,0,11.67"/></g><g id="Wind_Left" data-name="Wind Left"><path id="Background-2" data-name="Background" class="cls-3" d="M19.19.68H11.34a10.56,10.56,0,0,0-.1,21.12h7a.79.79,0,0,0,.78-.62L22.7,5.08A3.6,3.6,0,0,0,19.19.68"/><g id="Icon-2" data-name="Icon"><path class="cls-1" d="M2.93,12.3s0,0,0-.06a.07.07,0,0,1,0,0,6,6,0,0,1,3.26.63c2.08,1,5.44,3.17,7.43,3.05,1.68-.1,2.5-.73,2.41-1.51a1,1,0,0,0-1.27-.81,1.07,1.07,0,0,0-.71,1.11.94.94,0,0,1-.14-1.18,1.48,1.48,0,0,1,2.22-.32,1.83,1.83,0,0,1,0,2.8,4.23,4.23,0,0,1-4.06.7c-2.38-.6-4.94-2.77-6.3-3.42a10.13,10.13,0,0,0-2.85-.95"/><path class="cls-1" d="M6.51,12a0,0,0,0,1,0,0l0,0a10.19,10.19,0,0,0,4.78.36c2.39-.62,2.82-2,5.2-3.19a2.93,2.93,0,0,1,4,1.27,1.88,1.88,0,0,1-2,2.44,1.78,1.78,0,0,1-1.66-1,1,1,0,0,1,.6-1.26,1.1,1.1,0,0,0,1,1.46,1.07,1.07,0,0,0,.76-1.8A1.78,1.78,0,0,0,17.08,10a28,28,0,0,1-3.2,2.34A6.64,6.64,0,0,1,9.3,13a9.94,9.94,0,0,1-2.79-1"/><path class="cls-1" d="M4.25,10.69a0,0,0,0,1,0-.06s0,0,0,0c.69,0,2.6,0,3.61-1.13,1.24-1.38,1-2.32,2.06-3.32a3,3,0,0,1,3.77.14c1.38,1.18.65,3.48-.72,4.19-1.16.6-2.62.41-3-.53A1.41,1.41,0,0,1,11.2,8a.69.69,0,0,1,.7.82s-.24-.42-.57-.37a.81.81,0,0,0-.57,1.11c.27.65,1.43.94,2.27-.05a1.73,1.73,0,0,0-.75-2.91C11,6.13,10.2,7.1,9.5,8.39c-.55,1-1.17,2.32-3.06,2.43a5.68,5.68,0,0,1-2.19-.13"/></g></g></g></svg>