<svg xmlns="http://www.w3.org/2000/svg" viewBox="0 0 560 560"><defs><style>.cls-1{fill:#89a53d;}.cls-2{fill:#fff;}</style></defs><g id="Layer_2" data-name="Layer 2"><g id="Layer_1-2" data-name="Layer 1"><path class="cls-1" d="M280,552A272,272,0,0,1,87.67,87.67,272,272,0,1,1,472.33,472.33,270.19,270.19,0,0,1,280,552"/><path class="cls-2" d="M280,16c145.8,0,264,118.2,264,264S425.8,544,280,544,16,425.8,16,280,134.2,16,280,16m0-16A280.07,280.07,0,0,0,171,538,280.07,280.07,0,0,0,389,22,278.34,278.34,0,0,0,280,0"/><path class="cls-2" d="M171.85,374.85a5.38,5.38,0,0,1-8.27,4C139.3,363.06,78,298.16,152,216c73.49-81.56,169.57-37.86,265.71-95.87a4.94,4.94,0,0,1,7.4,3.15c13.13,59.17,21,188-39.11,247.22-73.5,72.5-133.5,40.5-166,29-1.5,18,4.5,41.92,9.5,58.42s-27,21.08-31,18.08S179.9,392.28,217,343c47.5-63,163-118,166.5-162.5-22.5,20-51.81,46.52-129,89.5-68.44,38.11-80.63,85.6-82.66,104.82"/></g></g></svg>