<svg xmlns="http://www.w3.org/2000/svg" viewBox="0 0 44.21 22.48"><defs><style>.cls-1{fill:#fff;}.cls-2{fill:#eeac1f;}.cls-3{fill:#89a53d;}</style></defs><g id="Layer_2" data-name="Layer 2"><g id="Frame"><path id="Frame-2" data-name="Frame" class="cls-1" d="M40.9,3.28A11.17,11.17,0,0,0,33,0H11.34A11.63,11.63,0,0,0,6.69,1,11.31,11.31,0,0,0,3,3.57a11.26,11.26,0,0,0,8.25,18.91H32.88a11.2,11.2,0,0,0,4.42-.9,11.59,11.59,0,0,0,3.62-2.45,11.2,11.2,0,0,0,0-15.83l0,0"/></g><g id="Light_Right" data-name="Light Right"><path id="Background" class="cls-2" d="M24.91,21.8h8A10.56,10.56,0,0,0,33,.68H25.84a.8.8,0,0,0-.78.62L21.4,17.4a3.6,3.6,0,0,0,3.51,4.4"/><path id="Icon" class="cls-1" d="M41.13,11.06,37.4,9.19l1.31-4a.23.23,0,0,0-.15-.3.19.19,0,0,0-.15,0l-4,1.31L32.58,2.52a.24.24,0,0,0-.32-.11.2.2,0,0,0-.11.11L30.28,6.24l-4-1.31a.24.24,0,0,0-.3.15.19.19,0,0,0,0,.15l1.31,4-3.72,1.87a.24.24,0,0,0-.11.32.2.2,0,0,0,.11.11l3.72,1.87-1.31,4a.24.24,0,0,0,.15.3.19.19,0,0,0,.15,0l4-1.31L32.15,20a.23.23,0,0,0,.32.1.22.22,0,0,0,.11-.1l1.87-3.73,4,1.31h.07a.22.22,0,0,0,.24-.23.19.19,0,0,0,0-.08l-1.31-4,3.73-1.87a.24.24,0,0,0,.1-.32.27.27,0,0,0-.1-.11m-3.6-4.95L36.82,8.9l-1-.51.4-.94-.93.4-.52-1ZM33.47,8.62l-.54-1.33L34.15,7l.63,1.08Zm-2.21,0L30,8.06,30.59,7l1.21.31Zm-1.55,1.56-1.33.53L28.07,9.5l1.07-.64Zm0,2.2-.57,1.31-1.07-.63.31-1.21Zm1.55,1.55.54,1.33-1.21.31L30,14.5Zm2.21,0,1.31.57-.63,1.07-1.22-.31ZM35,12.38l1.33-.53.31,1.21-1.07.63Zm0-2.2.57-1.32,1.07.64-.31,1.21ZM32.37,4l1.46,2.48-1.09.36-.37-.94L32,6.81,30.9,6.45ZM27.2,6.11,30,6.83l-.52,1-.93-.4.4.93-1,.52Zm-2.14,5.17,2.48-1.47.36,1.09-.94.38.94.37-.36,1.09Zm2.14,5.16.72-2.79,1,.52-.4.93.93-.4.52,1Zm5.17,2.14L30.9,16.1,32,15.74l.38.94.37-.94,1.09.36Zm5.16-2.14-2.79-.71.52-1,.93.4-.4-.93,1-.52Zm-.34-3.7-.36-1.09.94-.37-.94-.38.36-1.09,2.48,1.47Z"/></g><g id="Earth_Left" data-name="Earth Left"><path id="Background-2" data-name="Background" class="cls-3" d="M19.19.68H11.34a10.56,10.56,0,0,0-.1,21.12h7a.79.79,0,0,0,.78-.62L22.7,5.08A3.6,3.6,0,0,0,19.19.68"/><path id="Icon-2" data-name="Icon" class="cls-1" d="M7.61,14.31a.21.21,0,0,1-.23.19.17.17,0,0,1-.1,0c-1-.63-3.42-3.23-.46-6.52S13.6,6.44,17.45,4.12a.19.19,0,0,1,.27.07.08.08,0,0,1,0,.06c.53,2.36.84,7.52-1.56,9.88-2.94,2.9-5.34,1.62-6.64,1.16a7.09,7.09,0,0,0,.38,2.34c.2.66-1.08.84-1.24.72A6.7,6.7,0,0,1,9.42,13c1.9-2.52,6.52-4.72,6.66-6.5a24.35,24.35,0,0,1-5.16,3.58c-2.74,1.53-3.23,3.43-3.31,4.2"/></g></g></svg>