<svg xmlns="http://www.w3.org/2000/svg" viewBox="0 0 560 560"><defs><style>.cls-1{fill:#1ac2ec;}.cls-2{fill:#fff;}</style></defs><g id="Layer_2" data-name="Layer 2"><g id="Layer_1-2" data-name="Layer 1"><path class="cls-1" d="M280,552A272,272,0,0,1,87.67,87.67,272,272,0,1,1,472.33,472.33,270.19,270.19,0,0,1,280,552"/><path class="cls-2" d="M280,16c145.8,0,264,118.2,264,264S425.8,544,280,544,16,425.8,16,280,134.2,16,280,16m0-16A280.07,280.07,0,0,0,171,538,280.07,280.07,0,0,0,389,22,278.34,278.34,0,0,0,280,0"/><path class="cls-2" d="M462.66,326.24l-38.14,28L394,335.71,443.45,301a7,7,0,1,0-8-11.46l-54.56,38.21L331.73,298V262.14l49.13-29.77,54.56,38.22a7,7,0,1,0,8-11.47L394,224.45l30.57-18.53,38.14,28A7,7,0,0,0,471,222.62l-33.46-24.55,29.33-17.77a7,7,0,1,0-7-12.13l-30.06,16.47-4.53-41.2A7,7,0,0,0,411.31,145l5.17,46.94-31.34,17.16L379.87,149a7,7,0,1,0-13.94,1.23l5.8,66.19-50.57,27.69L290.48,226.4l-1.27-57.72,60.28-28.1a7,7,0,1,0-5.91-12.69l-54.7,25.5-.79-35.73,43.26-19a7,7,0,0,0-5.63-12.82l-38,16.69L287,68.24a7,7,0,0,0-14,0l-.75,34.28-38-16.69a7,7,0,0,0-5.63,12.82l43.27,19-.77,35.73-54.73-25.51a7,7,0,1,0-5.91,12.69l60.3,28.11-1.25,57.68L238.85,244.1l-50.58-27.69,5.8-66.18A7,7,0,1,0,180.13,149l-5.27,60.07-31.33-17.16L148.68,145a7,7,0,1,0-13.91-1.53l-4.53,41.19-30.06-16.46a7,7,0,1,0-7,12.13l29.33,17.77L89.05,222.62a7,7,0,1,0,8.29,11.29l38.14-28,30.57,18.53-49.5,34.67a7,7,0,0,0,8,11.47l54.56-38.22,49.13,29.77v35.5l-49.31,30-54.38-38.08a7,7,0,1,0-8,11.46L165.9,335.6l-30.51,18.57-38-27.93a7,7,0,0,0-8.29,11.29L122.45,362,93.18,379.86a7,7,0,1,0,7,12.12l30-16.54,4.54,41.27a7,7,0,0,0,6.95,6.24,6.74,6.74,0,0,0,.77,0,7,7,0,0,0,6.19-7.72l-5.17-47.05,31.33-17.24,5.29,60.25a7,7,0,0,0,7,6.39c.21,0,.41,0,.62,0a7,7,0,0,0,6.36-7.58l-5.82-66.4,50.28-27.66,30.91,17.84,1.3,57.64-60.23,28.07a7,7,0,0,0,5.91,12.69l54.66-25.48.81,35.72-43.24,19a7,7,0,0,0,5.63,12.82l38-16.68.77,34.27a7,7,0,0,0,14,0l.73-34.29,38,16.7a7,7,0,0,0,5.63-12.82l-43.3-19,.76-35.74,54.77,25.53a7,7,0,0,0,5.91-12.69l-60.36-28.13,1.22-57.46,30.8-17.78,50.58,27.69-5.8,66.19a7,7,0,0,0,6.36,7.58c.21,0,.41,0,.62,0a7,7,0,0,0,7-6.39l5.27-60.06,31.33,17.15-5.16,46.95a7,7,0,0,0,6.2,7.72,6.62,6.62,0,0,0,.77,0,7,7,0,0,0,7-6.24l4.53-41.19L459.82,392a7,7,0,1,0,7-12.12l-29.33-17.78L471,337.53a7,7,0,0,0-8.29-11.29M280,323.64l-37.73-21.78V258.29L280,236.51l37.73,21.78v43.57Z"/></g></g></svg>