<?xml version="1.0" encoding="UTF-8" standalone="no"?>
<svg
   viewBox="0 0 8.28 8.2799995"
   version="1.1"
   id="svg19"
   sodipodi:docname="jump.svg"
   inkscape:version="1.2.2 (b0a8486541, 2022-12-01)"
   width="8.2799997"
   height="8.2799997"
   xmlns:inkscape="http://www.inkscape.org/namespaces/inkscape"
   xmlns:sodipodi="http://sodipodi.sourceforge.net/DTD/sodipodi-0.dtd"
   xmlns="http://www.w3.org/2000/svg"
   xmlns:svg="http://www.w3.org/2000/svg">
  <sodipodi:namedview
     id="namedview21"
     pagecolor="#ffffff"
     bordercolor="#666666"
     borderopacity="1.0"
     inkscape:pageshadow="2"
     inkscape:pageopacity="0.0"
     inkscape:pagecheckerboard="0"
     showgrid="false"
     inkscape:zoom="50.128205"
     inkscape:cx="-1.7754476"
     inkscape:cy="5.2565217"
     inkscape:window-width="1854"
     inkscape:window-height="1011"
     inkscape:window-x="0"
     inkscape:window-y="0"
     inkscape:window-maximized="1"
     inkscape:current-layer="svg19"
     inkscape:showpageshadow="2"
     inkscape:deskcolor="#d1d1d1" />
  <defs
     id="defs7">
    <style
       id="style2">.cls-1{fill:none;}.cls-2{fill:#fff;}.cls-3{clip-path:url(#clip-path);}</style>
    <clipPath
       id="clip-path"
       transform="translate(0 -0.2)">
      <rect
         class="cls-1"
         width="8.2799997"
         height="8.0100002"
         id="rect4"
         x="0"
         y="0" />
    </clipPath>
  </defs>
  <path
     class="cls-2"
     d="m 3.8896359,6.8298282 0.78,-0.39 h 1.71 l 0.78,0.39 -0.59,0.67 h -2.08 z m 0.51,-0.73 -1.61,0.77 1,1.18 h 3.48 l 1,-1.19 -1.61,-0.76 z"
     id="path9"
     style="fill:#000000" />
  <polygon
     class="cls-2"
     points="5.37,6.77 4.27,4.64 7.13,5.15 "
     id="polygon11"
     style="fill:#000000"
     transform="translate(-0.01036405,0.24982817)" />
  <path
     class="cls-2"
     d="m 3.6196359,1.6498282 a 3.24,3.24 0 0 1 1.67,3.82 h 0.7 c 0.46,-1.59 0.41,-4.08 -2,-5.00000003 a 3.64,3.64 0 0 0 -3.99999995,1.00000003 4.94,4.94 0 0 1 3.62999995,0.18"
     id="path13"
     style="fill:#000000" />
</svg>
