<svg xmlns="http://www.w3.org/2000/svg" viewBox="0 0 26.99 26.99"><defs><style>.cls-1{fill:#4f504f;}.cls-2{fill:#fff;}</style></defs><g id="Layer_2" data-name="Layer 2"><g id="Layer_1-2" data-name="Layer 1"><path class="cls-1" d="M13.5,26.76a.68.68,0,0,1-.49-.2L.43,14a.7.7,0,0,1,0-1L13,.43a.69.69,0,0,1,1,0L26.56,13a.68.68,0,0,1,0,1L14,26.56a.67.67,0,0,1-.48.2"/><path class="cls-2" d="M13.5,0a.91.91,0,0,0-.65.27L.27,12.85a.92.92,0,0,0,0,1.3L12.85,26.73a.94.94,0,0,0,.65.26,1,1,0,0,0,.65-.26L26.73,14.15a.94.94,0,0,0,0-1.3L14.15.27A.92.92,0,0,0,13.5,0m0,.47a.44.44,0,0,1,.32.13L26.4,13.18a.46.46,0,0,1,.13.32.48.48,0,0,1-.13.32L13.82,26.4a.48.48,0,0,1-.32.13.46.46,0,0,1-.32-.13L.6,13.82a.44.44,0,0,1-.13-.32.42.42,0,0,1,.13-.32L13.18.6A.42.42,0,0,1,13.5.47"/><path class="cls-2" d="M11.42,8.05,11,12.63H8.07c-.19,0-.33.18-.25.31l5.39,6a.38.38,0,0,0,.57,0l5.39-6c.09-.13-.06-.31-.25-.31H16l-.43-4.58c0-.12-.2-.19-.34-.12a3.82,3.82,0,0,1-1.73.41,3.91,3.91,0,0,1-1.74-.41c-.13-.07-.33,0-.34.12"/><path class="cls-2" d="M11.69,5.21l-.13,1.35a.33.33,0,0,0,.17.3,3.14,3.14,0,0,0,1.77.44,3.16,3.16,0,0,0,1.77-.44.32.32,0,0,0,.16-.3l-.12-1.35c0-.09-.18-.14-.29-.09a3.88,3.88,0,0,1-3,0c-.12,0-.29,0-.29.09"/><path class="cls-2" d="M13.5,3.88a3.72,3.72,0,0,1-1.4-.27c-.11,0-.27,0-.27.08l0,.23a.29.29,0,0,0,.16.23,3,3,0,0,0,1.54.33A3.09,3.09,0,0,0,15,4.15c.1-.07.16-.15.15-.23l0-.23c0-.08-.17-.12-.27-.08a3.81,3.81,0,0,1-1.4.27"/><path class="cls-2" d="M7.77,14.2l.47,3.92a1,1,0,0,0,.22.41L13,23.41a.74.74,0,0,0,1.09,0l4.49-4.88a.87.87,0,0,0,.22-.41l.48-3.92-5.46,6.13a.38.38,0,0,1-.54,0Z"/></g></g></svg>