<?xml version="1.0" encoding="UTF-8" standalone="no"?>
<!-- Created with Inkscape (http://www.inkscape.org/) -->

<svg
   width="83.284103mm"
   height="81.550583mm"
   viewBox="0 0 83.284106 81.550582"
   version="1.1"
   id="svg5"
   sodipodi:docname="shield.svg"
   inkscape:version="1.1.2 (0a00cf5339, 2022-02-04)"
   xmlns:inkscape="http://www.inkscape.org/namespaces/inkscape"
   xmlns:sodipodi="http://sodipodi.sourceforge.net/DTD/sodipodi-0.dtd"
   xmlns="http://www.w3.org/2000/svg"
   xmlns:svg="http://www.w3.org/2000/svg">
  <sodipodi:namedview
     id="namedview30"
     pagecolor="#ffffff"
     bordercolor="#666666"
     borderopacity="1.0"
     inkscape:pageshadow="2"
     inkscape:pageopacity="0.0"
     inkscape:pagecheckerboard="0"
     inkscape:document-units="mm"
     showgrid="false"
     inkscape:zoom="2.5371268"
     inkscape:cx="157.46158"
     inkscape:cy="153.91426"
     inkscape:window-width="1846"
     inkscape:window-height="1136"
     inkscape:window-x="0"
     inkscape:window-y="0"
     inkscape:window-maximized="1"
     inkscape:current-layer="svg5" />
  <defs
     id="defs2">
    <clipPath
       clipPathUnits="userSpaceOnUse"
       id="clipPath1104">
      <path
         d="M 0,600 H 600 V 0 H 0 Z"
         id="path1102" />
    </clipPath>
    <clipPath
       clipPathUnits="userSpaceOnUse"
       id="clipPath1286">
      <path
         d="M 0,600 H 600 V 0 H 0 Z"
         id="path1284" />
    </clipPath>
    <clipPath
       clipPathUnits="userSpaceOnUse"
       id="clipPath1470">
      <path
         d="M 0,600 H 600 V 0 H 0 Z"
         id="path1468" />
    </clipPath>
    <clipPath
       clipPathUnits="userSpaceOnUse"
       id="clipPath1656">
      <path
         d="M 0,600 H 600 V 0 H 0 Z"
         id="path1654" />
    </clipPath>
    <clipPath
       clipPathUnits="userSpaceOnUse"
       id="clipPath1844">
      <path
         d="M 0,600 H 600 V 0 H 0 Z"
         id="path1842" />
    </clipPath>
    <clipPath
       clipPathUnits="userSpaceOnUse"
       id="clipPath2265">
      <path
         d="M 0,600 H 600 V 0 H 0 Z"
         id="path2263" />
    </clipPath>
    <clipPath
       clipPathUnits="userSpaceOnUse"
       id="clipPath2512">
      <path
         d="M 0,600 H 600 V 0 H 0 Z"
         id="path2510" />
    </clipPath>
    <clipPath
       clipPathUnits="userSpaceOnUse"
       id="clipPath2740">
      <path
         d="M 0,300 H 300 V 0 H 0 Z"
         id="path2738" />
    </clipPath>
    <clipPath
       clipPathUnits="userSpaceOnUse"
       id="clipPath2946">
      <path
         d="M 0,300 H 300 V 0 H 0 Z"
         id="path2944" />
    </clipPath>
    <clipPath
       clipPathUnits="userSpaceOnUse"
       id="clipPath3139">
      <path
         d="M 0,300 H 300 V 0 H 0 Z"
         id="path3137" />
    </clipPath>
    <clipPath
       clipPathUnits="userSpaceOnUse"
       id="clipPath3322">
      <path
         d="M 0,300 H 300 V 0 H 0 Z"
         id="path3320" />
    </clipPath>
    <clipPath
       clipPathUnits="userSpaceOnUse"
       id="clipPath3754">
      <path
         d="M 0,300 H 300 V 0 H 0 Z"
         id="path3752" />
    </clipPath>
  </defs>
  <path
     class="cls-5"
     d="M 68.460889,15.612808 A 14.751579,14.751579 0 0 1 64.047038,6.9012444 40.015109,40.015109 0 0 1 51.270064,4.9847555 39.666646,39.666646 0 0 1 42.035819,0.16436119 39.957033,39.957033 0 0 1 32.859632,5.0428362 40.015109,40.015109 0 0 1 20.082682,6.9013761 15.100042,15.100042 0 0 1 15.61075,15.612939 50.643215,50.643215 0 0 1 7.8864943,22.001404 c 0,0 1.509967,30.722782 11.6154237,42.512426 A 66.846723,66.846723 0 0 0 42.151981,81.472353 66.846723,66.846723 0 0 0 64.802043,64.51383 C 74.791295,52.898428 76.417446,22.001404 76.417446,22.001404 a 52.269376,52.269376 0 0 1 -7.782314,-6.388596"
     id="path19"
     style="fill:#000000;stroke-width:5.80771" />
</svg>
