<?xml version="1.0" encoding="UTF-8" standalone="no"?>
<!-- Created with Inkscape (http://www.inkscape.org/) -->

<svg
   width="76.096313mm"
   height="89.077271mm"
   viewBox="0 0 76.096313 89.077271"
   version="1.1"
   id="svg5"
   inkscape:version="1.1.2 (0a00cf5339, 2022-02-04)"
   sodipodi:docname="retaliate-simple.svg"
   xmlns:inkscape="http://www.inkscape.org/namespaces/inkscape"
   xmlns:sodipodi="http://sodipodi.sourceforge.net/DTD/sodipodi-0.dtd"
   xmlns="http://www.w3.org/2000/svg"
   xmlns:svg="http://www.w3.org/2000/svg">
  <sodipodi:namedview
     id="namedview7"
     pagecolor="#ffffff"
     bordercolor="#666666"
     borderopacity="1.0"
     inkscape:pageshadow="2"
     inkscape:pageopacity="0.0"
     inkscape:pagecheckerboard="0"
     inkscape:document-units="mm"
     showgrid="false"
     fit-margin-top="0"
     fit-margin-left="0"
     fit-margin-right="0"
     fit-margin-bottom="0"
     inkscape:zoom="2.7865881"
     inkscape:cx="178.17488"
     inkscape:cy="223.5709"
     inkscape:window-width="1850"
     inkscape:window-height="1043"
     inkscape:window-x="0"
     inkscape:window-y="0"
     inkscape:window-maximized="1"
     inkscape:current-layer="layer1" />
  <defs
     id="defs2">
    <clipPath
       clipPathUnits="userSpaceOnUse"
       id="clipPath854">
      <path
         d="M 0,300 H 300 V 0 H 0 Z"
         id="path852" />
    </clipPath>
  </defs>
  <g
     inkscape:label="Layer 1"
     inkscape:groupmode="layer"
     id="layer1"
     transform="translate(-41.22078,-42.180817)">
    <g
       id="g850"
       clip-path="url(#clipPath854)"
       transform="matrix(0.35277777,0,0,-0.35277777,26.352148,139.63628)"
       style="fill:#000000">
      <g
         id="g856"
         transform="translate(75.9717,104.1563)"
         style="fill:#000000">
        <path
           d="m 0,0 c 0,0 -33.958,50.147 -33.824,52.814 0.296,5.935 48.066,56.671 56.968,61.122 8.9,4.451 30.263,4.451 44.505,8.011 14.243,3.56 24.923,8.011 29.374,1.781 4.451,-6.231 -3.56,-36.496 -14.242,-41.836 C 64.609,72.805 49.847,73.88 49.847,73.88 l -4.451,-5.34 c 0,0 27.312,-27.88 22.253,-48.957 C 62.309,-2.67 48.066,-25.813 14.242,-34.715 3.052,-37.659 0,0 0,0"
           style="fill:#000000;fill-opacity:1;fill-rule:nonzero;stroke:none"
           id="path858" />
      </g>
      <g
         id="g860"
         transform="translate(152.1328,170.4082)"
         style="fill:#000000">
        <path
           d="M -30.7651,2.2881 C -46.863787,-31.522396 -49.185115,-44.191246 -69.9412,-95.505579 L -50.051,-146.659 c 0,0 52.809253,0 119.419,0 0,0 -7.245,42.13 -4.593,59.934 2.077,13.946 28.484,42.43 28.484,42.43 l -10.088,24.627 z"
           style="fill:#000000;fill-opacity:1;fill-rule:nonzero;stroke:none"
           id="path862"
           sodipodi:nodetypes="cccccccc" />
      </g>
      <g
         id="g864"
         transform="translate(65.9072,205.7207)"
         style="fill:#000000">
        <path
           d="m 0,0 -5.958,40.855 c 0,0 24.191,23.466 34.715,26.704 7.715,2.374 16.912,-4.451 16.912,-4.451 l 1.78,-35.011 c 0,0 -15.132,-1.78 -20.176,-4.451 C 19.462,19.511 0,0 0,0"
           style="fill:#000000;fill-opacity:1;fill-rule:nonzero;stroke:none"
           id="path866" />
      </g>
      <g
         id="g868"
         transform="translate(129.3789,236.1914)"
         style="fill:#000000">
        <path
           d="m 0,0 0.594,30.264 c 0,0 20.176,9.501 28.186,9.792 8.012,0.291 19.88,-14.243 19.88,-14.243 0,0 -2.405,-17.802 -6.527,-18.692 C 38.011,6.231 0,0 0,0"
           style="fill:#000000;fill-opacity:1;fill-rule:nonzero;stroke:none"
           id="path870" />
      </g>
      <g
         id="g872"
         transform="translate(192.5781,252.5103)"
         style="fill:#000000">
        <path
           d="m 0,0 c 0,0 -16.918,-50.498 -18.693,-70.913 -0.593,-6.824 28.484,-12.462 30.264,-8.011 1.781,4.45 19.879,63.198 18.99,70.32 C 29.67,-1.483 8.604,4.154 0,0"
           style="fill:#000000;fill-opacity:1;fill-rule:nonzero;stroke:none"
           id="path874" />
      </g>
      <g
         id="g876"
         transform="translate(231.1494,222.8394)"
         style="fill:#000000">
        <path
           d="m 0,0 c 0,0 -18.989,-52.517 -16.318,-55.484 5.362,-5.959 24.626,-9.198 29.966,0.593 5.341,9.792 13.056,32.045 13.056,37.386 0,5.34 -4.154,15.131 -7.715,16.912 C 15.009,1.397 5.341,2.374 0,0"
           style="fill:#000000;fill-opacity:1;fill-rule:nonzero;stroke:none"
           id="path878" />
      </g>
    </g>
  </g>
</svg>
