<?xml version="1.0" encoding="UTF-8"?>
<!DOCTYPE svg PUBLIC "-//W3C//DTD SVG 1.1//EN" "http://www.w3.org/Graphics/SVG/1.1/DTD/svg11.dtd">
<svg version="1.2" width="12.74mm" height="12.72mm" viewBox="1731 2130 1274 1272" preserveAspectRatio="xMidYMid" fill-rule="evenodd" stroke-width="28.222" stroke-linejoin="round" xmlns="http://www.w3.org/2000/svg" xmlns:ooo="http://xml.openoffice.org/svg/export" xmlns:xlink="http://www.w3.org/1999/xlink" xmlns:presentation="http://sun.com/xmlns/staroffice/presentation" xmlns:smil="http://www.w3.org/2001/SMIL20/" xmlns:anim="urn:oasis:names:tc:opendocument:xmlns:animation:1.0" xml:space="preserve">
 <defs class="EmbeddedBulletChars">
  <g id="bullet-char-template-57356" transform="scale(0.00048828125,-0.00048828125)">
   <path d="M 580,1141 L 1163,571 580,0 -4,571 580,1141 Z"/>
  </g>
  <g id="bullet-char-template-57354" transform="scale(0.00048828125,-0.00048828125)">
   <path d="M 8,1128 L 1137,1128 1137,0 8,0 8,1128 Z"/>
  </g>
  <g id="bullet-char-template-10146" transform="scale(0.00048828125,-0.00048828125)">
   <path d="M 174,0 L 602,739 174,1481 1456,739 174,0 Z M 1358,739 L 309,1346 659,739 1358,739 Z"/>
  </g>
  <g id="bullet-char-template-10132" transform="scale(0.00048828125,-0.00048828125)">
   <path d="M 2015,739 L 1276,0 717,0 1260,543 174,543 174,936 1260,936 717,1481 1274,1481 2015,739 Z"/>
  </g>
  <g id="bullet-char-template-10007" transform="scale(0.00048828125,-0.00048828125)">
   <path d="M 0,-2 C -7,14 -16,27 -25,37 L 356,567 C 262,823 215,952 215,954 215,979 228,992 255,992 264,992 276,990 289,987 310,991 331,999 354,1012 L 381,999 492,748 772,1049 836,1024 860,1049 C 881,1039 901,1025 922,1006 886,937 835,863 770,784 769,783 710,716 594,584 L 774,223 C 774,196 753,168 711,139 L 727,119 C 717,90 699,76 672,76 641,76 570,178 457,381 L 164,-76 C 142,-110 111,-127 72,-127 30,-127 9,-110 8,-76 1,-67 -2,-52 -2,-32 -2,-23 -1,-13 0,-2 Z"/>
  </g>
  <g id="bullet-char-template-10004" transform="scale(0.00048828125,-0.00048828125)">
   <path d="M 285,-33 C 182,-33 111,30 74,156 52,228 41,333 41,471 41,549 55,616 82,672 116,743 169,778 240,778 293,778 328,747 346,684 L 369,508 C 377,444 397,411 428,410 L 1163,1116 C 1174,1127 1196,1133 1229,1133 1271,1133 1292,1118 1292,1087 L 1292,965 C 1292,929 1282,901 1262,881 L 442,47 C 390,-6 338,-33 285,-33 Z"/>
  </g>
  <g id="bullet-char-template-9679" transform="scale(0.00048828125,-0.00048828125)">
   <path d="M 813,0 C 632,0 489,54 383,161 276,268 223,411 223,592 223,773 276,916 383,1023 489,1130 632,1184 813,1184 992,1184 1136,1130 1245,1023 1353,916 1407,772 1407,592 1407,412 1353,268 1245,161 1136,54 992,0 813,0 Z"/>
  </g>
  <g id="bullet-char-template-8226" transform="scale(0.00048828125,-0.00048828125)">
   <path d="M 346,457 C 273,457 209,483 155,535 101,586 74,649 74,723 74,796 101,859 155,911 209,963 273,989 346,989 419,989 480,963 531,910 582,859 608,796 608,723 608,648 583,586 532,535 482,483 420,457 346,457 Z"/>
  </g>
  <g id="bullet-char-template-8211" transform="scale(0.00048828125,-0.00048828125)">
   <path d="M -4,459 L 1135,459 1135,606 -4,606 -4,459 Z"/>
  </g>
  <g id="bullet-char-template-61548" transform="scale(0.00048828125,-0.00048828125)">
   <path d="M 173,740 C 173,903 231,1043 346,1159 462,1274 601,1332 765,1332 928,1332 1067,1274 1183,1159 1299,1043 1357,903 1357,740 1357,577 1299,437 1183,322 1067,206 928,148 765,148 601,148 462,206 346,322 231,437 173,577 173,740 Z"/>
  </g>
 </defs>
 <g class="Page">
  <g class="com.sun.star.drawing.ClosedBezierShape">
   <g id="id3">
    <rect class="BoundingBox" stroke="none" fill="none" x="1743" y="2141" width="1250" height="1250"/>
    <path fill="rgb(64,155,195)" stroke="none" d="M 2368,3390 C 2360,3390 2352,3386 2346,3380 L 1753,2788 C 1740,2775 1740,2755 1753,2742 L 2346,2150 C 2352,2144 2360,2141 2368,2141 2377,2141 2385,2144 2391,2150 L 2983,2742 C 2989,2748 2992,2756 2992,2765 2992,2773 2989,2782 2983,2788 L 2391,3380 C 2385,3386 2377,3390 2368,3390 Z"/>
   </g>
  </g>
  <g class="com.sun.star.drawing.ClosedBezierShape">
   <g id="id4">
    <rect class="BoundingBox" stroke="none" fill="none" x="1731" y="2130" width="1274" height="1272"/>
    <path fill="rgb(255,255,255)" stroke="none" d="M 2368,2130 C 2357,2130 2346,2134 2338,2142 L 1745,2734 C 1728,2751 1728,2779 1745,2795 L 2338,3388 C 2346,3397 2357,3401 2368,3401 2379,3401 2390,3397 2399,3388 L 2991,2795 C 3008,2779 3008,2751 2991,2734 L 2399,2142 C 2390,2134 2379,2130 2368,2130 Z M 2368,2152 C 2374,2152 2379,2154 2383,2158 L 2975,2750 C 2983,2758 2983,2772 2975,2780 L 2383,3373 C 2379,3377 2374,3379 2368,3379 2363,3379 2357,3377 2353,3373 L 1760,2780 C 1752,2772 1752,2758 1760,2750 L 2353,2158 C 2357,2154 2363,2152 2368,2152 Z"/>
   </g>
  </g>
  <g class="com.sun.star.drawing.ClosedBezierShape">
   <g id="id5">
    <rect class="BoundingBox" stroke="none" fill="none" x="2132" y="2524" width="474" height="473"/>
    <path fill="rgb(255,255,255)" stroke="none" d="M 2132,2750 C 2138,2620 2248,2518 2378,2524 2508,2529 2610,2640 2604,2770 2598,2900 2487,3001 2357,2995 2227,2990 2127,2880 2132,2750 Z"/>
   </g>
  </g>
  <g class="com.sun.star.drawing.ClosedBezierShape">
   <g id="id6">
    <rect class="BoundingBox" stroke="none" fill="none" x="2186" y="2577" width="367" height="367"/>
    <path fill="rgb(64,155,195)" stroke="none" d="M 2551,2768 C 2555,2667 2477,2582 2377,2577 2275,2573 2190,2651 2186,2752 2181,2853 2259,2938 2361,2942 2461,2946 2546,2868 2551,2768 Z"/>
   </g>
  </g>
  <g class="com.sun.star.drawing.PolyPolygonShape">
   <g id="id7">
    <rect class="BoundingBox" stroke="none" fill="none" x="2206" y="2780" width="156" height="401"/>
    <path fill="rgb(255,255,255)" stroke="none" d="M 2238,2956 L 2360,2780 2332,2993 2206,3180 2238,2956 Z"/>
   </g>
  </g>
  <g class="com.sun.star.drawing.PolyPolygonShape">
   <g id="id8">
    <rect class="BoundingBox" stroke="none" fill="none" x="2403" y="2840" width="123" height="274"/>
    <path fill="rgb(255,255,255)" stroke="none" d="M 2430,2987 L 2403,2840 2495,2959 2525,3113 2430,2987 Z"/>
   </g>
  </g>
  <g class="com.sun.star.drawing.PolyPolygonShape">
   <g id="id9">
    <rect class="BoundingBox" stroke="none" fill="none" x="2449" y="2602" width="273" height="123"/>
    <path fill="rgb(255,255,255)" stroke="none" d="M 2596,2696 L 2449,2724 2566,2632 2721,2602 2596,2696 Z"/>
   </g>
  </g>
  <g class="com.sun.star.drawing.PolyPolygonShape">
   <g id="id10">
    <rect class="BoundingBox" stroke="none" fill="none" x="2211" y="2407" width="123" height="273"/>
    <path fill="rgb(255,255,255)" stroke="none" d="M 2306,2532 L 2333,2679 2242,2561 2211,2407 2306,2532 Z"/>
   </g>
  </g>
  <g class="com.sun.star.drawing.PolyPolygonShape">
   <g id="id11">
    <rect class="BoundingBox" stroke="none" fill="none" x="2015" y="2795" width="274" height="123"/>
    <path fill="rgb(255,255,255)" stroke="none" d="M 2142,2823 L 2288,2795 2170,2887 2015,2917 2142,2823 Z"/>
   </g>
  </g>
  <g class="com.sun.star.drawing.PolyPolygonShape">
   <g id="id12">
    <rect class="BoundingBox" stroke="none" fill="none" x="2388" y="2768" width="401" height="155"/>
    <path fill="rgb(255,255,255)" stroke="none" d="M 2564,2890 L 2389,2768 2602,2794 2788,2922 2564,2890 Z"/>
   </g>
  </g>
  <g class="com.sun.star.drawing.PolyPolygonShape">
   <g id="id13">
    <rect class="BoundingBox" stroke="none" fill="none" x="2376" y="2339" width="156" height="401"/>
    <path fill="rgb(255,255,255)" stroke="none" d="M 2497,2562 L 2376,2739 2403,2526 2530,2339 2497,2562 Z"/>
   </g>
  </g>
  <g class="com.sun.star.drawing.PolyPolygonShape">
   <g id="id14">
    <rect class="BoundingBox" stroke="none" fill="none" x="1948" y="2598" width="401" height="154"/>
    <path fill="rgb(255,255,255)" stroke="none" d="M 2171,2629 L 2348,2751 2135,2725 1948,2598 2171,2629 Z"/>
   </g>
  </g>
 </g>
</svg>