<svg class="svg_icon" version="1.2" xmlns="http://www.w3.org/2000/svg" viewBox="0 0 580 580">
<defs><clipPath clipPathUnits="userSpaceOnUse" id="cp1"><path d="m590 590h-600v-600h600z"/></clipPath></defs><style>.a{fill:#803449}.b{fill:#fff}</style><g clip-path="url(#cp1)"><path class="a" d="m290 574.3c-3.9 0-7.6-1.5-10.4-4.3l-269.6-269.6c-2.8-2.8-4.3-6.5-4.3-10.4 0-3.9 1.5-7.6 4.3-10.4l269.6-269.6c2.8-2.8 6.5-4.3 10.4-4.3 3.9 0 7.6 1.5 10.4 4.3l269.6 269.6c2.8 2.8 4.3 6.5 4.3 10.4 0 3.9-1.5 7.6-4.3 10.4l-269.6 269.6c-2.8 2.8-6.5 4.3-10.4 4.3z"/><path fill-rule="evenodd" class="b" d="m303.9 6.4l269.7 269.7c7.7 7.7 7.7 20.1 0 27.8l-269.7 269.7c-3.8 3.8-8.9 5.7-13.9 5.7-5 0-10.1-1.9-13.9-5.7l-269.7-269.7c-7.7-7.7-7.7-20.1 0-27.8l269.7-269.7c3.8-3.8 8.9-5.7 13.9-5.7 5 0 10.1 1.9 13.9 5.7zm-20.7 7.1l-269.7 269.7c-3.8 3.7-3.8 9.9 0 13.7l269.7 269.6c1.8 1.8 4.2 2.9 6.8 2.9 2.6 0 5-1.1 6.8-2.9l269.7-269.6c3.8-3.8 3.8-10 0-13.7l-269.7-269.7c-1.8-1.8-4.2-2.8-6.8-2.8-2.6 0-5 1-6.8 2.8z"/><path fill-rule="evenodd" class="b" d="m407.8 350.4c-12.4 34.8-32.6 50.6-30.1 69.4-12.1-7.9-9-42.1-25.7-45.3-16.3-3.1-33.1 17.7-39.2 27.4-21-12.1-17.8-37.6-31.1-45.5-11.2-6.7-40.7 20.6-46.6 28.6-3.4 4.6-2.6 10 0.1 14.9 3.7 6.6 22.9 48 9 68 0.2-11.6-15.3-35.9-28.7-51.5-40.8-47.3-34.6-100.7-14.9-131.2 8.5-13.3 17.6-24.2 21.4-42.3-18.6-4.4-35.3 5.9-54.4 24.9-11.4-8.7-16.6-32.5-11.2-42.5 8.2-15.2 42.8-15.8 64.2-14-28.5-33-32.3-61.2-18.3-76.9 10.7-12 27 2.9 43.6 11.6 16.5 8.6 33.3 11.1 37.3 10.6 8.1-0.9 33-32.9 52.5-42.6 19.6-9.8 29.4 21 21.4 41.4 11.5 7.4 26.8-2.1 38.4-0.1 4.7 0.8 8.3 4.5 9.2 9.1 3.7 19.8-16.4 46.5-25.4 58.8-3.6 4.9-3.6 11.6 0 16.5 32.2 43.3 40.9 75.9 28.5 110.7zm-50.6-130.1c-28-5.2-48.6 7.5-81.1 1.3-13.2-2.6-33.2-5.5-39.8-5.2q-5.1 12-1.3 25.1 40.9 4.9 58.9 5c27.3 0.1 39.1-10.7 65.4-13 0.7-3 0.7-6.8-2.1-13.2z"/><path class="a" d="m325.6 347c-2.3 0-4.5-0.9-6.3-2.4l-1.1-0.9c-3.9-3.5-4.4-9.3-1-13.4l0.1-0.1 18.1-19.7-19.9-19.8-0.1-0.2c-2.7-2.9-3.2-7.1-1.3-10.7l0.5-1c1.6-3.2 4.9-5.2 8.5-5.2 2.7 0 5.2 1.1 7 3l18.1 20.2 14.3-18.7 0.2-0.3c1.8-1.8 4.3-2.8 6.9-2.8 2.8 0 5.5 1.3 7.4 3.5l1.5 1.9c3.1 3.8 2.9 9.3-0.6 12.8l-17.1 17.3 15.8 17.7c2.9 3.2 3.2 8 0.8 11.6l-0.5 0.8c-1.8 2.8-4.8 4.4-8.1 4.4-2.5 0-5.1-1.1-6.9-3l-0.2-0.2-13.4-17.1-15.4 18.9-0.1 0.1c-1.8 2.1-4.4 3.3-7.2 3.3z"/></g></svg>
