<?xml version="1.0" encoding="UTF-8"?>
<!DOCTYPE svg PUBLIC "-//W3C//DTD SVG 1.1//EN" "http://www.w3.org/Graphics/SVG/1.1/DTD/svg11.dtd">
<svg version="1.2" width="12.74mm" height="12.72mm" viewBox="1731 5897 1274 1272" preserveAspectRatio="xMidYMid" fill-rule="evenodd" stroke-width="28.222" stroke-linejoin="round" xmlns="http://www.w3.org/2000/svg" xmlns:ooo="http://xml.openoffice.org/svg/export" xmlns:xlink="http://www.w3.org/1999/xlink" xmlns:presentation="http://sun.com/xmlns/staroffice/presentation" xmlns:smil="http://www.w3.org/2001/SMIL20/" xmlns:anim="urn:oasis:names:tc:opendocument:xmlns:animation:1.0" xml:space="preserve">
 <defs class="EmbeddedBulletChars">
  <g id="bullet-char-template-57356" transform="scale(0.00048828125,-0.00048828125)">
   <path d="M 580,1141 L 1163,571 580,0 -4,571 580,1141 Z"/>
  </g>
  <g id="bullet-char-template-57354" transform="scale(0.00048828125,-0.00048828125)">
   <path d="M 8,1128 L 1137,1128 1137,0 8,0 8,1128 Z"/>
  </g>
  <g id="bullet-char-template-10146" transform="scale(0.00048828125,-0.00048828125)">
   <path d="M 174,0 L 602,739 174,1481 1456,739 174,0 Z M 1358,739 L 309,1346 659,739 1358,739 Z"/>
  </g>
  <g id="bullet-char-template-10132" transform="scale(0.00048828125,-0.00048828125)">
   <path d="M 2015,739 L 1276,0 717,0 1260,543 174,543 174,936 1260,936 717,1481 1274,1481 2015,739 Z"/>
  </g>
  <g id="bullet-char-template-10007" transform="scale(0.00048828125,-0.00048828125)">
   <path d="M 0,-2 C -7,14 -16,27 -25,37 L 356,567 C 262,823 215,952 215,954 215,979 228,992 255,992 264,992 276,990 289,987 310,991 331,999 354,1012 L 381,999 492,748 772,1049 836,1024 860,1049 C 881,1039 901,1025 922,1006 886,937 835,863 770,784 769,783 710,716 594,584 L 774,223 C 774,196 753,168 711,139 L 727,119 C 717,90 699,76 672,76 641,76 570,178 457,381 L 164,-76 C 142,-110 111,-127 72,-127 30,-127 9,-110 8,-76 1,-67 -2,-52 -2,-32 -2,-23 -1,-13 0,-2 Z"/>
  </g>
  <g id="bullet-char-template-10004" transform="scale(0.00048828125,-0.00048828125)">
   <path d="M 285,-33 C 182,-33 111,30 74,156 52,228 41,333 41,471 41,549 55,616 82,672 116,743 169,778 240,778 293,778 328,747 346,684 L 369,508 C 377,444 397,411 428,410 L 1163,1116 C 1174,1127 1196,1133 1229,1133 1271,1133 1292,1118 1292,1087 L 1292,965 C 1292,929 1282,901 1262,881 L 442,47 C 390,-6 338,-33 285,-33 Z"/>
  </g>
  <g id="bullet-char-template-9679" transform="scale(0.00048828125,-0.00048828125)">
   <path d="M 813,0 C 632,0 489,54 383,161 276,268 223,411 223,592 223,773 276,916 383,1023 489,1130 632,1184 813,1184 992,1184 1136,1130 1245,1023 1353,916 1407,772 1407,592 1407,412 1353,268 1245,161 1136,54 992,0 813,0 Z"/>
  </g>
  <g id="bullet-char-template-8226" transform="scale(0.00048828125,-0.00048828125)">
   <path d="M 346,457 C 273,457 209,483 155,535 101,586 74,649 74,723 74,796 101,859 155,911 209,963 273,989 346,989 419,989 480,963 531,910 582,859 608,796 608,723 608,648 583,586 532,535 482,483 420,457 346,457 Z"/>
  </g>
  <g id="bullet-char-template-8211" transform="scale(0.00048828125,-0.00048828125)">
   <path d="M -4,459 L 1135,459 1135,606 -4,606 -4,459 Z"/>
  </g>
  <g id="bullet-char-template-61548" transform="scale(0.00048828125,-0.00048828125)">
   <path d="M 173,740 C 173,903 231,1043 346,1159 462,1274 601,1332 765,1332 928,1332 1067,1274 1183,1159 1299,1043 1357,903 1357,740 1357,577 1299,437 1183,322 1067,206 928,148 765,148 601,148 462,206 346,322 231,437 173,577 173,740 Z"/>
  </g>
 </defs>
 <g class="Page">
  <g class="com.sun.star.drawing.ClosedBezierShape">
   <g id="id3">
    <rect class="BoundingBox" stroke="none" fill="none" x="1743" y="5908" width="1250" height="1250"/>
    <path fill="rgb(111,15,100)" stroke="none" d="M 2368,7157 C 2360,7157 2352,7153 2346,7147 L 1753,6554 C 1740,6542 1740,6521 1753,6509 L 2346,5917 C 2352,5911 2360,5908 2368,5908 2377,5908 2385,5911 2391,5917 L 2983,6509 C 2989,6515 2992,6523 2992,6532 2992,6540 2989,6548 2983,6554 L 2391,7147 C 2385,7153 2377,7157 2368,7157 Z"/>
   </g>
  </g>
  <g class="com.sun.star.drawing.ClosedBezierShape">
   <g id="id4">
    <rect class="BoundingBox" stroke="none" fill="none" x="1731" y="5897" width="1274" height="1272"/>
    <path fill="rgb(255,255,255)" stroke="none" d="M 2368,5897 C 2357,5897 2346,5901 2338,5909 L 1745,6501 C 1728,6518 1728,6545 1745,6562 L 2338,7155 C 2346,7163 2357,7168 2368,7168 2379,7168 2390,7163 2399,7155 L 2991,6562 C 3008,6545 3008,6518 2991,6501 L 2399,5909 C 2390,5901 2379,5897 2368,5897 Z M 2368,5919 C 2374,5919 2379,5921 2383,5925 L 2975,6517 C 2983,6525 2983,6538 2975,6547 L 2383,7139 C 2379,7143 2374,7146 2368,7146 2363,7146 2357,7143 2353,7139 L 1760,6547 C 1752,6538 1752,6525 1760,6517 L 2353,5925 C 2357,5921 2363,5919 2368,5919 Z"/>
   </g>
  </g>
  <g class="com.sun.star.drawing.ClosedBezierShape">
   <g id="id5">
    <rect class="BoundingBox" stroke="none" fill="none" x="2129" y="6292" width="479" height="480"/>
    <path fill="rgb(255,255,255)" stroke="none" d="M 2368,6727 C 2261,6727 2174,6640 2174,6533 2174,6424 2261,6337 2368,6337 2476,6337 2563,6424 2563,6533 2563,6640 2476,6727 2368,6727 Z M 2368,6293 C 2237,6293 2129,6400 2129,6533 2129,6664 2237,6771 2368,6771 2500,6771 2607,6664 2607,6533 2607,6400 2500,6293 2368,6293 Z"/>
   </g>
  </g>
  <g class="com.sun.star.drawing.ClosedBezierShape">
   <g id="id6">
    <rect class="BoundingBox" stroke="none" fill="none" x="1991" y="6178" width="755" height="679"/>
    <path fill="rgb(255,255,255)" stroke="none" d="M 2592,6832 C 2502,6832 2428,6759 2428,6668 2428,6622 2447,6580 2478,6550 L 2479,6549 C 2480,6548 2481,6547 2482,6546 2484,6544 2486,6543 2488,6541 2490,6539 2492,6538 2493,6537 2494,6536 2495,6536 2496,6535 2497,6534 2498,6534 2499,6533 2522,6516 2550,6506 2581,6504 L 2581,6503 C 2584,6503 2587,6503 2590,6504 2591,6504 2592,6503 2592,6503 2660,6503 2718,6544 2744,6601 2744,6602 2744,6603 2745,6604 2745,6597 2744,6590 2743,6583 2730,6508 2693,6450 2626,6411 2611,6403 2605,6395 2606,6377 2607,6321 2588,6270 2552,6226 2537,6208 2520,6192 2499,6178 2520,6206 2532,6240 2532,6278 2532,6308 2524,6336 2510,6360 2509,6362 2507,6365 2506,6367 2492,6388 2474,6406 2452,6419 2431,6433 2404,6441 2377,6443 2376,6443 2376,6443 2376,6443 2374,6443 2372,6443 2369,6443 L 2368,6443 C 2367,6443 2367,6443 2367,6443 2366,6443 2364,6443 2363,6443 2274,6440 2203,6367 2203,6278 2203,6241 2216,6207 2236,6179 2235,6180 2234,6180 2234,6181 2162,6232 2127,6302 2131,6391 2131,6396 2131,6400 2125,6403 2062,6436 2021,6485 2001,6552 1996,6568 1994,6586 1991,6603 L 1992,6603 C 2017,6545 2075,6503 2143,6503 2147,6503 2151,6504 2155,6504 2180,6506 2202,6513 2222,6524 2272,6550 2308,6606 2308,6666 2308,6667 2308,6667 2308,6668 2308,6692 2302,6715 2293,6735 2293,6736 2293,6736 2293,6736 2293,6737 2292,6739 2291,6741 2264,6795 2208,6832 2143,6832 2137,6832 2131,6832 2125,6831 2209,6870 2290,6863 2368,6812 2446,6863 2527,6870 2612,6831 L 2611,6831 C 2605,6832 2599,6832 2592,6832 Z"/>
   </g>
  </g>
 </g>
</svg>