<svg class="svg_icon" version="1.2" xmlns="http://www.w3.org/2000/svg" viewBox="0 0 580 580">
<defs><clipPath clipPathUnits="userSpaceOnUse" id="cp1"><path d="m590 590h-600v-600h600z"/></clipPath></defs><style>.a{fill:#553857;stroke:#fff;stroke-width:1.3}.b{fill:#fff}</style><g clip-path="url(#cp1)"><path class="a" d="m290 5.7c3.9 0 7.6 1.5 10.4 4.3l269.6 269.6c5.8 5.7 5.8 15.1 0 20.8l-269.6 269.6c-2.8 2.8-6.5 4.3-10.4 4.3-3.9 0-7.6-1.5-10.4-4.3l-269.6-269.6c-2.8-2.8-4.3-6.5-4.3-10.4 0-3.9 1.5-7.6 4.3-10.4l269.6-269.6c2.8-2.8 6.5-4.3 10.4-4.3z"/><path fill-rule="evenodd" class="b" d="m276.1 573.6l-269.7-269.7c-7.7-7.7-7.7-20.1 0-27.8l269.7-269.7c3.8-3.8 8.9-5.7 13.9-5.7 5 0 10.1 1.9 13.9 5.7l269.7 269.7c7.7 7.7 7.7 20.1 0 27.8l-269.7 269.7c-3.8 3.8-8.9 5.7-13.9 5.7-5 0-10.1-1.9-13.9-5.7zm20.7-7.1l269.7-269.7c3.8-3.7 3.8-9.9 0-13.6l-269.7-269.7c-1.8-1.8-4.2-2.8-6.8-2.8-2.6 0-5 1-6.8 2.8l-269.7 269.7c-3.8 3.7-3.8 9.9 0 13.6l269.7 269.7c1.8 1.8 4.2 2.8 6.8 2.8 2.6 0 5-1 6.8-2.8z"/><path class="b" d="m212.4 385h155.2c2.7 0 4.3 3 2.7 5.2l-77 107.6c-1.6 2.2-5 2.2-6.6 0l-77-107.6c-1.6-2.2 0-5.2 2.7-5.2z"/><path class="b" d="m257.4 257.7l32.6 32.6 32.6-32.6v136.1h-32.6-32.6z"/><path class="b" d="m373.4 307.9h93.1c1.6 0 2.6 1.8 1.6 3.1l-46.2 64.5c-0.9 1.4-2.9 1.4-3.9 0l-46.2-64.5c-1-1.3 0-3.1 1.6-3.1z"/><path class="b" d="m400.4 231.5l19.6 19.5 19.5-19.5v81.7h-19.5-19.6z"/><path class="b" d="m114 307.9h93.1c1.6 0 2.6 1.8 1.6 3.1l-46.2 64.5c-1 1.4-3 1.4-3.9 0l-46.2-64.5c-1-1.3 0-3.1 1.6-3.1z"/><path class="b" d="m141 231.5l19.5 19.5 19.6-19.5v81.7h-19.6-19.5z"/><path class="b" d="m257.4 102.3l32.6 32.6 32.6-32.6v32.6l-32.6 32.6-32.6-32.6z"/><path class="b" d="m257.4 174l32.6 32.6 32.6-32.6v51.1l-32.6 32.6-32.6-32.6z"/></g></svg>
