<svg class="svg_icon" version="1.2" xmlns="http://www.w3.org/2000/svg" viewBox="0 0 580 580">
<defs><clipPath clipPathUnits="userSpaceOnUse" id="cp1"><path d="m-10-10h600v600h-600z"/></clipPath></defs><style>.a{fill:#dfa431}.b{fill:#fff}</style><g clip-path="url(#cp1)"><path class="a" d="m290 574.3c-3.9 0-7.6-1.5-10.4-4.3l-269.6-269.6c-5.8-5.7-5.8-15.1 0-20.8l269.6-269.6c2.8-2.8 6.5-4.3 10.4-4.3 3.9 0 7.6 1.5 10.4 4.3l269.6 269.6c2.8 2.8 4.3 6.5 4.3 10.4 0 3.9-1.5 7.6-4.3 10.4l-269.6 269.6c-2.8 2.8-6.5 4.3-10.4 4.3z"/><path fill-rule="evenodd" class="b" d="m303.9 6.4l269.7 269.7c7.7 7.7 7.7 20.1 0 27.8l-269.7 269.7c-3.8 3.8-8.9 5.7-13.9 5.7-5 0-10.1-1.9-13.9-5.7l-269.7-269.7c-7.7-7.7-7.7-20.1 0-27.8l269.7-269.7c3.8-3.8 8.9-5.7 13.9-5.7 5 0 10.1 1.9 13.9 5.7zm-20.7 7.1l-269.7 269.7c-3.8 3.7-3.8 9.9 0 13.6l269.7 269.7c1.8 1.8 4.2 2.8 6.8 2.8 2.6 0 5-1 6.8-2.8l269.7-269.7c3.8-3.7 3.8-9.9 0-13.6l-269.7-269.7c-1.8-1.8-4.2-2.8-6.8-2.8-2.6 0-5 1-6.8 2.8z"/><path class="b" d="m206.6 272.1h-93.1c-1.6 0-2.6-1.8-1.6-3.1l46.2-64.5c0.9-1.4 2.9-1.4 3.9 0l46.2 64.5c1 1.3 0 3.1-1.6 3.1z"/><path class="b" d="m179.6 348.5l-19.6-19.5-19.5 19.5v-81.7h19.5 19.6z"/><path class="b" d="m466 272.1h-93.1c-1.6 0-2.6-1.8-1.6-3.1l46.2-64.5c1-1.4 3-1.4 3.9 0l46.2 64.5c1 1.3 0 3.1-1.6 3.1z"/><path class="b" d="m439 348.5l-19.5-19.5-19.6 19.5v-81.7h19.6 19.5z"/><path class="b" d="m367.6 195h-155.2c-2.7 0-4.3-3-2.7-5.2l77-107.6c1.6-2.2 5-2.2 6.6 0l77 107.6c1.6 2.2 0 5.2-2.7 5.2z"/><path class="b" d="m322.6 322.3l-32.6-32.6-32.6 32.6v-136.1h32.6 32.6z"/><path class="b" d="m322.6 477.7l-32.6-32.6-32.6 32.6v-32.6l32.6-32.6 32.6 32.6z"/><path class="b" d="m322.6 406l-32.6-32.6-32.6 32.6v-51.1l32.6-32.6 32.6 32.6z"/></g></svg>
