<?xml version="1.0" encoding="UTF-8" standalone="no"?>
<!-- Created with Inkscape (http://www.inkscape.org/) -->

<svg
   width="204.15126mm"
   height="204.15073mm"
   viewBox="0 0 204.15127 204.15072"
   version="1.1"
   id="svg5"
   sodipodi:docname="plague.svg"
   inkscape:version="1.2.2 (b0a8486541, 2022-12-01)"
   xmlns:inkscape="http://www.inkscape.org/namespaces/inkscape"
   xmlns:sodipodi="http://sodipodi.sourceforge.net/DTD/sodipodi-0.dtd"
   xmlns="http://www.w3.org/2000/svg"
   xmlns:svg="http://www.w3.org/2000/svg">
  <sodipodi:namedview
     id="namedview78"
     pagecolor="#ffffff"
     bordercolor="#000000"
     borderopacity="0.25"
     inkscape:showpageshadow="2"
     inkscape:pageopacity="0.0"
     inkscape:pagecheckerboard="0"
     inkscape:deskcolor="#d1d1d1"
     inkscape:document-units="mm"
     showgrid="false"
     inkscape:zoom="1.0173754"
     inkscape:cx="388.74539"
     inkscape:cy="390.71124"
     inkscape:window-width="1854"
     inkscape:window-height="1043"
     inkscape:window-x="0"
     inkscape:window-y="0"
     inkscape:window-maximized="1"
     inkscape:current-layer="svg5" />
  <defs
     id="defs2">
    <clipPath
       clipPathUnits="userSpaceOnUse"
       id="clipPath1104">
      <path
         d="M 0,600 H 600 V 0 H 0 Z"
         id="path1102" />
    </clipPath>
    <clipPath
       clipPathUnits="userSpaceOnUse"
       id="clipPath1286">
      <path
         d="M 0,600 H 600 V 0 H 0 Z"
         id="path1284" />
    </clipPath>
    <clipPath
       clipPathUnits="userSpaceOnUse"
       id="clipPath1470">
      <path
         d="M 0,600 H 600 V 0 H 0 Z"
         id="path1468" />
    </clipPath>
    <clipPath
       clipPathUnits="userSpaceOnUse"
       id="clipPath1656">
      <path
         d="M 0,600 H 600 V 0 H 0 Z"
         id="path1654" />
    </clipPath>
    <clipPath
       clipPathUnits="userSpaceOnUse"
       id="clipPath1844">
      <path
         d="M 0,600 H 600 V 0 H 0 Z"
         id="path1842" />
    </clipPath>
    <clipPath
       clipPathUnits="userSpaceOnUse"
       id="clipPath2265">
      <path
         d="M 0,600 H 600 V 0 H 0 Z"
         id="path2263" />
    </clipPath>
    <clipPath
       clipPathUnits="userSpaceOnUse"
       id="clipPath2512">
      <path
         d="M 0,600 H 600 V 0 H 0 Z"
         id="path2510" />
    </clipPath>
    <clipPath
       clipPathUnits="userSpaceOnUse"
       id="clipPath2740">
      <path
         d="M 0,300 H 300 V 0 H 0 Z"
         id="path2738" />
    </clipPath>
    <clipPath
       clipPathUnits="userSpaceOnUse"
       id="clipPath2946">
      <path
         d="M 0,300 H 300 V 0 H 0 Z"
         id="path2944" />
    </clipPath>
    <clipPath
       clipPathUnits="userSpaceOnUse"
       id="clipPath3139">
      <path
         d="M 0,300 H 300 V 0 H 0 Z"
         id="path3137" />
    </clipPath>
    <clipPath
       clipPathUnits="userSpaceOnUse"
       id="clipPath3322">
      <path
         d="M 0,300 H 300 V 0 H 0 Z"
         id="path3320" />
    </clipPath>
    <clipPath
       clipPathUnits="userSpaceOnUse"
       id="clipPath3754">
      <path
         d="M 0,300 H 300 V 0 H 0 Z"
         id="path3752" />
    </clipPath>
    <clipPath
       clipPathUnits="userSpaceOnUse"
       id="clipPath3928">
      <path
         d="M 0,300 H 300 V 0 H 0 Z"
         id="path3926" />
    </clipPath>
    <clipPath
       clipPathUnits="userSpaceOnUse"
       id="clipPath4106">
      <path
         d="M 0,300 H 300 V 0 H 0 Z"
         id="path4104" />
    </clipPath>
    <clipPath
       clipPathUnits="userSpaceOnUse"
       id="clipPath4300">
      <path
         d="M 0,300 H 300 V 0 H 0 Z"
         id="path4298" />
    </clipPath>
    <clipPath
       clipPathUnits="userSpaceOnUse"
       id="clipPath4493">
      <path
         d="M 0,300 H 300 V 0 H 0 Z"
         id="path4491" />
    </clipPath>
    <clipPath
       clipPathUnits="userSpaceOnUse"
       id="clipPath4688">
      <path
         d="M 0,300 H 300 V 0 H 0 Z"
         id="path4686" />
    </clipPath>
    <clipPath
       clipPathUnits="userSpaceOnUse"
       id="clipPath4913">
      <path
         d="M 0,600 H 600 V 0 H 0 Z"
         id="path4911" />
    </clipPath>
    <clipPath
       clipPathUnits="userSpaceOnUse"
       id="clipPath5244">
      <path
         d="M 0,600 H 600 V 0 H 0 Z"
         id="path5242" />
    </clipPath>
    <clipPath
       clipPathUnits="userSpaceOnUse"
       id="clipPath5260">
      <path
         d="M 286.083,583.583 16.416,313.916 c -7.685,-7.686 -7.685,-20.146 0,-27.833 v 0 L 286.083,16.417 c 7.687,-7.686 20.147,-7.686 27.833,0 v 0 l 269.667,269.666 c 7.686,7.687 7.686,20.147 0,27.833 v 0 L 313.916,583.583 c -3.843,3.843 -8.879,5.765 -13.916,5.765 v 0 c -5.037,0 -10.074,-1.922 -13.917,-5.765"
         id="path5258" />
    </clipPath>
    <clipPath
       clipPathUnits="userSpaceOnUse"
       id="clipPath5462">
      <path
         d="M 0,600 H 600 V 0 H 0 Z"
         id="path5460" />
    </clipPath>
    <clipPath
       clipPathUnits="userSpaceOnUse"
       id="clipPath5478">
      <path
         d="M 286.083,583.583 16.417,313.916 c -7.687,-7.686 -7.687,-20.146 0,-27.833 v 0 L 286.083,16.417 c 7.687,-7.686 20.147,-7.686 27.834,0 v 0 l 269.666,269.666 c 7.686,7.687 7.686,20.147 0,27.833 v 0 L 313.917,583.583 c -3.843,3.843 -8.88,5.765 -13.917,5.765 v 0 c -5.037,0 -10.074,-1.922 -13.917,-5.765"
         id="path5476" />
    </clipPath>
    <clipPath
       clipPathUnits="userSpaceOnUse"
       id="clipPath5490">
      <path
         d="M 0,600 H 600 V 0 H 0 Z"
         id="path5488" />
    </clipPath>
    <clipPath
       clipPathUnits="userSpaceOnUse"
       id="clipPath5808">
      <path
         d="M 0,600 H 600 V 0 H 0 Z"
         id="path5806" />
    </clipPath>
    <clipPath
       clipPathUnits="userSpaceOnUse"
       id="clipPath6067">
      <path
         d="M 0,600 H 600 V 0 H 0 Z"
         id="path6065" />
    </clipPath>
    <clipPath
       clipPathUnits="userSpaceOnUse"
       id="clipPath6304">
      <path
         d="M 0,600 H 600 V 0 H 0 Z"
         id="path6302" />
    </clipPath>
    <clipPath
       clipPathUnits="userSpaceOnUse"
       id="clipPath6531">
      <path
         d="M 0,600 H 600 V 0 H 0 Z"
         id="path6529" />
    </clipPath>
    <clipPath
       clipPathUnits="userSpaceOnUse"
       id="clipPath6760">
      <path
         d="M 0,600 H 600 V 0 H 0 Z"
         id="path6758" />
    </clipPath>
    <clipPath
       clipPathUnits="userSpaceOnUse"
       id="clipPath7051">
      <path
         d="M 0,600 H 600 V 0 H 0 Z"
         id="path7049" />
    </clipPath>
    <clipPath
       clipPathUnits="userSpaceOnUse"
       id="clipPath7392">
      <path
         d="M 0,600 H 600 V 0 H 0 Z"
         id="path7390" />
    </clipPath>
    <clipPath
       clipPathUnits="userSpaceOnUse"
       id="clipPath7627">
      <path
         d="M 0,600 H 600 V 0 H 0 Z"
         id="path7625" />
    </clipPath>
  </defs>
  <g
     id="g352"
     transform="matrix(0.97441266,0,0,0.97441266,0.58680245,1.9254967)">
    <path
       style="fill:#000000;fill-opacity:1;stroke:#fdd307;stroke-width:5.99098;stroke-dasharray:none;stroke-opacity:1"
       d="M 102.28272,9.6399267 185.79071,69.998628 155.25828,169.78198 49.601785,169.8384 19.155906,70.888338 Z"
       id="path479"
       sodipodi:nodetypes="cccccc" />
    <path
       style="fill:#fdd307;fill-opacity:1;stroke-width:1.86484"
       d="m 162.23228,142.22363 c -0.66323,-0.66325 -3.77191,-0.14309 -6.90801,1.15576 -4.87117,2.0177 -6.1918,1.91838 -9.06458,-0.68156 -6.15189,-5.56739 -7.7168,-3.76219 -7.24372,8.35573 0.35451,9.08697 -0.21004,11.82273 -2.78349,13.48845 -2.4852,1.60846 -3.85191,1.45276 -5.93621,-0.67594 -2.27756,-2.32634 -2.37166,-5.06555 -0.59275,-17.24288 1.84873,-12.65351 1.73815,-14.85424 -0.87801,-17.47041 -4.12356,-4.12355 -7.409,-1.48886 -6.93424,5.56061 0.7013,10.40916 0.0423,12.4007 -4.11707,12.4007 -3.81739,0 -3.92198,-0.55751 -2.71264,-14.45249 1.372,-15.76369 -1.02362,-22.71476 -7.03349,-20.40859 -3.66125,1.40498 -4.22695,16.62207 -1.04404,28.08521 1.10113,3.96568 1.48724,9.26156 0.85804,11.76861 -0.96053,3.82697 -2.10608,4.46527 -7.14082,3.97865 -5.979143,-0.57796 -5.996192,-0.60967 -5.826474,-10.83621 0.09374,-5.64117 0.841204,-15.88794 1.661405,-22.77058 1.974275,-16.56809 0.0047,-19.37257 -19.084655,-27.168946 C 60.706455,88.470653 47.151122,79.521748 47.151122,75.306072 c 0,-4.910559 7.807235,-3.06132 27.621307,6.542432 20.543144,9.957152 24.594176,11.011698 24.594176,6.402172 0,-1.863052 -5.900057,-5.587045 -16.31732,-10.299128 C 58.291103,66.752502 53.678048,63.952741 53.678048,60.125705 c 0,-2.527773 1.609459,-3.611927 5.990839,-4.035454 4.458912,-0.431352 11.452711,2.329293 27.351432,10.795393 13.673031,7.280945 21.809771,10.647875 22.608541,9.355445 1.88801,-3.054836 -2.18036,-6.899707 -13.923739,-13.15887 C 83.173053,56.402697 72.656697,47.298381 73.725137,44.053525 c 1.593037,-4.837892 9.228153,-3.436355 19.680796,3.612631 18.619177,12.556321 34.238877,25.35552 35.672547,29.23112 0.76572,2.069991 0.23329,9.274814 -1.18326,16.010788 -2.74309,13.043846 -1.28721,20.638916 3.95602,20.638916 4.38286,0 5.01346,-2.65217 5.57485,-23.447203 0.51663,-19.131738 0.39893,-19.790604 -4.07188,-22.835574 -10.05055,-6.845082 -13.47463,-11.302372 -13.44582,-17.503177 0.0352,-7.748945 2.44602,-11.788416 5.82367,-9.761349 7.22188,4.334086 18.25063,14.921135 19.12018,18.354248 0.54483,2.15048 4.35311,5.979843 8.46321,8.509659 8.58775,5.285806 11.36346,10.799692 12.9723,25.768894 1.05539,9.819712 3.08557,12.064712 7.38102,12.064712 m -92.950257,9.40836 C 71.66417,110.83053 64.244657,106.7752 59.739087,102.63876 49.45631,93.19831 54.153027,92.522532 73.530112,100.65453 c 12.643788,5.30619 18.377437,9.43974 18.377437,13.24889 0,1.66513 -6.804555,1.78805 -11.189036,0.20228 z"
       id="path414"
       sodipodi:nodetypes="cssssscsssssssssssssssscsssssssssscsssscssssss" />
  </g>
</svg>
