<?xml version="1.0" encoding="UTF-8" standalone="no"?>
<svg
   version="1.1"
   viewBox="-10 0 970 1000"
   id="svg6"
   sodipodi:docname="climbing-gear.svg"
   inkscape:version="1.1.2 (0a00cf5339, 2022-02-04)"
   xmlns:inkscape="http://www.inkscape.org/namespaces/inkscape"
   xmlns:sodipodi="http://sodipodi.sourceforge.net/DTD/sodipodi-0.dtd"
   xmlns="http://www.w3.org/2000/svg"
   xmlns:svg="http://www.w3.org/2000/svg">
  <defs
     id="defs10" />
  <sodipodi:namedview
     id="namedview8"
     pagecolor="#ffffff"
     bordercolor="#666666"
     borderopacity="1.0"
     inkscape:pageshadow="2"
     inkscape:pageopacity="0.0"
     inkscape:pagecheckerboard="0"
     showgrid="false"
     inkscape:zoom="0.1955"
     inkscape:cx="-1240.4092"
     inkscape:cy="-48.59335"
     inkscape:window-width="1850"
     inkscape:window-height="1016"
     inkscape:window-x="0"
     inkscape:window-y="0"
     inkscape:window-maximized="1"
     inkscape:current-layer="svg6" />
  <path
     style="fill:#000000;stroke-width:1.58452"
     d="M 149.71732,970.96275 C 124.18326,965.74543 99.94056,952.31633 79.878338,932.27588 62.994632,915.4105 51.699453,893.2812 46.520919,866.92268 43.903233,853.5988 44.225665,818.54576 47.097633,804.22626 L 49.3998,792.74785 43.863724,784.52726 C 4.214574,725.65165 15.225292,645.93024 71.135281,587.07157 112.72093,543.29268 189.85256,501.95189 279.64845,475.31329 c 13.50808,-4.00727 27.64608,-7.96404 31.41776,-8.79281 3.77169,-0.82879 7.27449,-1.92375 7.784,-2.43326 0.5095,-0.50951 -3.40644,-5.43855 -8.70207,-10.95341 -6.7742,-7.05462 -10.17679,-12.06339 -11.47819,-16.89641 -5.94806,-22.08942 14.41445,-42.10765 36.19668,-35.58469 6.6891,2.00314 18.02226,12.86907 122.57254,117.51935 64.39827,64.45986 115.93265,117.27925 116.85879,119.77273 4.61407,12.42207 -0.18741,28.21477 -10.65452,35.04424 -10.9527,7.1463 -22.30453,7.16074 -32.79501,0.0417 -5.25489,-3.56599 -5.59845,-3.61263 -5.59845,-0.75966 0,4.44019 7.58364,27.80222 12.7035,39.13422 13.7737,30.48589 40.01892,57.66721 70.4841,72.99815 12.91364,6.49849 32.21583,12.40343 48.1703,14.73628 18.63172,2.72432 54.15992,1.17687 71.78276,-3.12654 11.89248,-2.90406 14.81573,-3.10906 21.24638,-1.4898 13.87777,3.49448 24.81692,19.86066 21.84582,32.68383 -2.0972,9.05148 -8.33237,17.42128 -15.59858,20.9388 -20.12998,9.74475 -77.12228,14.27572 -110.33549,8.77182 -43.60151,-7.22539 -82.66486,-26.32128 -113.84313,-55.65154 -13.32241,-12.53279 -29.20977,-32.33321 -36.37748,-45.33728 -2.28003,-4.13654 -4.58629,-7.53126 -5.12506,-7.54381 -0.53879,-0.0126 -2.21087,4.43365 -3.71574,9.88046 -4.93281,17.85384 -15.37718,49.21882 -21.6561,65.03432 -14.38505,36.2334 -29.27916,59.95518 -58.33769,92.9143 -19.48786,22.10375 -39.41366,35.86525 -61.02914,42.14906 -14.92375,4.33844 -43.22791,2.64079 -62.76864,-3.76478 l -15.1747,-4.97437 -13.72252,5.53337 c -39.26464,15.83277 -76.3701,21.46741 -104.08125,15.80525 z M 162.2576,788.80296 c 67.32233,-17.44496 144.15841,-94.79708 210.94498,-212.3617 4.95077,-8.7149 11.65743,-21.11946 14.90366,-27.56572 l 5.90224,-11.72045 -5.52306,-5.52307 -5.52306,-5.52305 -11.64767,2.7954 c -74.51093,17.88236 -138.93007,51.58699 -188.2778,98.50851 -45.05864,42.84332 -60.25651,71.75093 -60.25651,114.61298 0,11.39628 0.86204,21.37333 2.24322,25.96265 4.07487,13.53978 14.01229,22.92032 24.46502,23.09399 2.05292,0.0341 7.79897,-0.99168 12.76898,-2.27954 z M 628.24416,587.41269 c -6.21895,-2.661 -231.52262,-226.61064 -235.48364,-234.06844 -9.85421,-18.55347 4.92792,-42.31109 26.32622,-42.31109 9.17399,0 15.50347,3.22872 24.50058,12.49796 4.32468,4.45548 8.31045,8.10088 8.85727,8.10088 0.5468,0 1.91008,-5.16953 3.02951,-11.48781 3.49148,-19.70667 18.62417,-78.72262 26.32842,-102.67818 19.00761,-59.1021 35.05411,-88.94946 68.63273,-127.660575 21.78349,-25.113061 41.56509,-39.21211 64.28231,-45.816178 14.92376,-4.338443 43.22792,-2.640798 62.76863,3.764767 l 15.17472,4.97439 13.72254,-5.533371 c 42.00099,-16.936177 81.9201,-22.066437 111.21159,-14.292476 19.22291,5.101746 41.99743,17.944848 59.09256,33.323736 32.55875,29.290038 46.07148,78.983237 36.08212,132.692247 l -1.98753,10.68616 5.53608,8.22059 c 13.35516,19.83126 21.88724,45.31229 23.55963,70.3608 2.73316,40.93638 -14.89077,87.46822 -46.41937,122.55952 -40.56916,45.15338 -125.5181,91.46386 -213.71725,116.50935 -11.32936,3.21714 -21.6079,6.17525 -22.8412,6.57356 -1.65599,0.53481 -0.9806,2.05755 2.58279,5.82319 6.9352,7.32885 8.82717,11.80933 8.82717,20.90401 0,12.65459 -6.26907,21.89591 -18.24936,26.90158 -7.30392,3.05178 -14.61496,3.03683 -21.8165,-0.0447 z m 5.54585,-125.90768 c 39.50855,-13.72003 85.46291,-39.00644 118.04717,-64.9555 15.93541,-12.69045 46.82004,-44.04012 57.71042,-58.57942 15.40106,-20.56127 22.79612,-41.87959 24.18472,-69.71914 1.04602,-20.97098 -1.63882,-35.09395 -8.34231,-43.88267 -10.98901,-14.40734 -27.68903,-13.25575 -63.2534,4.36184 -59.21459,29.33326 -125.35057,103.70585 -181.42324,204.01783 l -10.02161,17.92833 11.54731,11.6249 11.54732,11.62491 10.49467,-2.90901 c 5.77205,-1.59996 19.05109,-5.88038 29.50895,-9.51207 z"
     id="path933" />
</svg>
