<?xml version="1.0" encoding="UTF-8" standalone="no"?>
<svg
   version="1.1"
   viewBox="-10 0 970 1000"
   id="svg6"
   sodipodi:docname="trait.svg"
   inkscape:version="1.1.2 (0a00cf5339, 2022-02-04)"
   xmlns:inkscape="http://www.inkscape.org/namespaces/inkscape"
   xmlns:sodipodi="http://sodipodi.sourceforge.net/DTD/sodipodi-0.dtd"
   xmlns="http://www.w3.org/2000/svg"
   xmlns:svg="http://www.w3.org/2000/svg">
  <defs
     id="defs10" />
  <sodipodi:namedview
     id="namedview8"
     pagecolor="#ffffff"
     bordercolor="#666666"
     borderopacity="1.0"
     inkscape:pageshadow="2"
     inkscape:pageopacity="0.0"
     inkscape:pagecheckerboard="0"
     showgrid="false"
     inkscape:zoom="0.1955"
     inkscape:cx="519.18159"
     inkscape:cy="-46.035806"
     inkscape:window-width="1850"
     inkscape:window-height="1043"
     inkscape:window-x="0"
     inkscape:window-y="0"
     inkscape:window-maximized="1"
     inkscape:current-layer="svg6" />
  <g
     transform="matrix(1,0,0,-1,-2,760)"
     id="g4"
     style="fill:#000000">
    <path
       fill="currentColor"
       d="M 149,259 240,168 191,118 50,259 191,400 240,351 Z M 720,450 529,259 720,69 480,-171 430,-121 621,68 240,449 381,590 431,541 339,450 480,308 621,450 431,640 480,689 Z M 339,69 430,-22 381,-72 240,69 381,209 430,160 Z M 910,259 768,117 626,259 768,401 Z"
       id="path2"
       style="fill:#000000" />
  </g>
</svg>
