<?xml version="1.0" encoding="UTF-8" standalone="no"?>
<!-- Created with Inkscape (http://www.inkscape.org/) -->

<svg
   width="12.248797mm"
   height="14.082889mm"
   viewBox="0 0 12.248797 14.082889"
   version="1.1"
   id="svg5079"
   inkscape:version="1.2.2 (b0a8486541, 2022-12-01)"
   sodipodi:docname="gh2e-eclipse.svg"
   xml:space="preserve"
   xmlns:inkscape="http://www.inkscape.org/namespaces/inkscape"
   xmlns:sodipodi="http://sodipodi.sourceforge.net/DTD/sodipodi-0.dtd"
   xmlns:xlink="http://www.w3.org/1999/xlink"
   xmlns="http://www.w3.org/2000/svg"
   xmlns:svg="http://www.w3.org/2000/svg"><sodipodi:namedview
     id="namedview5081"
     pagecolor="#ffffff"
     bordercolor="#666666"
     borderopacity="1.0"
     inkscape:pageshadow="2"
     inkscape:pageopacity="0.0"
     inkscape:pagecheckerboard="0"
     inkscape:document-units="mm"
     showgrid="false"
     fit-margin-top="0"
     fit-margin-left="0"
     fit-margin-right="0"
     fit-margin-bottom="0"
     inkscape:zoom="2.786588"
     inkscape:cx="-19.91683"
     inkscape:cy="9.150976"
     inkscape:window-width="1854"
     inkscape:window-height="1011"
     inkscape:window-x="0"
     inkscape:window-y="0"
     inkscape:window-maximized="1"
     inkscape:current-layer="layer1"
     inkscape:showpageshadow="2"
     inkscape:deskcolor="#d1d1d1" /><defs
     id="defs5076"><linearGradient
       inkscape:collect="always"
       id="linearGradient1431"><stop
         style="stop-color:#737f9a;stop-opacity:1;"
         offset="0"
         id="stop1427" /><stop
         style="stop-color:#000000;stop-opacity:0;"
         offset="1"
         id="stop1429" /></linearGradient><clipPath
       clipPathUnits="userSpaceOnUse"
       id="clipPath1778"><path
         d="m 48.278,398.439 h 35 v 40.198 h -35 z"
         id="path1776" /></clipPath><clipPath
       clipPathUnits="userSpaceOnUse"
       id="clipPath1790"><path
         d="m 53.218,438.637 -4.94,-8.556 v -25.603 l 10.46,-6.039 h 19.599 l 4.941,8.556 v 25.604 l -10.459,6.038 z"
         id="path1788" /></clipPath><clipPath
       clipPathUnits="userSpaceOnUse"
       id="clipPath1802"><path
         d="m 48.278,398.439 h 35 v 40.198 h -35 z"
         id="path1800" /></clipPath><clipPath
       clipPathUnits="userSpaceOnUse"
       id="clipPath1814"><path
         d="m 60.197,412.96 h 11.161 v 11.157 H 60.197 Z"
         id="path1812" /></clipPath><linearGradient
       inkscape:collect="always"
       xlink:href="#linearGradient1431"
       id="linearGradient1433"
       x1="52.4388"
       y1="418.5386"
       x2="79.1178"
       y2="418.5386"
       gradientUnits="userSpaceOnUse" /></defs><g
     inkscape:label="Layer 1"
     inkscape:groupmode="layer"
     id="layer1"
     transform="translate(-207.70041,-112.59411)"><g
       id="g1772"
       transform="matrix(0.35277777,0,0,-0.35277777,190.61979,267.28656)"><g
         id="g1774"
         clip-path="url(#clipPath1778)"><g
           id="g1780"
           transform="translate(82.5805,428.2393)"><path
             d="m 0,0 v -19.402 l -16.802,-9.701 -16.803,9.701 V 0 l 16.803,9.701 z"
             style="fill:#f5f5f5;fill-opacity:1;fill-rule:nonzero;stroke:none"
             id="path1782" /></g></g></g><g
       id="g1784"
       transform="matrix(0.35277777,0,0,-0.35277777,190.61979,267.28656)"><g
         id="g1786"
         clip-path="url(#clipPath1790)"><g
           id="g1792"
           transform="translate(82.5805,428.2393)"><path
             d="m 0,0 h 0.558 v -19.402 c 0,-0.199 -0.106,-0.383 -0.279,-0.483 l -16.802,-9.701 c -0.173,-0.1 -0.386,-0.1 -0.558,0 l -16.803,9.701 c -0.172,0.1 -0.279,0.284 -0.279,0.483 V 0 c 0,0.199 0.107,0.384 0.279,0.483 l 16.803,9.701 c 0.172,0.1 0.385,0.1 0.558,0 L 0.279,0.483 C 0.452,0.384 0.558,0.199 0.558,0 H 0 l -0.279,-0.483 -16.523,9.539 -16.245,-9.378 v -18.757 l 16.245,-9.379 16.244,9.378 V 0 H 0 L -0.279,-0.483 0,0"
             style="fill:#231f20;fill-opacity:1;fill-rule:nonzero;stroke:none"
             id="path1794" /></g></g></g><g
       id="g1798"
       clip-path="url(#clipPath1802)"
       transform="matrix(0.35277777,0,0,-0.35277777,190.61979,267.28656)"
       style="fill-opacity:1;fill:url(#linearGradient1433)"><g
         id="g1804"
         transform="translate(79.1178,426.2401)"
         style="fill-opacity:1;fill:url(#linearGradient1433)"><path
           d="m 0,0 v -15.403 l -13.34,-7.702 -13.339,7.702 V 0 l 13.339,7.702 z"
           style="fill:url(#linearGradient1433);fill-opacity:1;fill-rule:nonzero;stroke:none"
           id="path1806" /></g></g><path
       style="fill:#ffffff;stroke-width:0.171227"
       d="m 211.10363,122.85158 c -0.0542,-0.0877 0.0537,-0.29733 0.23983,-0.46577 0.18614,-0.16844 0.33842,-0.40347 0.33842,-0.52228 0,-0.11885 0.0939,-0.24735 0.20867,-0.2856 0.11481,-0.0383 0.21998,-0.39468 0.23381,-0.79204 0.017,-0.48968 0.14992,-0.8553 0.4123,-1.13459 0.21292,-0.22666 0.34476,-0.52255 0.29296,-0.65754 -0.0518,-0.13497 -0.0138,-0.56185 0.0843,-0.9486 0.15604,-0.61476 0.22757,-0.69087 0.56875,-0.60524 0.34731,0.0872 0.40348,0.0197 0.51037,-0.61292 0.0857,-0.50757 0.18818,-0.68474 0.35815,-0.61953 0.15085,0.0579 0.27675,-0.0627 0.34368,-0.32948 0.0581,-0.23147 0.17446,-0.37831 0.25859,-0.32631 0.0841,0.0519 0.15296,0.0194 0.15296,-0.0725 0,-0.0919 -0.0963,-0.20592 -0.21404,-0.25342 -0.1646,-0.0664 -0.16227,-0.0895 0.01,-0.1 0.12327,-0.007 0.17774,-0.0885 0.12101,-0.18037 -0.0567,-0.0918 0.53588,0.20966 1.3169,0.66986 1.32084,0.77827 1.42375,0.87962 1.47318,1.45107 0.051,0.58866 0.0295,0.61516 -0.51369,0.63408 -0.31174,0.0107 -0.67904,0.0302 -0.8162,0.0429 -0.21721,0.0201 -0.73268,0.64977 -1.21025,1.47847 -0.11778,0.20431 -0.21439,0.21628 -0.47249,0.0585 -0.20038,-0.12247 -0.41685,-0.13984 -0.56599,-0.0454 -0.13283,0.0842 -0.17822,0.15408 -0.1009,0.15553 0.0774,0.001 0.0216,0.12164 -0.12384,0.26711 -0.14547,0.14547 -0.35582,0.58852 -0.46743,0.98455 -0.19518,0.69259 -1.04236,1.68581 -1.53848,1.80372 -0.13028,0.0309 -0.36405,0.17082 -0.5195,0.31081 -0.15789,0.14216 -0.32617,0.1841 -0.38123,0.095 z m 4.88543,-0.35352 c -0.63699,-0.55245 -0.40767,-1.52551 0.35636,-1.51214 0.41399,0.007 0.58993,1.00789 0.26001,1.4789 -0.24231,0.34596 -0.25503,0.34664 -0.61637,0.0333 z m -6.13041,-1.87226 c -0.15849,-0.25487 -0.13893,-0.35209 0.10091,-0.50189 0.37885,-0.2366 0.74712,-0.0154 0.667,0.40061 -0.0832,0.43225 -0.52581,0.49061 -0.76794,0.10126 z m 1.19568,-3.43193 c -0.34441,-0.23057 -0.3724,-0.68346 -0.0598,-0.96641 0.29774,-0.26944 0.33862,-0.26522 0.67337,0.0695 0.19601,0.19601 0.35638,0.42107 0.35638,0.50013 0,0.21128 -0.77411,0.5279 -0.97,0.39676 z"
       id="path848" /></g></svg>
