<?xml version="1.0" encoding="UTF-8" standalone="no"?>
<!-- Created with Inkscape (http://www.inkscape.org/) -->

<svg
   width="47.149639mm"
   height="51.320293mm"
   viewBox="0 0 47.149639 51.320293"
   version="1.1"
   id="svg5"
   xml:space="preserve"
   sodipodi:docname="demons.svg"
   inkscape:version="1.2.2 (b0a8486541, 2022-12-01)"
   xmlns:inkscape="http://www.inkscape.org/namespaces/inkscape"
   xmlns:sodipodi="http://sodipodi.sourceforge.net/DTD/sodipodi-0.dtd"
   xmlns="http://www.w3.org/2000/svg"
   xmlns:svg="http://www.w3.org/2000/svg"><sodipodi:namedview
     id="namedview7"
     pagecolor="#ffffff"
     bordercolor="#000000"
     borderopacity="0.25"
     inkscape:showpageshadow="2"
     inkscape:pageopacity="0.0"
     inkscape:pagecheckerboard="0"
     inkscape:deskcolor="#d1d1d1"
     inkscape:document-units="mm"
     showgrid="false"
     inkscape:zoom="1.9779745"
     inkscape:cx="143.07566"
     inkscape:cy="121.58903"
     inkscape:window-width="1854"
     inkscape:window-height="1011"
     inkscape:window-x="0"
     inkscape:window-y="0"
     inkscape:window-maximized="1"
     inkscape:current-layer="layer1" /><defs
     id="defs2" /><g
     inkscape:label="Layer 1"
     inkscape:groupmode="layer"
     id="layer1"
     transform="translate(-8.6147146,-117.0945)"><path
       style="fill:#000000;stroke-width:0.264583"
       d="m 24.503345,163.04482 c -4.142293,-0.73958 -6.884037,-1.86889 -8.77985,-3.61639 -2.890999,-2.66483 -2.974624,-5.87469 -0.208026,-7.98487 2.338516,-1.78368 6.255836,-2.98628 10.536546,-3.23469 2.71112,-0.15732 2.86625,-0.13894 2.77614,0.32895 -0.0794,0.41251 -0.51299,0.55152 -2.58612,0.82922 -4.33296,0.5804 -7.220419,1.68288 -9.078529,3.46634 -4.034979,3.87287 2.697946,8.07352 12.896089,8.04581 7.54601,-0.0205 13.34065,-1.64401 17.32387,-4.85374 1.3817,-1.11338 1.6699,-1.24446 2.25068,-1.02364 0.84439,0.32103 0.83526,0.48255 -0.10018,1.77389 -3.06362,4.2292 -10.33176,6.73148 -19.37603,6.67078 -1.94586,-0.0131 -4.49042,-0.1938 -5.65459,-0.40166 z m 0.59304,-5.52835 c -2.61755,-0.66144 -4.16491,-1.64229 -4.16491,-2.64009 0,-1.2476 2.84495,-2.85787 6.03727,-3.41715 0.78439,-0.13743 0.86894,-0.0936 0.79375,0.41147 -0.0991,0.66554 -0.39172,0.84278 -2.33379,1.41341 -1.76037,0.51726 -2.78735,1.23184 -2.57303,1.79036 0.0851,0.22176 0.7883,0.62394 1.56266,0.89375 1.15673,0.40302 2.18684,0.48877 5.77355,0.48055 4.73911,-0.0109 6.8016,-0.35821 9.52422,-1.60402 4.58028,-2.09583 3.25367,-3.77062 -3.97172,-5.01414 -1.38038,-0.23757 -2.54236,-0.46349 -2.58216,-0.50205 -0.0398,-0.0385 0.008,-0.27872 0.10553,-0.5337 0.21147,-0.5511 1.42399,-0.451 5.25851,0.43413 6.61011,1.52581 7.86892,4.4263 2.96023,6.82076 -2.54597,1.24192 -4.76873,1.62585 -10.10398,1.74519 -3.58709,0.0803 -5.13854,0.0115 -6.28613,-0.27847 z m 3.7087,-2.56176 c -0.4318,-0.32615 -0.38608,-0.61239 0.72761,-4.55486 0.6536,-2.31375 1.18836,-4.32405 1.18836,-4.46732 0,-0.14327 -1.54781,-1.83584 -3.43958,-3.76126 -1.95706,-1.99187 -3.43959,-3.71591 -3.43959,-3.9999 0,-0.27452 0.35196,-1.7305 0.78214,-3.23551 0.74741,-2.61488 0.76448,-2.78839 0.38447,-3.90767 l -0.39766,-1.17129 1.6169,-1.97875 c 0.88929,-1.08832 1.70922,-1.97876 1.82207,-1.97876 0.11285,0 0.34611,1.14681 0.51836,2.54847 l 0.31319,2.54847 -1.01548,0.95726 c -0.84422,0.79582 -1.11649,1.33233 -1.61436,3.18117 l -0.59888,2.2239 2.85608,2.86496 c 1.57084,1.57573 2.93685,2.77763 3.03557,2.67089 0.31137,-0.33664 3.14552,-10.7971 3.14552,-11.60967 0,-0.4266 -0.2249,-1.21678 -0.49978,-1.75594 l -0.49979,-0.98029 2.41052,-2.93512 c 2.78553,-3.39176 2.54284,-3.50686 3.09744,1.46905 0.33287,2.98647 0.32583,3.16169 -0.13783,3.42946 -1.71328,0.98946 -1.94158,1.43913 -3.60416,7.09903 -0.88761,3.02166 -1.55028,5.65954 -1.47261,5.86195 0.1149,0.29941 0.82287,0.19695 3.79716,-0.54949 2.01076,-0.50464 3.78955,-1.05892 3.95287,-1.23174 0.16332,-0.17283 0.55446,-1.29032 0.86918,-2.48332 0.52971,-2.00791 0.54221,-2.24095 0.16818,-3.13612 -0.22222,-0.53186 -0.3157,-1.10978 -0.20772,-1.28426 0.45888,-0.74147 3.08482,-3.86157 3.24998,-3.86157 0.0993,0 0.26141,0.80367 0.36022,1.78593 0.0988,0.98227 0.2408,2.20266 0.31555,2.71198 0.12178,0.82988 0.042,0.98562 -0.76797,1.49979 -0.82365,0.52284 -0.98284,0.84769 -1.79385,3.66063 -0.50456,1.75004 -1.06468,3.17854 -1.29337,3.29854 -0.22187,0.11642 -2.36793,0.71026 -4.76902,1.31964 -2.49858,0.63412 -4.54614,1.29772 -4.78771,1.55166 -0.23215,0.24404 -0.80382,1.81292 -1.27037,3.48641 -0.46656,1.67349 -0.90972,3.25107 -0.98481,3.50573 -0.12039,0.40833 0.0609,0.45991 1.53496,0.43665 1.92173,-0.0303 2.91143,-0.25391 3.057,-0.69062 0.12917,-0.38753 -0.84741,-0.92302 -2.04699,-1.12242 -0.69526,-0.11558 -0.92604,-0.2847 -0.92604,-0.67862 0,-0.43721 0.15438,-0.51245 0.92604,-0.45135 1.12341,0.089 3.17261,1.07606 3.55535,1.71261 0.35917,0.59735 -0.0321,1.25256 -1.06621,1.78563 -1.05336,0.54297 -6.40117,0.70682 -7.05094,0.21604 z"
       id="path2699" /><rect
       style="fill:none;stroke-width:3.26501"
       id="rect2753"
       width="47.149639"
       height="51.320293"
       x="8.6147146"
       y="117.0945" /></g></svg>
