<?xml version="1.0" encoding="UTF-8" standalone="no"?>
<!-- Created with Inkscape (http://www.inkscape.org/) -->

<svg
   width="47.149639mm"
   height="51.320293mm"
   viewBox="0 0 47.149639 51.320293"
   version="1.1"
   id="svg5"
   xml:space="preserve"
   inkscape:version="1.2.2 (b0a8486541, 2022-12-01)"
   sodipodi:docname="merchant-guild.svg"
   xmlns:inkscape="http://www.inkscape.org/namespaces/inkscape"
   xmlns:sodipodi="http://sodipodi.sourceforge.net/DTD/sodipodi-0.dtd"
   xmlns="http://www.w3.org/2000/svg"
   xmlns:svg="http://www.w3.org/2000/svg"><sodipodi:namedview
     id="namedview7"
     pagecolor="#ffffff"
     bordercolor="#000000"
     borderopacity="0.25"
     inkscape:showpageshadow="2"
     inkscape:pageopacity="0.0"
     inkscape:pagecheckerboard="0"
     inkscape:deskcolor="#d1d1d1"
     inkscape:document-units="mm"
     showgrid="false"
     inkscape:zoom="1.9779745"
     inkscape:cx="143.07566"
     inkscape:cy="121.58903"
     inkscape:window-width="1854"
     inkscape:window-height="1011"
     inkscape:window-x="0"
     inkscape:window-y="0"
     inkscape:window-maximized="1"
     inkscape:current-layer="layer1" /><defs
     id="defs2" /><g
     inkscape:label="Layer 1"
     inkscape:groupmode="layer"
     id="layer1"
     transform="translate(-8.6147146,-117.0945)"><path
       style="fill:#000000;stroke-width:0.264583"
       d="m 29.787226,158.7738 -2.43761,-1.15179 1.41674,-3.07861 c 0.77921,-1.69324 1.47884,-3.14072 1.55474,-3.21662 0.0759,-0.0759 0.62458,0.1394 1.2193,0.47844 l 1.08131,0.61643 1.08691,-0.61965 c 0.59779,-0.34082 1.18549,-0.51941 1.30599,-0.39688 0.26657,0.27106 2.9604,6.21597 2.84698,6.28287 -0.85482,0.50417 -4.95803,2.26931 -5.24412,2.25595 -0.21595,-0.0101 -1.48956,-0.53665 -2.83024,-1.17014 z m -4.110832,-3.23876 c -0.545703,-0.22389 -0.992187,-0.50859 -0.992187,-0.63266 0,-0.58503 3.004019,-4.99389 3.400119,-4.99022 1.24612,0.0116 1.23597,0.38497 -0.0892,3.28169 -0.70441,1.53982 -1.291061,2.78811 -1.303655,2.77397 -0.0126,-0.0141 -0.469383,-0.20889 -1.015087,-0.43278 z m 11.648602,-2.30712 c -1.00277,-2.28101 -1.15269,-2.81798 -0.85559,-3.06455 0.69915,-0.58024 1.31254,-0.0947 2.68879,2.12829 0.765,1.23566 1.39317,2.37344 1.39595,2.52839 0.004,0.21834 -1.57443,1.17348 -1.93916,1.17348 -0.0408,0 -0.62129,-1.24452 -1.28999,-2.76561 z m -5.63978,-3.13435 c -0.44231,-0.32028 -1.07736,-0.77912 -1.41122,-1.01964 -0.54064,-0.38948 -0.75904,-1.26468 -1.9973,-8.00364 -0.76466,-4.16149 -1.296074,-7.56634 -1.180922,-7.56634 0.703392,0 1.666222,0.88007 3.497672,3.19705 l 2.07278,2.62229 2.1281,-2.66611 c 1.87188,-2.34512 3.14297,-3.48209 3.49704,-3.12802 0.10361,0.10361 -2.35085,13.88732 -2.63846,14.81703 -0.11274,0.36442 -2.73586,2.37885 -3.05056,2.3427 -0.0621,-0.007 -0.47482,-0.27503 -0.91713,-0.59532 z m -8.381477,-3.33707 c -3.747895,-1.31186 -5.237122,-2.17851 -5.860491,-3.4105 -0.508828,-1.00562 -0.766581,-2.62379 -0.449182,-2.81995 0.230641,-0.14255 3.446155,0.92481 8.607299,2.85711 1.711161,0.64064 1.677051,0.58365 2.120991,3.5441 0.2172,1.44839 0.20591,1.44795 -4.418617,-0.17076 z m 14.160227,0.94413 c 0.075,-0.19546 0.21825,-1.01061 0.3183,-1.81143 0.10006,-0.80082 0.2613,-1.58448 0.35833,-1.74146 0.15796,-0.2556 9.60863,-3.76463 10.13905,-3.76463 0.68937,0 -0.0795,2.71189 -1.07571,3.79394 -0.9381,1.01897 -1.71089,1.3885 -5.70589,2.72843 -3.68706,1.23665 -4.24575,1.34677 -4.03408,0.79515 z m -15.954759,-7.08516 c -2.837656,-1.16589 -5.414039,-2.22293 -5.725295,-2.34898 -1.240084,-0.50219 -2.468599,-1.89373 -2.883466,-3.26609 -0.495508,-1.63912 -0.862933,-7.84646 -0.464449,-7.84646 0.328723,0 12.562033,5.76493 12.855765,6.05826 0.269986,0.26962 1.5541,8.17231 1.453043,8.94231 -0.07279,0.5546 -0.308715,0.48525 -5.235598,-1.53904 z m 16.947799,1.41743 c 0.008,-0.39806 0.33537,-2.5597 0.7276,-4.80364 l 0.71314,-4.07989 6.35,-2.9918 c 3.4925,-1.64549 6.4393,-2.99446 6.54844,-2.99771 0.30182,-0.009 0.23678,4.71484 -0.0894,6.49393 -0.35622,1.94287 -1.06984,3.25686 -2.17365,4.00237 -0.71634,0.48381 -5.15867,2.37431 -10.70152,4.55419 l -1.38907,0.54629 0.0145,-0.72374 z m -7.85547,-7.54764 -1.88788,-2.45725 0.49647,-2.90005 c 0.27306,-1.59503 0.49752,-2.98936 0.49882,-3.0985 10e-4,-0.10914 1.30976,-0.19843 2.90772,-0.19843 3.34723,0 2.92066,-0.44148 3.5606,3.68505 0.21276,1.37194 0.30347,2.62879 0.20158,2.79301 -0.46576,0.75062 -3.5951,4.63438 -3.73379,4.63393 -0.0856,-2.9e-4 -1.00519,-1.10627 -2.04352,-2.45776 z"
       id="path2695" /><rect
       style="fill:none;stroke-width:3.26501"
       id="rect2753"
       width="47.149639"
       height="51.320293"
       x="8.6147146"
       y="117.0945" /></g></svg>
