<?xml version="1.0" encoding="UTF-8" standalone="no"?>
<!-- Created with Inkscape (http://www.inkscape.org/) -->

<svg
   width="47.149639mm"
   height="51.320293mm"
   viewBox="0 0 47.149639 51.320293"
   version="1.1"
   id="svg5"
   xml:space="preserve"
   sodipodi:docname="military.svg"
   inkscape:version="1.2.2 (b0a8486541, 2022-12-01)"
   xmlns:inkscape="http://www.inkscape.org/namespaces/inkscape"
   xmlns:sodipodi="http://sodipodi.sourceforge.net/DTD/sodipodi-0.dtd"
   xmlns="http://www.w3.org/2000/svg"
   xmlns:svg="http://www.w3.org/2000/svg"><sodipodi:namedview
     id="namedview7"
     pagecolor="#ffffff"
     bordercolor="#000000"
     borderopacity="0.25"
     inkscape:showpageshadow="2"
     inkscape:pageopacity="0.0"
     inkscape:pagecheckerboard="0"
     inkscape:deskcolor="#d1d1d1"
     inkscape:document-units="mm"
     showgrid="false"
     inkscape:zoom="1.9779745"
     inkscape:cx="143.07566"
     inkscape:cy="121.58903"
     inkscape:window-width="1854"
     inkscape:window-height="1011"
     inkscape:window-x="0"
     inkscape:window-y="0"
     inkscape:window-maximized="1"
     inkscape:current-layer="layer1" /><defs
     id="defs2" /><g
     inkscape:label="Layer 1"
     inkscape:groupmode="layer"
     id="layer1"
     transform="translate(-8.6147146,-117.0945)"><path
       style="fill:#000000;stroke-width:0.264583"
       d="m 29.869984,164.1255 c -2.26191,-1.40875 -6.494881,-8.69011 -8.39137,-14.43443 -1.572933,-4.7643 -3.319164,-14.79783 -3.315453,-19.05 0.0026,-3.0236 1.269345,-4.87838 4.318262,-6.32301 2.919851,-1.38349 5.105821,-1.83636 8.776821,-1.81833 5.46598,0.0269 10.95558,1.89218 12.10886,4.11448 0.74617,1.43785 1.05887,5.82692 0.71684,10.06158 -0.49152,6.08541 -1.98764,11.82876 -4.56211,17.51319 -3.70456,8.17968 -7.00958,11.58218 -9.65185,9.93652 z m 0.99138,-10.2011 c 0,-7.00417 -0.0329,-7.54081 -0.46302,-7.54321 -0.91597,-0.005 -3.1848,-1.28177 -3.86668,-2.17576 -0.38275,-0.5018 -0.85652,-1.37782 -1.05284,-1.9467 -0.35295,-1.02278 -0.37363,-1.03521 -1.852821,-1.11368 -1.812741,-0.0961 -1.780905,-0.27573 -0.718821,4.05474 0.929223,3.78876 1.734992,5.98237 3.496352,9.51836 1.16415,2.33708 3.99633,6.74688 4.33316,6.74688 0.0686,0 0.12467,-3.39328 0.12467,-7.54063 z m 2.27513,-9.63227 c 3.14288,-1.42732 3.33928,-5.99771 0.33041,-7.68879 -2.95953,-1.66335 -6.58268,0.40124 -6.56994,3.74377 0.006,1.63739 0.91865,3.12236 2.36791,3.85385 1.42664,0.72008 2.43453,0.74382 3.87162,0.0912 z m -3.47778,-2.26195 c -0.9065,-0.9065 -0.89747,-2.46489 0.0193,-3.32612 1.48584,-1.39587 3.82922,-0.38462 3.82922,1.65245 0,1.36789 -0.92472,2.3231 -2.24895,2.3231 -0.65597,0 -1.15115,-0.20105 -1.59953,-0.64943 z m 11.69878,-3.25317 c 0.12072,-0.98227 0.21855,-3.57188 0.2174,-5.75469 -0.002,-4.59047 -0.24061,-5.32918 -2.00914,-6.23141 -1.25976,-0.64269 -4.23314,-1.42997 -6.38928,-1.69175 l -1.52136,-0.18471 v 4.61486 4.61486 l 1.24468,0.34849 c 2.15848,0.60434 3.99009,2.70862 4.42008,5.0781 l 0.18005,0.99218 h 1.81904 1.81903 z"
       id="path2697" /><rect
       style="fill:none;stroke-width:3.26501"
       id="rect2753"
       width="47.149639"
       height="51.320293"
       x="8.6147146"
       y="117.0945" /></g></svg>
