<svg class="svg_icon" version="1.2" xmlns="http://www.w3.org/2000/svg" viewBox="0 0 580 580" >
<defs>
<clipPath clipPathUnits="userSpaceOnUse" id="cp1">
<path d="m-10-10h600v600h-600z"/>
</clipPath>
</defs>
<style>
.a{fill:#212325}.b{fill:#fff}.c{fill:#242525}</style>
<g clip-path="url(#cp1)">
<path class="a" d="m290 574.3c-3.9 0-7.6-1.5-10.4-4.2l-269.6-269.7c-5.8-5.7-5.8-15.1 0-20.8l269.6-269.6c2.8-2.8 6.5-4.3 10.4-4.3 3.9 0 7.6 1.5 10.4 4.3l269.6 269.6c2.8 2.8 4.3 6.5 4.3 10.4 0 3.9-1.5 7.6-4.3 10.4l-269.6 269.7c-2.8 2.7-6.5 4.2-10.4 4.2z"/>
<path fill-rule="evenodd" class="b" d="m303.9 6.4l269.7 269.7c7.7 7.7 7.7 20.1 0 27.8l-269.7 269.7c-3.8 3.8-8.9 5.7-13.9 5.7-5 0-10.1-1.9-13.9-5.7l-269.7-269.7c-7.7-7.7-7.7-20.1 0-27.8l269.7-269.7c3.8-3.8 8.9-5.7 13.9-5.7 5 0 10.1 1.9 13.9 5.7zm-20.7 7.1l-269.7 269.7c-3.8 3.7-3.8 9.9 0 13.7l269.7 269.6c1.8 1.8 4.2 2.9 6.8 2.9 2.6 0 5-1.1 6.8-2.9l269.7-269.6c3.8-3.8 3.8-10 0-13.7l-269.7-269.7c-1.8-1.8-4.2-2.8-6.8-2.8-2.6 0-5 1-6.8 2.8z"/>
<path class="b" d="m404.2 311.9c0 12-3.1 29.5-17.5 48.1-23.9 31.1-58.1 57.2-94.9 80.8-1.2 0.8-2.9 0.8-4.2 0-36.7-23.6-70.9-49.7-94.9-80.8-14.3-18.6-17.5-36.1-17.5-48.1 0-37.2 30.2-67.4 67.4-67.4 18.4 0 35 7.4 47.1 19.3 12.2-11.9 28.8-19.3 47.2-19.3 37.2 0 67.3 30.2 67.3 67.4z"/>
<path class="b" d="m318.5 81.9c-3.3 0.4-6.6 0.6-9.9 0.8v65.7h-37.7v-65.7q-5-0.3-10-0.9l-3.2-17.6c21.2-3.6 42.9-3.6 64.1 0.1z"/>
<path class="b" d="m369.1 165.5l-4.3 17.3h-40.9v41.6c-12.3 1.5-24 5.9-34.2 12.9-10.2-7-21.8-11.4-34.1-12.9v-41.6h-40.9l-4.4-17.3z"/>
<path class="b" d="m323.9 323.7v158.2l-31.1 40c-1.5 2.1-4.6 2.1-6.2 0l-31-40v-158.2z"/>
<path class="c" d="m255.6 347.8v47.5q-8.2-16.7-12.3-51z"/>
<path class="c" d="m336.2 344.3q-4.1 34.3-12.3 51 0-8.5 0-47.5z"/>
<path class="c" d="m344.1 339.8q-20.2 20.9-54.4 34.2-34.1-13.3-54.3-34.2 28 9.4 54.3 9.4 26.3 0 54.4-9.4z"/>
<path class="c" d="m318.6 352.7q13-3.9 5.8 3.1c-5.5 5.4-13.9 8.4-18.1 13.8-4.8 6.2-6.3 32.3-5.5 39.4 1.3 10.4 9.4 14.1 9 30.4-0.1 7.4-6.2 14.2-13 15.3-6.4 1-13.4-3.1-14.5-14.8-1.2-12.4 6.7-23.9 7.3-30.5 2.9-30.2-11.3-39.7-21.3-44.1-14.5-6.3-13.4-11.9-18.9-14.6q31.7 5.6 69.2 2z"/>
</g>
</svg>

