<?xml version="1.0" encoding="UTF-8" standalone="no"?>
<!-- Created with Inkscape (http://www.inkscape.org/) -->

<svg
   width="204.15126mm"
   height="204.15073mm"
   viewBox="0 0 204.15127 204.15072"
   version="1.1"
   id="svg5"
   xmlns="http://www.w3.org/2000/svg"
   xmlns:svg="http://www.w3.org/2000/svg">
  <defs
     id="defs2">
    <clipPath
       clipPathUnits="userSpaceOnUse"
       id="clipPath1104">
      <path
         d="M 0,600 H 600 V 0 H 0 Z"
         id="path1102" />
    </clipPath>
    <clipPath
       clipPathUnits="userSpaceOnUse"
       id="clipPath1286">
      <path
         d="M 0,600 H 600 V 0 H 0 Z"
         id="path1284" />
    </clipPath>
    <clipPath
       clipPathUnits="userSpaceOnUse"
       id="clipPath1470">
      <path
         d="M 0,600 H 600 V 0 H 0 Z"
         id="path1468" />
    </clipPath>
    <clipPath
       clipPathUnits="userSpaceOnUse"
       id="clipPath1656">
      <path
         d="M 0,600 H 600 V 0 H 0 Z"
         id="path1654" />
    </clipPath>
    <clipPath
       clipPathUnits="userSpaceOnUse"
       id="clipPath1844">
      <path
         d="M 0,600 H 600 V 0 H 0 Z"
         id="path1842" />
    </clipPath>
    <clipPath
       clipPathUnits="userSpaceOnUse"
       id="clipPath2265">
      <path
         d="M 0,600 H 600 V 0 H 0 Z"
         id="path2263" />
    </clipPath>
    <clipPath
       clipPathUnits="userSpaceOnUse"
       id="clipPath2512">
      <path
         d="M 0,600 H 600 V 0 H 0 Z"
         id="path2510" />
    </clipPath>
    <clipPath
       clipPathUnits="userSpaceOnUse"
       id="clipPath2740">
      <path
         d="M 0,300 H 300 V 0 H 0 Z"
         id="path2738" />
    </clipPath>
    <clipPath
       clipPathUnits="userSpaceOnUse"
       id="clipPath2946">
      <path
         d="M 0,300 H 300 V 0 H 0 Z"
         id="path2944" />
    </clipPath>
    <clipPath
       clipPathUnits="userSpaceOnUse"
       id="clipPath3139">
      <path
         d="M 0,300 H 300 V 0 H 0 Z"
         id="path3137" />
    </clipPath>
    <clipPath
       clipPathUnits="userSpaceOnUse"
       id="clipPath3322">
      <path
         d="M 0,300 H 300 V 0 H 0 Z"
         id="path3320" />
    </clipPath>
    <clipPath
       clipPathUnits="userSpaceOnUse"
       id="clipPath3754">
      <path
         d="M 0,300 H 300 V 0 H 0 Z"
         id="path3752" />
    </clipPath>
    <clipPath
       clipPathUnits="userSpaceOnUse"
       id="clipPath3928">
      <path
         d="M 0,300 H 300 V 0 H 0 Z"
         id="path3926" />
    </clipPath>
    <clipPath
       clipPathUnits="userSpaceOnUse"
       id="clipPath4106">
      <path
         d="M 0,300 H 300 V 0 H 0 Z"
         id="path4104" />
    </clipPath>
    <clipPath
       clipPathUnits="userSpaceOnUse"
       id="clipPath4300">
      <path
         d="M 0,300 H 300 V 0 H 0 Z"
         id="path4298" />
    </clipPath>
    <clipPath
       clipPathUnits="userSpaceOnUse"
       id="clipPath4493">
      <path
         d="M 0,300 H 300 V 0 H 0 Z"
         id="path4491" />
    </clipPath>
    <clipPath
       clipPathUnits="userSpaceOnUse"
       id="clipPath4688">
      <path
         d="M 0,300 H 300 V 0 H 0 Z"
         id="path4686" />
    </clipPath>
    <clipPath
       clipPathUnits="userSpaceOnUse"
       id="clipPath4913">
      <path
         d="M 0,600 H 600 V 0 H 0 Z"
         id="path4911" />
    </clipPath>
    <clipPath
       clipPathUnits="userSpaceOnUse"
       id="clipPath5244">
      <path
         d="M 0,600 H 600 V 0 H 0 Z"
         id="path5242" />
    </clipPath>
    <clipPath
       clipPathUnits="userSpaceOnUse"
       id="clipPath5260">
      <path
         d="M 286.083,583.583 16.416,313.916 c -7.685,-7.686 -7.685,-20.146 0,-27.833 v 0 L 286.083,16.417 c 7.687,-7.686 20.147,-7.686 27.833,0 v 0 l 269.667,269.666 c 7.686,7.687 7.686,20.147 0,27.833 v 0 L 313.916,583.583 c -3.843,3.843 -8.879,5.765 -13.916,5.765 v 0 c -5.037,0 -10.074,-1.922 -13.917,-5.765"
         id="path5258" />
    </clipPath>
    <clipPath
       clipPathUnits="userSpaceOnUse"
       id="clipPath5462">
      <path
         d="M 0,600 H 600 V 0 H 0 Z"
         id="path5460" />
    </clipPath>
    <clipPath
       clipPathUnits="userSpaceOnUse"
       id="clipPath5478">
      <path
         d="M 286.083,583.583 16.417,313.916 c -7.687,-7.686 -7.687,-20.146 0,-27.833 v 0 L 286.083,16.417 c 7.687,-7.686 20.147,-7.686 27.834,0 v 0 l 269.666,269.666 c 7.686,7.687 7.686,20.147 0,27.833 v 0 L 313.917,583.583 c -3.843,3.843 -8.88,5.765 -13.917,5.765 v 0 c -5.037,0 -10.074,-1.922 -13.917,-5.765"
         id="path5476" />
    </clipPath>
    <clipPath
       clipPathUnits="userSpaceOnUse"
       id="clipPath5490">
      <path
         d="M 0,600 H 600 V 0 H 0 Z"
         id="path5488" />
    </clipPath>
  </defs>
  <g
     id="layer1"
     transform="translate(85.4497,305.06444)">
    <g
       id="g5454"
       transform="matrix(0.35277777,0,0,-0.35277777,-89.207401,-97.155668)">
      <g
         id="g5456">
        <g
           id="g5458"
           clip-path="url(#clipPath5462)">
          <g
             id="g5464"
             transform="translate(300,15.6523)">
            <path
               d="m 0,0 c -3.922,0 -7.608,1.527 -10.382,4.3 l -269.666,269.666 c -2.772,2.773 -4.3,6.46 -4.3,10.382 0,3.921 1.528,7.608 4.3,10.381 l 269.666,269.667 c 2.774,2.772 6.46,4.3 10.382,4.3 3.922,0 7.608,-1.528 10.382,-4.3 L 280.048,294.729 c 2.772,-2.773 4.3,-6.46 4.3,-10.381 0,-3.922 -1.528,-7.609 -4.3,-10.382 L 10.382,4.3 C 7.608,1.527 3.922,0 0,0"
               style="fill:#62747a;fill-opacity:1;fill-rule:nonzero;stroke:none"
               id="path5466" />
          </g>
          <g
             id="g5468"
             transform="translate(300,589.3477)">
            <path
               d="m 0,0 c -5.037,0 -10.073,-1.921 -13.917,-5.764 l -269.666,-269.667 c -7.687,-7.686 -7.687,-20.147 0,-27.834 l 269.666,-269.666 c 3.844,-3.842 8.88,-5.764 13.917,-5.764 5.037,0 10.073,1.922 13.917,5.764 l 269.666,269.666 c 7.687,7.687 7.687,20.148 0,27.834 L 13.917,-5.764 C 10.073,-1.921 5.037,0 0,0 m 0,-10 c 2.586,0 5.017,-1.007 6.846,-2.835 l 269.667,-269.667 c 3.774,-3.775 3.774,-9.917 0,-13.691 L 6.846,-565.86 c -1.829,-1.828 -4.26,-2.835 -6.846,-2.835 -2.586,0 -5.017,1.007 -6.846,2.836 l -269.667,269.666 c -3.774,3.774 -3.774,9.916 0,13.691 L -6.846,-12.835 C -5.017,-11.007 -2.586,-10 0,-10"
               style="fill:#ffffff;fill-opacity:1;fill-rule:nonzero;stroke:none"
               id="path5470" />
          </g>
        </g>
      </g>
      <g
         id="g5472">
        <g
           id="g5474"
           clip-path="url(#clipPath5478)">
          <g
             id="g5480"
             transform="translate(470.7783,154.5684)">
            <path
               d="m 0,0 c 0,0 -27.653,34.079 -28.102,36.065 -0.447,1.987 3.322,23.517 3.05,39.527 -0.271,16.01 -11.265,44.429 -9.739,50.617 1.526,6.188 13.731,60.188 13.335,63.334 -0.397,3.146 -12.624,11.554 -25.465,4.17 -12.84,-7.383 -17.067,-32.13 -19.477,-38.1 -2.411,-5.97 -4.513,-12.487 -11.621,-16.541 -11.131,-6.351 -15.944,2.351 -24.199,11.655 -4.014,4.523 -29.133,66.554 -34.184,75.537 -5.053,8.983 -11.087,32.639 -28.886,25.408 -18.841,-7.654 5.282,-53.87 7.619,-59.604 2.337,-5.735 14.246,-35.399 15.309,-39.647 1.062,-4.248 -1.478,-6.153 -4.399,-7.543 -2.922,-1.39 -4.01,-4.685 -13.93,7.374 -9.921,12.06 -33.678,38.831 -37.169,42.739 -3.491,3.909 -23.364,26.049 -29.718,27.851 -6.355,1.802 -22.892,-6.312 -18.379,-19.382 4.514,-13.07 29.06,-32.891 40.089,-46.161 11.028,-13.271 35.658,-34.034 32.208,-41.47 -3.197,-6.892 -18.797,4.815 -33.312,13.345 -14.513,8.531 -44.183,29.228 -48.27,29.767 -4.087,0.539 -16.555,-2.482 -16.238,-15.455 0.318,-12.972 27.551,-26.536 34.854,-31.15 7.302,-4.614 45.083,-27.384 42.276,-35.716 -1.75,-5.195 -21.979,2.139 -33.92,6.959 -11.94,4.82 -40.934,15.528 -44.974,6.628 -5.648,-12.439 -2.736,-23.233 29.544,-34.945 32.279,-11.713 38.744,-16.427 45.495,-21.374 6.751,-4.948 27.178,-32.689 52.373,-42.639 15.809,-6.244 34.422,-12.959 45.403,-11.212 9.374,-3.769 29.104,-35.2 29.104,-35.2 0,0 22.841,5.941 40.275,19.848 C -13.613,-21.41 0,0 0,0"
               style="fill:#ffffff;fill-opacity:1;fill-rule:nonzero;stroke:none"
               id="path5482" />
          </g>
        </g>
      </g>
      <g
         id="g5484">
        <g
           id="g5486"
           clip-path="url(#clipPath5490)">
          <g
             id="g5492"
             transform="translate(410.08,429.7622)">
            <path
               d="m 0,0 -27.074,-68.728 c -1.584,-4.022 -3.811,-3.433 -3.198,0.847 l 10.469,73.122 c 0.42,2.929 1.987,5.594 3.114,5.296 L -0.085,6.143 C 1.042,5.844 1.084,2.752 0,0"
               style="fill:#ffffff;fill-opacity:1;fill-rule:nonzero;stroke:none"
               id="path5494" />
          </g>
          <g
             id="g5496"
             transform="translate(250.0166,447.9976)">
            <path
               d="m 0,0 14.682,-36.225 c 0.859,-2.12 -0.512,-2.938 -1.97,-1.175 l -24.907,30.124 c -0.998,1.206 -1.306,2.848 -0.612,3.262 L -2.581,2.088 C -1.887,2.502 -0.588,1.451 0,0"
               style="fill:#ffffff;fill-opacity:1;fill-rule:nonzero;stroke:none"
               id="path5498" />
          </g>
          <g
             id="g5500"
             transform="translate(162.1181,381.5654)">
            <path
               d="m 0,0 36.477,-34.289 c 2.134,-2.007 1.187,-3.292 -1.361,-1.846 l -43.544,24.704 c -1.744,0.99 -3.025,2.652 -2.546,3.302 l 7.067,9.585 C -3.428,2.106 -1.462,1.374 0,0"
               style="fill:#ffffff;fill-opacity:1;fill-rule:nonzero;stroke:none"
               id="path5502" />
          </g>
          <g
             id="g5504"
             transform="translate(136.4892,279.627)">
            <path
               d="m 0,0 33.015,-13.757 c 1.931,-0.806 1.633,-1.829 -0.429,-1.472 l -35.239,6.118 c -1.411,0.245 -2.689,1.018 -2.537,1.537 l 2.224,7.639 C -2.815,0.584 -1.322,0.551 0,0"
               style="fill:#ffffff;fill-opacity:1;fill-rule:nonzero;stroke:none"
               id="path5506" />
          </g>
          <g
             id="g5508"
             transform="translate(183.6953,187.4365)">
            <path
               d="M 0,0 37.143,6.404 C 39.316,6.779 39.78,5.37 37.81,4.38 L 4.129,-12.539 C 2.78,-13.217 1.175,-13.18 0.94,-12.467 L -2.522,-1.952 C -2.757,-1.239 -1.488,-0.256 0,0"
               style="fill:#ffffff;fill-opacity:1;fill-rule:nonzero;stroke:none"
               id="path5510" />
          </g>
          <g
             id="g5512"
             transform="translate(334.3691,463.0659)">
            <path
               d="m 0,0 -9.429,-31.857 c -0.551,-1.865 -1.954,-1.684 -2.014,0.26 L -12.474,1.61 c -0.041,1.33 0.636,2.585 1.346,2.494 L -0.668,2.753 C 0.041,2.662 0.378,1.276 0,0"
               style="fill:#ffffff;fill-opacity:1;fill-rule:nonzero;stroke:none"
               id="path5514" />
          </g>
        </g>
      </g>
    </g>
  </g>
</svg>
