<?xml version="1.0" encoding="UTF-8" standalone="no"?>
<!-- Created with Inkscape (http://www.inkscape.org/) -->

<svg
   width="12.700176mm"
   height="12.699823mm"
   viewBox="0 0 12.700176 12.699823"
   version="1.1"
   id="svg3326"
   inkscape:version="1.1.2 (0a00cf5339, 2022-02-04)"
   sodipodi:docname="dodge.svg"
   xmlns:inkscape="http://www.inkscape.org/namespaces/inkscape"
   xmlns:sodipodi="http://sodipodi.sourceforge.net/DTD/sodipodi-0.dtd"
   xmlns="http://www.w3.org/2000/svg"
   xmlns:svg="http://www.w3.org/2000/svg">
  <sodipodi:namedview
     id="namedview3328"
     pagecolor="#ffffff"
     bordercolor="#666666"
     borderopacity="1.0"
     inkscape:pageshadow="2"
     inkscape:pageopacity="0.0"
     inkscape:pagecheckerboard="0"
     inkscape:document-units="mm"
     showgrid="false"
     fit-margin-top="0"
     fit-margin-left="0"
     fit-margin-right="0"
     fit-margin-bottom="0"
     inkscape:zoom="11.146352"
     inkscape:cx="16.5525"
     inkscape:cy="13.143313"
     inkscape:window-width="1846"
     inkscape:window-height="1016"
     inkscape:window-x="0"
     inkscape:window-y="0"
     inkscape:window-maximized="1"
     inkscape:current-layer="layer1" />
  <defs
     id="defs3323">
    <clipPath
       clipPathUnits="userSpaceOnUse"
       id="clipPath1352">
      <path
         d="m 49,269.726 h 36.239 v 36 H 49 Z"
         id="path1350" />
    </clipPath>
  </defs>
  <g
     inkscape:label="Layer 1"
     inkscape:groupmode="layer"
     id="layer1"
     transform="translate(-132.65503,-84.800983)">
    <g
       id="g1346"
       transform="matrix(0.35277777,0,0,-0.35277777,115.32682,192.65432)">
      <g
         id="g1348"
         clip-path="url(#clipPath1352)">
        <g
           id="g1354"
           transform="translate(67.1196,269.9753)">
          <path
             d="m 0,0 c -0.244,0 -0.473,0.095 -0.645,0.267 l -16.777,16.777 c -0.355,0.355 -0.355,0.935 0,1.29 l 16.777,16.777 c 0.172,0.172 0.401,0.267 0.645,0.267 0.244,0 0.473,-0.095 0.645,-0.267 L 17.422,18.334 c 0.355,-0.355 0.355,-0.935 0,-1.29 L 0.645,0.267 C 0.473,0.095 0.244,0 0,0"
             style="fill:#d5741e;fill-opacity:1;fill-rule:nonzero;stroke:none"
             id="path1356" />
        </g>
        <g
           id="g1358"
           transform="translate(67.1196,305.7265)">
          <path
             d="m 0,0 c -0.313,0 -0.626,-0.12 -0.866,-0.359 l -16.775,-16.775 c -0.479,-0.479 -0.479,-1.255 0,-1.731 L -0.866,-35.641 C -0.626,-35.88 -0.313,-36 0,-36 c 0.313,0 0.626,0.12 0.866,0.359 l 16.775,16.776 c 0.479,0.476 0.479,1.252 0,1.731 L 0.866,-0.359 C 0.626,-0.12 0.313,0 0,0 m 0,-0.622 c 0.162,0 0.313,-0.063 0.426,-0.176 l 16.776,-16.775 c 0.113,-0.114 0.176,-0.267 0.176,-0.427 0,-0.162 -0.063,-0.313 -0.176,-0.426 L 0.426,-35.201 C 0.313,-35.315 0.162,-35.378 0,-35.378 c -0.162,0 -0.313,0.063 -0.426,0.177 l -16.776,16.775 c -0.113,0.113 -0.176,0.264 -0.176,0.426 0,0.16 0.063,0.313 0.176,0.427 l 16.776,16.775 c 0.113,0.113 0.264,0.176 0.426,0.176"
             style="fill:#ffffff;fill-opacity:1;fill-rule:nonzero;stroke:none"
             id="path1360" />
        </g>
        <g
           id="g1362"
           transform="translate(70.1823,295.2022)">
          <path
             d="m 0,0 c 0,-1.202 -0.729,-2.235 -1.768,-2.679 0.351,-0.151 0.738,-0.234 1.144,-0.234 1.609,0 2.914,1.304 2.914,2.913 0,1.609 -1.305,2.913 -2.914,2.913 C -1.03,2.913 -1.417,2.83 -1.768,2.679 -0.729,2.235 0,1.202 0,0"
             style="fill:#ffffff;fill-opacity:1;fill-rule:nonzero;stroke:none"
             id="path1364" />
        </g>
        <g
           id="g1366"
           transform="translate(70.8751,291.0277)">
          <path
             d="m 0,0 c 0,0 -0.79,-0.216 -1.44,-0.216 -0.268,0 -0.561,0.036 -0.811,0.079 l 2.87,-10.26 c 0,0 -0.444,-2.11 -3.202,-2.579 0.344,-0.059 0.725,-0.092 1.145,-0.092 3.785,0 4.347,2.671 4.347,2.671 z"
             style="fill:#ffffff;fill-opacity:1;fill-rule:nonzero;stroke:none"
             id="path1368" />
        </g>
        <g
           id="g1370"
           transform="translate(66.2074,291.0188)">
          <path
             d="m 0,0 -0.003,0.009 c 0,0 -0.012,-0.003 -0.035,-0.009 -0.16,-0.041 -0.836,-0.207 -1.404,-0.207 -0.578,0 -1.266,0.169 -1.413,0.207 -0.018,0.005 -0.028,0.007 -0.028,0.007 L -2.885,0 -3.009,-0.443 h 3.133 z m 0.784,-2.802 -0.05,0.178 h -4.353 l -0.05,-0.178 -0.124,-0.443 H 0.908 Z M 1.568,-5.605 1.476,-5.274 H -4.36 l -0.092,-0.331 -0.124,-0.443 h 6.268 z m 0.896,-3.202 -0.111,0.4 -0.136,0.483 h -7.319 l -0.134,-0.483 -0.112,-0.4 -0.012,-0.043 h 7.836 z m 0.371,-1.325 -0.09,0.323 -0.157,0.559 h -8.06 l -0.156,-0.559 -0.091,-0.323 -0.033,-0.12 h 8.621 z m -4.276,-2.927 c 1.726,0 2.782,0.555 3.419,1.159 h -6.839 c 0.639,-0.604 1.694,-1.159 3.42,-1.159 m -4.293,2.484 c 0.052,-0.151 0.147,-0.377 0.307,-0.635 0.05,-0.08 0.107,-0.162 0.17,-0.247 0.049,-0.065 0.102,-0.13 0.159,-0.196 h 7.313 c 0.058,0.066 0.111,0.131 0.159,0.196 0.064,0.085 0.12,0.167 0.17,0.247 0.161,0.258 0.255,0.484 0.307,0.635 z M 1.96,-7.006 1.846,-6.599 H -4.731 L -4.844,-7.006 -4.969,-7.45 H 2.085 Z M 1.176,-4.203 1.105,-3.949 H -3.99 L -4.061,-4.203 -4.185,-4.647 H 1.3 Z M 0.392,-1.401 0.363,-1.299 H -3.248 L -3.277,-1.401 -3.401,-1.844 H 0.516 Z M 1.124,5.771 H -3.762 C -3.798,5.717 -3.831,5.662 -3.862,5.606 H 1.224 C 1.193,5.662 1.16,5.717 1.124,5.771 M 1.582,4.446 H -4.22 C -4.228,4.366 -4.232,4.285 -4.232,4.204 h 5.826 c 0,0.081 -0.004,0.162 -0.012,0.242 M -2.987,1.795 c 0.242,-0.17 0.512,-0.303 0.802,-0.393 h 1.732 c 0.29,0.09 0.559,0.223 0.802,0.393 z m -1.046,1.326 c 0.044,-0.11 0.093,-0.216 0.148,-0.318 h 5.132 c 0.055,0.102 0.104,0.208 0.148,0.318 z m 2.925,3.968 c -0.07,0.005 -0.14,0.008 -0.211,0.008 -0.041,0 -0.083,-0.001 -0.124,-0.003 C -1.648,7.086 -1.848,7.056 -2.039,7.007 h 1.44 c -0.165,0.042 -0.335,0.07 -0.509,0.082"
             style="fill:#ffffff;fill-opacity:1;fill-rule:nonzero;stroke:none"
             id="path1372" />
        </g>
      </g>
    </g>
  </g>
</svg>
