<?xml version="1.0" encoding="UTF-8" standalone="no"?>
<!-- Created with Inkscape (http://www.inkscape.org/) -->

<svg
   width="204.15126mm"
   height="204.15073mm"
   viewBox="0 0 204.15127 204.15072"
   version="1.1"
   id="svg5"
   xmlns="http://www.w3.org/2000/svg"
   xmlns:svg="http://www.w3.org/2000/svg">
  <defs
     id="defs2">
    <clipPath
       clipPathUnits="userSpaceOnUse"
       id="clipPath1104">
      <path
         d="M 0,600 H 600 V 0 H 0 Z"
         id="path1102" />
    </clipPath>
    <clipPath
       clipPathUnits="userSpaceOnUse"
       id="clipPath1286">
      <path
         d="M 0,600 H 600 V 0 H 0 Z"
         id="path1284" />
    </clipPath>
    <clipPath
       clipPathUnits="userSpaceOnUse"
       id="clipPath1470">
      <path
         d="M 0,600 H 600 V 0 H 0 Z"
         id="path1468" />
    </clipPath>
    <clipPath
       clipPathUnits="userSpaceOnUse"
       id="clipPath1656">
      <path
         d="M 0,600 H 600 V 0 H 0 Z"
         id="path1654" />
    </clipPath>
    <clipPath
       clipPathUnits="userSpaceOnUse"
       id="clipPath1844">
      <path
         d="M 0,600 H 600 V 0 H 0 Z"
         id="path1842" />
    </clipPath>
    <clipPath
       clipPathUnits="userSpaceOnUse"
       id="clipPath2265">
      <path
         d="M 0,600 H 600 V 0 H 0 Z"
         id="path2263" />
    </clipPath>
    <clipPath
       clipPathUnits="userSpaceOnUse"
       id="clipPath2512">
      <path
         d="M 0,600 H 600 V 0 H 0 Z"
         id="path2510" />
    </clipPath>
    <clipPath
       clipPathUnits="userSpaceOnUse"
       id="clipPath2740">
      <path
         d="M 0,300 H 300 V 0 H 0 Z"
         id="path2738" />
    </clipPath>
    <clipPath
       clipPathUnits="userSpaceOnUse"
       id="clipPath2946">
      <path
         d="M 0,300 H 300 V 0 H 0 Z"
         id="path2944" />
    </clipPath>
    <clipPath
       clipPathUnits="userSpaceOnUse"
       id="clipPath3139">
      <path
         d="M 0,300 H 300 V 0 H 0 Z"
         id="path3137" />
    </clipPath>
    <clipPath
       clipPathUnits="userSpaceOnUse"
       id="clipPath3322">
      <path
         d="M 0,300 H 300 V 0 H 0 Z"
         id="path3320" />
    </clipPath>
    <clipPath
       clipPathUnits="userSpaceOnUse"
       id="clipPath3754">
      <path
         d="M 0,300 H 300 V 0 H 0 Z"
         id="path3752" />
    </clipPath>
    <clipPath
       clipPathUnits="userSpaceOnUse"
       id="clipPath3928">
      <path
         d="M 0,300 H 300 V 0 H 0 Z"
         id="path3926" />
    </clipPath>
    <clipPath
       clipPathUnits="userSpaceOnUse"
       id="clipPath4106">
      <path
         d="M 0,300 H 300 V 0 H 0 Z"
         id="path4104" />
    </clipPath>
    <clipPath
       clipPathUnits="userSpaceOnUse"
       id="clipPath4300">
      <path
         d="M 0,300 H 300 V 0 H 0 Z"
         id="path4298" />
    </clipPath>
    <clipPath
       clipPathUnits="userSpaceOnUse"
       id="clipPath4493">
      <path
         d="M 0,300 H 300 V 0 H 0 Z"
         id="path4491" />
    </clipPath>
    <clipPath
       clipPathUnits="userSpaceOnUse"
       id="clipPath4688">
      <path
         d="M 0,300 H 300 V 0 H 0 Z"
         id="path4686" />
    </clipPath>
    <clipPath
       clipPathUnits="userSpaceOnUse"
       id="clipPath4913">
      <path
         d="M 0,600 H 600 V 0 H 0 Z"
         id="path4911" />
    </clipPath>
    <clipPath
       clipPathUnits="userSpaceOnUse"
       id="clipPath5244">
      <path
         d="M 0,600 H 600 V 0 H 0 Z"
         id="path5242" />
    </clipPath>
    <clipPath
       clipPathUnits="userSpaceOnUse"
       id="clipPath5260">
      <path
         d="M 286.083,583.583 16.416,313.916 c -7.685,-7.686 -7.685,-20.146 0,-27.833 v 0 L 286.083,16.417 c 7.687,-7.686 20.147,-7.686 27.833,0 v 0 l 269.667,269.666 c 7.686,7.687 7.686,20.147 0,27.833 v 0 L 313.916,583.583 c -3.843,3.843 -8.879,5.765 -13.916,5.765 v 0 c -5.037,0 -10.074,-1.922 -13.917,-5.765"
         id="path5258" />
    </clipPath>
    <clipPath
       clipPathUnits="userSpaceOnUse"
       id="clipPath5462">
      <path
         d="M 0,600 H 600 V 0 H 0 Z"
         id="path5460" />
    </clipPath>
    <clipPath
       clipPathUnits="userSpaceOnUse"
       id="clipPath5478">
      <path
         d="M 286.083,583.583 16.417,313.916 c -7.687,-7.686 -7.687,-20.146 0,-27.833 v 0 L 286.083,16.417 c 7.687,-7.686 20.147,-7.686 27.834,0 v 0 l 269.666,269.666 c 7.686,7.687 7.686,20.147 0,27.833 v 0 L 313.917,583.583 c -3.843,3.843 -8.88,5.765 -13.917,5.765 v 0 c -5.037,0 -10.074,-1.922 -13.917,-5.765"
         id="path5476" />
    </clipPath>
    <clipPath
       clipPathUnits="userSpaceOnUse"
       id="clipPath5490">
      <path
         d="M 0,600 H 600 V 0 H 0 Z"
         id="path5488" />
    </clipPath>
    <clipPath
       clipPathUnits="userSpaceOnUse"
       id="clipPath5808">
      <path
         d="M 0,600 H 600 V 0 H 0 Z"
         id="path5806" />
    </clipPath>
  </defs>
  <g
     id="layer1"
     transform="translate(176.24598,312.07102)">
    <g
       id="g5804"
       clip-path="url(#clipPath5808)"
       transform="matrix(0.35277777,0,0,-0.35277777,-180.00368,-104.16225)">
      <g
         id="g5810"
         transform="translate(300,15.6523)">
        <path
           d="m 0,0 c -3.922,0 -7.608,1.527 -10.382,4.3 l -269.666,269.666 c -2.772,2.773 -4.3,6.46 -4.3,10.382 0,3.921 1.528,7.608 4.3,10.381 l 269.666,269.667 c 2.774,2.772 6.46,4.3 10.382,4.3 3.922,0 7.608,-1.528 10.382,-4.3 L 280.048,294.729 c 2.772,-2.773 4.3,-6.46 4.3,-10.381 0,-3.922 -1.528,-7.609 -4.3,-10.382 L 10.382,4.3 C 7.608,1.527 3.922,0 0,0"
           style="fill:#99282d;fill-opacity:1;fill-rule:nonzero;stroke:none"
           id="path5812" />
      </g>
      <g
         id="g5814"
         transform="translate(300,589.3477)">
        <path
           d="m 0,0 c -5.037,0 -10.073,-1.921 -13.917,-5.764 l -269.666,-269.667 c -7.687,-7.686 -7.687,-20.147 0,-27.834 l 269.666,-269.666 c 3.844,-3.842 8.88,-5.764 13.917,-5.764 5.037,0 10.073,1.922 13.917,5.764 l 269.666,269.666 c 7.687,7.687 7.687,20.148 0,27.834 L 13.917,-5.764 C 10.073,-1.921 5.037,0 0,0 m 0,-10 c 2.586,0 5.017,-1.007 6.846,-2.835 l 269.667,-269.667 c 3.774,-3.775 3.774,-9.917 0,-13.691 L 6.846,-565.859 c -1.829,-1.829 -4.26,-2.836 -6.846,-2.836 -2.586,0 -5.017,1.007 -6.846,2.836 l -269.667,269.666 c -3.774,3.774 -3.774,9.916 0,13.691 L -6.846,-12.835 C -5.017,-11.007 -2.586,-10 0,-10"
           style="fill:#ffffff;fill-opacity:1;fill-rule:nonzero;stroke:none"
           id="path5816" />
      </g>
      <g
         id="g5818"
         transform="translate(203.3125,205.6602)">
        <path
           d="m 0,0 c 44.953,-43.753 99.49,-37.758 99.49,-37.758 0,0 0,2.994 1.795,8.39 11.39,2.399 38.959,0.599 41.954,0.599 3,0 8.99,-9.589 10.789,-12.585 7.79,0 53.343,13.185 60.534,22.175 3.594,11.39 -7.791,78.512 -14.385,109.08 32.363,86.902 16.779,112.071 16.779,112.071 -32.959,10.79 -52.138,6.595 -71.317,-0.6 -19.179,-7.189 -41.354,-2.995 -43.154,-4.789 -0.743,-0.745 1.612,-16.919 4.621,-36.375 0.105,-0.66 0.205,-1.32 0.308,-1.984 0.491,-3.144 0.982,-6.352 1.482,-9.59 0.105,-0.659 0.209,-1.319 0.318,-1.983 0.496,-3.144 0.992,-6.302 1.482,-9.421 0.09,-0.595 0.184,-1.19 0.279,-1.78 0.501,-3.263 1.006,-6.476 1.482,-9.59 0.114,-0.734 0.223,-1.463 0.337,-2.187 0.496,-3.282 0.977,-6.441 1.418,-9.416 0.14,-0.946 0.278,-1.874 0.407,-2.781 0.516,-3.56 0.957,-6.798 1.314,-9.59 0.049,-0.407 0.104,-0.798 0.149,-1.185 0.5,-3.957 0.788,-6.887 0.788,-8.404 0,-0.318 -0.019,-0.655 -0.064,-1.012 -0.065,-0.61 -0.194,-1.274 -0.377,-1.983 -0.7,-2.654 -2.122,-5.946 -4.007,-9.59 -0.337,-0.649 -0.689,-1.314 -1.056,-1.983 -8.053,-14.826 -22.328,-34.084 -24.46,-38.775 -38.358,0.6 -57.538,-8.99 -57.538,-8.99 L 11.989,33.563 C 11.989,33.563 0.6,25.77 0,0"
           style="fill:#ffffff;fill-opacity:1;fill-rule:nonzero;stroke:none"
           id="path5820" />
      </g>
      <g
         id="g5822"
         transform="translate(286.999,229.5264)">
        <path
           d="M 0,0 -113.107,158.178"
           style="fill:none;stroke:#ffffff;stroke-width:10;stroke-linecap:round;stroke-linejoin:miter;stroke-miterlimit:10;stroke-dasharray:none;stroke-opacity:1"
           id="path5824" />
      </g>
      <g
         id="g5826"
         transform="translate(243.4258,360.6089)">
        <path
           d="m 0,0 -7.902,-31.237 -40.633,56.605 7.903,31.237 z"
           style="fill:#ffffff;fill-opacity:1;fill-rule:nonzero;stroke:none"
           id="path5828" />
      </g>
      <g
         id="g5830"
         transform="translate(168.0146,367.8188)">
        <path
           d="M 0,0 -32.543,1.495 9.365,-54.171 41.908,-55.667 Z"
           style="fill:#ffffff;fill-opacity:1;fill-rule:nonzero;stroke:none"
           id="path5832" />
      </g>
    </g>
  </g>
</svg>
