<?xml version="1.0" encoding="UTF-8" standalone="no"?>
<!-- Created with Inkscape (http://www.inkscape.org/) -->

<svg
   width="24.632391mm"
   height="23.68025mm"
   viewBox="0 0 24.632391 23.68025"
   version="1.1"
   id="svg5"
   xml:space="preserve"
   inkscape:version="1.2.2 (b0a8486541, 2022-12-01)"
   sodipodi:docname="gh2e-plague.svg"
   xmlns:inkscape="http://www.inkscape.org/namespaces/inkscape"
   xmlns:sodipodi="http://sodipodi.sourceforge.net/DTD/sodipodi-0.dtd"
   xmlns="http://www.w3.org/2000/svg"
   xmlns:svg="http://www.w3.org/2000/svg"><sodipodi:namedview
     id="namedview7"
     pagecolor="#ffffff"
     bordercolor="#000000"
     borderopacity="0.25"
     inkscape:showpageshadow="2"
     inkscape:pageopacity="0.0"
     inkscape:pagecheckerboard="0"
     inkscape:deskcolor="#d1d1d1"
     inkscape:document-units="mm"
     showgrid="false"
     inkscape:zoom="1.3986392"
     inkscape:cx="96.522391"
     inkscape:cy="-9.6522391"
     inkscape:window-width="1854"
     inkscape:window-height="1011"
     inkscape:window-x="0"
     inkscape:window-y="0"
     inkscape:window-maximized="1"
     inkscape:current-layer="layer1" /><defs
     id="defs2" /><g
     inkscape:label="Layer 1"
     inkscape:groupmode="layer"
     id="layer1"
     transform="translate(-117.82062,-142.79105)"><path
       style="fill:#000000;stroke:#fdd307;stroke-width:0.85;stroke-dasharray:none;stroke-opacity:1;fill-opacity:1"
       d="m 130.10955,143.31718 11.84811,8.56369 -4.33194,14.15726 -14.99054,0.008 -4.31966,-14.03903 z"
       id="path479"
       sodipodi:nodetypes="cccccc" /><path
       style="fill:#fdd307;stroke-width:0.264583;fill-opacity:1"
       d="m 138.61519,162.12815 c -0.0941,-0.0941 -0.53516,-0.0203 -0.98011,0.16398 -0.69112,0.28627 -0.87849,0.27218 -1.28608,-0.0967 -0.87283,-0.7899 -1.09486,-0.53378 -1.02774,1.18551 0.0503,1.28926 -0.0298,1.67741 -0.39492,1.91374 -0.3526,0.22821 -0.54651,0.20612 -0.84223,-0.0959 -0.32314,-0.33006 -0.33649,-0.7187 -0.0841,-2.44642 0.2623,-1.79528 0.24661,-2.10752 -0.12457,-2.4787 -0.58505,-0.58505 -1.05119,-0.21124 -0.98383,0.78894 0.0995,1.47685 0.006,1.75941 -0.58413,1.75941 -0.54161,0 -0.55645,-0.0791 -0.38487,-2.05052 0.19466,-2.23655 -0.14523,-3.22277 -0.99791,-2.89557 -0.51946,0.19934 -0.59972,2.35834 -0.14813,3.98473 0.15623,0.56265 0.21101,1.31403 0.12174,1.66973 -0.13628,0.54297 -0.29881,0.63353 -1.01314,0.56449 -0.84832,-0.082 -0.85074,-0.0865 -0.82666,-1.53744 0.0133,-0.80037 0.11935,-2.25418 0.23572,-3.23069 0.28011,-2.35068 6.1e-4,-2.74858 -2.70773,-3.85473 -2.37579,-0.97033 -4.29902,-2.24 -4.29902,-2.83812 0,-0.69671 1.10769,-0.43434 3.91891,0.92824 2.91466,1.41272 3.48942,1.56234 3.48942,0.90834 0,-0.26433 -0.8371,-0.79269 -2.3151,-1.46124 -3.51269,-1.58892 -4.16719,-1.98615 -4.16719,-2.52913 0,-0.35864 0.22835,-0.51246 0.84998,-0.57255 0.63263,-0.0612 1.62491,0.33048 3.88062,1.53165 1.93993,1.03302 3.09437,1.51072 3.2077,1.32735 0.26787,-0.43342 -0.30935,-0.97893 -1.9755,-1.86698 -1.77805,-0.94769 -3.27011,-2.23941 -3.11852,-2.69979 0.22602,-0.6864 1.30929,-0.48755 2.79231,0.51256 2.64169,1.78149 4.85781,3.59744 5.06122,4.14731 0.10864,0.29369 0.0331,1.31591 -0.16788,2.27161 -0.38919,1.85066 -0.18263,2.92825 0.56128,2.92825 0.62184,0 0.71131,-0.37629 0.79096,-3.32669 0.0733,-2.71441 0.0566,-2.80789 -0.57772,-3.23991 -1.42597,-0.97118 -1.91178,-1.60358 -1.90769,-2.48335 0.005,-1.09942 0.34704,-1.67254 0.82626,-1.38494 1.02464,0.61492 2.5894,2.11701 2.71277,2.6041 0.0773,0.30511 0.61762,0.84842 1.20076,1.20735 1.21843,0.74995 1.61225,1.53226 1.84051,3.65609 0.14974,1.39322 0.43778,1.71174 1.04722,1.71174 m -13.18778,1.33486 c -1.28463,-0.46466 -2.33731,-1.04003 -2.97656,-1.62691 -1.45892,-1.33941 -0.79255,-1.43529 1.95667,-0.28152 1.7939,0.75284 2.60739,1.33931 2.60739,1.87975 0,0.23625 -0.96543,0.25369 -1.5875,0.0287 z"
       id="path414"
       sodipodi:nodetypes="cssssscsssssssssssssssscsssssssssscsssscssssss" /></g></svg>
