<?xml version="1.0" encoding="UTF-8" standalone="no"?>
<!-- Created with Inkscape (http://www.inkscape.org/) -->

<svg
   width="204.15126mm"
   height="204.15073mm"
   viewBox="0 0 204.15127 204.15072"
   version="1.1"
   id="svg5"
   xmlns="http://www.w3.org/2000/svg"
   xmlns:svg="http://www.w3.org/2000/svg">
  <defs
     id="defs2">
    <clipPath
       clipPathUnits="userSpaceOnUse"
       id="clipPath1104">
      <path
         d="M 0,600 H 600 V 0 H 0 Z"
         id="path1102" />
    </clipPath>
    <clipPath
       clipPathUnits="userSpaceOnUse"
       id="clipPath1286">
      <path
         d="M 0,600 H 600 V 0 H 0 Z"
         id="path1284" />
    </clipPath>
    <clipPath
       clipPathUnits="userSpaceOnUse"
       id="clipPath1470">
      <path
         d="M 0,600 H 600 V 0 H 0 Z"
         id="path1468" />
    </clipPath>
    <clipPath
       clipPathUnits="userSpaceOnUse"
       id="clipPath1656">
      <path
         d="M 0,600 H 600 V 0 H 0 Z"
         id="path1654" />
    </clipPath>
    <clipPath
       clipPathUnits="userSpaceOnUse"
       id="clipPath1844">
      <path
         d="M 0,600 H 600 V 0 H 0 Z"
         id="path1842" />
    </clipPath>
    <clipPath
       clipPathUnits="userSpaceOnUse"
       id="clipPath2265">
      <path
         d="M 0,600 H 600 V 0 H 0 Z"
         id="path2263" />
    </clipPath>
    <clipPath
       clipPathUnits="userSpaceOnUse"
       id="clipPath2512">
      <path
         d="M 0,600 H 600 V 0 H 0 Z"
         id="path2510" />
    </clipPath>
    <clipPath
       clipPathUnits="userSpaceOnUse"
       id="clipPath2740">
      <path
         d="M 0,300 H 300 V 0 H 0 Z"
         id="path2738" />
    </clipPath>
    <clipPath
       clipPathUnits="userSpaceOnUse"
       id="clipPath2946">
      <path
         d="M 0,300 H 300 V 0 H 0 Z"
         id="path2944" />
    </clipPath>
    <clipPath
       clipPathUnits="userSpaceOnUse"
       id="clipPath3139">
      <path
         d="M 0,300 H 300 V 0 H 0 Z"
         id="path3137" />
    </clipPath>
    <clipPath
       clipPathUnits="userSpaceOnUse"
       id="clipPath3322">
      <path
         d="M 0,300 H 300 V 0 H 0 Z"
         id="path3320" />
    </clipPath>
    <clipPath
       clipPathUnits="userSpaceOnUse"
       id="clipPath3754">
      <path
         d="M 0,300 H 300 V 0 H 0 Z"
         id="path3752" />
    </clipPath>
    <clipPath
       clipPathUnits="userSpaceOnUse"
       id="clipPath3928">
      <path
         d="M 0,300 H 300 V 0 H 0 Z"
         id="path3926" />
    </clipPath>
    <clipPath
       clipPathUnits="userSpaceOnUse"
       id="clipPath4106">
      <path
         d="M 0,300 H 300 V 0 H 0 Z"
         id="path4104" />
    </clipPath>
    <clipPath
       clipPathUnits="userSpaceOnUse"
       id="clipPath4300">
      <path
         d="M 0,300 H 300 V 0 H 0 Z"
         id="path4298" />
    </clipPath>
    <clipPath
       clipPathUnits="userSpaceOnUse"
       id="clipPath4493">
      <path
         d="M 0,300 H 300 V 0 H 0 Z"
         id="path4491" />
    </clipPath>
    <clipPath
       clipPathUnits="userSpaceOnUse"
       id="clipPath4688">
      <path
         d="M 0,300 H 300 V 0 H 0 Z"
         id="path4686" />
    </clipPath>
    <clipPath
       clipPathUnits="userSpaceOnUse"
       id="clipPath4913">
      <path
         d="M 0,600 H 600 V 0 H 0 Z"
         id="path4911" />
    </clipPath>
    <clipPath
       clipPathUnits="userSpaceOnUse"
       id="clipPath5244">
      <path
         d="M 0,600 H 600 V 0 H 0 Z"
         id="path5242" />
    </clipPath>
    <clipPath
       clipPathUnits="userSpaceOnUse"
       id="clipPath5260">
      <path
         d="M 286.083,583.583 16.416,313.916 c -7.685,-7.686 -7.685,-20.146 0,-27.833 v 0 L 286.083,16.417 c 7.687,-7.686 20.147,-7.686 27.833,0 v 0 l 269.667,269.666 c 7.686,7.687 7.686,20.147 0,27.833 v 0 L 313.916,583.583 c -3.843,3.843 -8.879,5.765 -13.916,5.765 v 0 c -5.037,0 -10.074,-1.922 -13.917,-5.765"
         id="path5258" />
    </clipPath>
    <clipPath
       clipPathUnits="userSpaceOnUse"
       id="clipPath5462">
      <path
         d="M 0,600 H 600 V 0 H 0 Z"
         id="path5460" />
    </clipPath>
    <clipPath
       clipPathUnits="userSpaceOnUse"
       id="clipPath5478">
      <path
         d="M 286.083,583.583 16.417,313.916 c -7.687,-7.686 -7.687,-20.146 0,-27.833 v 0 L 286.083,16.417 c 7.687,-7.686 20.147,-7.686 27.834,0 v 0 l 269.666,269.666 c 7.686,7.687 7.686,20.147 0,27.833 v 0 L 313.917,583.583 c -3.843,3.843 -8.88,5.765 -13.917,5.765 v 0 c -5.037,0 -10.074,-1.922 -13.917,-5.765"
         id="path5476" />
    </clipPath>
    <clipPath
       clipPathUnits="userSpaceOnUse"
       id="clipPath5490">
      <path
         d="M 0,600 H 600 V 0 H 0 Z"
         id="path5488" />
    </clipPath>
    <clipPath
       clipPathUnits="userSpaceOnUse"
       id="clipPath5808">
      <path
         d="M 0,600 H 600 V 0 H 0 Z"
         id="path5806" />
    </clipPath>
    <clipPath
       clipPathUnits="userSpaceOnUse"
       id="clipPath6067">
      <path
         d="M 0,600 H 600 V 0 H 0 Z"
         id="path6065" />
    </clipPath>
    <clipPath
       clipPathUnits="userSpaceOnUse"
       id="clipPath6304">
      <path
         d="M 0,600 H 600 V 0 H 0 Z"
         id="path6302" />
    </clipPath>
    <clipPath
       clipPathUnits="userSpaceOnUse"
       id="clipPath6531">
      <path
         d="M 0,600 H 600 V 0 H 0 Z"
         id="path6529" />
    </clipPath>
    <clipPath
       clipPathUnits="userSpaceOnUse"
       id="clipPath6760">
      <path
         d="M 0,600 H 600 V 0 H 0 Z"
         id="path6758" />
    </clipPath>
  </defs>
  <g
     id="layer1"
     transform="translate(162.37868,314.31598)">
    <g
       id="g6756"
       clip-path="url(#clipPath6760)"
       transform="matrix(0.35277777,0,0,-0.35277777,-166.13638,-106.40728)">
      <g
         id="g6762"
         transform="translate(300,15.6523)">
        <path
           d="m 0,0 c -3.922,0 -7.608,1.527 -10.382,4.3 l -269.666,269.666 c -5.723,5.724 -5.723,15.039 0,20.763 l 269.666,269.667 c 2.774,2.772 6.46,4.299 10.382,4.299 3.922,0 7.608,-1.527 10.382,-4.299 L 280.048,294.729 c 5.724,-5.724 5.724,-15.039 0,-20.763 L 10.382,4.3 C 7.608,1.527 3.922,0 0,0"
           style="fill:#747c5e;fill-opacity:1;fill-rule:nonzero;stroke:none"
           id="path6764" />
      </g>
      <g
         id="g6766"
         transform="translate(300,589.3475)">
        <path
           d="m 0,0 c -5.037,0 -10.073,-1.921 -13.917,-5.765 l -269.666,-269.666 c -7.687,-7.686 -7.687,-20.147 0,-27.834 l 269.666,-269.666 c 3.844,-3.842 8.88,-5.764 13.917,-5.764 5.037,0 10.073,1.922 13.917,5.764 l 269.666,269.666 c 7.687,7.687 7.687,20.148 0,27.834 L 13.917,-5.765 C 10.073,-1.921 5.037,0 0,0 m 0,-10 c 2.586,0 5.017,-1.007 6.846,-2.835 l 269.667,-269.667 c 3.774,-3.774 3.774,-9.917 0,-13.691 L 6.846,-565.859 c -1.828,-1.829 -4.26,-2.836 -6.846,-2.836 -2.586,0 -5.017,1.007 -6.846,2.836 l -269.667,269.666 c -3.774,3.774 -3.774,9.917 0,13.691 L -6.846,-12.835 C -5.017,-11.007 -2.586,-10 0,-10"
           style="fill:#ffffff;fill-opacity:1;fill-rule:nonzero;stroke:none"
           id="path6768" />
      </g>
      <g
         id="g6770"
         transform="translate(475.3554,323.37)">
        <path
           d="m 0,0 c -7.499,32.863 -24.952,95.097 -169.214,95.097 -144.261,0 -161.714,-62.234 -169.213,-95.097 -13.352,-58.51 12.708,-86.403 27.65,-96.87 18.397,-12.889 62.193,-15.086 62.193,-15.086 0,0 -5.897,-29.203 0,-35.998 12.975,-14.949 141.475,-15.949 158.741,0 6.61,6.105 0,35.998 0,35.998 0,0 43.796,2.197 62.194,15.086 C -12.709,-86.403 13.353,-58.51 0,0"
           style="fill:#ffffff;fill-opacity:1;fill-rule:nonzero;stroke:none"
           id="path6772" />
      </g>
      <g
         id="g6774"
         transform="translate(298.9716,272.9452)">
        <path
           d="m 0,0 c -8.886,-1.687 -22.468,-37.379 -19.615,-44.226 2.852,-6.846 9.088,2.836 22.252,0 11.613,-2.503 11.58,-5.68 17.613,-5.753 4.268,-0.05 0.096,18.301 -3.416,36 C 14.167,-0.541 8.887,1.687 0,0"
           style="fill:#747c5e;fill-opacity:1;fill-rule:nonzero;stroke:none"
           id="path6776" />
      </g>
      <g
         id="g6778"
         transform="translate(232.1562,304.9999)">
        <path
           d="m 0,0 29.903,26.16 c 3.029,2.958 3.029,7.756 0,10.714 -3.026,2.96 -7.939,2.96 -10.966,0 L -7.07,7.07 -33.639,36.863 c -2.769,2.952 -7.266,2.952 -10.036,0 -2.772,-2.95 -2.772,-7.736 0,-10.686 L -14.141,0 -44.147,-26.162 c -3.102,-2.957 -3.102,-7.752 0,-10.709 1.548,-1.48 3.582,-2.219 5.614,-2.219 2.031,0 4.064,0.739 5.613,2.219 L -7.07,-7.07 19.409,-36.74 c 1.405,-1.434 3.249,-2.151 5.092,-2.151 1.843,0 3.687,0.717 5.093,2.151 2.812,2.865 2.812,7.512 0,10.379 z"
           style="fill:#747c5e;fill-opacity:1;fill-rule:nonzero;stroke:none"
           id="path6780" />
      </g>
      <g
         id="g6782"
         transform="translate(232.1562,304.9999)">
        <path
           d="m 0,0 29.903,26.16 c 3.029,2.958 3.029,7.756 0,10.714 -3.026,2.96 -7.939,2.96 -10.966,0 L -7.07,7.07 -33.639,36.863 c -2.769,2.952 -7.266,2.952 -10.036,0 -2.772,-2.95 -2.772,-7.736 0,-10.686 L -14.141,0 -44.147,-26.162 c -3.102,-2.957 -3.102,-7.752 0,-10.709 1.548,-1.48 3.582,-2.219 5.614,-2.219 2.031,0 4.064,0.739 5.613,2.219 L -7.07,-7.07 19.409,-36.74 c 1.405,-1.434 3.249,-2.151 5.092,-2.151 1.843,0 3.687,0.717 5.093,2.151 2.812,2.865 2.812,7.512 0,10.379 z"
           style="fill:none;stroke:#747c60;stroke-width:5;stroke-linecap:butt;stroke-linejoin:miter;stroke-miterlimit:10;stroke-dasharray:none;stroke-opacity:1"
           id="path6784" />
      </g>
      <g
         id="g6786"
         transform="translate(382.1425,304.9999)">
        <path
           d="m 0,0 29.903,26.16 c 3.03,2.958 3.03,7.756 0,10.714 -3.026,2.96 -7.939,2.96 -10.965,0 L -7.07,7.07 -33.639,36.863 c -2.769,2.952 -7.266,2.952 -10.036,0 -2.772,-2.95 -2.772,-7.736 0,-10.686 L -14.141,0 -44.147,-26.162 c -3.102,-2.957 -3.102,-7.752 0,-10.709 1.549,-1.48 3.583,-2.219 5.614,-2.219 2.031,0 4.064,0.739 5.614,2.219 L -7.07,-7.07 19.409,-36.74 c 1.405,-1.434 3.25,-2.151 5.093,-2.151 1.842,0 3.686,0.717 5.092,2.151 2.813,2.865 2.813,7.512 0,10.379 z"
           style="fill:#747c5e;fill-opacity:1;fill-rule:nonzero;stroke:none"
           id="path6788" />
      </g>
      <g
         id="g6790"
         transform="translate(382.1425,304.9999)">
        <path
           d="m 0,0 29.903,26.16 c 3.03,2.958 3.03,7.756 0,10.714 -3.026,2.96 -7.939,2.96 -10.965,0 L -7.07,7.07 -33.639,36.863 c -2.769,2.952 -7.266,2.952 -10.036,0 -2.772,-2.95 -2.772,-7.736 0,-10.686 L -14.141,0 -44.147,-26.162 c -3.102,-2.957 -3.102,-7.752 0,-10.709 1.549,-1.48 3.583,-2.219 5.614,-2.219 2.031,0 4.064,0.739 5.614,2.219 L -7.07,-7.07 19.409,-36.74 c 1.405,-1.434 3.25,-2.151 5.093,-2.151 1.842,0 3.686,0.717 5.092,2.151 2.813,2.865 2.813,7.512 0,10.379 z"
           style="fill:none;stroke:#747c60;stroke-width:5;stroke-linecap:butt;stroke-linejoin:miter;stroke-miterlimit:10;stroke-dasharray:none;stroke-opacity:1"
           id="path6792" />
      </g>
    </g>
  </g>
</svg>
