<?xml version="1.0" encoding="UTF-8" standalone="no"?>
<svg
   version="1.2"
   width="15.26mm"
   height="15.28mm"
   viewBox="0 0 1526 1528"
   preserveAspectRatio="xMidYMid"
   fill-rule="evenodd"
   stroke-width="28.222"
   stroke-linejoin="round"
   xml:space="preserve"
   id="svg276"
   sodipodi:docname="regeneate.svg"
   inkscape:version="1.1.2 (0a00cf5339, 2022-02-04)"
   xmlns:inkscape="http://www.inkscape.org/namespaces/inkscape"
   xmlns:sodipodi="http://sodipodi.sourceforge.net/DTD/sodipodi-0.dtd"
   xmlns="http://www.w3.org/2000/svg"
   xmlns:svg="http://www.w3.org/2000/svg"
   xmlns:ooo="http://xml.openoffice.org/svg/export"><sodipodi:namedview
   id="namedview278"
   pagecolor="#ffffff"
   bordercolor="#666666"
   borderopacity="1.0"
   inkscape:pageshadow="2"
   inkscape:pageopacity="0.0"
   inkscape:pagecheckerboard="0"
   inkscape:document-units="mm"
   showgrid="false"
   fit-margin-top="0"
   fit-margin-left="0"
   fit-margin-right="0"
   fit-margin-bottom="0"
   inkscape:zoom="8.4517496"
   inkscape:cx="34.253263"
   inkscape:cy="9.7612925"
   inkscape:window-width="1850"
   inkscape:window-height="1016"
   inkscape:window-x="0"
   inkscape:window-y="0"
   inkscape:window-maximized="1"
   inkscape:current-layer="svg276" />
 <defs
   class="ClipPathGroup"
   id="defs8">
  <clipPath
   id="presentation_clip_path"
   clipPathUnits="userSpaceOnUse">
   <rect
   x="0"
   y="0"
   width="21000"
   height="29700"
   id="rect2" />
  </clipPath>
  <clipPath
   id="presentation_clip_path_shrink"
   clipPathUnits="userSpaceOnUse">
   <rect
   x="21"
   y="29"
   width="20958"
   height="29641"
   id="rect5" />
  </clipPath>
 
  
 
   
  
    
   
     
    </defs>
 <defs
   class="TextShapeIndex"
   id="defs12">
  <g
   ooo:slide="id1"
   ooo:id-list="id3 id4 id5 id6 id7 id8 id9 id10 id11 id12 id13 id14 id15 id16 id17 id18 id19 id20 id21 id22 id23 id24 id25 id26 id27 id28 id29 id30 id31 id32 id33"
   id="g10" />
 </defs>
 <defs
   class="EmbeddedBulletChars"
   id="defs44">
  <g
   id="bullet-char-template-57356"
   transform="matrix(4.8828125e-4,0,0,-4.8828125e-4,0,0)">
   <path
   d="M 580,1141 1163,571 580,0 -4,571 Z"
   id="path14" />
  </g>
  <g
   id="bullet-char-template-57354"
   transform="matrix(4.8828125e-4,0,0,-4.8828125e-4,0,0)">
   <path
   d="M 8,1128 H 1137 V 0 H 8 Z"
   id="path17" />
  </g>
  <g
   id="bullet-char-template-10146"
   transform="matrix(4.8828125e-4,0,0,-4.8828125e-4,0,0)">
   <path
   d="M 174,0 602,739 174,1481 1456,739 Z M 1358,739 309,1346 659,739 Z"
   id="path20" />
  </g>
  <g
   id="bullet-char-template-10132"
   transform="matrix(4.8828125e-4,0,0,-4.8828125e-4,0,0)">
   <path
   d="M 2015,739 1276,0 H 717 l 543,543 H 174 v 393 h 1086 l -543,545 h 557 z"
   id="path23" />
  </g>
  <g
   id="bullet-char-template-10007"
   transform="matrix(4.8828125e-4,0,0,-4.8828125e-4,0,0)">
   <path
   d="m 0,-2 c -7,16 -16,29 -25,39 l 381,530 c -94,256 -141,385 -141,387 0,25 13,38 40,38 9,0 21,-2 34,-5 21,4 42,12 65,25 l 27,-13 111,-251 280,301 64,-25 24,25 c 21,-10 41,-24 62,-43 C 886,937 835,863 770,784 769,783 710,716 594,584 L 774,223 c 0,-27 -21,-55 -63,-84 l 16,-20 C 717,90 699,76 672,76 641,76 570,178 457,381 L 164,-76 c -22,-34 -53,-51 -92,-51 -42,0 -63,17 -64,51 -7,9 -10,24 -10,44 0,9 1,19 2,30 z"
   id="path26" />
  </g>
  <g
   id="bullet-char-template-10004"
   transform="matrix(4.8828125e-4,0,0,-4.8828125e-4,0,0)">
   <path
   d="M 285,-33 C 182,-33 111,30 74,156 52,228 41,333 41,471 c 0,78 14,145 41,201 34,71 87,106 158,106 53,0 88,-31 106,-94 l 23,-176 c 8,-64 28,-97 59,-98 l 735,706 c 11,11 33,17 66,17 42,0 63,-15 63,-46 V 965 c 0,-36 -10,-64 -30,-84 L 442,47 C 390,-6 338,-33 285,-33 Z"
   id="path29" />
  </g>
  <g
   id="bullet-char-template-9679"
   transform="matrix(4.8828125e-4,0,0,-4.8828125e-4,0,0)">
   <path
   d="M 813,0 C 632,0 489,54 383,161 276,268 223,411 223,592 c 0,181 53,324 160,431 106,107 249,161 430,161 179,0 323,-54 432,-161 108,-107 162,-251 162,-431 0,-180 -54,-324 -162,-431 C 1136,54 992,0 813,0 Z"
   id="path32" />
  </g>
  <g
   id="bullet-char-template-8226"
   transform="matrix(4.8828125e-4,0,0,-4.8828125e-4,0,0)">
   <path
   d="m 346,457 c -73,0 -137,26 -191,78 -54,51 -81,114 -81,188 0,73 27,136 81,188 54,52 118,78 191,78 73,0 134,-26 185,-79 51,-51 77,-114 77,-187 0,-75 -25,-137 -76,-188 -50,-52 -112,-78 -186,-78 z"
   id="path35" />
  </g>
  <g
   id="bullet-char-template-8211"
   transform="matrix(4.8828125e-4,0,0,-4.8828125e-4,0,0)">
   <path
   d="M -4,459 H 1135 V 606 H -4 Z"
   id="path38" />
  </g>
  <g
   id="bullet-char-template-61548"
   transform="matrix(4.8828125e-4,0,0,-4.8828125e-4,0,0)">
   <path
   d="m 173,740 c 0,163 58,303 173,419 116,115 255,173 419,173 163,0 302,-58 418,-173 116,-116 174,-256 174,-419 0,-163 -58,-303 -174,-418 C 1067,206 928,148 765,148 601,148 462,206 346,322 231,437 173,577 173,740 Z"
   id="path41" />
  </g>
 </defs>
 <g
   id="g49"
   transform="translate(-4573,-6436)">
  <g
   id="id2"
   class="Master_Slide">
   <g
   id="bg-id2"
   class="Background" />
   <g
   id="bo-id2"
   class="BackgroundObjects" />
  </g>
 </g>
 <g
   class="Page"
   id="g268"
   transform="translate(-4573,-6436)">
      <g
   class="com.sun.star.drawing.ClosedBezierShape"
   id="g56">
       <g
   id="id3">
        <rect
   class="BoundingBox"
   stroke="none"
   fill="none"
   x="4586"
   y="6449"
   width="1501"
   height="1501"
   id="rect51" />
        <path
   fill="#c82098"
   stroke="none"
   d="m 5336,7949 c -10,0 -20,-5 -27,-12 l -712,-711 c -15,-15 -15,-40 0,-55 l 712,-710 c 7,-8 17,-12 27,-12 10,0 20,4 27,12 l 711,710 c 7,7 11,17 11,27 0,11 -4,21 -11,28 l -711,711 c -7,7 -17,12 -27,12 z"
   id="path53" />
       </g>
      </g>
      <g
   class="com.sun.star.drawing.ClosedBezierShape"
   id="g63">
       <g
   id="id4">
        <rect
   class="BoundingBox"
   stroke="none"
   fill="none"
   x="4573"
   y="6436"
   width="1526"
   height="1528"
   id="rect58" />
        <path
   fill="#ffffff"
   stroke="none"
   d="m 5336,6436 c -13,0 -27,5 -37,15 l -711,711 c -20,20 -20,53 0,73 l 711,711 c 10,11 24,16 37,16 13,0 26,-5 37,-16 l 710,-711 c 20,-20 20,-53 0,-73 l -710,-711 c -11,-10 -24,-15 -37,-15 z m 0,27 c 7,0 13,2 18,7 l 710,710 c 10,10 10,27 0,36 l -710,712 c -5,5 -11,7 -18,7 -7,0 -13,-2 -18,-7 l -711,-712 c -10,-9 -10,-26 0,-36 l 711,-710 c 5,-5 11,-7 18,-7 z"
   id="path60" />
       </g>
      </g>
      <g
   class="com.sun.star.drawing.ClosedBezierShape"
   id="g70">
       <g
   id="id5">
        <rect
   class="BoundingBox"
   stroke="none"
   fill="none"
   x="4955"
   y="6973"
   width="72"
   height="21"
   id="rect65" />
        <path
   fill="#ffffff"
   stroke="none"
   d="m 5026,6993 h -71 c 4,-7 10,-14 17,-20 h 33 c 7,5 14,13 21,20 z"
   id="path67" />
       </g>
      </g>
      <g
   class="com.sun.star.drawing.ClosedBezierShape"
   id="g77">
       <g
   id="id6">
        <rect
   class="BoundingBox"
   stroke="none"
   fill="none"
   x="4955"
   y="7036"
   width="120"
   height="25"
   id="rect72" />
        <path
   fill="#ffffff"
   stroke="none"
   d="m 5074,7060 h -110 c -4,-8 -7,-15 -9,-23 h 105 c 5,9 10,17 14,23 z"
   id="path74" />
       </g>
      </g>
      <g
   class="com.sun.star.drawing.ClosedBezierShape"
   id="g84">
       <g
   id="id7">
        <rect
   class="BoundingBox"
   stroke="none"
   fill="none"
   x="4987"
   y="7100"
   width="136"
   height="28"
   id="rect79" />
        <path
   fill="#ffffff"
   stroke="none"
   d="m 5122,7127 h -118 c -4,-8 -9,-15 -15,-24 0,-1 -1,-2 -2,-3 h 114 c 7,10 14,19 21,27 z"
   id="path81" />
       </g>
      </g>
      <g
   class="com.sun.star.drawing.ClosedBezierShape"
   id="g91">
       <g
   id="id8">
        <rect
   class="BoundingBox"
   stroke="none"
   fill="none"
   x="5073"
   y="6847"
   width="84"
   height="13"
   id="rect86" />
        <path
   fill="#ffffff"
   stroke="none"
   d="m 5156,6859 h -83 c 1,-5 2,-9 4,-12 h 74 c 1,3 3,7 5,12 z"
   id="path88" />
       </g>
      </g>
      <g
   class="com.sun.star.drawing.ClosedBezierShape"
   id="g98">
       <g
   id="id9">
        <rect
   class="BoundingBox"
   stroke="none"
   fill="none"
   x="5079"
   y="6910"
   width="104"
   height="17"
   id="rect93" />
        <path
   fill="#ffffff"
   stroke="none"
   d="m 5182,6926 h -98 c -2,-5 -3,-11 -5,-16 h 97 c 2,5 4,11 6,16 z"
   id="path95" />
       </g>
      </g>
      <g
   class="com.sun.star.drawing.ClosedBezierShape"
   id="g105">
       <g
   id="id10">
        <rect
   class="BoundingBox"
   stroke="none"
   fill="none"
   x="5104"
   y="6973"
   width="106"
   height="21"
   id="rect100" />
        <path
   fill="#ffffff"
   stroke="none"
   d="m 5208,6993 h -97 c -2,-5 -3,-10 -5,-13 0,-2 -1,-4 -2,-7 h 96 c 3,7 5,15 8,20 z"
   id="path102" />
       </g>
      </g>
      <g
   class="com.sun.star.drawing.ClosedBezierShape"
   id="g112">
       <g
   id="id11">
        <rect
   class="BoundingBox"
   stroke="none"
   fill="none"
   x="5127"
   y="7036"
   width="110"
   height="25"
   id="rect107" />
        <path
   fill="#ffffff"
   stroke="none"
   d="m 5236,7060 h -99 c -4,-7 -6,-15 -9,-23 h 98 c 3,9 6,17 10,23 z"
   id="path109" />
       </g>
      </g>
      <g
   class="com.sun.star.drawing.ClosedBezierShape"
   id="g119">
       <g
   id="id12">
        <rect
   class="BoundingBox"
   stroke="none"
   fill="none"
   x="5264"
   y="6720"
   width="47"
   height="6"
   id="rect114" />
        <path
   fill="#ffffff"
   stroke="none"
   d="m 5310,6725 h -46 c 15,-7 33,-6 46,0 z"
   id="path116" />
       </g>
      </g>
      <g
   class="com.sun.star.drawing.ClosedBezierShape"
   id="g126">
       <g
   id="id13">
        <rect
   class="BoundingBox"
   stroke="none"
   fill="none"
   x="5241"
   y="6783"
   width="98"
   height="10"
   id="rect121" />
        <path
   fill="#ffffff"
   stroke="none"
   d="m 5338,6792 h -96 c -1,-3 -1,-5 -1,-9 h 96 c 0,4 1,6 1,9 z"
   id="path123" />
       </g>
      </g>
      <g
   class="com.sun.star.drawing.ClosedBezierShape"
   id="g133">
       <g
   id="id14">
        <rect
   class="BoundingBox"
   stroke="none"
   fill="none"
   x="5248"
   y="6847"
   width="99"
   height="13"
   id="rect128" />
        <path
   fill="#ffffff"
   stroke="none"
   d="m 5346,6859 h -96 c -1,-5 -1,-9 -2,-12 h 97 c 0,2 0,4 0,5 0,1 0,3 1,7 z"
   id="path130" />
       </g>
      </g>
      <g
   class="com.sun.star.drawing.ClosedBezierShape"
   id="g140">
       <g
   id="id15">
        <rect
   class="BoundingBox"
   stroke="none"
   fill="none"
   x="5256"
   y="6910"
   width="96"
   height="17"
   id="rect135" />
        <path
   fill="#ffffff"
   stroke="none"
   d="m 5351,6926 h -92 c -1,-5 -1,-11 -2,-16 h 93 c 1,5 1,11 1,16 z"
   id="path137" />
       </g>
      </g>
      <g
   class="com.sun.star.drawing.ClosedBezierShape"
   id="g147">
       <g
   id="id16">
        <rect
   class="BoundingBox"
   stroke="none"
   fill="none"
   x="5264"
   y="6973"
   width="95"
   height="21"
   id="rect142" />
        <path
   fill="#ffffff"
   stroke="none"
   d="m 5357,6993 h -91 c -1,-6 -1,-13 -2,-20 h 91 c 1,7 1,14 2,20 z"
   id="path144" />
       </g>
      </g>
      <g
   class="com.sun.star.drawing.ClosedBezierShape"
   id="g154">
       <g
   id="id17">
        <rect
   class="BoundingBox"
   stroke="none"
   fill="none"
   x="5271"
   y="7036"
   width="99"
   height="25"
   id="rect149" />
        <path
   fill="#ffffff"
   stroke="none"
   d="m 5271,7060 c 1,-6 1,-14 0,-23 h 89 c 2,17 5,22 9,23 z"
   id="path151" />
       </g>
      </g>
      <g
   class="com.sun.star.drawing.ClosedBezierShape"
   id="g161">
       <g
   id="id18">
        <rect
   class="BoundingBox"
   stroke="none"
   fill="none"
   x="5147"
   y="7100"
   width="352"
   height="28"
   id="rect156" />
        <path
   fill="#ffffff"
   stroke="none"
   d="m 5498,7100 c -2,13 -4,23 -3,26 0,1 0,1 0,1 h -346 c 1,-8 0,-17 -2,-27 z"
   id="path158" />
       </g>
      </g>
      <g
   class="com.sun.star.drawing.ClosedBezierShape"
   id="g168">
       <g
   id="id19">
        <rect
   class="BoundingBox"
   stroke="none"
   fill="none"
   x="5394"
   y="7036"
   width="119"
   height="25"
   id="rect163" />
        <path
   fill="#ffffff"
   stroke="none"
   d="m 5406,7037 h 106 c -2,9 -3,16 -5,23 h -113 c 3,-1 5,-4 7,-8 1,-3 3,-7 5,-15 z"
   id="path165" />
       </g>
      </g>
      <g
   class="com.sun.star.drawing.ClosedBezierShape"
   id="g175">
       <g
   id="id20">
        <rect
   class="BoundingBox"
   stroke="none"
   fill="none"
   x="5418"
   y="6973"
   width="110"
   height="21"
   id="rect170" />
        <path
   fill="#ffffff"
   stroke="none"
   d="m 5423,6973 h 104 c -2,7 -3,14 -4,20 h -105 c 2,-6 3,-13 5,-20 z"
   id="path172" />
       </g>
      </g>
      <g
   class="com.sun.star.drawing.ClosedBezierShape"
   id="g182">
       <g
   id="id21">
        <rect
   class="BoundingBox"
   stroke="none"
   fill="none"
   x="5435"
   y="6910"
   width="107"
   height="17"
   id="rect177" />
        <path
   fill="#ffffff"
   stroke="none"
   d="m 5439,6910 h 102 c -1,5 -2,11 -3,16 h -103 c 1,-3 2,-10 4,-16 z"
   id="path179" />
       </g>
      </g>
      <g
   class="com.sun.star.drawing.ClosedBezierShape"
   id="g189">
       <g
   id="id22">
        <rect
   class="BoundingBox"
   stroke="none"
   fill="none"
   x="5483"
   y="6783"
   width="67"
   height="10"
   id="rect184" />
        <path
   fill="#ffffff"
   stroke="none"
   d="m 5548,6792 h -65 c 2,-3 5,-5 7,-9 h 51 c 3,4 5,6 7,9 z"
   id="path186" />
       </g>
      </g>
      <g
   class="com.sun.star.drawing.ClosedBezierShape"
   id="g196">
       <g
   id="id23">
        <rect
   class="BoundingBox"
   stroke="none"
   fill="none"
   x="5452"
   y="6847"
   width="103"
   height="13"
   id="rect191" />
        <path
   fill="#ffffff"
   stroke="none"
   d="m 5554,6847 c -1,4 -2,7 -2,12 h -100 c 1,-5 2,-9 3,-12 z"
   id="path193" />
       </g>
      </g>
      <g
   class="com.sun.star.drawing.ClosedBezierShape"
   id="g203">
       <g
   id="id24">
        <rect
   class="BoundingBox"
   stroke="none"
   fill="none"
   x="5027"
   y="7164"
   width="495"
   height="31"
   id="rect198" />
        <path
   fill="#ffffff"
   stroke="none"
   d="m 5521,7194 h -477 c -4,-9 -10,-19 -17,-30 h 471 c 3,14 8,25 23,30 z"
   id="path200" />
       </g>
      </g>
      <g
   class="com.sun.star.drawing.ClosedBezierShape"
   id="g210">
       <g
   id="id25">
        <rect
   class="BoundingBox"
   stroke="none"
   fill="none"
   x="5201"
   y="7544"
   width="270"
   height="54"
   id="rect205" />
        <path
   fill="#ffffff"
   stroke="none"
   d="m 5207,7597 c -1,-20 -2,-39 -6,-53 h 267 c 0,14 1,33 2,53 z"
   id="path207" />
       </g>
      </g>
      <g
   class="com.sun.star.drawing.ClosedBezierShape"
   id="g217">
       <g
   id="id26">
        <rect
   class="BoundingBox"
   stroke="none"
   fill="none"
   x="5205"
   y="7608"
   width="268"
   height="88"
   id="rect212" />
        <path
   fill="#ffffff"
   stroke="none"
   d="m 5472,7653 c 0,6 -4,12 -10,14 -22,9 -75,25 -126,27 -50,2 -99,-13 -121,-20 -6,-3 -10,-9 -10,-16 1,-11 2,-30 2,-50 h 263 c 1,18 1,34 2,45 z"
   id="path214" />
       </g>
      </g>
      <g
   class="com.sun.star.drawing.ClosedBezierShape"
   id="g224">
       <g
   id="id27">
        <rect
   class="BoundingBox"
   stroke="none"
   fill="none"
   x="5145"
   y="7481"
   width="368"
   height="50"
   id="rect219" />
        <path
   fill="#ffffff"
   stroke="none"
   d="m 5469,7530 h -280 c -15,-11 -30,-29 -44,-49 h 367 c -21,24 -41,45 -43,48 z"
   id="path221" />
       </g>
      </g>
      <g
   class="com.sun.star.drawing.ClosedBezierShape"
   id="g231">
       <g
   id="id28">
        <rect
   class="BoundingBox"
   stroke="none"
   fill="none"
   x="5103"
   y="7417"
   width="457"
   height="47"
   id="rect226" />
        <path
   fill="#ffffff"
   stroke="none"
   d="m 5559,7417 c -4,9 -9,16 -13,23 -5,8 -11,15 -17,23 h -398 c -7,-12 -15,-24 -22,-35 -2,-4 -4,-7 -6,-11 z"
   id="path228" />
       </g>
      </g>
      <g
   class="com.sun.star.drawing.ClosedBezierShape"
   id="g238">
       <g
   id="id29">
        <rect
   class="BoundingBox"
   stroke="none"
   fill="none"
   x="5080"
   y="7354"
   width="507"
   height="43"
   id="rect233" />
        <path
   fill="#ffffff"
   stroke="none"
   d="m 5586,7354 c -5,13 -10,28 -16,42 h -477 c -6,-14 -10,-28 -13,-42 z"
   id="path235" />
       </g>
      </g>
      <g
   class="com.sun.star.drawing.ClosedBezierShape"
   id="g245">
       <g
   id="id30">
        <rect
   class="BoundingBox"
   stroke="none"
   fill="none"
   x="5068"
   y="7291"
   width="558"
   height="39"
   id="rect240" />
        <path
   fill="#ffffff"
   stroke="none"
   d="m 5625,7291 c -6,5 -11,9 -13,11 -4,4 -9,14 -15,27 h -523 c -3,-13 -5,-27 -6,-38 z"
   id="path242" />
       </g>
      </g>
      <g
   class="com.sun.star.drawing.ClosedBezierShape"
   id="g252">
       <g
   id="id31">
        <rect
   class="BoundingBox"
   stroke="none"
   fill="none"
   x="5058"
   y="7227"
   width="643"
   height="35"
   id="rect247" />
        <path
   fill="#ffffff"
   stroke="none"
   d="m 5699,7227 c -13,11 -26,23 -39,34 h -596 c -1,-12 -3,-22 -4,-27 -1,-2 -2,-4 -2,-7 z"
   id="path249" />
       </g>
      </g>
      <g
   class="com.sun.star.drawing.ClosedBezierShape"
   id="g259">
       <g
   id="id32">
        <rect
   class="BoundingBox"
   stroke="none"
   fill="none"
   x="5665"
   y="7120"
   width="58"
   height="9"
   id="rect254" />
        <path
   fill="#ffffff"
   stroke="none"
   d="m 5722,7127 h -57 c 12,-4 25,-8 37,-7 8,1 14,4 20,7 z"
   id="path256" />
       </g>
      </g>
      <g
   class="com.sun.star.drawing.ClosedBezierShape"
   id="g266">
       <g
   id="id33">
        <rect
   class="BoundingBox"
   stroke="none"
   fill="none"
   x="5555"
   y="7164"
   width="202"
   height="31"
   id="rect261" />
        <path
   fill="#ffffff"
   stroke="none"
   d="m 5755,7175 c -1,2 -8,9 -19,19 h -181 c 12,-4 22,-11 32,-17 4,-3 10,-7 18,-13 h 149 c 2,5 2,9 1,11 z"
   id="path263" />
       </g>
      </g>
     </g>
</svg>
