<?xml version="1.0" encoding="UTF-8"?>
<!DOCTYPE svg PUBLIC "-//W3C//DTD SVG 1.1//EN" "http://www.w3.org/Graphics/SVG/1.1/DTD/svg11.dtd">
<svg version="1.2" width="12.74mm" height="12.72mm" viewBox="1731 15337 1274 1272" preserveAspectRatio="xMidYMid" fill-rule="evenodd" stroke-width="28.222" stroke-linejoin="round" xmlns="http://www.w3.org/2000/svg" xmlns:ooo="http://xml.openoffice.org/svg/export" xmlns:xlink="http://www.w3.org/1999/xlink" xmlns:presentation="http://sun.com/xmlns/staroffice/presentation" xmlns:smil="http://www.w3.org/2001/SMIL20/" xmlns:anim="urn:oasis:names:tc:opendocument:xmlns:animation:1.0" xml:space="preserve">
 <defs class="EmbeddedBulletChars">
  <g id="bullet-char-template-57356" transform="scale(0.00048828125,-0.00048828125)">
   <path d="M 580,1141 L 1163,571 580,0 -4,571 580,1141 Z"/>
  </g>
  <g id="bullet-char-template-57354" transform="scale(0.00048828125,-0.00048828125)">
   <path d="M 8,1128 L 1137,1128 1137,0 8,0 8,1128 Z"/>
  </g>
  <g id="bullet-char-template-10146" transform="scale(0.00048828125,-0.00048828125)">
   <path d="M 174,0 L 602,739 174,1481 1456,739 174,0 Z M 1358,739 L 309,1346 659,739 1358,739 Z"/>
  </g>
  <g id="bullet-char-template-10132" transform="scale(0.00048828125,-0.00048828125)">
   <path d="M 2015,739 L 1276,0 717,0 1260,543 174,543 174,936 1260,936 717,1481 1274,1481 2015,739 Z"/>
  </g>
  <g id="bullet-char-template-10007" transform="scale(0.00048828125,-0.00048828125)">
   <path d="M 0,-2 C -7,14 -16,27 -25,37 L 356,567 C 262,823 215,952 215,954 215,979 228,992 255,992 264,992 276,990 289,987 310,991 331,999 354,1012 L 381,999 492,748 772,1049 836,1024 860,1049 C 881,1039 901,1025 922,1006 886,937 835,863 770,784 769,783 710,716 594,584 L 774,223 C 774,196 753,168 711,139 L 727,119 C 717,90 699,76 672,76 641,76 570,178 457,381 L 164,-76 C 142,-110 111,-127 72,-127 30,-127 9,-110 8,-76 1,-67 -2,-52 -2,-32 -2,-23 -1,-13 0,-2 Z"/>
  </g>
  <g id="bullet-char-template-10004" transform="scale(0.00048828125,-0.00048828125)">
   <path d="M 285,-33 C 182,-33 111,30 74,156 52,228 41,333 41,471 41,549 55,616 82,672 116,743 169,778 240,778 293,778 328,747 346,684 L 369,508 C 377,444 397,411 428,410 L 1163,1116 C 1174,1127 1196,1133 1229,1133 1271,1133 1292,1118 1292,1087 L 1292,965 C 1292,929 1282,901 1262,881 L 442,47 C 390,-6 338,-33 285,-33 Z"/>
  </g>
  <g id="bullet-char-template-9679" transform="scale(0.00048828125,-0.00048828125)">
   <path d="M 813,0 C 632,0 489,54 383,161 276,268 223,411 223,592 223,773 276,916 383,1023 489,1130 632,1184 813,1184 992,1184 1136,1130 1245,1023 1353,916 1407,772 1407,592 1407,412 1353,268 1245,161 1136,54 992,0 813,0 Z"/>
  </g>
  <g id="bullet-char-template-8226" transform="scale(0.00048828125,-0.00048828125)">
   <path d="M 346,457 C 273,457 209,483 155,535 101,586 74,649 74,723 74,796 101,859 155,911 209,963 273,989 346,989 419,989 480,963 531,910 582,859 608,796 608,723 608,648 583,586 532,535 482,483 420,457 346,457 Z"/>
  </g>
  <g id="bullet-char-template-8211" transform="scale(0.00048828125,-0.00048828125)">
   <path d="M -4,459 L 1135,459 1135,606 -4,606 -4,459 Z"/>
  </g>
  <g id="bullet-char-template-61548" transform="scale(0.00048828125,-0.00048828125)">
   <path d="M 173,740 C 173,903 231,1043 346,1159 462,1274 601,1332 765,1332 928,1332 1067,1274 1183,1159 1299,1043 1357,903 1357,740 1357,577 1299,437 1183,322 1067,206 928,148 765,148 601,148 462,206 346,322 231,437 173,577 173,740 Z"/>
  </g>
 </defs>
 <g class="Page">
  <g class="com.sun.star.drawing.ClosedBezierShape">
   <g id="id3">
    <rect class="BoundingBox" stroke="none" fill="none" x="1742" y="15348" width="1251" height="1250"/>
    <path fill="rgb(208,116,187)" stroke="none" d="M 2368,16597 C 2360,16597 2352,16594 2346,16588 L 1753,15996 C 1747,15990 1743,15982 1743,15973 1743,15965 1747,15957 1753,15951 L 2346,15358 C 2352,15352 2360,15348 2368,15348 2377,15348 2385,15352 2391,15358 L 2983,15951 C 2989,15957 2992,15965 2992,15973 2992,15982 2989,15990 2983,15996 L 2391,16588 C 2385,16594 2377,16597 2368,16597 Z"/>
   </g>
  </g>
  <g class="com.sun.star.drawing.ClosedBezierShape">
   <g id="id4">
    <rect class="BoundingBox" stroke="none" fill="none" x="1731" y="15337" width="1274" height="1272"/>
    <path fill="rgb(255,255,255)" stroke="none" d="M 2368,15337 C 2357,15337 2346,15342 2338,15350 L 1745,15943 C 1728,15960 1728,15987 1745,16004 L 2338,16596 C 2346,16604 2357,16608 2368,16608 2379,16608 2390,16604 2399,16596 L 2991,16004 C 3008,15987 3008,15960 2991,15943 L 2399,15350 C 2390,15342 2379,15337 2368,15337 Z M 2368,15359 C 2374,15359 2379,15361 2383,15366 L 2975,15958 C 2983,15967 2983,15980 2975,15988 L 2383,16580 C 2379,16584 2374,16586 2368,16586 2363,16586 2357,16584 2353,16580 L 1761,15988 C 1752,15980 1752,15967 1761,15958 L 2353,15366 C 2357,15361 2363,15359 2368,15359 Z"/>
   </g>
  </g>
  <g class="com.sun.star.drawing.ClosedBezierShape">
   <g id="id5">
    <rect class="BoundingBox" stroke="none" fill="none" x="2016" y="15478" width="670" height="980"/>
    <path fill="rgb(255,255,255)" stroke="none" d="M 2375,16456 C 2375,16456 2345,16382 2248,16320 2152,16259 1960,16033 2032,15814 2083,15879 2150,15804 2165,15743 2180,15681 2193,15611 2254,15586 2250,15631 2309,15636 2333,15621 2364,15602 2392,15552 2368,15478 2498,15554 2437,15668 2495,15689 2543,15707 2545,15643 2543,15629 2645,15690 2693,15809 2684,15959 2675,16118 2606,16214 2493,16307 2402,16381 2375,16456 2375,16456 Z"/>
   </g>
  </g>
  <g class="com.sun.star.drawing.ClosedBezierShape">
   <g id="id6">
    <rect class="BoundingBox" stroke="none" fill="none" x="2151" y="15758" width="435" height="518"/>
    <path fill="rgb(208,116,187)" stroke="none" d="M 2536,15856 C 2510,15830 2508,15802 2508,15802 2508,15802 2462,15803 2427,15790 2391,15776 2367,15759 2367,15759 2367,15759 2344,15776 2309,15790 2274,15803 2228,15802 2228,15802 2228,15802 2226,15830 2200,15856 2174,15882 2151,15897 2151,15897 2151,15897 2161,16092 2224,16166 2287,16241 2367,16275 2367,16275 2367,16275 2449,16241 2512,16166 2575,16092 2585,15897 2585,15897 2585,15897 2562,15882 2536,15856 Z"/>
   </g>
  </g>
 </g>
</svg>