<?xml version="1.0" encoding="UTF-8" standalone="no"?>
<!-- Created with Inkscape (http://www.inkscape.org/) -->

<svg
   width="204.15135mm"
   height="204.15073mm"
   viewBox="0 0 204.15136 204.15072"
   version="1.1"
   id="svg5"
   xmlns="http://www.w3.org/2000/svg"
   xmlns:svg="http://www.w3.org/2000/svg">
  <defs
     id="defs2">
    <clipPath
       clipPathUnits="userSpaceOnUse"
       id="clipPath1104">
      <path
         d="M 0,600 H 600 V 0 H 0 Z"
         id="path1102" />
    </clipPath>
    <clipPath
       clipPathUnits="userSpaceOnUse"
       id="clipPath1286">
      <path
         d="M 0,600 H 600 V 0 H 0 Z"
         id="path1284" />
    </clipPath>
    <clipPath
       clipPathUnits="userSpaceOnUse"
       id="clipPath1470">
      <path
         d="M 0,600 H 600 V 0 H 0 Z"
         id="path1468" />
    </clipPath>
    <clipPath
       clipPathUnits="userSpaceOnUse"
       id="clipPath1656">
      <path
         d="M 0,600 H 600 V 0 H 0 Z"
         id="path1654" />
    </clipPath>
    <clipPath
       clipPathUnits="userSpaceOnUse"
       id="clipPath1844">
      <path
         d="M 0,600 H 600 V 0 H 0 Z"
         id="path1842" />
    </clipPath>
    <clipPath
       clipPathUnits="userSpaceOnUse"
       id="clipPath2265">
      <path
         d="M 0,600 H 600 V 0 H 0 Z"
         id="path2263" />
    </clipPath>
    <clipPath
       clipPathUnits="userSpaceOnUse"
       id="clipPath2512">
      <path
         d="M 0,600 H 600 V 0 H 0 Z"
         id="path2510" />
    </clipPath>
    <clipPath
       clipPathUnits="userSpaceOnUse"
       id="clipPath2740">
      <path
         d="M 0,300 H 300 V 0 H 0 Z"
         id="path2738" />
    </clipPath>
    <clipPath
       clipPathUnits="userSpaceOnUse"
       id="clipPath2946">
      <path
         d="M 0,300 H 300 V 0 H 0 Z"
         id="path2944" />
    </clipPath>
    <clipPath
       clipPathUnits="userSpaceOnUse"
       id="clipPath3139">
      <path
         d="M 0,300 H 300 V 0 H 0 Z"
         id="path3137" />
    </clipPath>
    <clipPath
       clipPathUnits="userSpaceOnUse"
       id="clipPath3322">
      <path
         d="M 0,300 H 300 V 0 H 0 Z"
         id="path3320" />
    </clipPath>
    <clipPath
       clipPathUnits="userSpaceOnUse"
       id="clipPath3754">
      <path
         d="M 0,300 H 300 V 0 H 0 Z"
         id="path3752" />
    </clipPath>
    <clipPath
       clipPathUnits="userSpaceOnUse"
       id="clipPath3928">
      <path
         d="M 0,300 H 300 V 0 H 0 Z"
         id="path3926" />
    </clipPath>
    <clipPath
       clipPathUnits="userSpaceOnUse"
       id="clipPath4106">
      <path
         d="M 0,300 H 300 V 0 H 0 Z"
         id="path4104" />
    </clipPath>
    <clipPath
       clipPathUnits="userSpaceOnUse"
       id="clipPath4300">
      <path
         d="M 0,300 H 300 V 0 H 0 Z"
         id="path4298" />
    </clipPath>
    <clipPath
       clipPathUnits="userSpaceOnUse"
       id="clipPath4493">
      <path
         d="M 0,300 H 300 V 0 H 0 Z"
         id="path4491" />
    </clipPath>
    <clipPath
       clipPathUnits="userSpaceOnUse"
       id="clipPath4688">
      <path
         d="M 0,300 H 300 V 0 H 0 Z"
         id="path4686" />
    </clipPath>
    <clipPath
       clipPathUnits="userSpaceOnUse"
       id="clipPath4913">
      <path
         d="M 0,600 H 600 V 0 H 0 Z"
         id="path4911" />
    </clipPath>
    <clipPath
       clipPathUnits="userSpaceOnUse"
       id="clipPath5244">
      <path
         d="M 0,600 H 600 V 0 H 0 Z"
         id="path5242" />
    </clipPath>
    <clipPath
       clipPathUnits="userSpaceOnUse"
       id="clipPath5260">
      <path
         d="M 286.083,583.583 16.416,313.916 c -7.685,-7.686 -7.685,-20.146 0,-27.833 v 0 L 286.083,16.417 c 7.687,-7.686 20.147,-7.686 27.833,0 v 0 l 269.667,269.666 c 7.686,7.687 7.686,20.147 0,27.833 v 0 L 313.916,583.583 c -3.843,3.843 -8.879,5.765 -13.916,5.765 v 0 c -5.037,0 -10.074,-1.922 -13.917,-5.765"
         id="path5258" />
    </clipPath>
    <clipPath
       clipPathUnits="userSpaceOnUse"
       id="clipPath5462">
      <path
         d="M 0,600 H 600 V 0 H 0 Z"
         id="path5460" />
    </clipPath>
    <clipPath
       clipPathUnits="userSpaceOnUse"
       id="clipPath5478">
      <path
         d="M 286.083,583.583 16.417,313.916 c -7.687,-7.686 -7.687,-20.146 0,-27.833 v 0 L 286.083,16.417 c 7.687,-7.686 20.147,-7.686 27.834,0 v 0 l 269.666,269.666 c 7.686,7.687 7.686,20.147 0,27.833 v 0 L 313.917,583.583 c -3.843,3.843 -8.88,5.765 -13.917,5.765 v 0 c -5.037,0 -10.074,-1.922 -13.917,-5.765"
         id="path5476" />
    </clipPath>
    <clipPath
       clipPathUnits="userSpaceOnUse"
       id="clipPath5490">
      <path
         d="M 0,600 H 600 V 0 H 0 Z"
         id="path5488" />
    </clipPath>
    <clipPath
       clipPathUnits="userSpaceOnUse"
       id="clipPath5808">
      <path
         d="M 0,600 H 600 V 0 H 0 Z"
         id="path5806" />
    </clipPath>
    <clipPath
       clipPathUnits="userSpaceOnUse"
       id="clipPath6067">
      <path
         d="M 0,600 H 600 V 0 H 0 Z"
         id="path6065" />
    </clipPath>
  </defs>
  <g
     id="layer1"
     transform="translate(30.713115,314.78071)">
    <g
       id="g6063"
       clip-path="url(#clipPath6067)"
       transform="matrix(0.35277777,0,0,-0.35277777,-34.47078,-106.87194)">
      <g
         id="g6069"
         transform="translate(299.9999,15.6523)">
        <path
           d="m 0,0 c -3.922,0 -7.608,1.527 -10.382,4.3 l -269.666,269.666 c -2.772,2.773 -4.3,6.46 -4.3,10.382 0,3.921 1.528,7.608 4.3,10.381 l 269.666,269.667 c 2.774,2.772 6.46,4.3 10.382,4.3 3.922,0 7.608,-1.528 10.382,-4.3 L 280.048,294.729 c 2.772,-2.773 4.3,-6.46 4.3,-10.381 0,-3.922 -1.528,-7.609 -4.3,-10.382 L 10.382,4.3 C 7.608,1.527 3.922,0 0,0"
           style="fill:#e6501d;fill-opacity:1;fill-rule:nonzero;stroke:none"
           id="path6071" />
      </g>
      <g
         id="g6073"
         transform="translate(299.9999,589.3477)">
        <path
           d="m 0,0 c -5.037,0 -10.073,-1.921 -13.916,-5.764 l -269.667,-269.667 c -7.687,-7.686 -7.687,-20.147 0,-27.834 l 269.667,-269.666 c 3.843,-3.842 8.879,-5.764 13.916,-5.764 5.037,0 10.074,1.922 13.917,5.764 l 269.667,269.666 c 7.686,7.687 7.686,20.148 0,27.834 L 13.917,-5.764 C 10.074,-1.921 5.037,0 0,0 m 0,-10 c 2.586,0 5.018,-1.007 6.846,-2.835 l 269.667,-269.667 c 3.774,-3.775 3.774,-9.917 0,-13.691 L 6.846,-565.86 c -1.828,-1.828 -4.26,-2.835 -6.846,-2.835 -2.586,0 -5.017,1.007 -6.846,2.836 l -269.666,269.666 c -3.775,3.774 -3.775,9.916 0,13.691 L -6.846,-12.835 C -5.017,-11.007 -2.586,-10 0,-10"
           style="fill:#ffffff;fill-opacity:1;fill-rule:nonzero;stroke:none"
           id="path6075" />
      </g>
      <g
         id="g6077"
         transform="translate(341.8378,284.8428)">
        <path
           d="m 0,0 c -20.452,28.297 -32.123,57.666 -36.485,69.928 -0.667,1.876 -3.321,1.876 -3.988,0 C -44.835,57.666 -56.506,28.297 -76.958,0 c -26.753,-37.014 -40.313,-54.971 -40.313,-86.121 0,-43.515 35.277,-78.791 78.792,-78.791 43.515,0 78.792,35.276 78.792,78.791 C 40.313,-54.971 26.753,-37.014 0,0"
           style="fill:#ffffff;fill-opacity:1;fill-rule:nonzero;stroke:none"
           id="path6079" />
      </g>
      <g
         id="g6081"
         transform="translate(397.7723,323.8643)">
        <path
           d="m 0,0 c -4.746,-13.862 -7.688,-26.985 -5.887,-35.094 7.245,-32.603 -9.572,-38.938 -9.749,-39.278 -6.752,12.145 -15.934,24.833 -27.319,40.592 l -1.97,2.717 c -19.602,27.128 -30.796,55.561 -34.695,66.523 -2.228,6.236 -8.164,10.434 -14.793,10.434 -6.63,0 -12.566,-4.198 -14.794,-10.434 -3.899,-10.962 -15.093,-39.395 -34.695,-66.523 l -1.97,-2.717 c -16.017,-22.158 -27.672,-38.283 -34.342,-55.304 -8.256,4.829 -17.936,14.95 -19.255,31.575 -1.172,14.781 2.86,34.739 16.982,58.415 15.395,25.81 12.225,54.338 -11.547,72.904 16.302,8.604 31.294,-2.975 36.225,-11.321 8.83,-14.943 20.497,-13.955 26.491,-6.339 10.867,13.811 -7.33,27.542 -9.455,49.022 -1.405,14.192 3.622,38.037 27.66,51.033 -8.243,-26.245 4.233,-44.58 21.417,-52.282 13.132,-5.887 34.685,8.114 28.98,18.113 26.178,-15.229 20.591,-38.708 17.941,-48.108 -3.087,-10.953 -6.764,-27.336 2.284,-33.992 9.047,-6.657 27.041,-2.701 29.359,18.252 0,0 27.396,-16.528 13.132,-58.188"
           style="fill:#ffffff;fill-opacity:1;fill-rule:nonzero;stroke:none"
           id="path6083" />
      </g>
    </g>
  </g>
</svg>
