<?xml version="1.0" encoding="UTF-8" standalone="no"?>
<!-- Created with Inkscape (http://www.inkscape.org/) -->

<svg
   width="205.94328mm"
   height="205.97595mm"
   viewBox="0 0 205.94328 205.97596"
   version="1.1"
   id="svg5"
   inkscape:version="1.1.2 (0a00cf5339, 2022-02-04)"
   sodipodi:docname="target.svg"
   xmlns:inkscape="http://www.inkscape.org/namespaces/inkscape"
   xmlns:sodipodi="http://sodipodi.sourceforge.net/DTD/sodipodi-0.dtd"
   xmlns="http://www.w3.org/2000/svg"
   xmlns:svg="http://www.w3.org/2000/svg">
  <sodipodi:namedview
     id="namedview7"
     pagecolor="#ffffff"
     bordercolor="#666666"
     borderopacity="1.0"
     inkscape:pageshadow="2"
     inkscape:pageopacity="0.0"
     inkscape:pagecheckerboard="0"
     inkscape:document-units="mm"
     showgrid="false"
     fit-margin-top="0"
     fit-margin-left="0"
     fit-margin-right="0"
     fit-margin-bottom="0"
     inkscape:zoom="0.69664703"
     inkscape:cx="391.15935"
     inkscape:cy="448.57724"
     inkscape:window-width="1850"
     inkscape:window-height="1016"
     inkscape:window-x="0"
     inkscape:window-y="0"
     inkscape:window-maximized="1"
     inkscape:current-layer="layer1" />
  <defs
     id="defs2">
    <clipPath
       clipPathUnits="userSpaceOnUse"
       id="clipPath854">
      <path
         d="M 0,600 H 600 V 0 H 0 Z"
         id="path852" />
    </clipPath>
  </defs>
  <g
     inkscape:label="Layer 1"
     inkscape:groupmode="layer"
     id="layer1"
     transform="translate(-1.2170006,-29.437556)">
    <g
       id="g856"
       transform="matrix(0.35277777,0,0,-0.35277777,104.18856,232.73701)"
       style="fill:#ffffff;stroke:#000000;stroke-width:15.1739;stroke-miterlimit:4;stroke-dasharray:none;stroke-opacity:1">
      <path
         d="m 0,0 c -3.922,0 -7.608,1.527 -10.382,4.3 l -269.666,269.666 c -5.723,5.724 -5.723,15.039 0,20.763 l 269.666,269.667 c 2.774,2.772 6.46,4.299 10.382,4.299 3.922,0 7.608,-1.527 10.382,-4.299 L 280.048,294.729 c 5.724,-5.724 5.724,-15.039 0,-20.763 L 10.382,4.3 C 7.608,1.527 3.922,0 0,0"
         style="fill:#ffffff;fill-opacity:1;fill-rule:nonzero;stroke:#000000;stroke-width:15.1739;stroke-miterlimit:4;stroke-dasharray:none;stroke-opacity:1"
         id="path858" />
    </g>
    <path
       d="m 104.18856,174.15903 c -23.048736,0 -41.73361,-18.68487 -41.73361,-41.73361 0,-23.04909 18.684874,-41.73361 41.73361,-41.73361 23.04874,0 41.73361,18.68452 41.73361,41.73361 0,23.04874 -18.68487,41.73361 -41.73361,41.73361 m 0,-97.186395 c -30.625697,0 -55.452785,24.827085 -55.452785,55.452785 0,30.62605 24.827088,55.45314 55.452785,55.45314 30.6257,0 55.45278,-24.82709 55.45278,-55.45314 0,-30.6257 -24.82708,-55.452785 -55.45278,-55.452785"
       style="fill:#000000;fill-opacity:1;fill-rule:nonzero;stroke:none;stroke-width:0.352778"
       id="path866" />
    <g
       id="g868"
       transform="matrix(0.35277777,0,0,-0.35277777,104.18856,149.09287)"
       style="fill:#000000">
      <path
         d="m 0,0 c -26.094,0 -47.246,21.152 -47.246,47.246 0,26.094 21.152,47.246 47.246,47.246 26.093,0 47.246,-21.152 47.246,-47.246 C 47.246,21.152 26.093,0 0,0 m 0,131.913 c -46.76,0 -84.667,-37.907 -84.667,-84.667 0,-46.76 37.907,-84.666 84.667,-84.666 46.76,0 84.667,37.906 84.667,84.666 0,46.76 -37.907,84.667 -84.667,84.667"
         style="fill:#000000;fill-opacity:1;fill-rule:nonzero;stroke:none"
         id="path870" />
    </g>
  </g>
</svg>
