<?xml version="1.0" encoding="UTF-8"?>
<!DOCTYPE svg PUBLIC "-//W3C//DTD SVG 1.1//EN" "http://www.w3.org/Graphics/SVG/1.1/DTD/svg11.dtd">
<svg version="1.2" width="12.72mm" height="12.73mm" viewBox="674 9410 1272 1273" preserveAspectRatio="xMidYMid" fill-rule="evenodd" stroke-width="28.222" stroke-linejoin="round" xmlns="http://www.w3.org/2000/svg" xmlns:ooo="http://xml.openoffice.org/svg/export" xmlns:xlink="http://www.w3.org/1999/xlink" xmlns:presentation="http://sun.com/xmlns/staroffice/presentation" xmlns:smil="http://www.w3.org/2001/SMIL20/" xmlns:anim="urn:oasis:names:tc:opendocument:xmlns:animation:1.0" xml:space="preserve">
 <defs class="EmbeddedBulletChars">
  <g id="bullet-char-template-57356" transform="scale(0.00048828125,-0.00048828125)">
   <path d="M 580,1141 L 1163,571 580,0 -4,571 580,1141 Z"/>
  </g>
  <g id="bullet-char-template-57354" transform="scale(0.00048828125,-0.00048828125)">
   <path d="M 8,1128 L 1137,1128 1137,0 8,0 8,1128 Z"/>
  </g>
  <g id="bullet-char-template-10146" transform="scale(0.00048828125,-0.00048828125)">
   <path d="M 174,0 L 602,739 174,1481 1456,739 174,0 Z M 1358,739 L 309,1346 659,739 1358,739 Z"/>
  </g>
  <g id="bullet-char-template-10132" transform="scale(0.00048828125,-0.00048828125)">
   <path d="M 2015,739 L 1276,0 717,0 1260,543 174,543 174,936 1260,936 717,1481 1274,1481 2015,739 Z"/>
  </g>
  <g id="bullet-char-template-10007" transform="scale(0.00048828125,-0.00048828125)">
   <path d="M 0,-2 C -7,14 -16,27 -25,37 L 356,567 C 262,823 215,952 215,954 215,979 228,992 255,992 264,992 276,990 289,987 310,991 331,999 354,1012 L 381,999 492,748 772,1049 836,1024 860,1049 C 881,1039 901,1025 922,1006 886,937 835,863 770,784 769,783 710,716 594,584 L 774,223 C 774,196 753,168 711,139 L 727,119 C 717,90 699,76 672,76 641,76 570,178 457,381 L 164,-76 C 142,-110 111,-127 72,-127 30,-127 9,-110 8,-76 1,-67 -2,-52 -2,-32 -2,-23 -1,-13 0,-2 Z"/>
  </g>
  <g id="bullet-char-template-10004" transform="scale(0.00048828125,-0.00048828125)">
   <path d="M 285,-33 C 182,-33 111,30 74,156 52,228 41,333 41,471 41,549 55,616 82,672 116,743 169,778 240,778 293,778 328,747 346,684 L 369,508 C 377,444 397,411 428,410 L 1163,1116 C 1174,1127 1196,1133 1229,1133 1271,1133 1292,1118 1292,1087 L 1292,965 C 1292,929 1282,901 1262,881 L 442,47 C 390,-6 338,-33 285,-33 Z"/>
  </g>
  <g id="bullet-char-template-9679" transform="scale(0.00048828125,-0.00048828125)">
   <path d="M 813,0 C 632,0 489,54 383,161 276,268 223,411 223,592 223,773 276,916 383,1023 489,1130 632,1184 813,1184 992,1184 1136,1130 1245,1023 1353,916 1407,772 1407,592 1407,412 1353,268 1245,161 1136,54 992,0 813,0 Z"/>
  </g>
  <g id="bullet-char-template-8226" transform="scale(0.00048828125,-0.00048828125)">
   <path d="M 346,457 C 273,457 209,483 155,535 101,586 74,649 74,723 74,796 101,859 155,911 209,963 273,989 346,989 419,989 480,963 531,910 582,859 608,796 608,723 608,648 583,586 532,535 482,483 420,457 346,457 Z"/>
  </g>
  <g id="bullet-char-template-8211" transform="scale(0.00048828125,-0.00048828125)">
   <path d="M -4,459 L 1135,459 1135,606 -4,606 -4,459 Z"/>
  </g>
  <g id="bullet-char-template-61548" transform="scale(0.00048828125,-0.00048828125)">
   <path d="M 173,740 C 173,903 231,1043 346,1159 462,1274 601,1332 765,1332 928,1332 1067,1274 1183,1159 1299,1043 1357,903 1357,740 1357,577 1299,437 1183,322 1067,206 928,148 765,148 601,148 462,206 346,322 231,437 173,577 173,740 Z"/>
  </g>
 </defs>
 <g class="Page">
  <g class="com.sun.star.drawing.ClosedBezierShape">
   <g id="id3">
    <rect class="BoundingBox" stroke="none" fill="none" x="685" y="9421" width="1250" height="1250"/>
    <path fill="rgb(72,72,74)" stroke="none" d="M 1309,10670 C 1300,10670 1292,10667 1286,10661 L 694,10068 C 682,10055 682,10035 694,10022 L 1286,9431 C 1292,9425 1300,9421 1309,9421 1318,9421 1326,9425 1332,9431 L 1925,10022 C 1937,10035 1937,10055 1925,10068 L 1332,10661 C 1326,10667 1318,10670 1309,10670 Z"/>
   </g>
  </g>
  <g class="com.sun.star.drawing.ClosedBezierShape">
   <g id="id4">
    <rect class="BoundingBox" stroke="none" fill="none" x="674" y="9410" width="1272" height="1273"/>
    <path fill="rgb(255,255,255)" stroke="none" d="M 1309,9410 C 1298,9410 1287,9414 1278,9423 L 687,10016 C 670,10033 670,10060 687,10077 L 1278,10669 C 1287,10677 1298,10681 1309,10681 1320,10681 1331,10677 1340,10669 L 1932,10077 C 1949,10060 1949,10033 1932,10016 L 1340,9423 C 1331,9414 1320,9410 1309,9410 Z M 1309,9432 C 1315,9432 1320,9434 1324,9438 L 1917,10031 C 1921,10035 1923,10041 1923,10046 1923,10052 1921,10057 1917,10061 L 1324,10653 C 1320,10657 1315,10659 1309,10659 1303,10659 1298,10657 1294,10653 L 702,10061 C 698,10057 696,10052 696,10046 696,10041 698,10035 702,10031 L 1294,9438 C 1298,9434 1303,9432 1309,9432 Z"/>
   </g>
  </g>
  <g class="com.sun.star.drawing.ClosedBezierShape">
   <g id="id5">
    <rect class="BoundingBox" stroke="none" fill="none" x="1167" y="9745" width="119" height="225"/>
    <path fill="rgb(255,255,255)" stroke="none" d="M 1169,9853 L 1278,9746 C 1281,9744 1285,9746 1285,9749 L 1285,9807 1285,9907 1285,9965 C 1285,9968 1281,9970 1278,9968 L 1169,9860 C 1167,9858 1167,9855 1169,9853 Z"/>
   </g>
  </g>
  <g class="com.sun.star.drawing.ClosedBezierShape">
   <g id="id6">
    <rect class="BoundingBox" stroke="none" fill="none" x="1296" y="9747" width="31" height="48"/>
    <path fill="rgb(255,255,255)" stroke="none" d="M 1326,9768 L 1326,9794 C 1320,9794 1315,9794 1310,9794 1306,9794 1300,9794 1296,9794 L 1296,9747 1319,9758 C 1323,9760 1326,9764 1326,9768 Z"/>
   </g>
  </g>
  <g class="com.sun.star.drawing.ClosedBezierShape">
   <g id="id7">
    <rect class="BoundingBox" stroke="none" fill="none" x="1296" y="9920" width="31" height="49"/>
    <path fill="rgb(255,255,255)" stroke="none" d="M 1326,9921 L 1326,9946 C 1326,9950 1323,9954 1319,9956 L 1296,9968 1296,9921 C 1300,9921 1306,9920 1310,9920 1315,9920 1320,9921 1326,9921 Z"/>
   </g>
  </g>
  <g class="com.sun.star.drawing.ClosedBezierShape">
   <g id="id8">
    <rect class="BoundingBox" stroke="none" fill="none" x="1278" y="9801" width="136" height="118"/>
    <path fill="rgb(255,255,255)" stroke="none" d="M 1309,9801 C 1340,9801 1377,9803 1407,9806 1411,9807 1413,9810 1413,9813 L 1410,9829 C 1405,9851 1405,9873 1409,9895 L 1413,9911 C 1413,9915 1410,9918 1406,9918 1376,9915 1340,9913 1309,9913 1300,9913 1292,9913 1284,9913 1282,9913 1281,9913 1279,9913 L 1279,9802 C 1281,9802 1282,9802 1284,9802 1292,9802 1300,9801 1309,9801 Z"/>
   </g>
  </g>
  <g class="com.sun.star.drawing.ClosedBezierShape">
   <g id="id9">
    <rect class="BoundingBox" stroke="none" fill="none" x="1453" y="9815" width="117" height="135"/>
    <path fill="rgb(255,255,255)" stroke="none" d="M 1468,9815 C 1501,9821 1534,9830 1563,9841 1567,9842 1569,9845 1568,9848 L 1564,9866 C 1560,9885 1560,9905 1564,9924 L 1567,9940 C 1568,9945 1563,9949 1558,9948 1530,9939 1498,9931 1466,9926 1463,9925 1461,9923 1460,9921 L 1456,9898 C 1452,9879 1452,9859 1456,9840 L 1460,9820 C 1461,9817 1464,9814 1468,9815 Z"/>
   </g>
  </g>
  <g class="com.sun.star.drawing.ClosedBezierShape">
   <g id="id10">
    <rect class="BoundingBox" stroke="none" fill="none" x="1593" y="9858" width="95" height="125"/>
    <path fill="rgb(255,255,255)" stroke="none" d="M 1687,9928 C 1687,9938 1673,9960 1640,9981 1626,9974 1620,9971 1604,9965 1602,9964 1601,9962 1600,9960 L 1596,9937 C 1592,9917 1592,9897 1596,9877 1598,9872 1599,9867 1599,9863 1600,9859 1605,9857 1609,9858 1672,9886 1687,9914 1687,9928 Z"/>
   </g>
  </g>
  <g class="com.sun.star.drawing.ClosedBezierShape">
   <g id="id11">
    <rect class="BoundingBox" stroke="none" fill="none" x="1605" y="9928" width="125" height="289"/>
    <path fill="rgb(255,255,255)" stroke="none" d="M 1728,9928 L 1728,10090 C 1728,10138 1681,10183 1605,10216 L 1605,10053 C 1617,10048 1628,10043 1640,10037 1656,10028 1670,10019 1682,10009 1711,9984 1728,9957 1728,9928 Z"/>
   </g>
  </g>
  <g class="com.sun.star.drawing.ClosedBezierShape">
   <g id="id12">
    <rect class="BoundingBox" stroke="none" fill="none" x="1288" y="10028" width="210" height="320"/>
    <path fill="rgb(255,255,255)" stroke="none" d="M 1288,10117 L 1288,10035 C 1288,10030 1294,10026 1299,10029 L 1493,10179 C 1498,10183 1498,10190 1493,10194 L 1299,10345 C 1294,10348 1288,10344 1288,10339 L 1288,10256 1288,10117 Z"/>
   </g>
  </g>
  <g class="com.sun.star.drawing.ClosedBezierShape">
   <g id="id13">
    <rect class="BoundingBox" stroke="none" fill="none" x="1325" y="10028" width="240" height="320"/>
    <path fill="rgb(255,255,255)" stroke="none" d="M 1325,10028 L 1368,10036 C 1373,10037 1378,10039 1382,10042 L 1560,10179 C 1565,10183 1565,10190 1560,10194 L 1382,10332 C 1378,10335 1373,10337 1368,10338 L 1325,10346 1517,10194 C 1522,10190 1522,10183 1517,10179 L 1325,10028 Z"/>
   </g>
  </g>
  <g class="com.sun.star.drawing.ClosedBezierShape">
   <g id="id14">
    <rect class="BoundingBox" stroke="none" fill="none" x="1130" y="10090" width="167" height="180"/>
    <path fill="rgb(255,255,255)" stroke="none" d="M 1296,10105 L 1296,10268 C 1244,10267 1183,10261 1136,10252 1132,10252 1130,10248 1130,10245 L 1134,10218 C 1138,10188 1139,10156 1135,10126 L 1131,10097 C 1130,10093 1134,10089 1139,10090 1185,10098 1245,10105 1296,10105 Z"/>
   </g>
  </g>
  <g class="com.sun.star.drawing.ClosedBezierShape">
   <g id="id15">
    <rect class="BoundingBox" stroke="none" fill="none" x="932" y="9822" width="189" height="160"/>
    <path fill="rgb(255,255,255)" stroke="none" d="M 1120,9822 L 1120,9932 C 1065,9944 1017,9961 979,9981 946,9960 932,9939 932,9929 932,9915 958,9881 1028,9851 1055,9839 1086,9829 1120,9822 Z"/>
   </g>
  </g>
  <g class="com.sun.star.drawing.ClosedBezierShape">
   <g id="id16">
    <rect class="BoundingBox" stroke="none" fill="none" x="891" y="9928" width="109" height="275"/>
    <path fill="rgb(255,255,255)" stroke="none" d="M 980,10037 C 986,10040 984,10039 987,10041 989,10042 991,10044 991,10046 L 996,10083 C 1000,10113 999,10144 995,10175 L 992,10195 C 991,10201 986,10203 982,10201 920,10169 891,10134 891,10090 L 891,9928 C 891,9957 909,9984 938,10009 950,10019 964,10028 980,10037 Z"/>
   </g>
  </g>
  <g class="com.sun.star.drawing.ClosedBezierShape">
   <g id="id17">
    <rect class="BoundingBox" stroke="none" fill="none" x="1026" y="10061" width="77" height="181"/>
    <path fill="rgb(255,255,255)" stroke="none" d="M 1035,10062 C 1052,10068 1069,10074 1089,10079 1092,10079 1094,10082 1094,10084 L 1098,10118 C 1103,10148 1102,10179 1098,10209 L 1094,10234 C 1094,10239 1090,10242 1086,10241 1066,10235 1047,10228 1030,10222 1027,10221 1025,10218 1026,10214 L 1029,10189 C 1034,10159 1034,10128 1030,10097 L 1026,10069 C 1026,10064 1031,10060 1035,10062 Z"/>
   </g>
  </g>
 </g>
</svg>