<?xml version="1.0" encoding="UTF-8" standalone="no"?>
<svg
   version="1.2"
   width="10.61mm"
   height="10.92mm"
   viewBox="1869 11820 1061 1092"
   preserveAspectRatio="xMidYMid"
   fill-rule="evenodd"
   stroke-width="28.222"
   stroke-linejoin="round"
   xml:space="preserve"
   id="svg120"
   sodipodi:docname="teleport.svg"
   inkscape:version="1.1.2 (0a00cf5339, 2022-02-04)"
   xmlns:inkscape="http://www.inkscape.org/namespaces/inkscape"
   xmlns:sodipodi="http://sodipodi.sourceforge.net/DTD/sodipodi-0.dtd"
   xmlns="http://www.w3.org/2000/svg"
   xmlns:svg="http://www.w3.org/2000/svg"><sodipodi:namedview
   id="namedview122"
   pagecolor="#ffffff"
   bordercolor="#666666"
   borderopacity="1.0"
   inkscape:pageshadow="2"
   inkscape:pageopacity="0.0"
   inkscape:pagecheckerboard="0"
   inkscape:document-units="mm"
   showgrid="false"
   inkscape:zoom="4.736817"
   inkscape:cx="35.783523"
   inkscape:cy="-18.683432"
   inkscape:window-width="1846"
   inkscape:window-height="1016"
   inkscape:window-x="0"
   inkscape:window-y="0"
   inkscape:window-maximized="1"
   inkscape:current-layer="svg120" />
 <defs
   class="EmbeddedBulletChars"
   id="defs32">
  <g
   id="bullet-char-template-57356"
   transform="scale(0.00048828125,-0.00048828125)">
   <path
   d="M 580,1141 L 1163,571 580,0 -4,571 580,1141 Z"
   id="path2" />
  </g>
  <g
   id="bullet-char-template-57354"
   transform="scale(0.00048828125,-0.00048828125)">
   <path
   d="M 8,1128 L 1137,1128 1137,0 8,0 8,1128 Z"
   id="path5" />
  </g>
  <g
   id="bullet-char-template-10146"
   transform="scale(0.00048828125,-0.00048828125)">
   <path
   d="M 174,0 L 602,739 174,1481 1456,739 174,0 Z M 1358,739 L 309,1346 659,739 1358,739 Z"
   id="path8" />
  </g>
  <g
   id="bullet-char-template-10132"
   transform="scale(0.00048828125,-0.00048828125)">
   <path
   d="M 2015,739 L 1276,0 717,0 1260,543 174,543 174,936 1260,936 717,1481 1274,1481 2015,739 Z"
   id="path11" />
  </g>
  <g
   id="bullet-char-template-10007"
   transform="scale(0.00048828125,-0.00048828125)">
   <path
   d="M 0,-2 C -7,14 -16,27 -25,37 L 356,567 C 262,823 215,952 215,954 215,979 228,992 255,992 264,992 276,990 289,987 310,991 331,999 354,1012 L 381,999 492,748 772,1049 836,1024 860,1049 C 881,1039 901,1025 922,1006 886,937 835,863 770,784 769,783 710,716 594,584 L 774,223 C 774,196 753,168 711,139 L 727,119 C 717,90 699,76 672,76 641,76 570,178 457,381 L 164,-76 C 142,-110 111,-127 72,-127 30,-127 9,-110 8,-76 1,-67 -2,-52 -2,-32 -2,-23 -1,-13 0,-2 Z"
   id="path14" />
  </g>
  <g
   id="bullet-char-template-10004"
   transform="scale(0.00048828125,-0.00048828125)">
   <path
   d="M 285,-33 C 182,-33 111,30 74,156 52,228 41,333 41,471 41,549 55,616 82,672 116,743 169,778 240,778 293,778 328,747 346,684 L 369,508 C 377,444 397,411 428,410 L 1163,1116 C 1174,1127 1196,1133 1229,1133 1271,1133 1292,1118 1292,1087 L 1292,965 C 1292,929 1282,901 1262,881 L 442,47 C 390,-6 338,-33 285,-33 Z"
   id="path17" />
  </g>
  <g
   id="bullet-char-template-9679"
   transform="scale(0.00048828125,-0.00048828125)">
   <path
   d="M 813,0 C 632,0 489,54 383,161 276,268 223,411 223,592 223,773 276,916 383,1023 489,1130 632,1184 813,1184 992,1184 1136,1130 1245,1023 1353,916 1407,772 1407,592 1407,412 1353,268 1245,161 1136,54 992,0 813,0 Z"
   id="path20" />
  </g>
  <g
   id="bullet-char-template-8226"
   transform="scale(0.00048828125,-0.00048828125)">
   <path
   d="M 346,457 C 273,457 209,483 155,535 101,586 74,649 74,723 74,796 101,859 155,911 209,963 273,989 346,989 419,989 480,963 531,910 582,859 608,796 608,723 608,648 583,586 532,535 482,483 420,457 346,457 Z"
   id="path23" />
  </g>
  <g
   id="bullet-char-template-8211"
   transform="scale(0.00048828125,-0.00048828125)">
   <path
   d="M -4,459 L 1135,459 1135,606 -4,606 -4,459 Z"
   id="path26" />
  </g>
  <g
   id="bullet-char-template-61548"
   transform="scale(0.00048828125,-0.00048828125)">
   <path
   d="M 173,740 C 173,903 231,1043 346,1159 462,1274 601,1332 765,1332 928,1332 1067,1274 1183,1159 1299,1043 1357,903 1357,740 1357,577 1299,437 1183,322 1067,206 928,148 765,148 601,148 462,206 346,322 231,437 173,577 173,740 Z"
   id="path29" />
  </g>
 
  
  
  
  
  
  
  
  
  
  
  
  
 
   
  
    
    
   
   
  
    
    
   
   
  
    
    
   
   
  
    
    
   
   
  
    
    
   
   
  
    
    
   </defs>
 <g
   class="com.sun.star.drawing.ClosedBezierShape"
   id="g39">
   <g
   id="id3">
    <rect
   class="BoundingBox"
   stroke="none"
   fill="none"
   x="2104"
   y="11892"
   width="590"
   height="126"
   id="rect34" />
    <path
   fill="#ffffff"
   stroke="none"
   d="m 2104,11954 c 0,29 80,54 191,63 v -29 c -67,-7 -112,-19 -112,-34 0,-14 45,-26 112,-33 v -29 c -111,9 -191,34 -191,62 z m 398,-62 v 29 c 67,7 112,19 112,33 0,15 -45,27 -112,34 v 29 c 111,-9 191,-34 191,-63 0,-28 -80,-53 -191,-62 z"
   id="path36" />
   </g>
  </g><g
   class="com.sun.star.drawing.ClosedBezierShape"
   id="g46">
   <g
   id="id4">
    <rect
   class="BoundingBox"
   stroke="none"
   fill="none"
   x="1997"
   y="12075"
   width="805"
   height="177"
   id="rect41" />
    <path
   fill="#ffffff"
   stroke="none"
   d="m 1997,12162 c 0,43 127,79 299,89 v -40 c -112,-7 -191,-26 -191,-49 0,-21 79,-40 191,-47 v -40 c -172,10 -299,45 -299,87 z m 506,-87 v 40 c 111,7 191,26 191,47 0,23 -80,42 -191,49 v 40 c 172,-10 298,-46 298,-89 0,-42 -126,-77 -298,-87 z"
   id="path43" />
   </g>
  </g><g
   class="com.sun.star.drawing.PolyPolygonShape"
   id="g53">
   <g
   id="id5">
    <rect
   class="BoundingBox"
   stroke="none"
   fill="none"
   x="1869"
   y="12478"
   width="1061"
   height="434"
   id="rect48" />
    <path
   fill="#ffffff"
   stroke="none"
   d="m 2929,12546 v 252 l -531,113 -529,-113 v -252 l 335,-68 194,337 194,-337 z"
   id="path50" />
   </g>
  </g><g
   class="com.sun.star.drawing.ClosedBezierShape"
   id="g60">
   <g
   id="id6">
    <rect
   class="BoundingBox"
   stroke="none"
   fill="none"
   x="2295"
   y="12056"
   width="209"
   height="199"
   id="rect55" />
    <path
   fill="#ffffff"
   stroke="none"
   d="m 2503,12057 v 193 c -33,3 -68,4 -104,4 -36,0 -71,-1 -104,-4 v -193 c 2,0 4,1 6,1 35,2 69,3 98,3 29,0 63,-1 97,-3 3,0 5,-1 7,-1 z"
   id="path57" />
   </g>
  </g><g
   class="com.sun.star.drawing.ClosedBezierShape"
   id="g67">
   <g
   id="id7">
    <rect
   class="BoundingBox"
   stroke="none"
   fill="none"
   x="2295"
   y="11820"
   width="209"
   height="202"
   id="rect62" />
    <path
   fill="#ffffff"
   stroke="none"
   d="m 2503,11820 v 197 c -32,3 -67,4 -104,4 -37,0 -72,-1 -104,-4 v -197 z"
   id="path64" />
   </g>
  </g><g
   class="com.sun.star.drawing.ClosedBezierShape"
   id="g74">
   <g
   id="id8">
    <rect
   class="BoundingBox"
   stroke="none"
   fill="none"
   x="2160"
   y="12294"
   width="478"
   height="440"
   id="rect69" />
    <path
   fill="#ffffff"
   stroke="none"
   d="m 2637,12320 -239,413 -238,-413 h 135 v -26 c 33,2 68,3 103,3 36,0 71,-1 104,-3 v 26 z"
   id="path71" />
   </g>
  </g><rect
   class="BoundingBox"
   stroke="none"
   fill="none"
   x="2104"
   y="11892"
   width="590"
   height="126"
   id="rect76" /><path
   id="path78"
   style="fill:#000000;fill-opacity:1;stroke-width:1.06666"
   d="M 16.101562 0 L 16.101562 2.7207031 C 11.906287 3.0608606 8.8828125 4.0061854 8.8828125 5.0644531 C 8.8828125 6.1605161 11.906287 7.105155 16.101562 7.4453125 C 17.311011 7.5586983 18.632825 7.5976562 20.03125 7.5976562 C 21.429675 7.5976562 22.753442 7.5586983 23.962891 7.4453125 L 23.962891 7.4394531 C 28.13364 7.0960574 31.142578 6.1564036 31.142578 5.0644531 C 31.142578 4.0101567 28.133637 3.0699581 23.962891 2.7265625 L 23.962891 0 L 16.101562 0 z M 16.101562 3.8164062 L 16.101562 6.3496094 C 13.569279 6.0850425 11.867188 5.6313822 11.867188 5.0644531 C 11.867188 4.5353193 13.569279 4.0809732 16.101562 3.8164062 z M 23.962891 3.8222656 C 26.46858 4.0875324 28.158203 4.5386776 28.158203 5.0644531 C 28.158203 5.6277849 26.468586 6.0784819 23.962891 6.34375 L 23.962891 3.8222656 z "
   transform="matrix(26.458334,0,0,26.458334,1869,11820)" /><rect
   class="BoundingBox"
   stroke="none"
   fill="none"
   x="1997"
   y="12075"
   width="805"
   height="177"
   id="rect83" /><path
   id="path85"
   style="fill:#000000;fill-opacity:1;stroke-width:1.06666"
   d="M 16.101562 8.9960938 L 16.101562 9.6425781 C 9.6211649 10.023633 4.8378906 11.341648 4.8378906 12.925781 C 4.8378906 14.547632 9.6211624 15.903947 16.101562 16.285156 L 16.101562 16.289062 C 17.348807 16.402448 18.67062 16.441406 20.03125 16.441406 C 21.39188 16.441406 22.715647 16.402448 23.962891 16.289062 C 30.463678 15.91111 35.224609 14.550978 35.224609 12.925781 C 35.224609 11.33838 30.463678 10.016625 23.962891 9.6386719 L 23.962891 8.9960938 C 23.8873 8.9960938 23.810651 9.0332031 23.697266 9.0332031 C 22.412226 9.1087937 21.127313 9.1464844 20.03125 9.1464844 C 18.935187 9.1464844 17.65096 9.1087937 16.328125 9.0332031 C 16.252534 9.0332031 16.177153 8.9960938 16.101562 8.9960938 z M 23.962891 11.150391 C 28.158166 11.414958 31.181641 12.13208 31.181641 12.925781 C 31.181641 13.795073 28.158166 14.512777 23.962891 14.777344 L 23.962891 11.150391 z M 16.101562 11.15625 L 16.101562 14.771484 C 11.892574 14.504632 8.9199219 13.79196 8.9199219 12.925781 C 8.9199219 12.134923 11.892579 11.423102 16.101562 11.15625 z "
   transform="matrix(26.458334,0,0,26.458334,1869,11820)" /><rect
   class="BoundingBox"
   stroke="none"
   fill="none"
   x="1869"
   y="12478"
   width="1061"
   height="434"
   id="rect90" /><path
   fill="#231f20"
   stroke="none"
   d="m 2929,12546 v 252 l -531,113 -529,-113 v -252 l 335,-68 194,337 194,-337 z"
   id="path92"
   style="fill:#000000;fill-opacity:1" /><rect
   class="BoundingBox"
   stroke="none"
   fill="none"
   x="2295"
   y="12056"
   width="209"
   height="199"
   id="rect97" /><rect
   class="BoundingBox"
   stroke="none"
   fill="none"
   x="2295"
   y="11820"
   width="209"
   height="202"
   id="rect104" /><rect
   class="BoundingBox"
   stroke="none"
   fill="none"
   x="2160"
   y="12294"
   width="478"
   height="440"
   id="rect111" /><path
   fill="#231f20"
   stroke="none"
   d="m 2637,12320 -239,413 -238,-413 h 135 v -26 c 33,2 68,3 103,3 36,0 71,-1 104,-3 v 26 z"
   id="path113"
   style="fill:#000000;fill-opacity:1" />
</svg>
