<svg xmlns="http://www.w3.org/2000/svg" xmlns:xlink="http://www.w3.org/1999/xlink" viewBox="0 0 44.2 22.48"><defs><style>.cls-1{fill:none;}.cls-2{clip-path:url(#clip-path);}.cls-3{fill:#fff;}.cls-4{fill:#e15426;}.cls-5{fill:#1ac2ec;}</style><clipPath id="clip-path" transform="translate(0 0)"><rect class="cls-1" width="44.2" height="22.48"/></clipPath></defs><g id="Layer_2" data-name="Layer 2"><g id="Layer_1-2" data-name="Layer 1"><g class="cls-2"><path class="cls-3" d="M40.9,3.28A11.16,11.16,0,0,0,33,0H11.34A11.49,11.49,0,0,0,6.69,1,11.36,11.36,0,0,0,3,3.57a11.26,11.26,0,0,0,8.25,18.91H32.88a11.2,11.2,0,0,0,4.42-.9,11.53,11.53,0,0,0,3.62-2.45,11.19,11.19,0,0,0,0-15.85" transform="translate(0 0)"/><path class="cls-4" d="M19.19.68H11.34a10.56,10.56,0,1,0-.1,21.12h7a.79.79,0,0,0,.78-.62L22.7,5.08A3.6,3.6,0,0,0,19.19.68" transform="translate(0 0)"/><path class="cls-5" d="M24.91,21.8h8A10.56,10.56,0,1,0,33,.68H25.84a.8.8,0,0,0-.78.62L21.4,17.4a3.6,3.6,0,0,0,3.51,4.4" transform="translate(0 0)"/><path class="cls-3" d="M15.08,8.44A6,6,0,0,1,13.2,2.7c-1,.1-2.69,1.27-3.34,3.58-1.14,4.08,1.69,5.4,0,6.82-1.9,1.61-3.54-1-3.28-3.3-1.2.94-1.93,4.79-.38,7.12a6,6,0,0,0,4.38,2.86,1.54,1.54,0,0,1-.42-1.8c.3-.86,1.29-1.24,2.22-2a3.86,3.86,0,0,0,1.54-2,4,4,0,0,1,.62,3.64,3.5,3.5,0,0,1-1.37,2A6.11,6.11,0,0,0,18,13.82c0-3-1.51-4.27-2.88-5.38" transform="translate(0 0)"/><path class="cls-3" d="M39.7,13.1l-1.52,1.12L37,13.48l2-1.39a.28.28,0,1,0-.32-.46l-2.18,1.53L34.6,12.05V10.46l1.83-1.12,2.18,1.53a.25.25,0,0,0,.16.05A.27.27,0,0,0,39,10.8a.28.28,0,0,0-.07-.39L37,9l1.23-.74L39.7,9.41a.34.34,0,0,0,.17.05A.28.28,0,0,0,40,9L38.7,8l1.17-.71a.28.28,0,1,0-.28-.48l-1.2.66-.18-1.65a.28.28,0,0,0-.56.06l.21,1.88-1.26.68L36.39,6a.28.28,0,0,0-.56,0l.24,2.65-1.89,1L32.81,9,32.76,6.8l2.42-1.13a.28.28,0,1,0-.24-.5l-2.19,1,0-1.43L34.45,4a.28.28,0,0,0,.14-.37.28.28,0,0,0-.37-.15l-1.51.67,0-1.37a.28.28,0,0,0-.28-.28.27.27,0,0,0-.28.28l0,1.37-1.52-.67a.28.28,0,0,0-.23.52l1.73.76,0,1.43-2.19-1a.27.27,0,0,0-.37.13.28.28,0,0,0,.14.37L32,6.8,32,9l-1.37.79-1.88-1L29,6.06a.28.28,0,0,0-.56,0l-.21,2.4-1.25-.68.2-1.88a.27.27,0,0,0-.24-.31.27.27,0,0,0-.31.25l-.18,1.65L25.2,6.78a.28.28,0,0,0-.28.48L26.1,8,24.76,9a.29.29,0,0,0-.06.4.28.28,0,0,0,.22.11.34.34,0,0,0,.17-.05l1.53-1.12L27.84,9l-2,1.38a.28.28,0,0,0-.07.39.27.27,0,0,0,.23.12.25.25,0,0,0,.16-.05l2.18-1.53,1.83,1.11V12l-1.84,1.12-2.17-1.53a.28.28,0,0,0-.32.46l2,1.38-1.22.75L25.09,13.1a.28.28,0,0,0-.39.06.28.28,0,0,0,.06.39l1.33,1-1.17.71a.29.29,0,0,0-.1.39.28.28,0,0,0,.24.14.33.33,0,0,0,.14,0l1.21-.66.18,1.65a.27.27,0,0,0,.27.25h0a.28.28,0,0,0,.24-.31l-.2-1.88,1.25-.69.21,2.41a.28.28,0,0,0,.28.25h0a.28.28,0,0,0,.26-.3l-.23-2.66,1.87-1,1.38.79L32,15.7l-2.41,1.13a.28.28,0,0,0-.14.37.29.29,0,0,0,.26.16l.11,0,2.19-1,0,1.42-1.73.76a.29.29,0,0,0-.14.37.27.27,0,0,0,.26.17l.11,0,1.52-.67,0,1.37a.27.27,0,0,0,.28.28.28.28,0,0,0,.28-.28l0-1.37,1.51.67.12,0a.26.26,0,0,0,.25-.17.28.28,0,0,0-.14-.37l-1.73-.76,0-1.43,2.19,1a.27.27,0,0,0,.12,0,.28.28,0,0,0,.25-.16.27.27,0,0,0-.13-.37L32.76,15.7l.05-2.14,1.37-.79,1.89,1-.24,2.65a.28.28,0,0,0,.26.3h0a.27.27,0,0,0,.28-.25l.21-2.41,1.26.69-.21,1.88a.28.28,0,0,0,.25.31h0a.29.29,0,0,0,.28-.25l.18-1.65,1.2.66a.33.33,0,0,0,.14,0,.27.27,0,0,0,.24-.14.29.29,0,0,0-.1-.39l-1.17-.71,1.33-1a.27.27,0,0,0,.06-.39.28.28,0,0,0-.39-.06M32.4,13l-1.51-.88V10.38l1.51-.87,1.51.87v1.74Z" transform="translate(0 0)"/></g></g></g></svg>