<?xml version="1.0" encoding="UTF-8" standalone="no"?>
<!-- Created with Inkscape (http://www.inkscape.org/) -->

<svg
   width="11.692904mm"
   height="5.9479623mm"
   viewBox="0 0 11.692904 5.9479623"
   version="1.1"
   id="svg1289"
   inkscape:version="1.1.2 (0a00cf5339, 2022-02-04)"
   sodipodi:docname="half-overlay.svg"
   xmlns:inkscape="http://www.inkscape.org/namespaces/inkscape"
   xmlns:sodipodi="http://sodipodi.sourceforge.net/DTD/sodipodi-0.dtd"
   xmlns="http://www.w3.org/2000/svg"
   xmlns:svg="http://www.w3.org/2000/svg">
  <sodipodi:namedview
     id="namedview1291"
     pagecolor="#ffffff"
     bordercolor="#666666"
     borderopacity="1.0"
     inkscape:pageshadow="2"
     inkscape:pageopacity="0.0"
     inkscape:pagecheckerboard="0"
     inkscape:document-units="mm"
     showgrid="false"
     fit-margin-top="0"
     fit-margin-left="0"
     fit-margin-right="0"
     fit-margin-bottom="0"
     inkscape:zoom="10.383829"
     inkscape:cx="26.05012"
     inkscape:cy="8.3302601"
     inkscape:window-width="1846"
     inkscape:window-height="1136"
     inkscape:window-x="0"
     inkscape:window-y="0"
     inkscape:window-maximized="1"
     inkscape:current-layer="layer1" />
  <defs
     id="defs1286" />
  <g
     inkscape:label="Layer 1"
     inkscape:groupmode="layer"
     id="layer1"
     transform="translate(-90.431899,-83.778596)">
    <g
       id="Frame"
       style="fill:#000000"
       transform="matrix(0.26458333,0,0,0.26458333,90.431338,83.778596)">
      <path
         id="Frame-2"
         style="fill:#000000"
         class="cls-1"
         d="M 11.339844,0 A 11.63,11.63 0 0 0 6.6894531,1 11.31,11.31 0 0 0 3,3.5703125 11.26,11.26 0 0 0 11.25,22.480469 h 21.630859 a 11.2,11.2 0 0 0 4.419922,-0.900391 11.59,11.59 0 0 0 3.619141,-2.449219 11.2,11.2 0 0 0 0,-15.8300778 l -0.01953,-0.021484 A 11.17,11.17 0 0 0 33,0 Z m 0,0.6796875 h 7.849609 a 3.6,3.6 0 0 1 3.509766,4.4003906 L 19.019531,21.179688 a 0.79,0.79 0 0 1 -0.779297,0.621093 h -7 a 10.560664,10.560664 0 0 1 0.09961,-21.1210935 z m 14.5,0 H 33 A 10.560642,10.560642 0 0 1 32.91016,21.800781 h -8 a 3.6,3.6 0 0 1 -3.509765,-4.40039 L 25.060547,1.3007812 a 0.8,0.8 0 0 1 0.779297,-0.6210937 z" />
    </g>
  </g>
</svg>
