<svg xmlns="http://www.w3.org/2000/svg" viewBox="0 0 44.21 22.48"><defs><style>.cls-1{fill:#fff;}.cls-2{fill:#9ab0b7;}.cls-3{fill:#1ac2ec;}</style></defs><g id="Layer_2" data-name="Layer 2"><g id="Frame"><path id="Frame-2" data-name="Frame" class="cls-1" d="M40.9,3.28A11.17,11.17,0,0,0,33,0H11.34A11.63,11.63,0,0,0,6.69,1,11.31,11.31,0,0,0,3,3.57a11.26,11.26,0,0,0,8.25,18.91H32.88a11.2,11.2,0,0,0,4.42-.9,11.59,11.59,0,0,0,3.62-2.45,11.2,11.2,0,0,0,0-15.83l0,0"/></g><g id="Wind_Right" data-name="Wind Right"><path id="Background" class="cls-2" d="M24.91,21.8h8A10.56,10.56,0,0,0,33,.68H25.84a.8.8,0,0,0-.78.62L21.4,17.4a3.6,3.6,0,0,0,3.51,4.4"/><g id="Icon"><path class="cls-1" d="M23.56,12.33s0,0,0-.06a0,0,0,0,1,0,0,5.9,5.9,0,0,1,3.27.63c2.08,1,5.44,3.17,7.42,3.05,1.69-.1,2.5-.74,2.42-1.51a1,1,0,0,0-1.27-.81,1.07,1.07,0,0,0-.71,1.11.94.94,0,0,1-.14-1.18,1.47,1.47,0,0,1,2.22-.32,1.83,1.83,0,0,1,0,2.8,4.23,4.23,0,0,1-4.06.7c-2.38-.6-4.95-2.78-6.3-3.42a10,10,0,0,0-2.85-.95"/><path class="cls-1" d="M27.13,12.07a0,0,0,0,1,0-.05s0,0,0,0a10.35,10.35,0,0,0,4.79.36c2.38-.62,2.82-2,5.2-3.2,1.51-.73,3.5-.2,4,1.28a1.88,1.88,0,0,1-2,2.44,1.8,1.8,0,0,1-1.66-1,1,1,0,0,1,.6-1.26,1.1,1.1,0,0,0,1,1.46,1.07,1.07,0,0,0,.76-1.8A1.77,1.77,0,0,0,37.71,10a28,28,0,0,1-3.2,2.34,6.78,6.78,0,0,1-4.59.7,10.75,10.75,0,0,1-2.79-1"/><path class="cls-1" d="M24.88,10.71a0,0,0,0,1,0-.06.05.05,0,0,1,0,0c.68,0,2.6,0,3.61-1.12,1.24-1.38.95-2.32,2.06-3.32a3,3,0,0,1,3.77.14c1.38,1.18.64,3.48-.73,4.19-1.16.6-2.61.41-2.94-.53a1.41,1.41,0,0,1,1.16-2,.69.69,0,0,1,.7.82s-.24-.42-.57-.37a.81.81,0,0,0-.57,1.11c.27.65,1.43.93,2.26-.06a1.72,1.72,0,0,0-.74-2.9c-1.32-.47-2.08.5-2.78,1.8-.55,1-1.17,2.32-3.06,2.43a5.34,5.34,0,0,1-2.19-.14"/></g></g><g id="Ice_Left" data-name="Ice Left"><path id="Background-2" data-name="Background" class="cls-3" d="M19.19.68H11.34a10.56,10.56,0,0,0-.1,21.12h7a.79.79,0,0,0,.78-.62L22.7,5.08A3.6,3.6,0,0,0,19.19.68"/><path id="Icon-2" data-name="Icon" class="cls-1" d="M19.09,13.06l-1.52,1.12-1.18-.74,2-1.39a.29.29,0,0,0,.07-.39.28.28,0,0,0-.39-.07l-2.18,1.53L14,12V10.42L15.82,9.3,18,10.83a.28.28,0,0,0,.16.05.27.27,0,0,0,.23-.12.29.29,0,0,0-.07-.39h0L16.39,9l1.23-.74,1.47,1.15a.34.34,0,0,0,.17.05.28.28,0,0,0,.19-.35A.24.24,0,0,0,19.39,9l-1.3-1,1.17-.71a.28.28,0,0,0,.14-.37A.26.26,0,0,0,19,6.74a.09.09,0,0,0-.06,0l-1.2.66L17.6,5.78a.29.29,0,0,0-.31-.25.28.28,0,0,0-.25.31h0l.21,1.88L16,8.4,15.78,6a.29.29,0,0,0-.28-.28.28.28,0,0,0-.28.28h0l.24,2.65-1.89,1L12.2,9l0-2.2,2.42-1.13a.28.28,0,0,0,.18-.35.28.28,0,0,0-.35-.18.15.15,0,0,0-.07,0l-2.19,1V4.7L13.84,4A.28.28,0,0,0,14,3.59a.29.29,0,0,0-.37-.15h0l-1.51.67V2.74a.29.29,0,0,0-.28-.28.26.26,0,0,0-.28.26V4.11L10,3.44a.29.29,0,0,0-.38.14A.29.29,0,0,0,9.79,4l1.73.76V6.15l-2.19-1A.27.27,0,0,0,9,5.27H9a.27.27,0,0,0,.14.37l2.29,1.11V9L10,9.75l-1.88-1L8.39,6a.29.29,0,0,0-.28-.28A.28.28,0,0,0,7.83,6l-.21,2.4L6.37,7.74l.2-1.88a.27.27,0,0,0-.23-.31h0A.27.27,0,0,0,6,5.78v0L5.84,7.45,4.59,6.74a.28.28,0,0,0-.37.15.27.27,0,0,0,.09.33L5.49,8,4.15,9a.28.28,0,0,0-.06.4.27.27,0,0,0,.22.11.34.34,0,0,0,.17-.05L6,8.3,7.23,9l-2,1.38a.28.28,0,0,0-.07.39h0a.26.26,0,0,0,.23.12.33.33,0,0,0,.16,0L7.73,9.27l1.83,1.11V12L7.72,13.08,5.55,11.55a.28.28,0,1,0-.32.46l2,1.38L6,14.14,4.48,13.06a.28.28,0,0,0-.39.06.28.28,0,0,0,.06.39l1.33,1-1.17.71a.28.28,0,0,0-.1.39.27.27,0,0,0,.24.14h.14l1.21-.66L6,16.74a.27.27,0,0,0,.27.25h0a.29.29,0,0,0,.24-.31l-.2-1.88,1.25-.69.21,2.41a.27.27,0,0,0,.28.25H8a.28.28,0,0,0,.26-.3h0l-.23-2.66,1.87-1,1.38.79.08,2.06L9,16.79a.27.27,0,0,0-.14.37.29.29,0,0,0,.26.16h.11l2.19-1v1.42l-1.73.76a.29.29,0,0,0-.14.37.26.26,0,0,0,.26.17H9.9l1.52-.67v1.37a.27.27,0,0,0,.26.28h0a.29.29,0,0,0,.28-.28V18.37l1.51.67h.12a.27.27,0,0,0,.25-.17.28.28,0,0,0-.14-.37L12,17.74V16.31l2.19,1a.24.24,0,0,0,.12,0,.28.28,0,0,0,.25-.16.28.28,0,0,0-.12-.36h0l-2.27-1.12,0-2.14,1.37-.79,1.89,1-.24,2.65a.28.28,0,0,0,.26.3h0a.27.27,0,0,0,.28-.25L16,14l1.26.69L17,16.59a.28.28,0,0,0,.24.31h0a.29.29,0,0,0,.28-.25L17.73,15l1.2.66h.14a.27.27,0,0,0,.24-.14.3.3,0,0,0-.1-.39L18,14.42l1.33-1a.28.28,0,0,0,.07-.38h0A.28.28,0,0,0,19,13m-7.25,0-1.51-.88V10.34l1.51-.87,1.51.87v1.74Z"/></g></g></svg>