<svg xmlns="http://www.w3.org/2000/svg" viewBox="0 0 560 560"><defs><style>.cls-1{fill:#eeac1f;}.cls-2{fill:#fff;}</style></defs><g id="Layer_2" data-name="Layer 2"><g id="Layer_1-2" data-name="Layer 1"><path class="cls-1" d="M280,552A272,272,0,0,1,87.67,87.67,272,272,0,1,1,472.33,472.33,270.19,270.19,0,0,1,280,552"/><path class="cls-2" d="M280,16c145.8,0,264,118.2,264,264S425.8,544,280,544,16,425.8,16,280,134.2,16,280,16m0-16A280.07,280.07,0,0,0,171,538,280.07,280.07,0,0,0,389,22,278.34,278.34,0,0,0,280,0"/><path class="cls-2" d="M499,274.64l-93.18-46.76,32.83-98.94a6,6,0,0,0-7.59-7.59l-98.94,32.83L285.36,61a6,6,0,0,0-10.72,0l-46.76,93.18-98.94-32.83a6,6,0,0,0-7.59,7.59l32.83,98.95L61,274.64a6,6,0,0,0,0,10.72l93.18,46.75-32.83,98.95a6,6,0,0,0,7.59,7.59l98.94-32.83L274.64,499a6,6,0,0,0,10.72,0l46.75-93.18,98.95,32.83a6.17,6.17,0,0,0,1.89.3,6,6,0,0,0,5.7-7.89l-32.84-98.95L499,285.36a6,6,0,0,0,0-10.72M409.2,150.86l-17.92,69.73-25.67-12.88,10-23.28-23.28,10-12.87-25.64ZM307.53,213.55l-13.31-33.22,30.3-7.76,15.91,26.9Zm-55.06,0-32.89-14.08,15.94-26.9,30.26,7.76Zm-38.92,38.92-33.22,13.31-7.75-30.28,26.89-15.92Zm0,55.06-14.08,32.89L172.58,324.5l7.75-30.28Zm38.92,38.92,13.31,33.22-30.26,7.77-15.94-26.91Zm55.06,0,32.9,14.08-15.91,26.91-30.3-7.77Zm38.92-38.92,33.22-13.31,7.78,30.28-26.92,15.93Zm0-55.06,14.08-32.9,26.92,15.93-7.78,30.28Zm-66.4-155.1,36.63,61.94-27.26,9L280,144.85l-9.42,23.5-27.22-9ZM150.91,150.86l69.68,17.88-12.88,25.65-23.28-10,10,23.28-25.63,12.86ZM97.42,280l61.9-36.65,9,27.23L144.85,280l23.5,9.42-9,27.23Zm53.49,129.15,17.85-69.72,25.63,12.86-10,23.28,23.28-10,12.88,25.66Zm129.14,53.49-36.69-62,27.22-9,9.42,23.5,9.42-23.5,27.26,9ZM409.2,409.15l-69.78-17.89,12.87-25.65,23.28,10-10-23.28,25.67-12.88Zm-8.51-92.48-9-27.25,23.5-9.42-23.5-9.42,9-27.25,62,36.67Z"/></g></g></svg>